<svg width="253" height="178" viewBox="0 0 253 178" fill="none" xmlns="http://www.w3.org/2000/svg">
<path d="M28 23.5617C28 22.1469 29.1469 21 30.5617 21H218.142C219.557 21 220.704 22.1469 220.704 23.5617V138.504C220.704 139.918 219.557 141.065 218.142 141.065H30.5617C29.1469 141.065 28 139.918 28 138.504V23.5617Z" fill="#F8F6F8"/>
<path d="M28 23.5617C28 22.1469 29.1469 21 30.5617 21H218.142C219.557 21 220.704 22.1469 220.704 23.5617V30.6065H28V23.5617Z" fill="#487382"/>
<g filter="url(#filter0_d)">
<path d="M40.7449 47.5395C40.7449 46.1247 41.8919 44.9778 43.3067 44.9778H208.404C209.819 44.9778 210.966 46.1247 210.966 47.5395V122.356C210.966 123.771 209.819 124.918 208.404 124.918H43.3067C41.8919 124.918 40.7449 123.771 40.7449 122.356V47.5395Z" fill="white"/>
</g>
<g filter="url(#filter1_d)">
<path d="M87.817 38.2919C87.817 37.2308 88.6772 36.3706 89.7383 36.3706H211.075C212.136 36.3706 212.996 37.2308 212.996 38.2919V131.558C212.996 132.619 212.136 133.479 211.075 133.479H89.7383C88.6772 133.479 87.817 132.619 87.817 131.558V38.2919Z" fill="white"/>
</g>
<g clip-path="url(#clip0)">
<path d="M191.646 77.7401L190.127 75.3441L191.028 72.6551C191.15 72.2881 190.998 71.8851 190.663 71.6931L188.205 70.2761L187.753 67.4761C187.69 67.0941 187.368 66.8091 186.982 66.7931L184.147 66.6821L182.446 64.4121C182.214 64.1021 181.794 63.9991 181.447 64.1661L178.886 65.3841L176.324 64.1651C175.976 64.0001 175.558 64.1031 175.325 64.4121L173.624 66.6821L170.789 66.7931C170.404 66.8081 170.081 67.0931 170.019 67.4751L169.567 70.2751L167.109 71.6921C166.774 71.8841 166.621 72.2871 166.743 72.6541L167.644 75.3431L166.126 77.7401C165.919 78.0671 165.972 78.4941 166.251 78.7621L168.298 80.7251L168.068 83.5511C168.037 83.9381 168.281 84.2911 168.652 84.3991L171.377 85.1841L172.486 87.7951C172.638 88.1501 173.019 88.3561 173.397 88.2741L176.177 87.7041L178.371 89.5011C178.52 89.6221 178.703 89.6851 178.886 89.6851C179.069 89.6851 179.251 89.6221 179.401 89.5011L181.595 87.7041L184.375 88.2741C184.752 88.3541 185.135 88.1511 185.286 87.7951L186.395 85.1841L189.12 84.3991C189.491 84.2921 189.735 83.9381 189.704 83.5511L189.474 80.7251L191.521 78.7621C191.8 78.4941 191.853 78.0671 191.646 77.7401ZM184.763 73.8291L179.072 82.3551C178.857 82.6731 178.524 82.8861 178.193 82.8861C177.863 82.8861 177.494 82.7011 177.259 82.4651L173.081 78.2201C172.796 77.9301 172.796 77.4601 173.081 77.1701L174.112 76.1201C174.397 75.8341 174.86 75.8341 175.143 76.1201L177.862 78.8821L182.346 72.1641C182.571 71.8251 183.028 71.7391 183.36 71.9681L184.569 72.7991C184.902 73.0291 184.988 73.4921 184.763 73.8291Z" fill="#3BB3BD"/>
</g>
<path d="M95.5021 51.7706C95.5021 49.809 97.0924 48.2188 99.054 48.2188H158.688C160.65 48.2188 162.24 49.809 162.24 51.7706C162.24 53.7323 160.65 55.3225 158.688 55.3225H99.054C97.0924 55.3225 95.5021 53.7323 95.5021 51.7706Z" fill="#BDCEDE"/>
<path d="M96 66.5617C96 65.1469 96.8584 64 97.9172 64H144.677C145.736 64 146.594 65.1469 146.594 66.5617C146.594 67.9766 145.736 69.1235 144.677 69.1235H97.9172C96.8584 69.1235 96 67.9766 96 66.5617Z" fill="#D7F7FA"/>
<path d="M96 83.5617C96 82.1469 96.8584 81 97.9172 81H144.677C145.736 81 146.594 82.1469 146.594 83.5617C146.594 84.9766 145.736 86.1235 144.677 86.1235H97.9172C96.8584 86.1235 96 84.9766 96 83.5617Z" fill="#D7F7FA"/>
<path d="M96 74.2468C96 72.832 96.8576 71.6851 97.9155 71.6851H138.595C139.653 71.6851 140.51 72.832 140.51 74.2468C140.51 75.6616 139.653 76.8085 138.595 76.8085H97.9155C96.8576 76.8085 96 75.6616 96 74.2468Z" fill="#D7F7FA"/>
<path d="M96 91.2468C96 89.832 96.8576 88.6851 97.9155 88.6851H138.595C139.653 88.6851 140.51 89.832 140.51 91.2468C140.51 92.6616 139.653 93.8085 138.595 93.8085H97.9155C96.8576 93.8085 96 92.6616 96 91.2468Z" fill="#D7F7FA"/>
<path d="M79.1711 87.2514C79.1711 95.2097 72.6479 101.661 64.6012 101.661C56.5544 101.661 50.0312 95.2097 50.0312 87.2514C50.0312 79.293 56.5544 72.8416 64.6012 72.8416C72.6479 72.8416 79.1711 79.293 79.1711 87.2514Z" fill="#3BB3BD"/>
<path d="M49.0706 50.706C49.0706 51.6787 48.282 52.4672 47.3094 52.4672C46.3367 52.4672 45.5482 51.6787 45.5482 50.706C45.5482 49.7333 46.3367 48.9448 47.3094 48.9448C48.282 48.9448 49.0706 49.7333 49.0706 50.706Z" fill="#FF7D66"/>
<path d="M54.8345 50.706C54.8345 51.6787 54.046 52.4672 53.0733 52.4672C52.1006 52.4672 51.3121 51.6787 51.3121 50.706C51.3121 49.7333 52.1006 48.9448 53.0733 48.9448C54.046 48.9448 54.8345 49.7333 54.8345 50.706Z" fill="#FFC74F"/>
<path d="M60.5984 50.706C60.5984 51.6787 59.8099 52.4672 58.8372 52.4672C57.8646 52.4672 57.076 51.6787 57.076 50.706C57.076 49.7333 57.8646 48.9448 58.8372 48.9448C59.8099 48.9448 60.5984 49.7333 60.5984 50.706Z" fill="#25BC5C"/>
<path d="M236 107.235C236 105.448 233.9 104 231.308 104H141.692C139.1 104 137 105.448 137 107.235V121.765C137 123.552 139.1 125 141.692 125H231.308C233.9 125 236 123.552 236 121.765V107.235Z" fill="#E63946"/>
<path d="M157.672 115.8H155.072L154.576 117H153.248L155.744 111.4H157.024L159.528 117H158.168L157.672 115.8ZM157.264 114.816L156.376 112.672L155.488 114.816H157.264ZM162.062 117.064C161.604 117.064 161.19 116.971 160.822 116.784C160.46 116.592 160.174 116.328 159.966 115.992C159.764 115.656 159.662 115.275 159.662 114.848C159.662 114.421 159.764 114.04 159.966 113.704C160.174 113.368 160.46 113.107 160.822 112.92C161.19 112.728 161.604 112.632 162.062 112.632C162.516 112.632 162.91 112.728 163.246 112.92C163.588 113.107 163.836 113.376 163.99 113.728L163.022 114.248C162.798 113.853 162.476 113.656 162.054 113.656C161.729 113.656 161.46 113.763 161.246 113.976C161.033 114.189 160.926 114.48 160.926 114.848C160.926 115.216 161.033 115.507 161.246 115.72C161.46 115.933 161.729 116.04 162.054 116.04C162.481 116.04 162.804 115.843 163.022 115.448L163.99 115.976C163.836 116.317 163.588 116.584 163.246 116.776C162.91 116.968 162.516 117.064 162.062 117.064ZM166.734 117.064C166.275 117.064 165.862 116.971 165.494 116.784C165.131 116.592 164.846 116.328 164.638 115.992C164.435 115.656 164.334 115.275 164.334 114.848C164.334 114.421 164.435 114.04 164.638 113.704C164.846 113.368 165.131 113.107 165.494 112.92C165.862 112.728 166.275 112.632 166.734 112.632C167.187 112.632 167.582 112.728 167.918 112.92C168.259 113.107 168.507 113.376 168.662 113.728L167.694 114.248C167.47 113.853 167.147 113.656 166.726 113.656C166.401 113.656 166.131 113.763 165.918 113.976C165.705 114.189 165.598 114.48 165.598 114.848C165.598 115.216 165.705 115.507 165.918 115.72C166.131 115.933 166.401 116.04 166.726 116.04C167.153 116.04 167.475 115.843 167.694 115.448L168.662 115.976C168.507 116.317 168.259 116.584 167.918 116.776C167.582 116.968 167.187 117.064 166.734 117.064ZM171.374 117.064C170.921 117.064 170.513 116.971 170.15 116.784C169.793 116.592 169.513 116.328 169.31 115.992C169.107 115.656 169.006 115.275 169.006 114.848C169.006 114.421 169.107 114.04 169.31 113.704C169.513 113.368 169.793 113.107 170.15 112.92C170.513 112.728 170.921 112.632 171.374 112.632C171.827 112.632 172.233 112.728 172.59 112.92C172.947 113.107 173.227 113.368 173.43 113.704C173.633 114.04 173.734 114.421 173.734 114.848C173.734 115.275 173.633 115.656 173.43 115.992C173.227 116.328 172.947 116.592 172.59 116.784C172.233 116.971 171.827 117.064 171.374 117.064ZM171.374 116.04C171.694 116.04 171.955 115.933 172.158 115.72C172.366 115.501 172.47 115.211 172.47 114.848C172.47 114.485 172.366 114.197 172.158 113.984C171.955 113.765 171.694 113.656 171.374 113.656C171.054 113.656 170.79 113.765 170.582 113.984C170.374 114.197 170.27 114.485 170.27 114.848C170.27 115.211 170.374 115.501 170.582 115.72C170.79 115.933 171.054 116.04 171.374 116.04ZM178.904 112.696V117H177.72V116.488C177.555 116.675 177.358 116.819 177.128 116.92C176.899 117.016 176.651 117.064 176.384 117.064C175.819 117.064 175.371 116.901 175.04 116.576C174.71 116.251 174.544 115.768 174.544 115.128V112.696H175.792V114.944C175.792 115.637 176.083 115.984 176.664 115.984C176.963 115.984 177.203 115.888 177.384 115.696C177.566 115.499 177.656 115.208 177.656 114.824V112.696H178.904ZM182.676 112.632C183.21 112.632 183.639 112.792 183.964 113.112C184.295 113.432 184.46 113.907 184.46 114.536V117H183.212V114.728C183.212 114.387 183.138 114.133 182.988 113.968C182.839 113.797 182.623 113.712 182.34 113.712C182.026 113.712 181.775 113.811 181.588 114.008C181.402 114.2 181.308 114.488 181.308 114.872V117H180.06V112.696H181.252V113.2C181.418 113.019 181.623 112.88 181.868 112.784C182.114 112.683 182.383 112.632 182.676 112.632ZM188.368 116.792C188.245 116.883 188.093 116.952 187.912 117C187.736 117.043 187.549 117.064 187.352 117.064C186.84 117.064 186.442 116.933 186.16 116.672C185.882 116.411 185.744 116.027 185.744 115.52V113.752H185.08V112.792H185.744V111.744H186.992V112.792H188.064V113.752H186.992V115.504C186.992 115.685 187.037 115.827 187.128 115.928C187.224 116.024 187.357 116.072 187.528 116.072C187.725 116.072 187.893 116.019 188.032 115.912L188.368 116.792ZM195.11 115.8H192.51L192.014 117H190.686L193.182 111.4H194.462L196.966 117H195.606L195.11 115.8ZM194.702 114.816L193.814 112.672L192.926 114.816H194.702ZM200.003 112.632C200.403 112.632 200.765 112.725 201.091 112.912C201.421 113.093 201.68 113.352 201.867 113.688C202.053 114.019 202.147 114.405 202.147 114.848C202.147 115.291 202.053 115.68 201.867 116.016C201.68 116.347 201.421 116.605 201.091 116.792C200.765 116.973 200.403 117.064 200.003 117.064C199.453 117.064 199.021 116.891 198.707 116.544V118.552H197.459V112.696H198.651V113.192C198.96 112.819 199.411 112.632 200.003 112.632ZM199.787 116.04C200.107 116.04 200.368 115.933 200.571 115.72C200.779 115.501 200.883 115.211 200.883 114.848C200.883 114.485 200.779 114.197 200.571 113.984C200.368 113.765 200.107 113.656 199.787 113.656C199.467 113.656 199.203 113.765 198.995 113.984C198.792 114.197 198.691 114.485 198.691 114.848C198.691 115.211 198.792 115.501 198.995 115.72C199.203 115.933 199.467 116.04 199.787 116.04ZM205.526 112.632C205.926 112.632 206.289 112.725 206.614 112.912C206.945 113.093 207.204 113.352 207.39 113.688C207.577 114.019 207.67 114.405 207.67 114.848C207.67 115.291 207.577 115.68 207.39 116.016C207.204 116.347 206.945 116.605 206.614 116.792C206.289 116.973 205.926 117.064 205.526 117.064C204.977 117.064 204.545 116.891 204.23 116.544V118.552H202.982V112.696H204.174V113.192C204.484 112.819 204.934 112.632 205.526 112.632ZM205.31 116.04C205.63 116.04 205.892 115.933 206.094 115.72C206.302 115.501 206.406 115.211 206.406 114.848C206.406 114.485 206.302 114.197 206.094 113.984C205.892 113.765 205.63 113.656 205.31 113.656C204.99 113.656 204.726 113.765 204.518 113.984C204.316 114.197 204.214 114.485 204.214 114.848C204.214 115.211 204.316 115.501 204.518 115.72C204.726 115.933 204.99 116.04 205.31 116.04ZM209.698 113.264C209.847 113.056 210.047 112.899 210.298 112.792C210.554 112.685 210.847 112.632 211.178 112.632V113.784C211.039 113.773 210.946 113.768 210.898 113.768C210.54 113.768 210.26 113.869 210.058 114.072C209.855 114.269 209.754 114.568 209.754 114.968V117H208.506V112.696H209.698V113.264ZM213.929 117.064C213.475 117.064 213.067 116.971 212.705 116.784C212.347 116.592 212.067 116.328 211.865 115.992C211.662 115.656 211.561 115.275 211.561 114.848C211.561 114.421 211.662 114.04 211.865 113.704C212.067 113.368 212.347 113.107 212.705 112.92C213.067 112.728 213.475 112.632 213.929 112.632C214.382 112.632 214.787 112.728 215.145 112.92C215.502 113.107 215.782 113.368 215.985 113.704C216.187 114.04 216.289 114.421 216.289 114.848C216.289 115.275 216.187 115.656 215.985 115.992C215.782 116.328 215.502 116.592 215.145 116.784C214.787 116.971 214.382 117.064 213.929 117.064ZM213.929 116.04C214.249 116.04 214.51 115.933 214.713 115.72C214.921 115.501 215.025 115.211 215.025 114.848C215.025 114.485 214.921 114.197 214.713 113.984C214.51 113.765 214.249 113.656 213.929 113.656C213.609 113.656 213.345 113.765 213.137 113.984C212.929 114.197 212.825 114.485 212.825 114.848C212.825 115.211 212.929 115.501 213.137 115.72C213.345 115.933 213.609 116.04 213.929 116.04ZM221.278 112.696L219.462 117H218.174L216.366 112.696H217.654L218.846 115.624L220.078 112.696H221.278ZM225.886 114.864C225.886 114.88 225.878 114.992 225.862 115.2H222.606C222.664 115.467 222.803 115.677 223.022 115.832C223.24 115.987 223.512 116.064 223.838 116.064C224.062 116.064 224.259 116.032 224.43 115.968C224.606 115.899 224.768 115.792 224.918 115.648L225.582 116.368C225.176 116.832 224.584 117.064 223.806 117.064C223.32 117.064 222.891 116.971 222.518 116.784C222.144 116.592 221.856 116.328 221.654 115.992C221.451 115.656 221.35 115.275 221.35 114.848C221.35 114.427 221.448 114.048 221.646 113.712C221.848 113.371 222.123 113.107 222.47 112.92C222.822 112.728 223.214 112.632 223.646 112.632C224.067 112.632 224.448 112.723 224.79 112.904C225.131 113.085 225.398 113.347 225.59 113.688C225.787 114.024 225.886 114.416 225.886 114.864ZM223.654 113.576C223.371 113.576 223.134 113.656 222.942 113.816C222.75 113.976 222.632 114.195 222.59 114.472H224.71C224.667 114.2 224.55 113.984 224.358 113.824C224.166 113.659 223.931 113.576 223.654 113.576ZM231.101 111.064V117H229.909V116.504C229.599 116.877 229.151 117.064 228.565 117.064C228.159 117.064 227.791 116.973 227.461 116.792C227.135 116.611 226.879 116.352 226.693 116.016C226.506 115.68 226.413 115.291 226.413 114.848C226.413 114.405 226.506 114.016 226.693 113.68C226.879 113.344 227.135 113.085 227.461 112.904C227.791 112.723 228.159 112.632 228.565 112.632C229.114 112.632 229.543 112.805 229.853 113.152V111.064H231.101ZM228.781 116.04C229.095 116.04 229.357 115.933 229.565 115.72C229.773 115.501 229.877 115.211 229.877 114.848C229.877 114.485 229.773 114.197 229.565 113.984C229.357 113.765 229.095 113.656 228.781 113.656C228.461 113.656 228.197 113.765 227.989 113.984C227.781 114.197 227.677 114.485 227.677 114.848C227.677 115.211 227.781 115.501 227.989 115.72C228.197 115.933 228.461 116.04 228.781 116.04Z" fill="white"/>
<g clip-path="url(#clip1)">
<path d="M144.658 117.632L142.253 115.227C142.129 115.103 142.129 114.902 142.253 114.778L142.896 114.135C143.02 114.011 143.221 114.011 143.345 114.135L145.75 116.54C145.874 116.664 145.874 116.864 145.75 116.988L145.106 117.632C144.982 117.755 144.782 117.755 144.658 117.632Z" fill="url(#paint0_linear)"/>
<path d="M144.014 116.54L148.34 112.214C148.464 112.09 148.665 112.09 148.789 112.214L149.432 112.857C149.556 112.981 149.556 113.182 149.432 113.306L145.106 117.632C144.982 117.756 144.782 117.756 144.658 117.632L144.014 116.988C143.89 116.864 143.89 116.663 144.014 116.54Z" fill="url(#paint1_linear)"/>
</g>
<path d="M47.8535 87.2875C47.8535 78.0899 55.3986 70.6338 64.5963 70.6338C73.7939 70.6338 81.339 78.0899 81.339 87.2875C81.339 96.4852 73.7939 103.941 64.5963 103.941C55.3986 103.941 47.8535 96.4852 47.8535 87.2875Z" fill="#D7F7FA"/>
<path fill-rule="evenodd" clip-rule="evenodd" d="M64.5964 77.2546C61.8259 77.2546 59.5799 79.5006 59.5799 82.2712V84.2778C59.5799 87.0484 61.8259 89.2944 64.5964 89.2944C67.367 89.2944 69.613 87.0484 69.613 84.2778V82.2712C69.613 79.5006 67.367 77.2546 64.5964 77.2546ZM64.5964 91.301C61.0734 91.2964 57.6119 92.2241 54.5634 93.9899V97.3208H74.6295V93.9899C71.6798 92.2742 68.2485 91.301 64.5964 91.301Z" fill="#3BB3BD"/>
<defs>
<filter id="filter0_d" x="0.744934" y="8.97778" width="250.221" height="159.94" filterUnits="userSpaceOnUse" color-interpolation-filters="sRGB">
<feFlood flood-opacity="0" result="BackgroundImageFix"/>
<feColorMatrix in="SourceAlpha" type="matrix" values="0 0 0 0 0 0 0 0 0 0 0 0 0 0 0 0 0 0 127 0"/>
<feOffset dy="4"/>
<feGaussianBlur stdDeviation="20"/>
<feColorMatrix type="matrix" values="0 0 0 0 0 0 0 0 0 0 0 0 0 0 0 0 0 0 0.07 0"/>
<feBlend mode="normal" in2="BackgroundImageFix" result="effect1_dropShadow"/>
<feBlend mode="normal" in="SourceGraphic" in2="effect1_dropShadow" result="shape"/>
</filter>
<filter id="filter1_d" x="47.817" y="0.370605" width="205.179" height="177.109" filterUnits="userSpaceOnUse" color-interpolation-filters="sRGB">
<feFlood flood-opacity="0" result="BackgroundImageFix"/>
<feColorMatrix in="SourceAlpha" type="matrix" values="0 0 0 0 0 0 0 0 0 0 0 0 0 0 0 0 0 0 127 0"/>
<feOffset dy="4"/>
<feGaussianBlur stdDeviation="20"/>
<feColorMatrix type="matrix" values="0 0 0 0 0.904152 0 0 0 0 0.904152 0 0 0 0 0.904152 0 0 0 0.54 0"/>
<feBlend mode="normal" in2="BackgroundImageFix" result="effect1_dropShadow"/>
<feBlend mode="normal" in="SourceGraphic" in2="effect1_dropShadow" result="shape"/>
</filter>
<linearGradient id="paint0_linear" x1="145.401" y1="117.283" x2="142.567" y2="114.449" gradientUnits="userSpaceOnUse">
<stop offset="0.108" stop-color="white"/>
<stop offset="0.433" stop-color="white"/>
</linearGradient>
<linearGradient id="paint1_linear" x1="149.111" y1="112.535" x2="144.336" y2="117.31" gradientUnits="userSpaceOnUse">
<stop stop-color="white"/>
<stop offset="1" stop-color="white"/>
</linearGradient>
<clipPath id="clip0">
<rect width="25.772" height="25.772" fill="white" transform="translate(166 64)"/>
</clipPath>
<clipPath id="clip1">
<rect width="7.68523" height="7.68523" fill="white" transform="translate(142 111)"/>
</clipPath>
</defs>
</svg>
