<svg width="50" height="50" viewBox="0 0 50 50" fill="none" xmlns="http://www.w3.org/2000/svg">
<path d="M26.5625 10.9375C25.9444 10.9375 25.3403 11.1208 24.8263 11.4642C24.3124 11.8075 23.9119 12.2956 23.6754 12.8666C23.4389 13.4376 23.377 14.066 23.4975 14.6722C23.6181 15.2783 23.9158 15.8352 24.3528 16.2722C24.7898 16.7092 25.3467 17.0069 25.9529 17.1275C26.559 17.248 27.1874 17.1861 27.7584 16.9496C28.3294 16.7131 28.8175 16.3126 29.1609 15.7987C29.5042 15.2848 29.6875 14.6806 29.6875 14.0625C29.6875 13.2337 29.3583 12.4388 28.7722 11.8528C28.1862 11.2667 27.3913 10.9375 26.5625 10.9375ZM26.5625 15.625C26.2535 15.625 25.9514 15.5334 25.6944 15.3617C25.4375 15.19 25.2372 14.946 25.1189 14.6604C25.0007 14.3749 24.9697 14.0608 25.03 13.7577C25.0903 13.4546 25.2391 13.1762 25.4577 12.9576C25.6762 12.7391 25.9546 12.5903 26.2577 12.53C26.5608 12.4697 26.8749 12.5007 27.1605 12.6189C27.446 12.7372 27.69 12.9375 27.8617 13.1944C28.0334 13.4514 28.125 13.7535 28.125 14.0625C28.125 14.4769 27.9604 14.8743 27.6674 15.1674C27.3743 15.4604 26.9769 15.625 26.5625 15.625Z" fill="#3C6A7A"/>
<path d="M33.5938 14.8438C33.1302 14.8438 32.6771 14.9812 32.2916 15.2387C31.9062 15.4963 31.6058 15.8623 31.4284 16.2906C31.251 16.7188 31.2046 17.1901 31.295 17.6447C31.3855 18.0994 31.6087 18.517 31.9365 18.8448C32.2643 19.1726 32.6819 19.3958 33.1365 19.4862C33.5912 19.5766 34.0624 19.5302 34.4907 19.3528C34.9189 19.1754 35.285 18.875 35.5425 18.4896C35.8 18.1042 35.9375 17.651 35.9375 17.1875C35.9375 16.5659 35.6906 15.9698 35.251 15.5302C34.8115 15.0907 34.2154 14.8438 33.5938 14.8438ZM33.5938 17.9687C33.4392 17.9687 33.2882 17.9229 33.1597 17.8371C33.0312 17.7512 32.9311 17.6292 32.872 17.4865C32.8128 17.3437 32.7974 17.1866 32.8275 17.0351C32.8577 16.8835 32.9321 16.7443 33.0413 16.6351C33.1506 16.5258 33.2898 16.4514 33.4413 16.4213C33.5929 16.3911 33.75 16.4066 33.8927 16.4657C34.0355 16.5248 34.1575 16.625 34.2433 16.7535C34.3292 16.8819 34.375 17.033 34.375 17.1875C34.375 17.3947 34.2927 17.5934 34.1462 17.7399C33.9997 17.8864 33.801 17.9687 33.5938 17.9687Z" fill="#3C6A7A"/>
<path d="M33.5938 23.4375C33.5938 23.9011 33.7312 24.3542 33.9887 24.7396C34.2463 25.1251 34.6123 25.4255 35.0406 25.6028C35.4689 25.7802 35.9401 25.8267 36.3947 25.7362C36.8494 25.6458 37.267 25.4226 37.5948 25.0948C37.9226 24.767 38.1458 24.3494 38.2362 23.8947C38.3267 23.4401 38.2802 22.9689 38.1028 22.5406C37.9255 22.1123 37.6251 21.7463 37.2396 21.4887C36.8542 21.2312 36.4011 21.0938 35.9375 21.0938C35.3159 21.0938 34.7198 21.3407 34.2802 21.7802C33.8407 22.2198 33.5938 22.8159 33.5938 23.4375ZM35.9375 22.6563C36.092 22.6563 36.2431 22.7021 36.3715 22.7879C36.5 22.8738 36.6002 22.9958 36.6593 23.1385C36.7184 23.2813 36.7339 23.4384 36.7037 23.5899C36.6736 23.7415 36.5992 23.8807 36.4899 23.9899C36.3807 24.0992 36.2415 24.1736 36.0899 24.2037C35.9384 24.2339 35.7813 24.2184 35.6385 24.1593C35.4958 24.1002 35.3738 24 35.2879 23.8715C35.2021 23.7431 35.1563 23.592 35.1563 23.4375C35.1563 23.2303 35.2386 23.0316 35.3851 22.8851C35.5316 22.7386 35.7303 22.6563 35.9375 22.6563Z" fill="#3C6A7A"/>
<path d="M46.0938 1.5625H3.90625C3.28522 1.56435 2.69015 1.81188 2.25102 2.25102C1.81188 2.69015 1.56435 3.28522 1.5625 3.90625V41.4062C1.56435 42.0273 1.81188 42.6223 2.25102 43.0615C2.69015 43.5006 3.28522 43.7481 3.90625 43.75H18.8516L16.5391 47.2266C16.4585 47.3424 16.4121 47.4785 16.4052 47.6194C16.3983 47.7603 16.4311 47.9003 16.5 48.0234C16.5653 48.1491 16.6641 48.2542 16.7854 48.3273C16.9067 48.4004 17.0459 48.4385 17.1875 48.4375H32.8125C32.9541 48.4385 33.0933 48.4004 33.2146 48.3273C33.3359 48.2542 33.4347 48.1491 33.5 48.0234C33.5689 47.9003 33.6017 47.7603 33.5948 47.6194C33.5879 47.4785 33.5415 47.3424 33.4609 47.2266L31.1484 43.75H46.0938C46.7148 43.7481 47.3098 43.5006 47.749 43.0615C48.1881 42.6223 48.4356 42.0273 48.4375 41.4062V3.90625C48.4356 3.28522 48.1881 2.69015 47.749 2.25102C47.3098 1.81188 46.7148 1.56435 46.0938 1.5625ZM31.3516 46.875H18.6484L20.7344 43.75H29.2656L31.3516 46.875ZM46.875 41.4062C46.875 41.6134 46.7927 41.8122 46.6462 41.9587C46.4997 42.1052 46.3009 42.1875 46.0938 42.1875H3.90625C3.69905 42.1875 3.50034 42.1052 3.35382 41.9587C3.20731 41.8122 3.125 41.6134 3.125 41.4062V39.0625H46.875V41.4062ZM46.875 37.5H3.125V3.90625C3.125 3.69905 3.20731 3.50034 3.35382 3.35382C3.50034 3.20731 3.69905 3.125 3.90625 3.125H46.0938C46.3009 3.125 46.4997 3.20731 46.6462 3.35382C46.7927 3.50034 46.875 3.69905 46.875 3.90625V37.5Z" fill="#3C6A7A"/>
<path d="M28.3828 29.2968L19.7891 14.414C19.7378 14.3243 19.6693 14.2457 19.5875 14.1827C19.5057 14.1196 19.4122 14.0735 19.3125 14.0468C19.112 13.994 18.8988 14.0221 18.7187 14.1249L16.0156 15.6874C15.8364 15.792 15.7055 15.9629 15.6514 16.1632C15.5973 16.3636 15.6243 16.5771 15.7266 16.7577L24.3203 31.6405C24.4273 31.8186 24.5975 31.9497 24.7969 32.0077C24.8635 32.0232 24.9316 32.0311 25 32.0312C25.1364 32.029 25.2704 31.9941 25.3906 31.9296L28.0937 30.3671C28.1833 30.3161 28.2618 30.2478 28.3248 30.1663C28.3879 30.0848 28.4342 29.9916 28.461 29.8921C28.4879 29.7926 28.4948 29.6888 28.4814 29.5866C28.468 29.4845 28.4345 29.386 28.3828 29.2968ZM25.2891 30.1796L17.4766 16.6483L18.8281 15.8671L26.6406 29.3983L25.2891 30.1796Z" fill="#3C6A7A"/>
<path d="M18.125 9.96087L17.3828 8.67962C17.0288 8.06769 16.5159 7.56289 15.8984 7.21868L12.6719 5.42962C12.5533 5.36368 12.4197 5.32972 12.2841 5.33109C12.1485 5.33246 12.0156 5.36911 11.8984 5.43743C11.7822 5.50574 11.6853 5.60257 11.6169 5.71878C11.5486 5.83499 11.511 5.96671 11.5078 6.1015L11.4453 9.78899C11.4359 10.4956 11.6167 11.1918 11.9687 11.8046L12.7109 13.0859C13.0224 13.6239 13.5344 14.0165 14.1349 14.1776C14.7353 14.3387 15.3751 14.2551 15.9141 13.9452L17.2656 13.164C17.5325 13.0102 17.7664 12.8054 17.9541 12.5611C18.1417 12.3169 18.2794 12.038 18.3592 11.7406C18.439 11.4431 18.4594 11.1328 18.4192 10.8274C18.379 10.522 18.2791 10.2276 18.125 9.96087ZM16.8437 11.3359C16.819 11.4354 16.7745 11.529 16.7127 11.6109C16.651 11.6928 16.5733 11.7613 16.4844 11.8124L15.1328 12.5937C14.9522 12.6959 14.7386 12.7229 14.5383 12.6688C14.338 12.6147 14.167 12.4839 14.0625 12.3046L13.3203 11.0234C13.108 10.6556 12.9999 10.237 13.0078 9.81243L13.0469 7.42962L15.1406 8.58587C15.5114 8.79132 15.8193 9.0938 16.0312 9.46087L16.7656 10.7421C16.8186 10.8305 16.8529 10.9288 16.8663 11.0309C16.8797 11.133 16.8721 11.2368 16.8437 11.3359Z" fill="#3C6A7A"/>
<path d="M22.1352 9.35003C24.9086 8.37055 27.9287 8.33942 30.7217 9.26151C33.5147 10.1836 35.9226 12.0067 37.5676 14.4449C39.2127 16.8831 40.0019 19.7985 39.8114 22.7336C39.6208 25.6686 38.4614 28.4575 36.5149 30.6625C36.2205 29.7027 35.6262 28.8626 34.8193 28.2653C34.0123 27.668 33.0352 27.3451 32.0313 27.3438C31.8241 27.3438 31.6254 27.4261 31.4789 27.5726C31.3324 27.7191 31.2501 27.9178 31.2501 28.125C31.2501 28.3322 31.3324 28.5309 31.4789 28.6775C31.6254 28.824 31.8241 28.9063 32.0313 28.9063C32.8601 28.9063 33.655 29.2355 34.241 29.8216C34.8271 30.4076 35.1563 31.2025 35.1563 32.0313C35.1568 32.1055 35.1515 32.1797 35.1407 32.2532C35.1173 32.4117 35.1432 32.5737 35.215 32.717C35.2868 32.8604 35.4009 32.9782 35.5419 33.0544C35.6829 33.1307 35.844 33.1617 36.0032 33.1433C36.1625 33.1249 36.3122 33.058 36.4321 32.9516C38.9993 30.6631 40.6923 27.5542 41.2217 24.156C41.7511 20.7578 41.0841 17.2813 39.3346 14.3203C37.5852 11.3593 34.8618 9.09771 31.6299 7.92187C28.398 6.74602 24.858 6.72891 21.6149 7.87346C21.4194 7.94246 21.2593 8.08629 21.1699 8.27331C21.0804 8.46034 21.0689 8.67523 21.1379 8.87073C21.2069 9.06622 21.3508 9.2263 21.5378 9.31575C21.7248 9.40519 21.9397 9.41668 22.1352 9.34768V9.35003Z" fill="#3C6A7A"/>
<path d="M20.5148 29.7141C19.3253 29.3955 18.2102 28.8457 17.2332 28.0961C16.2562 27.3465 15.4365 26.4117 14.8208 25.3453C14.2052 24.2788 13.8056 23.1015 13.6451 21.8806C13.4845 20.6596 13.5661 19.4191 13.8851 18.2297C13.9148 18.1296 13.9242 18.0246 13.9127 17.9209C13.9012 17.8172 13.8691 17.7168 13.8181 17.6257C13.7672 17.5346 13.6985 17.4546 13.6162 17.3905C13.5338 17.3264 13.4395 17.2794 13.3386 17.2524C13.2378 17.2253 13.1326 17.2188 13.0293 17.2331C12.9259 17.2474 12.8264 17.2822 12.7367 17.3356C12.647 17.389 12.5689 17.4598 12.5071 17.5438C12.4452 17.6279 12.4008 17.7235 12.3765 17.825C11.629 20.6269 12.0236 23.611 13.4736 26.1224C14.9236 28.6338 17.3106 30.4675 20.1109 31.2211C20.1765 31.2394 20.2443 31.2491 20.3124 31.25C20.5019 31.2499 20.685 31.1809 20.8274 31.0559C20.9698 30.9309 21.0619 30.7583 21.0866 30.5704C21.1113 30.3825 21.0668 30.192 20.9614 30.0345C20.8561 29.8769 20.6971 29.7631 20.514 29.7141H20.5148Z" fill="#3C6A7A"/>
</svg>
