<svg width="466" height="297" viewBox="0 0 466 297" fill="none" xmlns="http://www.w3.org/2000/svg">
<g clip-path="url(#clip0)">
<path d="M26.1243 296.134C18.9353 295.541 12.5883 290.332 8.97879 284.077C7.76835 281.98 6.93898 279.228 8.30972 277.232C8.70208 276.661 9.24431 276.209 9.87666 275.926C10.509 275.644 11.2069 275.542 11.8936 275.631C12.5802 275.721 13.2288 275.998 13.768 276.433C14.3072 276.868 14.7161 277.444 14.9495 278.097C14.508 275.646 14.3183 273.157 14.3833 270.668C14.4386 268.56 14.8362 266.177 16.586 265.005C18.6159 263.645 21.5419 264.725 23.0184 266.673C24.4949 268.621 24.8956 271.155 25.2499 273.575C24.9606 272.551 24.9324 271.471 25.1679 270.432C25.4033 269.394 25.895 268.432 26.5978 267.634C27.3006 266.835 28.1921 266.226 29.1908 265.862C30.1895 265.497 31.2634 265.39 32.3143 265.549C35.2876 265.999 37.6167 268.577 38.5255 271.447C39.4343 274.318 39.1506 277.431 38.5656 280.385C37.8798 283.849 36.7666 287.285 34.7625 290.19C32.7585 293.096 29.7817 295.438 26.328 296.149L26.1243 296.134Z" fill="#F2F2F2"/>
<path d="M466.001 62.2981C466.001 75.2183 461.991 87.8191 454.527 98.3567C447.063 108.894 436.513 116.848 424.337 121.117C423.95 121.252 423.556 121.387 423.163 121.511V58.2076H341.731C341.755 57.8139 341.784 57.4201 341.819 57.0322H423.163V44.6666C423.163 43.8874 422.854 43.1401 422.304 42.5891C421.753 42.0381 421.007 41.7284 420.229 41.728H345.07C345.205 41.3343 345.346 40.9405 345.499 40.5526C350.59 26.8649 360.322 15.404 372.993 8.17214C385.665 0.940308 400.47 -1.60266 414.824 0.987489C429.177 3.57764 442.165 11.1362 451.519 22.3428C460.874 33.5493 465.999 47.6913 466.001 62.2981Z" fill="#F2F2F2"/>
<path d="M420.229 40.5525H134.451C133.362 40.5537 132.318 40.9875 131.548 41.7588C130.778 42.5301 130.345 43.5758 130.344 44.6665V238.613C130.345 239.704 130.778 240.75 131.548 241.521C132.318 242.292 133.362 242.726 134.451 242.727H420.229C421.318 242.726 422.362 242.292 423.132 241.521C423.902 240.75 424.335 239.704 424.336 238.613V44.6665C424.335 43.5758 423.902 42.5301 423.132 41.7588C422.362 40.9875 421.318 40.5537 420.229 40.5525ZM423.163 238.613C423.162 239.392 422.853 240.14 422.303 240.691C421.753 241.242 421.007 241.551 420.229 241.552H134.451C133.673 241.551 132.927 241.242 132.377 240.691C131.827 240.14 131.518 239.392 131.517 238.613V44.6665C131.518 43.8872 131.827 43.14 132.377 42.589C132.927 42.0379 133.673 41.7282 134.451 41.7279H420.229C421.007 41.7282 421.753 42.0379 422.303 42.589C422.853 43.14 423.162 43.8872 423.163 44.6665V238.613Z" fill="#3F3D56"/>
<path d="M423.75 57.032H130.931V58.2074H423.75V57.032Z" fill="#3F3D56"/>
<path d="M140.907 52.8946C142.851 52.8946 144.427 51.3159 144.427 49.3683C144.427 47.4208 142.851 45.842 140.907 45.842C138.962 45.842 137.386 47.4208 137.386 49.3683C137.386 51.3159 138.962 52.8946 140.907 52.8946Z" fill="#3F3D56"/>
<path d="M151.029 52.8946C152.973 52.8946 154.55 51.3159 154.55 49.3683C154.55 47.4208 152.973 45.842 151.029 45.842C149.084 45.842 147.508 47.4208 147.508 49.3683C147.508 51.3159 149.084 52.8946 151.029 52.8946Z" fill="#3F3D56"/>
<path d="M161.151 52.8946C163.095 52.8946 164.672 51.3159 164.672 49.3683C164.672 47.4208 163.095 45.842 161.151 45.842C159.206 45.842 157.63 47.4208 157.63 49.3683C157.63 51.3159 159.206 52.8946 161.151 52.8946Z" fill="#3F3D56"/>
<path d="M210.736 81.105H159.097C158.008 81.1062 156.964 81.54 156.194 82.3113C155.424 83.0825 154.99 84.1283 154.989 85.219V136.938C154.99 138.029 155.424 139.075 156.194 139.846C156.964 140.617 158.008 141.051 159.097 141.052H210.736C211.825 141.051 212.87 140.617 213.64 139.846C214.41 139.075 214.843 138.029 214.844 136.938V85.219C214.843 84.1283 214.41 83.0825 213.64 82.3113C212.87 81.54 211.825 81.1062 210.736 81.105ZM213.67 136.938C213.67 137.717 213.361 138.465 212.811 139.016C212.261 139.567 211.514 139.876 210.736 139.877H159.097C158.319 139.876 157.573 139.567 157.023 139.016C156.472 138.465 156.163 137.717 156.163 136.938V85.219C156.163 84.4397 156.472 83.6925 157.023 83.1415C157.573 82.5904 158.319 82.2807 159.097 82.2804H210.736C211.514 82.2807 212.261 82.5904 212.811 83.1415C213.361 83.6925 213.67 84.4397 213.67 85.219V136.938Z" fill="#3F3D56"/>
<path d="M303.453 81.3989H251.813C250.802 81.4009 249.833 81.804 249.118 82.52C248.403 83.236 248.001 84.2065 247.999 85.2191V136.938C248.001 137.951 248.403 138.921 249.118 139.637C249.833 140.353 250.802 140.756 251.813 140.758H303.453C304.464 140.756 305.433 140.353 306.148 139.637C306.863 138.921 307.265 137.951 307.267 136.938V85.2191C307.265 84.2065 306.863 83.236 306.148 82.52C305.433 81.804 304.464 81.4009 303.453 81.3989Z" fill="#094E54"/>
<path d="M396.169 81.3989H344.53C343.519 81.4009 342.55 81.804 341.835 82.52C341.12 83.236 340.718 84.2065 340.716 85.2191V136.938C340.718 137.951 341.12 138.921 341.835 139.637C342.55 140.353 343.519 140.756 344.53 140.758H396.169C397.18 140.756 398.15 140.353 398.864 139.637C399.579 138.921 399.982 137.951 399.984 136.938V85.2191C399.982 84.2065 399.579 83.236 398.864 82.52C398.15 81.804 397.18 81.4009 396.169 81.3989Z" fill="#E6E6E6"/>
<path d="M210.737 158.978H159.097C158.086 158.979 157.117 159.383 156.403 160.099C155.688 160.815 155.285 161.785 155.283 162.798V214.517C155.285 215.529 155.688 216.5 156.403 217.216C157.117 217.932 158.086 218.335 159.097 218.337H210.737C211.748 218.335 212.717 217.932 213.432 217.216C214.147 216.5 214.549 215.529 214.551 214.517V162.798C214.549 161.785 214.147 160.815 213.432 160.099C212.717 159.383 211.748 158.979 210.737 158.978Z" fill="#E6E6E6"/>
<path d="M303.453 158.978H251.813C250.802 158.979 249.833 159.383 249.118 160.099C248.403 160.815 248.001 161.785 247.999 162.798V214.517C248.001 215.529 248.403 216.5 249.118 217.216C249.833 217.932 250.802 218.335 251.813 218.337H303.453C304.464 218.335 305.433 217.932 306.148 217.216C306.863 216.5 307.265 215.529 307.267 214.517V162.798C307.265 161.785 306.863 160.815 306.148 160.099C305.433 159.383 304.464 158.979 303.453 158.978Z" fill="#094E54"/>
<path d="M396.169 158.978H344.53C343.519 158.979 342.55 159.383 341.835 160.099C341.12 160.815 340.718 161.785 340.716 162.798V214.517C340.718 215.529 341.12 216.5 341.835 217.216C342.55 217.932 343.519 218.335 344.53 218.337H396.169C397.18 218.335 398.15 217.932 398.864 217.216C399.579 216.5 399.982 215.529 399.984 214.517V162.798C399.982 161.785 399.579 160.815 398.864 160.099C398.15 159.383 397.18 158.979 396.169 158.978Z" fill="#E6E6E6"/>
<path d="M198.121 167.499H146.481C145.47 167.498 144.501 167.095 143.785 166.379C143.07 165.663 142.668 164.692 142.667 163.679V111.96C142.668 110.947 143.07 109.976 143.785 109.26C144.501 108.544 145.47 108.141 146.481 108.14H198.121C199.132 108.141 200.101 108.544 200.817 109.26C201.532 109.976 201.934 110.947 201.935 111.96V163.679C201.934 164.692 201.532 165.663 200.817 166.379C200.101 167.095 199.132 167.498 198.121 167.499Z" fill="#094E54"/>
<path d="M118.973 289.209L125.851 287.095L120.983 259.52L110.832 262.64L118.973 289.209Z" fill="#A0616A"/>
<path d="M141.075 289.414L119.46 296.058L116.897 287.694L130.161 283.617C131.258 283.28 132.41 283.162 133.552 283.271C134.694 283.38 135.803 283.713 136.817 284.251C137.83 284.79 138.728 285.523 139.459 286.409C140.189 287.294 140.739 288.316 141.075 289.414Z" fill="#2F2E41"/>
<path d="M60.2941 289.367L67.4885 289.367L70.9108 261.575L60.293 261.575L60.2941 289.367Z" fill="#A0616A"/>
<path d="M81.3623 296.057L58.752 296.058L58.7516 287.309L72.6261 287.308C73.7733 287.308 74.9093 287.534 75.9692 287.974C77.0291 288.413 77.9921 289.058 78.8034 289.87C79.6146 290.683 80.2581 291.647 80.6972 292.709C81.1362 293.77 81.3623 294.908 81.3623 296.057L81.3623 296.057Z" fill="#2F2E41"/>
<path d="M59.7776 208.805C59.1865 208.286 58.7163 207.643 58.4 206.922C58.0836 206.202 57.9289 205.42 57.9467 204.633C57.9645 203.846 58.1544 203.073 58.5029 202.367C58.8515 201.662 59.3503 201.041 59.9642 200.55L65.5421 130.203L76.8856 133.042L67.8032 201.663C68.5595 202.75 68.8911 204.078 68.7353 205.394C68.5794 206.71 67.947 207.923 66.9577 208.804C65.9684 209.684 64.6911 210.17 63.3678 210.171C62.0444 210.171 60.767 209.685 59.7776 208.805Z" fill="#A0616A"/>
<path d="M82.4938 102.919C90.4537 102.919 96.9065 96.4562 96.9065 88.484C96.9065 80.5118 90.4537 74.0491 82.4938 74.0491C74.5338 74.0491 68.0811 80.5118 68.0811 88.484C68.0811 96.4562 74.5338 102.919 82.4938 102.919Z" fill="#A0616A"/>
<path d="M69.9607 128.039C66.7087 123.568 66.6085 117.409 70.1116 113.132C72.3977 110.341 76.2218 108.108 82.6063 108.108C99.6238 108.108 106.079 121.625 106.079 121.625C106.079 121.625 113.12 134.555 109.013 146.309C104.905 158.064 104.905 159.239 104.905 159.239L77.9118 156.888C77.9118 156.888 82.4656 145.233 69.9607 128.039Z" fill="#CCCCCC"/>
<path d="M61.6377 139.74L67.4528 120.686C67.8423 119.41 68.5068 118.235 69.3994 117.245C70.2919 116.254 71.3908 115.472 72.6183 114.954C73.8458 114.436 75.1719 114.194 76.5031 114.245C77.8342 114.297 79.1378 114.64 80.3217 115.252C82.3757 116.317 83.9484 118.125 84.7207 120.309C85.4931 122.493 85.4074 124.889 84.4809 127.012L77.0881 143.875L61.6377 139.74Z" fill="#CCCCCC"/>
<path d="M104.319 156.3L127.205 275.019L114.882 278.545L84.9542 200.379L71.4576 280.309L58.5477 282.072C58.5477 282.072 52.8848 176.315 77.9125 156.888L104.319 156.3Z" fill="#5C63AB"/>
<path d="M137.257 150.736C137.048 150.985 136.859 151.25 136.692 151.529L107.624 152.941L102.027 135.827L92.3086 140.453L101.456 165.943L137.405 158.902C138.25 159.825 139.355 160.469 140.574 160.749C141.794 161.028 143.069 160.928 144.23 160.464C145.392 160 146.385 159.192 147.077 158.149C147.769 157.105 148.127 155.876 148.105 154.623C148.082 153.371 147.679 152.155 146.95 151.138C146.22 150.12 145.199 149.349 144.022 148.927C142.844 148.505 141.566 148.452 140.358 148.775C139.149 149.099 138.068 149.782 137.257 150.736Z" fill="#A0616A"/>
<path d="M88.242 123.332C88.0863 122.007 88.2231 120.664 88.6428 119.398C89.0624 118.131 89.7546 116.973 90.6705 116.004C91.5863 115.035 92.7035 114.28 93.943 113.791C95.1825 113.302 96.5141 113.092 97.8436 113.175C100.152 113.323 102.318 114.346 103.902 116.034C105.485 117.723 106.369 119.951 106.373 122.268V140.684L90.5664 143.12L88.242 123.332Z" fill="#CCCCCC"/>
<path d="M85.6634 103.05C83.5002 103.04 81.8315 100.759 81.9284 98.5949C82.0254 96.4305 83.4768 94.5262 85.2255 93.2508C86.9742 91.9755 89.025 91.1986 90.9751 90.2609C92.9252 89.3232 94.8583 88.1536 96.0623 86.3536C96.7897 85.1755 97.2239 83.8397 97.3284 82.4585C97.4329 81.0774 97.2046 79.6913 96.6628 78.4169C95.5423 75.868 93.6185 73.7573 91.186 72.4079C87.5725 70.2895 83.2949 69.6122 79.2052 70.5108C75.1155 71.4094 71.5138 73.818 69.1177 77.2568L66.6484 83.9908C64.1322 87.0212 63.7331 91.5214 65.2798 95.1455C66.8265 98.7696 70.1199 101.496 73.8362 102.793C77.6066 104.006 81.6429 104.127 85.4792 103.142" fill="#2F2E41"/>
<path d="M72.491 80.6224C71.4295 78.9185 69.5895 77.8347 67.6874 77.1987C65.4838 76.4619 63.1401 76.2444 60.8389 76.5632C58.5376 76.882 56.3409 77.7285 54.4197 79.0367C52.4986 80.345 50.9048 82.0796 49.7625 84.1057C48.6203 86.1318 47.9604 88.3946 47.8341 90.7179C47.6325 94.4289 48.7928 98.0579 49.4745 101.711C50.1563 105.365 50.2919 109.4 48.2807 112.523C46.7488 114.902 44.1942 116.4 41.6727 117.679C39.5712 118.745 37.298 119.745 34.9519 119.533C32.6058 119.32 30.2477 117.459 30.31 115.101C29.5246 116.792 28.9943 118.59 28.7364 120.437C28.5713 122.292 29.0278 124.293 30.3654 125.587C32.3096 127.467 35.39 127.329 38.0619 126.923C43.846 126.045 49.7031 124.399 54.2728 120.74C58.8425 117.082 61.8748 111.058 60.6714 105.324C60.1687 102.929 58.9873 100.742 58.0326 98.4889C57.078 96.2358 56.3327 93.7713 56.7712 91.3634C57.0308 90.1229 57.5591 88.9546 58.3188 87.941C59.0785 86.9273 60.0511 86.093 61.1679 85.497C63.4266 84.3208 66.011 83.9282 68.5164 84.3809C70.1589 84.6509 72.2098 85.07 73.184 83.7183C73.4421 83.2901 73.574 82.7974 73.5643 82.2973C73.5546 81.7972 73.4036 81.31 73.129 80.8922C72.5669 80.0658 71.8512 79.3555 71.0208 78.8002" fill="#2F2E41"/>
<path d="M181.023 297H0.69879C0.606864 297 0.515783 296.982 0.430778 296.947C0.345772 296.912 0.268513 296.861 0.203417 296.796C0.138321 296.731 0.0866711 296.654 0.0514308 296.569C0.0161906 296.483 -0.00195312 296.392 -0.00195312 296.3C-0.00195312 296.208 0.0161906 296.117 0.0514308 296.032C0.0866711 295.947 0.138321 295.87 0.203417 295.805C0.268513 295.74 0.345772 295.688 0.430778 295.653C0.515783 295.618 0.606864 295.6 0.69879 295.6H181.023C181.114 295.6 181.206 295.618 181.291 295.653C181.376 295.688 181.453 295.74 181.518 295.805C181.583 295.87 181.635 295.947 181.67 296.032C181.705 296.117 181.723 296.208 181.723 296.3C181.723 296.392 181.705 296.483 181.67 296.569C181.635 296.654 181.583 296.731 181.518 296.796C181.453 296.861 181.376 296.912 181.291 296.947C181.206 296.982 181.114 297 181.023 297Z" fill="#3F3D56"/>
</g>
<defs>
<clipPath id="clip0">
<rect width="466" height="297" fill="white"/>
</clipPath>
</defs>
</svg>
