<svg width="253" height="178" viewBox="0 0 253 178" fill="none" xmlns="http://www.w3.org/2000/svg">
<path d="M28 23.5603C28 22.1463 29.1463 21 30.5604 21H218.038C219.452 21 220.599 22.1463 220.599 23.5603V138.44C220.599 139.854 219.452 141 218.038 141H30.5603C29.1463 141 28 139.854 28 138.44V23.5603Z" fill="#F8F6F8"/>
<path d="M28 23.5603C28 22.1463 29.1463 21 30.5604 21H218.038C219.452 21 220.599 22.1463 220.599 23.5603V30.6013H28V23.5603Z" fill="#5A808D"/>
<g filter="url(#filter0_d)">
<path d="M40.738 47.5252C40.738 46.1111 41.8843 44.9648 43.2983 44.9648H208.306C209.72 44.9648 210.866 46.1112 210.866 47.5252V122.301C210.866 123.715 209.72 124.862 208.306 124.862H43.2983C41.8843 124.862 40.738 123.715 40.738 122.301V47.5252Z" fill="white"/>
</g>
<g filter="url(#filter1_d)">
<path d="M87.7844 38.2823C87.7844 37.2218 88.6442 36.3621 89.7047 36.3621H210.975C212.036 36.3621 212.896 37.2218 212.896 38.2823V131.498C212.896 132.558 212.036 133.418 210.975 133.418H89.7047C88.6442 133.418 87.7844 132.558 87.7844 131.498V38.2823Z" fill="white"/>
</g>
<path d="M160 65.6447C160 58.2687 166.051 52.2893 173.427 52.2893C180.803 52.2893 186.854 58.2687 186.854 65.6447C186.854 73.0207 180.803 79.0001 173.427 79.0001C166.051 79.0001 160 73.0207 160 65.6447Z" fill="#D7F7FA"/>
<path fill-rule="evenodd" clip-rule="evenodd" d="M173.427 57.5986C171.205 57.5986 169.404 59.3998 169.404 61.6216V63.2308C169.404 65.4527 171.205 67.2538 173.427 67.2538C175.649 67.2538 177.45 65.4527 177.45 63.2308V61.6216C177.45 59.3998 175.649 57.5986 173.427 57.5986ZM173.427 68.863C170.602 68.8593 167.826 69.6033 165.381 71.0193V73.6906H181.473V71.0193C179.107 69.6435 176.356 68.863 173.427 68.863Z" fill="#3BB3BD"/>
<path d="M79.1432 87.2154C79.1432 95.1694 72.6236 101.617 64.5812 101.617C56.5389 101.617 50.0192 95.1694 50.0192 87.2154C50.0192 79.2615 56.5389 72.8135 64.5812 72.8135C72.6236 72.8135 79.1432 79.2615 79.1432 87.2154Z" fill="#D7F7FA"/>
<g clip-path="url(#clip0)">
<path d="M74.2364 80.8841L61.9873 78.1622C61.4691 78.0471 60.9554 78.3982 60.8458 78.9423L60.6131 80.5126L74.7464 83.653L74.9791 82.0827C75.0888 81.5388 74.7546 80.9993 74.2364 80.8841Z" fill="#3BB3BD"/>
<path d="M69.0853 83.986C68.9422 83.445 68.4038 83.1252 67.8887 83.2752L65.5634 83.953L60.0816 82.7349L59.4787 85.7258L55.7119 86.8236C55.1969 86.9736 54.8923 87.539 55.0352 88.0798L57.158 96.112C57.3011 96.6527 57.8396 96.9727 58.3546 96.8225L70.5314 93.2744C71.0464 93.1241 71.351 92.559 71.2081 92.018L70.8438 90.6391L72.2094 90.9422C72.7277 91.0576 73.2413 90.7065 73.351 90.1624L74.215 85.8753L69.2958 84.7823L69.0853 83.986ZM70.4916 88.0682L70.7927 86.5738C70.8379 86.35 71.0493 86.2057 71.2623 86.253L72.6856 86.5694C72.8989 86.6169 73.0364 86.8385 72.9914 87.0625L72.6902 88.5569C72.645 88.7807 72.4337 88.9252 72.2206 88.8777L70.7973 88.5615C70.5838 88.5139 70.4463 88.292 70.4916 88.0682ZM55.9238 87.6252L59.2936 86.6436L67.2446 84.3268L68.1002 84.0772C68.1158 84.0728 68.1314 84.0707 68.1467 84.0707C68.2153 84.0707 68.2973 84.118 68.3213 84.2085L68.4218 84.5884L68.7365 85.7792L56.214 89.428L55.7988 87.8575C55.7727 87.759 55.83 87.6525 55.9238 87.6252ZM70.4445 92.2402C70.4606 92.3012 70.4438 92.3516 70.4267 92.3831C70.4099 92.4146 70.3775 92.4558 70.3195 92.4726L58.1429 96.0207C58.1275 96.0252 58.1117 96.0275 58.0965 96.0275C58.0278 96.0275 57.9458 95.98 57.9218 95.8894L56.6836 91.2044L69.2062 87.5554L69.9699 90.4449L70.4445 92.2402Z" fill="#3BB3BD"/>
<path d="M60.1104 92.5609C60.052 92.3403 59.8327 92.21 59.6226 92.2712L58.2005 92.6857C57.9906 92.7469 57.8664 92.9773 57.9248 93.1979L58.3194 94.6909C58.3778 94.9115 58.5971 95.0418 58.8072 94.9804L60.2293 94.5661C60.4394 94.505 60.5634 94.2745 60.5052 94.0539L60.1104 92.5609Z" fill="#3BB3BD"/>
</g>
<path d="M49.0592 50.6897C49.0592 51.6618 48.2711 52.4499 47.2989 52.4499C46.3268 52.4499 45.5387 51.6618 45.5387 50.6897C45.5387 49.7175 46.3268 48.9294 47.2989 48.9294C48.2711 48.9294 49.0592 49.7175 49.0592 50.6897Z" fill="#FF7D66"/>
<path d="M54.82 50.6897C54.82 51.6618 54.0319 52.4499 53.0597 52.4499C52.0876 52.4499 51.2995 51.6618 51.2995 50.6897C51.2995 49.7175 52.0876 48.9294 53.0597 48.9294C54.0319 48.9294 54.82 49.7175 54.82 50.6897Z" fill="#FFC74F"/>
<path d="M60.5806 50.6897C60.5806 51.6618 59.7925 52.4499 58.8204 52.4499C57.8482 52.4499 57.0602 51.6618 57.0602 50.6897C57.0602 49.7175 57.8482 48.9294 58.8204 48.9294C59.7925 48.9294 60.5806 49.7175 60.5806 50.6897Z" fill="#25BC5C"/>
<path d="M231 107.235C231 105.448 229.515 104 227.683 104H164.317C162.485 104 161 105.448 161 107.235V121.765C161 123.552 162.485 125 164.317 125H227.683C229.515 125 231 123.552 231 121.765V107.235Z" fill="#E63946"/>
<path d="M184.135 115.088C184.455 115.189 184.706 115.36 184.887 115.6C185.069 115.835 185.159 116.125 185.159 116.472C185.159 116.963 184.967 117.341 184.583 117.608C184.205 117.869 183.65 118 182.919 118H180.023V112.4H182.759C183.442 112.4 183.965 112.531 184.327 112.792C184.695 113.053 184.879 113.408 184.879 113.856C184.879 114.128 184.813 114.371 184.679 114.584C184.551 114.797 184.37 114.965 184.135 115.088ZM181.311 113.376V114.696H182.599C182.919 114.696 183.162 114.64 183.327 114.528C183.493 114.416 183.575 114.251 183.575 114.032C183.575 113.813 183.493 113.651 183.327 113.544C183.162 113.432 182.919 113.376 182.599 113.376H181.311ZM182.823 117.024C183.165 117.024 183.421 116.968 183.591 116.856C183.767 116.744 183.855 116.571 183.855 116.336C183.855 115.872 183.511 115.64 182.823 115.64H181.311V117.024H182.823ZM188.101 118.064C187.647 118.064 187.239 117.971 186.877 117.784C186.519 117.592 186.239 117.328 186.037 116.992C185.834 116.656 185.733 116.275 185.733 115.848C185.733 115.421 185.834 115.04 186.037 114.704C186.239 114.368 186.519 114.107 186.877 113.92C187.239 113.728 187.647 113.632 188.101 113.632C188.554 113.632 188.959 113.728 189.317 113.92C189.674 114.107 189.954 114.368 190.157 114.704C190.359 115.04 190.461 115.421 190.461 115.848C190.461 116.275 190.359 116.656 190.157 116.992C189.954 117.328 189.674 117.592 189.317 117.784C188.959 117.971 188.554 118.064 188.101 118.064ZM188.101 117.04C188.421 117.04 188.682 116.933 188.885 116.72C189.093 116.501 189.197 116.211 189.197 115.848C189.197 115.485 189.093 115.197 188.885 114.984C188.682 114.765 188.421 114.656 188.101 114.656C187.781 114.656 187.517 114.765 187.309 114.984C187.101 115.197 186.997 115.485 186.997 115.848C186.997 116.211 187.101 116.501 187.309 116.72C187.517 116.933 187.781 117.04 188.101 117.04ZM193.343 118.064C192.889 118.064 192.481 117.971 192.119 117.784C191.761 117.592 191.481 117.328 191.279 116.992C191.076 116.656 190.975 116.275 190.975 115.848C190.975 115.421 191.076 115.04 191.279 114.704C191.481 114.368 191.761 114.107 192.119 113.92C192.481 113.728 192.889 113.632 193.343 113.632C193.796 113.632 194.201 113.728 194.559 113.92C194.916 114.107 195.196 114.368 195.399 114.704C195.601 115.04 195.703 115.421 195.703 115.848C195.703 116.275 195.601 116.656 195.399 116.992C195.196 117.328 194.916 117.592 194.559 117.784C194.201 117.971 193.796 118.064 193.343 118.064ZM193.343 117.04C193.663 117.04 193.924 116.933 194.127 116.72C194.335 116.501 194.439 116.211 194.439 115.848C194.439 115.485 194.335 115.197 194.127 114.984C193.924 114.765 193.663 114.656 193.343 114.656C193.023 114.656 192.759 114.765 192.551 114.984C192.343 115.197 192.239 115.485 192.239 115.848C192.239 116.211 192.343 116.501 192.551 116.72C192.759 116.933 193.023 117.04 193.343 117.04ZM198.385 116.312L197.785 116.904V118H196.537V112.064H197.785V115.424L199.609 113.696H201.097L199.305 115.52L201.257 118H199.745L198.385 116.312ZM205.847 115.864C205.847 115.88 205.839 115.992 205.823 116.2H202.567C202.625 116.467 202.764 116.677 202.983 116.832C203.201 116.987 203.473 117.064 203.799 117.064C204.023 117.064 204.22 117.032 204.391 116.968C204.567 116.899 204.729 116.792 204.879 116.648L205.543 117.368C205.137 117.832 204.545 118.064 203.767 118.064C203.281 118.064 202.852 117.971 202.479 117.784C202.105 117.592 201.817 117.328 201.615 116.992C201.412 116.656 201.311 116.275 201.311 115.848C201.311 115.427 201.409 115.048 201.607 114.712C201.809 114.371 202.084 114.107 202.431 113.92C202.783 113.728 203.175 113.632 203.607 113.632C204.028 113.632 204.409 113.723 204.751 113.904C205.092 114.085 205.359 114.347 205.551 114.688C205.748 115.024 205.847 115.416 205.847 115.864ZM203.615 114.576C203.332 114.576 203.095 114.656 202.903 114.816C202.711 114.976 202.593 115.195 202.551 115.472H204.671C204.628 115.2 204.511 114.984 204.319 114.824C204.127 114.659 203.892 114.576 203.615 114.576ZM211.062 112.064V118H209.87V117.504C209.56 117.877 209.112 118.064 208.526 118.064C208.12 118.064 207.752 117.973 207.422 117.792C207.096 117.611 206.84 117.352 206.654 117.016C206.467 116.68 206.374 116.291 206.374 115.848C206.374 115.405 206.467 115.016 206.654 114.68C206.84 114.344 207.096 114.085 207.422 113.904C207.752 113.723 208.12 113.632 208.526 113.632C209.075 113.632 209.504 113.805 209.814 114.152V112.064H211.062ZM208.742 117.04C209.056 117.04 209.318 116.933 209.526 116.72C209.734 116.501 209.838 116.211 209.838 115.848C209.838 115.485 209.734 115.197 209.526 114.984C209.318 114.765 209.056 114.656 208.742 114.656C208.422 114.656 208.158 114.765 207.95 114.984C207.742 115.197 207.638 115.485 207.638 115.848C207.638 116.211 207.742 116.501 207.95 116.72C208.158 116.933 208.422 117.04 208.742 117.04Z" fill="white"/>
<g clip-path="url(#clip1)">
<path d="M168.656 117.88L166.253 115.477C166.129 115.353 166.129 115.152 166.253 115.029L166.896 114.385C167.02 114.262 167.22 114.262 167.344 114.385L169.748 116.789C169.872 116.913 169.872 117.113 169.748 117.237L169.105 117.88C168.981 118.004 168.78 118.004 168.656 117.88Z" fill="url(#paint0_linear)"/>
<path d="M168.013 116.789L172.337 112.465C172.461 112.341 172.661 112.341 172.785 112.465L173.428 113.108C173.552 113.232 173.552 113.433 173.428 113.557L169.105 117.88C168.981 118.004 168.78 118.004 168.656 117.88L168.013 117.237C167.889 117.113 167.889 116.913 168.013 116.789Z" fill="url(#paint1_linear)"/>
</g>
<path d="M114 65.6447C114 56.4521 121.541 49 130.734 49C139.926 49 147.467 56.4521 147.467 65.6447C147.467 74.8373 139.926 82.2894 130.734 82.2894C121.541 82.2894 114 74.8373 114 65.6447Z" fill="#D7F7FA" fill-opacity="0.37"/>
<path fill-rule="evenodd" clip-rule="evenodd" d="M130.734 55.6169C127.965 55.6169 125.72 57.8617 125.72 60.6308V62.6363C125.72 65.4053 127.965 67.6501 130.734 67.6501C133.503 67.6501 135.748 65.4053 135.748 62.6363V60.6308C135.748 57.8617 133.503 55.6169 130.734 55.6169ZM130.734 69.6556C127.213 69.6511 123.753 70.5782 120.706 72.3431V75.6722H140.761V72.3431C137.813 70.6283 134.384 69.6556 130.734 69.6556Z" fill="#3BB3BD"/>
<defs>
<filter id="filter0_d" x="0.737976" y="8.96484" width="250.128" height="159.897" filterUnits="userSpaceOnUse" color-interpolation-filters="sRGB">
<feFlood flood-opacity="0" result="BackgroundImageFix"/>
<feColorMatrix in="SourceAlpha" type="matrix" values="0 0 0 0 0 0 0 0 0 0 0 0 0 0 0 0 0 0 127 0"/>
<feOffset dy="4"/>
<feGaussianBlur stdDeviation="20"/>
<feColorMatrix type="matrix" values="0 0 0 0 0 0 0 0 0 0 0 0 0 0 0 0 0 0 0.07 0"/>
<feBlend mode="normal" in2="BackgroundImageFix" result="effect1_dropShadow"/>
<feBlend mode="normal" in="SourceGraphic" in2="effect1_dropShadow" result="shape"/>
</filter>
<filter id="filter1_d" x="47.7844" y="0.362061" width="205.111" height="177.056" filterUnits="userSpaceOnUse" color-interpolation-filters="sRGB">
<feFlood flood-opacity="0" result="BackgroundImageFix"/>
<feColorMatrix in="SourceAlpha" type="matrix" values="0 0 0 0 0 0 0 0 0 0 0 0 0 0 0 0 0 0 127 0"/>
<feOffset dy="4"/>
<feGaussianBlur stdDeviation="20"/>
<feColorMatrix type="matrix" values="0 0 0 0 0.904152 0 0 0 0 0.904152 0 0 0 0 0.904152 0 0 0 0.54 0"/>
<feBlend mode="normal" in2="BackgroundImageFix" result="effect1_dropShadow"/>
<feBlend mode="normal" in="SourceGraphic" in2="effect1_dropShadow" result="shape"/>
</filter>
<linearGradient id="paint0_linear" x1="169.399" y1="117.532" x2="166.567" y2="114.699" gradientUnits="userSpaceOnUse">
<stop offset="0.108" stop-color="white"/>
<stop offset="0.433" stop-color="white"/>
</linearGradient>
<linearGradient id="paint1_linear" x1="173.107" y1="112.787" x2="168.335" y2="117.559" gradientUnits="userSpaceOnUse">
<stop stop-color="white"/>
<stop offset="1" stop-color="white"/>
</linearGradient>
<clipPath id="clip0">
<rect width="20" height="21" fill="white" transform="translate(55 77)"/>
</clipPath>
<clipPath id="clip1">
<rect width="7.68105" height="7.68105" fill="white" transform="translate(166 111.252)"/>
</clipPath>
</defs>
</svg>
