<svg width="50" height="50" viewBox="0 0 50 50" fill="none" xmlns="http://www.w3.org/2000/svg">
<g clip-path="url(#clip0)">
<path d="M48.668 20.8763L40.9153 12.4169C40.4158 11.8719 40.0337 11.2229 39.7965 10.5215L40.6048 9.74805C41.0675 9.30537 41.6403 8.98926 42.2617 8.83379L47.7516 7.46064C48.4968 7.27422 48.9633 6.53789 48.8135 5.78428C48.66 5.01338 47.9062 4.50576 47.135 4.65146L41.6182 5.69531C40.9814 5.81572 40.3224 5.76621 39.7112 5.55205L37.7729 4.87314C36.9656 3.97295 35.9357 3.30566 34.7825 2.93779C32.7343 2.28457 30.502 2.6499 28.7751 3.88076C28.4038 4.14395 28.061 4.44814 27.7488 4.7792C27.3037 4.99863 26.7712 4.92822 26.3964 4.59209L22.0932 0.733594C21.6004 0.291699 20.9644 0.0483398 20.3025 0.0483398H5.89364C5.40741 0.0483398 4.95242 0.264648 4.64549 0.641797C4.33856 1.01895 4.21912 1.5082 4.31776 1.98437L12.3078 40.5368C12.5015 41.4558 12.2131 42.4147 11.5679 43.0802L8.71991 46.0139C8.29705 46.4493 8.06414 47.0236 8.06414 47.6307C8.06414 48.9105 9.10536 49.9518 10.3852 49.9518H11.458C11.862 49.9518 12.1895 49.6243 12.1895 49.2202C12.1895 48.8161 11.862 48.4887 11.458 48.4887H10.3852C9.91209 48.4887 9.52723 48.1038 9.52723 47.6307C9.52723 47.4062 9.61327 47.194 9.76961 47.033L12.6172 44.0998C12.9193 43.7858 13.1743 43.4273 13.3721 43.0395L14.5927 42.4214C16.1494 41.6332 17.1165 40.0595 17.1165 38.3146V28.1241C17.1165 27.1659 17.3775 26.2253 17.8713 25.404L20.7416 20.6302C22.4474 20.9471 23.9121 22.0865 24.6302 23.6851C25.0411 24.5999 25.1849 25.6097 25.046 26.6051C25.0279 26.7345 25.0449 26.8663 25.0951 26.987L25.958 29.062C26.3051 29.8969 26.8683 30.6285 27.5866 31.1777L31.378 34.0771L27.3879 31.3783C26.6474 30.8773 25.7849 30.5765 24.8932 30.5081L23.3341 30.3887C23.0721 30.3681 22.8183 30.4911 22.6713 30.7097C22.0444 31.641 21.6553 32.7224 21.5457 33.8367L20.4232 45.2563C20.2421 47.099 18.7092 48.4887 16.8575 48.4887H14.9486C14.5446 48.4887 14.2171 48.8161 14.2171 49.2202C14.2171 49.6243 14.5446 49.9518 14.9486 49.9518H16.8575C19.4652 49.9518 21.6241 47.9947 21.8793 45.3994L23.0017 33.9799C23.0741 33.244 23.302 32.5265 23.666 31.8815L24.7815 31.9671C25.4201 32.016 26.038 32.2315 26.5683 32.5902L31.2557 35.7608C31.8921 36.1916 32.7516 36.0472 33.2126 35.4323C33.6841 34.8036 33.5598 33.9038 32.9355 33.4265L28.4754 30.0157C27.9609 29.6225 27.5576 29.0984 27.309 28.5005L26.5205 26.6042C26.6516 25.4021 26.4608 24.1898 25.965 23.0857C25.0433 21.0341 23.1567 19.5766 20.9632 19.1844C20.9505 19.1814 20.9381 19.178 20.9251 19.1758C20.5873 19.1175 20.2425 19.0848 19.8983 19.0782C19.4379 18.8932 19.1347 18.4496 19.1347 17.9464V13.4057L38.6582 24.7564C39.1614 25.0489 39.5535 25.4836 39.7944 25.9947C39.9426 26.3122 40.0332 26.6554 40.0577 27.0052L40.3405 31.0841C40.3825 31.6896 40.6546 32.2465 41.1065 32.6518C41.5489 33.0483 42.1028 33.2437 42.6549 33.2437C43.2918 33.2437 43.9265 32.9836 44.3843 32.4731L48.7051 27.6544C50.4458 25.7126 50.43 22.7987 48.668 20.8763ZM19.1345 11.7132V7.53301C19.1345 7.12891 18.8069 6.80147 18.4029 6.80147C17.9989 6.80147 17.6714 7.12891 17.6714 7.53301V17.9463C17.6714 18.9946 18.2703 19.9236 19.194 20.3646L16.6173 24.6502C15.9866 25.699 15.6533 26.9003 15.6533 28.1241V38.3146C15.6533 39.5049 14.9936 40.5783 13.9317 41.116L13.8275 41.1688C13.8316 40.8602 13.8043 40.5489 13.7402 40.2398L5.75037 1.6874C5.73875 1.63125 5.76014 1.59004 5.78016 1.56553C5.80018 1.54082 5.83621 1.51152 5.89364 1.51152H17.6714V4.03555C17.6714 4.43965 17.9989 4.76709 18.4029 4.76709C18.8069 4.76709 19.1345 4.43965 19.1345 4.03555V1.51143H20.3025C20.6034 1.51143 20.8926 1.62197 21.1165 1.82285L25.4196 5.68145C25.9267 6.13604 26.5649 6.36953 27.2092 6.36953C27.5566 6.36953 27.9057 6.30107 28.2369 6.16328L29.707 10.9418C30.0669 12.1115 30.7387 13.1616 31.6499 13.9786L39.2369 20.7818C40.1231 21.5766 40.4819 22.7843 40.1733 23.9339L40.1431 24.0465C39.916 23.8374 39.6661 23.65 39.3932 23.4914L19.1345 11.7132ZM47.6155 26.6774L43.2947 31.4961C42.9788 31.8484 42.4354 31.878 42.083 31.5622C41.9159 31.4124 41.8153 31.2066 41.7999 30.9827L41.5171 26.9037C41.4865 26.4689 41.389 26.0407 41.2315 25.6346L41.5862 24.3132C42.0387 22.628 41.5127 20.8574 40.2136 19.6925L32.6266 12.8893C31.9132 12.2495 31.3871 11.4273 31.1053 10.5115L29.4676 5.18838C29.4773 5.18086 29.4871 5.17344 29.4969 5.16602C30.8683 4.1252 32.68 3.80283 34.3378 4.33174C35.2933 4.63652 36.1411 5.20361 36.7892 5.97148C36.8735 6.07129 36.9832 6.14688 37.1065 6.19004L39.2275 6.93281C40.0807 7.23184 41.0015 7.30107 41.89 7.13281L46.5812 6.24521L41.9065 7.41455C41.0392 7.63154 40.2392 8.07285 39.5933 8.69092L38.4634 9.77207C38.2731 9.9542 38.1954 10.2245 38.2599 10.4798C38.535 11.5684 39.0802 12.58 39.8366 13.4055L47.5892 21.8648C48.8405 23.2299 48.8517 25.2988 47.6155 26.6774Z" fill="#3C6A7A"/>
<path d="M39.4324 39.4826L39.1931 39.3054C38.9865 39.1524 38.8316 38.9435 38.7454 38.7012L38.0803 36.8365C37.9775 36.5481 37.7058 36.3542 37.3997 36.3508C37.3968 36.3507 37.394 36.3507 37.3912 36.3507C37.0883 36.3507 36.8166 36.5375 36.7081 36.8208L34.8249 41.7421C34.4023 41.6663 33.9413 41.6599 33.464 41.7358C31.7228 42.0135 30.5233 43.2621 30.7332 44.5786C30.84 45.249 31.3109 45.8265 32.0249 46.163C32.4749 46.375 32.9991 46.4843 33.546 46.4843C33.7658 46.4843 33.9891 46.4667 34.2127 46.431C34.993 46.3066 35.7019 45.9744 36.2088 45.4958C36.7829 44.9539 37.0506 44.2587 36.9437 43.5882C36.8625 43.0784 36.5829 42.6448 36.1703 42.3199L37.367 39.1922L37.3672 39.1926C37.5513 39.7091 37.8816 40.1546 38.3221 40.4809L38.5614 40.6581C39.0253 41.0019 39.2053 41.6187 38.9989 42.158C38.8544 42.5354 39.0434 42.9583 39.4206 43.1028C39.7983 43.2471 40.221 43.0582 40.3654 42.681C40.8055 41.5307 40.4218 40.2155 39.4324 39.4826ZM35.2044 44.432C34.9133 44.7067 34.4679 44.9087 33.9823 44.9862C33.4969 45.0634 33.0105 45.0101 32.6487 44.8396C32.5211 44.7795 32.22 44.6112 32.178 44.3482C32.1101 43.922 32.7443 43.3322 33.6945 43.1805C33.8448 43.1566 33.9908 43.1454 34.1307 43.1454C34.8754 43.1454 35.4416 43.4599 35.4989 43.8187C35.5408 44.0817 35.307 44.3352 35.2044 44.432Z" fill="#3C6A7A"/>
<path d="M8.47141 32.5479C8.4429 31.3167 7.58948 30.2449 6.39602 29.9415L6.10755 29.8682C5.85843 29.8048 5.63587 29.6702 5.46419 29.4789L4.14212 28.0051C3.93714 27.7765 3.61136 27.7 3.3262 27.8142C3.04114 27.9281 2.85745 28.2077 2.86624 28.5145L3.01712 33.7715C2.58821 33.8598 2.14876 34.0311 1.7264 34.2881C1.05149 34.6989 0.521317 35.2749 0.233524 35.9099C-0.0922567 36.6289 -0.0767294 37.3739 0.2762 37.9538C1.05931 39.2356 2.98704 39.1307 4.19827 38.3497C5.70442 37.433 6.34143 35.8228 5.64837 34.684C5.38528 34.2517 4.97356 33.9589 4.48186 33.8116L4.38587 30.4679C4.75052 30.8697 5.22083 31.1524 5.7468 31.2862L6.03528 31.3595C6.59495 31.5018 6.99514 32.0044 7.00852 32.5819C7.0179 32.9858 7.35442 33.3008 7.75677 33.2962C8.16087 33.2869 8.48069 32.9519 8.47141 32.5479ZM3.43782 37.0999C3.0178 37.3555 2.54817 37.4891 2.14798 37.4695C2.00716 37.4622 1.66468 37.4207 1.5262 37.1929C1.38772 36.9654 1.50813 36.642 1.56634 36.5137C1.73157 36.1492 2.06722 35.7935 2.48724 35.5378C2.91126 35.2798 3.34681 35.165 3.69993 35.165C4.03128 35.165 4.29016 35.2661 4.39886 35.4446C4.62317 35.8132 4.25979 36.5995 3.43782 37.0999Z" fill="#3C6A7A"/>
</g>
<defs>
<clipPath id="clip0">
<rect width="50" height="50" fill="white"/>
</clipPath>
</defs>
</svg>
