<svg width="380" height="261" viewBox="0 0 380 261" fill="none" xmlns="http://www.w3.org/2000/svg">
<g clip-path="url(#clip0)">
<path d="M5.30953 0C3.90135 0 2.55086 0.558687 1.55513 1.55315C0.559397 2.54762 0 3.8964 0 5.30279V255.697C0 257.104 0.559397 258.452 1.55513 259.447C2.55086 260.441 3.90135 261 5.30953 261H374.695C376.103 261 377.453 260.441 378.449 259.447C379.445 258.452 380.004 257.104 380.004 255.697V5.30279C380.004 3.8964 379.445 2.54762 378.449 1.55315C377.453 0.558687 376.103 0 374.695 0H5.30953Z" fill="url(#paint0_linear)"/>
<path d="M1.74512 12.7886V254.547C1.74512 255.671 2.19236 256.75 2.98845 257.545C3.78454 258.34 4.86428 258.786 5.99012 258.786H374.01C375.136 258.786 376.215 258.34 377.012 257.545C377.808 256.75 378.255 255.671 378.255 254.547V12.7886H1.74512Z" fill="white"/>
<path d="M373.848 1.08936H6.06434C4.93849 1.08936 3.85876 1.53603 3.06267 2.33111C2.26658 3.12619 1.81934 4.20455 1.81934 5.32897V19.1894H378.08V5.32897C378.08 4.20682 377.635 3.13043 376.842 2.33573C376.048 1.54102 374.972 1.09282 373.848 1.08936Z" fill="#EEEEEE"/>
<path d="M16.1463 14.2526C18.5726 14.2526 20.5396 12.2881 20.5396 9.86481C20.5396 7.44152 18.5726 5.47705 16.1463 5.47705C13.7199 5.47705 11.7529 7.44152 11.7529 9.86481C11.7529 12.2881 13.7199 14.2526 16.1463 14.2526Z" fill="#FF5252"/>
<path d="M28.2322 14.2526C30.6586 14.2526 32.6255 12.2881 32.6255 9.86481C32.6255 7.44152 30.6586 5.47705 28.2322 5.47705C25.8058 5.47705 23.8389 7.44152 23.8389 9.86481C23.8389 12.2881 25.8058 14.2526 28.2322 14.2526Z" fill="#FFFF00"/>
<path d="M40.3123 14.2526C42.7387 14.2526 44.7056 12.2881 44.7056 9.86481C44.7056 7.44152 42.7387 5.47705 40.3123 5.47705C37.8859 5.47705 35.9189 7.44152 35.9189 9.86481C35.9189 12.2881 37.8859 14.2526 40.3123 14.2526Z" fill="#69F0AE"/>
<path d="M378.255 19.172H1.74512V102.396H378.255V19.172Z" fill="#094E54"/>
<g opacity="0.5">
<path opacity="0.5" d="M140.744 155.428C152.25 155.428 161.577 146.113 161.577 134.622C161.577 123.131 152.25 113.816 140.744 113.816C129.239 113.816 119.912 123.131 119.912 134.622C119.912 146.113 129.239 155.428 140.744 155.428Z" fill="url(#paint1_linear)"/>
</g>
<path d="M140.744 154.879C152.008 154.879 161.14 145.759 161.14 134.509C161.14 123.259 152.008 114.139 140.744 114.139C129.479 114.139 120.348 123.259 120.348 134.509C120.348 145.759 129.479 154.879 140.744 154.879Z" fill="#F5F5F5"/>
<path d="M140.801 154.94C144.785 154.946 148.683 153.78 152.009 151.589C151.259 147.489 148.397 147.232 148.397 147.232H132.63C132.63 147.232 129.929 147.454 129.087 151.228C132.514 153.644 136.606 154.941 140.801 154.94Z" fill="#1D3557"/>
<path d="M140.588 143.088C145.58 143.088 149.627 139.046 149.627 134.06C149.627 129.074 145.58 125.032 140.588 125.032C135.595 125.032 131.548 129.074 131.548 134.06C131.548 139.046 135.595 143.088 140.588 143.088Z" fill="#333333"/>
<path opacity="0.1" d="M137.428 142.247H143.736V147.275C143.736 148.111 143.404 148.912 142.812 149.503C142.221 150.094 141.419 150.426 140.582 150.426C139.745 150.426 138.943 150.094 138.352 149.503C137.76 148.912 137.428 148.111 137.428 147.275V142.247Z" fill="black"/>
<path d="M138.009 142.016H143.1C143.26 142.016 143.413 142.08 143.526 142.192C143.639 142.305 143.702 142.458 143.702 142.618V147.058C143.702 147.471 143.621 147.881 143.462 148.263C143.304 148.645 143.071 148.993 142.778 149.285C142.485 149.578 142.138 149.81 141.755 149.968C141.372 150.126 140.962 150.208 140.548 150.208C140.134 150.208 139.723 150.126 139.341 149.968C138.958 149.81 138.61 149.578 138.317 149.285C138.025 148.993 137.792 148.645 137.634 148.263C137.475 147.881 137.394 147.471 137.394 147.058V142.618C137.394 142.458 137.457 142.305 137.57 142.192C137.683 142.08 137.836 142.016 137.996 142.016H138.009Z" fill="#BE7C5E"/>
<path opacity="0.1" d="M137.419 144.626C139.454 145.379 141.692 145.379 143.728 144.626V143.851H137.419V144.626Z" fill="black"/>
<path d="M140.588 145.049C145.58 145.049 149.627 141.007 149.627 136.021C149.627 131.035 145.58 126.992 140.588 126.992C135.595 126.992 131.548 131.035 131.548 136.021C131.548 141.007 135.595 145.049 140.588 145.049Z" fill="#BE7C5E"/>
<path d="M135.107 132.295C135.163 131.891 135.374 131.523 135.696 131.271C135.992 131.142 136.319 131.101 136.638 131.154C139.138 131.289 141.616 130.718 144.055 130.125C145.442 129.785 146.934 129.371 147.824 128.256C148.714 127.141 147.549 123.624 146.184 123.206C145.281 122.931 144.242 123.446 143.392 123.04C143.034 122.82 142.703 122.558 142.406 122.26C141.696 121.773 140.89 121.444 140.041 121.297C139.068 121.058 138.012 120.822 137.087 121.21C136.372 121.511 135.844 122.138 135.163 122.517C133.855 123.228 132.28 122.901 130.801 122.897C130.299 122.897 129.701 122.997 129.492 123.459C129.417 123.79 129.417 124.134 129.492 124.465C129.535 125.537 128.645 126.382 127.899 127.154C127.153 127.925 126.446 129.04 126.922 130.008C127.101 130.378 127.432 130.652 127.616 131.018C127.939 131.65 127.777 132.413 127.891 133.114C128.008 133.644 128.207 134.153 128.48 134.622C129.034 135.698 131.813 141.498 133.095 140.025C133.715 139.31 133.82 137.232 134.064 136.3C134.401 134.963 134.749 133.628 135.107 132.295Z" fill="#333333"/>
<path d="M134.152 137.262C134.617 137.262 134.994 136.558 134.994 135.689C134.994 134.821 134.617 134.116 134.152 134.116C133.687 134.116 133.31 134.821 133.31 135.689C133.31 136.558 133.687 137.262 134.152 137.262Z" fill="#BE7C5E"/>
<g opacity="0.5">
<path opacity="0.5" d="M188.988 200.713C200.493 200.713 209.82 191.398 209.82 179.907C209.82 168.416 200.493 159.101 188.988 159.101C177.482 159.101 168.155 168.416 168.155 179.907C168.155 191.398 177.482 200.713 188.988 200.713Z" fill="url(#paint2_linear)"/>
</g>
<path d="M189.027 200.147C200.291 200.147 209.423 191.026 209.423 179.776C209.423 168.526 200.291 159.406 189.027 159.406C177.763 159.406 168.631 168.526 168.631 179.776C168.631 191.026 177.763 200.147 189.027 200.147Z" fill="#F5F5F5"/>
<path d="M189.044 200.216C193.028 200.222 196.926 199.057 200.252 196.865C199.502 192.765 196.64 192.508 196.64 192.508H180.873C180.873 192.508 178.172 192.73 177.33 196.504C180.757 198.92 184.849 200.217 189.044 200.216Z" fill="#1D3557"/>
<path d="M188.831 189.175C194.267 189.175 198.673 184.774 198.673 179.345C198.673 173.916 194.267 169.515 188.831 169.515C183.395 169.515 178.988 173.916 178.988 179.345C178.988 184.774 183.395 189.175 188.831 189.175Z" fill="#F55F44"/>
<path opacity="0.1" d="M185.65 187.536H191.963V192.591C191.963 193.005 191.882 193.414 191.723 193.797C191.565 194.179 191.332 194.526 191.04 194.819C190.747 195.111 190.399 195.343 190.016 195.501C189.633 195.66 189.223 195.741 188.809 195.741C188.395 195.741 187.985 195.66 187.602 195.501C187.219 195.343 186.872 195.111 186.579 194.819C186.286 194.526 186.053 194.179 185.895 193.797C185.736 193.414 185.655 193.005 185.655 192.591V187.536H185.65Z" fill="black"/>
<path d="M186.252 187.301H191.357C191.517 187.301 191.67 187.365 191.783 187.477C191.896 187.59 191.959 187.743 191.959 187.903V192.343C191.959 193.178 191.627 193.979 191.035 194.57C190.444 195.161 189.641 195.493 188.805 195.493C188.39 195.493 187.98 195.411 187.598 195.253C187.215 195.095 186.867 194.863 186.574 194.57C186.281 194.278 186.049 193.93 185.89 193.548C185.732 193.166 185.65 192.756 185.65 192.343V187.903C185.65 187.824 185.666 187.745 185.696 187.672C185.726 187.6 185.771 187.533 185.827 187.477C185.883 187.422 185.949 187.377 186.022 187.347C186.095 187.317 186.173 187.301 186.252 187.301Z" fill="#FDA57D"/>
<path opacity="0.1" d="M185.663 189.916C187.698 190.669 189.936 190.669 191.972 189.916V189.14H185.663V189.916Z" fill="black"/>
<path d="M188.831 190.334C193.823 190.334 197.87 186.292 197.87 181.306C197.87 176.32 193.823 172.277 188.831 172.277C183.838 172.277 179.791 176.32 179.791 181.306C179.791 186.292 183.838 190.334 188.831 190.334Z" fill="#FDA57D"/>
<path d="M188.817 172.979C190.827 172.979 192.456 171.352 192.456 169.345C192.456 167.338 190.827 165.711 188.817 165.711C186.808 165.711 185.179 167.338 185.179 169.345C185.179 171.352 186.808 172.979 188.817 172.979Z" fill="#F55F44"/>
<path d="M188.817 168.151C190.135 168.151 191.204 167.084 191.204 165.768C191.204 164.451 190.135 163.384 188.817 163.384C187.499 163.384 186.431 164.451 186.431 165.768C186.431 167.084 187.499 168.151 188.817 168.151Z" fill="#F55F44"/>
<path d="M187.238 171.336C186.385 170.954 185.711 170.258 185.358 169.393C185.005 168.528 184.998 167.561 185.34 166.691L185.266 166.844C185.071 167.279 184.963 167.749 184.949 168.226C184.935 168.703 185.015 169.178 185.185 169.624C185.355 170.07 185.611 170.479 185.939 170.826C186.267 171.173 186.66 171.452 187.096 171.648C187.532 171.843 188.003 171.951 188.48 171.965C188.958 171.979 189.434 171.898 189.88 171.729C190.327 171.559 190.736 171.303 191.084 170.976C191.431 170.648 191.711 170.255 191.906 169.82L191.972 169.663C191.549 170.496 190.822 171.134 189.94 171.446C189.059 171.757 188.091 171.718 187.238 171.336Z" fill="#F55F44"/>
<path opacity="0.1" d="M182.392 173.092C182.392 173.092 186.2 180.818 196.95 176.33L194.446 172.408L190 170.822L182.392 173.092Z" fill="black"/>
<path d="M182.392 172.979C182.392 172.979 186.2 180.704 196.95 176.216L194.446 172.295L190 170.709L182.392 172.979Z" fill="#F55F44"/>
<path d="M185.319 170.151C187.663 169.967 190.017 169.967 192.361 170.151C192.361 170.151 187.169 170.652 185.319 170.151Z" fill="#333333"/>
<path d="M189.363 163.236C189.183 163.229 189.003 163.242 188.826 163.275H188.966C189.556 163.292 190.118 163.527 190.545 163.933C190.972 164.34 191.233 164.891 191.277 165.478C191.322 166.066 191.147 166.649 190.786 167.115C190.425 167.582 189.904 167.898 189.324 168.003C189.956 168.009 190.566 167.763 191.017 167.32C191.469 166.877 191.726 166.273 191.732 165.641C191.738 165.009 191.492 164.401 191.048 163.95C190.605 163.499 190 163.242 189.367 163.236H189.363Z" fill="#F55F44"/>
<path d="M179.786 182.87C180.251 182.87 180.628 182.166 180.628 181.297C180.628 180.428 180.251 179.724 179.786 179.724C179.321 179.724 178.944 180.428 178.944 181.297C178.944 182.166 179.321 182.87 179.786 182.87Z" fill="#FDA57D"/>
<path d="M197.87 182.87C198.335 182.87 198.712 182.166 198.712 181.297C198.712 180.428 198.335 179.724 197.87 179.724C197.405 179.724 197.028 180.428 197.028 181.297C197.028 182.166 197.405 182.87 197.87 182.87Z" fill="#FDA57D"/>
<path d="M181.819 173.206L183.582 172.299L183.983 173.755L182.901 174.491L181.819 173.206Z" fill="#F55F44"/>
<g opacity="0.5">
<path opacity="0.5" d="M188.966 154.404C200.472 154.404 209.799 145.089 209.799 133.598C209.799 122.107 200.472 112.792 188.966 112.792C177.461 112.792 168.134 122.107 168.134 133.598C168.134 145.089 177.461 154.404 188.966 154.404Z" fill="url(#paint3_linear)"/>
</g>
<path d="M188.966 153.855C200.231 153.855 209.362 144.735 209.362 133.485C209.362 122.235 200.231 113.115 188.966 113.115C177.702 113.115 168.57 122.235 168.57 133.485C168.57 144.735 177.702 153.855 188.966 153.855Z" fill="#F5F5F5"/>
<path d="M181.008 133.668C181.008 133.668 178.695 145.045 177.435 144.413C177.435 144.413 189.607 154.914 200.352 144.413C200.352 144.413 198.459 136.395 195.728 133.668H181.008Z" fill="#333333"/>
<path d="M189.023 153.916C193.011 153.916 196.911 152.743 200.236 150.543C199.485 146.443 196.623 146.186 196.623 146.186H180.838C180.838 146.186 178.138 146.408 177.296 150.182C180.724 152.609 184.821 153.913 189.023 153.916Z" fill="#E63946"/>
<path d="M188.809 142.064C193.802 142.064 197.849 138.022 197.849 133.036C197.849 128.05 193.802 124.008 188.809 124.008C183.817 124.008 179.77 128.05 179.77 133.036C179.77 138.022 183.817 142.064 188.809 142.064Z" fill="#333333"/>
<path opacity="0.1" d="M185.633 141.228H191.941V146.269C191.941 147.104 191.609 147.906 191.018 148.497C190.426 149.087 189.624 149.419 188.787 149.419C187.951 149.419 187.148 149.087 186.557 148.497C185.965 147.906 185.633 147.104 185.633 146.269V141.228Z" fill="black"/>
<path d="M186.235 140.992H191.34C191.499 140.992 191.652 141.056 191.765 141.168C191.878 141.281 191.942 141.434 191.942 141.594V146.034C191.942 146.447 191.86 146.857 191.702 147.239C191.543 147.621 191.311 147.969 191.018 148.261C190.725 148.554 190.377 148.786 189.994 148.944C189.612 149.102 189.202 149.184 188.787 149.184C188.373 149.184 187.963 149.102 187.58 148.944C187.198 148.786 186.85 148.554 186.557 148.261C186.264 147.969 186.032 147.621 185.873 147.239C185.715 146.857 185.633 146.447 185.633 146.034V141.611C185.631 141.531 185.645 141.451 185.674 141.376C185.703 141.301 185.747 141.232 185.803 141.175C185.859 141.117 185.926 141.071 186.001 141.04C186.075 141.008 186.155 140.992 186.235 140.992Z" fill="#BE7C5E"/>
<path opacity="0.1" d="M185.637 143.607C187.672 144.36 189.91 144.36 191.945 143.607V142.831H185.637V143.607Z" fill="black"/>
<path d="M188.809 144.025C193.802 144.025 197.849 139.983 197.849 134.997C197.849 130.011 193.802 125.969 188.809 125.969C183.817 125.969 179.77 130.011 179.77 134.997C179.77 139.983 183.817 144.025 188.809 144.025Z" fill="#BE7C5E"/>
<path d="M180.166 131.568H197.417C197.417 131.568 195.946 124.596 189.428 125.058C182.91 125.52 180.166 131.568 180.166 131.568Z" fill="#333333"/>
<path d="M179.957 136.186C180.422 136.186 180.799 135.482 180.799 134.613C180.799 133.745 180.422 133.04 179.957 133.04C179.492 133.04 179.115 133.745 179.115 134.613C179.115 135.482 179.492 136.186 179.957 136.186Z" fill="#BE7C5E"/>
<path d="M197.617 136.186C198.082 136.186 198.459 135.482 198.459 134.613C198.459 133.745 198.082 133.04 197.617 133.04C197.152 133.04 196.775 133.745 196.775 134.613C196.775 135.482 197.152 136.186 197.617 136.186Z" fill="#BE7C5E"/>
<path opacity="0.1" d="M180.166 131.807H197.417C197.417 131.807 195.933 124.836 189.415 125.271C182.897 125.707 180.166 131.807 180.166 131.807Z" fill="black"/>
<g opacity="0.5">
<path opacity="0.5" d="M238.632 154.312C250.138 154.312 259.465 144.997 259.465 133.506C259.465 122.016 250.138 112.701 238.632 112.701C227.127 112.701 217.8 122.016 217.8 133.506C217.8 144.997 227.127 154.312 238.632 154.312Z" fill="url(#paint4_linear)"/>
</g>
<path d="M238.671 153.746C249.936 153.746 259.068 144.626 259.068 133.376C259.068 122.126 249.936 113.006 238.671 113.006C227.407 113.006 218.275 122.126 218.275 133.376C218.275 144.626 227.407 153.746 238.671 153.746Z" fill="#F5F5F5"/>
<path d="M238.689 153.824C242.673 153.83 246.571 152.665 249.897 150.474C249.146 146.374 246.284 146.116 246.284 146.116H230.517C230.517 146.116 227.817 146.339 226.975 150.112C230.401 152.529 234.494 153.826 238.689 153.824Z" fill="#6C63FF"/>
<path d="M238.475 142.774C243.911 142.774 248.318 138.373 248.318 132.944C248.318 127.515 243.911 123.114 238.475 123.114C233.039 123.114 228.633 127.515 228.633 132.944C228.633 138.373 233.039 142.774 238.475 142.774Z" fill="#72351C"/>
<path opacity="0.1" d="M235.299 141.136H241.607V146.177C241.607 147.013 241.275 147.814 240.684 148.405C240.092 148.996 239.29 149.328 238.453 149.328C237.617 149.328 236.814 148.996 236.223 148.405C235.631 147.814 235.299 147.013 235.299 146.177V141.136Z" fill="black"/>
<path d="M235.901 140.901H241.005C241.165 140.901 241.318 140.964 241.431 141.077C241.544 141.19 241.607 141.343 241.607 141.502V145.942C241.607 146.356 241.526 146.765 241.367 147.148C241.209 147.53 240.976 147.877 240.684 148.17C240.391 148.462 240.043 148.694 239.66 148.853C239.278 149.011 238.867 149.092 238.453 149.092C238.039 149.092 237.629 149.011 237.246 148.853C236.863 148.694 236.516 148.462 236.223 148.17C235.93 147.877 235.697 147.53 235.539 147.148C235.38 146.765 235.299 146.356 235.299 145.942V141.502C235.299 141.343 235.362 141.19 235.475 141.077C235.588 140.964 235.741 140.901 235.901 140.901Z" fill="#FDA57D"/>
<path opacity="0.1" d="M235.308 143.511C237.343 144.264 239.581 144.264 241.616 143.511V142.735H235.308V143.511Z" fill="black"/>
<path d="M238.475 143.933C243.468 143.933 247.515 139.891 247.515 134.905C247.515 129.919 243.468 125.877 238.475 125.877C233.483 125.877 229.436 129.919 229.436 134.905C229.436 139.891 233.483 143.933 238.475 143.933Z" fill="#FDA57D"/>
<path opacity="0.1" d="M232.036 126.692C232.036 126.692 235.845 134.417 246.595 129.929L244.091 126.008L239.654 124.4L232.036 126.692Z" fill="black"/>
<path d="M232.036 126.578C232.036 126.578 235.845 134.304 246.595 129.816L244.091 125.894L239.654 124.304L232.036 126.578Z" fill="#72351C"/>
<path d="M232 126.056C232.261 125.259 232.71 124.538 233.309 123.951C235.089 122.208 238.003 121.825 239.5 119.825C239.581 119.966 239.632 120.123 239.649 120.286C239.665 120.448 239.648 120.612 239.597 120.767C239.547 120.922 239.464 121.065 239.355 121.187C239.246 121.308 239.112 121.405 238.963 121.472C240.394 121.472 242.056 121.337 242.868 120.165C243.071 120.629 243.137 121.141 243.06 121.642C242.983 122.142 242.765 122.611 242.432 122.992C243.701 123.049 245.049 123.912 245.137 125.171C245.136 125.595 245.029 126.012 244.825 126.384C244.62 126.755 244.325 127.07 243.967 127.297C243.245 127.739 242.443 128.035 241.607 128.169C239.159 128.718 230.425 130.936 232 126.056Z" fill="#72351C"/>
<path d="M247.515 134.984H247.275L242.611 139.132C238.118 137.032 234.819 139.132 234.819 139.132L229.929 135.158L229.436 135.219C229.466 137.613 230.448 139.898 232.165 141.569C233.882 143.241 236.193 144.162 238.591 144.132C240.988 144.101 243.275 143.121 244.949 141.406C246.623 139.691 247.546 137.382 247.515 134.988V134.984ZM238.462 140.718C236.717 140.718 235.277 140.36 235.277 139.925C235.277 139.489 236.704 139.132 238.462 139.132C240.22 139.132 241.647 139.489 241.647 139.925C241.647 140.36 240.22 140.722 238.462 140.722V140.718Z" fill="#72351C"/>
<path d="M229.431 136.469C229.896 136.469 230.273 135.765 230.273 134.896C230.273 134.028 229.896 133.323 229.431 133.323C228.966 133.323 228.589 134.028 228.589 134.896C228.589 135.765 228.966 136.469 229.431 136.469Z" fill="#FDA57D"/>
<path d="M247.515 136.469C247.98 136.469 248.357 135.765 248.357 134.896C248.357 134.028 247.98 133.323 247.515 133.323C247.05 133.323 246.673 134.028 246.673 134.896C246.673 135.765 247.05 136.469 247.515 136.469Z" fill="#FDA57D"/>
<g opacity="0.5">
<path opacity="0.5" d="M140.591 199.353C152.097 199.353 161.424 190.038 161.424 178.547C161.424 167.057 152.097 157.742 140.591 157.742C129.086 157.742 119.759 167.057 119.759 178.547C119.759 190.038 129.086 199.353 140.591 199.353Z" fill="url(#paint5_linear)"/>
</g>
<path d="M140.63 198.783C151.895 198.783 161.027 189.663 161.027 178.412C161.027 167.162 151.895 158.042 140.63 158.042C129.366 158.042 120.234 167.162 120.234 178.412C120.234 189.663 129.366 198.783 140.63 198.783Z" fill="#F5F5F5"/>
<path d="M140.648 198.861C144.633 198.867 148.53 197.702 151.856 195.51C151.106 191.41 148.244 191.153 148.244 191.153H132.481C132.481 191.153 129.78 191.375 128.938 195.149C132.364 197.564 136.455 198.861 140.648 198.861Z" fill="#FFC74F"/>
<path d="M140.434 187.815C145.87 187.815 150.277 183.414 150.277 177.985C150.277 172.557 145.87 168.156 140.434 168.156C134.998 168.156 130.592 172.557 130.592 177.985C130.592 183.414 134.998 187.815 140.434 187.815Z" fill="#333333"/>
<path opacity="0.1" d="M137.258 186.173H143.566V191.214C143.566 192.05 143.234 192.851 142.643 193.442C142.051 194.032 141.249 194.364 140.412 194.364C139.576 194.364 138.773 194.032 138.182 193.442C137.59 192.851 137.258 192.05 137.258 191.214V186.173Z" fill="black"/>
<path d="M137.865 185.938H142.969C143.129 185.938 143.282 186.001 143.395 186.114C143.508 186.226 143.571 186.379 143.571 186.539V190.979C143.571 191.393 143.49 191.802 143.331 192.184C143.173 192.567 142.94 192.914 142.647 193.206C142.355 193.499 142.007 193.731 141.624 193.889C141.241 194.048 140.831 194.129 140.417 194.129C139.58 194.129 138.778 193.797 138.187 193.206C137.595 192.616 137.263 191.814 137.263 190.979V186.539C137.263 186.379 137.326 186.226 137.439 186.114C137.552 186.001 137.705 185.938 137.865 185.938Z" fill="#FDB797"/>
<path opacity="0.1" d="M137.271 188.552C139.307 189.305 141.545 189.305 143.58 188.552V187.776H137.271V188.552Z" fill="black"/>
<path d="M140.434 188.97C145.427 188.97 149.474 184.928 149.474 179.942C149.474 174.956 145.427 170.914 140.434 170.914C135.442 170.914 131.395 174.956 131.395 179.942C131.395 184.928 135.442 188.97 140.434 188.97Z" fill="#FDB797"/>
<path opacity="0.1" d="M133.995 171.733C133.995 171.733 137.804 179.458 148.554 174.97L146.05 171.049L141.613 169.458L133.995 171.733Z" fill="black"/>
<path d="M133.995 171.615C133.995 171.615 137.804 179.341 148.554 174.853L146.05 170.931L141.613 169.341L133.995 171.615Z" fill="#333333"/>
<path d="M133.96 171.097C134.221 170.301 134.67 169.579 135.269 168.992C137.049 167.249 139.963 166.866 141.459 164.866C141.541 165.007 141.591 165.164 141.608 165.327C141.625 165.489 141.608 165.653 141.557 165.808C141.507 165.963 141.424 166.106 141.315 166.228C141.206 166.349 141.072 166.446 140.923 166.513C142.354 166.513 144.016 166.378 144.828 165.206C145.03 165.67 145.097 166.182 145.02 166.683C144.942 167.183 144.725 167.652 144.391 168.033C145.661 168.09 147.009 168.953 147.096 170.212C147.096 170.636 146.989 171.053 146.784 171.425C146.58 171.796 146.285 172.111 145.927 172.338C145.205 172.78 144.403 173.076 143.567 173.21C141.137 173.759 132.385 175.985 133.96 171.097Z" fill="#333333"/>
<path d="M131.39 181.506C131.855 181.506 132.232 180.802 132.232 179.933C132.232 179.064 131.855 178.36 131.39 178.36C130.925 178.36 130.548 179.064 130.548 179.933C130.548 180.802 130.925 181.506 131.39 181.506Z" fill="#FDB797"/>
<path d="M149.474 181.506C149.939 181.506 150.316 180.802 150.316 179.933C150.316 179.064 149.939 178.36 149.474 178.36C149.009 178.36 148.632 179.064 148.632 179.933C148.632 180.802 149.009 181.506 149.474 181.506Z" fill="#FDB797"/>
<g opacity="0.5">
<path opacity="0.5" d="M239.409 201.658C250.914 201.658 260.241 192.343 260.241 180.852C260.241 169.362 250.914 160.047 239.409 160.047C227.903 160.047 218.576 169.362 218.576 180.852C218.576 192.343 227.903 201.658 239.409 201.658Z" fill="url(#paint6_linear)"/>
</g>
<path d="M239.409 201.109C250.673 201.109 259.805 191.989 259.805 180.739C259.805 169.489 250.673 160.369 239.409 160.369C228.144 160.369 219.013 169.489 219.013 180.739C219.013 191.989 228.144 201.109 239.409 201.109Z" fill="#F5F5F5"/>
<path d="M239.465 201.17C243.449 201.176 247.347 200.011 250.673 197.82C249.923 193.719 247.061 193.462 247.061 193.462H231.294C231.294 193.462 228.593 193.685 227.751 197.458C231.178 199.875 235.27 201.171 239.465 201.17Z" fill="#FFC74F"/>
<path opacity="0.1" d="M236.075 188.478H242.384V193.519C242.384 194.355 242.051 195.156 241.46 195.747C240.868 196.337 240.066 196.669 239.23 196.669C238.393 196.669 237.591 196.337 236.999 195.747C236.408 195.156 236.075 194.355 236.075 193.519V188.478Z" fill="black"/>
<path d="M236.677 188.234H241.782C241.941 188.234 242.095 188.297 242.207 188.41C242.32 188.523 242.384 188.676 242.384 188.835V193.288C242.384 194.124 242.051 194.925 241.46 195.516C240.868 196.107 240.066 196.438 239.23 196.438C238.393 196.438 237.591 196.107 236.999 195.516C236.408 194.925 236.075 194.124 236.075 193.288V188.848C236.075 188.689 236.139 188.536 236.252 188.423C236.364 188.31 236.518 188.247 236.677 188.247V188.234Z" fill="#FDB797"/>
<path opacity="0.1" d="M236.084 190.857C238.119 191.61 240.357 191.61 242.393 190.857V190.081H236.084V190.857Z" fill="black"/>
<path d="M239.252 191.279C244.244 191.279 248.291 187.237 248.291 182.251C248.291 177.265 244.244 173.223 239.252 173.223C234.259 173.223 230.212 177.265 230.212 182.251C230.212 187.237 234.259 191.279 239.252 191.279Z" fill="#FDB797"/>
<path d="M230.395 183.441C230.86 183.441 231.237 182.737 231.237 181.868C231.237 180.999 230.86 180.295 230.395 180.295C229.93 180.295 229.553 180.999 229.553 181.868C229.553 182.737 229.93 183.441 230.395 183.441Z" fill="#FDB797"/>
<path d="M248.056 183.441C248.521 183.441 248.898 182.737 248.898 181.868C248.898 180.999 248.521 180.295 248.056 180.295C247.591 180.295 247.214 180.999 247.214 181.868C247.214 182.737 247.591 183.441 248.056 183.441Z" fill="#FDB797"/>
<path d="M236.638 182.295H234.71C234.175 182.295 233.741 182.727 233.741 183.26C233.741 183.793 234.175 184.225 234.71 184.225H236.638C237.173 184.225 237.607 183.793 237.607 183.26C237.607 182.727 237.173 182.295 236.638 182.295Z" stroke="#333333" stroke-width="2" stroke-miterlimit="10"/>
<path d="M241.865 184.225H243.793C244.328 184.225 244.762 183.793 244.762 183.26C244.762 182.727 244.328 182.295 243.793 182.295H241.865C241.33 182.295 240.896 182.727 240.896 183.26C240.896 183.793 241.33 184.225 241.865 184.225Z" stroke="#333333" stroke-width="2" stroke-miterlimit="10"/>
<path d="M237.454 182.482C237.454 182.482 238.68 181.815 240.944 182.482" stroke="#333333" stroke-width="2" stroke-miterlimit="10"/>
<path d="M245.499 175.707L247.715 180.853C247.715 180.853 250.429 177.441 245.499 175.707Z" fill="#858585"/>
<path d="M244.762 183.262L248.073 180.308" stroke="#333333" stroke-width="2" stroke-linecap="round" stroke-linejoin="round"/>
<path d="M232.999 175.707L230.783 180.853C230.783 180.853 228.07 177.441 232.999 175.707Z" fill="#858585"/>
<path d="M233.742 183.262L230.387 180.308" stroke="#333333" stroke-width="2" stroke-linecap="round" stroke-linejoin="round"/>
<g opacity="0.5">
<path opacity="0.5" d="M140.744 246.129C152.25 246.129 161.577 236.814 161.577 225.323C161.577 213.832 152.25 204.517 140.744 204.517C129.239 204.517 119.912 213.832 119.912 225.323C119.912 236.814 129.239 246.129 140.744 246.129Z" fill="url(#paint7_linear)"/>
</g>
<path d="M140.744 245.58C152.008 245.58 161.14 236.46 161.14 225.209C161.14 213.959 152.008 204.839 140.744 204.839C129.479 204.839 120.348 213.959 120.348 225.209C120.348 236.46 129.479 245.58 140.744 245.58Z" fill="#F5F5F5"/>
<path d="M152.044 227.044C152.044 234.543 147.144 242.896 141.098 242.896C135.051 242.896 130.151 234.543 130.151 227.044C130.151 219.545 135.051 215.715 141.098 215.715C147.144 215.715 152.044 219.541 152.044 227.044Z" fill="#FDD835"/>
<path d="M140.801 245.641C144.785 245.646 148.683 244.481 152.009 242.29C151.259 238.19 148.397 237.933 148.397 237.933H132.63C132.63 237.933 129.929 238.155 129.087 241.928C132.514 244.345 136.606 245.642 140.801 245.641Z" fill="#6C63FF"/>
<path opacity="0.1" d="M137.428 232.952H143.736V237.994C143.736 238.829 143.404 239.631 142.812 240.221C142.221 240.812 141.419 241.144 140.582 241.144C139.745 241.144 138.943 240.812 138.352 240.221C137.76 239.631 137.428 238.829 137.428 237.994V232.952Z" fill="black"/>
<path d="M138.009 232.717H143.1C143.26 232.717 143.413 232.78 143.526 232.893C143.639 233.006 143.702 233.159 143.702 233.318V237.758C143.702 238.594 143.37 239.395 142.778 239.986C142.187 240.577 141.384 240.909 140.548 240.909C139.711 240.909 138.909 240.577 138.317 239.986C137.726 239.395 137.394 238.594 137.394 237.758V233.318C137.394 233.159 137.457 233.006 137.57 232.893C137.683 232.78 137.836 232.717 137.996 232.717H138.009Z" fill="#FDB797"/>
<path opacity="0.1" d="M137.419 235.327C139.454 236.08 141.692 236.08 143.728 235.327V234.551H137.419V235.327Z" fill="black"/>
<path d="M140.588 235.75C145.58 235.75 149.627 231.708 149.627 226.721C149.627 221.735 145.58 217.693 140.588 217.693C135.595 217.693 131.548 221.735 131.548 226.721C131.548 231.708 135.595 235.75 140.588 235.75Z" fill="#FDB797"/>
<path d="M131.731 227.911C132.196 227.911 132.573 227.207 132.573 226.338C132.573 225.469 132.196 224.765 131.731 224.765C131.266 224.765 130.889 225.469 130.889 226.338C130.889 227.207 131.266 227.911 131.731 227.911Z" fill="#FDB797"/>
<path d="M149.391 227.911C149.856 227.911 150.233 227.207 150.233 226.338C150.233 225.469 149.856 224.765 149.391 224.765C148.926 224.765 148.549 225.469 148.549 226.338C148.549 227.207 148.926 227.911 149.391 227.911Z" fill="#FDB797"/>
<path opacity="0.1" d="M132.572 221.824C132.572 221.824 137.69 228.795 149.404 226.425C149.404 226.425 150.713 224.835 147.528 219.95C144.343 215.066 135.465 215.859 132.572 221.824Z" fill="black"/>
<path d="M132.572 221.711C132.572 221.711 137.69 228.682 149.404 226.312C149.404 226.312 150.713 224.721 147.528 219.837C144.343 214.952 135.465 215.745 132.572 221.711Z" fill="#FDD835"/>
<g opacity="0.5">
<path opacity="0.5" d="M190.236 248.516C201.741 248.516 211.068 239.201 211.068 227.71C211.068 216.22 201.741 206.905 190.236 206.905C178.73 206.905 169.403 216.22 169.403 227.71C169.403 239.201 178.73 248.516 190.236 248.516Z" fill="url(#paint8_linear)"/>
</g>
<path d="M190.28 247.946C201.544 247.946 210.676 238.826 210.676 227.575C210.676 216.325 201.544 207.205 190.28 207.205C179.015 207.205 169.884 216.325 169.884 227.575C169.884 238.826 179.015 247.946 190.28 247.946Z" fill="#F5F5F5"/>
<path d="M201.496 229.584C201.496 236.36 196.623 239.693 190.292 239.693C183.962 239.693 178.578 236.36 178.578 229.584C178.578 222.809 183.709 217.318 190.035 217.318C196.361 217.318 201.496 222.809 201.496 229.584Z" fill="#333333"/>
<path d="M190.292 248.024C194.279 248.027 198.179 246.857 201.504 244.66C200.754 240.56 197.892 240.303 197.892 240.303H182.125C182.125 240.303 179.424 240.525 178.582 244.299C182.006 246.719 186.097 248.02 190.292 248.024Z" fill="#E63946"/>
<path opacity="0.1" d="M186.902 235.336H193.211V240.377C193.211 240.791 193.129 241.2 192.971 241.583C192.812 241.965 192.58 242.312 192.287 242.605C191.994 242.897 191.646 243.129 191.264 243.288C190.881 243.446 190.471 243.527 190.057 243.527C189.22 243.527 188.418 243.195 187.826 242.605C187.235 242.014 186.902 241.213 186.902 240.377V235.336Z" fill="black"/>
<path d="M187.504 235.105H192.609C192.769 235.105 192.922 235.168 193.035 235.281C193.148 235.394 193.211 235.547 193.211 235.706V240.146C193.211 240.56 193.129 240.969 192.971 241.352C192.812 241.734 192.58 242.081 192.287 242.374C191.994 242.666 191.646 242.898 191.264 243.057C190.881 243.215 190.471 243.296 190.057 243.296C189.22 243.296 188.418 242.965 187.826 242.374C187.235 241.783 186.902 240.982 186.902 240.146V235.702C186.903 235.543 186.967 235.391 187.08 235.279C187.193 235.167 187.345 235.105 187.504 235.105Z" fill="#FDA57D"/>
<path opacity="0.1" d="M186.916 237.715C188.951 238.468 191.189 238.468 193.225 237.715V236.939H186.916V237.715Z" fill="black"/>
<path d="M190.079 238.137C195.071 238.137 199.119 234.095 199.119 229.109C199.119 224.123 195.071 220.081 190.079 220.081C185.086 220.081 181.039 224.123 181.039 229.109C181.039 234.095 185.086 238.137 190.079 238.137Z" fill="#FDA57D"/>
<path opacity="0.1" d="M179.66 229.697C179.66 229.697 185.288 229.018 189.555 223.562C189.555 223.562 195.183 229.754 199.11 229.07C199.11 229.07 201.383 226.687 199.11 224.299C196.836 221.911 195.074 218.904 192.059 219.301C189.045 219.698 185.349 219.867 183.77 221.288C182.191 222.708 179.66 229.697 179.66 229.697Z" fill="black"/>
<path d="M179.66 229.584C179.66 229.584 185.288 228.904 189.555 223.449C189.555 223.449 195.183 229.641 199.11 228.957C199.11 228.957 201.383 226.573 199.11 224.185C196.836 221.798 195.074 218.791 192.059 219.188C189.045 219.584 185.349 219.754 183.77 221.175C182.191 222.595 179.66 229.584 179.66 229.584Z" fill="#333333"/>
<path d="M181.034 230.674C181.499 230.674 181.876 229.969 181.876 229.101C181.876 228.232 181.499 227.528 181.034 227.528C180.569 227.528 180.192 228.232 180.192 229.101C180.192 229.969 180.569 230.674 181.034 230.674Z" fill="#FDA57D"/>
<path d="M199.118 230.674C199.583 230.674 199.96 229.969 199.96 229.101C199.96 228.232 199.583 227.528 199.118 227.528C198.653 227.528 198.276 228.232 198.276 229.101C198.276 229.969 198.653 230.674 199.118 230.674Z" fill="#FDA57D"/>
<path d="M190.218 60.5659H1.74512V102.396H190.218V60.5659Z" fill="url(#paint9_linear)"/>
<path d="M189.346 60.566H1.74512V19.172H149.208L189.346 60.566Z" fill="url(#paint10_linear)"/>
<path d="M378.255 60.5659H190.218V102.396H378.255V60.5659Z" fill="url(#paint11_linear)"/>
<path d="M249.988 56.6444H129.575V64.4875H249.988V56.6444Z" fill="#E0E0E0"/>
<path d="M28.3587 24.8364H13.0889V32.6795H28.3587V24.8364Z" fill="#E0E0E0"/>
<path d="M366.476 24.8364H352.515V26.1436H366.476V24.8364Z" fill="#E0E0E0"/>
<path d="M366.476 28.3223H352.515V29.6294H366.476V28.3223Z" fill="#E0E0E0"/>
<path d="M366.476 31.3723H352.515V32.6795H366.476V31.3723Z" fill="#E0E0E0"/>
</g>
<defs>
<linearGradient id="paint0_linear" x1="190" y1="261" x2="190" y2="0" gradientUnits="userSpaceOnUse">
<stop stop-color="#808080" stop-opacity="0.25"/>
<stop offset="0.54" stop-color="#808080" stop-opacity="0.12"/>
<stop offset="1" stop-color="#808080" stop-opacity="0.1"/>
</linearGradient>
<linearGradient id="paint1_linear" x1="13561" y1="14957.2" x2="13561" y2="10983.2" gradientUnits="userSpaceOnUse">
<stop stop-color="#808080" stop-opacity="0.25"/>
<stop offset="0.54" stop-color="#808080" stop-opacity="0.12"/>
<stop offset="1" stop-color="#808080" stop-opacity="0.1"/>
</linearGradient>
<linearGradient id="paint2_linear" x1="18216.5" y1="19327.6" x2="18216.5" y2="15353.3" gradientUnits="userSpaceOnUse">
<stop stop-color="#808080" stop-opacity="0.25"/>
<stop offset="0.54" stop-color="#808080" stop-opacity="0.12"/>
<stop offset="1" stop-color="#808080" stop-opacity="0.1"/>
</linearGradient>
<linearGradient id="paint3_linear" x1="18214.4" y1="14858.8" x2="18214.4" y2="10884.4" gradientUnits="userSpaceOnUse">
<stop stop-color="#808080" stop-opacity="0.25"/>
<stop offset="0.54" stop-color="#808080" stop-opacity="0.12"/>
<stop offset="1" stop-color="#808080" stop-opacity="0.1"/>
</linearGradient>
<linearGradient id="paint4_linear" x1="23007.2" y1="14849.5" x2="23007.2" y2="10875.6" gradientUnits="userSpaceOnUse">
<stop stop-color="#808080" stop-opacity="0.25"/>
<stop offset="0.54" stop-color="#808080" stop-opacity="0.12"/>
<stop offset="1" stop-color="#808080" stop-opacity="0.1"/>
</linearGradient>
<linearGradient id="paint5_linear" x1="13546.2" y1="19196" x2="13546.2" y2="15221.6" gradientUnits="userSpaceOnUse">
<stop stop-color="#808080" stop-opacity="0.25"/>
<stop offset="0.54" stop-color="#808080" stop-opacity="0.12"/>
<stop offset="1" stop-color="#808080" stop-opacity="0.1"/>
</linearGradient>
<linearGradient id="paint6_linear" x1="23082.1" y1="19418.4" x2="23082.1" y2="15444.5" gradientUnits="userSpaceOnUse">
<stop stop-color="#808080" stop-opacity="0.25"/>
<stop offset="0.54" stop-color="#808080" stop-opacity="0.12"/>
<stop offset="1" stop-color="#808080" stop-opacity="0.1"/>
</linearGradient>
<linearGradient id="paint7_linear" x1="13561" y1="23710.2" x2="13561" y2="19735.9" gradientUnits="userSpaceOnUse">
<stop stop-color="#808080" stop-opacity="0.25"/>
<stop offset="0.54" stop-color="#808080" stop-opacity="0.12"/>
<stop offset="1" stop-color="#808080" stop-opacity="0.1"/>
</linearGradient>
<linearGradient id="paint8_linear" x1="18336.9" y1="23940.2" x2="18336.9" y2="19966.3" gradientUnits="userSpaceOnUse">
<stop stop-color="#808080" stop-opacity="0.25"/>
<stop offset="0.54" stop-color="#808080" stop-opacity="0.12"/>
<stop offset="1" stop-color="#808080" stop-opacity="0.1"/>
</linearGradient>
<linearGradient id="paint9_linear" x1="1.74512" y1="81.4808" x2="190.218" y2="81.4808" gradientUnits="userSpaceOnUse">
<stop stop-color="white" stop-opacity="0.05"/>
<stop offset="0.99" stop-color="white" stop-opacity="0.07"/>
</linearGradient>
<linearGradient id="paint10_linear" x1="1.74512" y1="39.869" x2="189.346" y2="39.869" gradientUnits="userSpaceOnUse">
<stop stop-color="white" stop-opacity="0.02"/>
<stop offset="0.99" stop-color="white" stop-opacity="0.05"/>
</linearGradient>
<linearGradient id="paint11_linear" x1="190.218" y1="81.4808" x2="378.255" y2="81.4808" gradientUnits="userSpaceOnUse">
<stop stop-color="white" stop-opacity="0.02"/>
<stop offset="0.99" stop-color="white" stop-opacity="0.04"/>
</linearGradient>
<clipPath id="clip0">
<rect width="380" height="261" fill="white"/>
</clipPath>
</defs>
</svg>
