<svg xmlns="http://www.w3.org/2000/svg" viewBox="0 0 777 141" width="777" height="141">
	<defs>
		<linearGradient id="grd1" gradientUnits="userSpaceOnUse"  x1="215.586" y1="0.162" x2="215.586" y2="140.551">
			<stop offset="0" stop-color="#41bdc1"  />
			<stop offset="1" stop-color="#326c7c"  />
		</linearGradient>
	</defs>
	<style>
		tspan { white-space:pre }
		.shp0 { fill: url(#grd1) } 
		.shp1 { fill: #ffffff } 
		.shp2 { fill: #384047 } 
	</style>
	<g id="Layer 1">
		<path id="&lt;Compound Path&gt;" fill-rule="evenodd" class="shp0" d="M0 110.31L0 30.4C0 28.37 1.66 26.71 3.69 26.71L7.75 26.71L7.75 114L3.69 114C1.66 114 0 112.34 0 110.31ZM15.83 119.06L15.83 21.65C15.83 19.17 17.85 17.15 20.33 17.15L25.27 17.15L25.27 123.56L20.33 123.56C17.85 123.56 15.83 121.54 15.83 119.06ZM207.9 114L203.83 114L203.83 26.71L207.9 26.71C209.93 26.71 211.59 28.37 211.59 30.4L211.59 110.31C211.59 112.34 209.93 114 207.9 114ZM191.26 123.56L186.31 123.56L186.31 17.15L191.26 17.15C193.74 17.15 195.76 19.17 195.76 21.65L195.76 119.06C195.76 121.54 193.74 123.56 191.26 123.56ZM178.24 12.54L178.24 128.18C178.24 131.58 176.85 134.68 174.61 136.92C172.37 139.16 169.27 140.55 165.86 140.55L45.72 140.55C42.32 140.55 39.22 139.16 36.98 136.92C34.74 134.68 33.35 131.58 33.35 128.18L33.35 12.54C33.35 9.13 34.74 6.03 36.98 3.79C39.22 1.55 42.32 0.16 45.72 0.16L165.86 0.16C169.27 0.16 172.37 1.55 174.61 3.79C176.85 6.03 178.24 9.13 178.24 12.54Z" />
		<path id="&lt;Path&gt;" class="shp1" d="M133.1 33.37C133.81 32.21 134.68 31.32 135.7 30.71C136.77 30.07 137.95 29.75 139.24 29.75C141.01 29.75 142.53 30.41 143.78 31.73C144.4 32.38 144.87 33.15 145.18 34.04C145.47 34.86 145.62 35.76 145.62 36.73L145.62 104.35C145.62 106.38 144.94 108 143.6 109.22C142.96 109.8 142.25 110.23 141.47 110.52C140.68 110.82 139.86 110.96 139 110.96C137.24 110.96 135.7 110.39 134.38 109.26C133.67 108.64 133.13 107.9 132.78 107.04C132.44 106.22 132.27 105.33 132.27 104.35L132.27 59.07L111.88 90.95C111.17 92.1 110.32 92.98 109.33 93.59C108.28 94.24 107.12 94.57 105.85 94.57C104.6 94.57 103.44 94.25 102.37 93.61C101.36 93 100.49 92.14 99.74 91.03L99.72 90.99L79.32 59.28L79.32 104.35C79.32 105.3 79.16 106.19 78.83 107.01C78.49 107.87 77.98 108.62 77.3 109.23L77.29 109.23C76.66 109.8 75.95 110.23 75.17 110.52C74.38 110.82 73.56 110.96 72.71 110.96C70.94 110.96 69.4 110.39 68.09 109.26C67.37 108.64 66.84 107.9 66.48 107.04C66.14 106.22 65.97 105.33 65.97 104.35L65.97 36.85C65.97 34.8 66.6 33.11 67.87 31.79C68.49 31.13 69.19 30.63 69.96 30.29C70.75 29.93 71.59 29.75 72.46 29.75C73.03 29.75 73.61 29.84 74.21 30.02C74.76 30.19 75.3 30.44 75.82 30.75C76.37 31.09 76.86 31.5 77.31 31.99C77.69 32.41 78.04 32.91 78.36 33.46L105.85 76.15L133.1 33.37Z" />
		<path id="&lt;Compound Path&gt;" fill-rule="evenodd" class="shp2" d="M299.86 34C303.73 34 307.13 34.93 310.07 36.76C313.01 38.62 315.29 41.11 316.89 44.25C318.47 47.4 319.28 50.91 319.28 54.77L319.28 86.6C319.28 87.29 319.1 87.83 318.74 88.19C318.37 88.56 317.83 88.74 317.14 88.74L309.94 88.74C308.52 88.74 307.81 88.02 307.81 86.6L307.81 56.23C307.81 54.01 307.38 51.99 306.54 50.19C305.72 48.41 304.51 46.99 302.93 45.95C301.34 44.9 299.49 44.39 297.37 44.39C295.21 44.39 293.24 44.89 291.44 45.9C289.66 46.9 288.25 48.29 287.22 50.07C286.18 51.85 285.68 53.83 285.68 56.02L285.68 86.6C285.68 87.29 285.49 87.83 285.13 88.19C284.76 88.56 284.24 88.74 283.55 88.74L276.33 88.74C274.91 88.74 274.2 88.02 274.2 86.6L274.2 56.23C274.2 54.01 273.79 51.99 272.97 50.19C272.15 48.41 270.95 46.99 269.37 45.95C267.78 44.9 265.88 44.39 263.65 44.39C261.46 44.39 259.48 44.89 257.7 45.9C255.94 46.9 254.55 48.29 253.53 50.07C252.52 51.85 252.02 53.83 252.02 56.02L252.02 86.6C252.02 87.29 251.84 87.83 251.47 88.19C251.11 88.56 250.58 88.74 249.88 88.74L242.69 88.74C241.24 88.74 240.53 88.02 240.53 86.6L240.53 37.28C240.53 36.59 240.73 36.05 241.08 35.7C241.46 35.32 241.97 35.14 242.69 35.14L247.02 35.14C248.33 35.14 249.12 35.77 249.37 37.03L250.29 41.2C252.7 38.72 255.26 36.91 257.99 35.75C260.73 34.57 263.51 34 266.38 34C269.6 34 272.57 34.75 275.3 36.26C278.01 37.78 280.16 39.86 281.76 42.5C283.89 39.83 286.58 37.74 289.83 36.25C293.08 34.75 296.42 34 299.86 34ZM357.23 34C362.2 34 366.69 35.14 370.68 37.44C374.69 39.74 377.82 42.96 380.1 47.13C382.38 51.28 383.52 56 383.52 61.29C383.52 62.16 383.34 62.75 382.97 63.07C382.61 63.37 382.06 63.53 381.33 63.53L341.82 63.53C341.93 66.78 342.73 69.59 344.21 72.01C345.69 74.44 347.63 76.29 350.02 77.57C352.42 78.85 355.06 79.49 357.91 79.49C360.62 79.49 363.27 78.89 365.83 77.64C368.42 76.41 370.66 74.63 372.57 72.3C373.12 71.71 373.64 71.41 374.14 71.41C374.47 71.41 374.88 71.55 375.33 71.83L379.71 76.06C380.32 76.47 380.6 76.95 380.6 77.46C380.6 77.93 380.39 78.41 379.98 78.92C377.2 82.41 373.85 85.1 369.93 87.01C366.01 88.93 361.9 89.88 357.59 89.88C352.62 89.88 348.06 88.72 343.94 86.42C339.83 84.11 336.55 80.83 334.13 76.57C331.73 72.33 330.51 67.47 330.51 61.97C330.51 56.46 331.67 51.6 334.01 47.36C336.34 43.1 339.53 39.83 343.61 37.49C347.67 35.16 352.21 34 357.23 34ZM357.37 43.91C355.25 43.91 353.21 44.32 351.23 45.14C349.23 45.95 347.51 47.18 346.01 48.84C344.51 50.5 343.43 52.51 342.77 54.88L371.37 54.88C370.5 51.35 368.77 48.64 366.17 46.76C363.59 44.87 360.65 43.91 357.37 43.91ZM421.92 34C426.3 34 429.97 34.97 432.91 36.92C435.85 38.87 438.04 41.47 439.47 44.69C440.89 47.93 441.6 51.48 441.6 55.34L441.6 86.6C441.6 88.02 440.89 88.74 439.47 88.74L432.31 88.74C430.88 88.74 430.17 88.02 430.17 86.6L430.17 56.64C430.17 54.22 429.71 52.06 428.8 50.23C427.87 48.38 426.57 46.95 424.88 45.95C423.19 44.94 421.21 44.44 418.95 44.44C416.69 44.44 414.62 44.94 412.75 45.92C410.86 46.92 409.37 48.38 408.26 50.3C407.14 52.24 406.59 54.5 406.59 57.12L406.59 86.6C406.59 87.29 406.41 87.83 406.04 88.19C405.68 88.56 405.14 88.74 404.45 88.74L397.25 88.74C395.81 88.74 395.1 88.02 395.1 86.6L395.1 37.28C395.1 36.59 395.29 36.05 395.65 35.7C396.02 35.32 396.54 35.14 397.25 35.14L401.58 35.14C402.9 35.14 403.68 35.77 403.93 37.03L404.97 41.52C407.37 39.01 410.04 37.14 412.98 35.87C415.92 34.63 418.89 34 421.92 34ZM473.65 89.88C470.55 89.88 467.82 89.31 465.45 88.13C463.08 86.97 461.23 85.26 459.9 83C458.56 80.74 457.88 78.02 457.88 74.86L457.88 44.8L453.34 44.8C452.65 44.8 452.13 44.62 451.76 44.25C451.4 43.89 451.2 43.35 451.2 42.66L451.2 37.28C451.2 36.59 451.4 36.05 451.76 35.7C452.13 35.32 452.65 35.14 453.34 35.14L457.88 35.14L457.88 18.97C457.88 18.28 458.08 17.74 458.44 17.39C458.81 17.01 459.33 16.83 460.02 16.83L467.18 16.83C467.88 16.83 468.41 17.01 468.77 17.39C469.14 17.74 469.32 18.28 469.32 18.97L469.32 35.14L479.86 35.14C480.56 35.14 481.09 35.32 481.45 35.7C481.82 36.05 482 36.59 482 37.28L482 42.66C482 43.32 481.82 43.84 481.45 44.23C481.09 44.6 480.56 44.8 479.86 44.8L469.32 44.8L469.32 73.08C469.32 75.42 469.8 77.16 470.78 78.3C471.76 79.44 473.15 80.03 474.95 80.03C476.03 80.03 477.23 79.8 478.54 79.35C478.94 79.24 479.26 79.19 479.49 79.19C480.36 79.19 480.97 79.67 481.32 80.65L482.84 85.87C482.96 86.28 483.03 86.6 483.03 86.81C483.03 87.67 482.55 88.31 481.57 88.68C479.26 89.49 476.6 89.88 473.65 89.88ZM518.21 89.88C512.9 89.88 508.08 88.7 503.73 86.32C499.4 83.93 495.98 80.62 493.49 76.39C490.98 72.17 489.73 67.36 489.73 61.97C489.73 56.57 490.98 51.76 493.49 47.52C495.98 43.27 499.4 39.95 503.73 37.57C508.08 35.2 512.9 34 518.21 34C523.54 34 528.36 35.2 532.69 37.57C537.04 39.95 540.44 43.27 542.95 47.52C545.46 51.76 546.71 56.57 546.71 61.97C546.71 67.36 545.46 72.17 542.95 76.39C540.44 80.62 537.04 83.93 532.69 86.32C528.36 88.7 523.54 89.88 518.21 89.88ZM518.21 79.35C521.45 79.35 524.37 78.6 526.96 77.13C529.56 75.65 531.59 73.6 533.07 70.96C534.54 68.34 535.27 65.35 535.27 61.97C535.27 58.6 534.54 55.59 533.07 52.94C531.59 50.3 529.56 48.24 526.96 46.76C524.37 45.28 521.45 44.55 518.21 44.55C515.02 44.55 512.12 45.28 509.54 46.76C506.94 48.24 504.89 50.3 503.39 52.94C501.9 55.59 501.15 58.6 501.15 61.97C501.15 65.35 501.9 68.34 503.39 70.96C504.89 73.6 506.94 75.65 509.54 77.13C512.12 78.6 515.02 79.35 518.21 79.35ZM560.66 88.74C559.21 88.74 558.5 88.02 558.5 86.6L558.46 37.28C558.46 36.59 558.64 36.05 559.04 35.7C559.41 35.32 559.94 35.14 560.6 35.14L564.93 35.14C566.25 35.14 567.03 35.77 567.28 37.03L568.58 42.87C570.29 39.88 572.39 37.65 574.89 36.19C577.4 34.73 580.11 34 583.03 34C584.4 34 585.97 34.22 587.78 34.68C588.8 34.98 589.3 35.62 589.3 36.55C589.3 36.69 589.26 36.94 589.19 37.28L587.52 43.66C587.28 44.69 586.66 45.22 585.65 45.22C585.5 45.22 585.25 45.19 584.92 45.12C583.7 44.83 582.49 44.69 581.32 44.69C577.74 44.69 574.94 46.01 572.96 48.61C570.99 51.23 569.99 54.98 569.99 59.94L569.99 86.6C569.99 87.29 569.81 87.83 569.44 88.19C569.08 88.56 568.55 88.74 567.85 88.74L560.66 88.74ZM651.49 86.6C651.49 88.02 650.78 88.74 649.36 88.74L645.03 88.74C643.71 88.74 642.93 88.11 642.68 86.87L641.32 81.06C638.88 83.88 635.93 86.07 632.42 87.58C628.93 89.11 625.26 89.88 621.39 89.88C616.35 89.88 611.72 88.63 607.54 86.12C603.35 83.63 600.04 80.24 597.61 75.98C595.21 71.71 594 67.04 594 61.97C594 56.89 595.21 52.21 597.61 47.93C600.04 43.66 603.35 40.25 607.54 37.76C611.72 35.25 616.35 34 621.39 34C624.87 34 628.23 34.63 631.46 35.91C634.7 37.17 637.53 38.97 639.97 41.31L639.92 10.72C639.92 10.03 640.09 9.5 640.47 9.14C640.82 8.76 641.36 8.59 642.05 8.59L649.25 8.59C650.67 8.59 651.39 9.3 651.39 10.72L651.49 86.6ZM622.85 79.35C625.99 79.35 628.89 78.57 631.56 77C634.24 75.43 636.37 73.31 637.92 70.66C639.49 67.99 640.27 65.1 640.27 61.97C640.27 58.83 639.49 55.93 637.92 53.26C636.37 50.57 634.24 48.45 631.56 46.88C628.89 45.31 625.99 44.55 622.85 44.55C619.72 44.55 616.82 45.31 614.14 46.88C611.45 48.45 609.33 50.57 607.77 53.26C606.2 55.93 605.42 58.83 605.42 61.97C605.42 65.1 606.2 67.99 607.77 70.66C609.33 73.31 611.45 75.43 614.14 77C616.82 78.57 619.72 79.35 622.85 79.35ZM690.07 34C695.04 34 699.53 35.14 703.52 37.44C707.53 39.74 710.66 42.96 712.94 47.13C715.22 51.28 716.36 56 716.36 61.29C716.36 62.16 716.18 62.75 715.81 63.07C715.45 63.37 714.9 63.53 714.17 63.53L674.67 63.53C674.77 66.78 675.58 69.59 677.05 72.01C678.53 74.44 680.47 76.29 682.86 77.57C685.26 78.85 687.9 79.49 690.75 79.49C693.46 79.49 696.11 78.89 698.68 77.64C701.26 76.41 703.5 74.63 705.41 72.3C705.96 71.71 706.48 71.41 706.98 71.41C707.31 71.41 707.72 71.55 708.17 71.83L712.55 76.06C713.16 76.47 713.44 76.95 713.44 77.46C713.44 77.93 713.23 78.41 712.82 78.92C710.04 82.41 706.69 85.1 702.77 87.01C698.85 88.93 694.74 89.88 690.43 89.88C685.46 89.88 680.9 88.72 676.79 86.42C672.67 84.11 669.39 80.83 666.97 76.57C664.57 72.33 663.36 67.47 663.36 61.97C663.36 56.46 664.51 51.6 666.85 47.36C669.18 43.1 672.37 39.83 676.45 37.49C680.51 35.16 685.05 34 690.07 34ZM690.22 43.91C688.1 43.91 686.05 44.32 684.07 45.14C682.08 45.95 680.35 47.18 678.85 48.84C677.36 50.5 676.27 52.51 675.61 54.88L704.21 54.88C703.34 51.35 701.61 48.64 699.01 46.76C696.43 44.87 693.49 43.91 690.22 43.91ZM724.09 88.74C723.49 88.74 723.04 88.63 722.7 88.4C722.37 88.17 722.21 87.86 722.21 87.49C722.21 87.1 722.4 86.67 722.77 86.17L742.14 61.5L723.42 37.71C723.02 37.21 722.83 36.76 722.83 36.35C722.83 35.96 723.01 35.66 723.33 35.46C723.67 35.25 724.11 35.14 724.66 35.14L733.69 35.14C734.8 35.14 735.65 35.61 736.24 36.5L749.49 54.04L762.76 36.5C763.35 35.61 764.2 35.14 765.31 35.14L774.29 35.14C774.87 35.14 775.34 35.27 775.67 35.48C776 35.71 776.16 36.02 776.16 36.39C776.16 36.78 775.98 37.21 775.59 37.71L756.9 61.5L776.21 86.17C776.6 86.67 776.8 87.12 776.8 87.54C776.8 87.92 776.62 88.22 776.3 88.42C775.96 88.63 775.51 88.74 774.96 88.74L765.52 88.74C764.47 88.74 763.62 88.29 762.96 87.38L749.49 69.16L735.99 87.38C735.35 88.29 734.51 88.74 733.43 88.74L724.09 88.74Z" />
		<path id="&lt;Path&gt;" class="shp2" d="M275.86 125.51L275.86 102.94L278.85 102.94L278.85 125.51L275.86 125.51Z" />
		<path id="&lt;Path&gt;" class="shp2" d="M289.78 123.03L290.16 125.48C289.38 125.64 288.68 125.73 288.08 125.73C287.07 125.73 286.29 125.57 285.74 125.25C285.19 124.93 284.8 124.51 284.57 123.99C284.35 123.47 284.23 122.38 284.23 120.71L284.23 111.29L282.19 111.29L282.19 109.15L284.23 109.15L284.23 105.1L287.01 103.44L287.01 109.15L289.78 109.15L289.78 111.29L287.01 111.29L287.01 120.87C287.01 121.67 287.06 122.18 287.16 122.4C287.25 122.63 287.41 122.81 287.63 122.94C287.85 123.07 288.17 123.14 288.57 123.14C288.88 123.14 289.28 123.1 289.78 123.03Z" />
		<path id="&lt;Path&gt;" class="shp2" d="M307.3 123.03L307.68 125.48C306.9 125.64 306.2 125.73 305.59 125.73C304.59 125.73 303.81 125.57 303.25 125.25C302.7 124.93 302.31 124.51 302.09 123.99C301.86 123.47 301.75 122.38 301.75 120.71L301.75 111.29L299.7 111.29L299.7 109.15L301.75 109.15L301.75 105.1L304.52 103.44L304.52 109.15L307.3 109.15L307.3 111.29L304.52 111.29L304.52 120.87C304.52 121.67 304.57 122.18 304.67 122.4C304.77 122.63 304.92 122.81 305.14 122.94C305.36 123.07 305.68 123.14 306.09 123.14C306.39 123.14 306.8 123.1 307.3 123.03Z" />
		<path id="&lt;Compound Path&gt;" fill-rule="evenodd" class="shp2" d="M320.72 123.46C319.69 124.33 318.7 124.95 317.75 125.31C316.8 125.67 315.78 125.85 314.68 125.85C312.89 125.85 311.51 125.42 310.54 124.54C309.57 123.67 309.09 122.55 309.09 121.19C309.09 120.39 309.27 119.66 309.64 119C310 118.33 310.48 117.81 311.07 117.41C311.66 117.01 312.33 116.71 313.07 116.5C313.61 116.36 314.44 116.22 315.53 116.09C317.77 115.82 319.43 115.5 320.48 115.14C320.49 114.76 320.5 114.52 320.5 114.42C320.5 113.29 320.24 112.5 319.71 112.04C319 111.41 317.95 111.1 316.55 111.1C315.24 111.1 314.27 111.33 313.65 111.79C313.03 112.25 312.57 113.06 312.27 114.22L309.56 113.84C309.81 112.68 310.21 111.74 310.78 111.03C311.35 110.31 312.17 109.77 313.24 109.38C314.31 108.99 315.55 108.8 316.96 108.8C318.36 108.8 319.5 108.96 320.37 109.29C321.25 109.63 321.89 110.03 322.3 110.53C322.71 111.03 323 111.66 323.17 112.43C323.26 112.9 323.3 113.75 323.3 114.97L323.3 118.65C323.3 121.22 323.36 122.84 323.48 123.53C323.59 124.22 323.82 124.88 324.16 125.51L321.26 125.51C320.98 124.92 320.8 124.24 320.72 123.46ZM320.5 117.31C319.49 117.72 317.98 118.07 315.96 118.35C314.82 118.51 314.01 118.7 313.53 118.9C313.06 119.11 312.7 119.41 312.44 119.8C312.18 120.19 312.05 120.63 312.05 121.11C312.05 121.84 312.33 122.45 312.89 122.94C313.45 123.43 314.27 123.68 315.35 123.68C316.42 123.68 317.37 123.45 318.2 122.98C319.03 122.52 319.65 121.88 320.04 121.08C320.34 120.45 320.48 119.53 320.48 118.32L320.5 117.31Z" />
		<path id="&lt;Path&gt;" class="shp2" d="M327.58 125.51L327.58 102.94L330.35 102.94L330.35 115.79L336.91 109.15L340.49 109.15L334.25 115.23L341.12 125.51L337.7 125.51L332.27 117.15L330.35 119.02L330.35 125.51L327.58 125.51Z" />
		<path id="&lt;Compound Path&gt;" fill-rule="evenodd" class="shp2" d="M354.48 120.21L357.35 120.59C356.91 122.25 356.07 123.55 354.85 124.47C353.63 125.39 352.08 125.85 350.18 125.85C347.8 125.85 345.9 125.12 344.51 123.65C343.11 122.18 342.41 120.12 342.41 117.46C342.41 114.72 343.12 112.59 344.53 111.07C345.94 109.56 347.77 108.8 350.03 108.8C352.21 108.8 353.99 109.54 355.37 111.03C356.75 112.51 357.45 114.6 357.45 117.3C357.45 117.46 357.44 117.71 357.43 118.04L345.25 118.04C345.35 119.83 345.86 121.2 346.77 122.15C347.68 123.1 348.82 123.58 350.18 123.58C351.19 123.58 352.06 123.32 352.78 122.78C353.5 122.24 354.06 121.39 354.48 120.21ZM345.41 115.77L354.51 115.77C354.39 114.39 354.04 113.36 353.47 112.67C352.59 111.61 351.45 111.07 350.04 111.07C348.77 111.07 347.71 111.5 346.84 112.35C345.98 113.2 345.5 114.34 345.41 115.77Z" />
		<path id="&lt;Path&gt;" class="shp2" d="M359.75 120.62L362.5 120.18C362.65 121.28 363.08 122.12 363.78 122.71C364.49 123.29 365.47 123.58 366.73 123.58C368.01 123.58 368.96 123.33 369.58 122.81C370.19 122.29 370.5 121.68 370.5 120.98C370.5 120.36 370.22 119.86 369.67 119.51C369.28 119.26 368.34 118.95 366.83 118.57C364.81 118.06 363.4 117.62 362.62 117.24C361.83 116.86 361.24 116.35 360.83 115.69C360.43 115.03 360.23 114.3 360.23 113.5C360.23 112.77 360.39 112.1 360.72 111.48C361.06 110.86 361.51 110.34 362.08 109.94C362.52 109.62 363.1 109.35 363.84 109.13C364.59 108.91 365.38 108.8 366.23 108.8C367.52 108.8 368.64 108.98 369.61 109.36C370.58 109.72 371.29 110.23 371.76 110.86C372.21 111.5 372.53 112.34 372.71 113.4L370 113.78C369.88 112.93 369.52 112.26 368.93 111.78C368.34 111.31 367.51 111.07 366.43 111.07C365.17 111.07 364.26 111.28 363.72 111.7C363.18 112.12 362.9 112.61 362.9 113.18C362.9 113.53 363.01 113.86 363.24 114.15C363.47 114.44 363.82 114.69 364.3 114.88C364.58 114.99 365.39 115.23 366.74 115.59C368.7 116.11 370.06 116.54 370.84 116.87C371.62 117.21 372.23 117.69 372.67 118.32C373.12 118.96 373.34 119.75 373.34 120.69C373.34 121.61 373.07 122.48 372.53 123.29C371.99 124.11 371.21 124.74 370.2 125.19C369.18 125.63 368.03 125.85 366.74 125.85C364.62 125.85 363 125.41 361.89 124.53C360.77 123.65 360.06 122.35 359.75 120.62Z" />
		<path id="&lt;Compound Path&gt;" fill-rule="evenodd" class="shp2" d="M396.06 123.46C395.03 124.33 394.04 124.95 393.08 125.31C392.13 125.67 391.12 125.85 390.02 125.85C388.23 125.85 386.84 125.42 385.88 124.54C384.91 123.67 384.43 122.55 384.43 121.19C384.43 120.39 384.61 119.66 384.97 119C385.34 118.33 385.82 117.81 386.41 117.41C387 117.01 387.66 116.71 388.4 116.5C388.95 116.36 389.78 116.22 390.87 116.09C393.11 115.82 394.77 115.5 395.82 115.14C395.83 114.76 395.84 114.52 395.84 114.42C395.84 113.29 395.58 112.5 395.05 112.04C394.34 111.41 393.29 111.1 391.89 111.1C390.58 111.1 389.61 111.33 388.99 111.79C388.37 112.25 387.91 113.06 387.61 114.22L384.9 113.84C385.15 112.68 385.55 111.74 386.12 111.03C386.69 110.31 387.51 109.77 388.58 109.38C389.64 108.99 390.89 108.8 392.3 108.8C393.69 108.8 394.83 108.96 395.71 109.29C396.58 109.63 397.23 110.03 397.64 110.53C398.05 111.03 398.34 111.66 398.51 112.43C398.6 112.9 398.64 113.75 398.64 114.97L398.64 118.65C398.64 121.22 398.7 122.84 398.82 123.53C398.93 124.22 399.16 124.88 399.49 125.51L396.59 125.51C396.32 124.92 396.14 124.24 396.06 123.46ZM395.84 117.31C394.83 117.72 393.32 118.07 391.3 118.35C390.15 118.51 389.34 118.7 388.87 118.9C388.4 119.11 388.04 119.41 387.78 119.8C387.52 120.19 387.39 120.63 387.39 121.11C387.39 121.84 387.67 122.45 388.23 122.94C388.79 123.43 389.61 123.68 390.69 123.68C391.76 123.68 392.71 123.45 393.54 122.98C394.37 122.52 394.99 121.88 395.38 121.08C395.67 120.45 395.82 119.53 395.82 118.32L395.84 117.31Z" />
		<path id="&lt;Path&gt;" class="shp2" d="M416.13 125.51L409.96 109.15L412.93 109.15L416.43 118.94C416.8 120 417.16 121.1 417.48 122.24C417.72 121.38 418.06 120.34 418.51 119.13L422.15 109.15L424.99 109.15L418.8 125.51L416.13 125.51Z" />
		<path id="&lt;Compound Path&gt;" class="shp2" d="M427.42 106.09L427.42 102.94L430.19 102.94L430.19 106.09L427.42 106.09ZM427.42 125.51L427.42 109.15L430.19 109.15L430.19 125.51L427.42 125.51Z" />
		<path id="&lt;Path&gt;" class="shp2" d="M434.36 125.51L434.36 102.94L437.13 102.94L437.13 125.51L434.36 125.51Z" />
		<path id="&lt;Path&gt;" class="shp2" d="M441.36 125.51L441.36 102.94L444.14 102.94L444.14 125.51L441.36 125.51Z" />
		<path id="&lt;Compound Path&gt;" fill-rule="evenodd" class="shp2" d="M459.11 123.46C458.08 124.33 457.09 124.95 456.14 125.31C455.19 125.67 454.17 125.85 453.08 125.85C451.28 125.85 449.9 125.42 448.93 124.54C447.97 123.67 447.48 122.55 447.48 121.19C447.48 120.39 447.67 119.66 448.03 119C448.4 118.33 448.87 117.81 449.46 117.41C450.06 117.01 450.72 116.71 451.46 116.5C452.01 116.36 452.83 116.22 453.93 116.09C456.17 115.82 457.82 115.5 458.88 115.14C458.89 114.76 458.89 114.52 458.89 114.42C458.89 113.29 458.63 112.5 458.11 112.04C457.4 111.41 456.34 111.1 454.94 111.1C453.64 111.1 452.67 111.33 452.05 111.79C451.42 112.25 450.97 113.06 450.67 114.22L447.96 113.84C448.2 112.68 448.61 111.74 449.17 111.03C449.74 110.31 450.56 109.77 451.63 109.38C452.7 108.99 453.95 108.8 455.35 108.8C456.75 108.8 457.89 108.96 458.77 109.29C459.64 109.63 460.29 110.03 460.7 110.53C461.11 111.03 461.39 111.66 461.56 112.43C461.65 112.9 461.7 113.75 461.7 114.97L461.7 118.65C461.7 121.22 461.76 122.84 461.87 123.53C461.98 124.22 462.21 124.88 462.55 125.51L459.65 125.51C459.37 124.92 459.19 124.24 459.11 123.46ZM458.89 117.31C457.89 117.72 456.37 118.07 454.35 118.35C453.21 118.51 452.4 118.7 451.93 118.9C451.46 119.11 451.09 119.41 450.83 119.8C450.58 120.19 450.45 120.63 450.45 121.11C450.45 121.84 450.73 122.45 451.29 122.94C451.85 123.43 452.67 123.68 453.75 123.68C454.81 123.68 455.76 123.45 456.6 122.98C457.43 122.52 458.04 121.88 458.43 121.08C458.73 120.45 458.88 119.53 458.88 118.32L458.89 117.31Z" />
		<path id="&lt;Compound Path&gt;" fill-rule="evenodd" class="shp2" d="M465.45 126.86L468.13 127.24C468.24 128.07 468.55 128.67 469.07 129.06C469.76 129.57 470.7 129.82 471.89 129.82C473.17 129.82 474.17 129.57 474.86 129.06C475.56 128.55 476.04 127.83 476.28 126.91C476.42 126.35 476.49 125.16 476.48 123.36C475.27 124.79 473.76 125.51 471.95 125.51C469.71 125.51 467.96 124.7 466.73 123.07C465.5 121.46 464.88 119.51 464.88 117.25C464.88 115.69 465.17 114.25 465.73 112.93C466.29 111.61 467.11 110.6 468.18 109.88C469.25 109.16 470.51 108.8 471.96 108.8C473.89 108.8 475.48 109.59 476.73 111.16L476.73 109.15L479.29 109.15L479.29 123.27C479.29 125.82 479.03 127.62 478.51 128.68C478 129.75 477.17 130.59 476.05 131.2C474.93 131.82 473.55 132.13 471.91 132.13C469.96 132.13 468.39 131.69 467.19 130.81C465.99 129.94 465.41 128.62 465.45 126.86ZM467.72 117.05C467.72 119.19 468.15 120.75 469 121.73C469.85 122.71 470.92 123.2 472.2 123.2C473.48 123.2 474.54 122.72 475.41 121.74C476.27 120.76 476.7 119.23 476.7 117.14C476.7 115.14 476.26 113.63 475.37 112.62C474.48 111.61 473.41 111.1 472.16 111.1C470.92 111.1 469.88 111.6 469.01 112.6C468.15 113.6 467.72 115.08 467.72 117.05Z" />
		<path id="&lt;Compound Path&gt;" fill-rule="evenodd" class="shp2" d="M494.65 120.21L497.52 120.59C497.07 122.25 496.24 123.55 495.02 124.47C493.8 125.39 492.24 125.85 490.35 125.85C487.96 125.85 486.07 125.12 484.67 123.65C483.28 122.18 482.58 120.12 482.58 117.46C482.58 114.72 483.28 112.59 484.69 111.07C486.11 109.56 487.94 108.8 490.19 108.8C492.37 108.8 494.15 109.54 495.54 111.03C496.92 112.51 497.61 114.6 497.61 117.3C497.61 117.46 497.61 117.71 497.6 118.04L485.41 118.04C485.52 119.83 486.02 121.2 486.94 122.15C487.85 123.1 488.99 123.58 490.35 123.58C491.36 123.58 492.23 123.32 492.94 122.78C493.66 122.24 494.23 121.39 494.65 120.21ZM485.57 115.77L494.68 115.77C494.56 114.39 494.21 113.36 493.63 112.67C492.76 111.61 491.61 111.07 490.21 111.07C488.94 111.07 487.87 111.5 487 112.35C486.14 113.2 485.67 114.34 485.57 115.77Z" />
		<path id="&lt;Path&gt;" class="shp2" d="M501.81 125.51L501.81 122.35L504.96 122.35L504.96 125.51L501.81 125.51Z" />
		<path id="&lt;Path&gt;" class="shp2" d="M519.04 125.51L519.04 102.94L534.26 102.94L534.26 105.59L522.03 105.59L522.03 112.61L532.63 112.61L532.63 115.26L522.03 115.26L522.03 125.51L519.04 125.51Z" />
		<path id="&lt;Compound Path&gt;" class="shp2" d="M537.79 106.09L537.79 102.94L540.56 102.94L540.56 106.09L537.79 106.09ZM537.79 125.51L537.79 109.15L540.56 109.15L540.56 125.51L537.79 125.51Z" />
		<path id="&lt;Path&gt;" class="shp2" d="M544.79 125.51L544.79 109.15L547.28 109.15L547.28 111.47C548.48 109.69 550.21 108.8 552.48 108.8C553.46 108.8 554.37 108.98 555.19 109.33C556.02 109.68 556.64 110.15 557.05 110.72C557.46 111.3 557.75 111.98 557.91 112.77C558.01 113.28 558.06 114.18 558.06 115.46L558.06 125.51L555.29 125.51L555.29 115.57C555.29 114.44 555.18 113.59 554.97 113.03C554.75 112.48 554.37 112.03 553.82 111.7C553.28 111.36 552.63 111.2 551.89 111.2C550.72 111.2 549.7 111.57 548.85 112.32C547.99 113.07 547.57 114.49 547.57 116.58L547.57 125.51L544.79 125.51Z" />
		<path id="&lt;Compound Path&gt;" fill-rule="evenodd" class="shp2" d="M572.88 125.51L572.88 123.43C571.85 125.04 570.32 125.85 568.31 125.85C567.01 125.85 565.81 125.5 564.72 124.78C563.63 124.06 562.79 123.06 562.18 121.78C561.58 120.49 561.28 119.01 561.28 117.34C561.28 115.71 561.56 114.24 562.1 112.91C562.64 111.58 563.46 110.57 564.54 109.86C565.63 109.15 566.85 108.8 568.19 108.8C569.17 108.8 570.05 109.01 570.82 109.43C571.58 109.84 572.21 110.39 572.69 111.05L572.69 102.94L575.47 102.94L575.47 125.51L572.88 125.51ZM564.12 117.35C564.12 119.44 564.56 121 565.45 122.03C566.33 123.07 567.38 123.58 568.58 123.58C569.79 123.58 570.82 123.09 571.67 122.1C572.52 121.11 572.95 119.61 572.95 117.58C572.95 115.35 572.51 113.71 571.65 112.67C570.79 111.62 569.72 111.1 568.45 111.1C567.22 111.1 566.19 111.6 565.36 112.6C564.53 113.61 564.12 115.19 564.12 117.35Z" />
		<path id="&lt;Path&gt;" class="shp2" d="M588.48 131.79L588.17 129.23C588.78 129.39 589.3 129.48 589.76 129.48C590.38 129.48 590.87 129.37 591.24 129.17C591.61 128.96 591.91 128.67 592.15 128.31C592.32 128.03 592.61 127.34 593 126.24C593.05 126.08 593.13 125.86 593.24 125.56L587.03 109.15L590 109.15L593.41 118.59C593.86 119.78 594.25 121.05 594.6 122.37C594.92 121.12 595.3 119.9 595.74 118.69L599.23 109.15L602 109.15L595.82 125.79C595.15 127.58 594.63 128.81 594.26 129.49C593.76 130.4 593.2 131.06 592.56 131.49C591.92 131.92 591.16 132.13 590.28 132.13C589.74 132.13 589.14 132.01 588.48 131.79Z" />
		<path id="&lt;Compound Path&gt;" fill-rule="evenodd" class="shp2" d="M603.33 117.33C603.33 114.31 604.17 112.07 605.86 110.61C607.26 109.4 608.98 108.8 611 108.8C613.24 108.8 615.08 109.54 616.51 111.01C617.93 112.47 618.65 114.51 618.65 117.1C618.65 119.2 618.33 120.85 617.7 122.05C617.07 123.25 616.15 124.19 614.95 124.85C613.74 125.52 612.42 125.85 611 125.85C608.71 125.85 606.86 125.12 605.45 123.66C604.03 122.19 603.33 120.08 603.33 117.33ZM606.17 117.33C606.17 119.42 606.62 120.99 607.54 122.02C608.46 123.06 609.61 123.58 611 123.58C612.38 123.58 613.52 123.06 614.44 122.02C615.36 120.97 615.81 119.38 615.81 117.24C615.81 115.23 615.35 113.7 614.43 112.66C613.51 111.62 612.37 111.1 611 111.1C609.61 111.1 608.46 111.62 607.54 112.65C606.62 113.69 606.17 115.25 606.17 117.33Z" />
		<path id="&lt;Path&gt;" class="shp2" d="M632.59 125.51L632.59 123.07C631.32 124.93 629.59 125.85 627.41 125.85C626.45 125.85 625.55 125.67 624.72 125.3C623.88 124.93 623.26 124.47 622.86 123.91C622.45 123.35 622.17 122.66 622.01 121.85C621.9 121.31 621.84 120.45 621.84 119.27L621.84 109.15L624.61 109.15L624.61 118.2C624.61 119.64 624.67 120.62 624.78 121.12C624.95 121.85 625.32 122.42 625.89 122.83C626.45 123.25 627.14 123.46 627.97 123.46C628.8 123.46 629.58 123.25 630.31 122.82C631.03 122.4 631.55 121.81 631.85 121.08C632.15 120.35 632.3 119.29 632.3 117.89L632.3 109.15L635.08 109.15L635.08 125.51L632.59 125.51Z" />
		<path id="&lt;Path&gt;" class="shp2" d="M639.4 125.51L639.4 109.15L641.89 109.15L641.89 111.65C642.53 110.49 643.11 109.72 643.66 109.36C644.2 108.98 644.79 108.8 645.44 108.8C646.37 108.8 647.32 109.09 648.29 109.68L647.3 112.24C646.63 111.86 645.96 111.67 645.28 111.67C644.68 111.67 644.14 111.85 643.66 112.21C643.18 112.58 642.84 113.08 642.64 113.73C642.33 114.71 642.17 115.79 642.17 116.96L642.17 125.51L639.4 125.51Z" />
		<path id="&lt;Path&gt;" class="shp2" d="M648.83 120.62L651.57 120.18C651.72 121.28 652.15 122.12 652.85 122.71C653.56 123.29 654.55 123.58 655.81 123.58C657.08 123.58 658.03 123.33 658.65 122.81C659.26 122.29 659.57 121.68 659.57 120.98C659.57 120.36 659.29 119.86 658.74 119.51C658.35 119.26 657.41 118.95 655.91 118.57C653.88 118.06 652.48 117.62 651.69 117.24C650.9 116.86 650.31 116.35 649.91 115.69C649.5 115.03 649.3 114.3 649.3 113.5C649.3 112.77 649.46 112.1 649.8 111.48C650.13 110.86 650.58 110.34 651.16 109.94C651.59 109.62 652.18 109.35 652.92 109.13C653.66 108.91 654.46 108.8 655.31 108.8C656.59 108.8 657.71 108.98 658.68 109.36C659.65 109.72 660.37 110.23 660.83 110.86C661.29 111.5 661.61 112.34 661.78 113.4L659.07 113.78C658.95 112.93 658.59 112.26 658 111.78C657.41 111.31 656.58 111.07 655.51 111.07C654.24 111.07 653.33 111.28 652.79 111.7C652.25 112.12 651.98 112.61 651.98 113.18C651.98 113.53 652.09 113.86 652.31 114.15C652.54 114.44 652.89 114.69 653.37 114.88C653.65 114.99 654.46 115.23 655.82 115.59C657.77 116.11 659.14 116.54 659.91 116.87C660.69 117.21 661.3 117.69 661.74 118.32C662.19 118.96 662.41 119.75 662.41 120.69C662.41 121.61 662.14 122.48 661.6 123.29C661.06 124.11 660.28 124.74 659.27 125.19C658.25 125.63 657.1 125.85 655.82 125.85C653.69 125.85 652.07 125.41 650.96 124.53C649.84 123.65 649.13 122.35 648.83 120.62Z" />
		<path id="&lt;Path&gt;" class="shp2" d="M674.44 125.51L674.44 102.94L677.22 102.94L677.22 111.06C678.51 109.55 680.13 108.8 682.09 108.8C683.3 108.8 684.34 109.04 685.24 109.51C686.12 109.99 686.76 110.65 687.14 111.49C687.53 112.33 687.71 113.55 687.71 115.15L687.71 125.51L684.94 125.51L684.94 115.16C684.94 113.78 684.64 112.77 684.05 112.14C683.45 111.51 682.61 111.2 681.52 111.2C680.7 111.2 679.93 111.41 679.21 111.83C678.5 112.26 677.99 112.83 677.68 113.57C677.37 114.29 677.22 115.29 677.22 116.57L677.22 125.51L674.44 125.51Z" />
		<path id="&lt;Compound Path&gt;" fill-rule="evenodd" class="shp2" d="M703.13 120.21L706 120.59C705.56 122.25 704.72 123.55 703.5 124.47C702.28 125.39 700.73 125.85 698.83 125.85C696.45 125.85 694.56 125.12 693.16 123.65C691.76 122.18 691.06 120.12 691.06 117.46C691.06 114.72 691.77 112.59 693.18 111.07C694.59 109.56 696.43 108.8 698.68 108.8C700.86 108.8 702.64 109.54 704.02 111.03C705.4 112.51 706.1 114.6 706.1 117.3C706.1 117.46 706.09 117.71 706.08 118.04L693.9 118.04C694 119.83 694.51 121.2 695.42 122.15C696.33 123.1 697.47 123.58 698.83 123.58C699.84 123.58 700.71 123.32 701.43 122.78C702.15 122.24 702.71 121.39 703.13 120.21ZM694.06 115.77L703.17 115.77C703.04 114.39 702.69 113.36 702.12 112.67C701.24 111.61 700.1 111.07 698.69 111.07C697.42 111.07 696.36 111.5 695.49 112.35C694.63 113.2 694.15 114.34 694.06 115.77Z" />
		<path id="&lt;Path&gt;" class="shp2" d="M709.48 125.51L709.48 109.15L711.96 109.15L711.96 111.65C712.6 110.49 713.19 109.72 713.73 109.36C714.27 108.98 714.86 108.8 715.51 108.8C716.45 108.8 717.4 109.09 718.36 109.68L717.37 112.24C716.7 111.86 716.03 111.67 715.36 111.67C714.75 111.67 714.21 111.85 713.74 112.21C713.26 112.58 712.92 113.08 712.71 113.73C712.4 114.71 712.25 115.79 712.25 116.96L712.25 125.51L709.48 125.51Z" />
		<path id="&lt;Compound Path&gt;" fill-rule="evenodd" class="shp2" d="M731.16 120.21L734.03 120.59C733.58 122.25 732.75 123.55 731.53 124.47C730.31 125.39 728.75 125.85 726.86 125.85C724.47 125.85 722.58 125.12 721.18 123.65C719.79 122.18 719.09 120.12 719.09 117.46C719.09 114.72 719.79 112.59 721.21 111.07C722.62 109.56 724.45 108.8 726.71 108.8C728.89 108.8 730.67 109.54 732.05 111.03C733.43 112.51 734.12 114.6 734.12 117.3C734.12 117.46 734.12 117.71 734.11 118.04L721.93 118.04C722.03 119.83 722.54 121.2 723.45 122.15C724.36 123.1 725.5 123.58 726.86 123.58C727.87 123.58 728.74 123.32 729.45 122.78C730.17 122.24 730.74 121.39 731.16 120.21ZM722.08 115.77L731.19 115.77C731.07 114.39 730.72 113.36 730.15 112.67C729.27 111.61 728.12 111.07 726.72 111.07C725.45 111.07 724.38 111.5 723.52 112.35C722.66 113.2 722.18 114.34 722.08 115.77Z" />
		<path id="&lt;Path&gt;" class="shp2" d="M738.32 125.51L738.32 122.35L741.47 122.35L741.47 125.51L738.32 125.51Z" />
	</g>
</svg>