<svg width="342" height="172" viewBox="0 0 342 172" fill="none" xmlns="http://www.w3.org/2000/svg">
<g clip-path="url(#clip0)">
<path d="M319.229 112.188C313.207 115.643 305.522 113.566 302.065 107.547C298.607 101.528 300.686 93.8461 306.708 90.3906C312.73 86.935 320.415 89.0126 323.872 95.0314C327.33 101.05 325.251 108.73 319.229 112.188ZM340.898 93.532L337.836 88.2012L333.04 88.9047L329.079 83.9324L331.121 78.9813L325.774 75.4352L321.78 79.4574L316.523 78.5381L314.393 72.3574L308.002 73.032L307.641 78.4379L302.88 80.8546L297.84 77.2892L292.729 81.0088L295.385 86.7308L292.344 91.3099L286.815 91.0169L285.373 97.8297L290.631 99.8533L291.085 105.577L285.633 108.707L288.238 114.614L293.881 113.739L297.62 118.052L295.664 123.425L300.834 127.076L304.868 122.712L310.465 124.225L312.206 129.999L318.427 129.579L319.229 124.393L324.563 121.332L328.927 124.815L334.444 120.702L331.653 115.846L334.374 110.979L339.968 111.39L341.685 105.049L336.881 102.451L336.243 96.6753" fill="#F5F5F5"/>
<path d="M49.566 156.48C59.0227 148.313 59.9714 134.864 58.3419 123.033C58.07 121.058 58.0739 118.945 56.9497 117.303C55.8274 115.663 53.5037 114.7 51.8145 115.719C50.4126 116.563 49.9478 118.342 49.2691 119.844C48.3685 121.84 46.8952 123.567 45.0768 124.762C43.8812 125.548 42.3598 126.109 41.0427 125.55C39.2358 124.783 38.7904 122.443 38.5976 120.47C38.2427 116.793 37.886 113.116 37.5292 109.44C37.3383 107.469 37.1359 105.455 36.3298 103.647C35.5238 101.839 33.9888 100.242 32.0585 99.9101C30.1263 99.5787 27.9183 100.899 27.7217 102.868C27.6387 103.688 27.8894 104.505 27.9183 105.33C27.9492 106.152 27.6599 107.097 26.906 107.405C26.1423 107.717 25.2958 107.241 24.6459 106.725C22.4052 104.944 20.7603 102.522 19.2061 100.105C17.6518 97.688 16.1284 95.2077 14.0574 93.2265C11.9863 91.2472 9.25383 89.7902 6.41144 89.9213C3.57098 90.0523 0.740162 92.1048 0.313997 94.9494C-0.116026 97.8037 1.7969 100.456 3.79467 102.523C6.75855 105.592 10.1621 108.222 13.8626 110.311C14.5298 110.689 15.2529 111.096 15.5673 111.801C16.1303 113.071 15.0196 114.505 13.7662 115.07C12.3469 115.712 10.7348 115.723 9.21527 116.062C7.69765 116.403 6.10098 117.251 5.66903 118.764C5.06931 120.863 6.97259 122.8 8.7756 124.012C12.3816 126.44 16.4022 128.237 20.6022 129.302C22.1082 129.684 23.6818 129.99 24.9564 130.889C26.233 131.787 27.1219 133.486 26.5589 134.947C25.9938 136.41 24.2256 137.042 22.6771 136.917C21.1286 136.792 19.6824 136.107 18.1782 135.71C15.3628 134.967 11.8802 135.516 10.3858 138.035C9.40424 139.692 9.52573 141.845 10.2913 143.62C11.0568 145.395 12.3913 146.854 13.7835 148.184C18.6545 152.83 24.6401 156.357 31.1522 157.887C37.6642 159.419 43.5515 159.408 49.566 156.48Z" fill="#F5F5F5"/>
<path d="M50.6303 165.268C49.7144 160.608 48.108 155.159 45.7304 149.353C43.3624 143.542 40.2384 137.387 36.7501 131.059C35.8727 129.483 35.0068 127.922 34.1506 126.386C33.2945 124.854 32.444 123.333 31.5223 121.899C29.6884 119.02 27.7061 116.391 25.745 113.957C23.7858 111.519 21.8381 109.278 20.0004 107.196C18.1588 105.117 16.404 103.211 14.7321 101.542C11.3961 98.1904 8.39172 95.8102 6.26089 94.2607C5.19837 93.4821 4.35183 92.9059 3.77525 92.5224C3.49757 92.3412 3.27966 92.1967 3.11575 92.0907C2.96534 91.9943 2.88628 91.95 2.88435 91.9538C2.87857 91.9596 2.95184 92.0155 3.09454 92.1215C3.25267 92.2371 3.46479 92.3894 3.73283 92.5841C4.29783 92.9849 5.12895 93.5804 6.17798 94.3764C8.27988 95.9586 11.2476 98.3619 14.5509 101.727C16.2073 103.402 17.9467 105.312 19.7748 107.399C21.6009 109.488 23.537 111.733 25.4866 114.171C27.4323 116.605 29.403 119.228 31.2215 122.094C32.1374 123.522 32.9782 125.029 33.8363 126.565C34.6906 128.101 35.5564 129.66 36.4338 131.239C39.9183 137.56 43.0423 143.696 45.4199 149.484C47.8072 155.265 49.4328 160.683 50.3777 165.32" fill="#E0E0E0"/>
<path d="M31.416 121.896C31.441 121.898 31.4777 121.592 31.522 121.035C31.5702 120.48 31.6127 119.674 31.6493 118.678C31.7245 116.687 31.7361 113.933 31.738 110.897C31.738 107.858 31.7901 105.112 31.8961 103.129C31.9463 102.136 31.9945 101.332 32.0369 100.779C32.0735 100.222 32.0832 99.914 32.0581 99.9102C32.033 99.9082 31.9771 100.211 31.8942 100.764C31.8093 101.313 31.7226 102.117 31.6396 103.109C31.4661 105.098 31.3735 107.854 31.3735 110.895C31.3793 113.89 31.387 116.6 31.3909 118.672C31.387 119.607 31.3832 120.397 31.3793 121.029C31.3793 121.586 31.3909 121.894 31.416 121.896Z" fill="#E0E0E0"/>
<path d="M5.56886 119.774C5.57078 119.799 5.93524 119.804 6.59281 119.789C7.25038 119.781 8.19913 119.762 9.37349 119.777C11.7222 119.789 14.9657 119.918 18.5389 120.215C22.1122 120.521 25.3325 120.936 27.6543 121.302C28.8171 121.475 29.7542 121.643 30.4022 121.755C31.0501 121.868 31.4107 121.92 31.4165 121.895C31.4223 121.87 31.0713 121.772 30.4292 121.614C29.789 121.46 28.8576 121.254 27.6967 121.044C25.3788 120.61 22.1508 120.153 18.5679 119.847C14.985 119.55 11.7261 119.459 9.37156 119.517C8.19334 119.535 7.24266 119.592 6.5851 119.646C5.92946 119.704 5.56693 119.747 5.56886 119.774Z" fill="#E0E0E0"/>
<path d="M45.3699 148.919C45.3815 148.923 45.4317 148.811 45.5126 148.592C45.6033 148.333 45.7151 148.015 45.852 147.632C46.1413 146.795 46.5308 145.573 46.9917 144.059C47.9154 141.029 49.0589 136.805 50.2602 132.125C51.4597 127.444 52.5627 123.214 53.4227 120.171C53.845 118.69 54.1922 117.472 54.4506 116.567C54.5605 116.174 54.6511 115.85 54.7244 115.584C54.7842 115.36 54.8092 115.239 54.7957 115.235C54.7842 115.231 54.7359 115.343 54.655 115.563C54.5624 115.821 54.4506 116.139 54.3156 116.522C54.0244 117.359 53.6368 118.581 53.174 120.095C52.2522 123.125 51.1068 127.35 49.9074 132.031C48.706 136.71 47.603 140.938 46.7449 143.984C46.3206 145.464 45.9754 146.682 45.717 147.587C45.6071 147.981 45.5165 148.304 45.4413 148.568C45.3834 148.796 45.3584 148.915 45.3699 148.919Z" fill="#E0E0E0"/>
<path d="M10.5513 141.541C10.5494 141.552 10.6689 141.589 10.9003 141.643C11.1722 141.704 11.5078 141.78 11.9127 141.87C12.848 142.071 14.1072 142.34 15.6421 142.668C18.7911 143.341 23.1299 144.322 27.9199 145.41C32.7158 146.501 37.0661 147.442 40.2286 148.049C41.8118 148.355 43.0941 148.587 43.9831 148.731C44.3938 148.795 44.7313 148.847 45.0071 148.889C45.2423 148.922 45.3677 148.933 45.3696 148.92C45.3715 148.908 45.252 148.872 45.0206 148.816C44.7487 148.756 44.4151 148.681 44.0082 148.59C43.0749 148.39 41.8137 148.122 40.2807 147.793C37.1317 147.12 32.7929 146.141 27.999 145.05C23.2071 143.961 18.8548 143.019 15.6923 142.412C14.111 142.107 12.8287 141.872 11.9378 141.729C11.529 141.666 11.1896 141.614 10.9138 141.571C10.6786 141.539 10.5532 141.529 10.5513 141.541Z" fill="#E0E0E0"/>
<path d="M273.718 74.5732C273.693 74.5405 274.3 74.2495 275.149 73.4265C275.579 73.0237 276.03 72.4494 276.439 71.7229C276.844 70.9944 277.181 70.0886 277.311 69.0459C277.436 68.0091 277.37 66.8315 276.95 65.6713C276.526 64.5227 275.814 63.3606 274.74 62.4837C274.217 62.0327 273.606 61.6569 272.945 61.3717C272.285 61.0768 271.564 60.8783 270.816 60.8031C269.323 60.6181 267.727 60.9457 266.338 61.7263C264.963 62.5319 263.876 63.7441 263.282 65.1259C262.969 65.8101 262.777 66.5328 262.699 67.2497C262.613 67.9667 262.628 68.6817 262.755 69.362C262.971 70.7303 263.615 71.931 264.396 72.8754C265.187 73.8236 266.172 74.473 267.131 74.8893C268.095 75.3017 269.049 75.4675 269.883 75.4868C270.718 75.5003 271.441 75.4 272.006 75.2324C273.143 74.9124 273.701 74.5366 273.718 74.5732C273.72 74.5771 273.685 74.6002 273.616 74.6407C273.533 74.687 273.431 74.7428 273.303 74.8142C273.168 74.8912 272.995 74.9818 272.779 75.0608C272.567 75.1476 272.324 75.2555 272.033 75.3287C271.464 75.5137 270.731 75.6294 269.881 75.6294C269.03 75.6255 268.053 75.4694 267.059 75.0551C266.072 74.6426 265.054 73.9835 264.232 73.0141C263.424 72.0486 262.753 70.8151 262.522 69.4025C262.387 68.701 262.368 67.9628 262.456 67.2208C262.534 66.4788 262.73 65.7311 263.05 65.0238C263.662 63.5938 264.786 62.3372 266.209 61.5027C267.648 60.6952 269.3 60.3579 270.845 60.5526C271.616 60.6335 272.362 60.8397 273.043 61.1462C273.728 61.4449 274.356 61.8342 274.892 62.3025C275.997 63.2141 276.724 64.4167 277.15 65.6C277.575 66.7988 277.631 68.0091 277.492 69.0691C277.347 70.1348 276.988 71.058 276.564 71.7942C276.136 72.5284 275.666 73.1008 275.218 73.4998C275.01 73.7137 274.794 73.8698 274.613 74.0086C274.433 74.155 274.27 74.2591 274.133 74.3381C274.009 74.4114 273.909 74.4711 273.826 74.5193C273.757 74.5598 273.72 74.5771 273.718 74.5732Z" fill="#E0E0E0"/>
<path d="M286.599 63.482C286.599 63.482 286.547 63.5244 286.433 63.6034C286.311 63.6882 286.14 63.8077 285.916 63.9638C285.446 64.2876 284.757 64.7617 283.855 65.3842L283.87 65.3476C283.978 66.2804 284.111 67.4348 284.265 68.78L284.238 68.7376C285.083 69.1905 286.047 69.7089 287.098 70.2736L287.144 70.2967L287.131 70.3488C286.826 71.4858 286.487 72.7559 286.12 74.1204L286.105 74.1801L286.041 74.1762C285.004 74.1011 283.885 74.0221 282.715 73.9392L282.794 73.8968C282.295 74.7949 281.749 75.7759 281.182 76.7934V76.7048C281.697 77.5971 282.262 78.5781 282.846 79.5899L282.889 79.6631L282.821 79.7132C281.803 80.4745 280.69 81.3051 279.543 82.1627L279.481 82.209L279.419 82.1608C278.617 81.5229 277.73 80.8175 276.822 80.0948L276.941 80.1044C275.962 80.6672 274.878 81.2916 273.771 81.9276L273.825 81.8486C273.681 82.8006 273.517 83.8568 273.351 84.9322L273.337 85.0227L273.247 85.0285C272.101 85.1056 270.834 85.1923 269.55 85.281L269.456 85.2868L269.429 85.1981C269.107 84.1324 268.752 82.9567 268.391 81.7657L268.474 81.8467C267.439 81.5672 266.301 81.2608 265.146 80.9505L265.267 80.9139C264.519 81.7252 263.699 82.6118 262.87 83.5099L262.797 83.5889L262.708 83.5272C261.744 82.8469 260.695 82.1068 259.635 81.3591L259.555 81.3032L259.588 81.2126C259.953 80.2104 260.35 79.1177 260.749 78.0172L260.772 78.1444C260.072 77.3369 259.314 76.462 258.549 75.5812L258.667 75.6236C257.608 75.7874 256.462 75.9647 255.311 76.144L255.213 76.1594L255.174 76.0688C254.683 74.9549 254.154 73.76 253.624 72.5574L253.578 72.4514L253.678 72.3936C253.699 72.3801 253.722 72.3666 253.747 72.3531C254.812 71.7421 255.868 71.137 256.919 70.5338L256.856 70.6552C256.765 69.5123 256.676 68.3772 256.586 67.2517L256.669 67.3596C255.616 66.9549 254.575 66.554 253.543 66.157L253.441 66.1185L253.462 66.0125C253.753 64.6461 254.038 63.2951 254.324 61.9614L254.345 61.8554L254.453 61.8612C255.56 61.9209 256.655 61.9807 257.739 62.0385L257.627 62.0925C258.24 61.1732 258.842 60.2674 259.438 59.3712L259.43 59.4907C258.894 58.3363 258.37 57.2031 257.853 56.0872L257.81 55.9986L257.889 55.9407C258.923 55.1891 259.935 54.4529 260.932 53.7302L261 53.6801L261.069 53.7302C262.085 54.4491 263.082 55.1563 264.062 55.8521L263.944 55.8444C264.912 55.3529 265.853 54.8769 266.777 54.4086L266.715 54.5011C266.791 53.3949 266.864 52.331 266.935 51.2865L266.941 51.1978L267.032 51.1882C268.345 51.0513 269.606 50.9203 270.831 50.7931L270.912 50.7834L270.937 50.8605C271.378 52.1441 271.797 53.3621 272.2 54.5358L272.124 54.4722C273.235 54.6688 274.259 54.8499 275.25 55.0253L275.169 55.0523C276.024 54.1927 276.803 53.4122 277.547 52.6644L277.597 52.6162L277.655 52.6529C278.81 53.4257 279.851 54.1195 280.827 54.769L280.879 54.8037L280.856 54.8596C280.395 55.9677 280.002 56.9159 279.633 57.8005L279.624 57.735C280.53 58.8798 281.296 59.8472 281.969 60.6991L281.92 60.6798C283.108 60.5121 284.007 60.383 284.774 60.2751L284.8 60.2712L284.813 60.2944C285.422 61.3755 285.872 62.1715 286.172 62.7073C286.317 62.9636 286.423 63.1563 286.5 63.2912C286.57 63.4203 286.599 63.482 286.599 63.482C286.599 63.482 286.556 63.4165 286.479 63.2874C286.398 63.1525 286.284 62.9597 286.134 62.7034C285.825 62.1792 285.366 61.3948 284.746 60.3329L284.786 60.3522C284.02 60.4678 283.122 60.6046 281.936 60.7839L281.905 60.7877L281.886 60.7646C281.207 59.9166 280.436 58.9549 279.522 57.8159L279.497 57.787L279.512 57.7504C279.876 56.862 280.264 55.9118 280.717 54.8037L280.744 54.8942C279.767 54.2467 278.721 53.5587 277.56 52.7916L277.667 52.782C276.924 53.5317 276.149 54.3161 275.299 55.1775L275.266 55.2122L275.218 55.2045C274.228 55.033 273.202 54.8557 272.092 54.663L272.036 54.6533L272.018 54.5994C271.612 53.4257 271.189 52.2096 270.746 50.928L270.852 50.9954C269.627 51.1265 268.366 51.2614 267.053 51.4002L267.149 51.3019C267.08 52.3445 267.01 53.4083 266.937 54.5146L266.933 54.5782L266.877 54.6071C265.956 55.0754 265.015 55.5553 264.049 56.0467L263.987 56.0776L263.931 56.0371C262.949 55.3452 261.95 54.6398 260.932 53.921L261.069 53.9191C260.074 54.6437 259.064 55.3818 258.032 56.1335L258.071 55.987C258.589 57.1009 259.116 58.2341 259.652 59.3866L259.681 59.4483L259.642 59.5061C259.048 60.4042 258.445 61.31 257.835 62.2312L257.795 62.2891L257.725 62.2852C256.642 62.2293 255.546 62.1715 254.44 62.1137L254.569 62.0135C254.287 63.349 254.002 64.6981 253.713 66.0645L253.634 65.92C254.667 66.317 255.708 66.7178 256.759 67.1206L256.835 67.1515L256.842 67.2305C256.931 68.356 257.02 69.4911 257.11 70.634L257.116 70.7149L257.047 70.7554C255.998 71.3586 254.939 71.9657 253.876 72.5766C253.851 72.5901 253.826 72.6036 253.805 72.6171L253.859 72.4533C254.391 73.6559 254.916 74.8508 255.408 75.9647L255.271 75.8896C256.424 75.7123 257.567 75.535 258.626 75.3711L258.697 75.3596L258.742 75.4135C259.507 76.2943 260.265 77.1712 260.965 77.9768L261.013 78.0346L260.988 78.104C260.587 79.2044 260.19 80.2972 259.825 81.2993L259.779 81.1528C260.84 81.9025 261.889 82.6445 262.851 83.3248L262.689 83.3403C263.518 82.4441 264.34 81.5576 265.088 80.7481L265.138 80.6942L265.211 80.7134C266.363 81.0256 267.502 81.3359 268.538 81.6154L268.601 81.6327L268.621 81.6963C268.979 82.8893 269.332 84.0649 269.654 85.1307L269.533 85.0478C270.819 84.9611 272.084 84.8782 273.231 84.8011L273.127 84.8975C273.295 83.824 273.459 82.7659 273.607 81.8139L273.617 81.7619L273.661 81.7349C274.77 81.1008 275.854 80.4822 276.835 79.9194L276.897 79.8828L276.955 79.9291C277.861 80.6537 278.746 81.3629 279.547 82.0008L279.421 81.9989C280.571 81.1451 281.685 80.3184 282.705 79.559L282.68 79.6843C282.1 78.6706 281.537 77.6877 281.026 76.7934L281.001 76.751L281.026 76.7067C281.595 75.6891 282.144 74.7101 282.647 73.8139L282.674 73.7677L282.727 73.7715C283.897 73.8602 285.015 73.945 286.053 74.024L285.974 74.0799C286.346 72.7193 286.693 71.4492 287.004 70.3141L287.036 70.3892C285.989 69.8168 285.027 69.2926 284.186 68.8339L284.161 68.8205L284.157 68.7915C284.015 67.4463 283.893 66.29 283.793 65.3553L283.791 65.3322L283.81 65.3187C284.717 64.7193 285.409 64.2606 285.879 63.9484C286.111 63.7962 286.288 63.6805 286.414 63.5996C286.535 63.5206 286.599 63.482 286.599 63.482Z" fill="#E0E0E0"/>
<path d="M313.997 98.5469L286.832 166.42H210.591L234.811 97.6219C234.988 97.1227 235.459 96.7893 235.989 96.7893L312.842 96.8394C313.723 96.8394 314.325 97.7298 313.997 98.5469Z" fill="#192E35"/>
<path d="M309.818 100.504L284.874 161.314C284.766 161.576 284.504 161.75 284.213 161.75H214.758C214.266 161.75 213.923 161.276 214.087 160.825L236.185 100.015C236.288 99.737 236.556 99.552 236.857 99.552H309.156C309.659 99.552 310.005 100.047 309.818 100.504Z" fill="#3C6A7A"/>
<path d="M286.832 166.525H183.216V161.751H284.017L286.832 166.525Z" fill="#192E35"/>
<path d="M208.16 101.177C208.16 101.177 206.073 125.987 201.573 127.193C189.329 130.481 175.326 128.047 170.407 127.083C169.855 126.609 169.219 126.035 168.499 125.324C167.882 124.713 167.379 123.992 166.997 123.206C166.534 122.252 165.971 120.955 165.877 120.149C165.759 119.151 164.519 118.817 164.082 119.613C163.644 120.411 163.457 123.443 165.109 126.202C165.109 126.202 165.64 127.444 164.209 127.972C162.128 128.739 154.802 131.013 153.622 131.574C152.571 132.073 151.551 132.965 152.658 133.144C153.765 133.322 159.814 132.454 159.814 132.454C159.814 132.454 151.862 133.433 152.058 134.586C152.193 135.38 154.336 135.76 159.531 134.59C159.531 134.59 152.986 135.445 152.301 136.132C150.755 137.679 158.642 136.727 158.642 136.727C153.123 137.442 153.179 137.155 153.121 137.91C153.076 138.477 154.324 138.706 157.355 138.743C159.814 138.772 162.356 139.294 166.097 139.543C166.097 139.543 213.411 152.922 219.919 132.109C223.428 120.891 223.45 116.622 224.663 109.27" fill="#FFBF9C"/>
<path d="M161.973 136.372C161.994 136.511 160.309 136.8 158.211 137.02C156.112 137.237 154.404 137.303 154.396 137.164C154.389 137.023 156.072 136.734 158.158 136.517C160.243 136.299 161.952 136.235 161.973 136.372Z" fill="#B56955"/>
<path d="M161.921 134.225C161.944 134.362 160.166 134.773 157.953 135.139C155.737 135.507 153.922 135.694 153.901 135.555C153.878 135.418 155.654 135.008 157.87 134.642C160.083 134.273 161.898 134.087 161.921 134.225Z" fill="#B56955"/>
<path d="M161.856 131.996C161.881 132.133 160.205 132.549 158.115 132.925C156.024 133.301 154.308 133.494 154.283 133.357C154.26 133.22 155.934 132.804 158.026 132.428C160.116 132.052 161.831 131.859 161.856 131.996Z" fill="#B56955"/>
<path d="M269.565 143.523L272.641 161.427H224.662L226.499 147.514L269.565 143.523Z" fill="#192E35"/>
<path d="M213.017 82.0269C213.017 82.0269 206.042 102.96 206.489 103.797L221.839 107.355" fill="#E63946"/>
<path d="M226.168 121.347L224.662 151.311L271.014 146.067L263.759 117.105C263.759 117.105 258.773 83.5285 249.684 79.807C246.175 78.3693 242.821 77.4885 240.043 76.7003C234.252 75.0583 228.191 74.6112 222.223 75.382L221.289 75.5035C217.419 76.0045 214.183 78.5312 213.017 82.0252C213.017 82.0252 212.853 92.3379 216.025 99.1661" fill="#E63946"/>
<path d="M237.142 160.86C237.073 160.86 236.969 158.424 236.913 155.419C236.857 152.411 236.869 149.973 236.94 149.973C237.011 149.971 237.114 152.407 237.171 155.413C237.225 158.42 237.214 160.858 237.142 160.86Z" fill="#375964"/>
<path d="M239.693 151.344C239.686 151.333 239.745 151.265 239.894 151.213C240.042 151.161 240.289 151.15 240.549 151.277C240.806 151.39 241.084 151.71 241.059 152.119C241.043 152.508 240.787 152.936 240.337 153.086C239.888 153.225 239.437 153.04 239.176 152.763C238.903 152.476 238.849 152.096 238.893 151.822C238.995 151.25 239.35 151.059 239.354 151.086C239.391 151.113 239.115 151.344 239.074 151.841C239.057 152.082 239.122 152.381 239.348 152.597C239.562 152.813 239.93 152.946 240.26 152.842C240.586 152.736 240.8 152.402 240.821 152.105C240.852 151.801 240.669 151.556 240.465 151.437C240.031 151.182 239.701 151.387 239.693 151.344Z" fill="#375964"/>
<path d="M270.328 154.274C270.334 154.282 270.27 154.332 270.145 154.42C270.017 154.505 269.84 154.646 269.585 154.789C269.092 155.097 268.336 155.484 267.35 155.831C266.367 156.18 265.141 156.456 263.758 156.525C262.377 156.596 260.84 156.434 259.313 155.951C257.792 155.451 256.449 154.684 255.37 153.821C254.288 152.958 253.453 152.019 252.859 151.16C252.261 150.304 251.875 149.548 251.654 149.011C251.532 148.747 251.47 148.527 251.416 148.384C251.366 148.24 251.345 148.163 251.353 148.159C251.374 148.151 251.496 148.448 251.744 148.968C251.993 149.491 252.398 150.223 253.007 151.055C253.611 151.886 254.446 152.798 255.518 153.636C256.584 154.474 257.903 155.216 259.392 155.706C260.887 156.178 262.391 156.344 263.748 156.288C265.106 156.234 266.317 155.981 267.294 155.66C268.272 155.34 269.03 154.981 269.537 154.702C270.044 154.426 270.316 154.255 270.328 154.274Z" fill="#375964"/>
<path d="M232.905 95.3408C232.917 95.3543 232.722 95.547 232.354 95.8785C231.981 96.2061 231.44 96.6822 230.697 97.1794C229.959 97.667 228.985 98.1912 227.783 98.3261C226.582 98.4687 225.271 98.1122 224.031 97.5706C222.783 97.0252 221.665 96.3892 220.573 95.9961C219.488 95.5856 218.439 95.4468 217.575 95.5702C216.707 95.6762 216.059 96.0096 215.673 96.3025C215.286 96.5993 215.124 96.8267 215.105 96.8094C215.097 96.8036 215.133 96.7458 215.213 96.6398C215.29 96.5338 215.419 96.3873 215.612 96.2235C215.99 95.8978 216.651 95.5239 217.548 95.3909C218.439 95.2367 219.542 95.3659 220.652 95.7725C221.773 96.1638 222.905 96.7978 224.133 97.3355C225.356 97.8694 226.617 98.2124 227.76 98.0891C228.906 97.9754 229.86 97.4878 230.599 97.0252C231.341 96.5569 231.899 96.1059 232.288 95.8034C232.678 95.495 232.894 95.3273 232.905 95.3408Z" fill="#FAFAFA"/>
<path d="M220.746 83.6238C220.765 83.6431 220.462 83.9881 219.859 84.4101C219.257 84.8322 218.331 85.2967 217.228 85.5395C216.123 85.7785 215.088 85.7419 214.365 85.6089C213.64 85.4778 213.221 85.2909 213.231 85.2658C213.242 85.2234 213.676 85.3487 214.39 85.4296C215.103 85.5144 216.104 85.5202 217.172 85.289C218.241 85.0538 219.147 84.6298 219.76 84.2579C220.375 83.884 220.717 83.593 220.746 83.6238Z" fill="#FAFAFA"/>
<path d="M262.655 111.849C262.661 111.857 262.551 111.951 262.333 112.124C262.105 112.281 261.762 112.512 261.272 112.714C260.298 113.127 258.736 113.373 256.864 113.117C255.927 112.996 254.924 112.755 253.854 112.491C252.784 112.232 251.64 111.945 250.417 111.826C249.197 111.722 247.899 111.801 246.595 112.101C245.288 112.394 243.979 112.874 242.66 113.414C240.029 114.506 237.54 115.696 235.085 116.204C232.632 116.769 230.33 116.466 228.513 116.037C226.681 115.595 225.26 115.046 224.281 114.676C223.81 114.491 223.436 114.341 223.158 114.231C222.904 114.125 222.771 114.065 222.774 114.056C222.778 114.048 222.917 114.092 223.178 114.183C223.459 114.281 223.837 114.416 224.315 114.584C225.304 114.923 226.731 115.445 228.554 115.859C230.364 116.262 232.626 116.542 235.035 115.973C237.449 115.46 239.919 114.275 242.561 113.177C243.886 112.633 245.211 112.149 246.539 111.857C247.866 111.552 249.195 111.477 250.441 111.591C251.688 111.718 252.837 112.016 253.904 112.284C254.972 112.556 255.967 112.805 256.889 112.938C258.734 113.211 260.267 112.997 261.235 112.622C262.209 112.24 262.635 111.82 262.655 111.849Z" fill="#FAFAFA"/>
<path d="M225.919 130.196C225.913 130.194 225.936 130.161 225.983 130.1C226.041 130.029 226.11 129.94 226.195 129.834C226.399 129.614 226.704 129.288 227.18 128.97C227.653 128.649 228.281 128.325 229.06 128.092C229.841 127.87 230.765 127.724 231.787 127.758C233.852 127.791 236.18 128.645 238.619 129.73C239.848 130.262 241.128 130.836 242.511 131.27C243.889 131.696 245.382 132 246.905 131.881C248.429 131.767 249.838 131.189 251.105 130.493C252.378 129.801 253.547 129.013 254.727 128.365C255.899 127.708 257.101 127.205 258.286 126.976C259.474 126.758 260.614 126.808 261.619 126.995C263.636 127.392 265.076 128.325 265.925 129.071C266.777 129.828 267.111 130.372 267.111 130.372C267.107 130.375 267.08 130.348 267.026 130.293C266.964 130.225 266.891 130.142 266.798 130.042C266.704 129.926 266.573 129.799 266.415 129.649C266.266 129.491 266.075 129.327 265.859 129.148C265.003 128.433 263.568 127.54 261.584 127.172C260.599 127.001 259.482 126.962 258.327 127.186C257.174 127.417 256.001 127.916 254.842 128.573C253.676 129.217 252.513 130.011 251.225 130.713C249.948 131.42 248.498 132.019 246.925 132.137C245.355 132.258 243.83 131.944 242.435 131.509C241.035 131.067 239.747 130.483 238.523 129.946C236.093 128.849 233.804 127.993 231.783 127.939C230.779 127.895 229.87 128.026 229.101 128.23C228.331 128.446 227.709 128.749 227.236 129.053C226.289 129.67 225.948 130.227 225.919 130.196Z" fill="#FAFAFA"/>
<path d="M267.782 146.002C267.744 146.021 267.594 145.362 266.909 144.41C266.226 143.473 264.898 142.288 262.89 141.658C261.897 141.332 260.752 141.16 259.523 141.208C258.295 141.249 256.991 141.498 255.667 141.9C254.342 142.311 252.994 142.874 251.621 143.512C250.248 144.151 248.846 144.861 247.367 145.508C245.89 146.156 244.397 146.699 242.897 147.013C241.397 147.31 239.912 147.395 238.512 147.3C235.702 147.119 233.271 146.341 231.292 145.622C229.314 144.872 227.765 144.148 226.699 143.646C226.165 143.392 225.754 143.192 225.476 143.051C225.351 142.987 225.247 142.933 225.162 142.889C225.093 142.852 225.058 142.831 225.06 142.827C225.062 142.823 225.1 142.837 225.174 142.866C225.26 142.904 225.368 142.949 225.5 143.005C225.802 143.14 226.217 143.323 226.741 143.554C227.819 144.03 229.377 144.728 231.354 145.45C233.333 146.146 235.753 146.9 238.527 147.063C239.91 147.152 241.37 147.061 242.847 146.769C244.32 146.454 245.795 145.915 247.265 145.273C248.734 144.631 250.136 143.922 251.515 143.284C252.894 142.644 254.255 142.081 255.599 141.675C256.939 141.272 258.264 141.027 259.516 140.996C260.767 140.956 261.942 141.141 262.946 141.486C264.986 142.149 266.323 143.382 266.99 144.35C267.324 144.841 267.524 145.26 267.636 145.551C267.682 145.685 267.719 145.795 267.752 145.886C267.777 145.961 267.786 146.002 267.782 146.002Z" fill="#FAFAFA"/>
<path d="M198.461 150.567C199.115 150.972 200.417 151.307 201.404 151.519C202.218 151.694 203.057 151.737 203.882 151.629C204.268 151.579 204.632 151.525 204.974 151.471C206.566 151.215 208.047 150.517 209.266 149.459C214.613 144.82 229.084 130.146 231.67 126.825C234.778 122.832 235.65 96.4482 235.65 96.4482L253.013 99.289C253.013 99.289 252.702 118.307 248.429 133.1C245.712 142.509 212.876 161.866 212.847 161.884C210.413 164.551 207.677 167.434 205.997 168.843C202.498 171.774 202.229 171.464 201.958 171C201.227 169.749 207.918 165.607 205.965 165.665C204.009 165.721 198.369 171.68 197.659 170.34C196.734 168.596 203.818 164.391 204.391 163.99C204.948 163.601 204.407 162.749 203.907 163.138C203.192 163.695 195.523 169.385 194.597 167.681C194.084 166.735 195.868 165.971 195.868 165.971C195.868 165.971 203.435 161.178 202.97 160.388C202.499 159.586 197.962 162.252 196.496 163.258C195.048 164.252 193.984 163.969 194.076 162.961C194.14 162.275 198.558 159.085 200.031 158.124C201.504 157.162 205.593 154.595 202.548 154.221C199.503 153.847 197.303 152.413 196.977 151.612C196.653 150.81 197.65 150.066 198.461 150.567Z" fill="#FFBF9C"/>
<path d="M242.202 79.2564C245.558 78.5491 249.048 79.69 251.327 82.0624C253.35 84.1708 255.384 87.6938 255.213 93.2847C254.875 104.193 254.013 107.914 254.013 107.914L232.613 107.172L233.451 88.8463C233.451 88.8463 235.106 80.7481 242.202 79.2564Z" fill="#E63946"/>
<path d="M254.823 101.558C254.802 101.579 254.58 101.338 254.1 101.001C253.624 100.665 252.866 100.266 251.855 100.002C250.849 99.7517 249.584 99.6341 248.23 99.877C246.878 100.131 245.463 100.738 243.997 101.384C242.528 102.032 241.116 102.664 239.739 102.988C238.365 103.304 237.076 103.315 236.024 103.167C234.969 103.005 234.153 102.679 233.644 102.375C233.391 102.219 233.199 102.089 233.083 101.985C232.961 101.887 232.9 101.833 232.905 101.825C232.925 101.802 233.173 102.016 233.692 102.288C234.207 102.56 235.013 102.851 236.049 102.986C237.082 103.109 238.343 103.078 239.685 102.756C241.024 102.431 242.424 101.796 243.893 101.149C245.364 100.503 246.791 99.8962 248.19 99.6438C249.586 99.4067 250.878 99.5474 251.904 99.8269C252.929 100.12 253.693 100.553 254.16 100.92C254.391 101.108 254.565 101.259 254.669 101.376C254.777 101.49 254.829 101.552 254.823 101.558Z" fill="#FAFAFA"/>
<path d="M253.95 86.1155C253.956 86.1328 253.707 86.2388 253.246 86.4181C253.019 86.5125 252.732 86.6069 252.396 86.7072C252.062 86.8151 251.679 86.9288 251.249 87.0251C250.396 87.2506 249.355 87.4183 248.198 87.5628C247.035 87.6766 245.753 87.7421 244.405 87.7016C243.059 87.6476 241.781 87.4973 240.631 87.2892C239.488 87.0502 238.466 86.7939 237.638 86.4778C237.22 86.339 236.852 86.181 236.533 86.0326C236.211 85.8958 235.94 85.7667 235.726 85.6395C235.294 85.4005 235.06 85.2617 235.07 85.2463C235.078 85.2309 235.328 85.3407 235.772 85.5508C235.988 85.6626 236.265 85.7763 236.589 85.9016C236.911 86.0345 237.28 86.1791 237.698 86.3063C238.524 86.5973 239.542 86.8324 240.674 87.056C241.813 87.2487 243.08 87.3894 244.415 87.4434C245.749 87.4858 247.022 87.4279 248.173 87.3277C249.322 87.1947 250.356 87.0502 251.208 86.8478C251.638 86.763 252.022 86.6628 252.356 86.5684C252.693 86.4836 252.982 86.4026 253.214 86.3236C253.68 86.1733 253.943 86.1001 253.95 86.1155Z" fill="#FAFAFA"/>
<path d="M230.91 55.5194C230.831 56.0821 231.114 56.6776 231.6 56.9706C232.088 57.2654 232.748 57.2385 233.208 56.9051C234.084 56.2749 233.999 54.9451 233.648 53.9236C233.295 52.9041 232.763 51.8403 233.05 50.8015C233.272 50.0055 233.928 49.4216 234.404 48.749C235.237 47.5753 235.532 46.0085 235.071 44.6459C234.61 43.2833 233.363 42.1906 231.934 42.0229C230.476 41.8514 228.821 42.5491 227.622 41.7011C226.752 41.0863 226.519 39.8933 225.798 39.1109C224.679 37.8948 222.732 37.9796 221.149 38.4537C219.565 38.9278 218 39.7045 216.355 39.5599C214.98 39.4385 213.747 38.685 212.419 38.3111C209.54 37.5036 206.208 38.7081 204.511 41.1692C202.812 43.6322 202.874 47.1706 204.653 49.5738C205.294 50.4372 206.167 51.1754 207.214 51.4182" fill="#192E35"/>
<path d="M228.492 86.4748C224.04 87.2881 219.768 84.349 218.937 79.9029C218.461 77.3589 218.066 75.2158 218.066 75.2158C218.066 75.2158 211.453 75.3122 210.277 68.8907C209.101 62.4672 207.778 48.354 207.778 48.354L207.697 47.5003C214.604 43.0291 223.507 43.349 230.781 47.1996L230.997 48.5275L235.176 77.4784C235.66 81.7665 232.738 85.6981 228.492 86.4748Z" fill="#FFBF9C"/>
<path d="M221.276 64.0044L217.143 66.0068C217.143 66.0068 218.46 67.485 220.2 66.4905C222.007 65.4556 221.276 64.0044 221.276 64.0044Z" fill="white"/>
<path d="M218.04 75.1255C218.04 75.1255 222.165 74.7613 226.027 71.3096C226.027 71.3096 224.833 76.2799 218.308 76.7945" fill="#FF9A6B"/>
<path d="M231.327 52.8617C231.462 52.7924 236.065 51.6842 236.217 57.2404C236.369 62.7986 230.704 61.1142 230.69 60.9542C230.675 60.7962 231.327 52.8617 231.327 52.8617Z" fill="#FFBF9C"/>
<path d="M232.338 58.9567C232.363 58.9393 232.437 59.0222 232.603 59.0935C232.765 59.1609 233.04 59.2033 233.328 59.0877C233.908 58.8564 234.379 57.9102 234.379 56.9099C234.379 56.4031 234.259 55.9232 234.068 55.53C233.887 55.1272 233.617 54.8516 233.318 54.8073C233.023 54.7476 232.819 54.9287 232.755 55.0887C232.685 55.2448 232.722 55.3546 232.693 55.3643C232.678 55.3797 232.572 55.2756 232.61 55.0444C232.631 54.9326 232.693 54.8015 232.82 54.6917C232.95 54.578 233.144 54.5182 233.351 54.5336C233.781 54.5529 234.178 54.9364 234.386 55.3681C234.62 55.8018 234.766 56.3395 234.764 56.908C234.76 58.0297 234.215 59.0916 233.418 59.346C233.029 59.4597 232.701 59.3498 232.527 59.2245C232.352 59.0916 232.319 58.9682 232.338 58.9567Z" fill="#FF9A6B"/>
<path d="M206.664 51.2381C206.664 51.2381 210.826 52.5929 215.56 49.3648C218.664 47.2449 222.438 45.9016 223.387 46.4547C224.336 47.0059 224.986 50.4152 228.426 50.9644C228.426 50.9644 229.097 57.5459 231.677 56.9543C234.257 56.3626 231.235 46.4431 231.235 46.4431L224.665 42.9548L217.509 42.5906L209.931 44.4985L205.92 47.7479" fill="#192E35"/>
<path d="M230.953 40.8959C230.954 40.973 230.268 40.9904 229.562 41.397C228.847 41.7902 228.475 42.3664 228.409 42.3259C228.345 42.3067 228.65 41.609 229.435 41.1735C230.214 40.7302 230.97 40.8304 230.953 40.8959Z" fill="#192E35"/>
<path d="M227.909 38.6907C227.959 38.6715 228.333 39.5484 228.355 40.722C228.366 41.306 228.243 41.8321 228.108 42.1867C227.969 42.5452 227.832 42.7379 227.805 42.7244C227.732 42.6936 228.123 41.8456 228.098 40.724C228.081 39.61 227.824 38.71 227.909 38.6907Z" fill="#192E35"/>
<path d="M209.757 57.7081C209.764 58.2073 210.192 58.612 210.713 58.6159C211.236 58.6159 211.652 58.215 211.644 57.7158C211.637 57.2167 211.207 56.81 210.688 56.8081C210.165 56.8062 209.747 57.209 209.757 57.7081Z" fill="#192E35"/>
<path d="M209.729 56.9825C209.85 57.1001 210.54 56.5354 211.555 56.4872C212.569 56.4236 213.34 56.9093 213.445 56.7801C213.497 56.7223 213.365 56.5065 213.03 56.2849C212.698 56.0671 212.143 55.8647 211.508 55.8994C210.876 55.9341 210.355 56.1943 210.062 56.4487C209.761 56.7031 209.667 56.9324 209.729 56.9825Z" fill="#192E35"/>
<path d="M219.752 57.1874C219.783 57.6846 220.231 58.07 220.751 58.0469C221.272 58.0238 221.671 57.6037 221.64 57.1045C221.609 56.6073 221.162 56.2218 220.641 56.243C220.119 56.2661 219.722 56.6882 219.752 57.1874Z" fill="#192E35"/>
<path d="M219.473 56.4498C219.603 56.5616 220.266 55.9642 221.276 55.8678C222.287 55.758 223.081 56.207 223.18 56.0721C223.228 56.0123 223.087 55.8023 222.74 55.598C222.399 55.3937 221.834 55.2203 221.203 55.2839C220.574 55.3494 220.065 55.6327 219.784 55.8986C219.496 56.1685 219.412 56.3997 219.473 56.4498Z" fill="#192E35"/>
<path d="M216.53 64.3108C216.53 64.253 215.89 64.2048 214.858 64.1739C214.596 64.172 214.347 64.145 214.286 63.9735C214.207 63.7923 214.288 63.5033 214.384 63.191C214.567 62.5416 214.756 61.8612 214.957 61.1482C215.745 58.2438 216.289 55.8656 216.172 55.8348C216.054 55.8039 215.321 58.134 214.532 61.0383C214.344 61.7533 214.164 62.4356 213.993 63.0889C213.923 63.3915 213.788 63.7422 213.958 64.1161C214.047 64.3031 214.249 64.4245 214.419 64.4534C214.59 64.4861 214.735 64.4765 214.864 64.4707C215.896 64.4264 216.532 64.3686 216.53 64.3108Z" fill="#192E35"/>
<path d="M218.846 53.4279C218.974 53.6939 219.971 53.4645 221.172 53.4915C222.375 53.4954 223.366 53.7498 223.5 53.4877C223.559 53.3624 223.366 53.1196 222.952 52.8922C222.543 52.6628 221.907 52.4701 221.186 52.4604C220.466 52.4527 219.822 52.6281 219.408 52.8459C218.989 53.0656 218.79 53.3027 218.846 53.4279Z" fill="#192E35"/>
<path d="M209.59 54.265C209.791 54.4789 210.465 54.1725 211.302 54.08C212.137 53.9567 212.866 54.0819 213.007 53.8256C213.067 53.7023 212.934 53.4826 212.602 53.2956C212.274 53.1087 211.746 52.9815 211.171 53.0547C210.597 53.1299 210.116 53.3862 209.848 53.6502C209.575 53.9162 209.499 54.161 209.59 54.265Z" fill="#192E35"/>
<path d="M30.5314 100.421L56.9883 166.524H131.24L107.652 99.5213C107.48 99.0357 107.021 98.71 106.505 98.71L31.6575 98.7581C30.7994 98.7601 30.2132 99.6254 30.5314 100.421Z" fill="#192E35"/>
<path d="M34.6023 102.226L58.8956 161.45C58.9998 161.708 59.2543 161.876 59.5378 161.876H127.182C127.661 161.876 127.996 161.413 127.836 160.974L106.314 101.75C106.215 101.48 105.953 101.301 105.66 101.301H35.2444C34.7546 101.301 34.4191 101.783 34.6023 102.226Z" fill="#3C6A7A"/>
<path d="M56.9875 166.523H157.9V161.875H59.7277L56.9875 166.523Z" fill="#192E35"/>
<path d="M173.04 102.141C173.04 102.141 174.889 99.7418 173.639 96.9705C172.39 94.1972 169.033 91.0346 169.033 91.0346C168.055 90.7821 169.349 85.2066 169.916 83.3603C170.477 81.5372 169.842 80.508 168.834 80.9089C168.147 81.1825 166.277 86.7908 165.758 88.6313C165.475 89.6373 164.946 91.6089 164.306 92.6843C163.774 93.5785 163.163 93.856 162.546 92.4569C161.186 89.3694 159.005 87.4923 158.076 87.3921C157.144 87.2938 156.699 88.5677 157.472 89.2692C158.101 89.8339 158.862 91.1001 159.397 92.0734C159.836 92.8751 160.149 93.7443 160.303 94.6443C160.434 95.4248 160.53 96.1186 160.604 96.743C160.604 96.743 160.912 99.4855 160.565 101.407L141.964 123.364L137.905 108.499L137.529 107.354L121.514 113.302C121.036 113.429 124.956 125.07 127.444 132.302C128.674 135.881 131.387 138.753 134.893 140.187C140.497 142.482 146.945 140.649 150.503 135.75L170.413 106.865L169.983 106.572L170.386 106.755" fill="#C78975"/>
<path d="M170.557 92.4865C170.572 92.4942 170.516 92.6869 170.396 93.03C170.254 93.4231 170.08 93.9069 169.874 94.4754C169.637 95.1017 169.363 95.8206 169.066 96.6088C168.9 97.0001 168.792 97.453 168.458 97.85C168.287 98.0427 168.054 98.1969 167.774 98.2374C167.492 98.2855 167.184 98.1506 167.008 97.9329C166.825 97.7209 166.735 97.4433 166.723 97.1851C166.708 96.923 166.754 96.6744 166.806 96.4431C166.918 95.9844 167.035 95.5508 167.157 95.1364C167.398 94.3097 167.652 93.5754 167.882 92.9683C168.113 92.3593 168.322 91.8756 168.474 91.5441C168.626 91.2145 168.725 91.0372 168.74 91.0449C168.757 91.0507 168.69 91.2415 168.566 91.5826C168.443 91.9237 168.262 92.4152 168.054 93.028C167.845 93.6409 167.612 94.3752 167.384 95.2C167.271 95.6125 167.157 96.0499 167.053 96.499C166.949 96.9365 166.908 97.4279 167.203 97.7652C167.342 97.9309 167.539 98.0157 167.739 97.9849C167.94 97.9579 168.131 97.8384 168.27 97.6842C168.551 97.3624 168.676 96.9153 168.844 96.5221C169.162 95.7416 169.452 95.0304 169.704 94.4099C169.939 93.8529 170.14 93.3788 170.304 92.9934C170.45 92.6619 170.539 92.4807 170.557 92.4865Z" fill="#BF654D"/>
<path d="M172.445 94.6576C172.46 94.6653 172.41 94.8349 172.304 95.1355C172.2 95.4362 172.04 95.8679 171.838 96.3998C171.631 96.9317 171.392 97.5619 171.107 98.2654C170.954 98.6123 170.752 99.0054 170.364 99.2521C170.177 99.3735 169.948 99.4564 169.703 99.4487C169.456 99.441 169.217 99.3234 169.045 99.1519C168.69 98.8069 168.604 98.3001 168.642 97.8799C168.679 97.4521 168.787 97.0686 168.881 96.7024C169.082 95.97 169.323 95.3283 169.545 94.8021C169.768 94.276 169.973 93.8616 170.123 93.5783C170.272 93.297 170.366 93.1466 170.382 93.1543C170.418 93.1717 170.117 93.8115 169.714 94.8696C169.516 95.4015 169.294 96.0394 169.111 96.7621C169.024 97.1244 168.922 97.5099 168.893 97.8973C168.862 98.2827 168.945 98.6951 169.225 98.9688C169.496 99.256 169.919 99.2483 170.231 99.0401C170.547 98.8435 170.74 98.5024 170.889 98.1709C171.176 97.4945 171.438 96.8758 171.668 96.3324C171.892 95.8081 172.079 95.3861 172.212 95.097C172.347 94.8079 172.428 94.6518 172.445 94.6576Z" fill="#BF654D"/>
<path d="M173.48 96.8509C173.515 96.8624 173.368 97.3982 173.106 98.2558C172.973 98.6875 172.82 99.1905 172.628 99.761C172.524 100.042 172.346 100.376 171.997 100.538C171.827 100.619 171.608 100.636 171.42 100.561C171.233 100.489 171.083 100.353 170.979 100.189C170.767 99.8516 170.767 99.4719 170.78 99.1481C170.796 98.8186 170.838 98.5044 170.9 98.2076C171.023 97.616 171.22 97.1053 171.426 96.7005C171.633 96.2958 171.845 95.9932 172.003 95.7947C172.161 95.5982 172.267 95.5037 172.279 95.5134C172.315 95.5403 171.955 95.972 171.59 96.7796C171.411 97.1824 171.237 97.6815 171.131 98.2539C171.077 98.5391 171.043 98.8436 171.031 99.1597C171.019 99.47 171.033 99.7995 171.195 100.05C171.355 100.306 171.648 100.43 171.893 100.306C172.147 100.195 172.304 99.9402 172.406 99.6762C172.597 99.1404 172.774 98.6451 172.934 98.198C173.241 97.3558 173.447 96.8393 173.48 96.8509Z" fill="#BF654D"/>
<path d="M167.129 101.61C167.085 101.604 167.131 101.218 167.081 100.607C167.035 99.9965 166.856 99.1562 166.437 98.3217C166.013 97.4872 165.446 96.8436 164.981 96.4427C164.518 96.0399 164.181 95.8472 164.202 95.8086C164.214 95.7855 164.586 95.9223 165.097 96.302C165.606 96.6797 166.225 97.335 166.667 98.2061C167.104 99.0772 167.262 99.9657 167.264 100.598C167.266 101.234 167.154 101.615 167.129 101.61Z" fill="#BF654D"/>
<path d="M63.4478 161.43L111.718 161.674L112.31 153.168L74.6553 136.42C71.3482 140.369 69.3524 144.992 68.4017 150.153L63.4478 161.43Z" fill="#192E35"/>
<path d="M86.2554 145.051C86.2689 145.062 86.1127 145.238 85.8196 145.544C85.6749 145.7 85.4917 145.883 85.2603 146.076C85.0309 146.273 84.7821 146.51 84.4697 146.728C84.167 146.959 83.8314 147.206 83.4477 147.435C83.0774 147.687 82.6494 147.903 82.2058 148.142C81.3034 148.583 80.2698 148.992 79.1455 149.287C78.0175 149.568 76.9144 149.709 75.9098 149.755C75.4065 149.759 74.9282 149.775 74.4828 149.734C74.0354 149.717 73.6208 149.661 73.2448 149.605C72.8688 149.564 72.5352 149.476 72.2382 149.414C71.9431 149.356 71.6944 149.283 71.4919 149.216C71.087 149.09 70.8671 149.011 70.8729 148.994C70.8883 148.942 71.7792 149.241 73.2699 149.426C73.642 149.468 74.0508 149.514 74.4924 149.522C74.9321 149.553 75.4045 149.53 75.9001 149.518C76.8874 149.46 77.9712 149.316 79.0819 149.038C80.1888 148.747 81.2069 148.352 82.1017 147.928C82.5414 147.699 82.9656 147.495 83.3358 147.254C83.7196 147.036 84.0551 146.801 84.3617 146.583C85.5804 145.704 86.2168 145.012 86.2554 145.051Z" fill="#375964"/>
<path d="M99.3792 160.715C99.3464 160.701 99.5855 160.083 99.9635 159.079C100.372 158.009 100.889 156.656 101.46 155.159C102.042 153.667 102.567 152.316 102.983 151.25C103.382 150.254 103.643 149.643 103.678 149.654C103.71 149.666 103.508 150.3 103.153 151.314C102.796 152.328 102.287 153.721 101.699 155.251C101.113 156.781 100.557 158.157 100.133 159.146C99.9211 159.639 99.7398 160.036 99.6087 160.306C99.4756 160.578 99.3966 160.723 99.3792 160.715Z" fill="#375964"/>
<path d="M99.6508 149.257C99.6739 149.296 99.2555 149.363 99.0086 149.872C98.891 150.117 98.8563 150.465 99.0511 150.758C99.2323 151.049 99.6199 151.277 100.009 151.219C100.397 151.157 100.698 150.82 100.783 150.489C100.877 150.151 100.738 149.829 100.553 149.633C100.164 149.222 99.7433 149.286 99.7549 149.24C99.7511 149.226 99.8436 149.19 100.017 149.201C100.189 149.211 100.447 149.286 100.682 149.504C100.916 149.71 101.12 150.111 101.012 150.544C100.918 150.963 100.565 151.385 100.048 151.473C99.5293 151.547 99.0646 151.25 98.8486 150.882C98.6153 150.5 98.6866 150.057 98.8467 149.789C99.0029 149.511 99.2265 149.359 99.3866 149.298C99.5505 149.234 99.6489 149.244 99.6508 149.257Z" fill="#375964"/>
<path d="M132.298 89.4158C132.298 89.4158 139.356 110.168 138.958 111.016L124.667 114.93" fill="#3BB3BD"/>
<path d="M120.714 123.803L116.212 142.909L113.285 153.602L74.6558 136.418L86.9143 116.711C86.9143 116.711 93.6307 89.2667 103.105 84.1923C109.989 80.5055 115.84 81.7871 116.715 81.7871L124.943 82.9222C125.125 82.9473 125.304 82.9781 125.481 83.0128C129.868 83.8743 132.846 87.9774 132.622 92.4389C132.443 96.0101 131.843 102.054 129.876 106.573C127.242 112.621 120.714 123.803 120.714 123.803Z" fill="#3BB3BD"/>
<path d="M114.725 149.312C114.725 149.312 114.629 149.273 114.444 149.186C114.255 149.105 113.989 148.959 113.645 148.753C112.967 148.336 112.008 147.608 111.088 146.392C110.178 145.187 109.316 143.435 109.193 141.26C109.127 140.178 109.309 138.993 109.847 137.877C110.117 137.324 110.483 136.788 110.973 136.349C111.457 135.902 112.085 135.588 112.77 135.463C114.16 135.208 115.657 135.927 116.567 137.12C117.016 137.723 117.34 138.459 117.394 139.25C117.465 140.032 117.305 140.845 116.97 141.581C116.305 143.06 114.93 144.283 113.248 144.717C111.576 145.17 109.715 144.95 108.065 144.208C106.406 143.461 104.968 142.214 103.782 140.753C103.188 140.022 102.635 139.244 102.151 138.409C101.668 137.577 101.263 136.677 101.034 135.713C100.797 134.753 100.772 133.722 101.003 132.735C101.236 131.756 101.736 130.801 102.546 130.138C103.35 129.473 104.432 129.16 105.481 129.276C106.005 129.342 106.524 129.521 106.962 129.833C107.396 130.149 107.749 130.581 107.965 131.07C108.402 132.055 108.381 133.188 108.022 134.171C107.652 135.162 106.941 135.971 106.129 136.588C104.48 137.812 102.505 138.432 100.558 138.658C98.6024 138.876 96.6258 138.6 94.8768 137.868C93.1278 137.124 91.6526 135.881 90.6151 134.401C89.568 132.922 88.9799 131.176 88.9394 129.455C88.924 128.596 89.0474 127.742 89.3444 126.956C89.6413 126.173 90.1157 125.458 90.7598 124.949C91.4058 124.446 92.1964 124.159 92.987 124.127C93.7738 124.09 94.576 124.344 95.141 124.87C95.706 125.395 96.0145 126.127 96.0897 126.846C96.1726 127.569 96.0512 128.287 95.785 128.925C95.2355 130.224 94.0611 131.026 92.9349 131.481C91.7876 131.938 90.6171 132.086 89.5391 132.107C87.3678 132.136 85.5359 131.614 84.1474 131.009C82.7571 130.392 81.791 129.69 81.1797 129.184C80.8712 128.929 80.6475 128.723 80.5048 128.575C80.3582 128.432 80.2888 128.355 80.2888 128.355C80.2888 128.355 80.3717 128.42 80.5221 128.557C80.6706 128.696 80.9001 128.894 81.2106 129.143C81.8315 129.636 82.7995 130.319 84.1879 130.916C85.5706 131.504 87.3909 132.005 89.5353 131.963C90.6016 131.936 91.7529 131.783 92.8732 131.329C93.4344 131.107 93.9763 130.793 94.4622 130.388C94.9443 129.978 95.3666 129.467 95.6173 128.854C95.8699 128.245 95.9837 127.553 95.9007 126.867C95.8255 126.183 95.5324 125.501 95.006 125.017C94.4815 124.531 93.7371 124.296 92.9947 124.333C92.2504 124.365 91.5003 124.639 90.8928 125.117C90.2854 125.597 89.8322 126.281 89.5507 127.033C89.2672 127.788 89.1496 128.617 89.165 129.451C89.2094 131.122 89.784 132.824 90.808 134.266C91.8261 135.709 93.2647 136.918 94.9713 137.642C96.6817 138.355 98.6159 138.623 100.531 138.407C102.436 138.188 104.382 137.569 105.974 136.386C106.757 135.79 107.434 135.012 107.779 134.083C108.119 133.159 108.136 132.086 107.729 131.176C107.531 130.723 107.209 130.33 106.813 130.041C106.414 129.758 105.938 129.592 105.452 129.53C104.474 129.423 103.454 129.715 102.708 130.334C101.952 130.953 101.474 131.859 101.25 132.795C101.03 133.74 101.051 134.724 101.279 135.653C101.732 137.527 102.822 139.151 103.973 140.599C105.141 142.04 106.549 143.26 108.161 143.994C109.768 144.717 111.576 144.933 113.188 144.499C114.808 144.087 116.131 142.913 116.775 141.493C117.099 140.787 117.255 140.011 117.19 139.267C117.142 138.517 116.837 137.82 116.409 137.239C115.541 136.095 114.112 135.405 112.801 135.642C112.153 135.755 111.553 136.05 111.088 136.476C110.616 136.896 110.259 137.413 109.993 137.951C109.465 139.032 109.28 140.194 109.336 141.252C109.444 143.395 110.28 145.131 111.169 146.332C112.068 147.546 113.007 148.281 113.672 148.708C114.01 148.922 114.272 149.075 114.455 149.163C114.635 149.258 114.725 149.312 114.725 149.312Z" fill="#FAFAFA"/>
<path d="M126.316 112.454C126.312 112.456 126.281 112.422 126.219 112.348C126.152 112.264 126.065 112.156 125.959 112.021C125.737 111.728 125.44 111.269 125.135 110.639C124.842 110.003 124.559 109.184 124.408 108.197C124.26 107.214 124.239 106.058 124.515 104.826C124.786 103.605 125.315 102.284 126.333 101.172C126.603 100.91 126.921 100.671 127.309 100.548C127.692 100.427 128.146 100.455 128.512 100.664C128.88 100.866 129.168 101.195 129.349 101.577C129.528 101.961 129.6 102.388 129.609 102.809C129.615 104.489 129.006 106.237 127.862 107.656C127.291 108.365 126.586 108.991 125.772 109.467C124.958 109.937 124.023 110.267 123.039 110.279C122.056 110.298 121.088 109.92 120.371 109.298C119.642 108.681 119.117 107.871 118.81 107.01C118.502 106.147 118.39 105.245 118.39 104.373C118.404 103.504 118.454 102.647 118.706 101.835C118.836 101.434 119.007 101.047 119.271 100.716C119.522 100.382 119.894 100.118 120.309 100.037C120.721 99.9466 121.153 100.047 121.497 100.249C121.84 100.455 122.114 100.741 122.324 101.055C122.54 101.371 122.677 101.722 122.773 102.069C122.875 102.415 122.92 102.772 122.929 103.119C122.951 103.815 122.812 104.476 122.602 105.069C122.175 106.266 121.437 107.183 120.706 107.854C119.973 108.532 119.25 109.001 118.656 109.365C118.058 109.725 117.578 109.978 117.252 110.147C117.098 110.225 116.977 110.286 116.878 110.334C116.793 110.377 116.749 110.394 116.747 110.39C116.745 110.388 116.786 110.361 116.867 110.311C116.959 110.257 117.079 110.188 117.227 110.103C117.545 109.918 118.016 109.652 118.602 109.28C119.186 108.904 119.894 108.428 120.608 107.75C121.319 107.077 122.027 106.175 122.43 105.009C122.629 104.429 122.758 103.791 122.731 103.125C122.719 102.793 122.675 102.454 122.575 102.124C122.48 101.793 122.349 101.465 122.148 101.174C121.95 100.883 121.693 100.621 121.385 100.438C121.076 100.259 120.71 100.178 120.353 100.257C119.624 100.409 119.16 101.155 118.932 101.907C118.697 102.674 118.645 103.524 118.635 104.373C118.637 105.225 118.749 106.096 119.048 106.923C119.343 107.748 119.844 108.521 120.534 109.101C121.217 109.691 122.112 110.038 123.037 110.022C123.963 110.011 124.86 109.698 125.645 109.247C126.429 108.789 127.112 108.184 127.665 107.498C128.778 106.129 129.372 104.427 129.374 102.814C129.366 102.415 129.299 102.02 129.139 101.675C128.981 101.332 128.72 101.037 128.404 100.862C128.088 100.683 127.71 100.656 127.374 100.758C127.035 100.864 126.736 101.08 126.481 101.325C125.508 102.373 124.964 103.676 124.692 104.867C124.408 106.069 124.416 107.207 124.549 108.176C124.686 109.151 124.95 109.962 125.226 110.597C125.515 111.227 125.795 111.689 126.001 111.992C126.1 112.131 126.179 112.242 126.24 112.333C126.294 112.41 126.319 112.451 126.316 112.454Z" fill="#FAFAFA"/>
<path d="M114.493 106.647C114.493 106.647 114.493 124.19 118.886 125.851C130.839 130.373 145.132 129.334 150.162 128.858C150.765 128.438 151.459 127.925 152.252 127.283L153.914 125.9C153.914 125.9 161.797 127.403 161.693 127.817C161.589 128.232 158.617 129.189 155.565 128.503C155.565 128.503 154.909 129.696 156.292 130.369C158.301 131.346 165.424 134.36 166.553 135.041C167.557 135.648 168.491 136.644 167.362 136.713C166.234 136.781 160.251 135.307 160.251 135.307C160.251 135.307 168.132 137.083 167.819 138.219C167.603 139.003 165.417 139.169 160.322 137.475C160.322 137.475 166.803 138.989 167.42 139.745C168.816 141.454 161.001 139.708 161.001 139.708C166.466 140.978 166.437 140.683 166.419 141.449C166.408 142.021 165.133 142.125 162.088 141.859C159.618 141.643 157.019 141.913 153.239 141.79C153.239 141.79 104.435 150.48 99.9878 128.949C97.5908 117.345 97.9977 113.058 97.5156 105.562" fill="#C78975"/>
<path d="M157.694 139.02C157.659 139.156 159.319 139.615 161.402 140.045C163.485 140.475 165.191 140.71 165.214 140.571C165.236 140.432 163.575 139.974 161.504 139.546C159.435 139.118 157.729 138.883 157.694 139.02Z" fill="#BF654D"/>
<path d="M157.961 136.872C157.924 137.006 159.667 137.596 161.85 138.186C164.037 138.776 165.838 139.144 165.875 139.009C165.911 138.872 164.17 138.284 161.983 137.693C159.8 137.103 157.997 136.735 157.961 136.872Z" fill="#BF654D"/>
<path d="M158.249 134.642C158.211 134.777 159.85 135.363 161.909 135.947C163.971 136.532 165.672 136.899 165.71 136.764C165.749 136.627 164.11 136.043 162.05 135.457C159.989 134.871 158.288 134.507 158.249 134.642Z" fill="#BF654D"/>
<path d="M105.49 89.4798C102.291 89.156 99.1612 90.6824 97.2887 93.2957C95.6284 95.6142 94.105 99.3434 94.8571 104.876C96.3207 115.671 97.5163 119.269 97.5163 119.269L117.365 116.128L114.65 98.0213C114.65 98.0213 112.255 90.164 105.49 89.4798Z" fill="#3BB3BD"/>
<path d="M155.502 126.211C155.5 126.223 155.351 126.202 155.074 126.157C154.798 126.117 154.385 126.032 153.868 125.955C153.631 125.945 153.357 126.086 153.099 126.261C152.835 126.437 152.561 126.653 152.281 126.901C151.72 127.395 151.122 128.004 150.5 128.699L150.48 128.721L150.453 128.73C149.105 129.146 147.489 129.401 145.727 129.449C143.962 129.507 142.057 129.37 140.081 129.218C135.526 128.896 131.39 128.643 128.42 128.231C126.933 128.033 125.738 127.828 124.916 127.653C124.505 127.576 124.191 127.491 123.975 127.441C123.761 127.389 123.649 127.356 123.651 127.348C123.653 127.339 123.769 127.354 123.987 127.391C124.23 127.433 124.544 127.487 124.935 127.556C125.759 127.699 126.956 127.876 128.441 128.05C131.411 128.416 135.539 128.638 140.1 128.961C142.077 129.114 143.97 129.254 145.719 129.208C147.466 129.17 149.061 128.934 150.395 128.539L150.349 128.568C150.989 127.871 151.601 127.271 152.177 126.78C152.465 126.535 152.748 126.321 153.026 126.146C153.3 125.976 153.581 125.826 153.882 125.843C154.412 125.94 154.809 126.04 155.085 126.099C155.359 126.163 155.504 126.202 155.502 126.211Z" fill="#BF654D"/>
<path d="M116.004 106.025C116.004 106.029 115.952 106.043 115.849 106.066C115.734 106.091 115.581 106.124 115.392 106.166C115.19 106.195 114.935 106.218 114.635 106.241C114.334 106.237 113.985 106.251 113.597 106.199C112.82 106.114 111.873 105.879 110.88 105.366C110.388 105.104 109.879 104.784 109.403 104.368C108.913 103.965 108.46 103.462 108.065 102.88C107.662 102.302 107.336 101.631 107.139 100.878C107.054 100.5 107.01 100.101 107.05 99.6925C107.087 99.2878 107.222 98.8638 107.513 98.5304C107.806 98.2028 108.246 98.0023 108.695 97.9946C109.145 97.9792 109.586 98.1103 109.987 98.3126C110.786 98.7347 111.441 99.4343 111.865 100.275C112.288 101.115 112.496 102.088 112.43 103.073C112.373 104.054 112.02 105.048 111.387 105.856C110.147 107.49 107.964 108.444 105.803 108.209C103.631 107.97 101.742 106.671 100.579 105.016C100 104.183 99.5665 103.243 99.4777 102.248C99.4334 101.755 99.4835 101.254 99.6474 100.787C99.8191 100.329 100.093 99.9142 100.446 99.5885C100.799 99.2666 101.234 99.0276 101.707 98.9583C102.176 98.8754 102.656 98.9795 103.063 99.1837C103.886 99.5923 104.412 100.4 104.601 101.213C104.804 102.032 104.746 102.855 104.584 103.605C104.412 104.358 104.115 105.046 103.739 105.642C102.985 106.841 101.933 107.658 100.907 108.095C99.8769 108.54 98.8954 108.643 98.1163 108.614C97.3296 108.589 96.7356 108.421 96.348 108.294C95.9585 108.161 95.7695 108.051 95.7695 108.051C95.7772 108.037 95.972 108.13 96.3635 108.244C96.753 108.355 97.345 108.504 98.1183 108.513C98.8857 108.527 99.8499 108.411 100.849 107.964C101.846 107.523 102.862 106.717 103.583 105.546C103.946 104.964 104.229 104.293 104.389 103.562C104.542 102.836 104.592 102.038 104.395 101.265C104.21 100.496 103.716 99.7581 102.96 99.3842C102.59 99.1992 102.16 99.1124 101.744 99.1857C101.323 99.2493 100.928 99.467 100.606 99.7638C100.282 100.063 100.031 100.446 99.875 100.87C99.7265 101.294 99.6783 101.762 99.7226 102.227C99.8056 103.16 100.224 104.067 100.785 104.871C101.913 106.473 103.745 107.725 105.83 107.955C107.899 108.18 110.005 107.263 111.187 105.704C112.421 104.154 112.457 101.972 111.653 100.381C111.449 99.9816 111.196 99.6135 110.899 99.2936C110.593 98.9872 110.259 98.7039 109.883 98.5131C109.511 98.3223 109.102 98.2028 108.703 98.2143C108.304 98.2201 107.93 98.3916 107.673 98.673C107.421 98.9583 107.291 99.336 107.255 99.7137C107.214 100.091 107.255 100.471 107.334 100.833C107.513 101.55 107.828 102.215 108.215 102.78C108.595 103.35 109.035 103.846 109.509 104.245C109.972 104.657 110.467 104.977 110.948 105.239C111.916 105.754 112.843 106 113.607 106.099C115.153 106.299 116 105.968 116.004 106.025Z" fill="#FAFAFA"/>
<path d="M105.564 51.2968C104.85 49.2829 102.935 47.7469 100.812 47.4867C98.6891 47.2284 96.4599 48.2576 95.2817 50.0403C94.5297 51.1793 94.2057 52.536 93.7352 53.8157C93.2627 55.0954 92.5647 56.3905 91.3652 57.0419C89.9614 57.8012 88.1179 57.5391 86.8413 58.497C85.422 59.5627 85.3854 61.9024 86.5752 63.2148C87.7669 64.5292 89.838 64.8125 91.4848 64.1553C91.1415 65.2134 90.7925 66.2946 90.8118 67.4066C90.8311 68.5186 91.2881 69.6865 92.233 70.2724C93.1914 70.864 94.4641 70.7388 95.4591 70.2126C96.4522 69.6846 97.2178 68.8135 97.8985 67.9192C98.0971 68.6921 98.3015 69.4784 98.7142 70.1606C99.1288 70.8448 99.7883 71.4249 100.577 71.5463C101.545 71.6947 102.519 71.1165 103.08 70.3148C103.641 69.5111 103.857 68.5205 103.981 67.5492C104.287 65.1459 104.09 62.6906 103.516 60.3375C103.149 58.8304 102.625 57.2867 102.914 55.7622C103.203 54.2378 104.709 52.8039 106.192 53.2626" fill="#192E35"/>
<path d="M86.1021 61.7004C86.0963 61.7139 86.1831 61.7544 86.3528 61.8199C86.5225 61.8854 86.7789 61.9644 87.1183 62.0396C87.7913 62.1841 88.8114 62.2998 90.0456 62.0762C91.2681 61.8584 92.7048 61.2514 93.9061 60.095C94.5039 59.5226 95.0477 58.8269 95.4584 58.0194C95.8807 57.2138 96.1218 56.3003 96.3243 55.3887C96.5287 54.4752 96.7099 53.5867 97.0474 52.8004C97.3771 52.0122 97.8862 51.3511 98.5207 50.8982C99.7953 49.9751 101.336 49.8383 102.478 50.1351C103.642 50.4261 104.456 51.0274 104.954 51.4726C105.459 51.9255 105.675 52.2415 105.706 52.2184C105.717 52.2107 105.671 52.1259 105.571 51.9736C105.467 51.8233 105.307 51.6075 105.064 51.3588C104.585 50.8674 103.77 50.2025 102.549 49.8595C101.351 49.5087 99.695 49.6147 98.3047 50.5976C97.6105 51.0755 97.0378 51.8079 96.6849 52.6443C96.3185 53.4807 96.1334 54.3923 95.929 55.3C95.7284 56.2097 95.5009 57.077 95.1055 57.8401C94.7199 58.6072 94.2089 59.2759 93.6458 59.8291C92.5138 60.9449 91.1621 61.5501 89.9896 61.7968C88.8095 62.0473 87.8145 61.9799 87.1453 61.8854C86.4742 61.7833 86.1117 61.6676 86.1021 61.7004Z" fill="#375964"/>
<path d="M99.1192 70.8122C99.1288 70.8238 99.1963 70.7794 99.3178 70.6831C99.4432 70.5906 99.609 70.4267 99.7922 70.1955C100.164 69.7329 100.56 68.9254 100.67 67.8635C100.793 66.8093 100.662 65.5239 100.251 64.196C99.8732 62.8643 99.2966 61.4555 99.0787 59.9175C98.8396 58.3796 99.1906 56.8841 99.8848 55.7393C100.565 54.581 101.551 53.8024 102.463 53.363C103.381 52.9139 104.214 52.7713 104.783 52.7135C105.356 52.6653 105.678 52.6865 105.681 52.6538C105.683 52.6326 105.365 52.5555 104.773 52.5574C104.187 52.567 103.317 52.6692 102.341 53.1047C101.373 53.5287 100.305 54.3305 99.5666 55.5466C98.8126 56.7395 98.4231 58.3565 98.6776 59.9715C98.909 61.5846 99.5049 62.9972 99.8944 64.302C100.317 65.5971 100.467 66.819 100.384 67.8365C100.315 68.856 99.9812 69.6327 99.6649 70.103C99.3468 70.5771 99.0922 70.7833 99.1192 70.8122Z" fill="#375964"/>
<path d="M132.086 61.465C135.956 52.5207 130.649 47.0724 127.192 45.1163C125.134 43.9522 122.689 43.7075 120.325 43.6516C117.992 43.5957 115.631 43.7017 113.371 44.2895C111.113 44.8773 108.944 45.9758 107.351 47.6814C104.522 50.7091 103.876 55.1938 104.14 59.3277C104.453 64.1978 105.851 69.0005 108.263 73.2424C108.572 73.7878 108.923 74.3486 109.472 74.6512C110.022 74.9518 110.826 74.8844 111.148 74.3467" fill="#192E35"/>
<path d="M125.446 83.7715L125.303 79.0652C125.303 79.0652 130.809 78.1516 131.948 70.9746C132.517 67.4034 132.336 61.5524 132.035 56.769C131.763 52.4616 127.964 49.2489 123.67 49.7018L111.211 51.0181C109.907 51.1568 108.926 52.2689 108.951 53.5794L110.607 84.3901C110.819 88.3294 114.076 91.4149 118.022 91.4149C122.21 91.4149 125.569 87.9555 125.446 83.7715Z" fill="#C78975"/>
<path d="M130.792 60.8467C130.807 61.3323 130.41 61.7486 129.903 61.7756C129.396 61.8026 128.972 61.4325 128.954 60.945C128.937 60.4593 129.334 60.043 129.841 60.016C130.348 59.989 130.773 60.361 130.792 60.8467Z" fill="#192E35"/>
<path d="M130.767 59.8125C130.651 59.9339 129.953 59.4174 128.962 59.4193C127.972 59.4077 127.245 59.9165 127.137 59.797C127.085 59.7431 127.201 59.5253 127.517 59.296C127.83 59.0647 128.362 58.8431 128.979 58.845C129.596 58.8488 130.115 59.0763 130.414 59.3075C130.718 59.5426 130.823 59.7585 130.767 59.8125Z" fill="#192E35"/>
<path d="M120.859 61.1096C120.876 61.5953 120.477 62.0115 119.97 62.0385C119.462 62.0655 119.038 61.6955 119.021 61.2079C119.003 60.7222 119.401 60.3059 119.908 60.279C120.415 60.252 120.841 60.6239 120.859 61.1096Z" fill="#192E35"/>
<path d="M121.024 59.999C120.91 60.1204 120.212 59.6039 119.221 59.6058C118.231 59.5943 117.504 60.103 117.396 59.9816C117.342 59.9277 117.458 59.7118 117.776 59.4825C118.089 59.2512 118.619 59.0296 119.236 59.0315C119.855 59.0354 120.374 59.2628 120.673 59.494C120.977 59.7292 121.079 59.945 121.024 59.999Z" fill="#192E35"/>
<path d="M124.621 67.3435C124.615 67.2877 125.232 67.1797 126.229 67.0525C126.482 67.0255 126.723 66.9774 126.765 66.8039C126.825 66.6208 126.719 66.3491 126.596 66.0542C126.359 65.4414 126.11 64.7996 125.848 64.127C124.808 61.3864 124.056 59.1316 124.168 59.0892C124.278 59.0487 125.211 61.238 126.251 63.9824C126.499 64.657 126.739 65.3007 126.966 65.9193C127.062 66.2065 127.228 66.5322 127.097 66.9118C127.03 67.1007 126.845 67.2375 126.683 67.2799C126.521 67.332 126.378 67.3339 126.253 67.3416C125.248 67.3956 124.625 67.3994 124.621 67.3435Z" fill="#192E35"/>
<path d="M125.305 79.0666C125.305 79.0666 120.473 79.3769 115.687 76.5015C115.687 76.5015 118.02 81.4313 125.207 80.7607" fill="#BF654D"/>
<path d="M124.201 69.7304C123.844 69.2602 123.221 69.0019 122.6 69.0674C122.17 69.1137 121.736 69.3218 121.474 69.6726C121.214 70.0214 121.158 70.5186 121.395 70.8521C121.663 71.2279 122.222 71.3146 122.695 71.1816C123.169 71.0467 123.576 70.7345 123.962 70.4261C124.07 70.3394 124.178 70.2508 124.245 70.1332C124.313 70.0156 124.326 69.8615 124.243 69.7632" fill="#BF654D"/>
<path d="M121.703 68.0287C121.865 68.019 121.867 69.0944 122.787 69.8576C123.707 70.6247 124.852 70.5032 124.862 70.6536C124.877 70.721 124.605 70.8617 124.121 70.8752C123.647 70.8925 122.955 70.7384 122.39 70.272C121.829 69.8036 121.588 69.1792 121.551 68.7379C121.51 68.2888 121.63 68.0229 121.703 68.0287Z" fill="#192E35"/>
<path d="M121.468 58.2642C121.372 58.534 120.383 58.4068 119.22 58.5456C118.053 58.6632 117.116 59.0043 116.962 58.7615C116.892 58.6458 117.056 58.3933 117.436 58.1312C117.812 57.8711 118.412 57.6244 119.11 57.5473C119.806 57.4702 120.446 57.582 120.871 57.7535C121.297 57.925 121.511 58.137 121.468 58.2642Z" fill="#192E35"/>
<path d="M130.403 56.9466C130.227 57.1702 129.545 56.937 128.723 56.9254C127.902 56.8869 127.207 57.0777 127.047 56.8426C126.976 56.7289 127.086 56.5034 127.391 56.2895C127.689 56.0775 128.191 55.904 128.754 55.9214C129.319 55.9387 129.807 56.143 130.094 56.3743C130.383 56.6055 130.478 56.8368 130.403 56.9466Z" fill="#192E35"/>
<path d="M132.036 56.7679C130.78 50.647 129.074 53.0695 127.145 50.1498C124.351 52.977 117.916 56.236 113.992 56.8758C113.593 56.9413 113.171 57.0011 112.845 57.242C112.239 57.693 112.191 58.5622 112.195 59.3157C112.201 61.4414 112.16 63.5865 111.67 65.6563C111.181 67.7242 110.205 69.7324 108.602 71.1297C106.234 66.142 105.997 60.3352 107.058 54.9178C107.49 52.7034 108.224 50.383 109.987 48.978C111.252 47.9701 112.883 47.5673 114.472 47.2763C118.396 46.5555 122.548 46.382 126.285 47.7831C130.022 49.1823 132.923 50.9072 133.424 54.8638" fill="#192E35"/>
<path d="M104.896 52.4707C104.883 52.4958 105.168 52.65 105.699 52.9082C105.959 53.0508 106.298 53.1703 106.696 53.3091C106.898 53.3804 107.11 53.4536 107.332 53.5288C107.565 53.5885 107.81 53.6502 108.063 53.7138C109.085 53.9855 110.34 54.1436 111.734 54.2168C113.132 54.2688 114.671 54.1725 116.264 53.9239C117.857 53.6637 119.336 53.2185 120.645 52.729C121.284 52.4476 121.908 52.2144 122.448 51.9022C122.722 51.7576 122.986 51.617 123.243 51.4801C123.482 51.324 123.715 51.1718 123.939 51.0272C124.392 50.7536 124.76 50.4471 125.086 50.1831C125.244 50.054 125.397 49.9306 125.539 49.815C125.661 49.6917 125.777 49.576 125.887 49.4662C126.297 49.0422 126.515 48.8013 126.494 48.782C126.432 48.7184 125.557 49.6955 123.785 50.7863C123.561 50.9232 123.328 51.0619 123.089 51.2084C122.832 51.3356 122.568 51.4686 122.298 51.6035C121.762 51.8964 121.143 52.1142 120.51 52.3821C119.218 52.8427 117.764 53.2686 116.199 53.5249C114.631 53.7697 113.121 53.8776 111.746 53.8448C110.375 53.7928 109.139 53.6675 108.126 53.4363C106.086 53.0104 104.931 52.3917 104.896 52.4707Z" fill="#375964"/>
<path d="M106.929 47.6331C106.913 47.6562 107.131 47.8335 107.548 48.14C107.75 48.3038 108.024 48.4599 108.348 48.6353C108.512 48.7239 108.684 48.8203 108.863 48.9166C109.058 48.9995 109.26 49.0862 109.47 49.1749C111.167 49.915 113.715 50.416 116.524 50.4315C119.34 50.4469 121.864 50.0479 123.651 49.6374C124.548 49.437 125.262 49.2327 125.749 49.0708C126.237 48.9109 126.502 48.8087 126.494 48.7817C126.475 48.7181 125.385 49.0226 123.594 49.358C121.806 49.6933 119.303 50.0441 116.528 50.0287C113.757 50.0132 111.262 49.5661 109.574 48.9089C107.876 48.2768 106.977 47.5618 106.929 47.6331Z" fill="#375964"/>
<path d="M129 46.0776C128.998 46.0294 128.753 45.9812 128.366 46.0776C127.982 46.172 127.479 46.4476 127.089 46.916C126.7 47.3881 126.522 47.9355 126.501 48.3286C126.478 48.7276 126.572 48.9588 126.621 48.9511C126.734 48.9492 126.692 48.0029 127.4 47.1742C128.08 46.3243 129.02 46.1894 129 46.0776Z" fill="#375964"/>
<path d="M91.8972 53.8078C91.903 53.8039 91.849 53.6979 91.6832 53.5495C91.5231 53.3992 91.2242 53.218 90.7961 53.1622C90.3777 53.1063 89.8223 53.1641 89.2997 53.4994C88.7694 53.8116 88.3452 54.5209 88.4281 55.3149C88.5033 56.0935 88.9796 56.9126 89.805 57.3539C90.6438 57.7972 91.7642 57.6584 92.6011 57.061C93.0215 56.7661 93.3898 56.3633 93.6289 55.8719C93.8699 55.3823 93.9741 54.8369 94.0088 54.2954C94.084 53.2103 93.895 52.1118 94.0936 51.0499C94.4966 48.901 96.1705 47.2475 97.9291 46.6192C99.7283 45.9639 101.539 46.4496 102.736 47.2128C103.963 47.9837 104.657 48.9878 105.01 49.7066C105.367 50.437 105.44 50.8938 105.482 50.8842C105.496 50.8803 105.482 50.7685 105.442 50.5527C105.407 50.3388 105.317 50.0246 105.153 49.6411C104.835 48.8818 104.154 47.8102 102.891 46.9719C102.264 46.5594 101.495 46.2145 100.617 46.0526C99.7437 45.8753 98.7564 45.9524 97.8057 46.2684C95.9236 46.9218 94.136 48.6582 93.6964 50.9767C93.4862 52.1369 93.6848 53.245 93.6135 54.2684C93.5845 54.7791 93.4881 55.2744 93.2818 55.7042C93.0774 56.132 92.7553 56.4924 92.3851 56.7565C91.6465 57.2961 90.6727 57.4194 89.9573 57.0552C89.238 56.6909 88.7907 55.9644 88.7116 55.2879C88.6267 54.5941 88.9623 53.987 89.4251 53.6864C89.8821 53.3684 90.3912 53.2874 90.7807 53.3183C91.5925 53.3876 91.8683 53.8617 91.8972 53.8078Z" fill="#192E35"/>
<path d="M110.758 57.0441C110.758 57.073 111.026 57.0923 111.506 57.1039C111.988 57.1154 112.684 57.1174 113.546 57.0846C115.261 57.0152 117.683 56.8437 120.191 55.9379C122.704 55.0263 124.63 53.4074 125.616 51.9697C126.117 51.2547 126.424 50.611 126.58 50.1523C126.742 49.6956 126.788 49.4296 126.767 49.4238C126.688 49.3911 126.424 50.4511 125.386 51.8001C124.374 53.1492 122.49 54.6736 120.052 55.5582C117.611 56.439 115.232 56.6568 113.529 56.7994C111.82 56.9304 110.756 56.9825 110.758 57.0441Z" fill="#192E35"/>
<path d="M100.565 74.5782C100.547 74.582 100.59 74.8673 100.906 75.2585C101.215 75.6362 101.849 76.1123 102.765 76.1662C103.668 76.224 104.753 75.8829 105.644 75.0831C106.078 74.6822 106.468 74.1137 106.523 73.4199C106.574 72.7569 106.3 71.9648 105.588 71.616C104.882 71.3038 103.995 71.5813 103.685 72.2905C103.538 72.6432 103.598 73.0345 103.758 73.3332C103.918 73.6358 104.171 73.8709 104.464 74.0096C105.052 74.2833 105.675 74.2101 106.172 74.0385C106.682 73.8651 107.094 73.5702 107.405 73.2465C108.037 72.5989 108.259 71.8704 108.317 71.3867C108.371 70.8952 108.292 70.6254 108.272 70.6312C108.238 70.6312 108.259 70.901 108.163 71.3616C108.06 71.8107 107.81 72.4736 107.204 73.0441C106.907 73.3274 106.523 73.5799 106.068 73.7206C105.619 73.8632 105.079 73.8998 104.626 73.6743C104.192 73.4719 103.853 72.8996 104.051 72.4409C104.233 71.9841 104.931 71.749 105.417 71.9822C105.922 72.2192 106.169 72.8456 106.128 73.391C106.091 73.946 105.773 74.4471 105.39 74.8133C104.595 75.5514 103.592 75.9022 102.779 75.881C101.951 75.8675 101.344 75.4743 101.022 75.1544C100.692 74.8229 100.6 74.5628 100.565 74.5782Z" fill="#192E35"/>
<path d="M141.753 161.877C141.753 161.948 123.833 162.006 101.732 162.006C79.6216 162.006 61.7053 161.948 61.7053 161.877C61.7053 161.805 79.6216 161.748 101.732 161.748C123.833 161.748 141.753 161.805 141.753 161.877Z" fill="#375964"/>
<path d="M36.9163 133.232C38.6364 133.452 40.1694 134.539 41.1876 135.942C42.2058 137.345 42.7534 139.041 43.0446 140.749C43.6096 144.056 42.7264 147.814 41.5096 150.938C38.1292 149.365 36.3204 145.443 35.5279 143.395C34.2744 140.157 33.9755 133.548 36.9163 133.232Z" fill="#65B67C"/>
<path d="M46.1734 155.312C45.217 153.629 45.3963 151.426 46.426 149.786C47.4558 148.148 49.2453 147.061 51.1428 146.668C52.0183 146.483 53.0191 146.466 53.7152 147.029C54.3651 147.557 54.581 148.491 54.4152 149.312C54.2494 150.133 53.7576 150.852 53.2003 151.477C51.2893 153.618 49.0447 155.341 46.1734 155.312Z" fill="#65B67C"/>
<path d="M45.5612 166.126C45.5438 166.126 45.513 165.883 45.4667 165.442C45.4165 164.954 45.3548 164.326 45.2777 163.569C45.1446 161.998 44.9113 159.761 45.4667 157.359C46.0085 154.971 47.1656 152.992 48.2879 151.849C48.8432 151.271 49.36 150.872 49.738 150.633C49.9212 150.506 50.0812 150.433 50.1815 150.373C50.2856 150.317 50.3416 150.292 50.3454 150.3C50.3801 150.348 49.4777 150.795 48.4151 151.967C47.343 153.117 46.238 155.066 45.7039 157.415C45.1581 159.764 45.3587 161.981 45.4493 163.555C45.5014 164.347 45.5438 164.989 45.5612 165.434C45.5785 165.878 45.5766 166.124 45.5612 166.126Z" fill="#192E35"/>
<path d="M37.5891 138.247C37.5968 138.244 37.6373 138.34 37.7048 138.525C37.78 138.733 37.8745 139.003 37.994 139.334C38.2389 140.04 38.5822 141.065 38.9949 142.335C39.8221 144.877 40.9136 148.402 42.032 152.322C43.1505 156.244 44.0819 159.815 44.7201 162.409C45.0383 163.706 45.289 164.757 45.451 165.487C45.5262 165.832 45.5879 166.11 45.6342 166.327C45.6727 166.52 45.6901 166.622 45.6824 166.624C45.6747 166.626 45.6419 166.528 45.5879 166.339C45.5281 166.125 45.4529 165.849 45.3584 165.51C45.1617 164.757 44.8879 163.722 44.5524 162.452C43.8736 159.869 42.9152 156.308 41.7987 152.388C40.6802 148.471 39.6158 144.939 38.831 142.387C38.4453 141.133 38.131 140.107 37.9034 139.365C37.8031 139.026 37.7221 138.752 37.6585 138.54C37.6045 138.35 37.5814 138.249 37.5891 138.247Z" fill="#192E35"/>
<path d="M42.075 158.611C40.3376 154.916 36.7123 152.172 32.6839 151.503C31.6561 151.331 30.3988 151.391 29.8531 152.276C29.3055 153.16 29.8203 154.317 30.4528 155.145C33.087 158.584 37.9387 160.147 42.0866 158.892" fill="#65B67C"/>
<path d="M34.0011 154.412C34.003 154.397 34.2325 154.428 34.6452 154.497C34.8515 154.53 35.1041 154.572 35.3914 154.653C35.6768 154.734 36.0124 154.798 36.3633 154.931C36.7181 155.054 37.1096 155.179 37.5107 155.368C37.9214 155.532 38.3399 155.752 38.7776 155.987C39.6396 156.478 40.5459 157.103 41.3905 157.881C42.2274 158.667 42.9178 159.523 43.4674 160.352C43.7277 160.776 43.9784 161.177 44.1654 161.578C44.3756 161.967 44.5241 162.35 44.6649 162.697C44.8191 163.04 44.8963 163.374 44.9908 163.655C45.0872 163.937 45.1392 164.187 45.1817 164.393C45.2684 164.804 45.3089 165.031 45.2935 165.033C45.2395 165.047 45.0737 164.131 44.5067 162.763C44.3563 162.424 44.2021 162.048 43.9861 161.67C43.7952 161.279 43.5426 160.888 43.2803 160.475C42.7288 159.668 42.0481 158.831 41.2247 158.058C40.3955 157.293 39.5085 156.677 38.6658 156.181C38.2377 155.944 37.8308 155.721 37.4297 155.551C37.0382 155.358 36.6545 155.225 36.3074 155.094C34.9093 154.599 33.9895 154.464 34.0011 154.412Z" fill="#192E35"/>
<path d="M156.965 5.37041C149.476 4.8674 141.839 8.52144 137.537 14.6674C133.235 20.8153 132.417 29.2373 135.46 36.0944C138.002 41.8318 142.931 46.3184 145.117 52.2003C146.616 56.2341 146.728 60.6821 148.253 64.7062C151.388 72.9721 160.957 78.2354 169.623 76.4546C174.826 75.385 179.504 72.1338 184.807 71.8042C190.497 71.4515 196.973 74.3404 201.479 70.8483C204.628 68.4065 205.164 63.7214 204.023 59.9054C202.881 56.0895 200.423 52.8344 198.404 49.4001C196.387 45.9677 194.744 41.9976 195.492 38.0872C196.169 34.5411 198.683 31.6676 200.264 28.4221C203.226 22.3436 202.688 14.7021 198.901 9.09962C195.114 3.49714 188.222 0.145671 181.473 0.625554C176.951 0.947402 172.71 2.83031 168.358 4.10422C164.008 5.38005 161.834 5.52266 156.965 5.37041Z" fill="#F5F5F5"/>
<path d="M167.815 19.8505C167.815 19.8505 159.446 19.7715 156.565 27.0352C153.684 34.299 156.985 37.8104 158.275 39.9477C159.565 42.0831 163.023 46.7316 163.052 51.1103L174.296 51.0409C174.296 51.0409 174.875 45.6678 178.236 40.0749C181.597 34.4821 181.196 30.4021 180.278 27.9642C179.36 25.5281 176.371 19.492 167.815 19.8505Z" fill="#FFC74F"/>
<path d="M170.366 50.7267C170.366 50.7267 170.352 50.6689 170.333 50.5533C170.316 50.4299 170.289 50.2584 170.254 50.0368C170.189 49.5762 170.094 48.9074 169.971 48.0517C169.739 46.3269 169.392 43.8272 169.174 40.7167C169.122 39.94 169.076 39.1248 169.053 38.2749C169.033 37.4249 169.006 36.5384 169.064 35.6191C169.124 34.7037 169.282 33.742 169.716 32.8478C170.15 31.967 170.867 31.1422 171.857 30.7471C172.838 30.3346 174.08 30.5659 174.876 31.3522C175.268 31.7435 175.528 32.3023 175.511 32.8786C175.501 33.451 175.274 34.008 174.927 34.4628C174.579 34.9253 174.099 35.2799 173.579 35.5305C173.056 35.7849 172.491 35.9429 171.922 36.0605C170.781 36.2917 169.604 36.4112 168.411 36.4363C167.219 36.4517 166.037 36.4189 164.884 36.232C164.309 36.1318 163.742 35.9757 163.216 35.7309C162.689 35.49 162.211 35.147 161.825 34.723C161.442 34.3009 161.15 33.7863 161.033 33.2294C160.909 32.6724 161.002 32.0846 161.247 31.5873C161.492 31.0901 161.902 30.6661 162.421 30.4676C162.938 30.2633 163.524 30.3289 164 30.5563C164.483 30.7837 164.88 31.1479 165.171 31.57C165.462 31.9978 165.636 32.4797 165.748 32.9595C165.965 33.9289 165.95 34.8848 166.002 35.7964C166.079 37.6235 166.153 39.3291 166.218 40.8843C166.345 43.991 166.448 46.5061 166.519 48.2541C166.55 49.1175 166.575 49.792 166.592 50.2565C166.598 50.48 166.602 50.6535 166.606 50.7788C166.608 50.8963 166.606 50.9561 166.606 50.9561C166.606 50.9561 166.598 50.8963 166.588 50.7788C166.581 50.6554 166.571 50.482 166.557 50.2584C166.532 49.794 166.496 49.1213 166.451 48.256C166.367 46.5099 166.247 43.9949 166.095 40.8901C166.023 39.3348 165.944 37.6312 165.859 35.8022C165.805 34.8887 165.815 33.9347 165.599 32.9942C165.489 32.5278 165.321 32.0614 165.044 31.6587C164.766 31.2578 164.384 30.9128 163.933 30.7008C163.486 30.4888 162.95 30.4329 162.479 30.6199C162.007 30.7991 161.623 31.1942 161.395 31.6606C161.166 32.127 161.081 32.6762 161.197 33.1947C161.307 33.7189 161.582 34.2045 161.951 34.6093C162.689 35.436 163.788 35.8754 164.913 36.0624C166.046 36.2455 167.225 36.2782 168.407 36.2628C169.591 36.2397 170.759 36.1183 171.887 35.8928C172.449 35.7752 173 35.6211 173.503 35.3763C174.009 35.1335 174.464 34.7981 174.792 34.3606C175.123 33.9309 175.335 33.4067 175.343 32.8767C175.36 32.3447 175.123 31.836 174.759 31.4679C174.014 30.7317 172.842 30.5062 171.914 30.8955C170.973 31.2674 170.275 32.0595 169.853 32.9133C169.431 33.7805 169.271 34.7249 169.207 35.6288C169.147 36.5384 169.17 37.423 169.186 38.271C169.205 39.119 169.248 39.9323 169.296 40.709C169.498 43.8157 169.826 46.3153 170.038 48.0421C170.146 48.9016 170.231 49.5704 170.289 50.0329C170.316 50.2546 170.337 50.4261 170.351 50.5494C170.364 50.667 170.366 50.7267 170.366 50.7267Z" fill="#192E35"/>
<path d="M163.047 50.9493L174.33 50.772L174.45 57.8931L171.175 61.8035L166.848 61.9885L163.184 57.6137" fill="#E0E0E0"/>
<path d="M171.176 61.8048C170.593 61.2151 169.743 60.8431 168.914 60.8894C168.088 60.9356 167.288 61.3519 166.775 62.0014" fill="#375964"/>
<path d="M174.149 57.3105C174.144 57.322 174.001 57.2526 173.742 57.1332C173.482 57.0137 173.104 56.8479 172.624 56.6783C171.668 56.3372 170.275 56.0134 168.723 56.0462C167.169 56.077 165.794 56.4586 164.853 56.8402C164.378 57.0291 164.008 57.2102 163.754 57.3413C163.499 57.4723 163.36 57.5475 163.352 57.5359C163.347 57.5263 163.476 57.4319 163.721 57.2835C163.966 57.1332 164.334 56.9347 164.806 56.7284C165.744 56.3141 167.14 55.9055 168.719 55.8727C170.3 55.84 171.71 56.1888 172.665 56.5646C173.147 56.7496 173.521 56.9347 173.771 57.0734C174.022 57.2122 174.155 57.3008 174.149 57.3105Z" fill="#192E35"/>
<path d="M174.164 55.5824C174.159 55.594 174.016 55.5246 173.756 55.4051C173.497 55.2837 173.119 55.1199 172.637 54.9503C171.683 54.6073 170.292 54.2854 168.738 54.3162C167.184 54.349 165.807 54.7306 164.868 55.1122C164.395 55.3011 164.021 55.4803 163.769 55.6113C163.516 55.7424 163.375 55.8176 163.368 55.806C163.362 55.7964 163.491 55.7038 163.736 55.5535C163.981 55.4032 164.347 55.2047 164.82 54.9985C165.759 54.5841 167.155 54.1775 168.734 54.1447C170.314 54.112 171.725 54.4608 172.68 54.8347C173.162 55.0216 173.536 55.2047 173.787 55.3454C174.037 55.4841 174.17 55.5728 174.164 55.5824Z" fill="#192E35"/>
<path d="M174.078 53.9362C174.072 53.9478 173.929 53.8784 173.671 53.7589C173.41 53.6375 173.033 53.4737 172.552 53.3041C171.596 52.9629 170.206 52.6392 168.651 52.6719C167.097 52.7028 165.722 53.0844 164.781 53.4659C164.309 53.6548 163.936 53.836 163.682 53.967C163.429 54.0981 163.289 54.1713 163.281 54.1617C163.277 54.152 163.404 54.0576 163.649 53.9092C163.894 53.7589 164.262 53.5604 164.733 53.3542C165.674 52.9379 167.068 52.5312 168.647 52.4985C170.229 52.4657 171.638 52.8145 172.595 53.1904C173.075 53.3754 173.449 53.5604 173.7 53.6991C173.952 53.8379 174.083 53.9266 174.078 53.9362Z" fill="#192E35"/>
<path d="M154.319 22.4855C154.29 22.5221 152.86 21.4891 151.122 20.1767C149.385 18.8623 148 17.7676 148.029 17.7291C148.056 17.6905 149.489 18.7255 151.226 20.0379C152.964 21.3523 154.348 22.4469 154.319 22.4855Z" fill="#192E35"/>
<path d="M156.686 19.3522C156.648 19.383 156.048 18.6988 155.346 17.8277C154.642 16.9547 154.104 16.2242 154.141 16.1953C154.178 16.1645 154.777 16.8467 155.481 17.7198C156.183 18.5909 156.723 19.3213 156.686 19.3522Z" fill="#192E35"/>
<path d="M161.833 18.6326C161.788 18.648 161.216 17.06 160.554 15.0845C159.895 13.1091 159.395 11.498 159.44 11.4825C159.486 11.4671 160.059 13.0552 160.718 15.0306C161.379 17.0041 161.877 18.6172 161.833 18.6326Z" fill="#192E35"/>
<path d="M168.159 17.2681C168.111 17.2758 167.961 16.4702 167.822 15.4719C167.683 14.4717 167.61 13.6584 167.656 13.6507C167.704 13.6449 167.855 14.4485 167.993 15.4488C168.132 16.4471 168.206 17.2623 168.159 17.2681Z" fill="#192E35"/>
<path d="M174.361 19.4082C174.315 19.3947 174.793 17.5176 175.432 15.2126C176.068 12.9077 176.623 11.0517 176.668 11.0633C176.714 11.0768 176.236 12.9539 175.598 15.2589C174.961 17.5639 174.408 19.4198 174.361 19.4082Z" fill="#192E35"/>
<path d="M179.591 21.9898C179.55 21.9647 180.021 21.1784 180.642 20.236C181.261 19.2916 181.797 18.5477 181.835 18.5747C181.876 18.5997 181.405 19.3861 180.786 20.3304C180.165 21.2728 179.631 22.0167 179.591 21.9898Z" fill="#192E35"/>
<path d="M187.873 20.909C187.9 20.9475 186.448 22.0441 184.627 23.3547C182.805 24.669 181.307 25.7001 181.28 25.6616C181.251 25.623 182.705 24.5284 184.525 23.2159C186.346 21.9035 187.844 20.8705 187.873 20.909Z" fill="#192E35"/>
</g>
<defs>
<clipPath id="clip0">
<rect width="341.434" height="170.717" fill="white" transform="translate(0.251953 0.582031)"/>
</clipPath>
</defs>
</svg>
