<svg width="24" height="4" viewBox="0 0 24 4" fill="none" xmlns="http://www.w3.org/2000/svg">
<path fill-rule="evenodd" clip-rule="evenodd" d="M2.66672 3.84082C1.63578 3.84082 0.800049 3.00508 0.800049 1.97415C0.800049 0.94322 1.63578 0.107485 2.66672 0.107485C3.69765 0.107485 4.53338 0.94322 4.53338 1.97415C4.53338 3.00508 3.69765 3.84082 2.66672 3.84082ZM12 3.84082C10.9691 3.84082 10.1334 3.00508 10.1334 1.97415C10.1334 0.94322 10.9691 0.107485 12 0.107485C13.031 0.107485 13.8667 0.94322 13.8667 1.97415C13.8667 3.00508 13.031 3.84082 12 3.84082ZM21.3334 3.84082C20.3025 3.84082 19.4667 3.00508 19.4667 1.97415C19.4667 0.943221 20.3025 0.107485 21.3334 0.107485C22.3643 0.107485 23.2001 0.94322 23.2001 1.97415C23.2001 3.00508 22.3643 3.84082 21.3334 3.84082Z" fill="#384047"/>
</svg>
