<svg width="1096" height="237" viewBox="0 0 1096 237" fill="none" xmlns="http://www.w3.org/2000/svg">
<path fill-rule="evenodd" clip-rule="evenodd" d="M521.812 106.012L527.159 81.0984H531.016L534.539 106.012H521.812Z" fill="#FDCB8E"/>
<path fill-rule="evenodd" clip-rule="evenodd" d="M540.775 93.4298C536.804 94.4531 521.577 86.6249 522.373 75.281C523.169 63.9372 538.966 66.4327 542.039 72.1581C545.111 77.8835 544.746 92.4065 540.775 93.4298Z" fill="#FDCB8E"/>
<path fill-rule="evenodd" clip-rule="evenodd" d="M534.785 65.5592C533.108 65.2842 528.592 65.0952 527.759 65.0953C527.227 65.0953 526.65 65.2168 526.335 64.7283C526.077 64.3283 526.171 63.6517 526.094 63.1874C526.005 62.6481 525.878 62.1158 525.749 61.5848C525.383 60.0737 524.83 58.6362 524.057 57.2866C522.605 54.7544 520.477 52.771 517.792 51.6168C514.826 50.3425 511.471 50.0507 508.281 50.3092C504.867 50.5857 501.777 51.7122 498.555 52.7722C495.483 53.7824 492.266 54.18 489.054 53.6867C485.818 53.1897 483.372 51.4362 480.643 49.7719C477.848 48.0681 474.654 46.9537 471.351 47.2099C468.267 47.4491 465.424 48.722 462.874 50.4224C460.488 52.0134 458.52 53.9275 457.408 56.6214C456.213 59.5193 456.214 62.7002 458.18 65.2613C461.03 68.9735 466.321 69.9335 470.723 69.8381C473.269 69.783 475.769 69.3184 478.173 68.4733C481.379 67.3461 484.149 65.4357 487.148 63.8856C488.556 63.1582 490.01 62.5608 491.535 62.1305C493.015 61.7128 494.473 61.5212 495.812 62.4148C497.23 63.3601 498.5 64.2887 500.121 64.8805C501.677 65.4482 503.324 65.7658 504.981 65.753C508.206 65.7281 511.384 64.7238 514.516 64.0511C517.07 63.5026 519.802 62.956 522.406 63.4832C523.492 63.7033 525.079 64.1575 525.471 65.2862C518.867 66.4827 516.273 74.6473 518.135 80.6409C519.14 83.8758 525.18 87.6575 527.529 85.9568C529.017 84.8794 528.113 83.4649 527.529 82.5312C526.409 80.743 526.026 78.4461 528.098 77.2011C529.885 76.1274 531.763 78.6772 531.799 78.6744C532.29 78.6357 536.533 76.2366 539.457 72.7358C542.341 72.9067 542.779 71.0056 542.09 69.4508C541.402 67.896 537.103 65.9393 534.785 65.5592Z" fill="#FFE456"/>
<path fill-rule="evenodd" clip-rule="evenodd" d="M517.572 150.008L556.974 215.858L586.514 271.528H592.877L543.382 150.008L517.572 150.008Z" fill="#997659"/>
<path fill-rule="evenodd" clip-rule="evenodd" d="M578.309 262.614L590.58 258.903C585.204 242.838 578.615 225.158 570.813 205.864C563.011 186.571 554.631 167.952 545.675 150.008H511.019C520.977 172.706 531.533 193.331 542.688 211.881C553.843 230.432 565.716 247.342 578.309 262.614Z" fill="#D7323E"/>
<path fill-rule="evenodd" clip-rule="evenodd" d="M514.982 150.008C511.263 173.148 504.091 202.712 503.414 203.625C502.962 204.233 486.717 209.675 454.677 219.95L456.051 225.559C494.259 220.048 514.391 215.773 516.448 212.732C519.533 208.172 534.937 172.146 540.903 150.008H514.982Z" fill="#B28B67"/>
<path fill-rule="evenodd" clip-rule="evenodd" d="M465.939 215.102L468.36 224.135C496.938 226.64 514.447 224.83 520.89 218.704C527.332 212.578 534.675 189.679 542.918 150.008H509.871C504.649 182.493 501.729 199.418 501.112 200.781C500.495 202.145 488.771 206.918 465.939 215.102Z" fill="#E63946"/>
<path fill-rule="evenodd" clip-rule="evenodd" d="M456.245 217.613C454.582 217.304 453.364 217.217 452.59 217.354C451.648 217.52 450.302 217.919 448.551 218.551C448.744 219.643 450.475 229.457 453.746 247.994C456.411 248.314 457.699 247.631 457.61 245.947C457.52 244.263 457.461 242.862 457.431 241.743L461.119 226.982C461.19 226.698 461.017 226.41 460.733 226.339C460.728 226.338 460.723 226.337 460.718 226.336L458.429 225.832C457.448 224.432 456.873 223.254 456.704 222.3C456.568 221.525 456.692 220.399 457.077 218.923L457.077 218.923C457.225 218.357 456.885 217.777 456.319 217.63C456.294 217.623 456.27 217.618 456.245 217.613Z" fill="#E4E4E4"/>
<path fill-rule="evenodd" clip-rule="evenodd" d="M563.197 141.592L578.218 156.241C582.589 158.105 586.17 160.162 588.962 162.415C589.589 163.172 590.273 164.622 587.319 163.973C584.365 163.324 581.229 162.774 580.674 163.734C580.119 164.694 581.755 166.166 580.729 167.422C580.045 168.26 577.745 165.595 573.828 159.428L558.208 150.222L563.197 141.592Z" fill="#FDCB8E"/>
<path fill-rule="evenodd" clip-rule="evenodd" d="M528.014 97.1767L532.6 96.3905C540.494 116.104 554.277 134.017 573.948 150.128L559.083 168.18C539.415 145.24 527.291 121.572 528.014 97.1767Z" fill="#191847"/>
<path fill-rule="evenodd" clip-rule="evenodd" d="M496.523 143.658C492.996 164.134 490.714 175.423 489.678 177.524C488.918 179.064 483.296 183.745 479.394 186.419C477.828 187.493 478.476 188.866 479.068 189.231C483.879 192.198 487.046 188.69 491.21 186.753C495.772 184.631 495.387 190.622 499.003 189.005C497.893 186.517 495.296 181.887 496.523 178.847C497.069 177.497 500.762 165.781 507.605 143.702L496.523 143.658Z" fill="#FDCB8E"/>
<path fill-rule="evenodd" clip-rule="evenodd" d="M508.026 154.779H548.857C539.397 131.787 534.667 112.256 534.667 96.1848L522.965 94.3503C513.285 109.913 509.938 129.073 508.026 154.779Z" fill="#DDE3E9"/>
<path fill-rule="evenodd" clip-rule="evenodd" d="M499.197 165.702H535.786C532.424 134.287 530.585 113.397 530.27 103.031L527.294 95.0594L522.094 94.3503C513.421 109.913 500.91 139.995 499.197 165.702Z" fill="#2F3676"/>
<path fill-rule="evenodd" clip-rule="evenodd" d="M510.412 124.565C510.505 145.462 512.537 159.244 516.51 165.911H504.314L510.412 124.565Z" fill="black" fill-opacity="0.1"/>
<path fill-rule="evenodd" clip-rule="evenodd" d="M522.08 94.3503C503.315 112.725 492.444 138.699 489.467 172.272H509.368C507.306 144.002 512.692 119.049 525.525 97.4112L522.08 94.3503Z" fill="#2F3676"/>
<path fill-rule="evenodd" clip-rule="evenodd" d="M514.978 149.478L528.176 143.345V149.478H514.978Z" fill="white" fill-opacity="0.2"/>
<path fill-rule="evenodd" clip-rule="evenodd" d="M725.726 104.53L731.119 79.4006H735.009L738.563 104.53H725.726Z" fill="#FCCA8E"/>
<path fill-rule="evenodd" clip-rule="evenodd" d="M744.853 91.8392C740.847 92.8714 725.488 84.9753 726.291 73.533C727.094 62.0907 743.028 64.6079 746.127 70.383C749.227 76.158 748.858 90.807 744.853 91.8392Z" fill="#FCCA8E"/>
<path fill-rule="evenodd" clip-rule="evenodd" d="M751.814 62.3771C751.548 61.4431 750.833 60.6433 749.87 60.4061C749.636 60.3485 749.395 60.3253 749.154 60.335C749.068 60.3384 749.044 60.3633 749.004 60.303C748.974 60.2583 748.973 60.1491 748.961 60.0966C748.923 59.9332 748.875 59.7719 748.816 59.6148C748.614 59.0788 748.275 58.6045 747.867 58.205C747.103 57.4575 746.07 56.9416 744.998 56.8483C744.411 56.7972 743.828 56.8926 743.273 57.0834C742.986 57.1822 742.708 57.3053 742.436 57.4413C742.355 57.4822 742.089 57.6828 742.007 57.6698C741.917 57.6555 741.735 57.4305 741.661 57.3741C740.751 56.6761 739.628 56.4017 738.494 56.4101C737.215 56.4195 735.983 56.4834 734.916 57.2631C734.69 57.4282 734.475 57.6089 734.27 57.7992C734.162 57.8994 734.058 58.0033 733.958 58.1115C733.898 58.1769 733.839 58.2436 733.783 58.3122C733.687 58.4286 733.703 58.4669 733.569 58.3856C733.055 58.0738 732.46 57.9279 731.861 58.0015C731.505 58.0453 731.159 58.1521 730.83 58.2927C730.718 58.3405 730.459 58.5315 730.339 58.5333C730.221 58.5351 729.966 58.3582 729.844 58.3132C729.185 58.0702 728.475 58.0103 727.783 58.1226C727.069 58.2384 726.368 58.5232 725.763 58.9167C725.472 59.106 725.218 59.3157 725.014 59.5972C724.926 59.7187 724.846 59.8473 724.747 59.96C724.688 60.0259 724.572 60.0936 724.541 60.1771C724.56 60.1271 723.76 59.819 723.685 59.7993C723.283 59.6943 722.873 59.7156 722.48 59.8451C721.74 60.0886 721.103 60.6347 720.58 61.1946C720.311 61.4822 720.076 61.8 719.876 62.1387C719.781 62.3009 719.693 62.4678 719.613 62.6382C719.574 62.7207 719.549 62.824 719.498 62.8984C719.432 62.9942 719.387 62.996 719.268 63.0378C718.662 63.25 718.11 63.6091 717.69 64.0943C717.264 64.5852 716.988 65.1898 716.873 65.8264C716.866 65.8639 716.862 66.0193 716.84 66.0396C716.81 66.0675 716.688 66.0552 716.642 66.0606C716.482 66.0793 716.324 66.1072 716.167 66.1442C715.879 66.2124 715.599 66.3127 715.333 66.444C714.299 66.9556 713.559 67.9148 713.197 68.9941C712.817 70.1268 712.824 71.4244 713.278 72.536C713.351 72.7155 713.438 72.8898 713.541 73.0546C713.604 73.1558 713.624 73.1561 713.583 73.2623C713.538 73.3804 713.455 73.4952 713.4 73.6106C713.224 73.9872 713.101 74.3867 713.023 74.7947C712.895 75.464 712.831 76.1674 712.958 76.8418C713.016 77.1549 713.118 77.461 713.274 77.7399C713.353 77.8821 713.446 78.017 713.551 78.1418C713.605 78.2065 713.663 78.2684 713.724 78.3277C713.758 78.3615 713.804 78.3912 713.833 78.429C713.905 78.5212 713.92 78.4454 713.883 78.5808C713.831 78.7701 713.714 78.9568 713.642 79.141C713.568 79.3309 713.501 79.5233 713.44 79.7176C713.316 80.1111 713.211 80.5117 713.145 80.9192C713.02 81.7015 713.042 82.5351 713.412 83.2532C713.57 83.5603 713.797 83.8297 714.073 84.0393C714.207 84.1419 714.353 84.2302 714.507 84.3028C714.585 84.3402 714.686 84.3562 714.722 84.4323C714.76 84.5141 714.703 84.6766 714.69 84.768C714.576 85.5638 714.519 86.3992 714.756 87.179C714.974 87.8973 715.453 88.5314 716.076 88.9513C717.285 89.7657 718.914 89.7198 720.184 89.0678C720.515 88.8978 720.825 88.6868 721.101 88.4378C721.804 89.3845 723.252 89.3545 724.28 89.0848C725.561 88.7488 726.589 87.8584 727.181 86.6886C727.991 87.674 729.69 87.3542 730.252 86.2853C730.389 86.0236 730.471 85.7353 730.511 85.4435C730.532 85.2901 730.518 85.1353 730.534 84.9831C730.555 84.7891 730.684 84.6006 730.759 84.413C730.904 84.0478 730.994 83.6706 730.998 83.2767C731 83.071 730.974 82.8706 730.954 82.6666C730.937 82.4829 730.988 82.3118 731.016 82.1306C730.688 82.1846 730.288 82.0961 729.978 82.0009C729.674 81.9074 729.39 81.6613 729.176 81.4366C728.678 80.9146 728.374 80.2305 728.166 79.5495C727.709 78.055 727.896 76.2618 729.4 75.4416C730.101 75.0595 732.2 75.0607 733.034 75.2496C733.911 75.4482 734.906 77.3833 734.955 77.5652C734.985 77.6777 734.97 77.8171 735.073 77.8921C735.301 78.057 735.676 77.7708 735.843 77.6295C736.133 77.3857 736.339 77.0614 736.518 76.7326C736.907 76.0163 737.221 75.2481 737.443 74.4639C737.614 73.8593 737.723 73.2359 737.947 72.6467C738.169 72.0605 738.52 71.5365 739.065 71.2044C739.658 70.8431 740.338 70.6528 740.989 70.4258C741.634 70.2008 742.269 69.9258 742.769 69.4483C742.879 69.3434 742.986 69.2318 743.074 69.1082C743.144 69.0106 743.213 68.8238 743.32 68.762C743.485 68.6657 743.727 68.916 743.87 69.0069C744.576 69.4553 745.165 70.0806 745.641 70.7638C746.113 71.4432 746.501 72.097 746.816 72.8557C747.05 73.4184 747.196 74.139 747.607 74.6001C747.79 74.806 749.154 74.9306 749.596 74.7508C750.038 74.5711 750.533 74.1043 750.682 73.8118C750.834 73.5124 750.87 73.1835 750.805 72.8557C750.767 72.6628 750.689 72.4827 750.646 72.2933C750.61 72.1342 750.578 71.9838 750.5 71.8381C750.354 71.5619 750.103 71.3633 749.8 71.2803C750.115 70.9902 750.376 70.6431 750.556 70.2551C750.744 69.852 750.903 69.3618 750.948 68.9194C750.985 68.56 750.928 68.1877 750.731 67.8789C750.525 67.5549 750.159 67.3436 749.843 67.1415C750.326 66.7635 750.74 66.3038 751.08 65.7948C751.741 64.8049 752.15 63.5572 751.814 62.3771Z" fill="#DB2721"/>
<path fill-rule="evenodd" clip-rule="evenodd" d="M720.377 148.909L746.094 216.934L764.12 267.072H774.398L749.62 148.909L720.377 148.909Z" fill="#1F28CF"/>
<path fill-rule="evenodd" clip-rule="evenodd" d="M714.021 148.909C713.741 172.249 713.943 203.674 713.292 205.129C712.858 206.099 699.351 217.15 672.774 238.284L678.071 247.289C709.625 226.948 726.209 215.422 727.822 212.712C730.242 208.647 742.399 171.238 748.724 148.909H714.021Z" fill="#2B44FF"/>
<path fill-rule="evenodd" clip-rule="evenodd" d="M766.376 127.688L787.494 124.808C791.718 122.459 795.604 120.869 799.153 120.038C800.151 120.009 801.739 120.371 799.373 122.343C797.007 124.315 794.606 126.497 795.028 127.549C795.449 128.602 797.65 128.21 798.014 129.829C798.257 130.908 794.686 131.083 787.3 130.355L770.165 137.146L766.376 127.688Z" fill="#FCCA8E"/>
<path fill-rule="evenodd" clip-rule="evenodd" d="M732.117 95.4411L741.287 96.0518C743.545 116.477 755.847 129.378 783.39 125.011L787.049 151.314C761.306 154.64 738.73 144.337 734.103 116.442C732.905 109.221 731.959 101.706 732.117 95.4411Z" fill="#E87613"/>
<path fill-rule="evenodd" clip-rule="evenodd" d="M700.036 132.574C690.893 159.847 685.799 174.543 684.754 176.663C683.988 178.217 678.317 182.938 674.381 185.635C672.802 186.718 673.455 188.104 674.052 188.472C678.905 191.465 682.1 187.925 686.3 185.972C690.901 183.832 690.513 189.875 694.161 188.243C693.041 185.734 690.421 181.064 691.659 177.998C692.209 176.635 698.906 161.509 711.748 132.618L700.036 132.574Z" fill="#FCCA8E"/>
<path fill-rule="evenodd" clip-rule="evenodd" d="M710.749 152.651H753.004C749.099 135.087 741.487 119.846 741.487 95.9571L727.555 92.7676C717.538 108.189 712.728 127.177 710.749 152.651Z" fill="#FF9B21"/>
<path fill-rule="evenodd" clip-rule="evenodd" d="M710.749 152.651H723.106C720.166 140.942 720.223 121.872 723.277 95.4412C714.397 110.863 712.503 127.177 710.749 152.651Z" fill="black" fill-opacity="0.1"/>
<path fill-rule="evenodd" clip-rule="evenodd" d="M726.676 92.7676C706.166 111.302 692.728 137.501 686.361 171.365H714.458C715.21 142.85 719.043 117.681 730.233 95.855L727.586 92.7676H726.676Z" fill="#FF9B21"/>
<path fill-rule="evenodd" clip-rule="evenodd" d="M633.212 69.6936L631.638 38.6043L636.188 37.3859L648.226 65.6728L633.212 69.6936Z" fill="#B28B67"/>
<path fill-rule="evenodd" clip-rule="evenodd" d="M651.606 48.8552C647.244 51.3176 626.801 46.8905 624.152 33.2519C621.502 19.6133 640.929 17.5673 646.367 23.3531C651.804 29.1388 655.968 46.3929 651.606 48.8552Z" fill="#B28B67"/>
<path fill-rule="evenodd" clip-rule="evenodd" d="M638.462 17.5832C636.243 17.5072 633.207 18.0927 631.993 18.5718C632.248 16.6736 632.021 14.6957 631.294 12.9053C630.587 11.1657 629.372 9.84871 628.198 8.4422C627.656 7.79389 627.07 7.16185 626.339 6.75089C625.594 6.33219 624.745 6.15156 623.913 6.17973C623.062 6.20851 622.227 6.4485 621.47 6.83225C621.134 7.00201 620.859 7.24973 620.535 7.43328C620.203 7.6213 619.97 7.44441 619.651 7.28942C618.882 6.91597 617.896 6.89411 617.081 7.01003C616.166 7.14012 615.283 7.51983 614.517 8.03715C613.77 8.54073 613.104 9.21244 612.689 10.042C612.504 10.4113 612.355 10.8153 612.3 11.2322C612.277 11.4032 612.291 11.4972 612.152 11.5947C612.024 11.685 611.858 11.731 611.725 11.8199C610.436 12.6796 609.518 14.0994 609.235 15.6822C609.069 16.6056 609.274 18.0988 609.758 19.7042C610.242 21.3096 612.837 25.142 614.617 26.3165C616.206 27.3648 618.244 27.7918 620.082 27.7254C619.284 29.3465 618.959 31.1925 618.841 33.013C618.713 34.9906 618.837 36.9763 619.212 38.9333C619.567 40.7927 620.072 42.7246 620.978 44.3948C621.825 45.9567 623.048 47.0968 624.709 47.5829C625.47 47.8056 626.254 47.916 627.035 47.9997C627.805 48.082 628.575 48.1564 629.346 48.1117C630.806 48.0271 632.386 47.5513 633.157 46.1653C633.434 45.6656 633.723 45.0539 633.873 44.4942C633.927 44.2929 633.957 44.1626 633.789 44.025C633.588 43.8602 633.309 43.7673 633.078 43.6581C631.76 43.0355 630.769 41.9984 630.214 40.5992C629.652 39.1796 629.538 37.183 630.792 36.1619C632.339 34.9016 634.519 35.2889 636.308 35.7148C636.344 33.1925 637.143 30.7163 638.993 29.0682C641.04 27.2448 643.718 26.3785 645.876 24.7065C646.438 24.2708 647.003 23.7961 647.324 23.1292C647.458 22.8504 647.608 22.4954 647.606 22.1749C647.602 21.754 647.26 21.4921 646.982 21.2378C645.506 19.8896 640.682 17.6593 638.462 17.5832Z" fill="#191847"/>
<path fill-rule="evenodd" clip-rule="evenodd" d="M635.238 121.929L658.724 204.316L675.859 265.04H688.357L670.148 121.929H635.238Z" fill="#191847"/>
<path fill-rule="evenodd" clip-rule="evenodd" d="M628.957 121.929C628.414 164.393 626.562 187.553 625.991 191.411C625.421 195.269 616.797 219.812 600.119 265.04H613.066C634.298 221.652 646.15 197.109 648.623 191.411C651.096 185.714 658.726 162.553 670.219 121.929H628.957Z" fill="#2F3676"/>
<path fill-rule="evenodd" clip-rule="evenodd" d="M688.073 104.997L710.21 117.925C715.941 118.844 720.794 120.225 724.769 122.07C725.737 122.782 726.976 124.3 723.283 124.403C719.59 124.506 715.71 124.78 715.336 126.083C714.962 127.385 717.336 128.646 716.492 130.439C715.929 131.634 712.414 129.154 705.948 123L684.711 116.701L688.073 104.997Z" fill="#B28B67"/>
<path fill-rule="evenodd" clip-rule="evenodd" d="M638.729 58.934L645.322 55.3855C659.003 77.4302 677.216 97.8829 704.3 113.096L700.229 124.221C677.27 115.638 655.904 109.593 644.673 92.6219C640.903 86.926 639.812 66.3481 638.729 58.934Z" fill="#C5CFD6"/>
<path fill-rule="evenodd" clip-rule="evenodd" d="M599.623 113.307C594.82 139.697 591.83 154.197 590.655 156.806C589.794 158.72 583.129 164.673 578.481 168.105C576.614 169.482 577.464 171.131 578.202 171.552C584.202 174.97 587.919 170.551 592.92 168.009C598.399 165.225 598.185 172.556 602.531 170.427C601.069 167.437 597.701 161.895 599.069 158.131C599.677 156.459 603.725 141.4 611.211 112.956L599.623 113.307Z" fill="#B28B67"/>
<path fill-rule="evenodd" clip-rule="evenodd" d="M631.931 56.2872C606.356 79.64 592.468 111.875 590.268 152.992L602.983 153.97C608.419 118.748 619.445 97.7642 636.061 91.0194L631.931 56.2872Z" fill="#DDE3E9"/>
<path fill-rule="evenodd" clip-rule="evenodd" d="M626.459 129.925C646.888 128.517 662.674 125.735 673.815 121.58C675.195 121.065 674.999 118.637 674.051 117.133C659.294 93.7091 648.343 72.931 645.25 55.4C643.528 56.6861 640.244 57.4119 635.4 57.5776C625.884 77.8825 623.702 99.6405 626.459 129.925Z" fill="#323337"/>
<path fill-rule="evenodd" clip-rule="evenodd" d="M613.706 201.615L678.647 190.17C660.981 160.179 639.777 62.7178 637.266 55.6872L631.004 56.7907C623.309 89.0689 607.742 154.831 613.706 201.615Z" fill="#DDE3E9"/>
<path fill-rule="evenodd" clip-rule="evenodd" d="M842.499 65.0254L856.69 37.3149L861.24 38.5333L857.514 69.0462L842.499 65.0254Z" fill="#B28B67"/>
<path fill-rule="evenodd" clip-rule="evenodd" d="M868.852 56.1704C863.843 56.1232 848.353 42.0741 852.882 28.9387C857.411 15.8032 875.26 23.7392 877.074 31.4667C878.887 39.1942 873.862 56.2175 868.852 56.1704Z" fill="#B28B67"/>
<path fill-rule="evenodd" clip-rule="evenodd" d="M874.885 26.1049C874.596 25.8076 873.992 25.182 873.67 24.9275C873.594 24.8666 873.105 24.274 873.087 24.2752C872.589 24.3069 871.112 24.5219 870.866 24.9835C870.839 25.0161 870.812 25.0465 870.787 25.0725C870.508 25.3634 870.242 25.6668 869.983 25.9766C869.414 26.6567 868.885 27.385 868.372 28.1108C867.373 29.5241 866.44 30.9944 865.547 32.4791C864.637 33.9905 863.793 35.5401 862.905 37.0646C861.628 39.2583 860.185 41.3456 858.912 43.5395C858.099 44.9403 857.463 46.4073 857.153 47.9903C857.149 48.0092 857.145 48.0278 857.141 48.0473C857.14 48.0552 857.139 48.0632 857.138 48.0711C857.092 48.3149 857.053 48.5614 857.024 48.8109C856.999 49.0244 856.974 49.2387 856.951 49.4535C857.847 48.4461 858.636 47.2831 859.435 46.1927C859.514 46.0859 859.59 45.9777 859.665 45.8688C859.884 45.6628 860.105 45.4594 860.328 45.2574C861.732 43.9835 863.139 42.7162 864.51 41.4035C866.975 39.0426 869.441 36.6177 872.162 34.5721C872.966 33.968 873.78 33.3794 874.578 32.767C875.032 32.4186 875.479 32.0604 875.918 31.6915C876.232 31.4277 877.52 30.5604 877.346 29.7853C877.256 29.3887 875.634 26.8763 874.885 26.1049Z" fill="#2C2C2C"/>
<path fill-rule="evenodd" clip-rule="evenodd" d="M873.762 25.0116C874.067 25.2136 874.09 24.4741 873.832 24.1425C872.635 22.6061 867.008 20.6579 861.737 20.3572C858.206 20.1557 853.852 20.842 850.585 22.348C847.64 23.7057 845.122 26.4725 843.438 29.3459C841.669 32.3631 840.623 35.7222 840.227 39.1956C840.14 39.9585 840.188 40.7207 840.126 41.4739C840.057 42.3221 839.924 43.1209 839.977 43.9782C840.009 44.503 840.157 45.0485 840.164 45.5698C840.173 46.1646 839.94 46.6503 839.675 47.1818C839.243 48.0481 838.766 48.9005 838.203 49.6875C837.356 50.8693 836.427 51.9395 835.685 53.2026C834.699 54.8831 831.023 60.2275 832.121 62.2463L861.224 70.0398C861.027 67.8448 859.458 64.9034 859.587 62.6446C859.662 61.3139 860.276 58.5279 860.275 58.4205C860.831 53.7246 860.129 51.223 859.537 50.2248C858.945 49.2266 857.941 48.6997 858.069 48.0054C858.595 45.1339 860.434 42.7403 861.957 40.3368C863.772 37.4722 865.347 34.4601 867.19 31.6142C868.006 30.354 872.182 23.9631 873.762 25.0116Z" fill="#758EE6"/>
<path fill-rule="evenodd" clip-rule="evenodd" d="M854.437 27.9953C854.883 28.0399 855.233 28.1646 855.689 28.3304C855.455 28.7605 855.208 29.2362 855.353 29.5814C854.876 30.3253 854.672 31.1219 854.682 32.0835C854.129 33.606 853.908 35.3063 853.966 37.2553C853.934 40.0308 854.562 43.1102 855.707 45.7669C856.181 46.5035 856.54 47.191 857.081 48.146C856.994 48.1379 857.15 48.442 856.913 48.7716C856.629 48.7538 856.465 48.6581 856.288 48.604C855.894 48.1695 855.585 47.3111 855.372 47.0179C854.988 46.2078 854.651 45.5869 854.624 44.8063C853.181 42.1404 852.74 38.8281 853.05 35.6692C853.008 34.2832 853.257 32.8186 853.599 31.1229C853.687 30.89 853.809 30.4329 853.934 29.8719C854.067 29.5191 854.188 28.453 854.437 27.9953ZM845.956 37.1215C845.474 36.4937 844.269 30.2872 845.13 30.1961C845.917 30.2584 845.6 31.5696 845.421 31.6147C845.588 32.6361 846.586 36.7705 846.817 37.8679C847.36 39.2361 847.45 40.3931 848.245 41.0868C848.884 42.3706 849.795 43.2755 850.703 44.4266C850.836 44.3508 851.576 44.8777 851.16 45.2197C850.726 45.2945 850.157 44.5369 850.077 44.2591C849.526 43.9021 849.11 43.4619 848.368 43.1309C847.134 41.3767 846.193 39.4416 845.956 37.1215ZM844.066 46.672C844.484 46.5187 845.048 47.6791 845.149 47.6326C845.715 48.5319 846.213 49.1109 846.691 49.3862C847.665 50.715 848.675 51.6867 849.774 52.8936C851.616 54.4398 853.337 56.2106 854.23 58.7801C854.714 58.8686 855.387 59.8409 855.146 60.3662C854.91 60.642 854.623 59.8652 854.688 59.5731C853.997 58.5899 853.381 57.4642 852.856 56.4009C851.028 54.5093 849.011 52.942 847.606 50.9724C846.634 50.4468 846.01 49.7713 845.439 49.0512C845.24 48.8417 843.607 47.039 844.066 46.672ZM862.493 25.4594C862.694 25.2469 862.233 26.2582 862.325 26.085C862.013 26.7782 861.838 27.1934 861.822 27.9616C861.316 28.4422 860.97 29.2778 860.526 30.2961C860.322 31.0456 859.998 31.9706 859.855 32.7983C859.502 33.4143 859.323 33.9308 859.352 34.6749C859.078 34.6529 858.952 35.4702 858.559 35.1329C858.499 34.9199 859.012 33.8915 858.894 33.8818C859.232 33.2373 859.382 32.7988 859.397 32.0052C859.839 31.4574 860.147 30.5528 860.694 29.6706C860.766 28.9546 861.05 28.2505 861.197 27.794C861.483 27.2168 861.623 26.884 861.532 26.543C861.886 26.2605 861.997 25.6322 862.493 25.4594Z" fill="#657BC7"/>
<path fill-rule="evenodd" clip-rule="evenodd" d="M822.22 121.929C823.388 137.865 898.635 184.784 899.074 186.1C899.269 186.685 891.462 205.18 875.653 241.584L882.23 244.139C906.48 205.584 917.981 184.253 916.736 180.145C914.953 174.263 895.492 154.914 858.352 122.098L822.22 121.929Z" fill="#B28B67"/>
<path fill-rule="evenodd" clip-rule="evenodd" d="M877.383 233.362L888.122 237.27C910.768 211.729 919.644 190.655 918.025 179.917C916.946 172.759 897.552 153.443 859.843 121.968L821.449 121.968C822.759 158.874 892.504 186.24 893.437 187.813C894.37 189.386 885.189 204.789 877.383 233.362Z" fill="#2F3676"/>
<path fill-rule="evenodd" clip-rule="evenodd" d="M873.233 240.329C871.89 241.899 871.054 243.135 870.726 244.037C870.326 245.135 869.926 246.803 869.525 249.041C870.798 249.505 882.242 253.668 903.857 261.531C905.823 258.907 905.888 257.128 904.051 256.193C902.215 255.259 900.695 254.466 899.493 253.814L886.125 240.896C885.868 240.647 885.458 240.654 885.209 240.911C885.205 240.916 885.201 240.92 885.197 240.925L883.265 243.039C881.184 243.222 879.586 243.111 878.474 242.706C877.57 242.378 876.455 241.558 875.128 240.249L875.128 240.249C874.619 239.747 873.798 239.752 873.296 240.261C873.274 240.283 873.253 240.306 873.233 240.329Z" fill="#E4E4E4"/>
<path fill-rule="evenodd" clip-rule="evenodd" d="M830.872 121.929L797.351 202.373L764.406 270.382H772.178L857.22 121.929H830.872Z" fill="#997659"/>
<path fill-rule="evenodd" clip-rule="evenodd" d="M767.381 256.254L784.652 259.492C798.006 239.866 853.895 159.391 860.022 121.929H821.572C801.109 149.01 780.11 236.303 767.381 256.254Z" fill="#5C63AB"/>
<path fill-rule="evenodd" clip-rule="evenodd" d="M887.827 103.703L913.621 104.707C919.153 102.793 924.123 101.713 928.53 101.467C929.727 101.642 931.545 102.408 928.308 104.263C925.071 106.118 921.748 108.216 922.029 109.56C922.311 110.904 925.018 110.899 925.112 112.906C925.175 114.245 920.878 113.703 912.222 111.282L890.356 115.781L887.827 103.703Z" fill="#997659"/>
<path fill-rule="evenodd" clip-rule="evenodd" d="M853.753 58.0379L864.562 60.6937C862.957 85.5313 874.914 103.505 908.683 104.085L907.511 136.228C876.109 134.784 851.35 117.75 851.702 83.5053C851.793 74.6404 852.247 65.4779 853.753 58.0379Z" fill="#AFB9C5"/>
<path fill-rule="evenodd" clip-rule="evenodd" d="M807.676 95.5839C791.03 126.191 781.861 142.648 780.169 144.956C778.928 146.648 771.17 151.087 765.908 153.478C763.796 154.437 764.284 156.227 764.918 156.791C770.076 161.381 774.632 157.831 780.053 156.384C785.992 154.799 784.257 161.924 788.951 160.745C788.144 157.516 786.003 151.396 788.124 148C789.067 146.49 800.238 129.856 821.637 98.0977L807.676 95.5839Z" fill="#B28B67"/>
<path fill-rule="evenodd" clip-rule="evenodd" d="M816.228 121.785L866.622 130.666C865.662 108.895 859.79 89.1157 864.817 60.6217L848.873 53.8894C833.681 70.1788 823.948 91.8154 816.228 121.785Z" fill="#C5CFD6"/>
<path fill-rule="evenodd" clip-rule="evenodd" d="M816.228 121.783L830.964 124.38C829.922 109.796 834.003 87.0624 843.206 56.1787C829.371 72.7068 823.679 91.7672 816.228 121.783Z" fill="black" fill-opacity="0.1"/>
<path fill-rule="evenodd" clip-rule="evenodd" d="M847.823 53.7026C819.462 71.4987 797.921 99.9237 783.202 138.978L816.711 144.883C823.609 111.03 833.476 81.8136 851.415 58.1327L848.908 53.8938L847.823 53.7026Z" fill="#C5CFD6"/>
<path fill-rule="evenodd" clip-rule="evenodd" d="M1016.51 107.722L1021.8 83.0576H1025.62L1029.11 107.722H1016.51Z" fill="#B86030"/>
<path fill-rule="evenodd" clip-rule="evenodd" d="M1035.28 95.2653C1031.35 96.2784 1016.28 88.5286 1017.06 77.2984C1017.85 66.0682 1033.49 68.5387 1036.53 74.2067C1039.58 79.8748 1039.21 94.2523 1035.28 95.2653Z" fill="#B86030"/>
<path fill-rule="evenodd" clip-rule="evenodd" d="M1005.3 151.277C1006.25 164.191 1067.22 202.212 1067.58 203.279C1067.74 203.753 1061.41 218.741 1048.6 248.242L1053.93 250.313C1073.58 219.069 1082.9 201.782 1081.89 198.453C1080.45 193.687 1064.68 178.007 1034.58 151.414L1005.3 151.277Z" fill="#B86030"/>
<path fill-rule="evenodd" clip-rule="evenodd" d="M1050 241.58L1058.71 244.746C1077.06 224.048 1084.25 206.971 1082.94 198.269C1082.06 192.468 1066.35 176.815 1035.79 151.308L1004.68 151.308C1005.74 181.216 1062.26 203.393 1063.01 204.668C1063.77 205.942 1056.33 218.424 1050 241.58Z" fill="#2F3676"/>
<path fill-rule="evenodd" clip-rule="evenodd" d="M1012.31 151.277L985.147 216.467L958.449 271.58H964.748L1033.66 151.277H1012.31Z" fill="#997659"/>
<path fill-rule="evenodd" clip-rule="evenodd" d="M960.86 260.131L974.856 262.755C985.678 246.85 1030.97 181.636 1035.93 151.277H1004.77C988.192 173.223 971.175 243.963 960.86 260.131Z" fill="#5C63AB"/>
<path fill-rule="evenodd" clip-rule="evenodd" d="M1054.36 132.474L1071.11 144.765C1075.65 145.99 1079.44 147.514 1082.49 149.337C1083.21 149.993 1084.08 151.321 1081.1 151.092C1078.11 150.862 1074.96 150.755 1074.55 151.773C1074.14 152.791 1075.94 154.008 1075.11 155.382C1074.55 156.298 1071.93 154.002 1067.24 148.495L1050.66 141.622L1054.36 132.474Z" fill="#B86030"/>
<path fill-rule="evenodd" clip-rule="evenodd" d="M1028.36 99.3702C1037.47 116.368 1050.66 129.397 1069.77 142.941L1062.53 151.1C1041.19 143.172 1029.93 138.389 1024.4 122.329C1023.01 118.299 1022.04 105.45 1021.21 98.6896L1028.36 99.3702Z" fill="#2026A2"/>
<path fill-rule="evenodd" clip-rule="evenodd" d="M1002.86 156H1043.28C1034.13 128.085 1029.45 108.926 1029.25 98.523C1029.24 97.9927 1028.26 97.0581 1027.83 97.1805C1024.66 98.0755 1021.27 97.7409 1017.65 96.1765C1008.07 111.583 1004.75 130.551 1002.86 156Z" fill="#F2F2F2"/>
<path fill-rule="evenodd" clip-rule="evenodd" d="M998.322 168.912C1006.03 168.912 1013.22 168.912 1019.87 168.912C1037.71 168.912 1033.2 132.612 1021.09 96.1765C1018.31 96.1765 1016.22 96.1765 1014.83 96.1765C1013.23 96.1765 1012.55 97.3343 1012.24 97.9484C1003.9 114.031 994.899 145.916 998.322 168.912Z" fill="#1F28CF"/>
<path fill-rule="evenodd" clip-rule="evenodd" d="M1056.12 97.4047L1076.02 91.4337C1079.73 88.5452 1083.23 86.4332 1086.52 85.0978C1087.48 84.9178 1089.06 85.0223 1087.08 87.2674C1085.1 89.5125 1083.12 91.963 1083.69 92.9043C1084.25 93.8457 1086.31 93.1361 1086.91 94.6272C1087.31 95.6214 1083.89 96.3334 1076.67 96.7633L1061.2 105.865L1056.12 97.4047Z" fill="#B86030"/>
<path fill-rule="evenodd" clip-rule="evenodd" d="M1020.19 96.1981C1031.68 96.1763 1050.91 98.5973 1073.17 91.4534L1075.31 102.145C1056.17 114.445 1036.76 123.509 1020.66 118.28C1017.97 117.405 1022.06 109.788 1020.19 96.1981Z" fill="#1F28CF"/>
<path fill-rule="evenodd" clip-rule="evenodd" d="M264.177 33.8845C268.168 40.0775 277.136 59.587 274.859 63.4274L256.714 68.2865C250.996 50.9965 262.589 55.1803 258.156 38.6465C260.296 35.0377 260.13 27.6033 264.177 33.8845Z" fill="#2C1B18"/>
<path d="M248.719 27.505L247.468 27.8401C240.039 29.8297 235.63 37.4639 237.622 44.8914L241.143 58.0275C243.135 65.4551 250.771 69.8634 258.201 67.8738L259.452 67.5387C266.881 65.5491 271.29 57.915 269.298 50.4874L265.777 37.3514C263.785 29.9238 256.148 25.5154 248.719 27.505Z" fill="#2C1B18"/>
<path fill-rule="evenodd" clip-rule="evenodd" d="M248.806 79.1055L247.233 48.0162L251.783 46.7978L263.821 75.0847L248.806 79.1055Z" fill="#FECD93"/>
<path fill-rule="evenodd" clip-rule="evenodd" d="M267.201 58.2671C262.839 60.7295 242.396 56.3024 239.746 42.6638C237.096 29.0252 256.524 26.9792 261.961 32.7649C267.398 38.5507 271.563 55.8048 267.201 58.2671Z" fill="#FECD93"/>
<path fill-rule="evenodd" clip-rule="evenodd" d="M250.97 50.2841C253.654 57.5289 255.651 66.0881 254.129 68.6544L235.985 73.5137C230.266 56.2234 241.859 60.4073 237.427 43.8731C237.876 43.115 238.294 42.3719 238.727 41.7114L238.577 41.2306C239.995 33.9584 243.119 29.6755 247.949 28.3819C255.194 26.4416 258.385 29.1997 261.099 31.5399C260.982 36.9248 255.53 39.1787 251.344 43.6368C250.623 43.3145 249.792 43.2285 248.97 43.4486C247.069 43.9576 245.941 45.9105 246.451 47.8106C246.96 49.7107 248.914 50.8385 250.814 50.3295C250.867 50.3155 250.919 50.3003 250.97 50.2841Z" fill="#2C1B18"/>
<path fill-rule="evenodd" clip-rule="evenodd" d="M231.015 194.859C246.555 199.204 259.963 201.377 271.238 201.377C282.512 201.377 292.985 198.031 302.656 191.34C287.448 186.88 274.924 184.65 265.084 184.65C255.243 184.65 243.887 188.053 231.015 194.859Z" fill="#1F28CF"/>
<path fill-rule="evenodd" clip-rule="evenodd" d="M284.69 207.64C284.54 207.415 284.414 207.17 284.314 206.904C282.236 201.413 248.965 142.172 245.65 131.341H283.109C285.629 139.576 296.973 191.253 298.569 201.564C303.606 217.827 313.976 270.499 315.3 274.148C316.692 277.987 308.856 281.985 306.768 277.266C303.446 269.757 295.529 248.981 292.004 236.294C288.699 224.401 286.009 213.701 284.69 207.64Z" fill="#FECD93"/>
<path fill-rule="evenodd" clip-rule="evenodd" d="M254.043 214.873C238.832 218.716 183.192 225.664 179.374 226.753C175.446 227.874 172.002 219.781 176.857 218.028C184.582 215.239 205.868 208.793 218.774 206.163C229.155 204.048 238.627 202.321 244.987 201.31C244.448 183.453 241.985 140.597 243.599 131.341H276.744C275.196 140.217 262.11 204.98 259.678 211.463C258.906 213.777 256.603 214.8 254.043 214.873Z" fill="#FECD93"/>
<path fill-rule="evenodd" clip-rule="evenodd" d="M177.209 215.873C175.178 215.495 173.69 215.389 172.744 215.556C171.594 215.759 169.949 216.246 167.81 217.018C168.045 218.352 170.16 230.342 174.156 252.988C177.411 253.378 178.985 252.544 178.876 250.487C178.767 248.429 178.694 246.717 178.658 245.35L183.163 227.318C183.25 226.971 183.039 226.62 182.692 226.533C182.686 226.532 182.68 226.53 182.674 226.529L179.877 225.914C178.678 224.203 177.976 222.764 177.77 221.599C177.603 220.652 177.755 219.277 178.226 217.473L178.226 217.473C178.406 216.781 177.991 216.073 177.299 215.893C177.269 215.885 177.239 215.878 177.209 215.873Z" fill="#E4E4E4"/>
<path fill-rule="evenodd" clip-rule="evenodd" d="M243.707 131.341C258.312 127.164 272.132 127.164 285.165 131.341C289.7 152.023 300.718 160.231 302.656 191.939C280.631 202.879 253.424 184.137 230.751 194.806C224.273 179.883 233.342 143.946 243.707 131.341Z" fill="#2B44FF"/>
<path fill-rule="evenodd" clip-rule="evenodd" d="M278.266 88.6987L298.27 72.6746C301.181 67.6547 304.21 63.6207 307.357 60.5727C308.369 59.9245 310.23 59.3123 309.003 62.7957C307.777 66.2792 306.643 69.9984 307.725 70.8144C308.808 71.6304 310.836 69.8669 312.208 71.2978C313.122 72.2517 309.548 74.6427 301.483 78.4709L287.992 96.032L278.266 88.6987Z" fill="#FECD93"/>
<path fill-rule="evenodd" clip-rule="evenodd" d="M267.006 87.8991C274.747 86.4508 284.8 82.9911 294.6 74.0436L300.639 82.9429C294.36 91.8365 284.752 99.9275 275.347 101.313C267.936 102.406 262.593 94.1506 267.006 87.8991Z" fill="#2026A2"/>
<path fill-rule="evenodd" clip-rule="evenodd" d="M239.418 159.927C250.546 155.626 286.867 161.112 290.526 147.633C297.764 120.971 270.259 90.6859 263.193 63.2787L245.493 66.3978C243.552 66.7399 234.821 94.3461 237.707 110.773C240.341 125.773 228.063 137.759 239.418 159.927Z" fill="#1F28CF"/>
<path fill-rule="evenodd" clip-rule="evenodd" d="M314.753 92.8152L323.536 85.7597C323.984 80.3275 325.155 77.4279 327.047 77.061C328.385 76.1258 327.004 83.1334 329.667 82.0776C332.331 81.0217 338.192 74.8168 339.534 75.6305C341.519 76.8343 340.802 81.7312 339.402 84.351C336.784 89.2475 334.248 91.2111 327.678 94.3549C324.243 95.9986 320.693 98.7057 317.028 102.476L314.753 92.8152Z" fill="#FECD93"/>
<path fill-rule="evenodd" clip-rule="evenodd" d="M261.434 63.5847C264.426 87.4443 270.173 100.044 278.674 101.384C287.176 102.724 301.059 97.927 320.323 86.9926C326.885 96.0888 330.358 102.786 330.742 107.084C268.574 154.914 232.312 114.009 246.052 66.2949L261.434 63.5847Z" fill="#1F28CF"/>
<path fill-rule="evenodd" clip-rule="evenodd" d="M939.668 65.0247L953.86 37.3141L958.41 38.5326L954.683 69.0455L939.668 65.0247Z" fill="#FDCB90"/>
<path fill-rule="evenodd" clip-rule="evenodd" d="M966.022 56.1699C961.012 56.1227 945.523 42.0736 950.052 28.9382C954.58 15.8027 972.429 23.7387 974.243 31.4662C976.057 39.1937 971.031 56.217 966.022 56.1699Z" fill="#FDCB90"/>
<path fill-rule="evenodd" clip-rule="evenodd" d="M956.743 42.7709C953.923 45.8458 950.626 47.8472 948.053 47.1581C943.166 45.8493 941.442 38.3863 943.325 31.3627C943.391 31.1159 943.462 30.8721 943.537 30.6314C937.416 32.7937 931.558 38.7178 924.717 36.8859C915.411 34.3937 916.746 14.6372 929.749 18.1193C938.591 20.4874 942.595 22.9412 945.832 25.8511C947.13 23.9653 948.727 22.5152 950.434 21.6609C950.866 21.3765 951.47 21.1556 952.214 21.0002C952.674 20.8882 953.137 20.8207 953.6 20.8005C956.083 20.5753 959.514 20.8664 963.206 21.7182C963.896 21.8773 964.568 22.05 965.22 22.234C966.155 18.7911 969.7 16.7502 973.149 17.6738C976.605 18.5993 978.655 22.1502 977.729 25.605C976.833 28.9462 973.481 30.9739 970.136 30.2667C968.094 30.3434 965.555 30.1216 962.819 29.5819C962.817 30.6331 962.66 31.7858 962.322 33.0455C962.024 34.1579 961.585 35.3047 961.037 36.4419C960.64 35.5929 959.982 34.932 959.19 34.7201C956.977 34.1273 954.948 35.5352 954.43 37.4681C953.772 39.9212 954.713 42.0752 956.743 42.7709Z" fill="#BA6D37"/>
<path fill-rule="evenodd" clip-rule="evenodd" d="M928.04 121.928L976.175 202.373L1012.26 270.382H1020.04L959.57 121.928L928.04 121.928Z" fill="#FDCB90"/>
<path fill-rule="evenodd" clip-rule="evenodd" d="M1002.24 259.492L1017.23 254.959C1010.66 235.333 1002.61 213.735 993.082 190.165C983.55 166.595 973.314 143.85 962.373 121.928H920.036C932.2 149.658 945.096 174.853 958.723 197.515C972.351 220.177 986.856 240.836 1002.24 259.492Z" fill="#D7323E"/>
<path fill-rule="evenodd" clip-rule="evenodd" d="M924.876 121.928C920.333 150.197 911.571 186.314 910.744 187.428C910.193 188.171 890.346 194.819 851.205 207.372L852.884 214.224C899.56 207.492 924.154 202.269 926.667 198.555C930.436 192.984 949.254 148.973 956.543 121.928H924.876Z" fill="#FDCB90"/>
<path fill-rule="evenodd" clip-rule="evenodd" d="M864.964 201.449L867.922 212.485C902.833 215.546 924.223 213.334 932.094 205.85C939.964 198.366 948.934 170.392 959.004 121.928H918.633C912.253 161.614 908.686 182.289 907.933 183.955C907.179 185.621 892.856 191.452 864.964 201.449Z" fill="#E63946"/>
<path fill-rule="evenodd" clip-rule="evenodd" d="M853.121 204.517C851.09 204.14 849.602 204.034 848.656 204.201C847.506 204.404 845.861 204.891 843.722 205.663C843.957 206.997 846.073 218.987 850.068 241.632C853.324 242.022 854.897 241.189 854.788 239.132C854.679 237.074 854.607 235.362 854.57 233.995L859.076 215.963C859.162 215.616 858.951 215.264 858.604 215.178C858.598 215.176 858.592 215.175 858.586 215.174L855.789 214.558C854.59 212.847 853.888 211.409 853.682 210.244C853.515 209.297 853.667 207.921 854.138 206.118L854.138 206.118C854.319 205.426 853.904 204.718 853.212 204.538C853.182 204.53 853.152 204.523 853.121 204.517Z" fill="#E4E4E4"/>
<path fill-rule="evenodd" clip-rule="evenodd" d="M985.25 116.778L1002.96 135.303C1008.22 137.765 1012.5 140.43 1015.81 143.298C1016.55 144.249 1017.32 146.049 1013.74 145.131C1010.16 144.213 1006.36 143.408 1005.64 144.557C1004.92 145.706 1006.86 147.572 1005.55 149.063C1004.68 150.056 1001.98 146.705 997.467 139.008L978.791 127.103L985.25 116.778Z" fill="#FDCB90"/>
<path fill-rule="evenodd" clip-rule="evenodd" d="M950.521 58.9053L957.837 57.3101C964.908 82.2694 976.773 106.946 998.611 129.031L991.629 138.603C971.928 124.029 953.057 112.333 946.942 92.9256C944.89 86.412 949.517 66.3305 950.521 58.9053Z" fill="#69A1AC"/>
<path fill-rule="evenodd" clip-rule="evenodd" d="M994.446 121.373C995.945 120.786 998.071 126.214 996.571 126.801C992.326 128.463 987.507 128.005 982.234 125.589C980.77 124.919 980.128 123.189 980.799 121.725C981.469 120.262 983.2 119.619 984.663 120.29C988.602 122.094 991.823 122.401 994.446 121.373Z" fill="#69A1AC"/>
<path fill-rule="evenodd" clip-rule="evenodd" d="M894.257 94.3219C879.911 116.994 871.705 129.319 869.637 131.299C868.121 132.75 859.711 135.776 854.115 137.217C851.869 137.795 852.038 139.643 852.565 140.309C856.846 145.725 861.949 143.019 867.538 142.535C873.661 142.004 870.715 148.721 875.542 148.374C875.307 145.054 874.262 138.655 876.942 135.677C878.132 134.354 887.529 121.906 905.132 98.335L894.257 94.3219Z" fill="#FDCB90"/>
<path fill-rule="evenodd" clip-rule="evenodd" d="M943.205 53.3863C912.324 65.5749 888.157 90.3189 870.705 127.618L882.127 133.285C900.371 102.663 918.459 87.3353 936.392 87.3017L946.651 53.9934L943.205 53.3863Z" fill="#89C5CC"/>
<path fill-rule="evenodd" clip-rule="evenodd" d="M873.553 123.089C872 123.516 870.454 117.896 872.006 117.469C876.402 116.259 881.147 117.219 886.138 120.172C887.524 120.992 887.982 122.779 887.162 124.165C886.342 125.55 884.554 126.008 883.168 125.189C879.44 122.982 876.269 122.341 873.553 123.089Z" fill="#89C5CC"/>
<path fill-rule="evenodd" clip-rule="evenodd" d="M914.458 123.228C934.123 128.964 949.908 131.746 961.812 131.572C963.286 131.551 964.309 125.391 963.943 123.595C958.255 95.6277 954.856 75.2894 958.061 57.1251C955.996 57.7793 952.662 57.3443 948.057 55.8201C932.051 72.3008 922.423 92.7497 914.458 123.228Z" fill="#191847"/>
<path fill-rule="evenodd" clip-rule="evenodd" d="M874.98 189.977C903.146 184.105 922.752 201.121 942.431 200.23C961.965 149.38 943.344 82.5283 950.463 54.6646L944.201 53.5612C939.198 61.3628 927.598 72.3766 920.759 84.2877C915.124 94.1003 918.134 105.703 914.404 116.425C906.116 140.245 880.398 165.839 874.98 189.977Z" fill="#89C5CC"/>
<path d="M943.078 113.863C944.487 114.111 945.831 113.17 946.08 111.761C946.328 110.352 945.388 109.009 943.978 108.761C942.569 108.512 941.225 109.453 940.977 110.862C940.728 112.271 941.669 113.615 943.078 113.863Z" fill="#5C63AB"/>
<path d="M943.68 129.093C945.09 129.341 946.433 128.4 946.682 126.991C946.931 125.582 945.99 124.239 944.581 123.99C943.171 123.742 941.828 124.683 941.579 126.092C941.33 127.501 942.271 128.844 943.68 129.093Z" fill="#5C63AB"/>
<path d="M941.731 143.873C943.14 144.121 944.484 143.18 944.733 141.771C944.982 140.362 944.041 139.019 942.632 138.77C941.222 138.522 939.878 139.463 939.63 140.872C939.381 142.281 940.322 143.624 941.731 143.873Z" fill="#5C63AB"/>
<path fill-rule="evenodd" clip-rule="evenodd" d="M945.729 54.4916L940.653 64.0298L945.941 72.7826L938.9 77.6879L949.012 105.046L935.662 77.1685L942.605 72.1947L937.905 64.4552L945.729 54.4916Z" fill="black" fill-opacity="0.1"/>
<path d="M915.924 123.084C916.475 121.572 915.695 119.9 914.182 119.349C912.67 118.799 910.997 119.579 910.446 121.091L909.781 122.917C909.23 124.43 910.01 126.102 911.523 126.652C913.036 127.202 914.709 126.422 915.259 124.91L915.924 123.084Z" fill="#89C5CC"/>
<path fill-rule="evenodd" clip-rule="evenodd" d="M69.7089 58.1134C76.8598 56.1984 77.1658 46.9428 79.9692 41.1578C81.975 37.0187 87.2045 36.6923 87.4116 31.5942C87.9324 18.7748 75.8172 13.0948 62.9244 16.5476C50.0315 20.0004 43.2962 29.6312 44.3622 41.1118C45.4283 52.5924 56.8161 61.5662 69.7089 58.1134Z" fill="#0A0C0B"/>
<path fill-rule="evenodd" clip-rule="evenodd" d="M69.739 75.732L68.1653 44.6426L72.7152 43.4242L84.7539 71.7112L69.739 75.732Z" fill="#BB6332"/>
<path fill-rule="evenodd" clip-rule="evenodd" d="M88.1334 54.8936C83.7715 57.3559 63.3286 52.9288 60.6788 39.2903C58.029 25.6517 77.4568 23.6056 82.8939 29.3914C88.3309 35.1772 92.4953 52.4312 88.1334 54.8936Z" fill="#BB6332"/>
<path fill-rule="evenodd" clip-rule="evenodd" d="M72.4719 39.9525C71.8489 39.8101 71.1798 39.8136 70.5154 39.9915C68.388 40.5613 67.1138 42.7035 67.6695 44.7764C67.8963 45.6224 68.3929 46.3261 69.0459 46.824C68.5365 48.5725 68.3372 50.3196 68.5685 51.9989C65.405 52.8461 50.6506 43.9705 59.1339 29.6305C67.6173 15.2905 88.5484 26.9129 83.805 29.1879C81.0778 30.496 76.0291 34.7858 72.4719 39.9525Z" fill="#0A0C0B"/>
<path fill-rule="evenodd" clip-rule="evenodd" d="M75.6514 127.968L107.446 208.412L128.771 276.421H137.192L104.591 127.968L75.6514 127.968Z" fill="#997659"/>
<path fill-rule="evenodd" clip-rule="evenodd" d="M69.2489 127.968C68.9103 156.236 63.9728 194.296 63.1839 196.058C62.658 197.232 44.5029 212.172 8.71869 240.875L14.5185 247.079C56.7406 222.47 78.8285 208.524 80.7824 205.241C83.7131 200.318 93.2546 155.012 100.915 127.968H69.2489Z" fill="#B28B67"/>
<path fill-rule="evenodd" clip-rule="evenodd" d="M7.94319 238.804C5.99541 239.492 4.65366 240.144 3.91794 240.761C3.02312 241.512 1.84246 242.756 0.37594 244.494C1.24702 245.532 9.07553 254.858 23.8615 272.474C26.8762 271.184 27.8219 269.675 26.6987 267.948C25.5755 266.221 24.6563 264.774 23.9411 263.608L18.8244 245.739C18.7259 245.396 18.3673 245.197 18.0233 245.295C18.0175 245.297 18.0116 245.299 18.0058 245.3L15.2758 246.166C13.3817 245.283 12.0541 244.389 11.2931 243.482C10.6748 242.746 10.1184 241.479 9.62411 239.681L9.62412 239.681C9.43442 238.992 8.72136 238.586 8.03144 238.776C8.00171 238.784 7.97227 238.793 7.94319 238.804Z" fill="#E4E4E4"/>
<path fill-rule="evenodd" clip-rule="evenodd" d="M97.0286 269.416L137.065 265.073L107.393 127.968H71.5341L97.0286 269.416Z" fill="#69A1AC"/>
<path fill-rule="evenodd" clip-rule="evenodd" d="M17.0002 230.865L43.2617 261.939C70.9224 231.739 87.0487 212.034 91.6405 202.823C96.2323 193.612 100.36 168.66 104.024 127.968H63.653C61.6516 163.767 60.3026 182.5 59.6058 184.166C58.9091 185.832 44.7072 201.398 17.0002 230.865Z" fill="#89C5CC"/>
<path fill-rule="evenodd" clip-rule="evenodd" d="M69.3525 76.3898C60.083 84.976 53.1871 86.4772 48.6647 80.8932C41.8811 72.5173 42.8378 67.079 48.0406 64.4299C53.2435 61.7809 58.7581 64.3771 67.5199 62.833C73.361 61.8037 73.9719 66.3226 69.3525 76.3898Z" fill="#FF9B21"/>
<path fill-rule="evenodd" clip-rule="evenodd" d="M125.275 113.285L148.259 124.638C154.041 125.154 158.978 126.194 163.072 127.758C164.088 128.4 165.429 129.828 161.753 130.188C158.076 130.548 154.225 131.093 153.942 132.418C153.66 133.743 156.116 134.836 155.399 136.683C154.921 137.914 151.242 135.686 144.362 129.998L122.738 125.195L125.275 113.285Z" fill="#BB6332"/>
<path fill-rule="evenodd" clip-rule="evenodd" d="M75.256 64.9723L80.6052 63.0544C104.19 77.1234 118.587 109.599 146.847 123.167L142.13 131.714C97.6584 133.996 79.5638 94.4771 75.256 64.9723Z" fill="#E87613"/>
<path fill-rule="evenodd" clip-rule="evenodd" d="M47.2321 127.574C47.3345 152.957 46.9856 167.022 46.1853 169.769C45.5984 171.784 39.828 178.607 35.702 182.652C34.0459 184.275 35.1173 185.79 35.9063 186.104C42.3238 188.654 45.3896 183.761 49.988 180.548C55.0259 177.029 55.834 184.318 59.8413 181.605C57.9774 178.847 53.871 173.828 54.7019 169.911C55.0712 168.17 57.028 153.292 60.5723 125.277L47.2321 127.574Z" fill="#BB6332"/>
<path fill-rule="evenodd" clip-rule="evenodd" d="M63.4356 138.515C85.553 134.617 101.822 131.75 112.243 129.914C114.473 129.521 113.485 126.375 112.876 124.807C105.847 106.713 87.7562 89.061 83.0472 62.3708L68.5795 62.6446C60.2383 83.4199 60.2785 107.182 63.4356 138.515Z" fill="#DDE3E9"/>
<path fill-rule="evenodd" clip-rule="evenodd" d="M54.9531 153.819L98.8866 146.076C102.029 130.752 93.4987 102.781 73.2951 62.1659L67.2572 62.8783C60.1549 83.4916 51.5374 122.438 54.9531 153.819Z" fill="#FF9B21"/>
<path fill-rule="evenodd" clip-rule="evenodd" d="M58.6143 101.883C63.1614 127.005 68.5319 143.155 74.7257 150.333L60.0547 152.919L58.6143 101.883Z" fill="black" fill-opacity="0.1"/>
<path fill-rule="evenodd" clip-rule="evenodd" d="M67.513 62.8336C44.5077 92.7521 37.2809 128.219 45.8327 169.235L56.2998 167.39C62.5999 149.947 67.9355 116.079 72.3065 65.7859L67.513 62.8336Z" fill="#FF9B21"/>
<path fill-rule="evenodd" clip-rule="evenodd" d="M177.747 106.471C175.341 103.641 173.713 100.173 173.985 96.2864C174.769 85.0893 190.32 87.5525 193.345 93.2039C196.37 98.8552 196.01 113.19 192.101 114.2C190.542 114.603 187.221 113.616 183.84 111.574L185.962 126.62H173.434L177.747 106.471Z" fill="#FBC992"/>
<path fill-rule="evenodd" clip-rule="evenodd" d="M187.82 94.0235C186.12 94.9767 184.91 96.7628 183.453 99.1057C183.099 98.9659 182.712 98.8892 182.308 98.8892C180.578 98.8892 179.176 100.295 179.176 102.029C179.176 102.909 179.538 103.704 180.12 104.274C179.395 105.3 178.583 106.371 177.652 107.476C174.179 105.387 171.596 99.3001 174.912 93.4238C177.765 81.653 193.932 88.959 197.043 86.9738C197.723 91.2452 195.53 94.6894 187.82 94.0235Z" fill="#3A1413"/>
<path fill-rule="evenodd" clip-rule="evenodd" d="M172.93 172.043L198.551 237.041L215.735 291.991H222.52L196.25 172.043L172.93 172.043Z" fill="#997659"/>
<path fill-rule="evenodd" clip-rule="evenodd" d="M167.771 172.043C167.498 194.884 163.519 225.635 162.883 227.059C162.459 228.008 147.83 240.078 118.994 263.27L123.668 268.283C157.691 248.399 175.49 237.131 177.065 234.479C179.426 230.501 187.115 193.894 193.288 172.043H167.771Z" fill="#B28B67"/>
<path fill-rule="evenodd" clip-rule="evenodd" d="M190.156 286.331L222.418 282.822L198.508 172.043H169.612L190.156 286.331Z" fill="#AFB9C5"/>
<path fill-rule="evenodd" clip-rule="evenodd" d="M125.667 255.183L146.829 280.29C169.119 255.889 182.114 239.967 185.814 232.525C189.514 225.083 192.841 204.922 195.793 172.043H163.261C161.648 200.969 160.561 216.104 160 217.45C159.438 218.796 147.994 231.374 125.667 255.183Z" fill="#C5CFD6"/>
<path fill-rule="evenodd" clip-rule="evenodd" d="M220.027 165.718L235.368 180.622C239.832 182.519 243.489 184.612 246.34 186.904C246.982 187.674 247.68 189.15 244.663 188.489C241.646 187.829 238.444 187.269 237.877 188.246C237.31 189.223 238.98 190.72 237.932 191.999C237.234 192.851 234.885 190.14 230.885 183.865L214.932 174.499L220.027 165.718ZM145.009 152.23L156.868 152.274C147.836 181.415 143.041 196.673 142.484 198.048C141.231 201.141 143.883 205.851 145.017 208.382C141.324 210.028 141.717 203.933 137.058 206.091C132.805 208.062 129.57 211.632 124.657 208.613C124.053 208.241 123.391 206.844 124.99 205.752C128.975 203.031 134.717 198.269 135.493 196.701C136.551 194.564 139.723 179.74 145.009 152.23Z" fill="#FBC992"/>
<path fill-rule="evenodd" clip-rule="evenodd" d="M181.145 118.729L185.828 117.929C193.205 143.898 231.107 161.6 233.434 171.308C234.288 174.868 231.715 176.667 233.044 177.752L226.957 182.189C225.926 180.992 223.726 183.182 219.133 181.65C214.539 180.117 181.145 149.478 181.145 118.729Z" fill="#D7323E"/>
<path fill-rule="evenodd" clip-rule="evenodd" d="M189.022 122.161C188.474 156.559 208.44 165.33 203.994 179.125C200.323 190.514 165.186 202.758 159.106 191.593C156.644 187.074 155.528 181.609 155.401 175.666C153.847 180.232 152.618 184.162 151.714 187.457C150.154 193.141 144.108 194.045 144.108 196.235L136.142 194.045C136.682 191.07 132.927 189.621 133.934 182.975C138.445 153.195 150.567 131.608 170.3 118.215L170.51 115.244C170.591 114.092 171.588 113.223 172.737 113.303L172.738 113.301L187.48 114.326C188.63 114.406 189.498 115.406 189.418 116.559C189.418 116.56 189.418 116.56 189.418 116.561L189.022 122.161Z" fill="#E63946"/>
<path fill-rule="evenodd" clip-rule="evenodd" d="M378.111 63.1402C374.604 58.813 372.23 53.51 372.627 47.5678C373.77 30.4466 396.442 34.2131 400.853 42.8544C405.263 51.4956 404.739 73.415 399.039 74.9594C396.766 75.5754 391.924 74.0666 386.995 70.9439L390.089 93.9495H371.823L378.111 63.1402Z" fill="#E1A159"/>
<path fill-rule="evenodd" clip-rule="evenodd" d="M387.909 49.4588C388.608 59.697 390.457 64.8161 393.457 64.8161C397.957 64.8161 401.775 61.8131 403.75 61.8131C405.189 61.8131 404.868 63.7065 403.914 65.1104C403.127 66.2686 399.293 67.385 399.293 69.1806C399.293 70.9763 402.322 69.5871 402.322 70.652C402.322 72.4136 402.854 75.7257 399.946 75.7257C397.002 75.7257 388.563 74.5981 387.116 70.0058C386.183 67.0421 385.579 60.9006 385.306 51.5816C385.127 51.5592 384.946 51.5478 384.761 51.5478C382.239 51.5478 380.195 53.6969 380.195 56.348C380.195 57.6938 380.722 58.9103 381.57 59.7819C380.514 61.3497 379.33 62.9874 377.973 64.6773C372.875 61.4624 369.092 52.051 374.076 43.01C375.454 38.581 378.572 36.2153 382.255 35.1168C385.239 33.8049 388.336 33.657 390.95 34.4435C396.075 34.9056 400.652 36.5483 401.949 37.5239C401.949 42.6243 401.009 44.1376 392.978 44.0042C391.005 45.0996 389.488 46.9859 387.909 49.4588Z" fill="#0A0C08"/>
<path fill-rule="evenodd" clip-rule="evenodd" d="M462.303 174.83C467.767 167.04 481.426 172.197 481.418 178.646C481.396 195.579 466.696 275.968 465.929 281.043C465.161 286.118 456.939 287.779 456.46 281.437C455.698 271.346 454.283 236.366 455.699 220.093C456.113 215.339 456.549 210.745 456.988 206.44C449.263 221.03 437.514 241.652 421.744 268.305L412.979 264.095C419.862 240.257 425.506 223.428 429.911 213.608C437.453 196.794 444.525 182.395 447.501 177.323C451.433 170.623 457.81 171.513 462.303 174.83Z" fill="#B28B67"/>
<path fill-rule="evenodd" clip-rule="evenodd" d="M413.606 250.857L443.689 175.943C450.896 163.757 471.103 178.423 468.645 185.491C463.065 201.538 434.687 253.488 433.025 258.269L413.606 250.857Z" fill="#1F28CF"/>
<path fill-rule="evenodd" clip-rule="evenodd" d="M482.179 184.495C482.179 205.729 473.325 255.642 473.319 260.318L451.87 259.557C455.619 216.161 457.2 194.316 456.613 194.022C455.292 193.36 402.465 201.708 386.621 202.338C363.775 203.247 354.323 188.513 353.556 160.553H397.811C435.654 165.302 460.525 168.604 472.426 170.461C480.068 171.653 482.179 178.646 482.179 184.495Z" fill="#2B44FF"/>
<path fill-rule="evenodd" clip-rule="evenodd" d="M351.273 165.153H432.709C436.912 165.153 440.32 168.735 440.32 173.153V212.355H346.707C345.025 212.355 343.662 210.922 343.662 209.155V173.153C343.662 168.735 347.07 165.153 351.273 165.153Z" fill="#2F3676"/>
<path fill-rule="evenodd" clip-rule="evenodd" d="M432.709 165.153H434.379C438.106 165.153 441.285 167.991 441.889 171.857L458.586 278.758H450.453" fill="#2F3676"/>
<path fill-rule="evenodd" clip-rule="evenodd" d="M353.556 293.159C321.611 293.159 295.714 265.936 295.714 232.356C295.714 198.776 321.611 171.553 353.556 171.553C385.502 171.553 411.399 198.776 411.399 232.356C411.399 265.936 385.502 293.159 353.556 293.159ZM353.556 281.958C379.617 281.958 400.743 259.751 400.743 232.356C400.743 204.961 379.617 182.754 353.556 182.754C327.496 182.754 306.369 204.961 306.369 232.356C306.369 259.751 327.496 281.958 353.556 281.958Z" fill="#191847"/>
<path d="M356.601 179.554H350.512V285.159H356.601V179.554Z" fill="#191847"/>
<path d="M390.151 196.151L387.999 193.888C387.404 193.263 386.441 193.263 385.846 193.888L316.961 266.299C316.366 266.924 316.366 267.937 316.961 268.562L319.114 270.825C319.708 271.449 320.672 271.449 321.266 270.825L390.151 198.413C390.746 197.789 390.746 196.775 390.151 196.151Z" fill="#191847"/>
<path d="M403.787 233.956V230.756C403.787 229.872 403.106 229.156 402.265 229.156H304.847C304.006 229.156 303.325 229.872 303.325 230.756V233.956C303.325 234.84 304.006 235.556 304.847 235.556H402.265C403.106 235.556 403.787 234.84 403.787 233.956Z" fill="#191847"/>
<path d="M387.999 270.824L390.151 268.562C390.746 267.937 390.746 266.924 390.151 266.299L321.266 193.888C320.672 193.263 319.708 193.263 319.114 193.888L316.961 196.151C316.366 196.775 316.366 197.789 316.961 198.413L385.846 270.824C386.441 271.449 387.404 271.449 387.999 270.824Z" fill="#191847"/>
<path fill-rule="evenodd" clip-rule="evenodd" d="M430.259 150.121L454.536 168.861C461.121 170.729 466.622 173.052 471.04 175.832C472.083 176.832 473.345 178.856 469.017 178.506C464.689 178.156 460.122 177.993 459.524 179.545C458.927 181.096 461.546 182.952 460.339 185.046C459.534 186.442 455.732 182.942 448.933 174.546L424.893 164.067L430.259 150.121ZM337.047 150.768L352.952 150.834C343.131 184.158 337.83 201.84 337.047 203.879C335.286 208.467 339.013 215.454 340.606 219.209C335.416 221.65 335.969 212.609 329.421 215.811C323.444 218.734 318.898 224.029 311.993 219.551C311.144 219 310.214 216.927 312.462 215.307C318.061 211.271 326.131 204.206 327.222 201.881C328.708 198.71 331.984 181.673 337.047 150.768Z" fill="#E1A159"/>
<path fill-rule="evenodd" clip-rule="evenodd" d="M382.246 80.6147L388.827 79.4281C413.245 101.601 423.274 144.199 453.205 166.765L446.001 176.151C394.077 169.393 381.207 117.435 382.246 80.6147Z" fill="#E87613"/>
<path fill-rule="evenodd" clip-rule="evenodd" d="M353.557 167.553C379.945 167.553 399.355 167.553 411.788 167.553C414.449 167.553 413.948 163.514 413.563 161.476C409.124 137.955 391.795 112.6 391.795 79.1176L374.998 76.3489C361.105 99.8367 356.3 128.755 353.557 167.553Z" fill="#DDE3E9"/>
<path fill-rule="evenodd" clip-rule="evenodd" d="M354.024 99.4362C351.585 98.6991 349.653 96.9799 348.229 94.2786C342.09 82.634 344.307 76.2227 350.868 74.1153C357.428 72.0079 363.279 76.3488 373.733 76.3488C374.301 76.3488 374.822 76.3863 375.295 76.4612L380.553 76.7766C395.64 130.523 399.8 166.382 393.035 184.354H347.203C344.487 191.01 341.889 196.61 339.407 201.154H326.918C325.743 161.206 334.778 127.3 354.024 99.4362Z" fill="#FF9B21"/>
<path fill-rule="evenodd" clip-rule="evenodd" d="M357.183 156.751C358.625 169.428 360.968 178.629 364.212 184.354H347.203C350.371 176.59 353.697 167.389 357.183 156.751Z" fill="black" fill-opacity="0.1"/>
</svg>
