<svg width="50" height="50" viewBox="0 0 50 50" fill="none" xmlns="http://www.w3.org/2000/svg">
<g clip-path="url(#clip0)">
<path d="M49.1942 32.2594H48.3878V23.3886C48.3878 22.9425 48.0267 22.5822 47.5814 22.5822H43.0767L26.948 6.45348L29.6035 3.79792C29.9189 3.48251 29.9189 2.97258 29.6035 2.65757L27.1842 0.238265C26.8688 -0.0771429 26.3593 -0.0771429 26.0439 0.238265L3.69997 22.5822H2.42101C1.97606 22.5822 1.61458 22.9425 1.61458 23.3886V32.2594H0.808144C0.363187 32.2594 0.00170898 32.6197 0.00170898 33.0658V37.9044C0.00170898 38.3502 0.363187 38.7109 0.808144 38.7109H1.67049L2.42338 49.2516C2.4533 49.6741 2.80494 50.001 3.22745 50.001H6.45319C6.8757 50.001 7.22733 49.6741 7.25805 49.2516L8.01054 38.7109H41.9922L42.7451 49.2516C42.775 49.6741 43.1267 50.001 43.5492 50.001H46.7749C47.1974 50.001 47.5491 49.6741 47.5798 49.2516L48.3323 38.7109H49.1942C49.6396 38.7109 50.0007 38.3502 50.0007 37.9044V33.0658C50.0007 32.6197 49.6396 32.2594 49.1942 32.2594ZM40.796 22.5822H32.2591V20.9693C32.2591 20.7547 32.1744 20.5499 32.0228 20.3991L29.6035 17.9798C29.4527 17.8282 29.2472 17.7436 29.0334 17.7436H18.5497C18.1048 17.7436 17.7433 18.1039 17.7433 18.55V22.5822H10.8193L25.8076 7.59383L40.796 22.5822ZM19.3561 25.8079V19.3564H24.1948V25.8079H19.3561ZM25.8076 19.3564H28.6994L30.6462 21.3032V25.8079H25.8076V19.3564ZM26.6141 1.94879L27.893 3.22774L8.53858 22.5822H5.98067L26.6141 1.94879ZM3.22745 24.195H17.7433V26.6144C17.7433 27.0601 18.1048 27.4208 18.5497 27.4208H31.4527C31.898 27.4208 32.2591 27.0601 32.2591 26.6144V24.195H46.7749V32.2594H45.1621V29.8401C45.1621 29.394 44.801 29.0337 44.3556 29.0337H5.64675C5.2018 29.0337 4.84032 29.394 4.84032 29.8401V32.2594H3.22745V24.195ZM6.45319 32.2594V30.6465H9.67893V32.2594H6.45319ZM11.2918 30.6465H12.9047V32.2594H11.2918V30.6465ZM14.5175 30.6465H16.1304V32.2594H14.5175V30.6465ZM17.7433 30.6465H19.3561V32.2594H17.7433V30.6465ZM20.969 30.6465H22.5819V32.2594H20.969V30.6465ZM24.1948 30.6465H25.8076V32.2594H24.1948V30.6465ZM27.4205 30.6465H29.0334V32.2594H27.4205V30.6465ZM30.6462 30.6465H32.2591V32.2594H30.6462V30.6465ZM33.872 30.6465H35.4848V32.2594H33.872V30.6465ZM37.0977 30.6465H38.7106V32.2594H37.0977V30.6465ZM40.3234 30.6465H43.5492V32.2594H40.3234V30.6465ZM3.97836 48.3881L3.86299 46.7752H5.81686L5.70188 48.3881H3.97836ZM5.93223 45.1624H3.7484L3.28809 38.7109H6.39452L5.93223 45.1624ZM44.3001 48.3881L44.1847 46.7752H46.1386L46.0236 48.3881H44.3001ZM46.2548 45.1624H44.0701L43.6098 38.7109H46.7163L46.2548 45.1624ZM48.3878 37.098H1.61458V33.8723H48.3878V37.098Z" fill="#3C6A7A"/>
<path d="M37.0968 12.0977C38.4309 12.0977 39.5161 11.0121 39.5161 9.67841V3.78569L44.3547 1.97121V5.79429C44.1015 5.70412 43.8322 5.64624 43.5483 5.64624C42.2146 5.64624 41.129 6.73146 41.129 8.06554C41.129 9.39923 42.2146 10.4848 43.5483 10.4848C44.8824 10.4848 45.9676 9.39923 45.9676 8.06554V0.80763C45.9676 0.543018 45.838 0.295339 45.6211 0.144526C45.4025 -0.0062867 45.1265 -0.0409382 44.878 0.0527784L38.4265 2.47208C38.1123 2.58982 37.9032 2.89066 37.9032 3.22693V7.40716C37.65 7.31699 37.3807 7.25911 37.0968 7.25911C35.7631 7.25911 34.6775 8.34433 34.6775 9.67841C34.6775 11.0121 35.7631 12.0977 37.0968 12.0977ZM43.5483 8.87198C43.1041 8.87198 42.7418 8.5105 42.7418 8.06554C42.7418 7.62019 43.1041 7.25911 43.5483 7.25911C43.9928 7.25911 44.3547 7.62019 44.3547 8.06554C44.3547 8.5105 43.9928 8.87198 43.5483 8.87198ZM37.0968 8.87198C37.5414 8.87198 37.9032 9.23306 37.9032 9.67841C37.9032 10.1234 37.5414 10.4848 37.0968 10.4848C36.6526 10.4848 36.2904 10.1234 36.2904 9.67841C36.2904 9.23306 36.6526 8.87198 37.0968 8.87198Z" fill="#3C6A7A"/>
<path d="M4.03307 12.0977C5.36716 12.0977 6.45238 11.0121 6.45238 9.67839V2.75439L9.10794 5.40995L10.2483 4.2696L6.21612 0.237429C5.98458 0.00589391 5.63807 -0.0641966 5.33723 0.0622026C5.03639 0.186633 4.83951 0.481564 4.83951 0.807603V7.40714C4.58632 7.31697 4.31698 7.25908 4.03307 7.25908C2.69939 7.25908 1.61377 8.3443 1.61377 9.67839C1.61377 11.0121 2.69939 12.0977 4.03307 12.0977ZM4.03307 8.87195C4.47764 8.87195 4.83951 9.23304 4.83951 9.67839C4.83951 10.1233 4.47764 10.4848 4.03307 10.4848C3.5889 10.4848 3.22664 10.1233 3.22664 9.67839C3.22664 9.23304 3.5889 8.87195 4.03307 8.87195Z" fill="#3C6A7A"/>
<path d="M0.807129 13.7106H4.03294V15.3235H0.807129V13.7106Z" fill="#3C6A7A"/>
<path d="M8.87158 8.06555H10.4845V11.2914H8.87158V8.06555Z" fill="#3C6A7A"/>
<path d="M11.291 1.61414H14.5168V3.22704H11.291V1.61414Z" fill="#3C6A7A"/>
<path d="M33.0647 0.807617H34.6776V4.03342H33.0647V0.807617Z" fill="#3C6A7A"/>
<path d="M42.7417 12.0977H45.9675V13.7106H42.7417V12.0977Z" fill="#3C6A7A"/>
<path d="M48.387 7.25916H49.9999V10.485H48.387V7.25916Z" fill="#3C6A7A"/>
<path d="M39.7524 15.8941L40.8928 14.7533L43.3122 17.173L42.1718 18.3134L39.7524 15.8941Z" fill="#3C6A7A"/>
<path d="M1.3187 37.0443L1.3186 35.3967L1.31881 33.4867H48.7095V37.1812C48.7095 37.1812 17.3875 37.0443 1.3187 37.0443Z" fill="#3C6A7A"/>
</g>
<defs>
<clipPath id="clip0">
<rect width="50" height="50" fill="white"/>
</clipPath>
</defs>
</svg>
