<svg width="301" height="92" viewBox="0 0 301 92" fill="none" xmlns="http://www.w3.org/2000/svg">
<path fill-rule="evenodd" clip-rule="evenodd" d="M-136.57 91.56C-115.92 59.74 -72.43 49 -33.11 66.07C-13.85 74.46 4.8 88.82 24.38 90.62C69.66 94.68 86.87 31 131 28.15C168.22 25.76 205 67.79 243.44 72.7C272.44 76.4 297.83 55.1 300.26 25.09L292.83 0C290.4 30 265 51.31 236 47.61C197.57 42.7 160.79 0.66 123.52 3.06C79.44 5.91 62.23 69.58 17 65.53C-2.58 63.82 -21.28 49.37 -40.54 41C-79.83 23.89 -123.35 34.65 -144 66.46L-136.57 91.56Z" fill="#E63946"/>
</svg>
