<svg width="61" height="73" viewBox="0 0 61 73" fill="none" xmlns="http://www.w3.org/2000/svg">
<path d="M24.1067 13.8477H8.5364C7.91634 13.8477 7.41357 14.3503 7.41357 14.9705C7.41357 15.5907 7.91634 16.0933 8.5364 16.0933H24.1067C24.7267 16.0933 25.2295 15.5907 25.2295 14.9705C25.2295 14.3503 24.7267 13.8477 24.1067 13.8477Z" fill="#3C6A7A"/>
<path d="M16.9204 24.6279H8.5364C7.91634 24.6279 7.41357 25.1306 7.41357 25.7508C7.41357 26.371 7.91634 26.8736 8.5364 26.8736H16.9204C17.5404 26.8736 18.0432 26.371 18.0432 25.7508C18.0432 25.1306 17.5404 24.6279 16.9204 24.6279Z" fill="#3C6A7A"/>
<path d="M24.1067 35.4067H8.5364C7.91634 35.4067 7.41357 35.9094 7.41357 36.5296C7.41357 37.1498 7.91634 37.6524 8.5364 37.6524H24.1067C24.7267 37.6524 25.2295 37.1498 25.2295 36.5296C25.2295 35.9094 24.7267 35.4067 24.1067 35.4067Z" fill="#3C6A7A"/>
<path d="M37.2812 13.8477H28.8972C28.2772 13.8477 27.7744 14.3503 27.7744 14.9705C27.7744 15.5907 28.2772 16.0933 28.8972 16.0933H37.2812C37.9013 16.0933 38.404 15.5907 38.404 14.9705C38.404 14.3503 37.9013 13.8477 37.2812 13.8477Z" fill="#3C6A7A"/>
<path d="M37.281 24.6279H21.7107C21.0907 24.6279 20.5879 25.1306 20.5879 25.7508C20.5879 26.371 21.0907 26.8736 21.7107 26.8736H37.281C37.901 26.8736 38.4038 26.371 38.4038 25.7508C38.4038 25.1306 37.901 24.6279 37.281 24.6279Z" fill="#3C6A7A"/>
<path d="M37.2812 35.4067H28.8972C28.2772 35.4067 27.7744 35.9094 27.7744 36.5296C27.7744 37.1498 28.2772 37.6524 28.8972 37.6524H37.2812C37.9013 37.6524 38.404 37.1498 38.404 36.5296C38.404 35.9094 37.9013 35.4067 37.2812 35.4067Z" fill="#3C6A7A"/>
<path d="M24.1067 46.186H8.5364C7.91634 46.186 7.41357 46.6887 7.41357 47.3089C7.41357 47.9291 7.91634 48.4317 8.5364 48.4317H24.1067C24.7267 48.4317 25.2295 47.9291 25.2295 47.3089C25.2295 46.6887 24.7267 46.186 24.1067 46.186Z" fill="#3C6A7A"/>
<path d="M31.2926 46.186H28.8972C28.2772 46.186 27.7744 46.6887 27.7744 47.3089C27.7744 47.9291 28.2772 48.4317 28.8972 48.4317H31.2926C31.9127 48.4317 32.4154 47.9291 32.4154 47.3089C32.4154 46.6887 31.9127 46.186 31.2926 46.186Z" fill="#3C6A7A"/>
<path d="M2.4727 30.0645C2.4727 30.6847 1.96993 31.1874 1.34987 31.1874C0.730529 31.1874 0.228199 30.6859 0.227053 30.0667V66.4721C0.227053 67.0923 0.729823 67.5949 1.34988 67.5949H30.9606V65.3494H2.4727V29.2684L2.4727 29.2663L2.4727 30.0645Z" fill="#3C6A7A"/>
<path fill-rule="evenodd" clip-rule="evenodd" d="M46.7879 17.2911H57.6422C58.2622 17.2911 58.765 16.7885 58.765 16.1682V7.78427C58.765 3.86317 55.5747 0.672852 51.6536 0.672852H10.9315C5.02912 0.672852 0.227053 5.47492 0.227053 11.3773V29.2684C0.227053 28.6482 0.729823 28.1456 1.34988 28.1456C1.96923 28.1456 2.47157 28.6471 2.4727 29.2663L2.4727 11.3773C2.4727 6.71309 6.26729 2.9185 10.9315 2.9185H46.472C45.2759 4.1915 44.5423 5.90372 44.5423 7.78427V41.4714H46.7879V17.2911ZM51.6539 2.9185C48.9709 2.9185 46.7881 5.10119 46.7881 7.78427L46.7882 15.0454H56.5196V7.78427C56.5196 5.10119 54.3368 2.9185 51.6539 2.9185Z" fill="#3C6A7A"/>
<path d="M1.34987 31.1874C1.96993 31.1874 2.4727 30.6847 2.4727 30.0645L2.4727 29.2663C2.47157 28.6471 1.96923 28.1456 1.34988 28.1456C0.729823 28.1456 0.227053 28.6482 0.227053 29.2684V30.0667C0.228199 30.6859 0.730529 31.1874 1.34987 31.1874Z" fill="#3C6A7A"/>
<path d="M59.9222 72.0736L52.5201 64.6714M45.1179 68.3725C38.9857 68.3725 34.0146 63.4014 34.0146 57.2693C34.0146 51.1371 38.9857 46.166 45.1179 46.166C51.2501 46.166 56.2212 51.1371 56.2212 57.2693C56.2212 63.4014 51.2501 68.3725 45.1179 68.3725Z" stroke="#3BB3BD" stroke-width="2.02582"/>
<path d="M41.3276 53.2827L49.4309 61.386M41.3276 61.386L49.4309 53.2827" stroke="#3BB3BD" stroke-width="1.35055"/>
</svg>
