<svg width="59" height="79" viewBox="0 0 59 79" fill="none" xmlns="http://www.w3.org/2000/svg">
<path d="M43.7906 40.718C29.1916 52.9731 6.61401 42.6153 6.61401 23.5017C6.61401 17.538 8.99867 11.8184 13.2434 7.6014C17.4881 3.38436 23.2452 1.01526 29.2482 1.01526C50.404 1.01526 59.875 27.3315 43.7906 40.718Z" fill="#E7E7E7"/>
<path d="M43.7904 40.718C28.6114 53.4791 4.85263 41.7018 6.71287 21.3937C7.23957 26.9692 9.84141 32.1489 14.0093 35.9192C18.1772 39.6895 23.6112 41.779 29.248 41.779C34.8848 41.779 40.3188 39.6895 44.4867 35.9192C48.6546 32.1489 51.2564 26.9692 51.7831 21.3937C52.1309 25.0174 51.5849 28.6708 50.1922 32.0378C48.7996 35.4048 46.6023 38.3841 43.7904 40.718Z" fill="#DFDFDF"/>
<path d="M43.769 40.7249C39.7052 44.1269 34.562 45.9927 29.2478 45.9927C23.9336 45.9927 18.7904 44.1269 14.7266 40.7249C18.8856 23.3681 39.61 23.3892 43.769 40.7249Z" fill="#3BB3BD"/>
<path d="M29.2481 27.718C33.9357 27.718 37.7359 23.9427 37.7359 19.2856C37.7359 14.6285 33.9357 10.8531 29.2481 10.8531C24.5604 10.8531 20.7603 14.6285 20.7603 19.2856C20.7603 23.9427 24.5604 27.718 29.2481 27.718Z" fill="#3BB3BD"/>
<path d="M29.248 27.718C28.0138 27.7177 26.7945 27.4501 25.675 26.9337C24.5556 26.4173 23.563 25.6646 22.7664 24.7281C21.9698 23.7915 21.3883 22.6936 21.0626 21.5109C20.7369 20.3282 20.6747 19.0891 20.8804 17.8801C21.2166 19.8431 22.2412 21.6246 23.7726 22.9091C25.3041 24.1936 27.2437 24.8982 29.248 24.8982C31.2523 24.8982 33.1919 24.1936 34.7234 22.9091C36.2548 21.6246 37.2794 19.8431 37.6156 17.8801C37.8213 19.0891 37.7591 20.3282 37.4334 21.5109C37.1077 22.6936 36.5262 23.7915 35.7296 24.7281C34.933 25.6646 33.9404 26.4173 32.821 26.9337C31.7015 27.4501 30.4822 27.7177 29.248 27.718Z" fill="#3BB3BD"/>
<path d="M56.8328 66.3667H1.66211V76.2045H56.8328V66.3667Z" fill="#E7E7E7"/>
<path d="M56.8328 50.9072H1.66211V60.7451H56.8328V50.9072Z" fill="#E7E7E7"/>
<path d="M56.8328 57.9342H1.66211V60.745H56.8328V57.9342Z" fill="#DBDBDB"/>
<path d="M56.8328 73.3936H1.66211V76.2044H56.8328V73.3936Z" fill="#DBDBDB"/>
<path d="M43.769 40.7252C39.7052 44.1272 34.562 45.993 29.2478 45.993C23.9336 45.993 18.7904 44.1272 14.7266 40.7252C14.9903 39.5792 15.3523 38.4578 15.8088 37.3733C19.6908 40.2315 24.3947 41.7744 29.2266 41.7744C34.0584 41.7744 38.7624 40.2315 42.6444 37.3733C43.1153 38.4565 43.4916 39.5779 43.769 40.7252Z" fill="#3BB3BD"/>
</svg>
