<svg width="488" height="541" viewBox="0 0 488 541" fill="none" xmlns="http://www.w3.org/2000/svg">
<path opacity="0.2" fill-rule="evenodd" clip-rule="evenodd" d="M329.245 0L184.413 540.519H370.168L515 0H329.245Z" fill="url(#paint0_linear)"/>
<path d="M347.572 439.95H73.1265C69.6193 439.95 66.8135 437.319 66.8135 434.03V290.786C66.8135 287.497 69.6193 284.866 73.1265 284.866H347.572C351.079 284.866 353.885 287.497 353.885 290.786V434.03C353.709 437.319 350.903 439.95 347.572 439.95Z" fill="#E1E3ED"/>
<path d="M99.8968 299.042C101.835 299.042 103.406 297.469 103.406 295.53C103.406 293.59 101.835 292.017 99.8968 292.017C97.959 292.017 96.3881 293.59 96.3881 295.53C96.3881 297.469 97.959 299.042 99.8968 299.042Z" fill="white"/>
<path d="M111.475 299.042C113.413 299.042 114.984 297.469 114.984 295.529C114.984 293.589 113.413 292.017 111.475 292.017C109.537 292.017 107.966 293.589 107.966 295.529C107.966 297.469 109.537 299.042 111.475 299.042Z" fill="white"/>
<path d="M107.97 331.707C109.811 331.707 111.303 330.213 111.303 328.37C111.303 326.528 109.811 325.034 107.97 325.034C106.129 325.034 104.636 326.528 104.636 328.37C104.636 330.213 106.129 331.707 107.97 331.707Z" stroke="white" stroke-width="0.459" stroke-miterlimit="10"/>
<path d="M130.601 331.707C132.442 331.707 133.935 330.213 133.935 328.37C133.935 326.528 132.442 325.034 130.601 325.034C128.76 325.034 127.268 326.528 127.268 328.37C127.268 330.213 128.76 331.707 130.601 331.707Z" stroke="white" stroke-width="0.459" stroke-miterlimit="10"/>
<path d="M151.48 331.707C153.321 331.707 154.813 330.213 154.813 328.37C154.813 326.528 153.321 325.034 151.48 325.034C149.639 325.034 148.146 326.528 148.146 328.37C148.146 330.213 149.639 331.707 151.48 331.707Z" stroke="white" stroke-width="0.459" stroke-miterlimit="10"/>
<path d="M334.371 367.358H200.494C198.086 367.358 196.16 365.947 196.16 364.183V314.439C196.16 312.675 198.086 311.263 200.494 311.263H334.371C336.779 311.263 338.705 312.675 338.705 314.439V364.183C338.705 365.77 336.779 367.358 334.371 367.358Z" fill="white"/>
<path d="M334.371 388.476H200.494C198.086 388.476 196.16 388.061 196.16 387.542V372.911C196.16 372.392 198.086 371.977 200.494 371.977H334.371C336.779 371.977 338.705 372.392 338.705 372.911V387.542C338.705 388.009 336.779 388.476 334.371 388.476Z" fill="white"/>
<path d="M334.371 411.573H200.494C198.086 411.573 196.16 411.158 196.16 410.639V396.009C196.16 395.49 198.086 395.075 200.494 395.075H334.371C336.779 395.075 338.705 395.49 338.705 396.009V410.639C338.705 411.106 336.779 411.573 334.371 411.573Z" fill="white"/>
<path d="M334.371 434.671H200.494C198.086 434.671 196.16 434.256 196.16 433.737V419.106C196.16 418.588 198.086 418.173 200.494 418.173H334.371C336.779 418.173 338.705 418.588 338.705 419.106V433.737C338.705 434.204 336.779 434.671 334.371 434.671Z" fill="white"/>
<path d="M185.09 373.297H87.7809C86.0308 373.297 84.6306 371.737 84.6306 369.786V314.775C84.6306 312.824 86.0308 311.263 87.7809 311.263H185.09C186.84 311.263 188.24 312.824 188.24 314.775V369.786C188.24 371.542 186.84 373.297 185.09 373.297Z" fill="white"/>
<path d="M185.09 443.25H87.7809C86.0308 443.25 84.6306 441.69 84.6306 439.739V384.728C84.6306 382.777 86.0308 381.217 87.7809 381.217H185.09C186.84 381.217 188.24 382.777 188.24 384.728V439.739C188.24 441.495 186.84 443.25 185.09 443.25Z" fill="white"/>
<path d="M102.176 538.238L112.526 454.115C112.526 453.94 112.526 453.764 112.526 453.764C113.93 447.793 118.316 442.525 124.807 440.768C134.105 437.958 143.93 443.403 146.562 452.711C147.439 455.52 147.439 458.33 146.913 461.14V461.316C146.913 461.492 146.913 461.492 146.913 461.667L136.562 526.12C134.456 534.55 126.211 539.994 117.614 538.414L102.176 538.238Z" fill="white"/>
<path d="M169.019 436.202L126.563 440.066L123.054 540.521L210.774 540.697L214.984 440.768L169.019 436.202Z" fill="#3C6A7A"/>
<path d="M169.193 455.345C168.843 455.345 168.492 455.345 168.141 455.345C154.632 454.291 151.299 443.929 151.299 438.485C151.299 436.905 152.702 435.851 154.281 435.851C155.86 435.851 157.264 437.08 157.264 438.661C157.264 439.715 157.439 449.198 168.492 449.901C169.72 449.901 180.421 450.252 181.65 438.485C181.825 436.905 183.229 435.851 184.983 436.026C186.562 436.202 187.79 437.431 187.615 439.012C186.386 452.008 175.685 455.345 169.193 455.345Z" fill="white"/>
<path d="M210.791 540.519L211.668 522.501L158.159 527.821L156.912 540.2L210.791 540.519Z" fill="white"/>
<path d="M212.527 500.304L199.019 471.678L196.036 507.856L212.352 505.221L212.527 500.304Z" fill="white"/>
<path d="M253.227 509.963L227.613 450.076C227.613 449.901 227.437 449.901 227.437 449.725C224.455 444.281 218.665 440.593 211.999 440.593C202.35 440.593 194.455 448.496 194.455 458.155C194.455 461.141 195.157 463.775 196.385 466.234V466.409C196.385 466.585 196.56 466.585 196.56 466.76L224.455 525.769C228.841 533.321 238.315 536.131 246.034 532.267C254.28 528.052 257.613 518.042 253.227 509.963Z" fill="#3C6A7A"/>
<path d="M154.279 523.311L195.507 517.339L184.981 534.023L151.998 537.185L154.279 523.311Z" fill="#ECC2C3"/>
<path d="M151.472 521.378C157.612 525.418 159.542 531.213 153.752 535.955C147.963 540.697 138.138 541.399 131.998 537.36C125.858 533.321 125.682 527.525 131.472 522.783C137.437 518.042 145.331 517.339 151.472 521.378Z" fill="#ECC2C3"/>
<path d="M161.825 513.124L234.983 501.709C243.053 500.304 252.878 506.802 254.808 514.881C256.913 524.013 250.597 533.145 241.299 534.199L166.562 539.116L161.825 513.124Z" fill="#3C6A7A"/>
<path d="M187.262 402.483L181.999 439.539C181.121 446.037 175.156 450.779 168.665 450.252C161.648 449.725 156.384 443.403 157.086 436.378L160.42 405.117L187.262 402.483Z" fill="#ECC2C3"/>
<path d="M184.804 409.508C184.804 409.508 179.892 437.08 157.787 429.177L159.015 417.938L184.804 409.508Z" fill="#B08182"/>
<path d="M150.948 368.939C150.948 368.939 137.79 376.315 147.088 389.487C156.386 402.658 158.667 369.993 158.667 369.993L150.948 368.939Z" fill="#323A49"/>
<path d="M190.772 401.078C190.772 401.078 210.071 379.652 187.965 371.046L186.036 401.78L190.772 401.078Z" fill="#323A49"/>
<path d="M163.579 423.909L164.281 424.084C175.509 425.489 185.86 417.411 187.264 406.171L190.071 382.989C190.421 380.003 188.316 377.369 185.509 377.018L158.492 373.681C153.228 372.978 148.492 376.666 147.79 381.935L145.334 400.902C144.281 412.318 152.351 422.504 163.579 423.909Z" fill="#ECC2C3"/>
<path d="M170.442 397.069C170.488 396.1 169.74 395.278 168.772 395.232C167.804 395.186 166.983 395.935 166.937 396.903C166.892 397.872 167.639 398.695 168.607 398.74C169.575 398.786 170.396 398.038 170.442 397.069Z" fill="#323A49"/>
<path d="M154.708 395.171C154.754 394.202 154.006 393.379 153.038 393.334C152.07 393.288 151.249 394.036 151.203 395.005C151.157 395.974 151.905 396.797 152.873 396.842C153.841 396.888 154.662 396.14 154.708 395.171Z" fill="#323A49"/>
<path d="M157.439 398.619L156.386 402.483C156.386 402.483 156.386 405.117 160.07 404.59" stroke="#B07078" stroke-width="0.8442" stroke-miterlimit="10" stroke-linecap="round" stroke-linejoin="round"/>
<path d="M173.931 391.243C173.755 391.243 173.755 391.243 173.58 391.243L166.036 390.014C165.159 389.838 164.632 389.135 164.808 388.257C164.983 387.379 165.685 386.852 166.562 387.028L174.106 388.257C174.983 388.433 175.51 389.135 175.334 390.014C175.159 390.54 174.633 391.067 173.931 391.243Z" fill="#323A49"/>
<path d="M155.159 388.608C154.983 388.608 154.983 388.608 154.808 388.608L150.246 387.906C149.369 387.73 148.843 387.028 149.018 386.15C149.194 385.272 149.895 384.745 150.773 384.92L155.334 385.623C156.211 385.798 156.738 386.501 156.562 387.379C156.562 388.082 155.86 388.608 155.159 388.608Z" fill="#323A49"/>
<path d="M152.878 406.698L166.386 408.805C166.386 408.805 164.281 413.723 156.913 411.966C152.878 410.913 152.878 406.698 152.878 406.698Z" fill="white"/>
<path d="M187.613 371.573L187.964 371.046C187.964 371.046 183.403 369.641 181.648 363.846C181.473 362.617 180.947 361.387 180.42 359.807C176.561 350.499 160.771 348.391 153.754 354.362C146.736 360.334 146.736 370.695 153.578 377.72C159.017 383.516 170.42 381.232 174.455 380.179C175.508 380.003 176.561 380.003 177.438 380.179L179.719 380.881C178.491 386.852 182.175 391.594 182.175 391.594L181.122 400.902L183.403 401.253L188.666 399.146L194.806 382.286C194.806 382.462 192.877 371.046 187.613 371.573Z" fill="#323A49"/>
<path d="M196.451 402.888C196.908 399.23 194.317 395.895 190.663 395.437C187.01 394.98 183.678 397.574 183.221 401.231C182.764 404.889 185.355 408.224 189.009 408.682C192.662 409.139 195.994 406.545 196.451 402.888Z" fill="#ECC2C3"/>
<path d="M138.316 535.956H81.2986C80.0705 535.956 79.0178 537.01 79.0178 538.239C79.0178 539.468 80.0705 540.522 81.2986 540.522H138.316C139.544 540.522 140.597 539.468 140.597 538.239C140.597 537.01 139.544 535.956 138.316 535.956Z" fill="#9BAECE"/>
<path d="M161.476 536.015H126.564C125.336 536.015 124.283 537.054 124.283 538.267C124.283 539.48 125.336 540.519 126.564 540.519H161.476C162.704 540.519 163.757 539.48 163.757 538.267C163.932 537.054 162.88 536.015 161.476 536.015Z" fill="#9BAECE"/>
<path d="M127.79 518.569H7.43863C4.45616 518.569 2 516.11 2 513.125V438.134C2 435.149 4.45616 432.69 7.43863 432.69H127.79C130.772 432.69 133.229 435.149 133.229 438.134V513.301C133.229 516.11 130.772 518.569 127.79 518.569Z" fill="#BED0F0"/>
<path d="M76.0374 471.678L107.441 518.569H62.3531L76.0374 471.678Z" fill="#9BAECE"/>
<path d="M53.5805 470.449H73.756C75.5104 470.449 76.9139 472.029 76.563 473.961L63.5805 538.239C63.2296 539.644 62.177 540.522 60.7735 540.522H39.5454C37.791 540.522 36.3875 538.766 36.7383 537.009L50.7735 472.732C51.1244 471.502 52.3524 470.449 53.5805 470.449Z" fill="#BAC1D7"/>
<path d="M83.0531 535.956H45.86V540.522H83.0531C84.2812 540.522 85.3338 539.468 85.3338 538.239C85.3338 537.01 84.4566 535.956 83.0531 535.956Z" fill="#BAC1D7"/>
<rect x="224.538" y="232.731" width="65.9934" height="65.9934" rx="10" fill="#FAE8E1"/>
<g clip-path="url(#clip0)">
<path d="M278.833 241H251.333C249.033 241.003 247.169 242.829 247.167 245.083V257.375C241.529 257.805 237.176 262.409 237.167 267.95V278.648C235.228 279.039 233.836 280.71 233.833 282.65C233.836 282.918 233.865 283.186 233.923 283.448C233.329 284.055 232.998 284.863 233 285.704V287.55C233 288.903 234.119 290 235.5 290H260.5C261.881 290 263 288.903 263 287.55V285.704C263.002 284.863 262.671 284.055 262.078 283.449C262.135 283.186 262.164 282.918 262.167 282.65C262.164 280.71 260.772 279.039 258.833 278.648V275.3H278.833C281.133 275.297 282.997 273.471 283 271.217V245.083C282.997 242.829 281.133 241.003 278.833 241V241ZM248 258.967C253.06 258.973 257.161 262.991 257.167 267.95V271.16C251.811 270.629 248.739 265.933 248.708 265.885C248.555 265.645 248.288 265.5 248 265.5C247.712 265.5 247.445 265.646 247.293 265.885C247.262 265.934 244.21 270.63 238.834 271.16V267.95C238.84 262.991 242.94 258.973 248 258.967ZM273 270.4H268V268.767H273V270.4ZM273 267.133H268C267.08 267.133 266.333 267.865 266.333 268.767V270.4H258.833V267.95C258.829 263.665 256.201 259.802 252.167 258.15V246.717C252.167 246.266 252.54 245.9 253 245.9H277.167C277.627 245.9 278 246.266 278 246.717V269.583C278 270.034 277.627 270.4 277.167 270.4H274.667V268.767C274.667 267.865 273.92 267.133 273 267.133ZM244.667 281.159C245.574 282.01 246.749 282.536 248 282.65C249.249 282.504 250.418 281.969 251.333 281.123V282.511C251.179 282.886 250.44 284.283 248 284.283C245.56 284.283 244.815 282.874 244.667 282.514V281.159ZM248 281.017C247.108 281.017 245.729 280.073 244.475 278.719C244.448 278.682 244.417 278.648 244.384 278.617C242.884 276.964 241.583 274.735 241.558 272.842C241.558 272.695 241.553 272.491 241.545 272.263C244.091 271.368 246.328 269.789 248 267.705C249.688 269.809 251.953 271.398 254.529 272.285C254.521 272.501 254.517 272.693 254.517 272.831C254.464 276.26 249.954 281.017 248 281.017ZM237.196 280.341C237.26 280.728 237.6 281.013 238 281.017C238.46 281.017 238.833 280.651 238.833 280.2V272.807C239.194 272.776 239.548 272.735 239.889 272.676V272.852C239.917 274.791 241.25 277.443 243 279.501V281.896L236.032 282.451C235.856 282.469 235.682 282.5 235.511 282.545C235.556 281.541 236.225 280.666 237.196 280.341ZM261.333 287.55C261.333 288.001 260.96 288.367 260.5 288.367H235.5C235.04 288.367 234.667 288.001 234.667 287.55V285.704C234.662 284.86 235.318 284.153 236.175 284.078L243.314 283.507C243.811 284.407 245.078 285.917 248 285.917C250.923 285.917 252.189 284.407 252.686 283.511L259.818 284.078C260.678 284.15 261.337 284.857 261.333 285.704V287.55ZM260.489 282.546C260.316 282.501 260.139 282.468 259.961 282.45L253 281.896V279.538C254.75 277.587 256.15 275.039 256.183 272.841C256.183 272.796 256.183 272.741 256.183 272.686C256.503 272.739 256.83 272.778 257.165 272.806V280.2C257.165 280.651 257.538 281.017 257.998 281.017C258.398 281.013 258.738 280.728 258.803 280.341C259.775 280.666 260.444 281.541 260.489 282.546ZM281.333 271.217C281.333 272.57 280.214 273.667 278.833 273.667H258.833V272.033H277.167C278.547 272.033 279.667 270.936 279.667 269.583V246.717C279.667 245.364 278.547 244.267 277.167 244.267H253C251.619 244.267 250.5 245.364 250.5 246.717V257.63C249.952 257.502 249.395 257.417 248.833 257.375V245.083C248.833 243.73 249.953 242.633 251.333 242.633H278.833C280.214 242.633 281.333 243.73 281.333 245.083V271.217Z" fill="#E63946"/>
<path d="M258 249.983C257.107 249.985 256.282 250.451 255.834 251.208C255.62 251.597 255.76 252.082 256.151 252.302C256.541 252.523 257.039 252.4 257.276 252.025C257.478 251.682 257.902 251.53 258.282 251.665C258.662 251.801 258.888 252.183 258.819 252.573C258.749 252.964 258.404 253.249 258 253.25C257.54 253.25 257.167 253.615 257.167 254.067C257.167 254.518 257.54 254.883 258 254.883C258.405 254.884 258.75 255.168 258.82 255.559C258.89 255.949 258.664 256.332 258.284 256.467C257.904 256.603 257.48 256.451 257.278 256.108C257.041 255.733 256.542 255.61 256.152 255.831C255.762 256.052 255.622 256.536 255.835 256.925C256.401 257.885 257.554 258.353 258.647 258.066C259.74 257.779 260.5 256.809 260.5 255.7C260.498 255.095 260.266 254.513 259.85 254.067C260.516 253.351 260.687 252.318 260.286 251.433C259.885 250.548 258.988 249.979 258 249.983Z" fill="#E63946"/>
<path d="M268 253.25H266.333V251.616C266.333 251.165 265.96 250.8 265.5 250.8C265.04 250.8 264.667 251.165 264.667 251.616V253.25H263C262.54 253.25 262.167 253.615 262.167 254.066C262.167 254.518 262.54 254.883 263 254.883H264.667V256.516C264.667 256.968 265.04 257.333 265.5 257.333C265.96 257.333 266.333 256.968 266.333 256.516V254.883H268C268.46 254.883 268.833 254.518 268.833 254.066C268.833 253.615 268.46 253.25 268 253.25Z" fill="#E63946"/>
<path d="M275.5 257.333C275.5 256.882 275.127 256.517 274.667 256.517H273.833V250.8C273.833 250.349 273.46 249.983 273 249.983H271.333C270.873 249.983 270.5 250.349 270.5 250.8C270.5 251.251 270.873 251.617 271.333 251.617H272.167V256.517H271.333C270.873 256.517 270.5 256.882 270.5 257.333C270.5 257.784 270.873 258.15 271.333 258.15H274.667C275.127 258.15 275.5 257.784 275.5 257.333Z" fill="#E63946"/>
<path d="M251.265 242.607C249.497 242.638 248.818 244.02 248.818 244.79L248.824 251.091L248.824 257.387C249.247 257.387 250.151 257.593 250.53 257.697C250.497 254.851 250.452 248.699 250.53 246.862C250.608 245.025 251.929 244.406 252.58 244.326C259.723 244.278 274.605 244.211 276.987 244.326C279.369 244.441 279.588 246.079 279.588 247.005V270.178C279.016 271.727 278.089 271.868 277.553 271.949L277.538 271.951L258.8 272.031V273.653H278.193C280.506 273.934 281.293 272.254 281.349 271.356C281.33 263.686 281.313 247.765 281.357 245.502C281.402 243.239 279.889 242.623 278.969 242.623C270.478 242.61 253.034 242.577 251.265 242.607Z" fill="#FAE8E1"/>
</g>
<g filter="url(#filter0_d)">
<g filter="url(#filter1_d)">
<rect x="321" y="332" width="69.293" height="69.2931" rx="10" fill="white"/>
</g>
<g clip-path="url(#clip1)">
<path d="M355.408 369.453C350.035 369.453 345.321 374.216 345.321 379.539C345.32 384.788 350.069 389.627 355.408 389.627C360.709 389.627 365.496 384.934 365.495 379.539C365.494 374.143 360.837 369.453 355.408 369.453ZM363.184 375.555C363.604 376.369 363.898 377.258 364.044 378.195L362.655 377.185L363.184 375.555ZM362.241 374.098L361.314 376.952L359.102 377.953L356.082 375.758V373.096L358.476 371.357C359.966 371.918 361.264 372.874 362.241 374.098ZM358.231 378.986L357.153 382.305H353.663L352.584 378.986L355.408 376.934L358.231 378.986ZM355.408 370.801C355.88 370.801 356.344 370.839 356.796 370.911L355.408 371.92L354.019 370.911C354.471 370.839 354.935 370.801 355.408 370.801ZM352.34 371.357L354.734 373.096V375.758L351.713 377.953L349.502 376.952L348.574 374.098C349.551 372.874 350.849 371.918 352.34 371.357ZM347.631 375.555L348.161 377.185L346.772 378.195C346.917 377.258 347.212 376.369 347.631 375.555ZM348.119 384.357C347.27 383.077 346.749 381.56 346.677 379.929L349.032 378.218L351.243 379.22L352.416 382.828L351.108 384.357H348.119ZM349.219 385.705H350.929L351.459 387.335C350.627 386.912 349.871 386.36 349.219 385.705ZM357.735 387.965C356.994 388.17 356.214 388.28 355.408 388.28C354.602 388.28 353.822 388.17 353.08 387.965L352.176 385.182L353.483 383.653H357.332L358.639 385.182L357.735 387.965ZM359.357 387.335L359.887 385.705H361.597C360.944 386.36 360.189 386.912 359.357 387.335ZM362.696 384.357H359.707L358.4 382.828L359.572 379.22L361.784 378.218L364.138 379.929C364.066 381.56 363.545 383.076 362.696 384.357ZM374.553 346.958C374.445 346.887 374.317 346.847 374.185 346.847H336.63C336.498 346.847 336.37 346.887 336.262 346.958C335.844 347.149 335.552 347.571 335.552 348.06V374.204C335.536 374.737 336.201 375.076 336.622 374.749L340.892 371.644H346.118C346.49 371.644 346.792 371.342 346.792 370.97C346.792 370.598 346.49 370.296 346.118 370.296H344.907L344.522 366.954H347.706L347.873 369.861C347.894 370.22 348.191 370.497 348.545 370.497C348.558 370.497 348.571 370.496 348.585 370.496C348.956 370.474 349.24 370.156 349.219 369.784L349.056 366.954H352.244V368.275C352.244 368.647 352.546 368.949 352.918 368.949C353.29 368.949 353.592 368.647 353.592 368.275V366.954H357.224V367.764C357.224 368.137 357.525 368.438 357.897 368.438C358.27 368.438 358.571 368.137 358.571 367.764V366.954H361.76L361.597 369.784C361.576 370.156 361.86 370.474 362.231 370.496C362.244 370.496 362.257 370.497 362.27 370.497C362.625 370.497 362.922 370.22 362.942 369.861L363.11 366.954H366.293L365.909 370.296H364.698C364.325 370.296 364.024 370.598 364.024 370.97C364.024 371.342 364.325 371.644 364.698 371.644H369.923L374.193 374.749C374.614 375.076 375.279 374.737 375.263 374.204V348.06C375.263 347.571 374.971 347.149 374.553 346.958ZM347.089 356.227H343.289L342.905 352.884H346.897L347.089 356.227ZM346.628 348.195L346.82 351.537H342.75L342.366 348.195H346.628ZM342.472 360.916H339.624L339.047 357.574H342.088L342.472 360.916ZM341.933 356.227H338.815L338.239 352.884H341.549L341.933 356.227ZM341.009 348.195L341.394 351.537H338.007L337.43 348.195H341.009ZM336.9 372.881V353.05L339.938 370.672L336.9 372.881ZM339.856 362.264H342.627L343.011 365.606H340.432L339.856 362.264ZM341.241 370.296L340.665 366.954H343.166L343.55 370.296H341.241ZM343.444 357.574H347.167L347.359 360.916H343.828L343.444 357.574ZM344.367 365.606L343.983 362.264H347.436L347.629 365.606H344.367ZM352.244 365.606H348.978L348.786 362.264H352.244V365.606ZM352.244 360.916H348.709L348.517 357.574H352.244V360.916ZM352.244 356.227H348.439L348.247 352.884H352.244V356.227ZM352.244 351.537H348.17L347.978 348.195H352.244V351.537ZM357.223 365.606H353.592V362.264H357.223V365.606ZM357.223 360.916H353.592V357.574H357.223V360.916ZM357.223 356.227H353.592V352.884H357.223V356.227ZM357.223 351.537H353.592V348.195H357.223V351.537ZM361.837 365.606H358.571V362.264H362.029L361.837 365.606ZM362.107 360.916H358.571V357.574H362.299L362.107 360.916ZM362.376 356.227H358.571V352.884H362.568L362.376 356.227ZM362.646 351.537H358.571V348.195H362.838L362.646 351.537ZM369.806 348.195H373.385L372.809 351.537H369.422L369.806 348.195ZM369.267 352.884H372.577L372 356.227H368.883L369.267 352.884ZM371.768 357.574L371.192 360.916H368.344L368.728 357.574H371.768ZM364.188 348.195H368.449L368.065 351.537H363.996L364.188 348.195ZM363.918 352.884H367.91L367.526 356.227H363.726L363.918 352.884ZM366.448 365.606H363.187L363.379 362.264H366.832L366.448 365.606ZM363.456 360.916L363.649 357.574H367.371L366.987 360.916H363.456ZM369.575 370.296H367.266L367.65 366.954H370.151L369.575 370.296ZM367.805 365.606L368.189 362.264H370.959L370.383 365.606H367.805ZM373.916 372.881L370.877 370.672L373.916 353.05V372.881ZM375.488 343.702H335.37C333.762 343.702 332.452 345.011 332.45 346.619L332.408 375.551C332.407 375.923 332.708 376.225 333.081 376.226H333.082C333.453 376.226 333.755 375.925 333.755 375.553L333.798 346.62C333.799 345.754 334.504 345.05 335.37 345.05H375.488C376.355 345.05 377.06 345.755 377.06 346.622V375.552C377.06 375.924 377.362 376.226 377.734 376.226C378.106 376.226 378.408 375.924 378.408 375.552V346.622C378.408 345.012 377.098 343.702 375.488 343.702Z" fill="#9AA1B7"/>
</g>
</g>
<rect opacity="0.2" y="288" width="40" height="40" rx="8" fill="#F55F4B"/>
<path d="M20.2768 302.32C20.0044 302.32 19.7381 302.4 19.5115 302.552C19.285 302.703 19.1084 302.918 19.0042 303.17C18.8999 303.422 18.8726 303.699 18.9258 303.966C18.9789 304.233 19.1101 304.479 19.3028 304.671C19.4954 304.864 19.7409 304.995 20.0081 305.048C20.2753 305.101 20.5523 305.074 20.804 304.97C21.0557 304.866 21.2709 304.689 21.4222 304.462C21.5736 304.236 21.6544 303.97 21.6544 303.697C21.6544 303.332 21.5093 302.981 21.2509 302.723C20.9926 302.465 20.6422 302.32 20.2768 302.32ZM20.2768 304.386C20.1406 304.386 20.0074 304.346 19.8942 304.27C19.7809 304.194 19.6926 304.087 19.6405 303.961C19.5884 303.835 19.5747 303.696 19.6013 303.563C19.6279 303.429 19.6935 303.306 19.7898 303.21C19.8861 303.114 20.0089 303.048 20.1425 303.022C20.2761 302.995 20.4146 303.009 20.5404 303.061C20.6663 303.113 20.7739 303.201 20.8495 303.314C20.9252 303.428 20.9656 303.561 20.9656 303.697C20.9656 303.88 20.8931 304.055 20.7639 304.184C20.6347 304.313 20.4595 304.386 20.2768 304.386Z" fill="#E63946"/>
<path d="M23.3763 304.042C23.172 304.042 22.9722 304.102 22.8023 304.216C22.6324 304.329 22.5 304.491 22.4218 304.679C22.3436 304.868 22.3231 305.076 22.363 305.276C22.4029 305.477 22.5013 305.661 22.6457 305.805C22.7902 305.95 22.9743 306.048 23.1747 306.088C23.3752 306.128 23.5829 306.107 23.7717 306.029C23.9605 305.951 24.1218 305.819 24.2353 305.649C24.3489 305.479 24.4095 305.279 24.4095 305.075C24.4095 304.801 24.3006 304.538 24.1069 304.344C23.9131 304.15 23.6503 304.042 23.3763 304.042ZM23.3763 305.419C23.3082 305.419 23.2416 305.399 23.185 305.361C23.1283 305.323 23.0842 305.269 23.0581 305.206C23.0321 305.144 23.0252 305.074 23.0385 305.007C23.0518 304.941 23.0846 304.879 23.1328 304.831C23.1809 304.783 23.2423 304.75 23.3091 304.737C23.3759 304.724 23.4452 304.73 23.5081 304.756C23.571 304.783 23.6248 304.827 23.6627 304.883C23.7005 304.94 23.7207 305.007 23.7207 305.075C23.7207 305.166 23.6844 305.254 23.6198 305.318C23.5552 305.383 23.4676 305.419 23.3763 305.419Z" fill="#E63946"/>
<path d="M23.3763 307.83C23.3763 308.034 23.4369 308.234 23.5505 308.404C23.664 308.574 23.8253 308.706 24.0141 308.784C24.2029 308.863 24.4107 308.883 24.6111 308.843C24.8115 308.803 24.9956 308.705 25.1401 308.56C25.2846 308.416 25.383 308.232 25.4228 308.031C25.4627 307.831 25.4422 307.623 25.364 307.434C25.2858 307.246 25.1534 307.084 24.9835 306.971C24.8136 306.857 24.6138 306.797 24.4095 306.797C24.1355 306.797 23.8727 306.905 23.6789 307.099C23.4852 307.293 23.3763 307.556 23.3763 307.83ZM24.4095 307.485C24.4776 307.485 24.5442 307.506 24.6008 307.543C24.6575 307.581 24.7016 307.635 24.7277 307.698C24.7537 307.761 24.7606 307.83 24.7473 307.897C24.734 307.964 24.7012 308.025 24.653 308.073C24.6049 308.121 24.5435 308.154 24.4767 308.168C24.4099 308.181 24.3406 308.174 24.2777 308.148C24.2148 308.122 24.161 308.078 24.1232 308.021C24.0853 307.964 24.0651 307.898 24.0651 307.83C24.0651 307.738 24.1014 307.651 24.166 307.586C24.2306 307.522 24.3182 307.485 24.4095 307.485Z" fill="#E63946"/>
<path d="M28.8865 298.187H10.2896C10.0159 298.188 9.75356 298.297 9.55998 298.491C9.3664 298.684 9.25729 298.946 9.25647 299.22V315.751C9.25729 316.025 9.3664 316.287 9.55998 316.48C9.75356 316.674 10.0159 316.783 10.2896 316.784H16.8778L15.8584 318.316C15.8229 318.367 15.8024 318.428 15.7994 318.49C15.7963 318.552 15.8108 318.613 15.8412 318.668C15.87 318.723 15.9135 318.769 15.967 318.802C16.0205 318.834 16.0818 318.851 16.1442 318.85H23.032C23.0944 318.851 23.1557 318.834 23.2092 318.802C23.2627 318.769 23.3062 318.723 23.335 318.668C23.3654 318.613 23.3799 318.552 23.3768 318.49C23.3738 318.428 23.3533 318.367 23.3178 318.316L22.2984 316.784H28.8865C29.1603 316.783 29.4226 316.674 29.6162 316.48C29.8098 316.287 29.9189 316.025 29.9197 315.751V299.22C29.9189 298.946 29.8098 298.684 29.6162 298.491C29.4226 298.297 29.1603 298.188 28.8865 298.187ZM22.388 318.161H16.7882L17.7077 316.784H21.4684L22.388 318.161ZM29.2309 315.751C29.2309 315.842 29.1946 315.93 29.1301 315.994C29.0655 316.059 28.9779 316.095 28.8865 316.095H10.2896C10.1983 316.095 10.1107 316.059 10.0461 315.994C9.98153 315.93 9.94524 315.842 9.94524 315.751V314.718H29.2309V315.751ZM29.2309 314.029H9.94524V299.22C9.94524 299.129 9.98153 299.041 10.0461 298.977C10.1107 298.912 10.1983 298.876 10.2896 298.876H28.8865C28.9779 298.876 29.0655 298.912 29.1301 298.977C29.1946 299.041 29.2309 299.129 29.2309 299.22V314.029Z" fill="#E63946"/>
<path d="M21.0793 310.413L17.291 303.852C17.2685 303.813 17.2383 303.778 17.2022 303.75C17.1661 303.722 17.1249 303.702 17.081 303.69C16.9926 303.667 16.8986 303.679 16.8192 303.725L15.6276 304.413C15.5486 304.459 15.491 304.535 15.4671 304.623C15.4433 304.711 15.4552 304.806 15.5002 304.885L19.2885 311.446C19.3356 311.524 19.4107 311.582 19.4986 311.608C19.5279 311.614 19.558 311.618 19.5881 311.618C19.6482 311.617 19.7073 311.602 19.7603 311.573L20.9519 310.884C20.9913 310.862 21.026 310.832 21.0537 310.796C21.0815 310.76 21.1019 310.719 21.1138 310.675C21.1256 310.631 21.1287 310.585 21.1228 310.54C21.1168 310.495 21.1021 310.452 21.0793 310.413ZM19.7155 310.802L16.2716 304.837L16.8674 304.493L20.3113 310.457L19.7155 310.802Z" fill="#E63946"/>
<path d="M16.5576 301.889L16.2304 301.324C16.0744 301.055 15.8483 300.832 15.5761 300.68L14.1538 299.892C14.1015 299.863 14.0426 299.848 13.9828 299.848C13.923 299.849 13.8645 299.865 13.8128 299.895C13.7616 299.925 13.7189 299.968 13.6887 300.019C13.6586 300.071 13.642 300.129 13.6406 300.188L13.6131 301.814C13.6089 302.125 13.6886 302.432 13.8438 302.702L14.171 303.267C14.3083 303.504 14.534 303.677 14.7987 303.748C15.0634 303.819 15.3454 303.782 15.583 303.646L16.1788 303.301C16.2964 303.233 16.3995 303.143 16.4822 303.036C16.565 302.928 16.6256 302.805 16.6608 302.674C16.696 302.543 16.705 302.406 16.6873 302.271C16.6696 302.137 16.6255 302.007 16.5576 301.889ZM15.9928 302.495C15.9819 302.539 15.9623 302.581 15.935 302.617C15.9078 302.653 15.8736 302.683 15.8344 302.705L15.2386 303.05C15.159 303.095 15.0648 303.107 14.9765 303.083C14.8882 303.059 14.8129 303.001 14.7668 302.922L14.4396 302.358C14.346 302.196 14.2984 302.011 14.3018 301.824L14.3191 300.773L15.242 301.283C15.4055 301.374 15.5412 301.507 15.6346 301.669L15.9583 302.234C15.9817 302.273 15.9968 302.316 16.0027 302.361C16.0087 302.406 16.0053 302.452 15.9928 302.495Z" fill="#E63946"/>
<path d="M18.3252 301.62C19.5478 301.188 20.8791 301.174 22.1103 301.581C23.3415 301.987 24.4029 302.791 25.1281 303.866C25.8533 304.941 26.2011 306.226 26.1171 307.519C26.0332 308.813 25.5221 310.043 24.664 311.015C24.5342 310.592 24.2722 310.221 23.9165 309.958C23.5608 309.695 23.1301 309.552 22.6876 309.552C22.5962 309.552 22.5086 309.588 22.4441 309.653C22.3795 309.717 22.3432 309.805 22.3432 309.896C22.3432 309.987 22.3795 310.075 22.4441 310.14C22.5086 310.204 22.5962 310.241 22.6876 310.241C23.0529 310.241 23.4033 310.386 23.6616 310.644C23.92 310.902 24.0651 311.253 24.0651 311.618C24.0653 311.651 24.063 311.684 24.0582 311.716C24.0479 311.786 24.0594 311.857 24.091 311.92C24.1226 311.984 24.1729 312.035 24.2351 312.069C24.2973 312.103 24.3683 312.116 24.4384 312.108C24.5086 312.1 24.5747 312.071 24.6275 312.024C25.7592 311.015 26.5055 309.645 26.7388 308.147C26.9722 306.649 26.6782 305.116 25.907 303.811C25.1358 302.506 23.9353 301.509 22.5106 300.99C21.0859 300.472 19.5255 300.464 18.0959 300.969C18.0097 300.999 17.9391 301.063 17.8997 301.145C17.8603 301.228 17.8552 301.322 17.8856 301.409C17.916 301.495 17.9794 301.565 18.0619 301.605C18.1443 301.644 18.239 301.649 18.3252 301.619V301.62Z" fill="#E63946"/>
<path d="M17.6109 310.597C17.0866 310.456 16.595 310.214 16.1644 309.883C15.7337 309.553 15.3724 309.141 15.101 308.671C14.8296 308.201 14.6535 307.682 14.5827 307.143C14.5119 306.605 14.5478 306.058 14.6885 305.534C14.7016 305.49 14.7057 305.444 14.7007 305.398C14.6956 305.352 14.6814 305.308 14.659 305.268C14.6365 305.228 14.6062 305.192 14.5699 305.164C14.5336 305.136 14.492 305.115 14.4476 305.103C14.4032 305.091 14.3568 305.088 14.3112 305.095C14.2656 305.101 14.2218 305.116 14.1822 305.14C14.1427 305.164 14.1083 305.195 14.081 305.232C14.0537 305.269 14.0342 305.311 14.0235 305.356C13.694 306.591 13.8679 307.906 14.5071 309.013C15.1462 310.12 16.1985 310.929 17.4329 311.261C17.4618 311.269 17.4917 311.273 17.5217 311.274C17.6053 311.274 17.686 311.243 17.7487 311.188C17.8115 311.133 17.8521 311.057 17.863 310.974C17.8739 310.891 17.8543 310.807 17.8078 310.738C17.7614 310.668 17.6913 310.618 17.6106 310.597H17.6109Z" fill="#E63946"/>
<rect x="41.0767" y="348.219" width="55.4344" height="55.4344" rx="10" fill="#E6E7FF"/>
<path d="M72.2345 384.504C71.7633 384.518 71.4091 383.988 71.6036 383.559C71.8276 383.001 72.6414 383.001 72.8655 383.559C73.0598 383.988 72.7058 384.519 72.2345 384.504Z" fill="#3BB3BD"/>
<path d="M62.4767 388.773C62.3018 388.773 62.1268 388.706 61.9933 388.572L58.4561 385.035C58.1891 384.768 58.1891 384.335 58.4561 384.068C58.723 383.801 59.1559 383.801 59.4229 384.068L62.9601 387.606C63.2271 387.873 63.2271 388.305 62.9601 388.572C62.8266 388.706 62.6516 388.773 62.4767 388.773Z" fill="#3BB3BD"/>
<path d="M63.3703 385.732C63.1953 385.732 63.0204 385.665 62.8869 385.532L61.497 384.142C61.23 383.875 61.23 383.442 61.497 383.175C61.764 382.908 62.1968 382.908 62.4638 383.175L63.8537 384.565C64.1207 384.832 64.1207 385.265 63.8536 385.532C63.7202 385.665 63.5452 385.732 63.3703 385.732Z" fill="#3BB3BD"/>
<path d="M86 364.365C86 364.183 85.928 364.009 85.7997 363.881L83.1466 361.229C82.8796 360.962 82.4468 360.962 82.1798 361.229L81.2039 362.205L80.9215 361.922C80.6545 361.655 80.2217 361.655 79.9547 361.922C79.6876 362.189 79.6877 362.622 79.9547 362.889L80.2372 363.172L79.7164 363.692L79.4338 363.41C79.1669 363.143 78.734 363.143 78.467 363.41C78.2001 363.677 78.2001 364.11 78.467 364.377L78.7495 364.659L73.2345 370.174C70.5578 368.517 67.8684 368.551 66.1207 370.298C65.6247 370.794 65.253 371.28 64.9845 371.786C64.0015 373.635 61.8064 375.298 59.8784 375.653C58.4432 375.918 57.1443 376.57 56.122 377.536C54.805 378.783 54.0899 380.408 54.0541 382.237C54.0061 384.691 55.1978 387.347 57.3239 389.523C59.4696 391.718 62.1149 392.986 64.5816 393C64.5958 393 64.6099 393 64.6241 393C66.4416 393 68.0761 392.326 69.3531 391.049C70.3977 390.004 71.0968 388.656 71.3751 387.151C71.4125 386.948 71.4656 386.738 71.5326 386.528C71.6473 386.168 71.4487 385.784 71.089 385.669C70.7293 385.554 70.3447 385.753 70.23 386.113C70.1456 386.378 70.0785 386.643 70.0306 386.902C69.8029 388.135 69.2342 389.234 68.3862 390.082C67.3714 391.097 66.0711 391.633 64.6235 391.633C64.6123 391.633 64.6008 391.633 64.5895 391.633C62.4857 391.621 60.1939 390.503 58.3018 388.567C56.4302 386.652 55.3802 384.354 55.4211 382.264C55.4496 380.81 56.0169 379.518 57.0617 378.53C57.8918 377.744 58.9516 377.215 60.1267 376.998C62.4624 376.567 65.0131 374.645 66.1919 372.427C66.3958 372.044 66.6886 371.664 67.0874 371.265C68.7346 369.618 70.9819 370.472 72.2341 371.175L66.6361 376.773C65.5998 376.723 64.5471 377.093 63.7576 377.883C63.0379 378.602 62.6415 379.559 62.6415 380.577C62.6415 381.594 63.0379 382.551 63.7575 383.271C64.477 383.991 65.4339 384.387 66.4517 384.387C67.4694 384.387 68.4262 383.991 69.1461 383.271C69.9354 382.481 70.3052 381.429 70.2555 380.393L75.8481 374.8C76.543 376.062 77.3717 378.336 75.641 380.067C75.3476 380.36 75.013 380.611 74.6467 380.811C74.4619 380.912 74.2749 381.025 74.0907 381.147C73.7757 381.355 73.6891 381.779 73.8972 382.094C74.0286 382.293 74.2462 382.401 74.4682 382.401C74.5976 382.401 74.7284 382.364 74.8444 382.288C74.997 382.187 75.1511 382.094 75.3027 382.011C75.7835 381.748 76.2227 381.419 76.608 381.033C77.634 380.007 78.1238 378.686 78.0244 377.212C77.9497 376.104 77.5459 374.934 76.8504 373.798L82.3694 368.279L82.7704 368.68C82.9039 368.813 83.0788 368.88 83.2538 368.88C83.4287 368.88 83.6037 368.813 83.7371 368.68C84.0041 368.413 84.0041 367.98 83.7371 367.713L83.3361 367.312L83.857 366.791L84.258 367.192C84.3915 367.326 84.5665 367.393 84.7414 367.393C84.9163 367.393 85.0913 367.326 85.2248 367.192C85.4917 366.925 85.4917 366.493 85.2248 366.226L84.8237 365.824L85.7999 364.848C85.928 364.72 86 364.546 86 364.365ZM68.1792 382.304C67.7177 382.766 67.1042 383.02 66.4516 383.02C65.799 383.02 65.1856 382.766 64.7242 382.304C63.7716 381.352 63.7716 379.802 64.7242 378.849C65.2004 378.373 65.826 378.135 66.4516 378.135C67.0772 378.135 67.7029 378.373 68.1791 378.849C69.1314 379.802 69.1314 381.352 68.1792 382.304ZM69.8539 378.861C69.6762 378.508 69.4403 378.177 69.146 377.883C69.146 377.883 69.1459 377.882 69.1459 377.882C68.8516 377.588 68.5207 377.352 68.1678 377.175L78.2287 367.114L79.9149 368.8L69.8539 378.861ZM80.8818 367.833L79.1956 366.147L79.7164 365.626L81.4026 367.312L80.8818 367.833ZM82.3693 366.345L80.6832 364.659L81.2041 364.138L82.8902 365.824L82.3693 366.345ZM82.1708 363.171L82.6634 362.679L84.3497 364.365L83.857 364.858L82.1708 363.171Z" fill="#3BB3BD"/>
<path d="M60.9863 363.438C60.9863 363.217 60.8801 363.011 60.7011 362.882C60.5221 362.754 60.2922 362.72 60.0835 362.79L54.7267 364.604C54.4491 364.698 54.2623 364.958 54.2623 365.251V370.419C53.9729 370.288 53.6521 370.216 53.3147 370.216C52.0383 370.216 50.9999 371.254 50.9999 372.531C50.9999 373.807 52.0383 374.845 53.3147 374.845C54.5911 374.845 55.6295 373.807 55.6295 372.531C55.6295 372.491 55.6295 365.742 55.6295 365.742L59.6191 364.391V368.605C59.3297 368.475 59.0089 368.402 58.6715 368.402C57.395 368.402 56.3567 369.441 56.3567 370.717C56.3567 371.993 57.395 373.032 58.6715 373.032C59.9479 373.032 60.9862 371.993 60.9862 370.717C60.9863 370.677 60.9863 363.438 60.9863 363.438ZM53.3147 373.478C52.7921 373.478 52.3671 373.053 52.3671 372.531C52.3671 372.008 52.7922 371.583 53.3147 371.583C53.8371 371.583 54.2623 372.008 54.2623 372.531C54.2623 373.053 53.8372 373.478 53.3147 373.478ZM58.6715 371.665C58.149 371.665 57.7239 371.24 57.7239 370.717C57.7239 370.195 58.1491 369.769 58.6715 369.769C59.1941 369.769 59.6191 370.195 59.6191 370.717C59.6191 371.24 59.194 371.665 58.6715 371.665Z" fill="#3BB3BD"/>
<path d="M82.8648 382.052L80.5562 381.27C80.3474 381.2 80.1176 381.234 79.9386 381.362C79.7595 381.491 79.6534 381.697 79.6534 381.918V387.085C79.364 386.955 79.0432 386.882 78.7058 386.882C77.4294 386.882 76.391 387.921 76.391 389.197C76.391 390.473 77.4294 391.512 78.7058 391.512C79.9822 391.512 81.0206 390.473 81.0206 389.197C81.0206 389.157 81.0206 389.036 81.0206 389.015V382.871L82.4264 383.347C82.784 383.468 83.1721 383.276 83.2931 382.919C83.4142 382.561 83.2224 382.173 82.8648 382.052ZM78.7058 390.145C78.1832 390.145 77.7582 389.719 77.7582 389.197C77.7582 388.674 78.1833 388.249 78.7058 388.249C79.2283 388.249 79.6534 388.675 79.6534 389.197C79.6534 389.72 79.2283 390.145 78.7058 390.145Z" fill="#3BB3BD"/>
<path d="M69.6862 365.355C69.5516 365.355 69.417 365.316 69.301 365.237C68.8186 364.908 66.3839 363.222 65.8182 362.343C65.5718 361.96 65.2507 361.353 65.3055 360.499C65.3966 359.083 66.5561 357.985 67.9436 358C68.7235 358.009 69.3437 358.423 69.7544 358.811C70.175 358.438 70.7985 358.039 71.5425 358.039C71.5501 358.039 71.5575 358.039 71.565 358.039C72.9533 358.054 74.0882 359.177 74.1487 360.595C74.1852 361.447 73.8513 362.048 73.5969 362.426C73.0088 363.3 70.5467 364.927 70.0591 365.245C69.9457 365.319 69.8158 365.355 69.6862 365.355ZM67.9164 359.367C67.2712 359.367 66.7133 359.912 66.6698 360.587C66.6469 360.944 66.7332 361.239 66.9678 361.603C67.241 362.028 68.6172 363.088 69.6949 363.846C70.7847 363.113 72.1785 362.085 72.4626 361.663C72.7053 361.302 72.798 361.01 72.7828 360.653C72.7537 359.973 72.2008 359.413 71.5503 359.406C71.0055 359.402 70.4167 360.058 70.2897 360.234C70.1578 360.417 69.9452 360.523 69.7183 360.518C69.4926 360.512 69.2841 360.396 69.1614 360.206C69.0094 359.977 68.488 359.373 67.9288 359.367C67.9247 359.367 67.9206 359.367 67.9164 359.367Z" fill="#3BB3BD"/>
<rect x="121.424" y="194.045" width="55.741" height="55.178" rx="10" fill="#E8F0FF"/>
<path d="M166.691 221.604C164.242 221.604 163.002 222.11 161.802 222.599C161.498 222.723 161.352 223.07 161.476 223.374C161.57 223.604 161.792 223.743 162.026 223.743C162.101 223.743 162.177 223.729 162.251 223.699C163.394 223.232 164.475 222.792 166.691 222.792C167.019 222.792 167.285 222.526 167.285 222.197C167.285 221.869 167.019 221.604 166.691 221.604Z" fill="#3BB3BD"/>
<path d="M165.843 231.246C163.394 231.246 162.153 231.752 160.954 232.242C159.81 232.709 158.729 233.149 156.514 233.149C154.298 233.149 153.218 232.709 152.074 232.242C150.874 231.752 149.633 231.246 147.185 231.246C144.736 231.246 143.495 231.752 142.296 232.242C141.152 232.709 140.071 233.149 137.856 233.149C135.639 233.149 134.559 232.709 133.415 232.242C133.078 232.104 132.729 231.962 132.351 231.831C132.041 231.724 131.703 231.889 131.596 232.199C131.489 232.509 131.653 232.847 131.963 232.954C132.311 233.074 132.629 233.204 132.966 233.342C134.166 233.831 135.406 234.337 137.856 234.337C140.304 234.337 141.545 233.831 142.745 233.342C143.888 232.875 144.969 232.434 147.185 232.434C149.4 232.434 150.481 232.875 151.625 233.342C152.824 233.831 154.065 234.337 156.514 234.337C158.962 234.337 160.203 233.831 161.403 233.342C162.546 232.875 163.627 232.434 165.843 232.434C166.171 232.434 166.437 232.168 166.437 231.84C166.437 231.512 166.171 231.246 165.843 231.246Z" fill="#3BB3BD"/>
<path d="M168.406 228.038C166.19 228.038 165.109 227.597 163.965 227.13C162.765 226.64 161.525 226.134 159.076 226.134C156.627 226.134 155.387 226.64 154.187 227.13C153.043 227.597 151.962 228.038 149.746 228.038C147.53 228.038 146.45 227.597 145.306 227.13C144.106 226.64 142.866 226.134 140.417 226.134C137.968 226.134 136.728 226.641 135.528 227.13C134.384 227.597 133.304 228.038 131.088 228.038C130.575 228.038 130.107 228.015 129.658 227.966C129.331 227.931 129.039 228.167 129.003 228.493C128.968 228.82 129.204 229.112 129.531 229.148C130.023 229.2 130.532 229.226 131.088 229.226C133.537 229.226 134.777 228.72 135.977 228.23C137.121 227.763 138.201 227.322 140.417 227.322C142.633 227.322 143.713 227.763 144.857 228.23C146.057 228.72 147.297 229.226 149.746 229.226C152.195 229.226 153.436 228.72 154.636 228.23C155.78 227.763 156.86 227.322 159.076 227.322C161.292 227.322 162.372 227.763 163.516 228.23C164.716 228.72 165.957 229.226 168.406 229.226C168.734 229.226 169 228.96 169 228.632C169 228.304 168.734 228.038 168.406 228.038Z" fill="#3BB3BD"/>
<path d="M168.406 217.815C166.19 217.815 165.109 217.374 163.965 216.907C163.343 216.652 162.702 216.391 161.88 216.2C161.237 213.689 158.955 211.827 156.246 211.827C153.426 211.827 151.07 213.844 150.542 216.511C150.292 216.503 149.969 216.502 149.584 216.52L147.419 211.261C147.355 211.105 147.275 210.956 147.182 210.816C146.688 210.072 145.859 209.642 144.968 209.663L139.239 209.797C138.55 209.815 137.908 210.099 137.433 210.599C136.958 211.099 136.706 211.753 136.723 212.442C136.741 213.132 137.025 213.773 137.525 214.248C138.025 214.723 138.678 214.975 139.367 214.958L143.321 214.867L143.952 216.399C143.081 216.125 141.995 215.911 140.417 215.911C137.968 215.911 136.728 216.417 135.528 216.907C134.384 217.374 133.304 217.815 131.088 217.815C130.575 217.815 130.107 217.791 129.658 217.743C129.33 217.708 129.039 217.944 129.004 218.27C128.968 218.596 129.204 218.889 129.531 218.924C130.023 218.977 130.532 219.003 131.088 219.003C133.537 219.003 134.777 218.496 135.977 218.007C137.121 217.54 138.201 217.099 140.417 217.099C142.273 217.099 143.346 217.414 144.271 217.771C141.855 218.824 139.765 220.48 138.044 222.704C137.236 222.531 136.617 222.279 135.978 222.018C134.778 221.529 133.537 221.023 131.089 221.023C130.533 221.023 130.023 221.048 129.531 221.101C129.204 221.136 128.968 221.429 129.003 221.755C129.039 222.082 129.331 222.318 129.658 222.283C130.107 222.234 130.575 222.211 131.089 222.211C133.304 222.211 134.385 222.652 135.529 223.118C136.729 223.608 137.969 224.114 140.419 224.114C142.867 224.114 144.108 223.608 145.308 223.118C146.451 222.652 147.532 222.211 149.748 222.211C151.963 222.211 153.044 222.652 154.188 223.118C155.387 223.608 156.628 224.114 159.077 224.114C160.141 224.114 161.069 224.017 161.912 223.818C162.232 223.742 162.429 223.422 162.354 223.103C162.278 222.784 161.958 222.586 161.639 222.662C160.886 222.839 160.048 222.926 159.077 222.926C158.941 222.926 158.81 222.924 158.683 222.921C160.675 221.997 162.061 219.979 162.061 217.642C162.061 217.586 162.059 217.53 162.057 217.473C162.585 217.626 163.042 217.813 163.516 218.006C164.716 218.496 165.956 219.003 168.406 219.003C168.734 219.003 169 218.737 169 218.409C169 218.081 168.734 217.815 168.406 217.815ZM149.748 221.023C147.299 221.023 146.058 221.529 144.859 222.018C143.715 222.485 142.634 222.926 140.419 222.926C140.057 222.926 139.726 222.914 139.419 222.892C140.974 221.045 142.823 219.666 144.933 218.782L145.136 219.275C145.261 219.578 145.608 219.723 145.911 219.598C146.215 219.473 146.359 219.126 146.235 218.822L144.265 214.038C144.171 213.811 143.946 213.663 143.702 213.67L139.339 213.77C138.966 213.78 138.614 213.643 138.344 213.387C138.074 213.131 137.921 212.785 137.911 212.413C137.902 212.041 138.038 211.687 138.294 211.418C138.551 211.148 138.897 210.995 139.268 210.985L144.997 210.851C145.477 210.838 145.926 211.071 146.193 211.473C146.243 211.548 146.285 211.629 146.32 211.713L148.827 217.803C149.114 218.5 148.786 219.311 148.095 219.611C147.794 219.741 147.656 220.091 147.786 220.392C147.884 220.616 148.102 220.75 148.332 220.75C148.411 220.75 148.491 220.734 148.568 220.701C149.736 220.193 150.345 218.899 150.04 217.695C150.186 217.693 150.317 217.694 150.432 217.697C150.444 218.987 150.877 220.178 151.601 221.138C151.066 221.065 150.458 221.023 149.748 221.023ZM156.246 222.27C153.694 222.27 151.618 220.194 151.618 217.643C151.618 216.581 151.979 215.602 152.583 214.82L153.679 215.915C153.336 216.61 153.451 217.475 154.028 218.052C154.376 218.399 154.829 218.578 155.286 218.592C155.299 219.049 155.478 219.501 155.826 219.849C156.188 220.211 156.664 220.392 157.139 220.392C157.422 220.392 157.704 220.327 157.962 220.199L159.069 221.306C158.287 221.91 157.308 222.27 156.246 222.27ZM154.869 216.265C154.999 216.135 155.17 216.07 155.342 216.07C155.513 216.07 155.684 216.135 155.815 216.265C156.076 216.526 156.076 216.951 155.815 217.211C155.554 217.472 155.13 217.472 154.869 217.211C154.608 216.951 154.608 216.526 154.869 216.265ZM156.666 218.063C156.796 217.932 156.968 217.867 157.139 217.867C157.31 217.867 157.482 217.932 157.612 218.063C157.873 218.324 157.873 218.748 157.612 219.009C157.351 219.27 156.927 219.27 156.666 219.009C156.405 218.748 156.405 218.324 156.666 218.063ZM159.909 220.466L158.802 219.359C159.145 218.665 159.029 217.8 158.452 217.223C158.104 216.875 157.652 216.696 157.195 216.682C157.181 216.226 157.002 215.773 156.655 215.425C156.078 214.848 155.213 214.733 154.519 215.075L153.423 213.98C154.205 213.376 155.184 213.015 156.246 213.015C158.797 213.015 160.873 215.091 160.873 217.643C160.873 218.705 160.513 219.684 159.909 220.466Z" fill="#3BB3BD"/>
<path d="M149.554 219.545C149.363 219.05 148.638 219.048 148.446 219.545C148.347 219.801 148.442 220.1 148.671 220.253C148.892 220.402 149.196 220.379 149.395 220.202C149.578 220.039 149.642 219.774 149.554 219.545Z" fill="#3BB3BD"/>
<ellipse cx="155.351" cy="216.721" rx="0.695781" ry="0.682809" fill="#F0F9FA"/>
<ellipse cx="157.156" cy="218.55" rx="0.695782" ry="0.682809" fill="#F0F9FA"/>
<rect x="255.991" y="141.323" width="52.1348" height="52.1348" rx="10" fill="white"/>
<rect x="174.913" y="80.5149" width="41.665" height="41.665" rx="10" fill="#E0F3EF"/>
<rect opacity="0.2" x="86.5157" y="121.617" width="35.4716" height="35.4716" rx="10" fill="#8EB4FF"/>
<g clip-path="url(#clip2)">
<path d="M113.494 137.933L110.548 134.719C110.358 134.511 110.213 134.265 110.123 133.998L110.43 133.704C110.606 133.536 110.823 133.416 111.059 133.357L113.146 132.835C113.429 132.764 113.606 132.485 113.549 132.198C113.491 131.905 113.204 131.712 112.911 131.768L110.815 132.164C110.573 132.21 110.323 132.191 110.09 132.11L109.354 131.852C109.047 131.51 108.656 131.256 108.217 131.117C107.439 130.868 106.591 131.007 105.935 131.475C105.793 131.575 105.663 131.69 105.545 131.816C105.375 131.9 105.173 131.873 105.031 131.745L103.395 130.279C103.208 130.111 102.967 130.019 102.715 130.019H97.2396C97.0548 130.019 96.882 130.101 96.7653 130.244C96.6487 130.387 96.6033 130.573 96.6408 130.754L99.677 145.404C99.7506 145.753 99.641 146.118 99.3958 146.371L98.3136 147.485C98.1529 147.651 98.0644 147.869 98.0644 148.1C98.0644 148.586 98.4601 148.982 98.9464 148.982H99.3541C99.5076 148.982 99.6321 148.857 99.6321 148.704C99.6321 148.55 99.5076 148.426 99.3541 148.426H98.9464C98.7666 148.426 98.6204 148.28 98.6204 148.1C98.6204 148.015 98.6531 147.934 98.7125 147.873L99.7946 146.758C99.9094 146.639 100.006 146.503 100.081 146.355L100.545 146.12C101.137 145.821 101.504 145.223 101.504 144.56V140.687C101.504 140.323 101.603 139.966 101.791 139.654L102.882 137.84C103.53 137.96 104.087 138.393 104.359 139.001C104.516 139.348 104.57 139.732 104.518 140.11C104.511 140.159 104.517 140.209 104.536 140.255L104.864 141.044C104.996 141.361 105.21 141.639 105.483 141.848L106.924 142.95L105.407 141.924C105.126 141.734 104.798 141.619 104.459 141.593L103.867 141.548C103.767 141.54 103.671 141.587 103.615 141.67C103.377 142.024 103.229 142.435 103.187 142.858L102.761 147.198C102.692 147.898 102.11 148.426 101.406 148.426H100.681C100.527 148.426 100.403 148.55 100.403 148.704C100.403 148.857 100.527 148.982 100.681 148.982H101.406C102.397 148.982 103.217 148.238 103.314 147.252L103.741 142.913C103.768 142.633 103.855 142.36 103.993 142.115L104.417 142.148C104.66 142.166 104.894 142.248 105.096 142.384L106.877 143.589C107.119 143.753 107.446 143.698 107.621 143.464C107.8 143.226 107.753 142.884 107.516 142.702L105.821 141.406C105.625 141.257 105.472 141.058 105.377 140.83L105.078 140.11C105.128 139.653 105.055 139.192 104.867 138.773C104.517 137.993 103.8 137.439 102.966 137.29C102.961 137.289 102.957 137.288 102.952 137.287C102.823 137.265 102.692 137.252 102.561 137.25C102.386 137.18 102.271 137.011 102.271 136.82V135.094L109.69 139.408C109.881 139.519 110.03 139.684 110.122 139.878C110.178 139.999 110.213 140.129 110.222 140.262L110.329 141.812C110.345 142.042 110.449 142.254 110.621 142.408C110.789 142.559 110.999 142.633 111.209 142.633C111.451 142.633 111.692 142.534 111.866 142.34L113.508 140.509C114.169 139.771 114.163 138.664 113.494 137.933ZM102.271 134.451V132.863C102.271 132.709 102.147 132.585 101.993 132.585C101.84 132.585 101.715 132.709 101.715 132.863V136.82C101.715 137.218 101.943 137.571 102.294 137.739L101.315 139.367C101.075 139.766 100.948 140.222 100.948 140.687V144.56C100.948 145.012 100.698 145.42 100.294 145.624L100.254 145.644C100.256 145.527 100.246 145.409 100.221 145.291L97.1852 130.641C97.1808 130.62 97.1889 130.604 97.1965 130.595C97.2041 130.586 97.2178 130.575 97.2396 130.575H101.715V131.534C101.715 131.687 101.84 131.812 101.993 131.812C102.147 131.812 102.271 131.687 102.271 131.534V130.575H102.715C102.829 130.575 102.939 130.617 103.024 130.693L104.659 132.159C104.852 132.332 105.095 132.421 105.34 132.421C105.472 132.421 105.604 132.395 105.73 132.342L106.289 134.158C106.425 134.603 106.681 135.002 107.027 135.312L109.91 137.897C110.247 138.199 110.383 138.658 110.266 139.095L110.254 139.138C110.168 139.058 110.073 138.987 109.969 138.927L102.271 134.451ZM113.094 140.138L111.452 141.969C111.332 142.103 111.126 142.114 110.992 141.994C110.928 141.937 110.89 141.859 110.884 141.774L110.777 140.224C110.765 140.058 110.728 139.896 110.668 139.741L110.803 139.239C110.975 138.599 110.775 137.926 110.281 137.483L107.398 134.898C107.127 134.655 106.927 134.343 106.82 133.995L106.198 131.972C106.201 131.969 106.205 131.966 106.209 131.963C106.73 131.568 107.418 131.445 108.048 131.646C108.412 131.762 108.734 131.978 108.98 132.269C109.012 132.307 109.054 132.336 109.101 132.352L109.906 132.635C110.231 132.748 110.581 132.775 110.918 132.711L112.701 132.373L110.925 132.818C110.595 132.9 110.291 133.068 110.045 133.303L109.616 133.714C109.544 133.783 109.514 133.885 109.539 133.983C109.643 134.396 109.85 134.781 110.138 135.094L113.084 138.309C113.559 138.828 113.564 139.614 113.094 140.138Z" fill="#8BA1CA"/>
<path d="M109.984 145.004L109.894 144.936C109.815 144.878 109.756 144.799 109.723 144.707L109.471 143.998C109.432 143.888 109.328 143.815 109.212 143.814C109.211 143.813 109.21 143.813 109.209 143.813C109.094 143.813 108.99 143.884 108.949 143.992L108.234 145.862C108.073 145.833 107.898 145.831 107.716 145.86C107.055 145.965 106.599 146.44 106.679 146.94C106.719 147.195 106.898 147.414 107.17 147.542C107.341 147.623 107.54 147.664 107.748 147.664C107.831 147.664 107.916 147.658 108.001 147.644C108.297 147.597 108.567 147.47 108.759 147.289C108.978 147.083 109.079 146.819 109.039 146.564C109.008 146.37 108.902 146.205 108.745 146.082L109.2 144.893L109.2 144.893C109.27 145.09 109.395 145.259 109.563 145.383L109.653 145.45C109.83 145.581 109.898 145.815 109.82 146.02C109.765 146.164 109.837 146.324 109.98 146.379C110.123 146.434 110.284 146.362 110.339 146.219C110.506 145.782 110.36 145.282 109.984 145.004ZM108.378 146.884C108.267 146.989 108.098 147.066 107.913 147.095C107.729 147.124 107.544 147.104 107.407 147.039C107.358 147.016 107.244 146.952 107.228 146.853C107.202 146.691 107.443 146.466 107.804 146.409C107.861 146.4 107.917 146.395 107.97 146.395C108.253 146.395 108.468 146.515 108.49 146.651C108.506 146.751 108.417 146.848 108.378 146.884Z" fill="#8BA1CA"/>
<path d="M98.2192 142.369C98.2083 141.901 97.884 141.493 97.4305 141.378L97.3209 141.35C97.2262 141.326 97.1417 141.275 97.0764 141.202L96.5741 140.642C96.4962 140.555 96.3724 140.526 96.264 140.57C96.1557 140.613 96.0859 140.719 96.0892 140.836L96.1466 142.833C95.9836 142.867 95.8166 142.932 95.6561 143.03C95.3996 143.186 95.1981 143.405 95.0888 143.646C94.965 143.919 94.9709 144.202 95.105 144.423C95.4026 144.91 96.1351 144.87 96.5954 144.573C97.1677 144.225 97.4098 143.613 97.1464 143.18C97.0465 143.016 96.89 142.905 96.7032 142.849L96.6667 141.578C96.8052 141.731 96.984 141.838 97.1838 141.889L97.2935 141.917C97.5061 141.971 97.6582 142.162 97.6633 142.381C97.6668 142.535 97.7947 142.655 97.9476 142.653C98.1012 142.649 98.2227 142.522 98.2192 142.369ZM96.3064 144.098C96.1468 144.195 95.9684 144.246 95.8163 144.239C95.7628 144.236 95.6326 144.22 95.58 144.134C95.5274 144.047 95.5731 143.924 95.5953 143.876C95.658 143.737 95.7856 143.602 95.9452 143.505C96.1063 143.407 96.2718 143.363 96.406 143.363C96.5319 143.363 96.6303 143.401 96.6716 143.469C96.7569 143.609 96.6188 143.908 96.3064 144.098Z" fill="#8BA1CA"/>
</g>
<path d="M204.63 109.224C204.63 109.222 204.63 109.22 204.628 109.218C204.616 109.192 204.601 109.169 204.584 109.147C204.31 108.735 203.938 108.397 203.501 108.164C203.065 107.93 202.577 107.808 202.082 107.809C201.587 107.809 201.1 107.932 200.664 108.166C200.228 108.4 199.856 108.738 199.582 109.15C199.566 109.171 199.553 109.194 199.541 109.218V109.219C199.238 109.697 199.078 110.251 199.078 110.816C199.078 111.382 199.238 111.936 199.541 112.413V112.415C199.552 112.439 199.566 112.462 199.583 112.482C199.859 112.899 200.235 113.239 200.676 113.473C201.117 113.707 201.61 113.828 202.11 113.823C202.609 113.819 203.099 113.69 203.537 113.448C203.974 113.207 204.343 112.86 204.613 112.439C204.618 112.43 204.625 112.423 204.629 112.414C204.63 112.412 204.63 112.41 204.631 112.408C204.932 111.932 205.092 111.379 205.092 110.815C205.092 110.251 204.932 109.699 204.631 109.222L204.63 109.224ZM200.053 111.761C199.914 111.466 199.842 111.144 199.842 110.818C199.842 110.491 199.914 110.169 200.053 109.874C201.354 110.41 202.814 110.41 204.115 109.874C204.254 110.169 204.326 110.491 204.326 110.817C204.326 111.143 204.254 111.466 204.115 111.761C202.813 111.229 201.355 111.229 200.053 111.76V111.761ZM203.662 109.228C202.642 109.601 201.524 109.601 200.504 109.228C200.923 108.81 201.491 108.576 202.083 108.576C202.675 108.576 203.243 108.81 203.662 109.228ZM200.505 112.407C201.524 112.034 202.643 112.034 203.663 112.407C203.243 112.825 202.676 113.059 202.084 113.059C201.492 113.059 200.924 112.825 200.505 112.407Z" fill="#94C9BE"/>
<path d="M205.722 103.405C205.738 103.389 205.755 103.374 205.772 103.358C205.774 103.356 205.775 103.353 205.778 103.351C209.628 99.4937 210.043 93.6406 206.702 90.2988C205.078 88.6741 202.819 87.8809 200.337 88.0649C197.803 88.2847 195.431 89.4047 193.652 91.2219C193.649 91.2245 193.646 91.2263 193.643 91.2291C193.624 91.2482 193.606 91.2692 193.587 91.2884C193.456 91.4211 193.329 91.5565 193.207 91.6946L193.201 91.7005C192.104 92.9167 191.295 94.3657 190.837 95.9388L190.836 95.9434C190.07 98.1408 189.749 100.416 189.467 102.423C189.251 103.962 189.059 105.32 188.714 106.124C188.646 106.101 188.574 106.097 188.504 106.113C188.434 106.129 188.371 106.164 188.32 106.214L183.152 111.383C183.116 111.418 183.088 111.461 183.069 111.507C183.05 111.553 183.04 111.603 183.04 111.653C183.04 111.704 183.05 111.754 183.069 111.8C183.088 111.846 183.116 111.889 183.152 111.924L185.077 113.849C185.112 113.885 185.155 113.913 185.201 113.932C185.248 113.952 185.297 113.961 185.348 113.961C185.398 113.961 185.448 113.952 185.494 113.932C185.541 113.913 185.583 113.885 185.618 113.849L189.652 109.816L190.786 108.681C190.804 108.663 190.82 108.643 190.834 108.622C190.842 108.609 190.85 108.594 190.856 108.58C190.86 108.572 190.865 108.564 190.868 108.556C190.875 108.54 190.88 108.523 190.884 108.506C190.886 108.499 190.888 108.492 190.89 108.484C190.895 108.46 190.897 108.436 190.897 108.411V108.41C190.897 108.385 190.895 108.36 190.89 108.336C190.888 108.329 190.885 108.322 190.884 108.315C190.882 108.308 190.879 108.297 190.875 108.287C191.68 107.943 193.038 107.75 194.576 107.534C196.583 107.252 198.858 106.932 201.055 106.166L201.06 106.164C202.635 105.706 204.084 104.896 205.301 103.797C205.445 103.67 205.585 103.54 205.722 103.405ZM200.394 88.8286C200.609 88.8124 200.823 88.8044 201.035 88.8045C201.982 88.7862 202.923 88.9567 203.803 89.3063C204.683 89.6558 205.484 90.1773 206.16 90.8402C209.205 93.8854 208.788 99.2575 205.23 102.816C205.214 102.831 205.198 102.846 205.182 102.861C204.068 103.96 202.641 104.803 200.818 105.438C200.231 105.604 199.629 105.712 199.021 105.758C196.768 105.926 194.719 105.211 193.254 103.746C191.789 102.28 191.075 100.233 191.242 97.9789C191.288 97.371 191.396 96.7692 191.562 96.1827C192.195 94.3647 193.036 92.9395 194.131 91.8265C194.149 91.8079 194.166 91.7887 194.184 91.7703C195.836 90.0784 198.039 89.0347 200.394 88.8286ZM188.591 107.026L189.974 108.41L189.381 109.003L187.998 107.619L188.591 107.026ZM185.347 113.037L183.964 111.653L187.456 108.161L188.84 109.544L185.347 113.037ZM194.471 106.775C192.681 107.027 191.231 107.232 190.342 107.694L189.306 106.659C189.768 105.77 189.973 104.32 190.225 102.53C190.332 101.769 190.445 100.969 190.585 100.151C190.846 101.719 191.59 103.165 192.714 104.289C193.838 105.412 195.285 106.155 196.853 106.415C196.034 106.556 195.232 106.669 194.471 106.775Z" fill="#94C9BE"/>
<path d="M192.833 94.4947C192.342 95.4062 192.011 96.3954 191.854 97.4191C191.842 97.4575 191.836 97.4976 191.836 97.5379C191.802 97.7928 191.78 98.0468 191.77 98.2998C191.764 98.3377 191.763 98.3765 191.768 98.4147C191.737 99.3885 191.905 100.358 192.263 101.265C192.268 101.278 192.274 101.292 192.28 101.305C192.592 102.071 193.053 102.769 193.638 103.356C193.639 103.357 193.64 103.359 193.641 103.36C193.643 103.362 193.645 103.363 193.646 103.364C194.271 103.977 195.012 104.458 195.825 104.781C196.638 105.103 197.508 105.261 198.382 105.244C198.462 105.244 198.543 105.241 198.624 105.238H198.63H198.638C198.786 105.234 198.933 105.226 199.083 105.213C199.232 105.2 199.383 105.182 199.533 105.16L199.547 105.158C201.56 104.843 203.417 103.886 204.842 102.43C206.299 101.004 207.256 99.1466 207.572 97.133C207.572 97.1284 207.573 97.1238 207.574 97.1192C207.596 96.9694 207.614 96.8191 207.627 96.6686C207.64 96.5181 207.649 96.3665 207.653 96.2169V96.2149C207.713 94.268 207.056 92.5108 205.776 91.2292L205.774 91.2272L205.773 91.2261C204.392 89.846 202.46 89.1876 200.333 89.3737C198.145 89.5976 196.106 90.583 194.572 92.1577C193.901 92.8271 193.33 93.5888 192.875 94.4198C192.858 94.4431 192.844 94.4682 192.833 94.4947ZM194.848 92.9754L195.925 94.0517L194.534 95.4423L193.665 94.5732C194 93.9993 194.397 93.4636 194.848 92.9754ZM196.986 91.2491L197.857 92.1197L196.466 93.5103L195.39 92.434C195.877 91.9828 196.413 91.5855 196.986 91.2491ZM201.031 90.1087C201.648 90.1065 202.262 90.193 202.854 90.3657L201.95 91.2674L200.87 90.1877L200.948 90.1105C200.976 90.1102 201.003 90.1087 201.031 90.1087ZM204.953 91.5087L203.573 92.8888L202.493 91.8091L203.641 90.6611C204.116 90.88 204.557 91.1653 204.952 91.5085L204.953 91.5087ZM206.342 93.362L205.194 94.5097L204.114 93.43L205.494 92.0501C205.837 92.4449 206.122 92.8866 206.341 93.3617L206.342 93.362ZM206.126 99.3056L205.424 98.6041L206.779 97.2478C206.653 97.9597 206.433 98.6516 206.125 99.3054L206.126 99.3056ZM204.567 101.613L203.491 100.537L204.882 99.1464L205.752 100.016C205.416 100.589 205.018 101.124 204.567 101.613ZM202.429 103.339L201.559 102.469L202.95 101.078L204.026 102.154C203.538 102.605 203.002 103.002 202.429 103.338V103.339ZM196.565 104.222L197.466 103.32L198.545 104.4L198.47 104.475C197.826 104.486 197.183 104.4 196.565 104.22V104.222ZM194.465 103.08L195.845 101.7L196.924 102.78L195.777 103.927C195.301 103.708 194.859 103.422 194.464 103.078L194.465 103.08ZM193.077 101.226L194.223 100.079L195.303 101.159L193.922 102.538C193.579 102.142 193.294 101.7 193.076 101.224L193.077 101.226ZM200.25 97.2949L201.64 95.9032L202.72 96.9829L201.329 98.3735L200.25 97.2949ZM200.788 98.916L199.397 100.307L198.318 99.2269L199.708 97.8363L200.788 98.916ZM199.708 96.7524L198.628 95.6728L200.019 94.282L201.098 95.3618L199.708 96.7524ZM199.167 97.2938L197.776 98.6844L196.696 97.6046L198.087 96.214L199.167 97.2938ZM197.235 99.2258L195.844 100.616L194.764 99.5366L196.155 98.146L197.235 99.2258ZM197.776 99.767L198.856 100.847L197.466 102.237L196.385 101.158L197.776 99.767ZM199.397 101.388L200.477 102.468L199.086 103.858L198.006 102.779L199.397 101.388ZM199.938 100.847L201.328 99.4563L202.409 100.536L201.018 101.926L199.938 100.847ZM201.869 98.9152L203.26 97.5243L204.34 98.6041L202.95 99.9938L201.869 98.9152ZM203.801 96.9832L205.192 95.5926L206.272 96.6721L204.881 98.0625L203.801 96.9832ZM203.26 96.4417L202.18 95.362L203.571 93.9714L204.652 95.0501L203.26 96.4417ZM201.64 94.8204L200.56 93.7408L201.95 92.3502L203.03 93.43L201.64 94.8204ZM200.019 93.1994L198.939 92.1188L200.33 90.7282L201.41 91.808L200.019 93.1994ZM199.478 93.7408L198.087 95.1314L197.006 94.0517L198.397 92.6611L199.478 93.7408ZM197.546 95.6728L196.155 97.0626L195.075 95.9828L196.466 94.5922L197.546 95.6728ZM195.614 97.6046L194.224 98.9952L193.143 97.9157L194.534 96.5251L195.614 97.6046ZM192.527 98.5315L192.602 98.4571L193.681 99.5366L192.784 100.435C192.605 99.8168 192.518 99.1752 192.527 98.5315ZM199.663 104.364L201.018 103.008L201.719 103.709C201.066 104.018 200.375 104.238 199.663 104.364ZM206.89 96.0548L206.814 96.1305L205.734 95.0501L206.635 94.149C206.815 94.768 206.9 95.4104 206.89 96.0548ZM199.754 90.2222L198.398 91.5785L197.696 90.8763C198.35 90.5679 199.042 90.348 199.754 90.2222ZM193.993 95.9837L192.639 97.3369C192.766 96.6268 192.986 95.9366 193.293 95.2839L193.993 95.9837Z" fill="#94C9BE"/>
<g clip-path="url(#clip3)">
<path d="M293.614 170.485H293.227V166.227C293.227 166.013 293.054 165.84 292.84 165.84H290.678L282.936 158.099L284.211 156.824C284.362 156.672 284.362 156.428 284.211 156.277L283.049 155.115C282.898 154.964 282.653 154.964 282.502 155.115L271.777 165.84H271.163C270.95 165.84 270.776 166.013 270.776 166.227V170.485H270.389C270.175 170.485 270.002 170.658 270.002 170.872V173.195C270.002 173.409 270.175 173.582 270.389 173.582H270.803L271.164 178.642C271.179 178.844 271.347 179.001 271.55 179.001H273.099C273.301 179.001 273.47 178.844 273.485 178.642L273.846 173.582H290.157L290.519 178.642C290.533 178.844 290.702 179.001 290.905 179.001H292.453C292.656 179.001 292.825 178.844 292.839 178.642L293.201 173.582H293.614C293.828 173.582 294.001 173.409 294.001 173.195V170.872C294.001 170.658 293.828 170.485 293.614 170.485ZM289.583 165.84H285.485V165.066C285.485 164.963 285.445 164.865 285.372 164.792L284.211 163.631C284.138 163.558 284.04 163.518 283.937 163.518H278.905C278.691 163.518 278.518 163.691 278.518 163.905V165.84H275.194L282.389 158.646L289.583 165.84ZM279.292 167.389V164.292H281.614V167.389H279.292ZM282.389 164.292H283.777L284.711 165.226V167.389H282.389V164.292ZM282.776 155.936L283.39 156.55L274.1 165.84H272.872L282.776 155.936ZM271.55 166.615H278.518V167.776C278.518 167.99 278.691 168.163 278.905 168.163H285.098C285.312 168.163 285.485 167.99 285.485 167.776V166.615H292.453V170.485H291.679V169.324C291.679 169.11 291.505 168.937 291.292 168.937H272.711C272.498 168.937 272.324 169.11 272.324 169.324V170.485H271.55V166.615ZM273.099 170.485V169.711H274.647V170.485H273.099ZM275.421 169.711H276.195V170.485H275.421V169.711ZM276.969 169.711H277.744V170.485H276.969V169.711ZM278.518 169.711H279.292V170.485H278.518V169.711ZM280.066 169.711H280.84V170.485H280.066V169.711ZM281.614 169.711H282.389V170.485H281.614V169.711ZM283.163 169.711H283.937V170.485H283.163V169.711ZM284.711 169.711H285.485V170.485H284.711V169.711ZM286.26 169.711H287.034V170.485H286.26V169.711ZM287.808 169.711H288.582V170.485H287.808V169.711ZM289.356 169.711H290.905V170.485H289.356V169.711ZM271.911 178.227L271.855 177.453H272.793L272.738 178.227H271.911ZM272.848 176.679H271.8L271.579 173.582H273.07L272.848 176.679ZM291.265 178.227L291.21 177.453H292.148L292.092 178.227H291.265ZM292.203 176.679H291.155L290.934 173.582H292.425L292.203 176.679ZM293.227 172.808H270.776V171.26H293.227V172.808Z" fill="#3BB3BD"/>
<path d="M287.807 160.807C288.447 160.807 288.968 160.286 288.968 159.646V156.817L291.29 155.946V157.781C291.169 157.738 291.04 157.71 290.903 157.71C290.263 157.71 289.742 158.231 289.742 158.872C289.742 159.512 290.263 160.033 290.903 160.033C291.544 160.033 292.065 159.512 292.065 158.872V155.388C292.065 155.261 292.002 155.142 291.898 155.069C291.793 154.997 291.661 154.98 291.542 155.025L288.445 156.187C288.294 156.243 288.194 156.388 288.194 156.549V158.556C288.072 158.512 287.943 158.484 287.807 158.484C287.166 158.484 286.645 159.005 286.645 159.646C286.645 160.286 287.166 160.807 287.807 160.807ZM290.903 159.259C290.69 159.259 290.516 159.085 290.516 158.872C290.516 158.658 290.69 158.484 290.903 158.484C291.117 158.484 291.29 158.658 291.29 158.872C291.29 159.085 291.117 159.259 290.903 159.259ZM287.807 159.259C288.02 159.259 288.194 159.432 288.194 159.646C288.194 159.859 288.02 160.033 287.807 160.033C287.593 160.033 287.419 159.859 287.419 159.646C287.419 159.432 287.593 159.259 287.807 159.259Z" fill="#6F757B"/>
<path d="M271.936 160.807C272.576 160.807 273.097 160.286 273.097 159.646V156.322L274.372 157.597L274.919 157.049L272.984 155.114C272.873 155.003 272.706 154.969 272.562 155.03C272.418 155.09 272.323 155.231 272.323 155.388V158.555C272.201 158.512 272.072 158.484 271.936 158.484C271.296 158.484 270.775 159.005 270.775 159.646C270.775 160.286 271.296 160.807 271.936 160.807ZM271.936 159.259C272.149 159.259 272.323 159.432 272.323 159.646C272.323 159.859 272.149 160.033 271.936 160.033C271.723 160.033 271.549 159.859 271.549 159.646C271.549 159.432 271.723 159.259 271.936 159.259Z" fill="#6F757B"/>
<path d="M270.387 161.581H271.936V162.355H270.387V161.581Z" fill="#6F757B"/>
<path d="M274.258 158.872H275.033V160.42H274.258V158.872Z" fill="#6F757B"/>
<path d="M275.42 155.775H276.968V156.549H275.42V155.775Z" fill="#6F757B"/>
<path d="M285.871 155.388H286.645V156.936H285.871V155.388Z" fill="#6F757B"/>
<path d="M290.516 160.807H292.064V161.581H290.516V160.807Z" fill="#6F757B"/>
<path d="M293.226 158.484H294V160.033H293.226V158.484Z" fill="#6F757B"/>
<path d="M289.081 162.629L289.629 162.082L290.79 163.243L290.242 163.79L289.081 162.629Z" fill="#6F757B"/>
<path d="M270.633 172.781L270.633 171.99L270.633 171.073H293.381V172.847C293.381 172.847 278.346 172.781 270.633 172.781Z" fill="#6F757B"/>
</g>
<defs>
<filter id="filter0_d" x="316" y="329" width="79.293" height="79.2931" filterUnits="userSpaceOnUse" color-interpolation-filters="sRGB">
<feFlood flood-opacity="0" result="BackgroundImageFix"/>
<feColorMatrix in="SourceAlpha" type="matrix" values="0 0 0 0 0 0 0 0 0 0 0 0 0 0 0 0 0 0 127 0"/>
<feOffset dy="2"/>
<feGaussianBlur stdDeviation="2.5"/>
<feColorMatrix type="matrix" values="0 0 0 0 0 0 0 0 0 0 0 0 0 0 0 0 0 0 0.02 0"/>
<feBlend mode="normal" in2="BackgroundImageFix" result="effect1_dropShadow"/>
<feBlend mode="normal" in="SourceGraphic" in2="effect1_dropShadow" result="shape"/>
</filter>
<filter id="filter1_d" x="292" y="322" width="129.293" height="129.293" filterUnits="userSpaceOnUse" color-interpolation-filters="sRGB">
<feFlood flood-opacity="0" result="BackgroundImageFix"/>
<feColorMatrix in="SourceAlpha" type="matrix" values="0 0 0 0 0 0 0 0 0 0 0 0 0 0 0 0 0 0 127 0"/>
<feOffset dx="1" dy="20"/>
<feGaussianBlur stdDeviation="15"/>
<feColorMatrix type="matrix" values="0 0 0 0 0 0 0 0 0 0.288 0 0 0 0 0.45 0 0 0 0.15 0"/>
<feBlend mode="normal" in2="BackgroundImageFix" result="effect1_dropShadow"/>
<feBlend mode="normal" in="SourceGraphic" in2="effect1_dropShadow" result="shape"/>
</filter>
<linearGradient id="paint0_linear" x1="236.705" y1="197.01" x2="572.305" y2="581.093" gradientUnits="userSpaceOnUse">
<stop stop-color="#3C6A7A"/>
<stop offset="1" stop-color="#3BB3BD"/>
</linearGradient>
<clipPath id="clip0">
<rect width="50" height="49" fill="white" transform="translate(233 241)"/>
</clipPath>
<clipPath id="clip1">
<rect width="46" height="46" fill="white" transform="translate(332.408 343.666)"/>
</clipPath>
<clipPath id="clip2">
<rect width="19" height="19" fill="white" transform="translate(95 130)"/>
</clipPath>
<clipPath id="clip3">
<rect width="24" height="24" fill="white" transform="translate(270 155)"/>
</clipPath>
</defs>
</svg>
