<svg width="50" height="50" viewBox="0 0 50 50" fill="none" xmlns="http://www.w3.org/2000/svg">
<path d="M47.1133 24.5044C44.0525 24.5044 42.5019 25.1371 41.0022 25.7489C40.6225 25.9039 40.4403 26.3372 40.5953 26.7169C40.7128 27.0048 40.9902 27.1792 41.2831 27.1792C41.3764 27.1792 41.4714 27.1614 41.5633 27.1239C42.9931 26.5404 44.3437 25.9895 47.1133 25.9895C47.5235 25.9895 47.8559 25.6569 47.8559 25.2469C47.8559 24.8368 47.5234 24.5044 47.1133 24.5044Z" fill="#3C6A7A"/>
<path d="M46.0535 36.5576C42.9925 36.5576 41.4418 37.1904 39.9422 37.8022C38.5124 38.3857 37.1618 38.9368 34.3921 38.9368C31.6224 38.9368 30.2719 38.3857 28.842 37.8022C27.3424 37.1903 25.7917 36.5576 22.7307 36.5576C19.6698 36.5576 18.1191 37.1904 16.6195 37.8022C15.1897 38.3857 13.8391 38.9368 11.0694 38.9368C8.29913 38.9368 6.94835 38.3857 5.51828 37.8021C5.09719 37.6304 4.66184 37.4527 4.18928 37.2893C3.80168 37.1554 3.37874 37.3608 3.24485 37.7483C3.11077 38.1359 3.31643 38.5588 3.70393 38.6929C4.1383 38.8431 4.53596 39.0054 4.95715 39.1772C6.45695 39.7892 8.00782 40.4219 11.0694 40.4219C14.1304 40.4219 15.6809 39.789 17.1806 39.1772C18.6104 38.5937 19.961 38.0427 22.7307 38.0427C25.5005 38.0427 26.851 38.5937 28.281 39.1772C29.7806 39.7891 31.3312 40.4219 34.3921 40.4219C37.453 40.4219 39.0037 39.789 40.5032 39.1772C41.9331 38.5937 43.2837 38.0427 46.0535 38.0427C46.4636 38.0427 46.7961 37.7101 46.7961 37.3001C46.7961 36.89 46.4635 36.5576 46.0535 36.5576Z" fill="#3C6A7A"/>
<path d="M49.2574 32.5476C46.4871 32.5476 45.1363 31.9963 43.7063 31.4125C42.2067 30.8004 40.6559 30.1675 37.5951 30.1675C34.5342 30.1675 32.9834 30.8005 31.4837 31.4126C30.0537 31.9964 28.7029 32.5476 25.9327 32.5476C23.163 32.5476 21.8125 31.9964 20.3826 31.4126C18.883 30.8004 17.3324 30.1675 14.2714 30.1675C11.2102 30.1675 9.65965 30.8006 8.15995 31.4126C6.73017 31.9964 5.37959 32.5476 2.60987 32.5476C1.96876 32.5476 1.384 32.5183 0.821991 32.4578C0.41379 32.4134 0.0482637 32.7091 0.00431855 33.1167C-0.0395289 33.5244 0.255489 33.8905 0.663203 33.9344C1.27843 34.0005 1.91525 34.0327 2.60978 34.0327C5.6709 34.0327 7.22158 33.3996 8.72118 32.7876C10.151 32.2038 11.5015 31.6525 14.2712 31.6525C17.0408 31.6525 18.3913 32.2038 19.8211 32.7876C21.3207 33.3998 22.8715 34.0327 25.9326 34.0327C28.9943 34.0327 30.5451 33.3996 32.0449 32.7875C33.4748 32.2037 34.8254 31.6525 37.595 31.6525C40.3645 31.6525 41.715 32.2038 43.145 32.7875C44.6448 33.3998 46.1957 34.0327 49.2574 34.0327C49.6675 34.0327 49.9999 33.7002 49.9999 33.2901C49.9999 32.8801 49.6674 32.5476 49.2574 32.5476Z" fill="#3C6A7A"/>
<path d="M49.2574 19.7684C46.4871 19.7684 45.1366 19.217 43.7067 18.6332C42.9287 18.3155 42.1274 17.9886 41.1002 17.7493C40.2959 14.6106 37.4434 12.2836 34.0574 12.2836C30.5329 12.2836 27.5871 14.8051 26.927 18.1388C26.6146 18.1292 26.2108 18.1278 25.7302 18.1504L23.0232 11.5761C22.9432 11.3817 22.8438 11.1945 22.7279 11.0196C22.1105 10.0895 21.0741 9.55223 19.9603 9.57909L12.7984 9.74666C11.9369 9.76834 11.1354 10.1242 10.5416 10.7486C9.94773 11.3731 9.6326 12.1915 9.65428 13.0529C9.67596 13.9144 10.0318 14.7159 10.6562 15.3097C11.2806 15.9036 12.098 16.2182 12.9588 16.197L17.9015 16.084L18.6898 17.9987C17.6007 17.656 16.2437 17.388 14.2714 17.388C11.2102 17.388 9.65965 18.0211 8.16005 18.6332C6.73027 19.2169 5.37969 19.7682 2.60997 19.7682C1.96906 19.7682 1.3842 19.7389 0.822089 19.6784C0.412325 19.6344 0.0482637 19.9296 0.00441621 20.3374C-0.0394313 20.7451 0.255587 21.1112 0.6633 21.1549C1.27883 21.221 1.91544 21.2533 2.60997 21.2533C5.67099 21.2533 7.22177 20.6202 8.72137 20.0082C10.1512 19.4244 11.5017 18.8731 14.2714 18.8731C16.5915 18.8731 17.9327 19.267 19.0886 19.7139C16.0689 21.0304 13.4559 23.1 11.3049 25.8795C10.2948 25.6642 9.52069 25.3486 8.72206 25.0227C7.22245 24.4108 5.67178 23.7782 2.61095 23.7782C1.91574 23.7782 1.27843 23.8103 0.663203 23.8765C0.255489 23.9203 -0.0395289 24.2865 0.00431855 24.6942C0.048166 25.102 0.41379 25.3973 0.821991 25.3531C1.3841 25.2927 1.96925 25.2632 2.61085 25.2632C5.38047 25.2632 6.73095 25.8143 8.16093 26.3977C9.66063 27.0097 11.2116 27.6424 14.2732 27.6424C17.3341 27.6424 18.8848 27.0096 20.3844 26.3978C21.8142 25.8143 23.1648 25.2632 25.9345 25.2632C28.7042 25.2632 30.0548 25.8143 31.4847 26.3978C32.9843 27.0097 34.5349 27.6424 37.5959 27.6424C38.9265 27.6424 40.086 27.5212 41.1403 27.272C41.5394 27.1777 41.7864 26.7777 41.692 26.3785C41.5978 25.9794 41.1975 25.7323 40.7986 25.8268C39.8577 26.0492 38.8101 26.1573 37.5959 26.1573C37.4264 26.1573 37.2626 26.1553 37.1035 26.1512C39.5942 24.9966 41.3268 22.4741 41.3268 19.553C41.3268 19.482 41.3235 19.4118 41.3214 19.3413C41.9817 19.533 42.5522 19.7657 43.1451 20.0078C44.6447 20.6201 46.1954 21.2532 49.2571 21.2532C49.6673 21.2532 49.9997 20.9206 49.9997 20.5106C49.9997 20.1005 49.6676 19.7684 49.2574 19.7684ZM25.9347 23.7783C22.8738 23.7783 21.3231 24.4111 19.8235 25.0229C18.3937 25.6064 17.0431 26.1574 14.2734 26.1574C13.8211 26.1574 13.4071 26.1425 13.0239 26.1154C14.9677 23.806 17.2791 22.0819 19.916 20.9768L20.1698 21.5931C20.3258 21.9723 20.7598 22.1532 21.1392 21.9971C21.5184 21.841 21.6992 21.407 21.5432 21.0277L19.081 15.0476C18.9641 14.7636 18.6831 14.5791 18.3775 14.588L12.9235 14.7126C12.4576 14.725 12.017 14.5542 11.68 14.2338C11.3429 13.9133 11.1509 13.4808 11.1392 13.0157C11.1275 12.5509 11.2975 12.1092 11.618 11.7721C11.9384 11.4351 12.371 11.2431 12.8346 11.2314L19.9965 11.0638C20.5968 11.0478 21.1577 11.3392 21.4907 11.841C21.5534 11.9353 21.6069 12.0363 21.65 12.1414L24.7843 19.7535C25.143 20.6246 24.7322 21.6383 23.8686 22.0131C23.4923 22.1764 23.3198 22.6138 23.483 22.99C23.6046 23.2699 23.8777 23.4371 24.1646 23.4371C24.2633 23.4371 24.3636 23.4173 24.4598 23.3755C25.9197 22.7417 26.6811 21.1235 26.2995 19.6191C26.4822 19.6166 26.6462 19.6178 26.7897 19.6211C26.8046 21.2335 27.3461 22.722 28.2516 23.9222C27.5821 23.8317 26.8222 23.7783 25.9347 23.7783ZM34.0576 25.3377C30.8681 25.3377 28.2731 22.7428 28.2731 19.5532C28.2729 18.2256 28.7236 17.002 29.4786 16.0246L30.8481 17.3941C30.4197 18.2618 30.5642 19.343 31.2855 20.0643C31.7203 20.4991 32.286 20.7227 32.8569 20.7399C32.874 21.3107 33.0977 21.8764 33.5325 22.3112C33.985 22.7637 34.5796 22.99 35.1741 22.99C35.5271 22.99 35.8795 22.9082 36.2028 22.7486L37.5863 24.1322C36.6089 24.887 35.3852 25.3377 34.0576 25.3377ZM32.3357 17.8315C32.4987 17.6685 32.713 17.587 32.9271 17.587C33.1412 17.587 33.3554 17.6684 33.5184 17.8315C33.8446 18.1576 33.8446 18.6881 33.5184 19.0142C33.1924 19.3404 32.6619 19.3402 32.3358 19.0142C32.0096 18.6881 32.0096 18.1577 32.3357 17.8315ZM34.5826 20.0784C34.7456 19.9154 34.9598 19.8338 35.174 19.8338C35.3881 19.8338 35.6022 19.9153 35.7653 20.0784C36.0915 20.4044 36.0915 20.935 35.7653 21.2611C35.4392 21.5872 34.9088 21.5871 34.5827 21.2611C34.2564 20.935 34.2564 20.4044 34.5826 20.0784ZM38.6362 23.082L37.2527 21.6985C37.6811 20.8308 37.5367 19.7496 36.8153 19.0282C36.3805 18.5934 35.8147 18.3699 35.2439 18.3526C35.2268 17.7818 35.0031 17.216 34.5683 16.7813C33.847 16.0599 32.7659 15.9156 31.8981 16.3439L30.5286 14.9743C31.5059 14.2193 32.7296 13.7686 34.0573 13.7686C37.2468 13.7687 39.8418 16.3635 39.8418 19.5532C39.8418 20.8809 39.3912 22.1046 38.6362 23.082Z" fill="#3C6A7A"/>
<path d="M25.6919 21.9309C25.4532 21.3127 24.5472 21.3102 24.3075 21.9309C24.1836 22.2515 24.3028 22.6252 24.5882 22.8157C24.8645 23.0021 25.2453 22.9738 25.4932 22.7527C25.7224 22.5484 25.8027 22.2174 25.6919 21.9309Z" fill="#3C6A7A"/>
<ellipse cx="32.9385" cy="18.4015" rx="0.869726" ry="0.853511" fill="#F0F9FA"/>
<ellipse cx="35.1953" cy="20.6869" rx="0.869726" ry="0.853511" fill="#F0F9FA"/>
</svg>
