<svg width="77" height="73" viewBox="0 0 77 73" fill="none" xmlns="http://www.w3.org/2000/svg">
<path d="M57.9517 60.7521C58.2835 60.4203 58.4699 59.9703 58.4699 59.5011C58.4699 59.0319 58.2835 58.5818 57.9517 58.25C57.6199 57.9183 57.1699 57.7319 56.7007 57.7319C56.2315 57.7319 55.7815 57.9183 55.4497 58.25C55.1179 58.5818 54.9315 59.0319 54.9315 59.5011C54.9315 59.9703 55.1179 60.4203 55.4497 60.7521C55.7815 61.0839 56.2315 61.2703 56.7007 61.2703C57.1699 61.2703 57.6199 61.0839 57.9517 60.7521Z" fill="#3BB3BD"/>
<path d="M56.7007 46.3498C54.6602 46.3498 53.2802 47.876 53.2802 49.4754C53.2802 49.8195 53.1435 50.1495 52.9002 50.3928C52.6569 50.6362 52.3268 50.7729 51.9827 50.7729C51.6386 50.7729 51.3086 50.6362 51.0653 50.3928C50.822 50.1495 50.6853 49.8195 50.6853 49.4754C50.6853 46.3568 53.3156 43.7549 56.7007 43.7549C60.0858 43.7549 62.7161 46.3568 62.7161 49.4754C62.7161 52.0797 60.9941 53.3441 59.7344 54.1108C59.4914 54.2571 59.2814 54.3797 59.0974 54.4859C58.7412 54.6935 58.4747 54.8468 58.234 55.0332C58.1437 55.0972 58.064 55.1753 57.9981 55.2644C57.9969 55.6085 57.859 55.938 57.6148 56.1804C57.3706 56.4228 57.0401 56.5583 56.696 56.5571C56.3519 56.5558 56.0224 56.4179 55.7799 56.1737C55.5375 55.9295 55.402 55.599 55.4033 55.2549C55.4033 54.1509 56.0685 53.4314 56.6394 52.9879C57.0645 52.677 57.5088 52.3934 57.9698 52.1387C58.1232 52.0491 58.2647 51.9689 58.385 51.8934C59.4843 51.2258 60.1212 50.6337 60.1212 49.4754C60.1212 47.876 58.7412 46.3498 56.7007 46.3498Z" fill="#3BB3BD"/>
<path d="M56.7007 72.0127C45.9487 72.0127 37.2007 63.2647 37.2007 52.5127C37.2007 41.7607 45.9487 33.0127 56.7007 33.0127C67.4527 33.0127 76.2007 41.7607 76.2007 52.5127C76.2007 63.2647 67.4527 72.0127 56.7007 72.0127ZM56.7007 36.0127C47.6017 36.0127 40.2007 43.4167 40.2007 52.5127C40.2007 61.6087 47.6017 69.0127 56.7007 69.0127C65.7997 69.0127 73.2007 61.6087 73.2007 52.5127C73.2007 43.4167 65.7997 36.0127 56.7007 36.0127Z" fill="#3BB3BD"/>
<path fill-rule="evenodd" clip-rule="evenodd" d="M54.768 28.3704C54.768 29.0838 54.1896 29.6621 53.4763 29.6621C52.763 29.6621 52.1846 29.0838 52.1846 28.3704V3.88681C52.1846 3.17457 51.6052 2.59512 50.8929 2.59512H3.8751C3.16285 2.59512 2.5834 3.17457 2.5834 3.88681V62.2716C2.5834 62.9838 3.16285 63.5633 3.8751 63.5633H36.3029C37.6274 63.9151 37.6274 65.7949 36.3029 66.1467H3.8751C1.73837 66.1467 0 64.4083 0 62.2716V3.88681C0 1.75009 1.73837 0.0117188 3.8751 0.0117188H50.8929C53.0296 0.0117188 54.768 1.75009 54.768 3.88681V28.3704Z" fill="#3C6A7A"/>
<path d="M27.3839 6.9873C20.8312 6.9873 15.5002 12.3183 15.5002 18.8709C15.5002 22.2703 16.9353 25.3404 19.2309 27.5084C19.2739 27.5544 19.3197 27.5979 19.3697 27.6376C21.4843 29.5724 24.2985 30.7544 27.3837 30.7544C30.469 30.7544 33.2832 29.5723 35.3978 27.6376C35.4478 27.5979 35.4935 27.5542 35.5366 27.5084C37.8324 25.3404 39.2675 22.2703 39.2675 18.8709C39.2675 12.3183 33.9365 6.9873 27.3839 6.9873ZM27.3839 28.1712C25.2747 28.1712 23.3281 27.4643 21.7661 26.2765C22.9014 24.2634 25.0199 23.0044 27.3839 23.0044C29.7478 23.0044 31.8663 24.2634 33.0016 26.2765C31.4395 27.4643 29.4931 28.1712 27.3839 28.1712ZM25.3172 18.3542V17.5146C25.3172 16.3751 26.2443 15.4479 27.3839 15.4479C28.5234 15.4479 29.4506 16.3751 29.4506 17.5146V18.3542C29.4506 19.4938 28.5234 20.421 27.3839 20.421C26.2443 20.421 25.3172 19.4938 25.3172 18.3542ZM34.868 24.3843C33.9153 22.9714 32.5951 21.8726 31.0622 21.1942C31.6706 20.4079 32.034 19.423 32.034 18.3542V17.5146C32.034 14.9505 29.948 12.8645 27.3839 12.8645C24.8197 12.8645 22.7338 14.9505 22.7338 17.5146V18.3542C22.7338 19.423 23.0971 20.4079 23.7055 21.1942C22.1726 21.8726 20.8524 22.9714 19.8998 24.3843C18.7593 22.8403 18.0836 20.9334 18.0836 18.8709C18.0836 13.7428 22.2557 9.5707 27.3839 9.5707C32.512 9.5707 36.6841 13.7428 36.6841 18.8709C36.6841 20.9334 36.0084 22.8403 34.868 24.3843Z" fill="#3C6A7A"/>
<path d="M34.3592 42.1211H16.017C15.3038 42.1211 14.7253 42.6994 14.7253 43.4128C14.7253 44.1262 15.3038 44.7045 16.017 44.7045H34.3592C35.0724 44.7045 35.6509 44.1262 35.6509 43.4128C35.6509 42.6994 35.0724 42.1211 34.3592 42.1211Z" fill="#3C6A7A"/>
<path d="M11.4134 35.2662C11.1732 35.0259 10.84 34.8877 10.499 34.8877C10.1591 34.8877 9.82587 35.0259 9.58574 35.2662C9.34549 35.5064 9.20728 35.8397 9.20728 36.1794C9.20728 36.5191 9.34536 36.8524 9.58574 37.0926C9.82729 37.3329 10.1591 37.4711 10.499 37.4711C10.84 37.4711 11.1719 37.3329 11.4134 37.0926C11.6536 36.8524 11.792 36.5191 11.792 36.1794C11.792 35.8397 11.6538 35.5064 11.4134 35.2662Z" fill="#3C6A7A"/>
<path d="M11.4134 42.4996C11.1719 42.2593 10.84 42.1211 10.499 42.1211C10.1591 42.1211 9.82729 42.2593 9.58574 42.4996C9.34549 42.7398 9.20728 43.0731 9.20728 43.4128C9.20728 43.7525 9.34536 44.0858 9.58574 44.326C9.82729 44.5663 10.1591 44.7045 10.499 44.7045C10.84 44.7045 11.1719 44.5663 11.4134 44.326C11.6536 44.0858 11.792 43.7525 11.792 43.4128C11.792 43.0731 11.6538 42.7398 11.4134 42.4996Z" fill="#3C6A7A"/>
<path d="M34.3592 34.8877H16.017C15.3038 34.8877 14.7253 35.466 14.7253 36.1794C14.7253 36.8928 15.3038 37.4711 16.017 37.4711H34.3592C35.0724 37.4711 35.6509 36.8928 35.6509 36.1794C35.6509 35.466 35.0724 34.8877 34.3592 34.8877Z" fill="#3C6A7A"/>
</svg>
