<svg width="70" height="71" viewBox="0 0 70 71" fill="none" xmlns="http://www.w3.org/2000/svg">
<g clip-path="url(#clip0)">
<path d="M49.111 7.09985H2.45328C1.55438 7.09985 0.825684 7.82855 0.825684 8.72745V67.8634C0.825684 68.7623 1.55438 69.491 2.45328 69.491H49.111C50.0099 69.491 50.7386 68.7623 50.7386 67.8634V8.72745C50.7386 7.82855 50.0099 7.09985 49.111 7.09985Z" fill="#E7E7E7"/>
<path d="M50.7386 66.2371V67.8647C50.7386 68.2963 50.5671 68.7103 50.2619 69.0155C49.9566 69.3208 49.5426 69.4922 49.111 69.4922H2.45328C2.02161 69.4922 1.60763 69.3208 1.30239 69.0155C0.997162 68.7103 0.825684 68.2963 0.825684 67.8647V66.2371C0.825684 66.6687 0.997162 67.0827 1.30239 67.3879C1.60763 67.6932 2.02161 67.8647 2.45328 67.8647H49.111C49.5426 67.8647 49.9566 67.6932 50.2619 67.3879C50.5671 67.0827 50.7386 66.6687 50.7386 66.2371Z" fill="#D5D5D5"/>
<path d="M45.8553 10.8982H5.70801V65.1513H45.8553V10.8982Z" fill="#F8F8F8"/>
<path d="M45.8553 62.4387V65.1514H5.70801V62.4387H45.8553Z" fill="#D5D5D5"/>
<path d="M56.7053 58.0993C63.5968 58.0993 69.1835 52.5126 69.1835 45.621C69.1835 38.7295 63.5968 33.1428 56.7053 33.1428C49.8137 33.1428 44.2271 38.7295 44.2271 45.621C44.2271 52.5126 49.8137 58.0993 56.7053 58.0993Z" fill="#3BB3BD"/>
<path d="M50.7392 56.5737V58.7438C48.6982 57.6292 47.0075 55.9686 45.8564 53.9478V51.7777C47.0071 53.7988 48.6978 55.4595 50.7392 56.5737Z" fill="#D5D5D5"/>
<path d="M45.8549 51.7839V53.954C44.6022 51.7554 44.0513 49.2263 44.2762 46.7058C44.4301 48.4925 44.9686 50.2249 45.8549 51.7839Z" fill="#D5D5D5"/>
<path d="M54.5353 50.5036C54.2152 50.5036 54.4918 50.6881 49.8044 46.0006C49.7008 45.897 49.6426 45.7565 49.6426 45.61C49.6426 45.4635 49.7008 45.323 49.8044 45.2194C49.908 45.1158 50.0485 45.0576 50.195 45.0576C50.3415 45.0576 50.482 45.1158 50.5856 45.2194L54.5353 49.1798L62.8251 40.89C62.9287 40.7864 63.0692 40.7281 63.2158 40.7281C63.3623 40.7281 63.5028 40.7864 63.6064 40.89C63.71 40.9935 63.7682 41.1341 63.7682 41.2806C63.7682 41.4271 63.71 41.5676 63.6064 41.6712C54.1067 51.1709 54.8608 50.5036 54.5353 50.5036Z" fill="white"/>
<path d="M41.5147 19.5742H10.0479V26.6271H41.5147V19.5742Z" fill="#3C6A7A"/>
<path d="M41.5164 33.1391H13.3047C13.1609 33.1391 13.0229 33.082 12.9211 32.9802C12.8194 32.8785 12.7622 32.7405 12.7622 32.5966C12.7622 32.4527 12.8194 32.3147 12.9211 32.213C13.0229 32.1112 13.1609 32.0541 13.3047 32.0541H41.5164C41.6603 32.0541 41.7983 32.1112 41.9 32.213C42.0017 32.3147 42.0589 32.4527 42.0589 32.5966C42.0589 32.7405 42.0017 32.8785 41.9 32.9802C41.7983 33.082 41.6603 33.1391 41.5164 33.1391Z" fill="#3BB3BD"/>
<path d="M41.5167 37.4808H10.0499C9.90597 37.4808 9.76797 37.4237 9.66623 37.3219C9.56448 37.2202 9.50732 37.0822 9.50732 36.9383C9.50732 36.7944 9.56448 36.6564 9.66623 36.5547C9.76797 36.4529 9.90597 36.3958 10.0499 36.3958H41.5167C41.6606 36.3958 41.7986 36.4529 41.9003 36.5547C42.002 36.6564 42.0592 36.7944 42.0592 36.9383C42.0592 37.0822 42.002 37.2202 41.9003 37.3219C41.7986 37.4237 41.6606 37.4808 41.5167 37.4808Z" fill="#3BB3BD"/>
<path d="M41.5167 41.8208H10.0499C9.90597 41.8208 9.76797 41.7636 9.66623 41.6619C9.56448 41.5601 9.50732 41.4221 9.50732 41.2782C9.50732 41.1344 9.56448 40.9964 9.66623 40.8946C9.76797 40.7929 9.90597 40.7357 10.0499 40.7357H41.5167C41.6606 40.7357 41.7986 40.7929 41.9003 40.8946C42.002 40.9964 42.0592 41.1344 42.0592 41.2782C42.0592 41.4221 42.002 41.5601 41.9003 41.6619C41.7986 41.7636 41.6606 41.8208 41.5167 41.8208Z" fill="#3BB3BD"/>
<path d="M26.3258 46.1606H10.0499C9.90597 46.1606 9.76797 46.1035 9.66623 46.0017C9.56448 45.9 9.50732 45.762 9.50732 45.6181C9.50732 45.4742 9.56448 45.3362 9.66623 45.2345C9.76797 45.1327 9.90597 45.0756 10.0499 45.0756H26.3258C26.4697 45.0756 26.6077 45.1327 26.7094 45.2345C26.8112 45.3362 26.8683 45.4742 26.8683 45.6181C26.8683 45.762 26.8112 45.9 26.7094 46.0017C26.6077 46.1035 26.4697 46.1606 26.3258 46.1606Z" fill="#3BB3BD"/>
<path d="M41.5164 50.5023H13.3047C13.1609 50.5023 13.0229 50.4451 12.9211 50.3434C12.8194 50.2417 12.7622 50.1037 12.7622 49.9598C12.7622 49.8159 12.8194 49.6779 12.9211 49.5761C13.0229 49.4744 13.1609 49.4172 13.3047 49.4172H41.5164C41.6603 49.4172 41.7983 49.4744 41.9 49.5761C42.0017 49.6779 42.0589 49.8159 42.0589 49.9598C42.0589 50.1037 42.0017 50.2417 41.9 50.3434C41.7983 50.4451 41.6603 50.5023 41.5164 50.5023Z" fill="#3BB3BD"/>
<path d="M41.5167 54.8403H10.0499C9.90597 54.8403 9.76797 54.7832 9.66623 54.6814C9.56448 54.5797 9.50732 54.4417 9.50732 54.2978C9.50732 54.1539 9.56448 54.0159 9.66623 53.9142C9.76797 53.8124 9.90597 53.7552 10.0499 53.7552H41.5167C41.6606 53.7552 41.7986 53.8124 41.9003 53.9142C42.002 54.0159 42.0592 54.1539 42.0592 54.2978C42.0592 54.4417 42.002 54.5797 41.9003 54.6814C41.7986 54.7832 41.6606 54.8403 41.5167 54.8403Z" fill="#3BB3BD"/>
<path d="M35.0063 59.182H10.0499C9.90597 59.182 9.76797 59.1248 9.66623 59.0231C9.56448 58.9213 9.50732 58.7833 9.50732 58.6395C9.50732 58.4956 9.56448 58.3576 9.66623 58.2558C9.76797 58.1541 9.90597 58.0969 10.0499 58.0969H35.0063C35.1502 58.0969 35.2882 58.1541 35.3899 58.2558C35.4917 58.3576 35.5488 58.4956 35.5488 58.6395C35.5488 58.7833 35.4917 58.9213 35.3899 59.0231C35.2882 59.1248 35.1502 59.182 35.0063 59.182Z" fill="#3BB3BD"/>
<path d="M30.085 4.92885C29.9462 3.88618 29.4334 2.92941 28.6421 2.23645C27.8507 1.54349 26.8346 1.1615 25.7828 1.1615C24.7309 1.1615 23.7148 1.54349 22.9235 2.23645C22.1321 2.92941 21.6193 3.88618 21.4805 4.92885H14.9321V13.6093H36.6334V4.92885H30.085ZM25.7828 7.09897C25.4608 7.09897 25.1462 7.00351 24.8785 6.82467C24.6109 6.64583 24.4022 6.39163 24.2791 6.09423C24.1559 5.79683 24.1236 5.46957 24.1864 5.15385C24.2492 4.83813 24.4043 4.54812 24.6319 4.32049C24.8595 4.09287 25.1495 3.93786 25.4652 3.87506C25.781 3.81226 26.1082 3.84449 26.4056 3.96768C26.703 4.09087 26.9572 4.29948 27.136 4.56713C27.3149 4.83479 27.4103 5.14947 27.4103 5.47138C27.4103 5.90304 27.2389 6.31703 26.9336 6.62226C26.6284 6.92749 26.2144 7.09897 25.7828 7.09897Z" fill="#D5D5D5"/>
<path d="M36.6334 11.4379H14.9321V13.608H36.6334V11.4379Z" fill="#D5D5D5"/>
</g>
<defs>
<clipPath id="clip0">
<rect width="69.444" height="69.444" fill="white" transform="translate(0.282227 0.589844)"/>
</clipPath>
</defs>
</svg>
