<svg width="50" height="50" viewBox="0 0 50 50" fill="none" xmlns="http://www.w3.org/2000/svg">
<path d="M40.411 39.6852C40.411 39.6817 40.411 39.6778 40.4071 39.6743C40.3859 39.6292 40.3597 39.5866 40.329 39.5473C39.8387 38.8119 39.1743 38.2091 38.3949 37.7923C37.6154 37.3756 36.7451 37.1579 35.8613 37.1586C34.9774 37.1593 34.1074 37.3783 33.3287 37.7963C32.5499 38.2143 31.8864 38.8182 31.3973 39.5544C31.3686 39.5917 31.3439 39.6319 31.3235 39.6743V39.6774C30.7829 40.5303 30.4958 41.5192 30.4958 42.529C30.4958 43.5387 30.7829 44.5277 31.3235 45.3806V45.3837C31.3438 45.4265 31.3686 45.467 31.3977 45.5044C31.8913 46.2473 32.5625 46.8553 33.3504 47.2734C34.1382 47.6914 35.018 47.9063 35.9099 47.8986C36.8018 47.8908 37.6777 47.6607 38.4582 47.229C39.2387 46.7973 39.8992 46.1776 40.3798 45.4263C40.3887 45.411 40.4012 45.3989 40.4087 45.3829C40.4102 45.3793 40.4115 45.3757 40.4126 45.372C40.9507 44.5208 41.2364 43.5344 41.2364 42.5274C41.2364 41.5204 40.9507 40.534 40.4126 39.6829L40.411 39.6852ZM32.2368 44.2165C31.9887 43.6894 31.86 43.1141 31.86 42.5315C31.86 41.949 31.9887 41.3736 32.2368 40.8466C34.5604 41.8033 37.1679 41.8033 39.4915 40.8466C39.7396 41.3734 39.8682 41.9486 39.8682 42.5309C39.8682 43.1133 39.7396 43.6885 39.4915 44.2153C37.1663 43.2668 34.5621 43.2666 32.2368 44.2149V44.2165ZM38.6821 39.6923C36.8614 40.3581 34.8638 40.3581 33.043 39.6923C33.7918 38.9464 34.8057 38.5276 35.8626 38.5276C36.9195 38.5276 37.9333 38.9464 38.6821 39.6923ZM33.0446 45.3696C34.8652 44.7038 36.8627 44.7038 38.6833 45.3696C37.9345 46.1154 36.9207 46.5341 35.8639 46.5341C34.8071 46.5341 33.7934 46.1154 33.0446 45.3696Z" fill="#3C6A7A"/>
<path d="M42.3601 29.2938C42.389 29.2653 42.4203 29.2391 42.4492 29.2102C42.4531 29.2063 42.4558 29.2012 42.4601 29.1973C49.3351 22.3102 50.0773 11.8582 44.1105 5.89065C41.2109 2.98948 37.1761 1.57307 32.7445 1.90159C28.2196 2.29414 23.9848 4.29402 20.807 7.53909C20.8019 7.54377 20.796 7.5469 20.7914 7.55198C20.757 7.58596 20.7257 7.62346 20.6917 7.65784C20.4574 7.89482 20.2307 8.13661 20.0117 8.38323L20.0027 8.39377C18.0422 10.5655 16.599 13.153 15.7812 15.9621L15.7781 15.9703C14.4109 19.8942 13.8378 23.9574 13.3339 27.5418C12.948 30.2887 12.605 32.7141 11.989 34.15C11.8685 34.1084 11.7386 34.1014 11.6143 34.1299C11.49 34.1584 11.3762 34.2213 11.2859 34.3114L2.05697 43.5406C1.99344 43.6041 1.94304 43.6795 1.90865 43.7624C1.87427 43.8453 1.85657 43.9343 1.85657 44.024C1.85657 44.1138 1.87427 44.2027 1.90865 44.2857C1.94304 44.3686 1.99344 44.444 2.05697 44.5074L5.49447 47.9449C5.55793 48.0085 5.63328 48.0589 5.71623 48.0933C5.79917 48.1277 5.88808 48.1454 5.97787 48.1454C6.06766 48.1454 6.15657 48.1277 6.23952 48.0933C6.32246 48.0589 6.39782 48.0085 6.46127 47.9449L13.6636 40.7422L15.6894 38.7164C15.7215 38.6843 15.7503 38.6489 15.7753 38.611C15.79 38.5866 15.8031 38.5613 15.8144 38.5352C15.8214 38.5211 15.8304 38.5078 15.8363 38.4934C15.8474 38.4642 15.8566 38.4343 15.8636 38.4039C15.8671 38.391 15.8722 38.3785 15.8749 38.3649C15.8835 38.3219 15.8879 38.2782 15.8878 38.2344V38.2324C15.8877 38.1879 15.8833 38.1434 15.8746 38.0996C15.8722 38.0871 15.8667 38.0754 15.8636 38.0629C15.8605 38.0504 15.8546 38.0297 15.8488 38.0133C17.2851 37.3973 19.7105 37.0543 22.457 36.6684C26.0417 36.1645 30.1042 35.593 34.0273 34.2246L34.0363 34.2215C36.8474 33.4027 39.4365 31.9578 41.6093 29.9953C41.8664 29.7676 42.116 29.5352 42.3601 29.2938ZM32.846 3.26526C33.2312 3.23635 33.6128 3.22203 33.991 3.22229C35.6816 3.18953 37.3618 3.49413 38.9333 4.11829C40.5049 4.74246 41.9362 5.67366 43.1437 6.85745C48.5812 12.2953 47.8359 21.8883 41.482 28.2422C41.4542 28.2699 41.4253 28.2957 41.3972 28.3235C39.4078 30.2848 36.8582 31.7918 33.6035 32.9246C32.5559 33.2222 31.4811 33.4138 30.3953 33.4965C26.3718 33.7957 22.7132 32.5199 20.0972 29.9028C17.4812 27.2856 16.2054 23.6301 16.5035 19.6051C16.5863 18.5196 16.7777 17.445 17.0749 16.3977C18.205 13.1512 19.7078 10.6063 21.6617 8.61877C21.6945 8.58557 21.7249 8.5512 21.7578 8.51838C24.7064 5.49716 28.6405 3.63334 32.846 3.26526ZM11.7695 35.7614L14.2402 38.2321L13.1812 39.291L10.7105 36.8203L11.7695 35.7614ZM5.97651 46.4946L3.50697 44.0235L9.74369 37.7871L12.2144 40.2578L5.97651 46.4946ZM22.2695 35.3125C19.073 35.7621 16.4843 36.1281 14.8956 36.9531L13.0468 35.1059C13.871 33.5172 14.2371 30.9289 14.6874 27.7321C14.8785 26.3735 15.0804 24.9446 15.3312 23.484C15.7964 26.2831 17.1257 28.8666 19.1327 30.8724C21.1397 32.8783 23.724 34.206 26.5234 34.6696C25.0601 34.9219 23.6292 35.1227 22.2695 35.3125Z" fill="#3C6A7A"/>
<path d="M19.345 13.3833C18.4673 15.0109 17.876 16.7774 17.597 18.6055C17.575 18.6741 17.5639 18.7456 17.5642 18.8176C17.5032 19.2728 17.4642 19.7264 17.447 20.1782C17.4351 20.2459 17.4335 20.315 17.4423 20.3833C17.3868 22.1222 17.6877 23.8541 18.3267 25.4723C18.3355 25.4967 18.3457 25.5205 18.3571 25.5438C18.9143 26.9133 19.7384 28.1583 20.7813 29.2063C20.7837 29.2086 20.7856 29.2122 20.7884 29.2149C20.7911 29.2176 20.7942 29.2192 20.797 29.2219C21.913 30.3151 23.2356 31.175 24.6877 31.7512C26.1397 32.3275 27.6921 32.6086 29.254 32.5782C29.397 32.5782 29.5419 32.5731 29.6864 32.5684H29.6958H29.7114C29.9743 32.5598 30.2384 32.5465 30.5052 32.5235C30.772 32.5004 31.0419 32.4672 31.3091 32.429L31.3345 32.425C34.9287 31.862 38.245 30.1534 40.7899 27.5536C43.3912 25.008 45.1008 21.6903 45.6642 18.0946C45.6642 18.0864 45.6665 18.0782 45.6681 18.07C45.7071 17.8024 45.7388 17.534 45.7622 17.2653C45.7856 16.9965 45.8013 16.7258 45.8083 16.4586V16.4551C45.9169 12.9786 44.7435 9.84067 42.4563 7.552L42.454 7.54849L42.4513 7.54653C39.986 5.08208 36.5364 3.9063 32.7368 4.23872C28.8311 4.6385 25.19 6.39818 22.4501 9.2102C21.2525 10.4055 20.2318 11.7657 19.4188 13.2497C19.3891 13.2912 19.3644 13.336 19.345 13.3833ZM22.9435 10.6704L24.8653 12.5922L22.3829 15.0754L20.8298 13.5235C21.429 12.4988 22.1377 11.5421 22.9435 10.6704ZM26.7602 7.58755L28.3153 9.14224L25.8317 11.6254L23.9099 9.70356C24.7811 8.89778 25.7368 8.18834 26.7602 7.58755ZM33.9845 5.55122C35.0856 5.54722 36.1817 5.7018 37.2388 6.01021L35.6251 7.62036L33.697 5.69224L33.8349 5.55435C33.8849 5.55396 33.9345 5.55122 33.9845 5.55122ZM40.9868 8.05122L38.5227 10.5157L36.5946 8.58755L38.645 6.53755C39.4929 6.92844 40.2809 7.43797 40.9852 8.05083L40.9868 8.05122ZM43.4673 11.3606L41.4177 13.4102L39.4895 11.4821L41.9536 9.01802C42.5662 9.72303 43.0754 10.5117 43.4657 11.3602L43.4673 11.3606ZM43.0813 21.9743L41.829 20.7215L44.2489 18.2997C44.0239 19.5708 43.6307 20.8064 43.0798 21.9739L43.0813 21.9743ZM40.2981 26.0938L38.3774 24.1731L40.8606 21.6899L42.4142 23.2422C41.8135 24.2662 41.1041 25.2222 40.2981 26.0938ZM36.4809 29.1762L34.9274 27.6227L37.4106 25.1399L39.3313 27.0606C38.46 27.8657 37.5044 28.5743 36.4809 29.1743V29.1762ZM26.0083 30.7528L27.6173 29.143L29.5454 31.0711L29.4106 31.2055C28.2602 31.2247 27.1133 31.0714 26.0083 30.7508V30.7528ZM22.2583 28.7141L24.7224 26.25L26.6501 28.1782L24.6013 30.2274C23.7519 29.8358 22.9628 29.3252 22.2575 28.711L22.2583 28.7141ZM19.7802 25.4028L21.8274 23.3555L23.7556 25.2836L21.2892 27.7458C20.6767 27.0401 20.1683 26.2504 19.7794 25.4008L19.7802 25.4028ZM32.5888 18.3836L35.0712 15.8985L36.9993 17.8266L34.5161 20.3098L32.5888 18.3836ZM33.5501 21.2786L31.0669 23.7618L29.1388 21.8336L31.622 19.3504L33.5501 21.2786ZM31.6212 17.4149L29.6931 15.4872L32.1767 13.0036L34.1044 14.9317L31.6212 17.4149ZM30.6548 18.3817L28.1716 20.8649L26.2435 18.9368L28.7267 16.4536L30.6548 18.3817ZM27.2048 21.8317L24.7216 24.3149L22.7935 22.3868L25.2767 19.9036L27.2048 21.8317ZM28.1716 22.7981L30.0997 24.7266L27.6173 27.2094L25.6884 25.2813L28.1716 22.7981ZM31.0661 25.693L32.9942 27.6208L30.511 30.1043L28.5829 28.1762L31.0661 25.693ZM32.0313 24.7266L34.5145 22.2434L36.4454 24.1711L33.961 26.6543L32.0313 24.7266ZM35.481 21.277L37.9645 18.7934L39.8923 20.7215L37.4106 23.2032L35.481 21.277ZM38.931 17.827L41.4142 15.3438L43.3423 17.2715L40.8595 19.7543L38.931 17.827ZM37.9645 16.8602L36.0364 14.9321L38.5192 12.4489L40.4493 14.375L37.9645 16.8602ZM35.0712 13.9649L33.1431 12.0372L35.6251 9.55396L37.5532 11.4821L35.0712 13.9649ZM32.1767 11.0704L30.2485 9.14067L32.7313 6.65747L34.6599 8.5856L32.1767 11.0704ZM31.211 12.0372L28.7267 14.5204L26.797 12.5922L29.2802 10.109L31.211 12.0372ZM27.761 15.4872L25.2767 17.9688L23.3485 16.0407L25.8317 13.5575L27.761 15.4872ZM24.311 18.9368L21.8278 21.42L19.8985 19.4922L22.3829 17.009L24.311 18.9368ZM18.7989 20.5918L18.9317 20.459L20.8595 22.3868L19.2579 23.9911C18.9372 22.887 18.7825 21.7414 18.7989 20.5918ZM31.5411 31.0075L33.961 28.5856L35.2134 29.8379C34.0466 30.389 32.8117 30.7822 31.5411 31.0075ZM44.4458 16.1692L44.3106 16.3043L42.3829 14.375L43.9919 12.7661C44.312 13.8715 44.465 15.0185 44.4458 16.1692ZM31.7036 5.75396L29.2817 8.17583L28.0282 6.92192C29.1961 6.37127 30.4321 5.9785 31.7036 5.75396ZM21.4153 16.0422L18.9989 18.4586C19.2252 17.1907 19.6175 15.9581 20.1657 14.7926L21.4153 16.0422Z" fill="#3C6A7A"/>
</svg>
