<svg width="434" height="314" viewBox="0 0 434 314" fill="none" xmlns="http://www.w3.org/2000/svg">
<g clip-path="url(#clip0)">
<path d="M380.721 152.947H376.857V305.847H380.721V152.947Z" fill="#DADADA"/>
<path d="M416.374 172.432C416.62 225.898 379.078 269.414 379.078 269.414C379.078 269.414 341.138 226.246 340.892 172.781C340.646 119.315 378.188 75.7988 378.188 75.7988C378.188 75.7988 416.128 118.967 416.374 172.432Z" fill="#C4C4C4"/>
<path d="M303.475 224.889H301.488V303.529H303.475V224.889Z" fill="#DADADA"/>
<path d="M321.812 234.911C321.939 262.409 302.63 284.791 302.63 284.791C302.63 284.791 283.116 262.589 282.99 235.09C282.863 207.592 302.172 185.21 302.172 185.21C302.172 185.21 321.686 207.412 321.812 234.911Z" fill="#C4C4C4"/>
<path d="M342.64 314C372.371 314 396.474 310.298 396.474 305.732C396.474 301.165 372.371 297.464 342.64 297.464C312.908 297.464 288.806 301.165 288.806 305.732C288.806 310.298 312.908 314 342.64 314Z" fill="#DADADA"/>
<path d="M347.08 113.03C342.519 105.309 333.495 104.949 333.495 104.949C333.495 104.949 324.703 103.822 319.062 115.582C313.805 126.544 306.549 137.128 317.894 139.694L319.943 133.303L321.212 140.169C322.828 140.286 324.448 140.314 326.067 140.253C338.216 139.86 349.787 140.368 349.415 135.999C348.919 130.192 351.468 120.46 347.08 113.03Z" fill="#BA6D37"/>
<path d="M330.654 127.572C330.654 127.572 336.549 135.84 333.012 142.534C329.475 149.227 341.264 156.314 341.264 156.314L349.909 137.415C349.909 137.415 339.692 130.722 342.443 124.422L330.654 127.572Z" fill="#FBBEBE"/>
<path d="M334.584 131.116C340.226 131.116 344.801 126.533 344.801 120.879C344.801 115.225 340.226 110.642 334.584 110.642C328.941 110.642 324.367 115.225 324.367 120.879C324.367 126.533 328.941 131.116 334.584 131.116Z" fill="#FBBEBE"/>
<path d="M299.227 132.713L307.765 121.675C307.765 121.675 310.771 110.105 315.125 110.692C319.479 111.278 313.405 124.567 313.405 124.567L304.922 136.784L299.227 132.713Z" fill="#FBBEBE"/>
<path d="M342.443 279.549L345.194 294.117L351.088 295.692L349.516 278.368L342.443 279.549Z" fill="#FBBEBE"/>
<path d="M401.778 263.8L412.388 278.368L416.71 280.337L420.247 274.431L409.637 260.65L401.778 263.8Z" fill="#FBBEBE"/>
<path d="M340.085 150.014L333.53 141.368C333.53 141.368 320.831 143.715 319.652 144.896C318.473 146.077 322.796 167.732 322.796 167.732C322.796 167.732 323.581 173.638 327.118 176.787L330.655 179.15L359.733 173.244L360.826 160.28C361.224 155.558 360.634 150.805 359.092 146.325C357.551 141.846 355.092 137.738 351.874 134.265L346.814 134.958L340.085 150.014Z" fill="#FF4133"/>
<path d="M321.224 145.683L319.259 144.896L310.221 144.109C310.221 144.109 307.077 143.321 307.863 141.746C308.649 140.171 309.435 139.778 307.863 139.384C306.291 138.99 305.899 138.596 306.291 137.415C306.684 136.234 309.042 133.872 309.042 133.872L302.362 128.36C302.362 128.36 302 128.616 301.416 129.09C298.099 131.781 287.605 141.488 295.289 151.196C304.327 162.614 314.936 169.307 323.581 166.944L321.224 145.683Z" fill="#FF4133"/>
<path d="M329.869 177.181V182.693C329.869 182.693 326.332 189.387 327.511 195.686C328.69 201.986 329.083 205.136 329.083 205.136C329.211 210.493 330.138 215.802 331.834 220.885C334.584 228.759 325.546 280.337 336.942 281.124C348.337 281.912 354.625 282.699 358.161 278.762C361.698 274.825 352.267 207.104 352.267 207.104C352.267 207.104 384.489 274.431 391.169 271.675C397.849 268.919 414.746 262.619 412.781 259.076C410.816 255.532 361.305 176.788 361.305 176.788L359.733 173.244L329.869 177.181Z" fill="#5452F6"/>
<path d="M348.73 291.361C348.73 291.361 342.443 290.967 342.443 292.936C342.443 294.905 339.299 301.598 339.299 301.598C339.299 301.598 336.942 309.472 343.229 308.685C349.516 307.897 353.445 300.81 353.445 300.81L351.874 293.33L348.73 291.361Z" fill="#2F2E41"/>
<path d="M414.353 277.581C414.353 277.581 408.852 274.037 409.245 276.4C409.638 278.762 410.031 285.061 412.781 285.455C415.532 285.849 423.784 288.211 424.177 288.999C424.57 289.786 434 292.936 434 287.818C434 282.699 428.106 278.762 428.106 278.762L421.426 273.643C421.426 273.643 417.104 273.25 416.318 276.006C415.532 278.762 414.353 277.581 414.353 277.581Z" fill="#2F2E41"/>
<path d="M334.6 111.525C338.203 111.525 341.124 108.598 341.124 104.988C341.124 101.378 338.203 98.4507 334.6 98.4507C330.996 98.4507 328.075 101.378 328.075 104.988C328.075 108.598 330.996 111.525 334.6 111.525Z" fill="#BA6D37"/>
<path d="M327.388 103.268C327.388 101.653 327.985 100.096 329.063 98.8953C330.14 97.6951 331.623 96.937 333.226 96.767C332.998 96.7428 332.768 96.7305 332.539 96.7302C330.809 96.7302 329.149 97.419 327.926 98.6449C326.702 99.8709 326.015 101.534 326.015 103.268C326.015 105.001 326.702 106.664 327.926 107.89C329.149 109.116 330.809 109.805 332.539 109.805C332.768 109.805 332.998 109.792 333.226 109.768C331.623 109.598 330.14 108.84 329.063 107.64C327.985 106.439 327.388 104.882 327.388 103.268Z" fill="#BA6D37"/>
<path d="M345.063 112.286L336.148 107.607L323.837 109.521L321.29 120.793L327.631 120.548L329.402 116.408V120.48L332.328 120.368L334.025 113.775L335.087 120.793L345.487 120.58L345.063 112.286Z" fill="#BA6D37"/>
<path d="M344.529 178.093L330.781 178.466C330.781 178.466 319.05 180.753 319.708 176.009C320.367 171.265 331.811 172.924 331.811 172.924L344.338 171.009L344.529 178.093Z" fill="#FBBEBE"/>
<path d="M355.407 133.598C356.098 133.493 356.804 133.639 357.397 134.009C357.99 134.379 358.432 134.949 358.643 135.617C361.335 144.115 369.626 172.554 361.388 176.455C351.685 181.051 344.604 180.849 344.604 180.849L340.813 171.498L344.264 168.254L347.947 144.522L349.713 134.462L355.407 133.598Z" fill="#FF4133"/>
<path opacity="0.4" d="M352.856 149.424L351.284 165.173L337.531 171.078L352.856 167.535V149.424Z" fill="black"/>
<path d="M278.685 97.4316C283.115 98.6078 286.947 101.397 289.433 105.255L290.718 107.249L290.783 107.332L313.333 113.943C313.746 114.064 314.095 114.343 314.306 114.72C314.516 115.096 314.57 115.541 314.457 115.957L312.706 122.388C312.649 122.598 312.551 122.794 312.418 122.965C312.285 123.137 312.12 123.28 311.931 123.387C311.743 123.495 311.535 123.563 311.32 123.59C311.105 123.616 310.887 123.6 310.678 123.541L288.123 117.224L288.122 117.225L285.857 118.083C281.686 119.663 277.11 119.819 272.842 118.526L278.685 97.4316Z" fill="#3F3D56"/>
<path d="M302.432 116.084C302.646 115.353 301.71 114.434 300.341 114.033C298.973 113.632 297.69 113.9 297.477 114.631C297.263 115.362 298.199 116.28 299.568 116.682C300.936 117.083 302.219 116.815 302.432 116.084Z" fill="#575A89"/>
<path d="M301.281 116.758C301.804 116.758 302.227 116.333 302.227 115.81C302.227 115.286 301.804 114.861 301.281 114.861C300.758 114.861 300.334 115.286 300.334 115.81C300.334 116.333 300.758 116.758 301.281 116.758Z" fill="#3F3D56"/>
<path d="M280.57 109.614C282.45 103.803 281.849 98.4026 279.226 97.5506C276.604 96.6986 272.954 100.718 271.074 106.528C269.193 112.339 269.795 117.74 272.417 118.592C275.039 119.444 278.69 115.424 280.57 109.614Z" fill="#3BB3BD"/>
<path opacity="0.4" d="M279.87 109.408C281.682 103.81 281.189 98.5918 278.805 97.4568C278.948 97.4747 279.09 97.5061 279.227 97.5505C281.85 98.4025 282.451 103.803 280.571 109.614C278.69 115.424 275.04 119.444 272.418 118.592C272.323 118.561 272.23 118.523 272.14 118.48C274.719 118.809 278.089 114.913 279.87 109.408Z" fill="black"/>
<path d="M278.982 97.4524L227.805 57.6764C218.755 50.5919 210.071 43.0509 201.786 35.0824C187.197 21.1495 167.393 10.0098 144.336 4.07898C88.3166 -10.3304 43.9379 15.2192 23.7533 52.7346C-7.09112 110.062 -30.7292 203.089 106.034 153.571C135.944 142.741 166.22 141.59 189.177 135.886L272.301 118.713L278.982 97.4524Z" fill="#3BB3BD"/>
<path d="M125.339 30.5194C126.858 30.5194 128.089 29.2855 128.089 27.7634C128.089 26.2413 126.858 25.0073 125.339 25.0073C123.819 25.0073 122.588 26.2413 122.588 27.7634C122.588 29.2855 123.819 30.5194 125.339 30.5194Z" fill="#F2F2F2"/>
<path d="M178.772 34.1339H178.056V33.4165H177.916V34.1339H177.2V34.274H177.916V34.9914H178.056V34.274H178.772V34.1339Z" fill="#F2F2F2"/>
<path d="M250.681 93.9798H249.965V93.2625H249.825V93.9798H249.109V94.12H249.825V94.8373H249.965V94.12H250.681V93.9798Z" fill="#F2F2F2"/>
<path d="M245.573 112.485H244.857V111.767H244.717V112.485H244.001V112.625H244.717V113.342H244.857V112.625H245.573V112.485Z" fill="#F2F2F2"/>
<path d="M25.9146 128.233H25.1986V127.516H25.0587V128.233H24.3428V128.374H25.0587V129.091H25.1986V128.374H25.9146V128.233Z" fill="#F2F2F2"/>
<path d="M57.3501 42.4019H56.6342V41.6846H56.4943V42.4019H55.7783V42.5421H56.4943V43.2595H56.6342V42.5421H57.3501V42.4019Z" fill="#F2F2F2"/>
<path d="M179.558 115.634H178.842V114.917H178.702V115.634H177.986V115.775H178.702V116.492H178.842V115.775H179.558V115.634Z" fill="#F2F2F2"/>
<path d="M104.504 17.2037H103.788V16.4863H103.649V17.2037H102.933V17.3439H103.649V18.0612H103.788V17.3439H104.504V17.2037Z" fill="#F2F2F2"/>
<path d="M104.78 73.8911L103.888 74.0289C104.167 75.8164 104.387 77.6433 104.548 79.4505L105.448 79.3717C105.287 77.5409 105.063 75.6983 104.78 73.8911Z" fill="#E6E6E6"/>
<path d="M102.339 63.1267L101.475 63.3905C101.997 65.1229 102.465 66.8986 102.862 68.6664L103.746 68.4656C103.341 66.6781 102.866 64.8827 102.339 63.1267Z" fill="#E6E6E6"/>
<path d="M98.4453 52.8035L97.624 53.1814C98.3785 54.8311 99.0858 56.5242 99.7263 58.2172L100.571 57.8982C99.9228 56.1855 99.2116 54.4689 98.4453 52.8035Z" fill="#E6E6E6"/>
<path d="M93.1793 43.1257L92.417 43.61C93.3876 45.1376 94.3189 46.7204 95.1834 48.3071L95.9771 47.874C95.1048 46.2677 94.1617 44.6691 93.1793 43.1257Z" fill="#E6E6E6"/>
<path d="M86.633 34.2551L85.9453 34.8418C87.1163 36.2198 88.2559 37.6608 89.3325 39.1176L90.0556 38.5782C88.971 37.1057 87.8196 35.6489 86.633 34.2551Z" fill="#E6E6E6"/>
<path d="M78.9391 26.3569L78.3379 27.0302C79.6896 28.2389 81.0139 29.5107 82.2752 30.806L82.9236 30.1721C81.6465 28.861 80.3066 27.5775 78.9391 26.3569Z" fill="#E6E6E6"/>
<path d="M70.2471 19.5771L69.7402 20.3252C71.2413 21.3371 72.7266 22.4159 74.1531 23.5301L74.711 22.8175C73.265 21.6914 71.7639 20.6008 70.2471 19.5771Z" fill="#E6E6E6"/>
<path d="M62.3369 14.8682V15.8918C63.2761 16.384 64.2074 16.8998 65.119 17.4274L65.5709 16.6439C64.5099 16.0296 63.4319 15.4377 62.3369 14.8682Z" fill="#E6E6E6"/>
<path d="M104.841 85.0357L105.744 85.0193C105.761 85.9332 105.762 86.8519 105.748 87.7502L104.845 87.7361C104.858 86.848 104.857 85.9394 104.841 85.0357Z" fill="#E6E6E6"/>
<path d="M51.7318 151.455L50.8398 151.592C51.1188 153.38 51.3389 155.207 51.5 157.014L52.3999 156.935C52.2387 155.104 52.0148 153.262 51.7318 151.455Z" fill="#E6E6E6"/>
<path d="M49.2913 140.69L48.4268 140.954C48.9494 142.686 49.417 144.462 49.8139 146.23L50.698 146.029C50.2933 144.242 49.8178 142.446 49.2913 140.69Z" fill="#E6E6E6"/>
<path d="M45.3974 130.367L44.5762 130.745C45.3306 132.394 46.0379 134.087 46.6784 135.78L47.5233 135.461C46.8749 133.749 46.1637 132.032 45.3974 130.367Z" fill="#E6E6E6"/>
<path d="M40.1315 120.689L39.3691 121.173C40.3397 122.701 41.271 124.284 42.1355 125.871L42.9293 125.438C42.0569 123.831 41.1138 122.233 40.1315 120.689Z" fill="#E6E6E6"/>
<path d="M33.5851 111.819L32.8975 112.405C34.0684 113.783 35.208 115.224 36.2847 116.681L37.0077 116.142C35.9231 114.669 34.7718 113.212 33.5851 111.819Z" fill="#E6E6E6"/>
<path d="M25.8913 103.92L25.29 104.594C26.6418 105.802 27.966 107.074 29.2274 108.369L29.8758 107.736C28.5987 106.424 27.2587 105.141 25.8913 103.92Z" fill="#E6E6E6"/>
<path d="M17.1993 97.1406L16.6924 97.8887C18.1934 98.9006 19.6788 99.9794 21.1052 101.094L21.6632 100.381C20.2171 99.2549 18.7161 98.1643 17.1993 97.1406Z" fill="#E6E6E6"/>
<path d="M9.28906 92.4316V93.4553C10.2282 93.9475 11.1595 94.4632 12.0711 94.9908L12.523 94.2073C11.4621 93.5931 10.3841 93.0012 9.28906 92.4316Z" fill="#E6E6E6"/>
<path d="M51.792 162.599L52.6952 162.583C52.7118 163.497 52.7131 164.415 52.6989 165.314L51.7958 165.3C51.8095 164.411 51.8083 163.503 51.792 162.599Z" fill="#E6E6E6"/>
<path d="M233.274 112.476L232.382 112.614C232.661 114.401 232.881 116.228 233.042 118.035L233.942 117.957C233.781 116.126 233.557 114.283 233.274 112.476Z" fill="#E6E6E6"/>
<path d="M230.834 101.712L229.97 101.975C230.492 103.708 230.96 105.484 231.357 107.251L232.241 107.051C231.836 105.263 231.361 103.468 230.834 101.712Z" fill="#E6E6E6"/>
<path d="M226.939 91.3882L226.118 91.7662C226.873 93.4159 227.58 95.1089 228.22 96.8019L229.065 96.483C228.417 94.7702 227.706 93.0536 226.939 91.3882Z" fill="#E6E6E6"/>
<path d="M221.674 81.7104L220.912 82.1947C221.883 83.7223 222.814 85.3051 223.678 86.8918L224.472 86.4587C223.6 84.8524 222.657 83.2538 221.674 81.7104Z" fill="#E6E6E6"/>
<path d="M215.127 72.8401L214.439 73.4267C215.61 74.8048 216.75 76.2458 217.827 77.7026L218.55 77.1632C217.465 75.6906 216.314 74.2339 215.127 72.8401Z" fill="#E6E6E6"/>
<path d="M207.433 64.9419L206.832 65.6152C208.184 66.8239 209.508 68.0956 210.769 69.391L211.418 68.7571C210.141 67.446 208.801 66.1624 207.433 64.9419Z" fill="#E6E6E6"/>
<path d="M198.741 58.1619L198.234 58.9099C199.735 59.9218 201.221 61.0006 202.647 62.1148L203.205 61.4022C201.759 60.2762 200.258 59.1856 198.741 58.1619Z" fill="#E6E6E6"/>
<path d="M190.831 53.4531V54.4768C191.77 54.969 192.701 55.4847 193.613 56.0123L194.065 55.2288C193.004 54.6146 191.926 54.0227 190.831 53.4531Z" fill="#E6E6E6"/>
<path d="M233.335 123.621L234.238 123.604C234.255 124.518 234.256 125.437 234.242 126.335L233.339 126.321C233.352 125.433 233.351 124.524 233.335 123.621Z" fill="#E6E6E6"/>
<path d="M58.6657 78.7034H57.9996V78.0356H57.8696V78.7034H57.2031V78.8333H57.8696V79.5011H57.9996V78.8333H58.6657V78.7034Z" fill="#F2F2F2"/>
<path d="M50.987 119.004H50.3209V118.336H50.1909V119.004H49.5244V119.134H50.1909V119.801H50.3209V119.134H50.987V119.004Z" fill="#F2F2F2"/>
<path d="M28.4557 154.323H27.7893V153.656H27.6592V154.323H26.9932V154.454H27.6592V155.121H27.7893V154.454H28.4557V154.323Z" fill="#F2F2F2"/>
<path d="M91.1327 109.527C84.6909 99.9328 81.8939 88.3431 83.2489 76.8597C84.6039 65.3764 90.0212 54.7597 98.5183 46.9351C107.015 39.1105 118.03 34.596 129.564 34.2103C141.098 33.8246 152.388 37.5932 161.387 44.8328C170.386 52.0723 176.498 62.3034 178.614 73.6707C180.73 85.038 178.711 96.7888 172.922 106.792C167.133 116.795 157.957 124.389 147.06 128.195C136.163 132.002 124.265 131.77 113.524 127.54C112.827 130.031 111.525 132.309 109.735 134.172C107.944 136.035 105.72 137.423 103.263 138.214C100.805 139.004 98.1898 139.171 95.6517 138.701C93.1136 138.23 90.7316 137.136 88.7189 135.517C86.7061 133.898 85.1256 131.804 84.1186 129.422C83.1117 127.041 82.7098 124.447 82.949 121.872C83.1882 119.296 84.0609 116.821 85.4891 114.667C86.9173 112.512 88.8564 110.746 91.1327 109.527Z" fill="#094E54"/>
<path d="M130.902 54.8994C141.965 54.8994 149.577 61.0478 149.577 69.8862C149.577 75.739 146.745 79.7887 141.287 83.0107C136.154 85.9962 134.413 88.1836 134.413 91.9672C134.413 92.2739 134.353 92.5776 134.236 92.8609C134.119 93.1442 133.947 93.4017 133.73 93.6185C133.514 93.8353 133.257 94.0074 132.974 94.1247C132.692 94.2421 132.388 94.3025 132.082 94.3025H126.427C125.823 94.3025 125.242 94.0675 124.808 93.647C124.373 93.2266 124.119 92.6535 124.098 92.0487L124.087 91.7603C123.586 85.671 125.71 81.8874 131.05 78.7541C136.036 75.7686 138.13 73.8767 138.13 70.2113C138.13 66.5459 134.59 63.856 130.194 63.856C126.853 63.856 124.209 65.4855 122.996 68.1459C122.57 69.0464 121.895 69.8059 121.052 70.3343C120.209 70.8627 119.232 71.138 118.237 71.1277C114.405 71.1277 111.873 67.0445 113.666 63.6507C116.5 58.282 122.482 54.8994 130.902 54.8994ZM123.143 105.565C123.143 102.165 125.976 99.4754 129.457 99.4754C132.967 99.4754 135.8 102.136 135.8 105.565C135.8 108.994 132.967 111.654 129.457 111.654C125.946 111.654 123.143 108.994 123.143 105.565Z" fill="#3BB3BD"/>
</g>
<defs>
<clipPath id="clip0">
<rect width="434" height="314" fill="white"/>
</clipPath>
</defs>
</svg>
