<svg width="466" height="207" viewBox="0 0 466 207" fill="none" xmlns="http://www.w3.org/2000/svg">
<g clip-path="url(#clip0)">
<path d="M198.386 132.245H9.59917C7.05419 132.242 4.61426 131.229 2.81469 129.429C1.01511 127.628 0.00285657 125.187 0 122.641V7.31373C0.00214511 5.37471 0.772967 3.51572 2.14336 2.14461C3.51375 0.773487 5.37179 0.00221362 7.30984 0H200.566C202.533 0.00221636 204.419 0.784918 205.81 2.17638C207.2 3.56784 207.983 5.45442 207.985 7.42222V122.641C207.982 125.187 206.97 127.628 205.17 129.429C203.37 131.229 200.931 132.242 198.386 132.245Z" fill="white"/>
<path d="M198.386 132.245H9.59917C7.05419 132.242 4.61426 131.229 2.81469 129.429C1.01511 127.628 0.00285657 125.187 0 122.641V7.31373C0.00214511 5.37471 0.772967 3.51572 2.14336 2.14461C3.51375 0.773487 5.37179 0.00221362 7.30984 0H200.566C202.533 0.00221636 204.419 0.784918 205.81 2.17638C207.2 3.56784 207.983 5.45442 207.985 7.42222V122.641C207.982 125.187 206.97 127.628 205.17 129.429C203.37 131.229 200.931 132.242 198.386 132.245ZM7.30984 2.07653C5.92206 2.07815 4.59159 2.63046 3.61031 3.61229C2.62902 4.59411 2.07705 5.92526 2.0755 7.31373V122.641C2.07777 124.637 2.87117 126.55 4.28164 127.961C5.69211 129.372 7.60447 130.166 9.59917 130.168H198.386C200.38 130.166 202.293 129.372 203.703 127.961C205.114 126.55 205.907 124.637 205.909 122.641V7.42222C205.908 6.00496 205.344 4.64617 204.343 3.644C203.341 2.64183 201.983 2.07812 200.566 2.07653H7.30984Z" fill="#E6E6E6"/>
<path d="M86.1914 103.046H29.6237C28.2397 103.044 26.9035 102.539 25.8629 101.626C24.8224 100.713 24.1482 99.4538 23.9654 98.0812C23.931 97.8341 23.9146 97.5848 23.9161 97.3352V34.9096C23.9178 33.3956 24.5197 31.9441 25.5897 30.8735C26.6597 29.803 28.1105 29.2008 29.6237 29.1991H86.1914C87.7046 29.2008 89.1554 29.803 90.2254 30.8735C91.2954 31.9441 91.8973 33.3956 91.899 34.9096V97.3352C91.8973 98.8492 91.2954 100.301 90.2254 101.371C89.1554 102.442 87.7046 103.044 86.1914 103.046ZM29.6237 32.3139C28.9359 32.3147 28.2765 32.5884 27.7901 33.075C27.3037 33.5616 27.0301 34.2214 27.0294 34.9096V97.3352C27.0282 97.442 27.0348 97.5486 27.0491 97.6544C27.1286 98.282 27.4337 98.8592 27.9075 99.2782C28.3813 99.6972 28.9914 99.9292 29.6237 99.9309H86.1914C86.8792 99.9301 87.5387 99.6564 88.025 99.1698C88.5114 98.6832 88.785 98.0234 88.7858 97.3352V34.9096C88.785 34.2214 88.5114 33.5616 88.025 33.075C87.5387 32.5884 86.8792 32.3147 86.1914 32.3139H29.6237Z" fill="#E6E6E6"/>
<path d="M179.918 82.7477H111.426C110.325 82.7477 109.27 82.3101 108.491 81.5312C107.713 80.7524 107.275 79.696 107.275 78.5946C107.275 77.4931 107.713 76.4368 108.491 75.6579C109.27 74.8791 110.325 74.4415 111.426 74.4415H179.918C181.019 74.4415 182.075 74.8791 182.853 75.6579C183.631 76.4368 184.069 77.4931 184.069 78.5946C184.069 79.696 183.631 80.7524 182.853 81.5312C182.075 82.3101 181.019 82.7477 179.918 82.7477Z" fill="#E6E6E6"/>
<path d="M148.785 65.0971H111.426C110.325 65.0971 109.27 64.6596 108.491 63.8807C107.713 63.1019 107.275 62.0455 107.275 60.9441C107.275 59.8426 107.713 58.7863 108.491 58.0074C109.27 57.2286 110.325 56.791 111.426 56.791H148.785C149.886 56.791 150.942 57.2286 151.721 58.0074C152.499 58.7863 152.936 59.8426 152.936 60.9441C152.936 62.0455 152.499 63.1019 151.721 63.8807C150.942 64.6596 149.886 65.0971 148.785 65.0971Z" fill="#E6E6E6"/>
<path d="M76.5585 64.4067C76.5585 73.5814 68.0792 72.1937 57.6196 72.1937C47.1599 72.1937 38.6807 73.5814 38.6807 64.4067C38.6807 55.232 42.8225 38.9692 57.6196 38.9692C72.9263 38.9692 76.5585 55.232 76.5585 64.4067Z" fill="#2F2E41"/>
<path d="M77.3253 79.8477C76.96 78.7929 76.2317 77.9023 75.2706 77.3351C75.085 77.2211 74.8907 77.1222 74.6894 77.0392C73.8465 76.6885 72.9197 76.5912 72.0223 76.759C71.125 76.9268 70.2959 77.3526 69.6365 77.9842C68.9772 78.6158 68.516 79.426 68.3094 80.3156C68.1028 81.2053 68.1597 82.1359 68.4733 82.9937L76.0177 100.151H85.9542L77.3253 79.8477Z" fill="#E63946"/>
<path d="M44.4026 80.7821C43.8063 80.4938 43.1558 80.3349 42.4938 80.3158C41.8318 80.2967 41.1732 80.4178 40.5613 80.6713C39.9493 80.9247 39.3979 81.3047 38.943 81.7863C38.4882 82.268 38.1402 82.8404 37.922 83.466L30.8965 100C31.2563 100.101 31.6281 100.151 32.0016 100.151H40.8174L46.7738 86.612C47.1712 85.519 47.1485 84.3174 46.7104 83.2401C46.2723 82.1629 45.4498 81.2869 44.4026 80.7821Z" fill="#E63946"/>
<path d="M57.5566 72.1784C64.5949 72.1784 70.3007 66.4698 70.3007 59.4279C70.3007 52.3861 64.5949 46.6775 57.5566 46.6775C50.5182 46.6775 44.8125 52.3861 44.8125 59.4279C44.8125 66.4698 50.5182 72.1784 57.5566 72.1784Z" fill="#FFB8B8"/>
<path d="M75.4934 77.5375C75.4209 77.47 75.3482 77.3973 75.2704 77.335C74.3821 76.5337 73.3306 75.9344 72.1885 75.5787C71.0465 75.2229 69.8409 75.119 68.6548 75.2741L45.1704 78.2487C43.0191 78.5149 41.0562 79.6093 39.698 81.2996C38.3399 82.9899 37.6934 85.1431 37.8958 87.3024C38.2176 90.9259 38.7364 95.4995 39.5667 100.151H76.6662L78.0308 84.2862C78.1406 83.043 77.9695 81.7909 77.5303 80.6227C77.0911 79.4546 76.395 78.4001 75.4934 77.5375Z" fill="#E63946"/>
<path d="M42.832 58.1771H47.8726L50.0963 51.9475L50.5409 58.1771H52.9501L54.2473 54.5432L54.5067 58.1771H72.4079C72.4079 54.5974 70.9865 51.1643 68.4565 48.633C65.9265 46.1017 62.4951 44.6797 58.9171 44.6797H56.3228C52.7448 44.6797 49.3134 46.1017 46.7834 48.633C44.2534 51.1643 42.832 54.5974 42.832 58.1771Z" fill="#2F2E41"/>
<path d="M258.016 122.641V7.42222C258.018 5.45442 258.8 3.56784 260.191 2.17638C261.582 0.784918 263.467 0.00221636 265.434 0H458.691C460.629 0.00221362 462.487 0.773487 463.857 2.14461C465.227 3.51572 465.998 5.37471 466 7.31373V122.641C465.998 125.187 464.985 127.628 463.186 129.429C461.386 131.229 458.946 132.242 456.401 132.245H267.615C265.07 132.242 262.63 131.229 260.83 129.429C259.031 127.628 258.018 125.187 258.016 122.641Z" fill="white"/>
<path d="M258.016 122.641V7.42222C258.018 5.45442 258.8 3.56784 260.191 2.17638C261.582 0.784918 263.467 0.00221636 265.434 0H458.691C460.629 0.00221362 462.487 0.773487 463.857 2.14461C465.227 3.51572 465.998 5.37471 466 7.31373V122.641C465.998 125.187 464.985 127.628 463.186 129.429C461.386 131.229 458.946 132.242 456.401 132.245H267.615C265.07 132.242 262.63 131.229 260.83 129.429C259.031 127.628 258.018 125.187 258.016 122.641ZM265.434 2.07653C264.017 2.07812 262.659 2.64183 261.658 3.644C260.656 4.64617 260.093 6.00496 260.091 7.42222V122.641C260.093 124.637 260.887 126.55 262.297 127.961C263.708 129.372 265.62 130.166 267.615 130.168H456.401C458.396 130.166 460.308 129.372 461.719 127.961C463.129 126.55 463.923 124.637 463.925 122.641V7.31373C463.923 5.92526 463.371 4.59411 462.39 3.61229C461.409 2.63046 460.078 2.07815 458.691 2.07653H265.434Z" fill="#E6E6E6"/>
<path d="M374.102 97.3352V34.9096C374.103 33.3956 374.705 31.9441 375.775 30.8735C376.845 29.803 378.296 29.2008 379.809 29.1991H436.377C437.89 29.2008 439.341 29.803 440.411 30.8735C441.481 31.9441 442.083 33.3956 442.084 34.9096V97.3352C442.086 97.5848 442.07 97.8341 442.035 98.0812C441.852 99.4538 441.178 100.713 440.138 101.626C439.097 102.539 437.761 103.044 436.377 103.046H379.809C378.296 103.044 376.845 102.442 375.775 101.371C374.705 100.301 374.103 98.8492 374.102 97.3352ZM379.809 32.3139C379.121 32.3147 378.462 32.5884 377.976 33.075C377.489 33.5616 377.216 34.2214 377.215 34.9096V97.3352C377.216 98.0234 377.489 98.6832 377.976 99.1698C378.462 99.6564 379.121 99.9301 379.809 99.9309H436.377C437.009 99.9292 437.619 99.6972 438.093 99.2782C438.567 98.8592 438.872 98.282 438.951 97.6544C438.966 97.5486 438.972 97.442 438.971 97.3352V34.9096C438.97 34.2214 438.697 33.5616 438.211 33.075C437.724 32.5884 437.065 32.3147 436.377 32.3139H379.809Z" fill="#E6E6E6"/>
<path d="M281.931 78.5946C281.932 77.4935 282.37 76.4379 283.148 75.6593C283.926 74.8807 284.981 74.4428 286.082 74.4415H354.573C355.674 74.4415 356.73 74.8791 357.508 75.6579C358.287 76.4368 358.724 77.4931 358.724 78.5946C358.724 79.696 358.287 80.7524 357.508 81.5312C356.73 82.3101 355.674 82.7477 354.573 82.7477H286.082C284.981 82.7464 283.926 82.3084 283.148 81.5299C282.37 80.7513 281.932 79.6957 281.931 78.5946Z" fill="#E6E6E6"/>
<path d="M281.931 60.9441C281.932 59.843 282.37 58.7874 283.148 58.0088C283.926 57.2302 284.981 56.7923 286.082 56.791H323.441C324.542 56.791 325.597 57.2286 326.376 58.0074C327.154 58.7863 327.592 59.8426 327.592 60.9441C327.592 62.0455 327.154 63.1019 326.376 63.8807C325.597 64.6596 324.542 65.0971 323.441 65.0971H286.082C284.981 65.0959 283.926 64.6579 283.148 63.8793C282.37 63.1008 281.932 62.0452 281.931 60.9441Z" fill="#E6E6E6"/>
<path d="M394.113 53.458C397.751 60.6135 400.618 67.9937 408.642 67.9937C412.495 67.9937 416.19 66.4623 418.915 63.7363C421.639 61.0104 423.17 57.3131 423.17 53.458C423.17 49.6029 421.639 45.9057 418.915 43.1797C416.19 40.4538 412.495 38.9223 408.642 38.9223C400.487 38.8202 387.342 40.1395 394.113 53.458Z" fill="#2F2E41"/>
<path d="M407.927 68.277C414.965 68.277 420.671 62.5684 420.671 55.5266C420.671 48.4847 414.965 42.7761 407.927 42.7761C400.888 42.7761 395.183 48.4847 395.183 55.5266C395.183 62.5684 400.888 68.277 407.927 68.277Z" fill="#A0616A"/>
<path d="M425.326 78.7679C424.504 77.8725 423.61 77.046 422.654 76.2969C418.47 73.0166 413.227 71.3906 407.923 71.7285C407.71 71.7389 407.497 71.7544 407.284 71.7752C404.213 72.0209 401.228 72.9183 398.53 74.4078C395.832 75.8973 393.481 77.9446 391.635 80.4136C389.761 82.9202 388.443 85.7986 387.77 88.856C387.097 91.9134 387.085 95.0794 387.733 98.142C387.874 98.7909 387.998 99.445 388.117 100.099H430.364L430.852 96.8286C431.339 93.5963 431.096 90.2958 430.14 87.1701C429.183 84.0444 427.538 81.1732 425.326 78.7679Z" fill="#FFC74F"/>
<path d="M431.796 82.1786C431.498 80.4727 430.611 78.9254 429.291 77.8061C427.97 76.6867 426.298 76.0663 424.568 76.0529C424.5 76.0529 424.428 76.058 424.36 76.058C423.784 76.0712 423.211 76.1514 422.653 76.2968C421.715 76.5462 420.836 76.9784 420.066 77.5686C419.296 78.1588 418.649 78.8954 418.164 79.7362C417.679 80.5769 417.365 81.5052 417.24 82.4678C417.114 83.4304 417.18 84.4083 417.433 85.3453L421.423 100.099H434.852L431.796 82.1786Z" fill="#FFC74F"/>
<path d="M402.246 78.311C401.74 77.3165 401.014 76.4502 400.124 75.7776C399.494 75.3014 398.789 74.933 398.038 74.6875C397.731 74.5825 397.417 74.4993 397.099 74.4383C395.363 74.1097 393.568 74.4126 392.036 75.2922C390.504 76.1717 389.337 77.5702 388.745 79.2351L381.439 100.099H395.304L402.376 84.7534C402.847 83.741 403.081 82.6339 403.058 81.5172C403.036 80.4004 402.758 79.3037 402.246 78.311Z" fill="#FFC74F"/>
<path d="M394.403 48.3206C397.316 50.3288 400.772 51.3975 404.309 51.3834C403.047 52.2586 401.611 52.8498 400.099 53.1163C404.802 54.1255 409.662 54.1528 414.375 53.1965C415.423 53.0284 416.434 52.681 417.364 52.1695C417.827 51.9106 418.231 51.5571 418.549 51.1318C418.867 50.7065 419.091 50.2191 419.209 49.7012C419.522 47.911 418.128 46.2845 416.679 45.1884C414.46 43.5357 411.902 42.397 409.19 41.8548C406.478 41.3125 403.679 41.3802 400.996 42.053C399.244 42.506 397.489 43.2715 396.351 44.6791C395.213 46.0867 394.876 48.2567 395.96 49.7061L394.403 48.3206Z" fill="#2F2E41"/>
<path d="M327.393 207H138.607C136.062 206.997 133.622 205.984 131.822 204.184C130.023 202.383 129.011 199.942 129.008 197.396V82.0689C129.01 80.1298 129.781 78.2709 131.151 76.8997C132.522 75.5286 134.38 74.7573 136.318 74.7551H329.574C331.541 74.7573 333.427 75.54 334.817 76.9315C336.208 78.323 336.99 80.2095 336.993 82.1774V197.396C336.99 199.942 335.977 202.383 334.178 204.184C332.378 205.984 329.938 206.997 327.393 207Z" fill="white"/>
<path d="M327.393 207H138.607C136.062 206.997 133.622 205.984 131.822 204.184C130.023 202.383 129.011 199.942 129.008 197.396V82.0689C129.01 80.1298 129.781 78.2709 131.151 76.8997C132.522 75.5286 134.38 74.7573 136.318 74.7551H329.574C331.541 74.7573 333.427 75.54 334.817 76.9315C336.208 78.323 336.99 80.2095 336.993 82.1774V197.396C336.99 199.942 335.977 202.383 334.178 204.184C332.378 205.984 329.938 206.997 327.393 207ZM136.318 76.8317C134.93 76.8333 133.599 77.3856 132.618 78.3674C131.637 79.3492 131.085 80.6804 131.083 82.0689V197.396C131.086 199.392 131.879 201.305 133.289 202.716C134.7 204.127 136.612 204.921 138.607 204.924H327.393C329.388 204.921 331.3 204.127 332.711 202.716C334.121 201.305 334.915 199.392 334.917 197.396V82.1774C334.915 80.7601 334.352 79.4013 333.35 78.3991C332.349 77.397 330.991 76.8332 329.574 76.8317H136.318Z" fill="#3F3D56"/>
<path d="M215.199 177.801H158.632C157.248 177.799 155.911 177.294 154.871 176.382C153.83 175.469 153.156 174.209 152.973 172.836C152.939 172.589 152.922 172.34 152.924 172.09V109.665C152.926 108.151 153.528 106.699 154.598 105.629C155.668 104.558 157.118 103.956 158.632 103.954H215.199C216.712 103.956 218.163 104.558 219.233 105.629C220.303 106.699 220.905 108.151 220.907 109.665V172.09C220.905 173.604 220.303 175.056 219.233 176.126C218.163 177.197 216.712 177.799 215.199 177.801ZM158.632 107.069C157.944 107.07 157.284 107.344 156.798 107.83C156.312 108.317 156.038 108.977 156.037 109.665V172.09C156.036 172.197 156.043 172.304 156.057 172.41C156.136 173.037 156.442 173.614 156.915 174.033C157.389 174.452 157.999 174.684 158.632 174.686H215.199C215.887 174.685 216.546 174.411 217.033 173.925C217.519 173.438 217.793 172.779 217.794 172.09V109.665C217.793 108.977 217.519 108.317 217.033 107.83C216.546 107.344 215.887 107.07 215.199 107.069H158.632Z" fill="#E6E6E6"/>
<path d="M186.093 115.367C182.411 113.653 177.89 113.091 174.143 114.684C170.396 116.276 167.841 120.358 169.053 123.971C169.602 125.609 170.853 127.22 170.366 128.874C169.991 130.148 168.682 130.988 167.396 131.586C166.111 132.184 164.705 132.687 163.776 133.695C162.846 134.703 162.652 136.438 163.813 137.22C164.196 137.478 164.674 137.6 165.045 137.871C165.361 138.129 165.589 138.478 165.698 138.871C165.806 139.264 165.789 139.681 165.649 140.063C165.34 140.834 164.829 141.506 164.17 142.01C162.852 143.148 161.11 144.45 161.519 146.064C161.671 146.496 161.924 146.884 162.258 147.197C162.592 147.509 162.997 147.737 163.437 147.859C164.352 148.123 165.301 148.249 166.253 148.231L205.151 149.457C206.435 149.554 207.726 149.481 208.992 149.243C209.607 149.13 210.192 148.892 210.711 148.543C211.23 148.195 211.671 147.743 212.008 147.215C212.753 145.836 212.264 144.137 211.344 142.848C210.424 141.56 209.122 140.544 208.046 139.361C206.97 138.179 206.09 136.702 206.28 135.173C206.432 133.95 207.238 132.892 207.817 131.78C208.396 130.668 208.733 129.278 207.983 128.256C206.926 126.814 204.389 126.944 203.187 125.601C202.28 124.588 202.455 123.128 202.365 121.821C202.148 118.677 199.972 115.708 196.875 114.329C195.3 113.653 193.587 113.361 191.877 113.477C190.167 113.594 188.51 114.115 187.041 114.999L186.093 115.367Z" fill="#2F2E41"/>
<path d="M187.532 149.156C194.571 149.156 200.276 143.447 200.276 136.405C200.276 129.363 194.571 123.655 187.532 123.655C180.494 123.655 174.788 129.363 174.788 136.405C174.788 143.447 180.494 149.156 187.532 149.156Z" fill="#A0616A"/>
<path d="M204.264 165.622C204.252 163.387 203.633 161.197 202.474 159.287C201.316 157.376 199.66 155.816 197.685 154.772C197.524 154.684 197.358 154.606 197.192 154.528C195.758 153.848 194.205 153.453 192.621 153.365L180.49 152.685C178.776 152.587 177.061 152.851 175.456 153.459C175.066 153.604 174.683 153.771 174.31 153.957C173.137 154.535 172.065 155.297 171.134 156.215C169.908 157.426 168.949 158.88 168.318 160.484C167.687 162.088 167.399 163.806 167.471 165.528L167.689 170.673L169.214 174.634H203.133C203.554 174.124 203.919 173.571 204.223 172.983C204.798 171.843 205.101 170.585 205.108 169.307C205.115 168.03 204.826 166.769 204.264 165.622Z" fill="#E68C67"/>
<path d="M203.434 158.8C202.881 157.599 202.013 156.569 200.923 155.821C200.136 155.281 199.254 154.897 198.323 154.689C197.951 154.607 197.573 154.553 197.192 154.528C196.443 154.477 195.69 154.542 194.961 154.72C193.872 154.991 192.859 155.506 191.998 156.227C191.137 156.947 190.451 157.854 189.991 158.878C189.532 159.903 189.311 161.019 189.346 162.141C189.381 163.263 189.671 164.363 190.193 165.357L194.857 174.193L195.091 174.634H210.756L203.434 158.8Z" fill="#E68C67"/>
<path d="M177.797 154.196C177.063 153.822 176.272 153.573 175.457 153.459C174.85 153.372 174.234 153.363 173.625 153.433C172.075 153.608 170.62 154.27 169.468 155.322C168.316 156.375 167.526 157.765 167.212 159.294L164.052 174.634H176.411L178.72 173.689L181.595 162.652C182.013 161.021 181.865 159.296 181.175 157.759C180.485 156.223 179.294 154.966 177.797 154.196Z" fill="#E68C67"/>
<path d="M174.495 134.592C178.519 134.269 181.861 130.247 181.442 126.229C181.395 127.885 181.958 129.501 183.024 130.768C184.09 132.036 185.584 132.868 187.223 133.105C189.069 133.309 191.093 132.75 192.7 133.682C194.48 134.714 195.049 137.22 196.903 138.111C198.695 138.972 200.97 137.798 201.855 136.017C202.74 134.237 202.523 132.098 201.937 130.198C201.1 127.488 199.577 125.042 197.515 123.095C195.454 121.149 192.924 119.77 190.171 119.092C187.419 118.414 184.539 118.46 181.809 119.226C179.08 119.992 176.596 121.451 174.597 123.462C172.905 125.165 171.561 127.336 171.343 129.727C171.125 132.119 172.234 134.714 174.381 135.788L174.495 134.592Z" fill="#2F2E41"/>
<path d="M308.926 157.503H240.434C239.333 157.503 238.277 157.065 237.499 156.286C236.721 155.507 236.283 154.451 236.283 153.35C236.283 152.248 236.721 151.192 237.499 150.413C238.277 149.634 239.333 149.197 240.434 149.197H308.926C310.026 149.197 311.082 149.634 311.861 150.413C312.639 151.192 313.077 152.248 313.077 153.35C313.077 154.451 312.639 155.507 311.861 156.286C311.082 157.065 310.026 157.503 308.926 157.503Z" fill="#E6E6E6"/>
<path d="M277.793 139.852H240.434C239.333 139.852 238.277 139.415 237.499 138.636C236.721 137.857 236.283 136.801 236.283 135.699C236.283 134.598 236.721 133.541 237.499 132.762C238.277 131.984 239.333 131.546 240.434 131.546H277.793C278.894 131.546 279.95 131.984 280.728 132.762C281.507 133.541 281.944 134.598 281.944 135.699C281.944 136.801 281.507 137.857 280.728 138.636C279.95 139.415 278.894 139.852 277.793 139.852Z" fill="#3BB3BD"/>
<path d="M297.838 170.182C294.213 170.189 290.738 171.634 288.177 174.202C285.615 176.769 284.177 180.248 284.177 183.875C284.177 187.503 285.615 190.982 288.177 193.549C290.738 196.117 294.213 197.562 297.838 197.569H297.838C301.464 197.562 304.939 196.117 307.5 193.549C310.061 190.982 311.5 187.503 311.5 183.876C311.5 180.248 310.061 176.769 307.5 174.202C304.939 171.634 301.464 170.189 297.838 170.182Z" fill="#3BB3BD"/>
<path d="M296.541 189.563C296.18 189.563 295.83 189.447 295.541 189.23L295.523 189.217L291.76 186.336C291.408 186.066 291.178 185.667 291.121 185.228C291.063 184.788 291.182 184.343 291.452 183.991C291.721 183.64 292.12 183.409 292.559 183.351C292.998 183.292 293.443 183.411 293.795 183.68L296.233 185.551L301.994 178.031C302.127 177.857 302.294 177.71 302.484 177.6C302.674 177.491 302.884 177.419 303.102 177.39C303.319 177.362 303.541 177.376 303.753 177.433C303.965 177.49 304.164 177.588 304.338 177.721L304.338 177.722L304.303 177.771L304.339 177.722C304.691 177.992 304.921 178.391 304.979 178.831C305.037 179.27 304.918 179.715 304.649 180.067L297.873 188.908C297.716 189.112 297.514 189.277 297.283 189.39C297.053 189.503 296.799 189.561 296.542 189.561L296.541 189.563Z" fill="white"/>
</g>
<defs>
<clipPath id="clip0">
<rect width="466" height="207" fill="white"/>
</clipPath>
</defs>
</svg>
