<svg width="50" height="50" viewBox="0 0 50 50" fill="none" xmlns="http://www.w3.org/2000/svg">
<path d="M25 28.0296C19.1596 28.0296 14.0363 33.2066 14.0356 38.9927C14.035 44.6983 19.1976 49.9585 25 49.9585C30.7624 49.9585 35.9651 44.857 35.9644 38.9928C35.9637 33.1274 30.9012 28.0296 25 28.0296ZM33.453 34.6622C33.9085 35.5474 34.2289 36.513 34.3869 37.5315L32.8771 36.4345L33.453 34.6622ZM32.4273 33.0787L31.4195 36.1804L29.016 37.2687L25.7324 34.883V31.99L28.3349 30.0993C29.9549 30.7087 31.3657 31.7484 32.4273 33.0787ZM28.0692 38.3914L26.8969 41.9994H23.1031L21.9308 38.3914L25 36.1615L28.0692 38.3914ZM25 29.4944C25.5137 29.4944 26.0177 29.5359 26.5095 29.6148L25 30.7115L23.4905 29.6149C23.9823 29.536 24.4863 29.4944 25 29.4944ZM21.6651 30.0993L24.2676 31.99V34.883L20.9839 37.2687L18.5804 36.1804L17.5726 33.0787C18.6343 31.7484 20.0451 30.7087 21.6651 30.0993ZM16.547 34.6622L17.1229 36.4345L15.6131 37.5315C15.7711 36.513 16.0915 35.5474 16.547 34.6622ZM17.0777 44.23C16.1546 42.8379 15.5884 41.1898 15.5104 39.4168L18.0697 37.5572L20.4732 38.6455L21.7477 42.5679L20.3265 44.23H17.0777ZM18.2729 45.6948H20.1315L20.7074 47.4671C19.8033 47.0071 18.9821 46.4068 18.2729 45.6948ZM27.5301 48.1511C26.7242 48.374 25.8759 48.4937 25 48.4937C24.1241 48.4937 23.2759 48.374 22.4699 48.1511L21.4871 45.1264L22.9083 43.4644H27.0916L28.5128 45.1264L27.5301 48.1511ZM29.2926 47.467L29.8685 45.6947H31.7271C31.0179 46.4068 30.1967 47.0071 29.2926 47.467ZM32.9223 44.23H29.6736L28.2524 42.5679L29.5269 38.6455L31.9304 37.5572L34.4897 39.4168C34.4116 41.1897 33.8454 42.8378 32.9223 44.23ZM45.8105 3.5781C45.6926 3.50095 45.5541 3.45789 45.4102 3.45789H4.58984C4.4459 3.45789 4.30732 3.50105 4.18945 3.5781C3.73506 3.7864 3.41797 4.24451 3.41797 4.77625V33.1942C3.4001 33.7737 4.12315 34.142 4.58115 33.7865L9.22246 30.411H14.9023C15.3069 30.411 15.6348 30.0831 15.6348 29.6786C15.6348 29.2741 15.3069 28.9462 14.9023 28.9462H13.5856L13.1681 25.3134H16.6286L16.8103 28.4737C16.8326 28.8633 17.1555 29.1641 17.5407 29.1641C17.5549 29.1641 17.5691 29.1637 17.5835 29.163C17.9873 29.1397 18.2959 28.7935 18.2727 28.3897L18.0958 25.3135H21.5612V26.749C21.5612 27.1535 21.8891 27.4814 22.2937 27.4814C22.6982 27.4814 23.0261 27.1535 23.0261 26.749V25.3135H26.9737V26.1943C26.9737 26.5988 27.3016 26.9267 27.7062 26.9267C28.1107 26.9267 28.4386 26.5988 28.4386 26.1943V25.3135H31.9044L31.7275 28.3897C31.7043 28.7935 32.0129 29.1397 32.4167 29.163C32.4311 29.1637 32.4452 29.1641 32.4595 29.1641C32.8447 29.1641 33.1677 28.8633 33.1899 28.4737L33.3716 25.3134H36.8321L36.4146 28.9462H35.0977C34.6931 28.9462 34.3652 29.2741 34.3652 29.6786C34.3652 30.0831 34.6931 30.411 35.0977 30.411H40.7774L45.4188 33.7865C45.8769 34.142 46.5997 33.7736 46.5819 33.1942V4.77625C46.582 4.24451 46.2649 3.7864 45.8105 3.5781ZM15.9584 13.6532H11.8277L11.4102 10.0204H15.7496L15.9584 13.6532ZM15.4566 4.92273L15.6654 8.55554H11.2418L10.8242 4.92273H15.4566ZM10.9392 18.7509H7.84346L7.21709 15.118H10.5216L10.9392 18.7509ZM10.3532 13.6532H6.96455L6.33818 10.0204H9.93565L10.3532 13.6532ZM9.34971 4.92273L9.76729 8.55554H6.08565L5.45928 4.92273H9.34971ZM4.88281 31.7559V10.2L8.18526 29.3542L4.88281 31.7559ZM8.096 20.2157H11.1075L11.5251 23.8485H8.72236L8.096 20.2157ZM9.60127 28.9462L8.9749 25.3134H11.6935L12.111 28.9462H9.60127ZM11.9961 15.118H16.0426L16.2514 18.7509H12.4137L11.9961 15.118ZM12.9996 23.8485L12.582 20.2157H16.3355L16.5443 23.8485H12.9996ZM21.5611 23.8485H18.0115L17.8027 20.2157H21.5611V23.8485ZM21.5611 18.7509H17.7186L17.5098 15.118H21.5611V18.7509ZM21.5611 13.6532H17.4256L17.2168 10.0204H21.5611V13.6532ZM21.5611 8.55554H17.1326L16.9238 4.92273H21.5611V8.55554ZM26.9736 23.8485H23.026V20.2157H26.9736V23.8485ZM26.9736 18.7509H23.026V15.118H26.9736V18.7509ZM26.9736 13.6532H23.026V10.0204H26.9736V13.6532ZM26.9736 8.55554H23.026V4.92273H26.9736V8.55554ZM31.9885 23.8485H28.4385V20.2157H32.1973L31.9885 23.8485ZM32.2814 18.7509H28.4385V15.118H32.4902L32.2814 18.7509ZM32.5744 13.6532H28.4385V10.0204H32.7832L32.5744 13.6532ZM32.8674 8.55554H28.4385V4.92273H33.0762L32.8674 8.55554ZM40.6503 4.92273H44.5407L43.9144 8.55554H40.2327L40.6503 4.92273ZM40.0644 10.0204H43.6618L43.0354 13.6532H39.6468L40.0644 10.0204ZM42.7829 15.118L42.1565 18.7509H39.0608L39.4784 15.118H42.7829ZM34.5434 4.92273H39.1758L38.7582 8.55554H34.3346L34.5434 4.92273ZM34.2504 10.0204H38.5898L38.1723 13.6532H34.0416L34.2504 10.0204ZM37.0004 23.8485H33.4557L33.6645 20.2157H37.418L37.0004 23.8485ZM33.7486 18.7509L33.9574 15.118H38.0039L37.5863 18.7509H33.7486ZM40.3987 28.9462H37.889L38.3065 25.3134H41.0251L40.3987 28.9462ZM38.4749 23.8485L38.8925 20.2157H41.904L41.2776 23.8485H38.4749ZM45.1172 31.7559L41.8147 29.3542L45.1172 10.2V31.7559ZM46.8262 0.039917H3.21983C1.47178 0.039917 0.0480477 1.46199 0.0459969 3.20974L7.8515e-07 34.658C-0.000585152 35.0626 0.326856 35.3909 0.731348 35.3915H0.732423C1.13643 35.3915 1.46426 35.0642 1.46484 34.6601L1.51084 3.2116C1.51191 2.27039 2.27852 1.50466 3.21983 1.50466H46.8262C47.7685 1.50466 48.5352 2.27136 48.5352 3.21365V34.659C48.5352 35.0635 48.863 35.3914 49.2676 35.3914C49.6722 35.3914 50 35.0635 50 34.659V3.21365C50 1.46365 48.5763 0.039917 46.8262 0.039917Z" fill="#3C6A7A"/>
</svg>
