<svg width="50" height="50" viewBox="0 0 50 50" fill="none" xmlns="http://www.w3.org/2000/svg">
<g clip-path="url(#clip0)">
<path d="M30.3351 37.8623C29.662 37.8833 29.156 37.1259 29.4337 36.5126C29.7539 35.7157 30.9164 35.7157 31.2365 36.5126C31.5141 37.1259 31.0084 37.8834 30.3351 37.8623Z" fill="#3C6A7A"/>
<path d="M16.3954 43.9607C16.1455 43.9607 15.8955 43.8653 15.7048 43.6746L10.6516 38.6214C10.2703 38.24 10.2703 37.6217 10.6516 37.2402C11.033 36.8589 11.6513 36.8589 12.0328 37.2402L17.086 42.2935C17.4673 42.6748 17.4673 43.2932 17.086 43.6746C16.8953 43.8653 16.6453 43.9607 16.3954 43.9607Z" fill="#3C6A7A"/>
<path d="M17.6719 39.6167C17.4219 39.6167 17.1721 39.5214 16.9814 39.3307L14.9957 37.345C14.6144 36.9637 14.6144 36.3453 14.9958 35.964C15.3772 35.5827 15.9955 35.5826 16.3769 35.964L18.3625 37.9496C18.7439 38.3309 18.7439 38.9493 18.3624 39.3307C18.1718 39.5213 17.9218 39.6167 17.6719 39.6167Z" fill="#3C6A7A"/>
<path d="M50.0001 9.09222C50.0001 8.83324 49.8972 8.5848 49.714 8.40169L45.9238 4.61234C45.5424 4.23109 44.9241 4.23109 44.5427 4.61244L43.1486 6.00658L42.745 5.60306C42.3637 5.22172 41.7453 5.22172 41.3639 5.60306C40.9824 5.98441 40.9825 6.60277 41.3639 6.98421L41.7675 7.38783L41.0235 8.13187L40.6199 7.72826C40.2385 7.34691 39.6201 7.34691 39.2387 7.72826C38.8573 8.1096 38.8573 8.72796 39.2387 9.10941L39.6423 9.51302L31.7637 17.3915C27.9398 15.0244 24.0978 15.0723 21.6011 17.5691C20.8925 18.277 20.3615 18.972 19.9781 19.6937C18.5737 22.3353 15.4378 24.7107 12.6835 25.2189C10.6332 25.5976 8.77766 26.5278 7.31731 27.909C5.43586 29.6893 4.41428 32.0115 4.36321 34.6246C4.29455 38.1305 5.99699 41.9239 9.0343 45.0321C12.0996 48.1688 15.8786 49.9795 19.4024 49.9998C19.4227 49.9999 19.4428 50 19.4631 50C22.0596 50 24.3946 49.037 26.2189 47.2129C27.7111 45.7203 28.7098 43.7945 29.1073 41.6438C29.1609 41.3541 29.2366 41.0548 29.3324 40.7541C29.4963 40.2402 29.2125 39.6908 28.6987 39.5271C28.1848 39.3632 27.6354 39.6469 27.4716 40.1608C27.3509 40.5394 27.2551 40.919 27.1866 41.2889C26.8614 43.0492 26.049 44.6202 24.8376 45.8319C23.3878 47.2815 21.5302 48.0468 19.4622 48.0468C19.4462 48.0468 19.4298 48.0468 19.4137 48.0467C16.4083 48.0293 13.1343 46.433 10.4313 43.667C7.75754 40.9307 6.25764 37.6488 6.31604 34.6628C6.35676 32.585 7.16721 30.7402 8.65969 29.3278C9.84553 28.2063 11.3596 27.4495 13.0383 27.1395C16.3749 26.5237 20.0189 23.7779 21.7029 20.6104C21.9941 20.0624 22.4124 19.5197 22.9822 18.9504C25.3353 16.5973 28.5457 17.8177 30.3346 18.8209L22.3374 26.8183C20.8571 26.7472 19.3531 27.2755 18.2252 28.4034C17.1971 29.4316 16.6309 30.7985 16.6309 32.2524C16.6309 33.7062 17.1971 35.0731 18.2251 36.1012C19.253 37.1293 20.6199 37.6955 22.0739 37.6955C23.5279 37.6955 24.8947 37.1293 25.9231 36.1012C27.0507 34.9734 27.579 33.4695 27.508 31.9895L35.4974 23.9999C36.4902 25.8022 37.674 29.051 35.2015 31.5235C34.7823 31.943 34.3044 32.301 33.7811 32.5873C33.5171 32.7317 33.2499 32.8929 32.9868 33.0668C32.5368 33.3641 32.4131 33.9699 32.7104 34.4199C32.8982 34.7042 33.209 34.8582 33.5261 34.8582C33.711 34.8582 33.8978 34.8058 34.0635 34.6963C34.2815 34.5523 34.5017 34.4193 34.7183 34.3009C35.4051 33.9251 36.0325 33.4552 36.5829 32.9043C38.0487 31.4386 38.7484 29.551 38.6064 27.4455C38.4996 25.8632 37.9228 24.1908 36.9292 22.5682L44.8135 14.684L45.3864 15.2569C45.5771 15.4476 45.827 15.5429 46.0769 15.5429C46.3268 15.5429 46.5768 15.4476 46.7674 15.2569C47.1488 14.8755 47.1488 14.2572 46.7674 13.8757L46.1946 13.3029L46.9386 12.5588L47.5115 13.1318C47.7023 13.3225 47.9522 13.4178 48.2021 13.4178C48.452 13.4178 48.702 13.3225 48.8926 13.1318C49.2739 12.7504 49.2739 12.1321 48.8926 11.7506L48.3197 11.1777L49.7142 9.78304C49.8973 9.59964 50.0001 9.3512 50.0001 9.09222ZM24.5418 34.72C23.8825 35.3792 23.0061 35.7423 22.0739 35.7423C21.1416 35.7423 20.2653 35.3793 19.6062 34.72C18.2453 33.3593 18.2453 31.1451 19.6062 29.7845C20.2864 29.1042 21.1801 28.7641 22.0739 28.7641C22.9675 28.7641 23.8614 29.1042 24.5417 29.7844C25.9022 31.1451 25.9022 33.3594 24.5418 34.72ZM26.9342 29.801C26.6804 29.2967 26.3434 28.8239 25.923 28.4034C25.923 28.4034 25.9229 28.4033 25.9229 28.4032C25.5025 27.9829 25.0297 27.6459 24.5256 27.3922L38.8982 13.0194L41.3072 15.4279L26.9342 29.801ZM42.6883 14.0469L40.2795 11.6382L41.0236 10.8942L43.4324 13.3029L42.6883 14.0469ZM44.8134 11.9216L42.4047 9.51292L43.1488 8.76888L45.5574 11.1776L44.8134 11.9216ZM44.5298 7.38763L45.2335 6.68392L47.6425 9.09242L46.9386 9.79642L44.5298 7.38763Z" fill="#3C6A7A"/>
<path d="M14.2663 7.768C14.2663 7.45325 14.1146 7.15784 13.8589 6.97444C13.6031 6.79095 13.2747 6.74202 12.9766 6.843L5.32402 9.43372C4.92744 9.568 4.66055 9.94007 4.66055 10.3587V17.7408C4.24717 17.5546 3.78887 17.4509 3.30684 17.4509C1.4835 17.4509 0 18.9343 0 20.7577C0 22.5811 1.4834 24.0646 3.30684 24.0646C5.13027 24.0646 6.61367 22.5812 6.61367 20.7577C6.61367 20.701 6.61367 11.0591 6.61367 11.0591L12.3131 9.12962V15.15C11.8997 14.9638 11.4414 14.8601 10.9594 14.8601C9.13594 14.8601 7.65254 16.3435 7.65254 18.1669C7.65254 19.9904 9.13594 21.4738 10.9594 21.4738C12.7828 21.4738 14.2662 19.9904 14.2662 18.1669C14.2663 18.1102 14.2663 7.768 14.2663 7.768ZM3.30684 22.1115C2.56035 22.1115 1.95312 21.5042 1.95312 20.7577C1.95312 20.0113 2.56045 19.404 3.30684 19.404C4.05322 19.404 4.66055 20.0114 4.66055 20.7577C4.66064 21.5041 4.05332 22.1115 3.30684 22.1115ZM10.9595 19.5206C10.213 19.5206 9.60576 18.9133 9.60576 18.1669C9.60576 17.4204 10.2131 16.8132 10.9595 16.8132C11.706 16.8132 12.3132 17.4205 12.3132 18.1669C12.3132 18.9134 11.7059 19.5206 10.9595 19.5206Z" fill="#3C6A7A"/>
<path d="M45.5212 34.3593L42.2232 33.2428C41.925 33.1418 41.5967 33.1908 41.3409 33.3742C41.0852 33.5576 40.9335 33.853 40.9335 34.1678V41.5498C40.5201 41.3636 40.0618 41.2598 39.5798 41.2598C37.7563 41.2598 36.2729 42.7432 36.2729 44.5667C36.2729 46.3901 37.7563 47.8735 39.5798 47.8735C41.4032 47.8735 42.8866 46.3901 42.8866 44.5667C42.8866 44.5099 42.8866 44.337 42.8866 44.3062V35.5294L44.8949 36.2093C45.4058 36.3824 45.9602 36.1083 46.133 35.5974C46.3061 35.0865 46.032 34.5322 45.5212 34.3593ZM39.5798 45.9204C38.8333 45.9204 38.2261 45.3131 38.2261 44.5667C38.2261 43.8202 38.8334 43.213 39.5798 43.213C40.3263 43.213 40.9335 43.8203 40.9335 44.5667C40.9335 45.3132 40.3263 45.9204 39.5798 45.9204Z" fill="#3C6A7A"/>
<path d="M26.6946 10.5076C26.5024 10.5076 26.3102 10.451 26.1444 10.3378C25.4553 9.86775 21.9772 7.45974 21.169 6.20418C20.817 5.6573 20.3583 4.78943 20.4365 3.57019C20.5667 1.54675 22.2232 -0.0216061 24.2053 -2.4067e-05C25.3195 0.0120853 26.2055 0.604273 26.7921 1.15798C27.393 0.624976 28.2837 0.05564 29.3466 0.05564C29.3573 0.05564 29.368 0.05564 29.3787 0.0557377C31.3619 0.0771244 32.9832 1.68064 33.0697 3.70623C33.1219 4.9241 32.6448 5.78289 32.2815 6.32293C31.4412 7.57097 27.9239 9.89587 27.2274 10.3493C27.0653 10.455 26.8799 10.5076 26.6946 10.5076ZM24.1664 1.953C23.2446 1.953 22.4477 2.73084 22.3856 3.69558C22.3529 4.20593 22.4761 4.62654 22.8113 5.14714C23.2016 5.75369 25.1675 7.26785 26.7071 8.35154C28.264 7.30447 30.2552 5.83562 30.661 5.23259C31.0076 4.71755 31.1401 4.29949 31.1184 3.78982C31.0769 2.81785 30.2869 2.01892 29.3576 2.00896C28.5794 2.00222 27.7382 2.93923 27.5569 3.19109C27.3685 3.45281 27.0647 3.60378 26.7405 3.59675C26.4181 3.58894 26.1203 3.42234 25.9449 3.15173C25.7278 2.8241 24.983 1.96179 24.1842 1.9531C24.1783 1.953 24.1724 1.953 24.1664 1.953Z" fill="#3C6A7A"/>
</g>
<defs>
<clipPath id="clip0">
<rect width="50" height="50" fill="white"/>
</clipPath>
</defs>
</svg>
