<svg width="253" height="178" viewBox="0 0 253 178" fill="none" xmlns="http://www.w3.org/2000/svg">
<path d="M28 23.5617C28 22.1469 29.1469 21 30.5617 21H218.142C219.557 21 220.704 22.1469 220.704 23.5617V138.504C220.704 139.918 219.557 141.065 218.142 141.065H30.5617C29.1469 141.065 28 139.918 28 138.504V23.5617Z" fill="#F8F6F8"/>
<path d="M28 23.5617C28 22.1469 29.1469 21 30.5617 21H218.142C219.557 21 220.704 22.1469 220.704 23.5617V30.6065H28V23.5617Z" fill="#487382"/>
<g filter="url(#filter0_d)">
<path d="M40.745 47.5395C40.745 46.1247 41.8919 44.9778 43.3067 44.9778H208.404C209.819 44.9778 210.966 46.1247 210.966 47.5395V122.356C210.966 123.771 209.819 124.918 208.404 124.918H43.3067C41.8919 124.918 40.745 123.771 40.745 122.356V47.5395Z" fill="white"/>
</g>
<g filter="url(#filter1_d)">
<path d="M87.817 38.2919C87.817 37.2308 88.6772 36.3706 89.7383 36.3706H211.075C212.136 36.3706 212.996 37.2308 212.996 38.2919V131.558C212.996 132.619 212.136 133.479 211.075 133.479H89.7383C88.6772 133.479 87.817 132.619 87.817 131.558V38.2919Z" fill="white"/>
</g>
<path d="M95.5022 51.7706C95.5022 49.809 97.0924 48.2188 99.0541 48.2188H158.688C160.65 48.2188 162.24 49.809 162.24 51.7706C162.24 53.7323 160.65 55.3225 158.688 55.3225H99.0541C97.0924 55.3225 95.5022 53.7323 95.5022 51.7706Z" fill="#BDCEDE"/>
<path d="M155.767 87.6054C155.767 86.1906 156.625 85.0437 157.684 85.0437H204.444C205.503 85.0437 206.361 86.1906 206.361 87.6054C206.361 89.0203 205.503 90.1672 204.444 90.1672H157.684C156.625 90.1672 155.767 89.0203 155.767 87.6054Z" fill="#D7F7FA"/>
<path d="M155.767 95.2905C155.767 93.8757 156.625 92.7288 157.682 92.7288H198.362C199.42 92.7288 200.277 93.8757 200.277 95.2905C200.277 96.7053 199.42 97.8522 198.362 97.8522H157.682C156.625 97.8522 155.767 96.7053 155.767 95.2905Z" fill="#D7F7FA"/>
<g clip-path="url(#clip0)">
<path d="M136.419 82.6368C137.441 82.6368 138.27 81.808 138.27 80.7856C138.27 79.7632 137.441 78.9343 136.419 78.9343C135.396 78.9343 134.568 79.7632 134.568 80.7856C134.568 81.808 135.396 82.6368 136.419 82.6368Z" fill="#D7F7FA"/>
<path d="M140.677 65.0499H138.27V63.1987C138.27 62.1762 137.441 61.3474 136.419 61.3474C135.396 61.3474 134.568 62.1762 134.568 63.1987V65.0499H126.144V63.1987C126.144 62.1762 125.315 61.3474 124.293 61.3474C123.271 61.3474 122.442 62.1762 122.442 63.1987V65.0499H114.111V63.1987C114.111 62.1762 113.282 61.3474 112.26 61.3474C111.237 61.3474 110.409 62.1762 110.409 63.1987V65.0499H108.094C104.011 65.0499 100.689 68.3718 100.689 72.455V101.335C100.689 105.418 104.011 108.74 108.094 108.74H122.257C123.279 108.74 124.108 107.911 124.108 106.888C124.108 105.866 123.279 105.037 122.257 105.037H108.094C106.053 105.037 104.392 103.376 104.392 101.335V72.455C104.392 70.4134 106.053 68.7525 108.094 68.7525H110.409V70.6037C110.409 71.6262 111.237 72.455 112.26 72.455C113.282 72.455 114.111 71.6262 114.111 70.6037V68.7525H122.442V70.6037C122.442 71.6262 123.271 72.455 124.293 72.455C125.315 72.455 126.144 71.6262 126.144 70.6037V68.7525H134.568V70.6037C134.568 71.6262 135.396 72.455 136.419 72.455C137.441 72.455 138.27 71.6262 138.27 70.6037V68.7525H140.677C142.718 68.7525 144.379 70.4134 144.379 72.455V83.0072C144.379 84.0296 145.208 84.8584 146.23 84.8584C147.253 84.8584 148.082 84.0296 148.082 83.0072V72.455C148.082 68.3718 144.76 65.0499 140.677 65.0499Z" fill="#3BB3BD"/>
<path d="M136.882 86.3394C130.706 86.3394 125.682 91.3637 125.682 97.5395C125.682 103.715 130.706 108.74 136.882 108.74C143.057 108.74 148.082 103.715 148.082 97.5395C148.082 91.3637 143.057 86.3394 136.882 86.3394ZM136.882 105.037C132.748 105.037 129.384 101.674 129.384 97.5395C129.384 93.4052 132.748 90.0419 136.882 90.0419C141.016 90.0419 144.379 93.4052 144.379 97.5395C144.379 101.674 141.016 105.037 136.882 105.037Z" fill="#3BB3BD"/>
<path d="M139.566 95.6884H138.733V93.7446C138.733 92.7221 137.904 91.8933 136.882 91.8933C135.859 91.8933 135.03 92.7221 135.03 93.7446V97.5397C135.03 98.5621 135.859 99.3909 136.882 99.3909H139.566C140.588 99.3909 141.417 98.5621 141.417 97.5397C141.417 96.5172 140.588 95.6884 139.566 95.6884Z" fill="#3BB3BD"/>
<path d="M128.366 82.6368C129.388 82.6368 130.217 81.808 130.217 80.7856C130.217 79.7632 129.388 78.9343 128.366 78.9343C127.343 78.9343 126.515 79.7632 126.515 80.7856C126.515 81.808 127.343 82.6368 128.366 82.6368Z" fill="#D7F7FA"/>
<path d="M120.313 90.6898C121.335 90.6898 122.164 89.861 122.164 88.8386C122.164 87.8161 121.335 86.9873 120.313 86.9873C119.29 86.9873 118.462 87.8161 118.462 88.8386C118.462 89.861 119.29 90.6898 120.313 90.6898Z" fill="#D7F7FA"/>
<path d="M112.26 82.6368C113.282 82.6368 114.111 81.808 114.111 80.7856C114.111 79.7632 113.282 78.9343 112.26 78.9343C111.237 78.9343 110.409 79.7632 110.409 80.7856C110.409 81.808 111.237 82.6368 112.26 82.6368Z" fill="#D7F7FA"/>
<path d="M112.26 90.6898C113.282 90.6898 114.111 89.861 114.111 88.8386C114.111 87.8161 113.282 86.9873 112.26 86.9873C111.237 86.9873 110.409 87.8161 110.409 88.8386C110.409 89.861 111.237 90.6898 112.26 90.6898Z" fill="#D7F7FA"/>
<path d="M112.26 98.7428C113.282 98.7428 114.111 97.914 114.111 96.8915C114.111 95.8691 113.282 95.0403 112.26 95.0403C111.237 95.0403 110.409 95.8691 110.409 96.8915C110.409 97.914 111.237 98.7428 112.26 98.7428Z" fill="#D7F7FA"/>
<path d="M120.313 98.7428C121.335 98.7428 122.164 97.914 122.164 96.8915C122.164 95.8691 121.335 95.0403 120.313 95.0403C119.29 95.0403 118.462 95.8691 118.462 96.8915C118.462 97.914 119.29 98.7428 120.313 98.7428Z" fill="#D7F7FA"/>
<path d="M120.313 82.6368C121.335 82.6368 122.164 81.808 122.164 80.7856C122.164 79.7632 121.335 78.9343 120.313 78.9343C119.29 78.9343 118.462 79.7632 118.462 80.7856C118.462 81.808 119.29 82.6368 120.313 82.6368Z" fill="#D7F7FA"/>
</g>
<path d="M79.1711 87.2514C79.1711 95.2097 72.6479 101.661 64.6012 101.661C56.5544 101.661 50.0312 95.2097 50.0312 87.2514C50.0312 79.293 56.5544 72.8416 64.6012 72.8416C72.6479 72.8416 79.1711 79.293 79.1711 87.2514Z" fill="#3BB3BD"/>
<path d="M49.0706 50.706C49.0706 51.6787 48.2821 52.4672 47.3094 52.4672C46.3367 52.4672 45.5482 51.6787 45.5482 50.706C45.5482 49.7333 46.3367 48.9448 47.3094 48.9448C48.2821 48.9448 49.0706 49.7333 49.0706 50.706Z" fill="#FF7D66"/>
<path d="M54.8345 50.706C54.8345 51.6787 54.046 52.4672 53.0733 52.4672C52.1006 52.4672 51.3121 51.6787 51.3121 50.706C51.3121 49.7333 52.1006 48.9448 53.0733 48.9448C54.046 48.9448 54.8345 49.7333 54.8345 50.706Z" fill="#FFC74F"/>
<path d="M60.5984 50.706C60.5984 51.6787 59.8099 52.4672 58.8372 52.4672C57.8646 52.4672 57.076 51.6787 57.076 50.706C57.076 49.7333 57.8646 48.9448 58.8372 48.9448C59.8099 48.9448 60.5984 49.7333 60.5984 50.706Z" fill="#25BC5C"/>
<path d="M230 107.235C230 105.448 228.324 104 226.256 104H154.744C152.676 104 151 105.448 151 107.235V121.765C151 123.552 152.676 125 154.744 125H226.256C228.324 125 230 123.552 230 121.765V107.235Z" fill="#E63946"/>
<path d="M170.748 113.12L171.3 111.96C170.716 111.584 169.884 111.328 169.06 111.328C167.708 111.328 166.82 111.992 166.82 113.04C166.82 115.024 169.772 114.448 169.772 115.4C169.772 115.696 169.5 115.856 169.068 115.856C168.484 115.856 167.612 115.504 167.036 115.008L166.468 116.152C167.14 116.704 168.116 117.048 169.052 117.048C170.3 117.048 171.308 116.464 171.308 115.32C171.308 113.304 168.356 113.832 168.356 112.904C168.356 112.648 168.588 112.52 168.94 112.52C169.404 112.52 170.156 112.784 170.748 113.12ZM174.848 114.248L175.88 113.648C175.504 113 174.816 112.624 173.944 112.624C172.6 112.624 171.704 113.512 171.704 114.856C171.704 116.176 172.592 117.048 173.928 117.048C174.848 117.048 175.552 116.672 175.896 116.008L174.848 115.408C174.672 115.744 174.376 115.896 174 115.896C173.488 115.896 173.136 115.48 173.136 114.848C173.136 114.224 173.488 113.8 174 113.8C174.368 113.8 174.656 113.968 174.848 114.248ZM179.444 112.616C178.812 112.616 178.316 112.88 178.012 113.376V111.064H176.588V117H178.012V114.864C178.012 114.296 178.332 113.896 178.86 113.888C179.316 113.888 179.596 114.192 179.596 114.68V117H181.02V114.272C181.02 113.256 180.396 112.616 179.444 112.616ZM183.882 112.624C182.53 112.624 181.626 113.512 181.626 114.856C181.626 116.176 182.498 117.048 183.914 117.048C184.714 117.048 185.362 116.776 185.802 116.28L185.058 115.536C184.77 115.824 184.41 115.976 184.042 115.976C183.554 115.976 183.194 115.704 183.058 115.216H186.066C186.162 113.64 185.394 112.624 183.882 112.624ZM183.026 114.456C183.122 113.96 183.426 113.624 183.89 113.624C184.37 113.624 184.69 113.96 184.69 114.456H183.026ZM189.742 111.064V113.24C189.438 112.848 188.99 112.624 188.43 112.624C187.238 112.624 186.446 113.496 186.446 114.816C186.446 116.16 187.246 117.056 188.462 117.056C189.006 117.056 189.446 116.84 189.742 116.44V117H191.166V111.064H189.742ZM188.814 115.936C188.254 115.936 187.878 115.496 187.878 114.856C187.878 114.216 188.254 113.776 188.814 113.776C189.366 113.776 189.742 114.208 189.742 114.856C189.742 115.496 189.366 115.936 188.814 115.936ZM195.09 112.672V114.808C195.09 115.376 194.786 115.776 194.282 115.784C193.858 115.784 193.586 115.488 193.586 115V112.672H192.162V115.408C192.162 116.416 192.77 117.064 193.706 117.064C194.322 117.056 194.794 116.8 195.09 116.296V117H196.514V112.672H195.09ZM197.643 111.064V117H199.067V111.064H197.643ZM202.1 112.624C200.748 112.624 199.844 113.512 199.844 114.856C199.844 116.176 200.716 117.048 202.132 117.048C202.932 117.048 203.58 116.776 204.02 116.28L203.276 115.536C202.988 115.824 202.628 115.976 202.26 115.976C201.772 115.976 201.412 115.704 201.276 115.216H204.284C204.38 113.64 203.612 112.624 202.1 112.624ZM201.244 114.456C201.34 113.96 201.644 113.624 202.108 113.624C202.588 113.624 202.908 113.96 202.908 114.456H201.244ZM207.415 111.392V117H208.783V113.64L211.327 117H212.607V111.392H211.247V114.768L208.703 111.392H207.415ZM215.712 112.624C214.288 112.624 213.352 113.504 213.352 114.832C213.352 116.168 214.288 117.048 215.712 117.048C217.136 117.048 218.08 116.168 218.08 114.832C218.08 113.504 217.136 112.624 215.712 112.624ZM215.712 113.776C216.272 113.776 216.648 114.208 216.648 114.848C216.648 115.496 216.272 115.928 215.712 115.928C215.16 115.928 214.784 115.496 214.784 114.848C214.784 114.208 215.16 113.776 215.712 113.776ZM218.089 112.672L219.665 117H221.073L221.905 114.328L222.729 117H224.137L225.721 112.672H224.329L223.465 115.6L222.609 112.672H221.249L220.401 115.6L219.537 112.672H218.089Z" fill="white"/>
<g clip-path="url(#clip1)">
<path d="M158.658 117.632L156.253 115.227C156.129 115.103 156.129 114.902 156.253 114.778L156.896 114.135C157.02 114.011 157.221 114.011 157.345 114.135L159.75 116.54C159.874 116.664 159.874 116.864 159.75 116.988L159.106 117.632C158.982 117.755 158.782 117.755 158.658 117.632Z" fill="url(#paint0_linear)"/>
<path d="M158.014 116.54L162.34 112.214C162.464 112.09 162.665 112.09 162.789 112.214L163.432 112.857C163.556 112.981 163.556 113.182 163.432 113.306L159.106 117.632C158.982 117.756 158.782 117.756 158.658 117.632L158.014 116.988C157.89 116.864 157.89 116.663 158.014 116.54Z" fill="url(#paint1_linear)"/>
</g>
<path d="M47.8534 87.2875C47.8534 78.0899 55.3986 70.6338 64.5962 70.6338C73.7938 70.6338 81.339 78.0899 81.339 87.2875C81.339 96.4852 73.7938 103.941 64.5962 103.941C55.3986 103.941 47.8534 96.4852 47.8534 87.2875Z" fill="#D7F7FA"/>
<path fill-rule="evenodd" clip-rule="evenodd" d="M64.5964 77.2546C61.8259 77.2546 59.5799 79.5006 59.5799 82.2712V84.2778C59.5799 87.0484 61.8259 89.2944 64.5964 89.2944C67.367 89.2944 69.613 87.0484 69.613 84.2778V82.2712C69.613 79.5006 67.367 77.2546 64.5964 77.2546ZM64.5964 91.301C61.0734 91.2964 57.6119 92.2241 54.5634 93.9899V97.3208H74.6295V93.9899C71.6798 92.2742 68.2485 91.301 64.5964 91.301Z" fill="#3BB3BD"/>
<defs>
<filter id="filter0_d" x="0.744995" y="8.97778" width="250.221" height="159.94" filterUnits="userSpaceOnUse" color-interpolation-filters="sRGB">
<feFlood flood-opacity="0" result="BackgroundImageFix"/>
<feColorMatrix in="SourceAlpha" type="matrix" values="0 0 0 0 0 0 0 0 0 0 0 0 0 0 0 0 0 0 127 0"/>
<feOffset dy="4"/>
<feGaussianBlur stdDeviation="20"/>
<feColorMatrix type="matrix" values="0 0 0 0 0 0 0 0 0 0 0 0 0 0 0 0 0 0 0.07 0"/>
<feBlend mode="normal" in2="BackgroundImageFix" result="effect1_dropShadow"/>
<feBlend mode="normal" in="SourceGraphic" in2="effect1_dropShadow" result="shape"/>
</filter>
<filter id="filter1_d" x="47.817" y="0.370605" width="205.179" height="177.109" filterUnits="userSpaceOnUse" color-interpolation-filters="sRGB">
<feFlood flood-opacity="0" result="BackgroundImageFix"/>
<feColorMatrix in="SourceAlpha" type="matrix" values="0 0 0 0 0 0 0 0 0 0 0 0 0 0 0 0 0 0 127 0"/>
<feOffset dy="4"/>
<feGaussianBlur stdDeviation="20"/>
<feColorMatrix type="matrix" values="0 0 0 0 0.904152 0 0 0 0 0.904152 0 0 0 0 0.904152 0 0 0 0.54 0"/>
<feBlend mode="normal" in2="BackgroundImageFix" result="effect1_dropShadow"/>
<feBlend mode="normal" in="SourceGraphic" in2="effect1_dropShadow" result="shape"/>
</filter>
<linearGradient id="paint0_linear" x1="159.401" y1="117.283" x2="156.567" y2="114.449" gradientUnits="userSpaceOnUse">
<stop offset="0.108" stop-color="white"/>
<stop offset="0.433" stop-color="white"/>
</linearGradient>
<linearGradient id="paint1_linear" x1="163.111" y1="112.535" x2="158.336" y2="117.31" gradientUnits="userSpaceOnUse">
<stop stop-color="white"/>
<stop offset="1" stop-color="white"/>
</linearGradient>
<clipPath id="clip0">
<rect width="47.3923" height="47.3923" fill="white" transform="translate(100.689 61.3474)"/>
</clipPath>
<clipPath id="clip1">
<rect width="7.68523" height="7.68523" fill="white" transform="translate(156 111)"/>
</clipPath>
</defs>
</svg>
