<svg width="41" height="12" viewBox="0 0 41 12" fill="none" xmlns="http://www.w3.org/2000/svg">
<path d="M21.2042 3.75213C21.1808 5.27835 22.8479 6.12999 24.1037 6.63639C25.3939 7.1559 25.8273 7.48909 25.8222 7.95374C25.8125 8.66476 24.793 8.97859 23.8389 8.99078C22.1744 9.01212 21.2066 8.6189 20.4372 8.32151L19.8376 10.6433C20.6095 10.9377 22.0389 11.1944 23.5212 11.2056C27.0006 11.2056 29.2769 9.78437 29.2892 7.5808C29.3028 4.78415 24.6146 4.62935 24.6466 3.37933C24.6577 3.00029 25.0947 2.59581 26.0525 2.49296C26.5265 2.44101 27.8352 2.40125 29.3188 2.96663L29.9012 0.720243C29.1033 0.479833 28.0778 0.249627 26.801 0.249627C23.5262 0.249627 21.2228 1.69023 21.2042 3.75213ZM35.4967 0.443121C34.8614 0.443121 34.326 0.749796 34.087 1.22041L29.1169 11.0406H32.5937L33.2856 9.45835H37.5342L37.9356 11.0406H41L38.3259 0.443121H35.4967ZM35.9831 3.3059L36.9865 7.28539H34.2385L35.9831 3.3059ZM16.9887 0.443254L14.2481 11.0405H17.5613L20.3006 0.442988H16.9887V0.443254ZM12.0875 0.442988L8.63899 7.65621L7.24403 1.52311C7.08035 0.838459 6.43396 0.443121 5.71614 0.443121H0.078957L0 0.750856C1.15729 0.958663 2.47217 1.29383 3.26879 1.65246C3.7563 1.87153 3.89532 2.06304 4.05548 2.58362L6.69757 11.0406H10.1988L15.5665 0.443121H12.0875" fill="url(#paint0_linear)"/>
<defs>
<linearGradient id="paint0_linear" x1="18.8493" y1="11.4254" x2="19.1118" y2="0.170616" gradientUnits="userSpaceOnUse">
<stop stop-color="#222357"/>
<stop offset="1" stop-color="#254AA5"/>
</linearGradient>
</defs>
</svg>
