<svg width="29" height="23" viewBox="0 0 29 23" fill="none" xmlns="http://www.w3.org/2000/svg">
<g clip-path="url(#clip0)">
<path d="M5.35215 22.5936V21.1375C5.35215 20.5792 5.01594 20.2153 4.43964 20.2153C4.15154 20.2153 3.83939 20.3123 3.62326 20.6278C3.45526 20.3608 3.21519 20.2153 2.85501 20.2153C2.61483 20.2153 2.37486 20.288 2.18269 20.555V20.2638H1.67847V22.5936H2.18269V21.3073C2.18269 20.8948 2.39881 20.7006 2.73503 20.7006C3.07103 20.7006 3.23925 20.919 3.23925 21.3073V22.5936H3.74347V21.3073C3.74347 20.8948 3.98344 20.7006 4.29559 20.7006C4.63181 20.7006 4.79981 20.919 4.79981 21.3073V22.5936H5.35215ZM12.8193 20.2638H12.003V19.56H11.4988V20.2638H11.0426V20.7248H11.4987V21.7927C11.4987 22.3267 11.7148 22.6421 12.2911 22.6421C12.5072 22.6421 12.7472 22.5694 12.9154 22.4723L12.7713 22.0354C12.6272 22.1325 12.4592 22.1568 12.3391 22.1568C12.0991 22.1568 12.003 22.0112 12.003 21.7684V20.7248H12.8193V20.2638ZM17.0932 20.2151C16.8051 20.2151 16.6131 20.3608 16.493 20.555V20.2638H15.9888V22.5936H16.493V21.2831C16.493 20.8948 16.661 20.6764 16.9731 20.6764C17.0692 20.6764 17.1893 20.7007 17.2853 20.7249L17.4293 20.2396C17.3333 20.2153 17.1893 20.2153 17.0932 20.2153V20.2151ZM10.6344 20.4579C10.3942 20.288 10.0581 20.2153 9.69795 20.2153C9.12176 20.2153 8.73764 20.5064 8.73764 20.9676C8.73764 21.3559 9.02573 21.5743 9.52995 21.6471L9.77003 21.6715C10.0342 21.7199 10.1782 21.7927 10.1782 21.9141C10.1782 22.0839 9.98615 22.2053 9.64994 22.2053C9.31383 22.2053 9.04969 22.0839 8.88158 21.9626L8.6415 22.3509C8.90564 22.545 9.26581 22.6421 9.62587 22.6421C10.2982 22.6421 10.6824 22.3267 10.6824 21.8898C10.6824 21.4772 10.3703 21.2588 9.89001 21.186L9.64994 21.1617C9.43381 21.1374 9.26581 21.089 9.26581 20.9434C9.26581 20.7734 9.43381 20.6764 9.69795 20.6764C9.98615 20.6764 10.2742 20.7976 10.4183 20.8705L10.6344 20.4579ZM24.0323 20.2153C23.7441 20.2153 23.552 20.3608 23.432 20.555V20.2638H22.9277V22.5936H23.432V21.2831C23.432 20.8948 23.6001 20.6764 23.9121 20.6764C24.0082 20.6764 24.1283 20.7007 24.2244 20.7249L24.3684 20.2396C24.2724 20.2153 24.1283 20.2153 24.0323 20.2153ZM17.5975 21.4287C17.5975 22.1325 18.0776 22.6421 18.822 22.6421C19.1581 22.6421 19.3982 22.5694 19.6383 22.3752L19.3982 21.9626C19.2061 22.1082 19.0141 22.181 18.798 22.181C18.3898 22.181 18.1017 21.8898 18.1017 21.4287C18.1017 20.9919 18.3898 20.7006 18.798 20.6764C19.0141 20.6764 19.2061 20.7491 19.3982 20.8948L19.6383 20.4822C19.3982 20.288 19.1581 20.2153 18.822 20.2153C18.0776 20.2153 17.5975 20.7249 17.5975 21.4287ZM22.2555 21.4287V20.2638H21.7513V20.555C21.5832 20.3366 21.3431 20.2153 21.031 20.2153C20.3827 20.2153 19.8785 20.7249 19.8785 21.4287C19.8785 22.1325 20.3827 22.6421 21.031 22.6421C21.3671 22.6421 21.6072 22.5208 21.7513 22.3024V22.5936H22.2555V21.4287ZM20.4066 21.4287C20.4066 21.0161 20.6708 20.6764 21.1029 20.6764C21.5111 20.6764 21.7993 20.9919 21.7993 21.4287C21.7993 21.8413 21.5111 22.181 21.1029 22.181C20.6708 22.1567 20.4066 21.8413 20.4066 21.4287ZM14.3801 20.2153C13.7077 20.2153 13.2275 20.7006 13.2275 21.4287C13.2275 22.1568 13.7076 22.6421 14.404 22.6421C14.7401 22.6421 15.0764 22.545 15.3405 22.3267L15.1003 21.9626C14.9082 22.1082 14.6682 22.2053 14.4281 22.2053C14.1159 22.2053 13.8038 22.0597 13.7317 21.647H15.4365V21.453C15.4606 20.7006 15.0283 20.2153 14.38 20.2153H14.3801ZM14.3801 20.652C14.6921 20.652 14.9084 20.8463 14.9563 21.2103H13.7558C13.8038 20.8948 14.0199 20.652 14.3801 20.652ZM26.8895 21.4287V19.3416H26.3853V20.555C26.2172 20.3366 25.9771 20.2153 25.665 20.2153C25.0167 20.2153 24.5125 20.7249 24.5125 21.4287C24.5125 22.1325 25.0167 22.6421 25.665 22.6421C26.0012 22.6421 26.2412 22.5208 26.3853 22.3024V22.5936H26.8895V21.4287ZM25.0407 21.4287C25.0407 21.0161 25.3048 20.6764 25.737 20.6764C26.1452 20.6764 26.4333 20.9919 26.4333 21.4287C26.4333 21.8413 26.1452 22.181 25.737 22.181C25.3048 22.1567 25.0407 21.8413 25.0407 21.4287ZM8.1853 21.4287V20.2638H7.68108V20.555C7.51297 20.3366 7.27289 20.2153 6.96073 20.2153C6.31247 20.2153 5.80825 20.7249 5.80825 21.4287C5.80825 22.1325 6.31247 22.6421 6.96073 22.6421C7.29695 22.6421 7.53703 22.5208 7.68108 22.3024V22.5936H8.1853V21.4287ZM6.31247 21.4287C6.31247 21.0161 6.57661 20.6764 7.00875 20.6764C7.41694 20.6764 7.70514 20.9919 7.70514 21.4287C7.70514 21.8413 7.41694 22.181 7.00875 22.181C6.57661 22.1567 6.31247 21.8413 6.31247 21.4287Z" fill="#070D1D"/>
<path d="M10.4656 2.57196H18.0289V16.3083H10.4656V2.57196Z" fill="#FF5F00"/>
<path d="M10.9465 9.44C10.9465 6.64909 12.243 4.1736 14.2358 2.5718C12.7713 1.4069 10.9225 0.703125 8.90562 0.703125C4.12736 0.703125 0.261719 4.61039 0.261719 9.44C0.261719 14.2695 4.12736 18.1769 8.90552 18.1769C10.9224 18.1769 12.7712 17.4731 14.2358 16.3081C12.243 14.7306 10.9465 12.2309 10.9465 9.44Z" fill="#EB001B"/>
<path d="M28.2343 9.44C28.2343 14.2695 24.3687 18.1769 19.5905 18.1769C17.5737 18.1769 15.7249 17.4731 14.2603 16.3081C16.2771 14.7064 17.5497 12.2309 17.5497 9.44C17.5497 6.64909 16.2531 4.1736 14.2603 2.5718C15.7248 1.4069 17.5737 0.703125 19.5905 0.703125C24.3687 0.703125 28.2344 4.63471 28.2344 9.44H28.2343Z" fill="#F79E1B"/>
</g>
<defs>
<clipPath id="clip0">
<rect width="28" height="22" fill="white" transform="translate(0.261719 0.703125)"/>
</clipPath>
</defs>
</svg>
