<svg width="382" height="400" viewBox="0 0 382 400" fill="none" xmlns="http://www.w3.org/2000/svg">
<path fill-rule="evenodd" clip-rule="evenodd" d="M185.232 89.4901C180.6 84.0814 177.465 77.4529 177.989 70.0255C179.498 48.625 209.445 53.3328 215.27 64.1339C221.096 74.9351 220.403 102.333 212.875 104.263C209.872 105.033 203.476 103.147 196.967 99.2443L201.053 128H176.926L185.232 89.4901Z" fill="#B28B67"/>
<path fill-rule="evenodd" clip-rule="evenodd" d="M201.519 51.6853C198.339 51.1665 189.777 50.8099 188.199 50.8101C187.189 50.8101 186.096 51.0395 185.498 50.1178C185.009 49.3631 185.188 48.0867 185.042 47.2109C184.873 46.1935 184.632 45.1892 184.388 44.1874C183.695 41.3369 182.646 38.625 181.179 36.0788C178.427 31.3019 174.394 27.5601 169.303 25.3828C163.681 22.9787 157.32 22.4282 151.272 22.9158C144.801 23.4375 138.943 25.5626 132.833 27.5624C127.011 29.4681 120.913 30.2182 114.823 29.2876C108.687 28.35 104.051 25.042 98.8763 21.9023C93.5783 18.688 87.5238 16.5857 81.2607 17.069C75.4143 17.5203 70.0259 19.9216 65.1915 23.1295C60.6684 26.1308 56.9362 29.7418 54.8291 34.824C52.5624 40.2909 52.5645 46.2918 56.292 51.1233C61.6949 58.1265 71.7253 59.9376 80.0701 59.7575C84.8969 59.6537 89.6374 58.7772 94.1944 57.1828C100.272 55.0564 105.524 51.4523 111.209 48.528C113.877 47.1558 116.635 46.0288 119.526 45.217C122.332 44.4289 125.095 44.0675 127.635 45.7533C130.321 47.5367 132.729 49.2885 135.803 50.4049C138.752 51.476 141.875 52.075 145.017 52.0509C151.13 52.0039 157.155 50.1093 163.092 48.8402C167.934 47.8056 173.114 46.7743 178.049 47.769C180.109 48.1841 183.117 49.041 183.861 51.1702C171.341 53.4274 166.424 68.8302 169.953 80.1372C171.858 86.24 183.309 93.3742 187.762 90.1658C190.582 88.1333 188.87 85.4648 187.762 83.7033C185.639 80.3299 184.913 75.9967 188.84 73.648C192.228 71.6224 195.79 76.4327 195.857 76.4274C196.788 76.3544 204.833 71.8285 210.375 65.2241C215.843 65.5466 216.673 61.96 215.367 59.0269C214.062 56.0938 205.912 52.4024 201.519 51.6853Z" fill="#191847"/>
<path d="M166.874 385C209.623 385 244.279 352.093 244.279 311.5C244.279 270.907 209.623 238 166.874 238C124.124 238 89.4683 270.907 89.4683 311.5C89.4683 352.093 124.124 385 166.874 385Z" fill="#E9A3C2"/>
<path fill-rule="evenodd" clip-rule="evenodd" d="M313.148 373.66C300.268 345.301 290.953 320.608 287.214 307.58C280.812 285.272 275.942 265.643 274.711 258.313C271.776 240.832 297.291 239.814 300.664 248.502C305.769 261.651 314.68 304.853 325.388 370.107L313.148 373.66ZM163.745 284.663C175.563 280.017 216.947 265.475 236.907 261.361C242.643 260.179 248.202 259.081 253.429 258.088C268.964 255.138 277.013 283.017 262.05 285.159C224.788 290.494 171.963 296.003 167.442 296.621C161.106 297.488 156.318 287.584 163.745 284.663Z" fill="#B28B67"/>
<path fill-rule="evenodd" clip-rule="evenodd" d="M262.964 250.416L199.042 218.047V211H206.644C268.485 226.676 300.086 236.722 301.447 241.138C301.461 241.185 301.475 241.233 301.487 241.281C301.518 241.321 301.549 241.362 301.579 241.403C313.835 258.17 321.174 340.027 323.583 346.156L300.099 349.641C291.115 316.503 262.374 293.418 263.137 253.729C262.931 252.565 262.879 251.461 262.964 250.416Z" fill="#1F28CF"/>
<path fill-rule="evenodd" clip-rule="evenodd" d="M204.353 269.64C198.504 268.476 193.118 267.436 188.51 266.632C158.74 261.438 150.059 245.586 155.192 211L210.041 211C219.001 213.56 265.564 232.985 289.723 243.316C305.713 250.154 300.673 274.804 291.618 281.219C291.568 281.613 291.406 281.88 291.115 282C242.406 302.083 203.872 291.545 191 294.912L185.046 276.228L204.353 269.64Z" fill="#2B44FF"/>
<path fill-rule="evenodd" clip-rule="evenodd" d="M167.763 281.687C164.576 281.987 162.313 282.461 160.976 283.109C159.35 283.897 157.109 285.318 154.255 287.37C155.178 289.252 163.474 306.157 179.144 338.088C184.16 337.288 186.146 335.384 185.101 332.375C184.056 329.367 183.213 326.855 182.572 324.841L181.543 296.159C181.524 295.607 181.058 295.174 180.504 295.192C180.495 295.193 180.485 295.193 180.476 295.194L176.046 295.465C173.526 293.433 171.862 291.595 171.056 289.952C170.401 288.616 170.037 286.51 169.964 283.633L169.964 283.633C169.936 282.529 169.014 281.654 167.906 281.679C167.858 281.68 167.81 281.683 167.763 281.687Z" fill="#E4E4E4"/>
<path fill-rule="evenodd" clip-rule="evenodd" d="M307.287 368.402C306.162 371.388 305.6 373.623 305.6 375.106C305.6 376.909 305.902 379.54 306.506 383C308.609 383 327.508 383 363.204 383C364.678 378.155 363.827 375.539 360.653 375.152C357.478 374.766 354.841 374.417 352.741 374.106L326.388 362.419C325.881 362.194 325.287 362.421 325.061 362.925C325.057 362.934 325.053 362.942 325.05 362.951L323.356 367.039C320.417 368.403 318.029 369.085 316.192 369.085C314.699 369.085 312.637 368.485 310.007 367.286L310.007 367.285C308.998 366.825 307.804 367.266 307.342 368.27C307.322 368.313 307.303 368.357 307.287 368.402Z" fill="#E4E4E4"/>
<path fill-rule="evenodd" clip-rule="evenodd" d="M261.368 183.617L297.794 167.704C304.175 161.379 310.336 156.572 316.279 153.282C318.056 152.719 321.091 152.549 317.852 157.255C314.614 161.961 311.419 167.056 312.714 168.705C314.008 170.355 317.757 168.534 319.238 171.216C320.225 173.004 313.906 175.143 300.28 177.633L272.999 198.439L261.368 183.617ZM114.106 188L134.705 192.066C113.989 230.471 102.879 250.826 101.376 253.13C97.9935 258.315 101.149 267.817 102.315 272.821C95.0019 274.515 97.886 263.565 88.6313 265.851C80.184 267.938 73.0217 273.293 65.145 266.071C64.1766 265.183 63.4677 262.407 66.7695 260.984C74.9953 257.437 87.1484 250.796 89.119 248.218C91.8063 244.702 100.135 224.63 114.106 188Z" fill="#B28B67"/>
<path fill-rule="evenodd" clip-rule="evenodd" d="M190.694 111.332L199.386 109.849C218.32 128.119 226.046 172.012 238.664 177.823C250.593 183.316 267.504 178 287.606 170.823L293.762 184.505C275.498 204.161 236.588 220.767 220.816 211.287C195.601 196.13 189.78 141.994 190.694 111.332Z" fill="#FB1E2F"/>
<path fill-rule="evenodd" clip-rule="evenodd" d="M152.8 220C187.655 220 213.293 220 229.714 220C233.229 220 232.567 214.952 232.059 212.404C226.195 183.004 203.306 151.312 203.306 109.461L181.12 106C162.77 135.358 156.424 171.505 152.8 220Z" fill="#DDE3E9"/>
<path fill-rule="evenodd" clip-rule="evenodd" d="M145.129 190.233C129.449 218.368 116.27 238.623 105.591 251L89.4688 247.859C99.8537 183.791 129.927 136.504 179.689 106L179.942 106L188.473 106C208.39 173.537 213.881 218.537 204.946 241H135.711C136.806 224.563 140.318 207.181 145.129 190.233H145.129Z" fill="#E63946"/>
</svg>
