<svg width="380" height="503" viewBox="0 0 380 503" fill="none" xmlns="http://www.w3.org/2000/svg">
<path fill-rule="evenodd" clip-rule="evenodd" d="M170.576 234.324C174.531 229.681 177.209 223.991 176.761 217.615C175.472 199.244 149.899 203.286 144.925 212.558C139.95 221.83 140.542 245.349 146.971 247.006C149.535 247.667 154.996 246.048 160.555 242.698L157.066 267.382H177.668L170.576 234.324Z" fill="#B28B67"/>
<path fill-rule="evenodd" clip-rule="evenodd" d="M164.165 224.347C164.839 223.884 165.644 223.602 166.509 223.602C168.879 223.602 170.801 225.716 170.801 227.895C170.801 230.161 169.731 231.913 168.203 232.656C169.019 234.252 169.839 235.41 170.801 235.62C174.511 235.245 179.385 226.024 179.385 218.452C179.385 210.164 172.791 203 160.5 203C149.452 203 145.264 207.555 145.048 211.584C149.782 212.885 158.054 213.386 169.942 213.301V214.16L159.641 215.018L157.924 220.169C160.656 219.965 162.608 221.838 164.165 224.347Z" fill="#191847"/>
<path d="M186.253 488C149.747 488 120.154 459.752 120.154 424.905C120.154 390.059 149.747 361.81 186.253 361.81C222.759 361.81 252.353 390.059 252.353 424.905C252.353 459.752 222.759 488 186.253 488Z" fill="#DAD1A8"/>
<path fill-rule="evenodd" clip-rule="evenodd" d="M61.3433 478.265C72.3422 453.921 80.2965 432.724 83.4893 421.54C88.9562 402.391 93.1151 385.54 94.1663 379.247C96.6728 364.241 74.8842 363.368 72.0042 370.825C67.6451 382.113 60.0353 419.199 50.8915 475.216L61.3433 478.265ZM188.924 401.868C178.833 397.879 143.493 385.396 126.449 381.864C121.551 380.849 116.804 379.907 112.34 379.055C99.0742 376.522 92.2011 400.455 104.978 402.293C136.798 406.873 181.907 411.602 185.768 412.133C191.178 412.877 195.267 404.375 188.924 401.868Z" fill="#B28B67"/>
<path fill-rule="evenodd" clip-rule="evenodd" d="M104.198 372.469L158.783 344.682V338.633H152.292C99.4827 352.089 72.4974 360.713 71.3357 364.504C71.3232 364.545 71.3118 364.586 71.3013 364.626C71.2748 364.661 71.2486 364.696 71.223 364.732C60.7574 379.125 54.4896 449.394 52.4324 454.655L72.4868 457.647C80.1582 429.2 104.702 409.383 104.05 375.313C104.226 374.313 104.27 373.365 104.198 372.469Z" fill="#1F28CF"/>
<path fill-rule="evenodd" clip-rule="evenodd" d="M154.248 388.972C159.242 387.972 163.842 387.079 167.777 386.389C193.198 381.93 200.611 368.323 196.228 338.633L149.39 338.633C141.739 340.83 101.977 357.505 81.3467 366.374C67.6924 372.244 71.9967 393.404 79.7291 398.911C79.7711 399.249 79.9102 399.479 80.1581 399.581C121.753 416.821 154.658 407.775 165.651 410.666L170.735 394.627L154.248 388.972Z" fill="#2B44FF"/>
<path fill-rule="evenodd" clip-rule="evenodd" d="M185.474 399.318C188.199 399.579 190.134 399.988 191.278 400.546C192.669 401.225 194.587 402.447 197.03 404.212C196.243 405.827 189.168 420.332 175.805 447.73C171.515 447.037 169.815 445.4 170.705 442.818C171.595 440.236 172.313 438.081 172.859 436.352L173.707 411.728C173.724 411.254 174.121 410.883 174.595 410.9C174.603 410.9 174.611 410.9 174.619 410.901L178.407 411.139C180.559 409.397 181.98 407.82 182.667 406.41C183.226 405.265 183.535 403.457 183.594 400.986L183.594 400.986C183.617 400.038 184.404 399.288 185.352 399.311C185.393 399.312 185.433 399.315 185.474 399.318Z" fill="#E4E4E4"/>
<path fill-rule="evenodd" clip-rule="evenodd" d="M66.3485 473.752C67.3089 476.315 67.7891 478.234 67.7891 479.506C67.7891 481.054 67.5312 483.313 67.0154 486.283C65.2196 486.283 49.0805 486.283 18.5982 486.283C17.34 482.124 18.0663 479.878 20.7771 479.546C23.4879 479.215 25.7398 478.915 27.5328 478.648L50.0367 468.616C50.4697 468.423 50.9772 468.617 51.1702 469.05C51.1735 469.058 51.1767 469.065 51.1798 469.072L52.6264 472.581C55.1358 473.752 57.1751 474.338 58.744 474.338C60.0188 474.338 61.7792 473.823 64.0253 472.793L64.0253 472.793C64.8872 472.398 65.9063 472.777 66.3014 473.638C66.3185 473.676 66.3342 473.713 66.3485 473.752Z" fill="#E4E4E4"/>
<path fill-rule="evenodd" clip-rule="evenodd" d="M107.372 321.577L79.9893 341.684C72.5626 343.688 66.3578 346.182 61.375 349.164C60.1979 350.237 58.7754 352.409 63.6568 352.033C68.5383 351.658 73.6897 351.483 74.3632 353.148C75.0368 354.813 72.0828 356.804 73.4443 359.05C74.352 360.548 78.6403 356.793 86.3091 347.784L113.425 336.54L107.372 321.577ZM231.287 313.201L216.169 315.939C233.715 350.758 243.113 369.168 244.363 371.169C247.174 375.672 244.336 383.785 243.265 388.065C249.486 389.628 247.187 380.182 255.057 382.283C262.24 384.201 268.277 388.907 275.112 382.822C275.952 382.074 276.599 379.701 273.801 378.429C266.829 375.261 256.549 369.377 254.904 367.133C252.662 364.074 244.79 346.097 231.287 313.201Z" fill="#B28B67"/>
<path fill-rule="evenodd" clip-rule="evenodd" d="M100.993 323.762C97.4699 323.51 93.6377 324.093 89.529 325.478C87.5072 326.159 86.4204 328.35 87.1017 330.372C87.4973 331.546 88.4023 332.405 89.4876 332.785C88.7014 333.359 87.9083 333.929 87.1081 334.496L94.0161 348.598C123.085 334.105 150.407 323.177 162.857 299.249C167.036 291.218 165.622 263.939 166.021 254.014L156.84 250.249C144.042 276.703 126.722 302.083 100.993 323.762Z" fill="#69A1AC"/>
<path fill-rule="evenodd" clip-rule="evenodd" d="M198.271 346.281C171.283 349.246 150.041 349.246 134.544 346.281C132.624 345.914 132.708 337.637 133.599 335.377C147.464 300.176 156.585 274.408 156.585 249.958C159.129 251.287 163.582 251.487 169.943 250.556C187.037 275.752 194.895 304.661 198.271 346.281Z" fill="#191847"/>
<path fill-rule="evenodd" clip-rule="evenodd" d="M203.285 350.443C204.202 349.58 204.68 348.287 204.445 346.956L203.998 344.419C203.695 342.701 202.299 341.449 200.651 341.253C200.363 339.965 200.114 338.686 199.909 337.416C198.176 326.689 201.137 316.171 200.998 305.842C214.802 317.619 227.185 337.955 238.147 366.85L254.36 362.079C253.741 359.781 253.1 357.511 252.438 355.269C254.309 354.206 256.496 349.334 254.922 348.518C253.296 347.676 251.575 347.083 249.761 346.735C234.896 301.959 210.585 269.213 176.831 248.497H172.194L167.068 248.497C169.943 286.509 130.24 369.497 144.026 440.372C169.507 446.063 205.884 428.358 241.293 442.503C239.976 413.961 213.583 380.43 203.285 350.443V350.443Z" fill="#89C5CC"/>
<path fill-rule="evenodd" clip-rule="evenodd" d="M173.286 249.355L177.714 262.975L168.796 273.185L176.856 281.208L157.356 314.596L181.202 281.275L173.286 273.185L181.202 264.162L173.286 249.355Z" fill="black" fill-opacity="0.1"/>
<path fill-rule="evenodd" clip-rule="evenodd" d="M163.075 327.473C164.971 327.473 166.509 325.935 166.509 324.039C166.509 322.143 164.971 320.605 163.075 320.605C161.179 320.605 159.641 322.143 159.641 324.039C159.641 325.935 161.179 327.473 163.075 327.473ZM158.783 347.217C160.679 347.217 162.217 345.679 162.217 343.783C162.217 341.887 160.679 340.349 158.783 340.349C156.886 340.349 155.349 341.887 155.349 343.783C155.349 345.679 156.886 347.217 158.783 347.217ZM157.924 366.961C159.821 366.961 161.358 365.423 161.358 363.527C161.358 361.631 159.821 360.093 157.924 360.093C156.028 360.093 154.491 361.631 154.491 363.527C154.491 365.423 156.028 366.961 157.924 366.961Z" fill="black" fill-opacity="0.4"/>
<path d="M217 106C246.271 106 270 82.2711 270 53C270 23.7289 246.271 0 217 0C187.729 0 164 23.7289 164 53C164 82.2711 187.729 106 217 106Z" fill="#F2F2F2"/>
<path d="M217 14C218.657 14 220 12.6569 220 11C220 9.34315 218.657 8 217 8C215.343 8 214 9.34315 214 11C214 12.6569 215.343 14 217 14Z" fill="black" fill-opacity="0.1"/>
<path d="M175 56C176.657 56 178 54.6569 178 53C178 51.3431 176.657 50 175 50C173.343 50 172 51.3431 172 53C172 54.6569 173.343 56 175 56Z" fill="black" fill-opacity="0.1"/>
<path d="M259 56C260.657 56 262 54.6569 262 53C262 51.3431 260.657 50 259 50C257.343 50 256 51.3431 256 53C256 54.6569 257.343 56 259 56Z" fill="black" fill-opacity="0.1"/>
<path d="M217 98C218.657 98 220 96.6569 220 95C220 93.3431 218.657 92 217 92C215.343 92 214 93.3431 214 95C214 96.6569 215.343 98 217 98Z" fill="black" fill-opacity="0.1"/>
<path fill-rule="evenodd" clip-rule="evenodd" d="M217 17L219 52H215L217 17Z" fill="#AFB9C5"/>
<path fill-rule="evenodd" clip-rule="evenodd" d="M234.699 70.6984L216.314 55.142L219.142 52.3136L234.699 70.6984Z" fill="#AFB9C5"/>
<path d="M217 57C219.209 57 221 55.2091 221 53C221 50.7909 219.209 49 217 49C214.791 49 213 50.7909 213 53C213 55.2091 214.791 57 217 57Z" fill="#C5CFD6"/>
</svg>
