<svg width="50" height="49" viewBox="0 0 50 49" fill="none" xmlns="http://www.w3.org/2000/svg">
<g clip-path="url(#clip0)">
<path d="M45.8333 0H18.3333C16.0333 0.0027 14.1694 1.82929 14.1667 4.08333V16.375C8.52926 16.8048 4.17572 21.4086 4.16667 26.95V37.6483C2.22799 38.0391 0.835839 39.7103 0.83334 41.65C0.835594 41.9182 0.865467 42.1855 0.922507 42.4479C0.32891 43.0546 -0.00173365 43.863 6.83659e-06 44.7035V46.55C6.83659e-06 47.9031 1.1193 49 2.50001 49H27.5C28.8807 49 30 47.9031 30 46.55V44.7035C30.0016 43.8633 29.671 43.0551 29.0775 42.4487C29.1346 42.1861 29.1644 41.9185 29.1667 41.65C29.1642 39.7103 27.772 38.0391 25.8333 37.6483V34.3H45.8333C48.1334 34.2973 49.9973 32.4707 50 30.2167V4.08333C49.9973 1.82929 48.1334 0.0027 45.8333 0V0ZM15 17.9667C20.0601 17.9725 24.1607 21.9911 24.1667 26.95V30.1595C18.8108 29.6295 15.7392 24.9328 15.7075 24.8847C15.5553 24.6453 15.2878 24.4999 15 24.5C14.7124 24.5004 14.4452 24.6461 14.2933 24.8855C14.2617 24.9345 11.21 29.6303 5.83417 30.1595V26.95C5.84014 21.9914 9.9402 17.973 15 17.9667ZM40 29.4H35V27.7667H40V29.4ZM40 26.1333H35C34.0795 26.1333 33.3333 26.8646 33.3333 27.7667V29.4H25.8333V26.95C25.8293 22.6652 23.201 18.8016 19.1667 17.15V5.71667C19.1667 5.26563 19.5398 4.9 20 4.9H44.1667C44.6269 4.9 45 5.26563 45 5.71667V28.5833C45 29.0344 44.6269 29.4 44.1667 29.4H41.6667V27.7667C41.6667 26.8646 40.9205 26.1333 40 26.1333ZM11.6667 40.1588C12.5743 41.0102 13.749 41.5358 15 41.65C16.2494 41.5041 17.4179 40.9687 18.3333 40.1228V41.5112C18.1792 41.886 17.44 43.2833 15 43.2833C12.56 43.2833 11.815 41.8738 11.6667 41.5136V40.1588ZM15 40.0167C14.1075 40.0167 12.7292 39.0726 11.475 37.7186C11.4479 37.6822 11.4175 37.6483 11.3842 37.6173C9.88418 35.9636 8.58334 33.7349 8.55834 31.8418C8.55834 31.6948 8.55334 31.4907 8.54501 31.2628C11.091 30.3682 13.3282 28.7886 15 26.705C16.6877 28.809 18.9527 30.3978 21.5292 31.2849C21.5208 31.5013 21.5167 31.6932 21.5167 31.8312C21.4642 35.2596 16.9542 40.0167 15 40.0167ZM4.19584 39.3413C4.26035 39.7283 4.59991 40.0134 5.00001 40.0167C5.46024 40.0167 5.83334 39.651 5.83334 39.2V31.8067C6.19417 31.7765 6.54751 31.7348 6.88917 31.676V31.8524C6.91667 33.7912 8.25001 36.4429 10 38.5009V40.8962L3.03167 41.4507C2.85577 41.4687 2.6816 41.5004 2.51084 41.5455C2.55578 40.5408 3.22462 39.6659 4.19584 39.3413ZM28.3333 46.55C28.3333 47.001 27.9602 47.3667 27.5 47.3667H2.50001C2.03977 47.3667 1.66667 47.001 1.66667 46.55V44.7035C1.66195 43.8599 2.3176 43.1535 3.17501 43.0784L10.3142 42.5067C10.8108 43.4067 12.0775 44.9167 15 44.9167C17.9225 44.9167 19.1892 43.4067 19.6858 42.5108L26.8175 43.0775C27.6776 43.1502 28.337 43.8575 28.3333 44.7035V46.55ZM27.4892 41.5463C27.3159 41.5007 27.1393 41.4685 26.9608 41.4499L20 40.8962V38.5377C21.75 36.5867 23.15 34.0387 23.1833 31.841C23.1833 31.7961 23.1833 31.7406 23.1833 31.6859C23.5025 31.7389 23.83 31.7781 24.165 31.8059V39.2C24.165 39.651 24.5381 40.0167 24.9983 40.0167C25.3984 40.0134 25.738 39.7283 25.8025 39.3413C26.7745 39.6656 27.4441 40.541 27.4892 41.5463ZM48.3333 30.2167C48.3333 31.5698 47.2141 32.6667 45.8333 32.6667H25.8333V31.0333H44.1667C45.5474 31.0333 46.6667 29.9364 46.6667 28.5833V5.71667C46.6667 4.36357 45.5474 3.26667 44.1667 3.26667H20C18.6193 3.26667 17.5 4.36357 17.5 5.71667V16.6298C16.9521 16.5023 16.3948 16.4171 15.8333 16.375V4.08333C15.8333 2.73024 16.9526 1.63333 18.3333 1.63333H45.8333C47.2141 1.63333 48.3333 2.73024 48.3333 4.08333V30.2167Z" fill="#3C6A7A"/>
<path d="M25.0002 8.9833C24.107 8.98475 23.2819 9.45126 22.8335 10.2083C22.6201 10.597 22.7605 11.0816 23.1505 11.3025C23.5405 11.5233 24.039 11.4004 24.276 11.025C24.4781 10.682 24.9021 10.5305 25.282 10.6656C25.6618 10.8007 25.8881 11.1834 25.8187 11.5735C25.7493 11.9637 25.4043 12.2488 25.0002 12.25C24.54 12.25 24.1669 12.6156 24.1669 13.0666C24.1669 13.5177 24.54 13.8833 25.0002 13.8833C25.4045 13.8837 25.7502 14.1684 25.8202 14.5587C25.8901 14.9489 25.6641 15.3321 25.2842 15.4675C24.9042 15.6029 24.4799 15.4514 24.2777 15.1083C24.0407 14.7329 23.5422 14.61 23.1522 14.8308C22.7621 15.0516 22.6217 15.5362 22.8352 15.925C23.401 16.8852 24.5543 17.3534 25.6473 17.0664C26.7402 16.7794 27.5002 15.8088 27.5002 14.7C27.498 14.0953 27.2663 13.5131 26.8502 13.0666C27.5161 12.3513 27.6872 11.3177 27.2862 10.4328C26.8853 9.54781 25.9882 8.97902 25.0002 8.9833Z" fill="#3C6A7A"/>
<path d="M35.0001 12.2499H33.3334V10.6166C33.3334 10.1656 32.9603 9.79993 32.5001 9.79993C32.0398 9.79993 31.6667 10.1656 31.6667 10.6166V12.2499H30.0001C29.5398 12.2499 29.1667 12.6156 29.1667 13.0666C29.1667 13.5176 29.5398 13.8833 30.0001 13.8833H31.6667V15.5166C31.6667 15.9676 32.0398 16.3333 32.5001 16.3333C32.9603 16.3333 33.3334 15.9676 33.3334 15.5166V13.8833H35.0001C35.4603 13.8833 35.8334 13.5176 35.8334 13.0666C35.8334 12.6156 35.4603 12.2499 35.0001 12.2499Z" fill="#3C6A7A"/>
<path d="M42.5001 16.3334C42.5001 15.8824 42.127 15.5167 41.6668 15.5167H40.8335V9.80007C40.8335 9.34903 40.4604 8.9834 40.0001 8.9834H38.3335C37.8732 8.9834 37.5001 9.34903 37.5001 9.80007C37.5001 10.2511 37.8732 10.6167 38.3335 10.6167H39.1668V15.5167H38.3335C37.8732 15.5167 37.5001 15.8824 37.5001 16.3334C37.5001 16.7844 37.8732 17.1501 38.3335 17.1501H41.6668C42.127 17.1501 42.5001 16.7844 42.5001 16.3334Z" fill="#3C6A7A"/>
<path d="M18.2654 1.60741C16.4969 1.63808 15.8184 3.01965 15.8184 3.79037L15.8236 10.0908L15.8237 16.3876C16.2472 16.3876 17.1505 16.5934 17.5298 16.6972C17.4972 13.8509 17.4517 7.69885 17.5298 5.86186C17.6079 4.02486 18.9291 3.40615 19.58 3.32642C26.7232 3.27859 41.6051 3.21161 43.9873 3.32642C46.3695 3.44124 46.5882 5.07865 46.5882 6.00537V29.1784C46.0162 30.7271 45.0886 30.8678 44.5534 30.949L44.538 30.9514L25.7996 31.0309V32.6531H45.1932C47.5058 32.9344 48.2934 31.254 48.3489 30.3564C48.3304 22.6862 48.3128 6.76473 48.3572 4.50174C48.4016 2.23875 46.8886 1.62308 45.9691 1.62308C37.4777 1.6103 20.0339 1.57673 18.2654 1.60741Z" fill="#3C6A7A"/>
</g>
<defs>
<clipPath id="clip0">
<rect width="50" height="49" fill="white"/>
</clipPath>
</defs>
</svg>
