<svg xmlns="http://www.w3.org/2000/svg" viewBox="0 0 777 141" width="777" height="141">
	<defs>
		<linearGradient id="grd1" gradientUnits="userSpaceOnUse"  x1="215.586" y1="0.2" x2="215.586" y2="140.589">
			<stop offset="0" stop-color="#41bdc1"  />
			<stop offset="1" stop-color="#326c7c"  />
		</linearGradient>
	</defs>
	<style>
		tspan { white-space:pre }
		.shp0 { fill: url(#grd1) } 
		.shp1 { fill: #ffffff } 
	</style>
	<g id="Layer 1">
		<path id="&lt;Compound Path&gt;" fill-rule="evenodd" class="shp0" d="M0 110.35L0 30.44C0 28.41 1.66 26.75 3.69 26.75L7.75 26.75L7.75 114.04L3.69 114.04C1.66 114.04 0 112.38 0 110.35ZM15.83 119.1L15.83 21.69C15.83 19.21 17.85 17.19 20.33 17.19L25.27 17.19L25.27 123.6L20.33 123.6C17.85 123.6 15.83 121.58 15.83 119.1ZM207.9 114.04L203.83 114.04L203.83 26.75L207.9 26.75C209.93 26.75 211.59 28.41 211.59 30.44L211.59 110.35C211.59 112.38 209.93 114.04 207.9 114.04ZM191.26 123.6L186.31 123.6L186.31 17.19L191.26 17.19C193.74 17.19 195.76 19.21 195.76 21.69L195.76 119.1C195.76 121.58 193.74 123.6 191.26 123.6ZM178.24 12.57L178.24 128.22C178.24 131.62 176.85 134.72 174.61 136.96C172.37 139.2 169.27 140.59 165.86 140.59L45.72 140.59C42.32 140.59 39.22 139.2 36.98 136.96C34.74 134.72 33.35 131.62 33.35 128.22L33.35 12.57C33.35 9.17 34.74 6.07 36.98 3.83C39.22 1.59 42.32 0.2 45.72 0.2L165.86 0.2C169.27 0.2 172.37 1.59 174.61 3.83C176.85 6.07 178.24 9.17 178.24 12.57Z" />
		<path id="&lt;Path&gt;" class="shp1" d="M133.1 33.4C133.81 32.25 134.68 31.36 135.7 30.75C136.77 30.11 137.95 29.79 139.24 29.79C141.01 29.79 142.53 30.45 143.78 31.77C144.4 32.42 144.87 33.19 145.18 34.07C145.47 34.9 145.62 35.8 145.62 36.76L145.62 104.39C145.62 106.42 144.94 108.04 143.6 109.26C142.96 109.84 142.25 110.27 141.47 110.56C140.68 110.85 139.86 111 139 111C137.24 111 135.7 110.43 134.38 109.29C133.67 108.68 133.13 107.94 132.78 107.08C132.44 106.26 132.27 105.36 132.27 104.39L132.27 59.11L111.88 90.99C111.17 92.14 110.32 93.02 109.33 93.63C108.28 94.28 107.12 94.61 105.85 94.61C104.6 94.61 103.44 94.29 102.37 93.65C101.36 93.04 100.49 92.18 99.74 91.06L99.72 91.03L79.32 59.32L79.32 104.39C79.32 105.34 79.16 106.23 78.83 107.04C78.49 107.91 77.98 108.65 77.3 109.27L77.29 109.26C76.66 109.84 75.95 110.27 75.17 110.56C74.38 110.85 73.56 111 72.71 111C70.94 111 69.4 110.43 68.09 109.29C67.37 108.68 66.84 107.94 66.48 107.08C66.14 106.26 65.97 105.36 65.97 104.39L65.97 36.89C65.97 34.84 66.6 33.15 67.87 31.83C68.49 31.17 69.19 30.67 69.96 30.32C70.75 29.97 71.59 29.79 72.46 29.79C73.03 29.79 73.61 29.88 74.21 30.06C74.76 30.23 75.3 30.47 75.82 30.79C76.37 31.13 76.86 31.54 77.31 32.03C77.69 32.45 78.04 32.94 78.36 33.5L105.85 76.19L133.1 33.4Z" />
		<path id="&lt;Compound Path&gt;" fill-rule="evenodd" class="shp1" d="M299.86 55.17C303.73 55.17 307.13 56.09 310.07 57.93C313.01 59.78 315.29 62.27 316.89 65.41C318.47 68.56 319.28 72.07 319.28 75.93L319.28 107.76C319.28 108.46 319.1 108.99 318.74 109.35C318.37 109.72 317.83 109.9 317.14 109.9L309.94 109.9C308.52 109.9 307.81 109.19 307.81 107.76L307.81 77.39C307.81 75.17 307.38 73.16 306.54 71.36C305.72 69.58 304.51 68.15 302.93 67.12C301.34 66.07 299.49 65.55 297.37 65.55C295.21 65.55 293.24 66.05 291.44 67.06C289.66 68.06 288.25 69.45 287.22 71.23C286.18 73.01 285.68 74.99 285.68 77.18L285.68 107.76C285.68 108.46 285.49 108.99 285.13 109.35C284.76 109.72 284.24 109.9 283.55 109.9L276.33 109.9C274.91 109.9 274.2 109.19 274.2 107.76L274.2 77.39C274.2 75.17 273.79 73.16 272.97 71.36C272.15 69.58 270.95 68.15 269.37 67.12C267.78 66.07 265.88 65.55 263.65 65.55C261.46 65.55 259.48 66.05 257.7 67.06C255.94 68.06 254.55 69.45 253.53 71.23C252.52 73.01 252.02 74.99 252.02 77.18L252.02 107.76C252.02 108.46 251.84 108.99 251.47 109.35C251.11 109.72 250.58 109.9 249.88 109.9L242.69 109.9C241.24 109.9 240.53 109.19 240.53 107.76L240.53 58.44C240.53 57.75 240.73 57.21 241.08 56.86C241.46 56.48 241.97 56.31 242.69 56.31L247.02 56.31C248.33 56.31 249.12 56.93 249.37 58.19L250.29 62.36C252.7 59.89 255.26 58.07 257.99 56.91C260.73 55.74 263.51 55.17 266.38 55.17C269.6 55.17 272.57 55.91 275.3 57.43C278.01 58.94 280.16 61.03 281.76 63.66C283.89 60.99 286.58 58.91 289.83 57.41C293.08 55.91 296.42 55.17 299.86 55.17ZM357.23 55.17C362.2 55.17 366.69 56.31 370.68 58.6C374.69 60.9 377.82 64.12 380.1 68.29C382.38 72.44 383.52 77.16 383.52 82.45C383.52 83.32 383.34 83.91 382.97 84.23C382.61 84.54 382.06 84.7 381.33 84.7L341.82 84.7C341.93 87.94 342.73 90.75 344.21 93.17C345.69 95.6 347.63 97.45 350.02 98.73C352.42 100.01 355.06 100.66 357.91 100.66C360.62 100.66 363.27 100.05 365.83 98.8C368.42 97.57 370.66 95.79 372.57 93.46C373.12 92.87 373.64 92.57 374.14 92.57C374.47 92.57 374.88 92.71 375.33 93L379.71 97.22C380.32 97.63 380.6 98.11 380.6 98.63C380.6 99.09 380.39 99.57 379.98 100.09C377.2 103.58 373.85 106.27 369.93 108.17C366.01 110.1 361.9 111.04 357.59 111.04C352.62 111.04 348.06 109.88 343.94 107.58C339.83 105.27 336.55 101.99 334.13 97.73C331.73 93.5 330.51 88.63 330.51 83.13C330.51 77.63 331.67 72.76 334.01 68.52C336.34 64.27 339.53 60.99 343.61 58.66C347.67 56.32 352.21 55.17 357.23 55.17ZM357.37 65.07C355.25 65.07 353.21 65.48 351.23 66.3C349.23 67.12 347.51 68.35 346.01 70C344.51 71.66 343.43 73.67 342.77 76.04L371.37 76.04C370.5 72.51 368.77 69.81 366.17 67.92C363.59 66.03 360.65 65.07 357.37 65.07ZM421.92 55.17C426.3 55.17 429.97 56.13 432.91 58.09C435.85 60.03 438.04 62.63 439.47 65.85C440.89 69.09 441.6 72.64 441.6 76.5L441.6 107.76C441.6 109.19 440.89 109.9 439.47 109.9L432.31 109.9C430.88 109.9 430.17 109.19 430.17 107.76L430.17 77.8C430.17 75.38 429.71 73.23 428.8 71.39C427.87 69.54 426.57 68.11 424.88 67.12C423.19 66.1 421.21 65.6 418.95 65.6C416.69 65.6 414.62 66.1 412.75 67.08C410.86 68.08 409.37 69.54 408.26 71.46C407.14 73.4 406.59 75.67 406.59 78.28L406.59 107.76C406.59 108.46 406.41 108.99 406.04 109.35C405.68 109.72 405.14 109.9 404.45 109.9L397.25 109.9C395.81 109.9 395.1 109.19 395.1 107.76L395.1 58.44C395.1 57.75 395.29 57.21 395.65 56.86C396.02 56.48 396.54 56.31 397.25 56.31L401.58 56.31C402.9 56.31 403.68 56.93 403.93 58.19L404.97 62.68C407.37 60.17 410.04 58.3 412.98 57.04C415.92 55.79 418.89 55.17 421.92 55.17ZM473.65 111.04C470.55 111.04 467.82 110.47 465.45 109.29C463.08 108.14 461.23 106.43 459.9 104.16C458.56 101.9 457.88 99.18 457.88 96.02L457.88 65.96L453.34 65.96C452.65 65.96 452.13 65.78 451.76 65.41C451.4 65.05 451.2 64.52 451.2 63.82L451.2 58.44C451.2 57.75 451.4 57.21 451.76 56.86C452.13 56.48 452.65 56.31 453.34 56.31L457.88 56.31L457.88 40.13C457.88 39.44 458.08 38.9 458.44 38.55C458.81 38.17 459.33 38 460.02 38L467.18 38C467.88 38 468.41 38.17 468.77 38.55C469.14 38.9 469.32 39.44 469.32 40.13L469.32 56.31L479.86 56.31C480.56 56.31 481.09 56.48 481.45 56.86C481.82 57.21 482 57.75 482 58.44L482 63.82C482 64.48 481.82 65 481.45 65.39C481.09 65.76 480.56 65.96 479.86 65.96L469.32 65.96L469.32 94.24C469.32 96.58 469.8 98.32 470.78 99.46C471.76 100.6 473.15 101.19 474.95 101.19C476.03 101.19 477.23 100.96 478.54 100.51C478.94 100.41 479.26 100.35 479.49 100.35C480.36 100.35 480.97 100.83 481.32 101.81L482.84 107.03C482.96 107.44 483.03 107.76 483.03 107.98C483.03 108.83 482.55 109.47 481.57 109.85C479.26 110.65 476.6 111.04 473.65 111.04ZM518.21 111.04C512.9 111.04 508.08 109.86 503.73 107.48C499.4 105.09 495.98 101.78 493.49 97.56C490.98 93.34 489.73 88.53 489.73 83.13C489.73 77.73 490.98 72.92 493.49 68.68C495.98 64.43 499.4 61.11 503.73 58.73C508.08 56.36 512.9 55.17 518.21 55.17C523.54 55.17 528.36 56.36 532.69 58.73C537.04 61.11 540.44 64.43 542.95 68.68C545.46 72.92 546.71 77.73 546.71 83.13C546.71 88.53 545.46 93.34 542.95 97.56C540.44 101.78 537.04 105.09 532.69 107.48C528.36 109.86 523.54 111.04 518.21 111.04ZM518.21 100.51C521.45 100.51 524.37 99.77 526.96 98.29C529.56 96.81 531.59 94.76 533.07 92.12C534.54 89.51 535.27 86.51 535.27 83.13C535.27 79.76 534.54 76.75 533.07 74.1C531.59 71.46 529.56 69.4 526.96 67.92C524.37 66.44 521.45 65.71 518.21 65.71C515.02 65.71 512.12 66.44 509.54 67.92C506.94 69.4 504.89 71.46 503.39 74.1C501.9 76.75 501.15 79.76 501.15 83.13C501.15 86.51 501.9 89.51 503.39 92.12C504.89 94.76 506.94 96.81 509.54 98.29C512.12 99.77 515.02 100.51 518.21 100.51ZM560.66 109.9C559.21 109.9 558.5 109.19 558.5 107.76L558.46 58.44C558.46 57.75 558.64 57.21 559.04 56.86C559.41 56.48 559.94 56.31 560.6 56.31L564.93 56.31C566.25 56.31 567.03 56.93 567.28 58.19L568.58 64.04C570.29 61.04 572.39 58.82 574.89 57.36C577.4 55.9 580.11 55.17 583.03 55.17C584.4 55.17 585.97 55.38 587.78 55.84C588.8 56.15 589.3 56.79 589.3 57.71C589.3 57.85 589.26 58.1 589.19 58.44L587.52 64.82C587.28 65.85 586.66 66.39 585.65 66.39C585.5 66.39 585.25 66.35 584.92 66.28C583.7 65.99 582.49 65.85 581.32 65.85C577.74 65.85 574.94 67.17 572.96 69.77C570.99 72.39 569.99 76.15 569.99 81.1L569.99 107.76C569.99 108.46 569.81 108.99 569.44 109.35C569.08 109.72 568.55 109.9 567.85 109.9L560.66 109.9ZM651.49 107.76C651.49 109.19 650.78 109.9 649.36 109.9L645.03 109.9C643.71 109.9 642.93 109.28 642.68 108.03L641.32 102.22C638.88 105.04 635.93 107.23 632.42 108.74C628.93 110.27 625.26 111.04 621.39 111.04C616.35 111.04 611.72 109.79 607.54 107.28C603.35 104.79 600.04 101.4 597.61 97.15C595.21 92.87 594 88.21 594 83.13C594 78.05 595.21 73.37 597.61 69.09C600.04 64.82 603.35 61.42 607.54 58.92C611.72 56.41 616.35 55.17 621.39 55.17C624.87 55.17 628.23 55.79 631.46 57.07C634.7 58.34 637.53 60.13 639.97 62.47L639.92 31.89C639.92 31.19 640.09 30.66 640.47 30.3C640.82 29.93 641.36 29.75 642.05 29.75L649.25 29.75C650.67 29.75 651.39 30.46 651.39 31.89L651.49 107.76ZM622.85 100.51C625.99 100.51 628.89 99.73 631.56 98.16C634.24 96.59 636.37 94.47 637.92 91.82C639.49 89.15 640.27 86.26 640.27 83.13C640.27 79.99 639.49 77.09 637.92 74.42C636.37 71.73 634.24 69.61 631.56 68.04C628.89 66.48 625.99 65.71 622.85 65.71C619.72 65.71 616.82 66.48 614.14 68.04C611.45 69.61 609.33 71.73 607.77 74.42C606.2 77.09 605.42 79.99 605.42 83.13C605.42 86.26 606.2 89.15 607.77 91.82C609.33 94.47 611.45 96.59 614.14 98.16C616.82 99.73 619.72 100.51 622.85 100.51ZM690.07 55.17C695.04 55.17 699.53 56.31 703.52 58.6C707.53 60.9 710.66 64.12 712.94 68.29C715.22 72.44 716.36 77.16 716.36 82.45C716.36 83.32 716.18 83.91 715.81 84.23C715.45 84.54 714.9 84.7 714.17 84.7L674.67 84.7C674.77 87.94 675.58 90.75 677.05 93.17C678.53 95.6 680.47 97.45 682.86 98.73C685.26 100.01 687.9 100.66 690.75 100.66C693.46 100.66 696.11 100.05 698.68 98.8C701.26 97.57 703.5 95.79 705.41 93.46C705.96 92.87 706.48 92.57 706.98 92.57C707.31 92.57 707.72 92.71 708.17 93L712.55 97.22C713.16 97.63 713.44 98.11 713.44 98.63C713.44 99.09 713.23 99.57 712.82 100.09C710.04 103.58 706.69 106.27 702.77 108.17C698.85 110.1 694.74 111.04 690.43 111.04C685.46 111.04 680.9 109.88 676.79 107.58C672.67 105.27 669.39 101.99 666.97 97.73C664.57 93.5 663.36 88.63 663.36 83.13C663.36 77.63 664.51 72.76 666.85 68.52C669.18 64.27 672.37 60.99 676.45 58.66C680.51 56.32 685.05 55.17 690.07 55.17ZM690.22 65.07C688.1 65.07 686.05 65.48 684.07 66.3C682.08 67.12 680.35 68.35 678.85 70C677.36 71.66 676.27 73.67 675.61 76.04L704.21 76.04C703.34 72.51 701.61 69.81 699.01 67.92C696.43 66.03 693.49 65.07 690.22 65.07ZM724.09 109.9C723.49 109.9 723.04 109.79 722.7 109.56C722.37 109.33 722.21 109.03 722.21 108.65C722.21 108.26 722.4 107.83 722.77 107.34L742.14 82.67L723.42 58.87C723.02 58.37 722.83 57.93 722.83 57.52C722.83 57.13 723.01 56.82 723.33 56.63C723.67 56.41 724.11 56.31 724.66 56.31L733.69 56.31C734.8 56.31 735.65 56.77 736.24 57.66L749.49 75.2L762.76 57.66C763.35 56.77 764.2 56.31 765.31 56.31L774.29 56.31C774.87 56.31 775.34 56.43 775.67 56.64C776 56.88 776.16 57.18 776.16 57.55C776.16 57.94 775.98 58.37 775.59 58.87L756.9 82.67L776.21 107.34C776.6 107.83 776.8 108.28 776.8 108.71C776.8 109.08 776.62 109.38 776.3 109.58C775.96 109.79 775.51 109.9 774.96 109.9L765.52 109.9C764.47 109.9 763.62 109.45 762.96 108.55L749.49 90.33L735.99 108.55C735.35 109.45 734.51 109.9 733.43 109.9L724.09 109.9Z" />
	</g>
</svg>