<svg width="1336" height="155" viewBox="0 0 1336 155" fill="none" xmlns="http://www.w3.org/2000/svg">
<path opacity="0.5" d="M566.597 59.4536C569.617 60.0557 570.852 63.7011 568.821 66.0152L564.822 70.5711C562.79 72.8852 559.016 72.1325 558.027 69.2163L556.081 63.4749C555.093 60.5586 557.632 57.666 560.652 58.2681L566.597 59.4536Z" fill="#094E54" fill-opacity="0.3"/>
<g opacity="0.4">
<path d="M491.702 95.7212C319.461 117.639 92.1335 96.5515 0 83.2678V155H1366V113.654C1341.59 111.828 1244.48 103.193 1051.29 83.2678C809.805 58.3608 707.003 68.3236 491.702 95.7212Z" fill="#1BBDEC" fill-opacity="0.3"/>
<path d="M491.702 95.7212C319.461 117.639 92.1335 96.5515 0 83.2678V155H1366V113.654C1341.59 111.828 1244.48 103.193 1051.29 83.2678C809.805 58.3608 707.003 68.3236 491.702 95.7212Z" fill="url(#paint0_linear)" fill-opacity="0.7"/>
</g>
<g clip-path="url(#clip0)">
<path d="M759.54 107.415L729.869 106.445L735.352 113.351L752.457 109.739L737.376 115.901L737.381 115.908L737.375 115.9L733.68 121.994L740.45 119.772L744.345 124.678L759.54 107.415Z" fill="#094E54" fill-opacity="0.3"/>
</g>
<path d="M134.54 60.4148L104.869 59.4453L110.352 66.3512L127.457 62.7394L112.376 68.9009L112.381 68.9075L112.375 68.9L108.68 74.994L115.45 72.7722L119.345 77.6782L134.54 60.4148Z" fill="#094E54" fill-opacity="0.3"/>
<path d="M640.508 39.4918L612.528 29.5714L615.659 37.8147L633.054 39.5594L616.814 40.8582L616.817 40.866L616.813 40.8568L611.445 45.5436L618.57 45.4791L620.794 51.3352L640.508 39.4918Z" fill="#094E54" fill-opacity="0.3"/>
<g clip-path="url(#clip1)">
<path d="M1026.88 43.5378L1000.42 30.0654L1002.46 38.6457L1019.48 42.6361L1003.21 41.8135L1003.21 41.8217L1003.21 41.812L997.273 45.7614L1004.35 46.6234L1005.79 52.7188L1026.88 43.5378Z" fill="#094E54" fill-opacity="0.3"/>
</g>
<path d="M1144.8 73.0575L1120.09 56.6036L1121.11 65.3619L1137.55 71.3024L1121.49 68.5955L1121.49 68.6039L1121.49 68.5939L1115.14 71.8275L1122.06 73.5052L1122.79 79.7272L1144.8 73.0575Z" fill="#094E54" fill-opacity="0.3"/>
<path d="M1311.43 71.2831L1281.89 68.2637L1286.89 75.5323L1304.2 73.1122L1288.73 78.2159L1288.73 78.2229L1288.73 78.2149L1284.62 84.0387L1291.53 82.2905L1295.07 87.4542L1311.43 71.2831Z" fill="#094E54" fill-opacity="0.3"/>
<path d="M917.874 89L892 103.554L900.269 106.617L913.023 94.66L903.322 107.748L903.33 107.75L903.32 107.748V114.874L907.957 109.464L913.831 111.64L917.874 89Z" fill="#094E54" fill-opacity="0.3"/>
<circle cx="183" cy="123" r="4" fill="#094E54" fill-opacity="0.3"/>
<circle cx="52" cy="138" r="2" fill="#1BBDEC" fill-opacity="0.3"/>
<circle cx="47" cy="70" r="5" fill="#094E54" fill-opacity="0.3"/>
<circle cx="371" cy="134" r="4" fill="#094E54" fill-opacity="0.3"/>
<circle cx="271" cy="61" r="4" fill="#094E54" fill-opacity="0.3"/>
<circle opacity="0.6" cx="588" cy="112" r="4" fill="#094E54" fill-opacity="0.3"/>
<circle opacity="0.6" cx="679" cy="138" r="4" fill="#094E54" fill-opacity="0.3"/>
<circle cx="833" cy="94" r="4" fill="#094E54" fill-opacity="0.3"/>
<circle opacity="0.6" cx="966" cy="126" r="7" fill="#094E54" fill-opacity="0.3"/>
<circle opacity="0.4" cx="1293" cy="22" r="7" fill="#094E54" fill-opacity="0.3"/>
<circle opacity="0.6" cx="1235" cy="47" r="3" fill="#094E54" fill-opacity="0.3"/>
<circle opacity="0.6" cx="1158" cy="135" r="3" fill="#094E54" fill-opacity="0.3"/>
<path opacity="0.6" d="M1058 122C1058 125.866 1054.87 129 1051 129C1047.13 129 1044 125.866 1044 122C1044 118.134 1047.13 115 1051 115C1054.87 115 1058 118.134 1058 122ZM1045.52 122C1045.52 125.026 1047.97 127.479 1051 127.479C1054.03 127.479 1056.48 125.026 1056.48 122C1056.48 118.974 1054.03 116.521 1051 116.521C1047.97 116.521 1045.52 118.974 1045.52 122Z" fill="#094E54" fill-opacity="0.3"/>
<path opacity="0.6" d="M271 131C271 134.866 267.866 138 264 138C260.134 138 257 134.866 257 131C257 127.134 260.134 124 264 124C267.866 124 271 127.134 271 131ZM258.521 131C258.521 134.026 260.974 136.479 264 136.479C267.026 136.479 269.479 134.026 269.479 131C269.479 127.974 267.026 125.521 264 125.521C260.974 125.521 258.521 127.974 258.521 131Z" fill="#094E54" fill-opacity="0.3"/>
<path opacity="0.6" d="M116 109C116 111.209 114.209 113 112 113C109.791 113 108 111.209 108 109C108 106.791 109.791 105 112 105C114.209 105 116 106.791 116 109ZM108.869 109C108.869 110.729 110.271 112.131 112 112.131C113.729 112.131 115.131 110.729 115.131 109C115.131 107.271 113.729 105.869 112 105.869C110.271 105.869 108.869 107.271 108.869 109Z" fill="#1BBDEC" fill-opacity="0.3"/>
<path opacity="0.6" d="M1191 79C1191 82.866 1187.87 86 1184 86C1180.13 86 1177 82.866 1177 79C1177 75.134 1180.13 72 1184 72C1187.87 72 1191 75.134 1191 79ZM1178.52 79C1178.52 82.0257 1180.97 84.4785 1184 84.4785C1187.03 84.4785 1189.48 82.0257 1189.48 79C1189.48 75.9743 1187.03 73.5215 1184 73.5215C1180.97 73.5215 1178.52 75.9743 1178.52 79Z" fill="#094E54" fill-opacity="0.3"/>
<circle cx="436" cy="73" r="8" fill="#094E54" fill-opacity="0.3"/>
<path opacity="0.5" d="M502.68 114.537C505.7 115.139 506.935 118.784 504.904 121.098L500.905 125.654C498.873 127.968 495.099 127.216 494.11 124.299L492.164 118.558C491.176 115.642 493.715 112.749 496.735 113.351L502.68 114.537Z" fill="#094E54" fill-opacity="0.3"/>
<path opacity="0.5" d="M1130.68 9.53661C1133.7 10.1388 1134.94 13.7841 1132.9 16.0982L1128.9 20.6541C1126.87 22.9682 1123.1 22.2155 1122.11 19.2993L1120.16 13.5579C1119.18 10.6417 1121.72 7.74901 1124.73 8.35115L1130.68 9.53661Z" fill="#094E54" fill-opacity="0.3"/>
<path opacity="0.9" d="M330.202 65.3432C333.222 65.9453 334.457 69.5906 332.426 71.9047L324.177 81.3012C322.146 83.6153 318.371 82.8626 317.383 79.9463L313.37 68.1049C312.381 65.1887 314.92 62.296 317.94 62.8982L330.202 65.3432Z" fill="#094E54" fill-opacity="0.3"/>
<path opacity="0.9" d="M1181.58 120.877C1182.68 121.095 1183.12 122.416 1182.39 123.254C1181.65 124.093 1180.28 123.82 1179.93 122.764C1179.57 121.707 1180.49 120.659 1181.58 120.877Z" fill="#094E54" fill-opacity="0.3"/>
<path opacity="0.9" d="M1292.96 140.254C1294.05 140.473 1294.5 141.793 1293.76 142.632C1293.03 143.47 1291.66 143.198 1291.3 142.141C1290.94 141.084 1291.86 140.036 1292.96 140.254Z" fill="#1BBDEC" fill-opacity="0.3"/>
<defs>
<linearGradient id="paint0_linear" x1="8.23102e-06" y1="122.5" x2="35.2651" y2="343.932" gradientUnits="userSpaceOnUse">
<stop stop-color="#F3F6FA"/>
<stop offset="0.515625" stop-color="#E6E9ED"/>
<stop offset="1" stop-color="#C0DBFF"/>
</linearGradient>
<clipPath id="clip0">
<rect width="25.8741" height="25.8741" fill="white" transform="translate(737.415 94) rotate(31.2293)"/>
</clipPath>
<clipPath id="clip1">
<rect width="25.8741" height="25.8741" fill="white" transform="translate(1012.54 22) rotate(56.3468)"/>
</clipPath>
</defs>
</svg>
