<svg width="64" height="64" viewBox="0 0 64 64" fill="none" xmlns="http://www.w3.org/2000/svg">
<g clip-path="url(#clip0)">
<path d="M63.0624 38.4738C62.5445 38.4738 62.1249 38.8935 62.1249 39.4113V40.1735C62.1249 43.1844 59.6754 45.6339 56.6645 45.6339H42.7184C41.5586 45.6339 40.477 46.2573 39.8957 47.2609L32.7972 59.5164C32.4419 60.13 31.5574 60.129 31.2025 59.5164L24.104 47.2609C23.5227 46.2574 22.4412 45.6339 21.2815 45.6339H7.33524C4.32436 45.6339 1.87486 43.1844 1.87486 40.1735V9.48479C1.87486 6.47404 4.32436 4.02441 7.33524 4.02441H14.1547C14.6725 4.02441 15.0922 3.60466 15.0922 3.08691C15.0922 2.56916 14.6725 2.14941 14.1547 2.14941H7.33524C3.29049 2.14941 -0.000137329 5.44004 -0.000137329 9.48479V40.1735C-0.000137329 44.2183 3.29049 47.5089 7.33524 47.5089H21.2814C21.7744 47.5089 22.2342 47.774 22.4815 48.2007L29.58 60.456C30.6567 62.315 33.3416 62.3177 34.4199 60.456L41.5184 48.2005C41.7655 47.7738 42.2252 47.5088 42.7185 47.5088H56.6646C60.7092 47.5088 64 44.2182 64 40.1734V39.4112C63.9999 38.8935 63.5802 38.4738 63.0624 38.4738Z" fill="#3C6A7A"/>
<path d="M56.6643 1.35742L14.4045 2.13956C13.8868 2.13956 13.467 2.55931 13.467 3.07706C13.467 3.59481 13.8868 4.01456 14.4045 4.01456L56.6643 3.23242C59.6752 3.23242 62.1247 5.68192 62.1247 8.6928V39.7944C62.1247 40.3121 62.5443 40.7319 63.0622 40.7319C63.5801 40.7319 63.9997 40.3121 63.9997 39.7944V8.6928C63.9997 4.64805 60.7091 1.35742 56.6643 1.35742Z" fill="#3C6A7A"/>
<path d="M27.2695 22.0287C25.728 22.0287 24.4739 20.7745 24.4739 19.2329C24.4739 18.7152 24.8935 18.2954 25.4114 18.2954C25.9293 18.2954 26.3489 18.7152 26.3489 19.2329C26.3489 19.7407 26.7619 20.1537 27.2695 20.1537C27.7771 20.1537 28.1903 19.7407 28.1903 19.2329C28.1903 18.7152 28.6099 18.2954 29.1278 18.2954C29.6456 18.2954 30.0653 18.7152 30.0653 19.2329C30.0653 20.7745 28.8111 22.0287 27.2695 22.0287Z" fill="#3BB3BD"/>
<path d="M36.7298 22.0282C35.1882 22.0282 33.9341 20.774 33.9341 19.2324C33.9341 18.7147 34.3537 18.2949 34.8716 18.2949C35.3894 18.2949 35.8091 18.7147 35.8091 19.2324C35.8091 19.7402 36.2222 20.1532 36.7298 20.1532C37.2374 20.1532 37.6504 19.7402 37.6504 19.2324C37.6504 18.7147 38.0701 18.2949 38.5879 18.2949C39.1058 18.2949 39.5254 18.7147 39.5254 19.2324C39.5254 20.774 38.2713 22.0282 36.7298 22.0282Z" fill="#3BB3BD"/>
<path d="M38.4306 32.5203C37.4496 30.7311 34.8652 29.5288 31.9996 29.5288C29.134 29.5288 26.5495 30.7309 25.5686 32.5203C25.3198 32.9742 24.75 33.1404 24.2958 32.8917C23.8418 32.6428 23.6756 32.0729 23.9245 31.6189C25.2448 29.2102 28.4146 27.6538 31.9996 27.6538C35.5846 27.6538 38.7542 29.2102 40.0747 31.6189C40.3236 32.0729 40.1573 32.6428 39.7033 32.8917C39.2465 33.1422 38.6777 32.9713 38.4306 32.5203Z" fill="#3BB3BD"/>
<path d="M31.9998 41.5213C22.9026 41.5213 15.5015 34.1203 15.5015 25.0231C15.5015 15.926 22.9026 8.5249 31.9998 8.5249C41.0969 8.5249 48.498 15.9259 48.498 25.0231C48.498 34.1201 41.0969 41.5213 31.9998 41.5213ZM31.9998 10.3999C23.9364 10.3999 17.3765 16.9598 17.3765 25.0231C17.3765 33.0864 23.9364 39.6463 31.9998 39.6463C40.0631 39.6463 46.623 33.0864 46.623 25.0231C46.623 16.9598 40.0631 10.3999 31.9998 10.3999Z" fill="#3BB3BD"/>
</g>
<defs>
<clipPath id="clip0">
<rect width="64" height="64" fill="white"/>
</clipPath>
</defs>
</svg>
