<svg width="253" height="178" viewBox="0 0 253 178" fill="none" xmlns="http://www.w3.org/2000/svg">
<path d="M28 23.5603C28 22.1463 29.1463 21 30.5604 21H218.038C219.452 21 220.599 22.1463 220.599 23.5603V138.44C220.599 139.854 219.452 141 218.038 141H30.5603C29.1463 141 28 139.854 28 138.44V23.5603Z" fill="#F8F6F8"/>
<path d="M28 23.5603C28 22.1463 29.1463 21 30.5604 21H218.038C219.452 21 220.599 22.1463 220.599 23.5603V30.6013H28V23.5603Z" fill="#5A808D"/>
<g filter="url(#filter0_d)">
<path d="M40.738 47.5252C40.738 46.1111 41.8843 44.9648 43.2984 44.9648H208.306C209.72 44.9648 210.866 46.1112 210.866 47.5252V122.301C210.866 123.715 209.72 124.862 208.306 124.862H43.2984C41.8843 124.862 40.738 123.715 40.738 122.301V47.5252Z" fill="white"/>
</g>
<g filter="url(#filter1_d)">
<path d="M87.7844 38.2823C87.7844 37.2218 88.6442 36.3621 89.7047 36.3621H210.975C212.036 36.3621 212.896 37.2218 212.896 38.2823V131.498C212.896 132.558 212.036 133.418 210.975 133.418H89.7047C88.6442 133.418 87.7844 132.558 87.7844 131.498V38.2823Z" fill="white"/>
</g>
<g clip-path="url(#clip0)">
<path d="M201.356 56.1095L168.818 49.2235C167.441 48.9323 166.077 49.8204 165.785 51.1971L165.167 55.1697L202.71 63.1144L203.329 59.1418C203.62 57.7657 202.732 56.4008 201.356 56.1095Z" fill="#3BB3BD"/>
<path d="M187.673 63.9569C187.293 62.5883 185.862 61.7793 184.494 62.1587L178.317 63.8735L163.755 60.7917L162.154 68.3585L152.148 71.1357C150.78 71.5153 149.971 72.9456 150.35 74.3138L155.989 94.634C156.369 96.0022 157.8 96.8117 159.168 96.4317L191.514 87.4553C192.882 87.0753 193.691 85.6455 193.312 84.2768L192.344 80.7884L195.971 81.5554C197.348 81.8471 198.712 80.959 199.004 79.5823L201.299 68.7366L188.232 65.9714L187.673 63.9569ZM191.408 74.2845L192.208 70.5038C192.328 69.9377 192.889 69.5726 193.455 69.6921L197.236 70.4926C197.803 70.6127 198.168 71.1734 198.048 71.74L197.248 75.5208C197.128 76.0869 196.567 76.4525 196.001 76.3324L192.22 75.5325C191.653 75.4119 191.288 74.8506 191.408 74.2845ZM152.711 73.1635L161.662 70.6803L182.783 64.8191L185.056 64.1877C185.097 64.1765 185.139 64.1712 185.179 64.1712C185.361 64.1712 185.579 64.2908 185.643 64.5199L185.91 65.4809L186.746 68.4935L153.482 77.7245L152.379 73.7514C152.31 73.5021 152.462 73.2326 152.711 73.1635ZM191.283 84.839C191.326 84.9932 191.281 85.1207 191.236 85.2005C191.191 85.2802 191.105 85.3845 190.951 85.4269L158.605 94.4033C158.565 94.4145 158.523 94.4203 158.482 94.4203C158.3 94.4203 158.082 94.3002 158.018 94.0711L154.729 82.2186L187.994 72.9871L190.022 80.2971L191.283 84.839Z" fill="#3BB3BD"/>
<path d="M163.832 85.65C163.677 85.0919 163.094 84.7624 162.536 84.9171L158.759 85.9658C158.201 86.1204 157.871 86.7036 158.026 87.2617L159.074 91.0387C159.23 91.5968 159.812 91.9263 160.37 91.7711L164.148 90.7229C164.706 90.5682 165.035 89.9851 164.881 89.427L163.832 85.65Z" fill="#3BB3BD"/>
</g>
<path d="M79.1433 87.2154C79.1433 95.1694 72.6236 101.617 64.5813 101.617C56.5389 101.617 50.0193 95.1694 50.0193 87.2154C50.0193 79.2615 56.5389 72.8135 64.5813 72.8135C72.6236 72.8135 79.1433 79.2615 79.1433 87.2154Z" fill="#3BB3BD"/>
<path d="M49.0592 50.6897C49.0592 51.6618 48.2711 52.4499 47.2989 52.4499C46.3268 52.4499 45.5387 51.6618 45.5387 50.6897C45.5387 49.7175 46.3268 48.9294 47.2989 48.9294C48.2711 48.9294 49.0592 49.7175 49.0592 50.6897Z" fill="#FF7D66"/>
<path d="M54.82 50.6897C54.82 51.6618 54.032 52.4499 53.0598 52.4499C52.0876 52.4499 51.2996 51.6618 51.2996 50.6897C51.2996 49.7175 52.0876 48.9294 53.0598 48.9294C54.032 48.9294 54.82 49.7175 54.82 50.6897Z" fill="#FFC74F"/>
<path d="M60.5807 50.6897C60.5807 51.6618 59.7926 52.4499 58.8204 52.4499C57.8483 52.4499 57.0602 51.6618 57.0602 50.6897C57.0602 49.7175 57.8483 48.9294 58.8204 48.9294C59.7926 48.9294 60.5807 49.7175 60.5807 50.6897Z" fill="#25BC5C"/>
<path d="M229.948 107.416C229.948 105.646 228.243 104.211 226.141 104.211H153.423C151.321 104.211 149.617 105.646 149.617 107.416V121.809C149.617 123.579 151.321 125.014 153.423 125.014H226.141C228.243 125.014 229.948 123.579 229.948 121.809V107.416Z" fill="#E63946"/>
<path d="M169.771 118.096C169.189 118.096 168.664 117.971 168.195 117.72C167.731 117.469 167.365 117.125 167.099 116.688C166.837 116.245 166.707 115.749 166.707 115.2C166.707 114.651 166.837 114.157 167.099 113.72C167.365 113.277 167.731 112.931 168.195 112.68C168.664 112.429 169.189 112.304 169.771 112.304C170.352 112.304 170.875 112.429 171.339 112.68C171.803 112.931 172.168 113.277 172.435 113.72C172.701 114.157 172.835 114.651 172.835 115.2C172.835 115.749 172.701 116.245 172.435 116.688C172.168 117.125 171.803 117.469 171.339 117.72C170.875 117.971 170.352 118.096 169.771 118.096ZM169.771 116.992C170.101 116.992 170.4 116.917 170.667 116.768C170.933 116.613 171.141 116.4 171.291 116.128C171.445 115.856 171.523 115.547 171.523 115.2C171.523 114.853 171.445 114.544 171.291 114.272C171.141 114 170.933 113.789 170.667 113.64C170.4 113.485 170.101 113.408 169.771 113.408C169.44 113.408 169.141 113.485 168.875 113.64C168.608 113.789 168.397 114 168.243 114.272C168.093 114.544 168.019 114.853 168.019 115.2C168.019 115.547 168.093 115.856 168.243 116.128C168.397 116.4 168.608 116.613 168.875 116.768C169.141 116.917 169.44 116.992 169.771 116.992ZM176.337 113.632C176.87 113.632 177.299 113.792 177.625 114.112C177.955 114.432 178.121 114.907 178.121 115.536V118H176.873V115.728C176.873 115.387 176.798 115.133 176.649 114.968C176.499 114.797 176.283 114.712 176.001 114.712C175.686 114.712 175.435 114.811 175.249 115.008C175.062 115.2 174.969 115.488 174.969 115.872V118H173.721V113.696H174.913V114.2C175.078 114.019 175.283 113.88 175.529 113.784C175.774 113.683 176.043 113.632 176.337 113.632ZM183.515 115.864C183.515 115.88 183.507 115.992 183.491 116.2H180.235C180.293 116.467 180.432 116.677 180.651 116.832C180.869 116.987 181.141 117.064 181.467 117.064C181.691 117.064 181.888 117.032 182.059 116.968C182.235 116.899 182.397 116.792 182.547 116.648L183.211 117.368C182.805 117.832 182.213 118.064 181.435 118.064C180.949 118.064 180.52 117.971 180.147 117.784C179.773 117.592 179.485 117.328 179.283 116.992C179.08 116.656 178.979 116.275 178.979 115.848C178.979 115.427 179.077 115.048 179.275 114.712C179.477 114.371 179.752 114.107 180.099 113.92C180.451 113.728 180.843 113.632 181.275 113.632C181.696 113.632 182.077 113.723 182.419 113.904C182.76 114.085 183.027 114.347 183.219 114.688C183.416 115.024 183.515 115.416 183.515 115.864ZM181.283 114.576C181 114.576 180.763 114.656 180.571 114.816C180.379 114.976 180.261 115.195 180.219 115.472H182.339C182.296 115.2 182.179 114.984 181.987 114.824C181.795 114.659 181.56 114.576 181.283 114.576ZM189.379 118.096C188.808 118.096 188.291 117.973 187.827 117.728C187.368 117.477 187.006 117.133 186.739 116.696C186.478 116.253 186.347 115.755 186.347 115.2C186.347 114.645 186.478 114.149 186.739 113.712C187.006 113.269 187.368 112.925 187.827 112.68C188.291 112.429 188.811 112.304 189.387 112.304C189.872 112.304 190.31 112.389 190.699 112.56C191.094 112.731 191.424 112.976 191.691 113.296L190.859 114.064C190.48 113.627 190.011 113.408 189.451 113.408C189.104 113.408 188.795 113.485 188.523 113.64C188.251 113.789 188.038 114 187.883 114.272C187.734 114.544 187.659 114.853 187.659 115.2C187.659 115.547 187.734 115.856 187.883 116.128C188.038 116.4 188.251 116.613 188.523 116.768C188.795 116.917 189.104 116.992 189.451 116.992C190.011 116.992 190.48 116.771 190.859 116.328L191.691 117.096C191.424 117.421 191.094 117.669 190.699 117.84C190.304 118.011 189.864 118.096 189.379 118.096ZM192.478 112.064H193.726V118H192.478V112.064ZM194.885 113.696H196.133V118H194.885V113.696ZM195.509 113.096C195.279 113.096 195.093 113.029 194.949 112.896C194.805 112.763 194.733 112.597 194.733 112.4C194.733 112.203 194.805 112.037 194.949 111.904C195.093 111.771 195.279 111.704 195.509 111.704C195.738 111.704 195.925 111.768 196.069 111.896C196.213 112.024 196.285 112.184 196.285 112.376C196.285 112.584 196.213 112.757 196.069 112.896C195.925 113.029 195.738 113.096 195.509 113.096ZM199.371 118.064C198.912 118.064 198.499 117.971 198.131 117.784C197.768 117.592 197.483 117.328 197.275 116.992C197.072 116.656 196.971 116.275 196.971 115.848C196.971 115.421 197.072 115.04 197.275 114.704C197.483 114.368 197.768 114.107 198.131 113.92C198.499 113.728 198.912 113.632 199.371 113.632C199.824 113.632 200.219 113.728 200.555 113.92C200.896 114.107 201.144 114.376 201.299 114.728L200.331 115.248C200.107 114.853 199.784 114.656 199.363 114.656C199.038 114.656 198.768 114.763 198.555 114.976C198.342 115.189 198.235 115.48 198.235 115.848C198.235 116.216 198.342 116.507 198.555 116.72C198.768 116.933 199.038 117.04 199.363 117.04C199.79 117.04 200.112 116.843 200.331 116.448L201.299 116.976C201.144 117.317 200.896 117.584 200.555 117.776C200.219 117.968 199.824 118.064 199.371 118.064ZM203.834 116.312L203.234 116.904V118H201.986V112.064H203.234V115.424L205.058 113.696H206.546L204.754 115.52L206.706 118H205.194L203.834 116.312ZM212.045 112.4C212.541 112.4 212.97 112.483 213.333 112.648C213.701 112.813 213.984 113.048 214.181 113.352C214.378 113.656 214.477 114.016 214.477 114.432C214.477 114.843 214.378 115.203 214.181 115.512C213.984 115.816 213.701 116.051 213.333 116.216C212.97 116.376 212.541 116.456 212.045 116.456H210.917V118H209.621V112.4H212.045ZM211.973 115.4C212.362 115.4 212.658 115.317 212.861 115.152C213.064 114.981 213.165 114.741 213.165 114.432C213.165 114.117 213.064 113.877 212.861 113.712C212.658 113.541 212.362 113.456 211.973 113.456H210.917V115.4H211.973ZM217.011 113.632C217.678 113.632 218.19 113.792 218.547 114.112C218.905 114.427 219.083 114.904 219.083 115.544V118H217.915V117.464C217.681 117.864 217.243 118.064 216.603 118.064C216.273 118.064 215.985 118.008 215.739 117.896C215.499 117.784 215.315 117.629 215.187 117.432C215.059 117.235 214.995 117.011 214.995 116.76C214.995 116.36 215.145 116.045 215.443 115.816C215.747 115.587 216.214 115.472 216.843 115.472H217.835C217.835 115.2 217.753 114.992 217.587 114.848C217.422 114.699 217.174 114.624 216.843 114.624C216.614 114.624 216.387 114.661 216.163 114.736C215.945 114.805 215.758 114.901 215.603 115.024L215.155 114.152C215.39 113.987 215.67 113.859 215.995 113.768C216.326 113.677 216.665 113.632 217.011 113.632ZM216.915 117.224C217.129 117.224 217.318 117.176 217.483 117.08C217.649 116.979 217.766 116.832 217.835 116.64V116.2H216.979C216.467 116.2 216.211 116.368 216.211 116.704C216.211 116.864 216.273 116.992 216.395 117.088C216.523 117.179 216.697 117.224 216.915 117.224ZM224.407 113.696L222.463 118.264C222.265 118.76 222.02 119.109 221.727 119.312C221.439 119.515 221.089 119.616 220.679 119.616C220.455 119.616 220.233 119.581 220.015 119.512C219.796 119.443 219.617 119.347 219.479 119.224L219.935 118.336C220.031 118.421 220.14 118.488 220.263 118.536C220.391 118.584 220.516 118.608 220.639 118.608C220.809 118.608 220.948 118.565 221.055 118.48C221.161 118.4 221.257 118.264 221.343 118.072L221.359 118.032L219.495 113.696H220.783L221.991 116.616L223.207 113.696H224.407Z" fill="white"/>
<g clip-path="url(#clip1)">
<path d="M158.033 117.88L155.63 115.477C155.506 115.353 155.506 115.152 155.63 115.029L156.273 114.385C156.397 114.262 156.598 114.262 156.722 114.385L159.125 116.789C159.249 116.913 159.249 117.113 159.125 117.237L158.482 117.88C158.358 118.004 158.157 118.004 158.033 117.88Z" fill="url(#paint0_linear)"/>
<path d="M157.39 116.789L161.714 112.465C161.838 112.341 162.039 112.341 162.162 112.465L162.806 113.108C162.929 113.232 162.929 113.433 162.806 113.557L158.482 117.88C158.358 118.004 158.157 118.004 158.034 117.88L157.39 117.237C157.267 117.113 157.267 116.913 157.39 116.789Z" fill="url(#paint1_linear)"/>
</g>
<path d="M47.8427 87.2514C47.8427 78.0588 55.3837 70.6067 64.5763 70.6067C73.7689 70.6067 81.31 78.0588 81.31 87.2514C81.31 96.444 73.7689 103.896 64.5763 103.896C55.3837 103.896 47.8427 96.444 47.8427 87.2514Z" fill="#D7F7FA"/>
<path fill-rule="evenodd" clip-rule="evenodd" d="M64.5763 77.2236C61.8073 77.2236 59.5625 79.4684 59.5625 82.2375V84.243C59.5625 87.012 61.8073 89.2568 64.5763 89.2568C67.3454 89.2568 69.5902 87.012 69.5902 84.243V82.2375C69.5902 79.4684 67.3454 77.2236 64.5763 77.2236ZM64.5763 91.2623C61.0552 91.2578 57.5956 92.1849 54.5487 93.9497V97.2789H74.604V93.9497C71.6559 92.235 68.2264 91.2623 64.5763 91.2623Z" fill="#3BB3BD"/>
<path d="M144.086 55.0724V107.304C144.086 109.001 142.711 110.376 141.014 110.376H101.072C99.3749 110.376 98 109.001 98 107.304V55.0724C98 53.3749 99.3749 52 101.072 52H141.014C142.711 52 144.086 53.3749 144.086 55.0724Z" fill="#3BB3BD"/>
<path d="M134.869 87.3328H107.217C106.369 87.3328 105.681 88.021 105.681 88.869C105.681 89.717 106.369 90.4052 107.217 90.4052H134.869C135.717 90.4052 136.405 89.717 136.405 88.869C136.405 88.021 135.717 87.3328 134.869 87.3328Z" fill="#D7F7FA"/>
<path d="M134.869 81.188H107.217C106.369 81.188 105.681 81.8762 105.681 82.7242C105.681 83.5722 106.369 84.2604 107.217 84.2604H134.869C135.717 84.2604 136.405 83.5722 136.405 82.7242C136.405 81.8762 135.717 81.188 134.869 81.188Z" fill="#D7F7FA"/>
<path d="M128.724 99.6226H107.217C106.369 99.6226 105.681 100.311 105.681 101.159C105.681 102.007 106.369 102.695 107.217 102.695H128.724C129.572 102.695 130.26 102.007 130.26 101.159C130.26 100.311 129.572 99.6226 128.724 99.6226Z" fill="#D7F7FA"/>
<path d="M134.869 93.4775H107.217C106.369 93.4775 105.681 94.1658 105.681 95.0137C105.681 95.8617 106.369 96.55 107.217 96.55H134.869C135.717 96.55 136.405 95.8617 136.405 95.0137C136.405 94.1658 135.717 93.4775 134.869 93.4775Z" fill="#D7F7FA"/>
<path d="M134.869 68.8982H122.579C121.731 68.8982 121.043 69.5864 121.043 70.4344C121.043 71.2824 121.731 71.9706 122.579 71.9706H134.869C135.717 71.9706 136.405 71.2824 136.405 70.4344C136.405 69.5864 135.717 68.8982 134.869 68.8982Z" fill="#D7F7FA"/>
<path d="M134.869 62.7534H122.579C121.731 62.7534 121.043 63.4416 121.043 64.2896C121.043 65.1376 121.731 65.8258 122.579 65.8258H134.869C135.717 65.8258 136.405 65.1376 136.405 64.2896C136.405 63.4416 135.717 62.7534 134.869 62.7534Z" fill="#D7F7FA"/>
<rect x="105.361" y="62.2412" width="13.4418" height="15.0421" rx="2" fill="#D7F7FA"/>
<path d="M114.338 55.5172V57.7607H114.924V55.5172H114.338Z" fill="#D7F7FA"/>
<path d="M115.36 55.5172V57.7607H115.907V56.4165L116.925 57.7607H117.437V55.5172H116.893V56.8678L115.875 55.5172H115.36Z" fill="#D7F7FA"/>
<path d="M117.652 55.5172L118.522 57.7607H119.13L120.007 55.5172H119.406L118.842 57.1398L118.282 55.5172H117.652Z" fill="#D7F7FA"/>
<path d="M121.283 55.5012C120.588 55.5012 120.07 55.9845 120.07 56.6374C120.07 57.2935 120.588 57.7863 121.283 57.7863C121.977 57.7863 122.496 57.2935 122.496 56.6374C122.496 55.9877 121.977 55.5012 121.283 55.5012ZM121.289 56.0005C121.625 56.0005 121.894 56.2757 121.894 56.6406C121.894 57.0054 121.625 57.2871 121.289 57.2871C120.956 57.2871 120.671 57.0054 120.671 56.6406C120.671 56.2757 120.953 56.0005 121.289 56.0005Z" fill="#D7F7FA"/>
<path d="M122.786 55.5172V57.7607H123.372V55.5172H122.786Z" fill="#D7F7FA"/>
<path d="M125.431 56.2917L125.77 55.8853C125.546 55.6484 125.197 55.5012 124.864 55.5012C124.179 55.5012 123.664 55.9877 123.664 56.6342C123.664 57.2935 124.166 57.7863 124.842 57.7863C125.175 57.7863 125.533 57.6231 125.773 57.3703L125.431 57.0022C125.274 57.1622 125.059 57.2647 124.874 57.2647C124.528 57.2647 124.266 56.9894 124.266 56.6278C124.266 56.2693 124.528 55.9973 124.874 55.9973C125.069 55.9973 125.283 56.1125 125.431 56.2917Z" fill="#D7F7FA"/>
<path d="M126.024 55.5172V57.7607H127.826V57.2935H126.61V56.871L127.678 56.8678V56.4037H126.61V55.9845H127.794V55.5172H126.024Z" fill="#D7F7FA"/>
<defs>
<filter id="filter0_d" x="0.738037" y="8.96484" width="250.128" height="159.897" filterUnits="userSpaceOnUse" color-interpolation-filters="sRGB">
<feFlood flood-opacity="0" result="BackgroundImageFix"/>
<feColorMatrix in="SourceAlpha" type="matrix" values="0 0 0 0 0 0 0 0 0 0 0 0 0 0 0 0 0 0 127 0"/>
<feOffset dy="4"/>
<feGaussianBlur stdDeviation="20"/>
<feColorMatrix type="matrix" values="0 0 0 0 0 0 0 0 0 0 0 0 0 0 0 0 0 0 0.07 0"/>
<feBlend mode="normal" in2="BackgroundImageFix" result="effect1_dropShadow"/>
<feBlend mode="normal" in="SourceGraphic" in2="effect1_dropShadow" result="shape"/>
</filter>
<filter id="filter1_d" x="47.7844" y="0.362061" width="205.111" height="177.056" filterUnits="userSpaceOnUse" color-interpolation-filters="sRGB">
<feFlood flood-opacity="0" result="BackgroundImageFix"/>
<feColorMatrix in="SourceAlpha" type="matrix" values="0 0 0 0 0 0 0 0 0 0 0 0 0 0 0 0 0 0 127 0"/>
<feOffset dy="4"/>
<feGaussianBlur stdDeviation="20"/>
<feColorMatrix type="matrix" values="0 0 0 0 0.904152 0 0 0 0 0.904152 0 0 0 0 0.904152 0 0 0 0.54 0"/>
<feBlend mode="normal" in2="BackgroundImageFix" result="effect1_dropShadow"/>
<feBlend mode="normal" in="SourceGraphic" in2="effect1_dropShadow" result="shape"/>
</filter>
<linearGradient id="paint0_linear" x1="158.776" y1="117.532" x2="155.944" y2="114.699" gradientUnits="userSpaceOnUse">
<stop offset="0.108" stop-color="white"/>
<stop offset="0.433" stop-color="white"/>
</linearGradient>
<linearGradient id="paint1_linear" x1="162.484" y1="112.787" x2="157.712" y2="117.559" gradientUnits="userSpaceOnUse">
<stop stop-color="white"/>
<stop offset="1" stop-color="white"/>
</linearGradient>
<clipPath id="clip0">
<rect width="53.1273" height="53.1273" fill="white" transform="translate(150.257 46.2832)"/>
</clipPath>
<clipPath id="clip1">
<rect width="7.68105" height="7.68105" fill="white" transform="translate(155.377 111.252)"/>
</clipPath>
</defs>
</svg>
