<svg width="69" height="69" viewBox="0 0 69 69" fill="none" xmlns="http://www.w3.org/2000/svg">
<g clip-path="url(#clip0)">
<path d="M46.9911 0.785645H15.0608V56.1315H46.9911V0.785645Z" fill="#3BB3BD"/>
<path d="M46.9913 55.9921V54.5339H15.061V56.1305C49.4287 56.1305 46.9913 56.205 46.9913 55.9921Z" fill="#3BB3BD"/>
<path d="M43.7984 8.23662C42.6693 8.23662 41.5864 7.78808 40.788 6.98967C39.9896 6.19125 39.541 5.10837 39.541 3.97925H22.5115C22.5115 5.10837 22.063 6.19125 21.2646 6.98967C20.4662 7.78808 19.3833 8.23662 18.2542 8.23662V48.6817C19.3833 48.6817 20.4662 49.1302 21.2646 49.9286C22.063 50.727 22.5115 51.8099 22.5115 52.939H43.7984V8.23662Z" fill="#E6E6E6"/>
<path d="M31.0269 35.3772C36.0234 35.3772 40.0738 32.2798 40.0738 28.459C40.0738 24.6382 36.0234 21.5408 31.0269 21.5408C26.0304 21.5408 21.98 24.6382 21.98 28.459C21.98 32.2798 26.0304 35.3772 31.0269 35.3772Z" fill="#3BB3BD"/>
<path d="M31.026 35.3765C25.2573 35.3765 21.4469 31.4651 22.0429 27.66C22.5538 31.1191 26.3801 33.78 31.026 33.78C35.6719 33.78 39.4982 31.1191 40.009 27.66C40.6051 31.4278 36.8373 35.3765 31.026 35.3765Z" fill="#3BB3BD"/>
<path d="M30.4944 47.6164V44.4234C30.4944 44.2823 30.5505 44.1469 30.6503 44.0471C30.7501 43.9473 30.8854 43.8912 31.0266 43.8912C31.1677 43.8912 31.3031 43.9473 31.4029 44.0471C31.5027 44.1469 31.5587 44.2823 31.5587 44.4234V47.6164C31.5587 47.7576 31.5027 47.8929 31.4029 47.9927C31.3031 48.0925 31.1677 48.1486 31.0266 48.1486C30.8854 48.1486 30.7501 48.0925 30.6503 47.9927C30.5505 47.8929 30.4944 47.7576 30.4944 47.6164Z" fill="#3BB3BD"/>
<path d="M30.4944 12.4934V9.30036C30.4944 9.15922 30.5505 9.02386 30.6503 8.92406C30.7501 8.82426 30.8854 8.76819 31.0266 8.76819C31.1677 8.76819 31.3031 8.82426 31.4029 8.92406C31.5027 9.02386 31.5587 9.15922 31.5587 9.30036V12.4934C31.5587 12.6345 31.5027 12.7699 31.4029 12.8697C31.3031 12.9695 31.1677 13.0256 31.0266 13.0256C30.8854 13.0256 30.7501 12.9695 30.6503 12.8697C30.5505 12.7699 30.4944 12.6345 30.4944 12.4934Z" fill="#3BB3BD"/>
<path d="M54.4419 42.7143V67.8381L29.6959 68.1042C28.4301 66.8387 27.4261 65.3362 26.7413 63.6825C26.0564 62.0288 25.7042 60.2564 25.7046 58.4665V56.1303H36.7844C37.4124 54.5604 39.0089 52.5701 39.0089 48.5948C39.0089 46.9663 38.8386 46.4661 37.3166 37.8502C37.2197 37.3797 37.2182 36.8945 37.3122 36.4233C37.4062 35.9522 37.5937 35.5047 37.8637 35.1073C38.1336 34.7099 38.4806 34.3708 38.8839 34.1098C39.2873 33.8489 39.7389 33.6715 40.2121 33.5882C40.6852 33.5049 41.1702 33.5174 41.6385 33.6248C42.1067 33.7323 42.5486 33.9326 42.9381 34.2139C43.3276 34.4951 43.6567 34.8517 43.9059 35.2624C44.1551 35.6731 44.3195 36.1296 44.3891 36.6049L46.9915 51.4099V24.7322C51.7582 29.5031 54.4376 35.9701 54.4419 42.7143Z" fill="#E7E7E7"/>
<path d="M54.4419 66.2426V67.8392L29.6959 68.1052C28.4301 66.8397 27.4261 65.3372 26.7413 63.6836C26.0564 62.0299 25.7042 60.2575 25.7046 58.4676V56.8711C25.7122 58.6627 26.0739 60.4351 26.7689 62.0864C27.5193 64.3321 30.2493 66.5034 33.5169 66.4661L54.4419 66.2426Z" fill="#D8D8D8"/>
<path d="M36.7692 56.1332C36.7692 56.3567 36.7053 56.3886 36.519 56.958C35.7261 59.2411 35.8166 60.8003 35.8166 63.0514C35.8166 63.1926 35.7605 63.3279 35.6607 63.4277C35.5609 63.5275 35.4255 63.5836 35.2844 63.5836C35.1433 63.5836 35.0079 63.5275 34.9081 63.4277C34.8083 63.3279 34.7522 63.1926 34.7522 63.0514C34.7522 60.9227 34.6139 58.6982 35.6782 56.1332H36.7692Z" fill="#D8D8D8"/>
</g>
<defs>
<clipPath id="clip0">
<rect width="68.118" height="68.118" fill="white" transform="translate(0.693359 0.253906)"/>
</clipPath>
</defs>
</svg>
