<svg width="18" height="18" viewBox="0 0 18 18" fill="none" xmlns="http://www.w3.org/2000/svg">
<path fill-rule="evenodd" clip-rule="evenodd" d="M3.61792 0.45399C3.68469 0.18689 3.92468 -0.000488281 4.2 -0.000488281H9.79325C12.67 -0.000488281 14.8228 2.34848 14.8376 5.00599C17.1512 5.75741 18.4634 8.42726 17.3634 10.8106C16.5224 12.6327 14.6988 13.7995 12.692 13.7995H11.2526L10.1769 17.5643C10.1033 17.8219 9.86789 17.9995 9.6 17.9995H4.8C4.61524 17.9995 4.44078 17.9144 4.32708 17.7688C4.21338 17.6231 4.17311 17.4332 4.21792 17.254L4.63154 15.5995H0.600005C0.415244 15.5995 0.240786 15.5144 0.127082 15.3688C0.0133779 15.2231 -0.0268912 15.0332 0.0179199 14.854L3.61792 0.45399ZM9.79325 1.19951C11.9078 1.19951 13.509 2.86533 13.6293 4.80092C13.5922 4.79998 13.5548 4.79951 13.5173 4.79951H7.8C7.52468 4.79951 7.28469 4.98689 7.21792 5.25399L4.93154 14.3995H1.36847L4.66847 1.19951H9.79325ZM8.75395 10.7995H7.06847L5.56847 16.7995H9.14742L10.2231 13.0347C10.2967 12.7771 10.5321 12.5995 10.8 12.5995H12.692C14.2307 12.5995 15.629 11.7048 16.2738 10.3077C17.0254 8.67939 16.2059 6.86446 14.6913 6.23185C14.6437 6.42449 14.5842 6.61713 14.5122 6.80901C13.6121 9.20932 11.3175 10.7995 8.75395 10.7995Z" fill="white"/>
</svg>
