<svg width="109" height="29" viewBox="0 0 109 29" fill="none" xmlns="http://www.w3.org/2000/svg">
<path d="M83.7728 8.09821H77.9428C77.5998 8.09821 77.2569 8.44115 77.0854 8.78409L74.6848 23.8736C74.6848 24.2165 74.8563 24.388 75.1992 24.388H78.2857C78.6287 24.388 78.8001 24.2165 78.8001 23.8736L79.486 19.5868C79.486 19.2439 79.829 18.9009 80.3434 18.9009H82.2296C86.1734 18.9009 88.4025 17.0147 88.9169 13.2423C89.2599 11.6991 88.9169 10.3273 88.2311 9.46998C87.2022 8.61262 85.659 8.09821 83.7728 8.09821ZM84.4587 13.7568C84.1157 15.8144 82.5725 15.8144 81.0293 15.8144H80.0004L80.6863 11.8706C80.6863 11.6991 80.8578 11.5276 81.2007 11.5276H81.5437C82.5725 11.5276 83.6013 11.5276 84.1157 12.2135C84.4587 12.385 84.4587 12.8994 84.4587 13.7568Z" fill="#139AD6"/>
<path d="M41.7623 8.09821H35.9323C35.5893 8.09821 35.2464 8.44115 35.0749 8.78409L32.6743 23.8736C32.6743 24.2165 32.8458 24.388 33.1887 24.388H35.9323C36.2752 24.388 36.6182 24.045 36.7896 23.7021L37.4755 19.5868C37.4755 19.2439 37.8185 18.9009 38.3329 18.9009H40.2191C44.1629 18.9009 46.392 17.0147 46.9065 13.2423C47.2494 11.6991 46.9064 10.3273 46.2206 9.46998C45.1917 8.61262 43.82 8.09821 41.7623 8.09821ZM42.4482 13.7568C42.1052 15.8144 40.562 15.8144 39.0188 15.8144H38.1614L38.8473 11.8706C38.8473 11.6991 39.0188 11.5276 39.3617 11.5276H39.7046C40.7335 11.5276 41.7623 11.5276 42.2767 12.2135C42.4482 12.385 42.6197 12.8994 42.4482 13.7568ZM59.4239 13.5853H56.6803C56.5089 13.5853 56.1659 13.7568 56.1659 13.9282L55.9944 14.7856L55.823 14.4426C55.1371 13.5853 53.9368 13.2423 52.565 13.2423C49.4785 13.2423 46.735 15.6429 46.2206 18.9009C45.8776 20.6156 46.392 22.1589 47.2494 23.1877C48.1067 24.2165 49.307 24.5595 50.8503 24.5595C53.4224 24.5595 54.7941 23.0162 54.7941 23.0162L54.6227 23.8736C54.6227 24.2165 54.7941 24.388 55.1371 24.388H57.7092C58.0521 24.388 58.395 24.045 58.5665 23.7021L60.1098 14.0997C59.9383 13.9282 59.5953 13.5853 59.4239 13.5853ZM55.48 19.0724C55.1371 20.6156 53.9368 21.8159 52.2221 21.8159C51.3647 21.8159 50.6788 21.473 50.3359 21.13C49.9929 20.6156 49.8215 19.9297 49.8215 19.0724C49.9929 17.5291 51.3647 16.3288 52.908 16.3288C53.7653 16.3288 54.2797 16.6718 54.7941 17.0147C55.3085 17.5291 55.48 18.3865 55.48 19.0724Z" fill="#263B80"/>
<path d="M101.261 13.5853H98.5176C98.3461 13.5853 98.0032 13.7568 98.0032 13.9283L97.8317 14.7856L97.6603 14.4427C96.9744 13.5853 95.7741 13.2424 94.4023 13.2424C91.3158 13.2424 88.5723 15.643 88.0579 18.9009C87.7149 20.6156 88.2293 22.1589 89.0867 23.1877C89.944 24.2165 91.1443 24.5595 92.6876 24.5595C95.2597 24.5595 96.6314 23.0162 96.6314 23.0162L96.46 23.8736C96.46 24.2165 96.6314 24.388 96.9744 24.388H99.5464C99.8894 24.388 100.232 24.0451 100.404 23.7021L101.947 14.0997C101.776 13.9283 101.604 13.5853 101.261 13.5853ZM97.3173 19.0724C96.9744 20.6156 95.7741 21.8159 94.0594 21.8159C93.202 21.8159 92.5161 21.473 92.1732 21.1301C91.8302 20.6156 91.6588 19.9298 91.6588 19.0724C91.8302 17.5292 93.202 16.3289 94.7452 16.3289C95.6026 16.3289 96.117 16.6718 96.6314 17.0147C97.3173 17.5292 97.4888 18.3865 97.3173 19.0724Z" fill="#139AD6"/>
<path d="M74.3412 13.5852H71.4262C71.0833 13.5852 70.9118 13.7567 70.7403 13.9281L66.968 19.7582L65.2533 14.2711C65.0818 13.9281 64.9103 13.7567 64.3959 13.7567H61.6524C61.3094 13.7567 61.1379 14.0996 61.1379 14.4426L64.2244 23.5306L61.3094 27.6459C61.1379 27.9888 61.3094 28.5032 61.6524 28.5032H64.3959C64.7388 28.5032 64.9103 28.3318 65.0818 28.1603L74.5127 14.614C75.0271 14.0996 74.6842 13.5852 74.3412 13.5852Z" fill="#263B80"/>
<path d="M104.521 8.61267L102.12 24.0451C102.12 24.388 102.292 24.5595 102.635 24.5595H105.035C105.378 24.5595 105.721 24.2166 105.893 23.8736L108.293 8.78414C108.293 8.4412 108.122 8.26972 107.779 8.26972H105.035C104.864 8.09825 104.692 8.26972 104.521 8.61267Z" fill="#139AD6"/>
<path d="M19.9848 2.95414C18.7845 1.58237 16.5554 0.896484 13.4689 0.896484H4.89535C4.38094 0.896484 3.86653 1.4109 3.69505 1.92531L0.265625 24.3881C0.265625 24.9025 0.608568 25.2454 0.951511 25.2454H6.26713L7.6389 16.8433V17.1863C7.81037 16.6719 8.32478 16.1574 8.8392 16.1574H11.4113C16.3839 16.1574 20.1563 14.0998 21.3566 8.44123C21.3566 8.26976 21.3566 8.09829 21.3566 7.92682C21.1851 7.92682 21.1851 7.92682 21.3566 7.92682C21.5281 5.69769 21.1851 4.32592 19.9848 2.95414Z" fill="#263B80"/>
<path d="M21.1839 7.927C21.1839 8.09847 21.1839 8.26994 21.1839 8.44142C19.9836 14.2714 16.2112 16.1576 11.2386 16.1576H8.66648C8.15207 16.1576 7.63765 16.672 7.46618 17.1865L5.75146 27.6462C5.75146 27.9892 5.92294 28.3321 6.43735 28.3321H10.8956C11.41 28.3321 11.9244 27.9892 11.9244 27.4747V27.3033L12.7818 21.9877V21.6447C12.7818 21.1303 13.2962 20.7874 13.8106 20.7874H14.4965C18.7833 20.7874 22.2127 19.0726 23.0701 13.9285C23.413 11.8708 23.2416 9.98466 22.2127 8.78436C22.0413 8.44142 21.6983 8.09847 21.1839 7.927Z" fill="#139AD6"/>
<path d="M19.9861 7.41242C19.8146 7.41242 19.6431 7.24095 19.4717 7.24095C19.3002 7.24095 19.1287 7.24095 18.9573 7.06948C18.2714 6.89801 17.5855 6.89801 16.7281 6.89801H10.0407C9.86927 6.89801 9.69779 6.89801 9.52632 7.06948C9.18338 7.24095 9.01191 7.5839 9.01191 7.92684L7.64014 16.8434V17.1863C7.81161 16.6719 8.32602 16.1575 8.84044 16.1575H11.4125C16.3852 16.1575 20.1576 14.0998 21.3579 8.44125C21.3579 8.26978 21.3579 8.09831 21.5293 7.92684C21.1864 7.75537 21.0149 7.5839 20.672 7.5839C20.1576 7.41242 20.1576 7.41242 19.9861 7.41242Z" fill="#232C65"/>
</svg>
