<svg width="74" height="74" viewBox="0 0 74 74" fill="none" xmlns="http://www.w3.org/2000/svg">
<g clip-path="url(#clip0)">
<path d="M59.8384 21.499C60.6365 21.499 61.2837 20.852 61.2837 20.0537V4.33594C61.2837 1.9451 59.3386 0 56.9478 0H4.33838C1.94754 0 0.00244141 1.9451 0.00244141 4.33594V69.6641C0.00244141 72.0549 1.94754 74 4.33838 74H56.9478C59.3386 74 61.2837 72.0549 61.2837 69.6641V59.0162C61.2837 58.2179 60.6365 57.5708 59.8384 57.5708C59.0403 57.5708 58.3931 58.2179 58.3931 59.0162V69.6641C58.3931 70.461 57.7447 71.1094 56.9478 71.1094H4.33838C3.54143 71.1094 2.89307 70.461 2.89307 69.6641V4.33594C2.89307 3.53899 3.54143 2.89062 4.33838 2.89062H56.9478C57.7447 2.89062 58.3931 3.53899 58.3931 4.33594V20.0537C58.3931 20.852 59.0403 21.499 59.8384 21.499Z" fill="#3C6A7A"/>
<path d="M30.6416 7.80499C23.3097 7.80499 17.3447 13.7699 17.3447 21.1019C17.3447 24.9055 18.9505 28.3407 21.5191 30.7665C21.5672 30.818 21.6184 30.8667 21.6743 30.9111C24.0404 33.076 27.1893 34.3986 30.6415 34.3986C34.0936 34.3986 37.2425 33.0758 39.6086 30.9111C39.6645 30.8667 39.7157 30.8178 39.7638 30.7665C42.3327 28.3407 43.9385 24.9055 43.9385 21.1019C43.9385 13.7699 37.9735 7.80499 30.6416 7.80499ZM30.6416 31.5081C28.2816 31.5081 26.1035 30.7172 24.3558 29.3881C25.6261 27.1356 27.9965 25.7269 30.6416 25.7269C33.2867 25.7269 35.6571 27.1356 36.9274 29.3881C35.1796 30.7172 33.0017 31.5081 30.6416 31.5081ZM28.3291 20.5237V19.5843C28.3291 18.3092 29.3665 17.2718 30.6416 17.2718C31.9167 17.2718 32.9541 18.3092 32.9541 19.5843V20.5237C32.9541 21.7988 31.9167 22.8362 30.6416 22.8362C29.3665 22.8362 28.3291 21.7988 28.3291 20.5237ZM39.0157 27.2709C37.9498 25.69 36.4726 24.4605 34.7574 23.7014C35.4382 22.8216 35.8447 21.7196 35.8447 20.5237V19.5843C35.8447 16.7152 33.5107 14.3812 30.6416 14.3812C27.7725 14.3812 25.4385 16.7152 25.4385 19.5843V20.5237C25.4385 21.7196 25.845 22.8216 26.5258 23.7014C24.8106 24.4605 23.3334 25.69 22.2675 27.2709C20.9914 25.5433 20.2354 23.4096 20.2354 21.1019C20.2354 15.3638 24.9036 10.6956 30.6416 10.6956C36.3796 10.6956 41.0478 15.3638 41.0478 21.1019C41.0478 23.4096 40.2918 25.5433 39.0157 27.2709Z" fill="#3BB3BD"/>
<path d="M38.4463 63.3055H30.6416C29.8435 63.3055 29.1963 63.9525 29.1963 64.7508C29.1963 65.549 29.8435 66.1961 30.6416 66.1961H38.4463C39.2444 66.1961 39.8916 65.549 39.8916 64.7508C39.8916 63.9525 39.2444 63.3055 38.4463 63.3055Z" fill="#3C6A7A"/>
<path d="M38.4463 55.2108H17.9229C17.1247 55.2108 16.4775 55.8578 16.4775 56.6561C16.4775 57.4543 17.1247 58.1014 17.9229 58.1014H38.4463C39.2444 58.1014 39.8916 57.4543 39.8916 56.6561C39.8916 55.8578 39.2444 55.2108 38.4463 55.2108Z" fill="#3C6A7A"/>
<path d="M38.4463 47.1173H17.9229C17.1247 47.1173 16.4775 47.7644 16.4775 48.5626C16.4775 49.3609 17.1247 50.0079 17.9229 50.0079H38.4463C39.2444 50.0079 39.8916 49.3609 39.8916 48.5626C39.8916 47.7644 39.2444 47.1173 38.4463 47.1173Z" fill="#3C6A7A"/>
<path d="M12.7717 39.4473C12.503 39.1785 12.1301 39.0238 11.7485 39.0238C11.3683 39.0238 10.9954 39.1785 10.7267 39.4473C10.4579 39.7161 10.3032 40.089 10.3032 40.4691C10.3032 40.8492 10.4577 41.2221 10.7267 41.4909C10.997 41.7598 11.3683 41.9144 11.7485 41.9144C12.1301 41.9144 12.5015 41.7598 12.7717 41.4909C13.0405 41.2221 13.1953 40.8492 13.1953 40.4691C13.1953 40.089 13.0406 39.7161 12.7717 39.4473Z" fill="#3C6A7A"/>
<path d="M12.7717 47.5408C12.5015 47.272 12.1301 47.1173 11.7485 47.1173C11.3683 47.1173 10.997 47.272 10.7267 47.5408C10.4579 47.8096 10.3032 48.1825 10.3032 48.5626C10.3032 48.9427 10.4577 49.3156 10.7267 49.5845C10.997 49.8533 11.3683 50.0079 11.7485 50.0079C12.1301 50.0079 12.5015 49.8533 12.7717 49.5845C13.0405 49.3156 13.1953 48.9427 13.1953 48.5626C13.1953 48.1825 13.0406 47.8096 12.7717 47.5408Z" fill="#3C6A7A"/>
<path d="M12.7717 55.6342C12.5015 55.3654 12.1301 55.2108 11.7485 55.2108C11.3683 55.2108 10.997 55.3654 10.7267 55.6342C10.4579 55.9031 10.3032 56.2759 10.3032 56.6561C10.3032 57.0362 10.4577 57.4091 10.7267 57.6779C10.9954 57.9467 11.3683 58.1014 11.7485 58.1014C12.1301 58.1014 12.503 57.9467 12.7717 57.6779C13.0405 57.4091 13.1953 57.0362 13.1953 56.6561C13.1953 56.2759 13.0406 55.9031 12.7717 55.6342Z" fill="#3C6A7A"/>
<path d="M38.4463 39.0238H17.9229C17.1247 39.0238 16.4775 39.6709 16.4775 40.4691C16.4775 41.2674 17.1247 41.9144 17.9229 41.9144H38.4463C39.2444 41.9144 39.8916 41.2674 39.8916 40.4691C39.8916 39.6709 39.2444 39.0238 38.4463 39.0238Z" fill="#3C6A7A"/>
<path d="M70.9652 18.8354C69.561 18.0248 67.9252 17.8094 66.3588 18.229C64.7927 18.6487 63.4835 19.6532 62.673 21.0573L44.4849 52.5598C44.3853 52.7325 44.3223 52.924 44.3002 53.1222L43.0199 64.5899C42.9563 65.1605 43.2364 65.7147 43.7336 66.0019C43.9581 66.1314 44.2074 66.1956 44.4561 66.1956C44.7585 66.1956 45.0597 66.1009 45.3133 65.9141L54.6044 59.0714C54.765 58.9531 54.8994 58.803 54.9989 58.6303L73.1869 27.1278C74.8606 24.2291 73.8639 20.5091 70.9652 18.8354ZM46.2591 61.6274L46.9277 55.6392L51.1108 58.0543L46.2591 61.6274ZM53.2183 55.9332L47.711 52.7535L62.3064 27.4735L67.8138 30.6532L53.2183 55.9332ZM70.6836 25.6823L69.259 28.1499L63.7516 24.9702L65.1763 22.5026C65.6009 21.7671 66.2865 21.241 67.1069 21.0212C67.9276 20.8012 68.7843 20.9142 69.5197 21.3389C70.2552 21.7635 70.7813 22.4492 71.0012 23.2695C71.221 24.0899 71.1082 24.9468 70.6836 25.6823Z" fill="#3C6A7A"/>
</g>
<defs>
<clipPath id="clip0">
<rect width="74" height="74" fill="white"/>
</clipPath>
</defs>
</svg>
