<svg width="349" height="157" viewBox="0 0 349 157" fill="none" xmlns="http://www.w3.org/2000/svg">
<path fill-rule="evenodd" clip-rule="evenodd" d="M19.08 156.08C39.73 124.26 83.2201 113.56 122.54 130.59C141.8 138.98 160.45 153.35 180.03 155.15C225.31 159.2 242.52 95.52 286.6 92.67C323.87 90.28 360.6 132.31 399.09 137.22C428.01 140.95 453.38 119.65 455.81 89.64L448.39 64.55C445.95 94.55 420.58 115.85 391.57 112.15C353.12 107.24 316.34 65.21 279.07 67.6C235 70.45 217.79 134.13 172.51 130.07C152.97 128.36 134.24 113.94 115.02 105.52C75.73 88.43 32.2 99.19 11.55 131.01L19.08 156.08Z" fill="#E63946" fill-opacity="0.62"/>
<path fill-rule="evenodd" clip-rule="evenodd" d="M7.42 91.53C28.08 59.71 71.57 49.01 110.89 66.04C130.15 74.43 148.8 88.8 168.38 90.6C213.66 94.6 230.87 30.97 274.95 28.12C312.21 25.73 348.95 67.76 387.44 72.67C416.44 76.43 441.8 55.13 444.16 25.09L436.74 0C434.37 30 408.99 51.34 380.01 47.58C341.57 42.67 304.79 0.629999 267.52 3.03C223.44 5.88 206.23 69.56 160.95 65.5C141.42 63.79 122.72 49.34 103.46 40.95C64.17 23.86 20.65 34.62 0 66.43L7.42 91.53Z" fill="#E63946" fill-opacity="0.62"/>
</svg>
