<svg width="254" height="178" viewBox="0 0 254 178" fill="none" xmlns="http://www.w3.org/2000/svg">
<path d="M28 23.5682C28 22.1498 29.1498 21 30.5682 21H218.619C220.037 21 221.187 22.1498 221.187 23.5682V138.798C221.187 140.217 220.037 141.366 218.619 141.366H30.5682C29.1498 141.366 28 140.217 28 138.798V23.5682Z" fill="#F8F6F8"/>
<path d="M28 23.5682C28 22.1498 29.1498 21 30.5682 21H218.619C220.037 21 221.187 22.1498 221.187 23.5682V30.6306H28V23.5682Z" fill="#3C6A7A"/>
<g filter="url(#filter0_d)">
<path d="M40.7769 47.6065C40.7769 46.1881 41.9267 45.0383 43.345 45.0383H208.856C210.275 45.0383 211.424 46.1881 211.424 47.6065V122.611C211.424 124.029 210.275 125.179 208.856 125.179H43.345C41.9267 125.179 40.7769 124.029 40.7769 122.611V47.6065Z" fill="white"/>
</g>
<g filter="url(#filter1_d)">
<path d="M87.967 38.3587C87.967 37.295 88.8294 36.4326 89.8932 36.4326H211.534C212.598 36.4326 213.46 37.295 213.46 38.3587V131.859C213.46 132.922 212.598 133.785 211.534 133.785H89.8932C88.8294 133.785 87.967 132.922 87.967 131.859V38.3587Z" fill="white"/>
</g>
<path d="M98.5164 61.7339C98.5164 52.5132 106.08 45.0383 115.301 45.0383C124.522 45.0383 132.086 52.5132 132.086 61.7339C132.086 70.9545 124.522 78.4294 115.301 78.4294C106.08 78.4294 98.5164 70.9545 98.5164 61.7339Z" fill="#D7F7FA"/>
<path fill-rule="evenodd" clip-rule="evenodd" d="M115.301 51.6755C112.523 51.6755 110.272 53.9272 110.272 56.7047V58.7163C110.272 61.4938 112.523 63.7455 115.301 63.7455C118.078 63.7455 120.33 61.4938 120.33 58.7163V56.7047C120.33 53.9272 118.078 51.6755 115.301 51.6755ZM115.301 65.7571C111.769 65.7525 108.299 66.6825 105.243 68.4527V71.7921H125.359V68.4527C122.402 66.7328 118.962 65.7571 115.301 65.7571Z" fill="#3BB3BD"/>
<path d="M98.4407 86.9242C98.4407 85.8615 99.871 85 101.635 85H139.246C141.01 85 142.441 85.8615 142.441 86.9242V96.0758C142.441 97.1385 141.01 98 139.246 98H101.635C99.871 98 98.4407 97.1385 98.4407 96.0758V86.9242Z" fill="#EAF3FC"/>
<path d="M131 102.926C131 101.862 131.862 101 132.926 101H147.898C148.962 101 149.824 101.862 149.824 102.926V112.087C149.824 113.151 148.962 114.013 147.898 114.013H132.926C131.862 114.013 131 113.151 131 112.087V102.926Z" fill="#EAF3FC"/>
<path d="M138.821 109.007H137.169L136.823 110H136.053L137.664 105.734H138.329L139.943 110H139.17L138.821 109.007ZM137.377 108.409H138.613L137.995 106.64L137.377 108.409ZM142.021 107.48C141.927 107.465 141.83 107.457 141.73 107.457C141.404 107.457 141.185 107.582 141.071 107.832V110H140.359V106.83H141.039L141.057 107.185C141.229 106.909 141.467 106.771 141.771 106.771C141.873 106.771 141.957 106.785 142.023 106.812L142.021 107.48ZM143.509 106.06V106.83H144.068V107.357H143.509V109.127C143.509 109.248 143.532 109.336 143.579 109.391C143.628 109.443 143.714 109.47 143.837 109.47C143.919 109.47 144.002 109.46 144.086 109.44V109.991C143.924 110.036 143.768 110.059 143.617 110.059C143.07 110.059 142.797 109.757 142.797 109.153V107.357H142.275V106.83H142.797V106.06H143.509Z" fill="#92A1AF"/>
<path d="M145 86.9261C145 85.8624 145.862 85 146.926 85H206.841C207.905 85 208.767 85.8624 208.767 86.9261V96.0871C208.767 97.1509 207.905 98.0133 206.841 98.0133H146.926C145.862 98.0133 145 97.1509 145 96.0871V86.9261Z" fill="#EAF3FC"/>
<path d="M164.434 94V89.7344H165.896C166.378 89.7344 166.745 89.8311 166.997 90.0244C167.249 90.2178 167.375 90.5059 167.375 90.8887C167.375 91.084 167.322 91.2598 167.217 91.416C167.111 91.5723 166.957 91.6934 166.754 91.7793C166.984 91.8418 167.162 91.96 167.287 92.1338C167.414 92.3057 167.478 92.5127 167.478 92.7549C167.478 93.1553 167.349 93.4629 167.091 93.6777C166.835 93.8926 166.468 94 165.989 94H164.434ZM165.175 92.0752V93.4082H165.998C166.23 93.4082 166.412 93.3506 166.543 93.2354C166.674 93.1201 166.739 92.96 166.739 92.7549C166.739 92.3115 166.513 92.085 166.06 92.0752H165.175ZM165.175 91.5303H165.901C166.132 91.5303 166.312 91.4785 166.44 91.375C166.571 91.2695 166.637 91.1211 166.637 90.9297C166.637 90.7188 166.576 90.5664 166.455 90.4727C166.336 90.3789 166.149 90.332 165.896 90.332H165.175V91.5303ZM170.044 94C170.013 93.9395 169.985 93.8408 169.962 93.7041C169.735 93.9404 169.458 94.0586 169.13 94.0586C168.812 94.0586 168.552 93.9678 168.351 93.7861C168.149 93.6045 168.049 93.3799 168.049 93.1123C168.049 92.7744 168.174 92.5156 168.424 92.3359C168.676 92.1543 169.035 92.0635 169.502 92.0635H169.938V91.8555C169.938 91.6914 169.893 91.5605 169.801 91.4629C169.709 91.3633 169.569 91.3135 169.382 91.3135C169.22 91.3135 169.087 91.3545 168.983 91.4365C168.88 91.5166 168.828 91.6191 168.828 91.7441H168.116C168.116 91.5703 168.174 91.4082 168.289 91.2578C168.404 91.1055 168.561 90.9863 168.758 90.9004C168.957 90.8145 169.179 90.7715 169.423 90.7715C169.794 90.7715 170.09 90.8652 170.311 91.0527C170.531 91.2383 170.645 91.5 170.65 91.8379V93.2676C170.65 93.5527 170.69 93.7803 170.771 93.9502V94H170.044ZM169.262 93.4873C169.402 93.4873 169.534 93.4531 169.657 93.3848C169.782 93.3164 169.876 93.2246 169.938 93.1094V92.5117H169.555C169.291 92.5117 169.093 92.5576 168.96 92.6494C168.827 92.7412 168.761 92.8711 168.761 93.0391C168.761 93.1758 168.806 93.2852 168.896 93.3672C168.987 93.4473 169.109 93.4873 169.262 93.4873ZM173.173 93.1387C173.173 93.0117 173.12 92.915 173.015 92.8486C172.911 92.7822 172.738 92.7236 172.496 92.6729C172.254 92.6221 172.052 92.5576 171.89 92.4795C171.534 92.3076 171.356 92.0586 171.356 91.7324C171.356 91.459 171.472 91.2305 171.702 91.0469C171.933 90.8633 172.226 90.7715 172.581 90.7715C172.96 90.7715 173.266 90.8652 173.498 91.0527C173.732 91.2402 173.85 91.4834 173.85 91.7822H173.138C173.138 91.6455 173.087 91.5322 172.985 91.4424C172.884 91.3506 172.749 91.3047 172.581 91.3047C172.425 91.3047 172.297 91.3408 172.197 91.4131C172.1 91.4854 172.051 91.582 172.051 91.7031C172.051 91.8125 172.097 91.8975 172.188 91.958C172.28 92.0186 172.466 92.0801 172.745 92.1426C173.024 92.2031 173.243 92.2764 173.401 92.3623C173.562 92.4463 173.68 92.5479 173.756 92.667C173.834 92.7861 173.873 92.9307 173.873 93.1006C173.873 93.3857 173.755 93.6172 173.519 93.7949C173.282 93.9707 172.973 94.0586 172.59 94.0586C172.33 94.0586 172.099 94.0117 171.896 93.918C171.692 93.8242 171.534 93.6953 171.421 93.5312C171.308 93.3672 171.251 93.1904 171.251 93.001H171.942C171.952 93.1689 172.016 93.2988 172.133 93.3906C172.25 93.4805 172.405 93.5254 172.599 93.5254C172.786 93.5254 172.929 93.4902 173.026 93.4199C173.124 93.3477 173.173 93.2539 173.173 93.1387ZM175.525 92.6406L175.209 92.9658V94H174.497V89.5H175.209V92.0957L175.432 91.8174L176.308 90.8301H177.163L175.985 92.1514L177.289 94H176.466L175.525 92.6406ZM178.968 94.0586C178.517 94.0586 178.15 93.917 177.869 93.6338C177.59 93.3486 177.45 92.9697 177.45 92.4971V92.4092C177.45 92.0928 177.511 91.8105 177.632 91.5625C177.755 91.3125 177.927 91.1182 178.147 90.9795C178.368 90.8408 178.614 90.7715 178.886 90.7715C179.317 90.7715 179.65 90.9092 179.885 91.1846C180.121 91.46 180.239 91.8496 180.239 92.3535V92.6406H178.168C178.189 92.9023 178.276 93.1094 178.429 93.2617C178.583 93.4141 178.776 93.4902 179.009 93.4902C179.335 93.4902 179.601 93.3584 179.806 93.0947L180.189 93.4609C180.062 93.6504 179.893 93.7979 179.68 93.9033C179.469 94.0068 179.231 94.0586 178.968 94.0586ZM178.883 91.3428C178.688 91.3428 178.529 91.4111 178.408 91.5479C178.289 91.6846 178.213 91.875 178.18 92.1191H179.536V92.0664C179.521 91.8281 179.457 91.6484 179.346 91.5273C179.234 91.4043 179.08 91.3428 178.883 91.3428ZM183.576 92.4473C183.576 92.9395 183.466 93.3311 183.245 93.6221C183.026 93.9131 182.725 94.0586 182.34 94.0586C181.969 94.0586 181.68 93.9248 181.473 93.6572L181.438 94H180.793V89.5H181.505V91.1348C181.71 90.8926 181.986 90.7715 182.334 90.7715C182.721 90.7715 183.024 90.915 183.245 91.2021C183.466 91.4893 183.576 91.8906 183.576 92.4062V92.4473ZM182.864 92.3857C182.864 92.042 182.804 91.7842 182.683 91.6123C182.562 91.4404 182.386 91.3545 182.155 91.3545C181.847 91.3545 181.63 91.4893 181.505 91.7588V93.0654C181.632 93.3408 181.851 93.4785 182.161 93.4785C182.384 93.4785 182.556 93.3955 182.677 93.2295C182.798 93.0635 182.86 92.8125 182.864 92.4766V92.3857ZM186.069 94C186.038 93.9395 186.011 93.8408 185.987 93.7041C185.761 93.9404 185.483 94.0586 185.155 94.0586C184.837 94.0586 184.577 93.9678 184.376 93.7861C184.175 93.6045 184.074 93.3799 184.074 93.1123C184.074 92.7744 184.199 92.5156 184.449 92.3359C184.701 92.1543 185.061 92.0635 185.527 92.0635H185.964V91.8555C185.964 91.6914 185.918 91.5605 185.826 91.4629C185.734 91.3633 185.595 91.3135 185.407 91.3135C185.245 91.3135 185.112 91.3545 185.009 91.4365C184.905 91.5166 184.854 91.6191 184.854 91.7441H184.142C184.142 91.5703 184.199 91.4082 184.314 91.2578C184.43 91.1055 184.586 90.9863 184.783 90.9004C184.982 90.8145 185.204 90.7715 185.448 90.7715C185.819 90.7715 186.115 90.8652 186.336 91.0527C186.557 91.2383 186.67 91.5 186.676 91.8379V93.2676C186.676 93.5527 186.716 93.7803 186.796 93.9502V94H186.069ZM185.287 93.4873C185.428 93.4873 185.56 93.4531 185.683 93.3848C185.808 93.3164 185.901 93.2246 185.964 93.1094V92.5117H185.58C185.316 92.5117 185.118 92.5576 184.985 92.6494C184.853 92.7412 184.786 92.8711 184.786 93.0391C184.786 93.1758 184.831 93.2852 184.921 93.3672C185.013 93.4473 185.135 93.4873 185.287 93.4873ZM188.179 94H187.467V89.5H188.179V94ZM189.714 94H189.002V89.5H189.714V94Z" fill="#92A1AF"/>
<path d="M99 102.926C99 101.862 99.8624 101 100.926 101H126.608C127.672 101 128.534 101.862 128.534 102.926V112.236C128.534 113.3 127.672 114.162 126.608 114.162H100.926C99.8624 114.162 99 113.3 99 112.236V102.926Z" fill="#EAF3FC"/>
<path d="M104.377 93.0713L105.461 89.7344H106.276L104.74 94H104.023L102.493 89.7344H103.305L104.377 93.0713ZM108.449 94C108.418 93.9395 108.391 93.8408 108.367 93.7041C108.141 93.9404 107.864 94.0586 107.535 94.0586C107.217 94.0586 106.957 93.9678 106.756 93.7861C106.555 93.6045 106.454 93.3799 106.454 93.1123C106.454 92.7744 106.579 92.5156 106.829 92.3359C107.081 92.1543 107.441 92.0635 107.907 92.0635H108.344V91.8555C108.344 91.6914 108.298 91.5605 108.206 91.4629C108.115 91.3633 107.975 91.3135 107.787 91.3135C107.625 91.3135 107.492 91.3545 107.389 91.4365C107.285 91.5166 107.234 91.6191 107.234 91.7441H106.522C106.522 91.5703 106.579 91.4082 106.695 91.2578C106.81 91.1055 106.966 90.9863 107.163 90.9004C107.363 90.8145 107.584 90.7715 107.828 90.7715C108.199 90.7715 108.495 90.8652 108.716 91.0527C108.937 91.2383 109.05 91.5 109.056 91.8379V93.2676C109.056 93.5527 109.096 93.7803 109.176 93.9502V94H108.449ZM107.667 93.4873C107.808 93.4873 107.94 93.4531 108.063 93.3848C108.188 93.3164 108.281 93.2246 108.344 93.1094V92.5117H107.96C107.697 92.5117 107.498 92.5576 107.365 92.6494C107.233 92.7412 107.166 92.8711 107.166 93.0391C107.166 93.1758 107.211 93.2852 107.301 93.3672C107.393 93.4473 107.515 93.4873 107.667 93.4873ZM110.559 94H109.847V89.5H110.559V94ZM112.733 94.0586C112.281 94.0586 111.915 93.917 111.634 93.6338C111.355 93.3486 111.215 92.9697 111.215 92.4971V92.4092C111.215 92.0928 111.276 91.8105 111.397 91.5625C111.52 91.3125 111.692 91.1182 111.912 90.9795C112.133 90.8408 112.379 90.7715 112.651 90.7715C113.082 90.7715 113.415 90.9092 113.65 91.1846C113.886 91.46 114.004 91.8496 114.004 92.3535V92.6406H111.933C111.954 92.9023 112.041 93.1094 112.194 93.2617C112.348 93.4141 112.541 93.4902 112.774 93.4902C113.1 93.4902 113.365 93.3584 113.571 93.0947L113.954 93.4609C113.827 93.6504 113.657 93.7979 113.445 93.9033C113.234 94.0068 112.996 94.0586 112.733 94.0586ZM112.648 91.3428C112.452 91.3428 112.294 91.4111 112.173 91.5479C112.054 91.6846 111.978 91.875 111.945 92.1191H113.301V92.0664C113.285 91.8281 113.222 91.6484 113.111 91.5273C112.999 91.4043 112.845 91.3428 112.648 91.3428ZM114.426 92.3916C114.426 91.9033 114.539 91.5117 114.766 91.2168C114.992 90.9199 115.296 90.7715 115.677 90.7715C116.013 90.7715 116.284 90.8887 116.491 91.123V89.5H117.203V94H116.559L116.524 93.6719C116.311 93.9297 116.027 94.0586 115.671 94.0586C115.3 94.0586 114.999 93.9092 114.769 93.6104C114.54 93.3115 114.426 92.9053 114.426 92.3916ZM115.138 92.4531C115.138 92.7754 115.199 93.0273 115.323 93.209C115.448 93.3887 115.624 93.4785 115.853 93.4785C116.144 93.4785 116.357 93.3486 116.491 93.0889V91.7354C116.361 91.4814 116.15 91.3545 115.859 91.3545C115.628 91.3545 115.45 91.4463 115.325 91.6299C115.2 91.8115 115.138 92.0859 115.138 92.4531ZM118.703 94H117.991V90.8301H118.703V94ZM117.948 90.0068C117.948 89.8975 117.982 89.8066 118.05 89.7344C118.12 89.6621 118.22 89.626 118.349 89.626C118.478 89.626 118.577 89.6621 118.648 89.7344C118.718 89.8066 118.753 89.8975 118.753 90.0068C118.753 90.1143 118.718 90.2041 118.648 90.2764C118.577 90.3467 118.478 90.3818 118.349 90.3818C118.22 90.3818 118.12 90.3467 118.05 90.2764C117.982 90.2041 117.948 90.1143 117.948 90.0068ZM120.783 93.4902C120.961 93.4902 121.109 93.4385 121.226 93.335C121.343 93.2314 121.406 93.1035 121.413 92.9512H122.084C122.076 93.1484 122.015 93.333 121.9 93.5049C121.784 93.6748 121.628 93.8096 121.431 93.9092C121.234 94.0088 121.021 94.0586 120.792 94.0586C120.349 94.0586 119.997 93.915 119.738 93.6279C119.478 93.3408 119.348 92.9443 119.348 92.4385V92.3652C119.348 91.8828 119.477 91.4971 119.735 91.208C119.992 90.917 120.344 90.7715 120.789 90.7715C121.166 90.7715 121.473 90.8818 121.709 91.1025C121.948 91.3213 122.073 91.6094 122.084 91.9668H121.413C121.406 91.7852 121.343 91.6357 121.226 91.5186C121.111 91.4014 120.963 91.3428 120.783 91.3428C120.553 91.3428 120.375 91.4268 120.25 91.5947C120.125 91.7607 120.062 92.0137 120.06 92.3535V92.4678C120.06 92.8115 120.121 93.0684 120.244 93.2383C120.369 93.4062 120.549 93.4902 120.783 93.4902ZM123.514 90.0596V90.8301H124.073V91.3574H123.514V93.127C123.514 93.248 123.537 93.3359 123.584 93.3906C123.633 93.4434 123.719 93.4697 123.842 93.4697C123.924 93.4697 124.007 93.46 124.091 93.4404V93.9912C123.929 94.0361 123.773 94.0586 123.622 94.0586C123.075 94.0586 122.802 93.7568 122.802 93.1533V91.3574H122.281V90.8301H122.802V90.0596H123.514ZM124.399 92.3857C124.399 92.0752 124.46 91.7959 124.583 91.5479C124.706 91.2979 124.879 91.1064 125.102 90.9736C125.324 90.8389 125.58 90.7715 125.869 90.7715C126.297 90.7715 126.644 90.9092 126.909 91.1846C127.177 91.46 127.322 91.8252 127.343 92.2803L127.346 92.4473C127.346 92.7598 127.285 93.0391 127.164 93.2852C127.045 93.5312 126.873 93.7217 126.649 93.8564C126.426 93.9912 126.168 94.0586 125.875 94.0586C125.428 94.0586 125.07 93.9102 124.8 93.6133C124.532 93.3145 124.399 92.917 124.399 92.4209V92.3857ZM125.111 92.4473C125.111 92.7734 125.178 93.0293 125.313 93.2148C125.448 93.3984 125.635 93.4902 125.875 93.4902C126.115 93.4902 126.302 93.3965 126.435 93.209C126.57 93.0215 126.637 92.7471 126.637 92.3857C126.637 92.0654 126.568 91.8115 126.429 91.624C126.292 91.4365 126.106 91.3428 125.869 91.3428C125.637 91.3428 125.452 91.4355 125.316 91.6211C125.179 91.8047 125.111 92.0801 125.111 92.4473ZM129.608 91.4805C129.514 91.4648 129.417 91.457 129.318 91.457C128.991 91.457 128.772 91.582 128.658 91.832V94H127.947V90.8301H128.626L128.644 91.1846C128.816 90.9092 129.054 90.7715 129.359 90.7715C129.46 90.7715 129.544 90.7852 129.611 90.8125L129.608 91.4805ZM130.815 94H130.103V90.8301H130.815V94ZM130.059 90.0068C130.059 89.8975 130.093 89.8066 130.161 89.7344C130.232 89.6621 130.331 89.626 130.46 89.626C130.589 89.626 130.689 89.6621 130.759 89.7344C130.829 89.8066 130.865 89.8975 130.865 90.0068C130.865 90.1143 130.829 90.2041 130.759 90.2764C130.689 90.3467 130.589 90.3818 130.46 90.3818C130.331 90.3818 130.232 90.3467 130.161 90.2764C130.093 90.2041 130.059 90.1143 130.059 90.0068ZM133.487 94C133.455 93.9395 133.428 93.8408 133.405 93.7041C133.178 93.9404 132.901 94.0586 132.573 94.0586C132.254 94.0586 131.994 93.9678 131.793 93.7861C131.592 93.6045 131.491 93.3799 131.491 93.1123C131.491 92.7744 131.616 92.5156 131.866 92.3359C132.118 92.1543 132.478 92.0635 132.945 92.0635H133.381V91.8555C133.381 91.6914 133.335 91.5605 133.243 91.4629C133.152 91.3633 133.012 91.3135 132.824 91.3135C132.662 91.3135 132.53 91.3545 132.426 91.4365C132.323 91.5166 132.271 91.6191 132.271 91.7441H131.559C131.559 91.5703 131.616 91.4082 131.732 91.2578C131.847 91.1055 132.003 90.9863 132.2 90.9004C132.4 90.8145 132.621 90.7715 132.865 90.7715C133.237 90.7715 133.532 90.8652 133.753 91.0527C133.974 91.2383 134.087 91.5 134.093 91.8379V93.2676C134.093 93.5527 134.133 93.7803 134.213 93.9502V94H133.487ZM132.704 93.4873C132.845 93.4873 132.977 93.4531 133.1 93.3848C133.225 93.3164 133.319 93.2246 133.381 93.1094V92.5117H132.997C132.734 92.5117 132.535 92.5576 132.403 92.6494C132.27 92.7412 132.203 92.8711 132.203 93.0391C132.203 93.1758 132.248 93.2852 132.338 93.3672C132.43 93.4473 132.552 93.4873 132.704 93.4873ZM135.499 90.8301L135.52 91.1963C135.754 90.9131 136.062 90.7715 136.443 90.7715C137.103 90.7715 137.439 91.1494 137.45 91.9053V94H136.739V91.9463C136.739 91.7451 136.695 91.5967 136.607 91.501C136.521 91.4033 136.379 91.3545 136.182 91.3545C135.895 91.3545 135.681 91.4844 135.54 91.7441V94H134.828V90.8301H135.499Z" fill="#92A1AF"/>
<path d="M105.434 110V105.734H106.693C107.07 105.734 107.404 105.818 107.695 105.986C107.988 106.154 108.215 106.393 108.375 106.701C108.535 107.01 108.615 107.363 108.615 107.762V107.976C108.615 108.38 108.534 108.735 108.372 109.042C108.212 109.349 107.982 109.585 107.684 109.751C107.387 109.917 107.046 110 106.661 110H105.434ZM106.175 106.332V109.408H106.658C107.047 109.408 107.345 109.287 107.552 109.045C107.761 108.801 107.867 108.451 107.871 107.996V107.759C107.871 107.296 107.771 106.942 107.569 106.698C107.368 106.454 107.076 106.332 106.693 106.332H106.175ZM111.179 110C111.147 109.939 111.12 109.841 111.097 109.704C110.87 109.94 110.593 110.059 110.265 110.059C109.946 110.059 109.687 109.968 109.485 109.786C109.284 109.604 109.184 109.38 109.184 109.112C109.184 108.774 109.309 108.516 109.559 108.336C109.811 108.154 110.17 108.063 110.637 108.063H111.073V107.855C111.073 107.691 111.027 107.561 110.936 107.463C110.844 107.363 110.704 107.313 110.517 107.313C110.354 107.313 110.222 107.354 110.118 107.437C110.015 107.517 109.963 107.619 109.963 107.744H109.251C109.251 107.57 109.309 107.408 109.424 107.258C109.539 107.105 109.695 106.986 109.893 106.9C110.092 106.814 110.313 106.771 110.558 106.771C110.929 106.771 111.225 106.865 111.445 107.053C111.666 107.238 111.779 107.5 111.785 107.838V109.268C111.785 109.553 111.825 109.78 111.905 109.95V110H111.179ZM110.396 109.487C110.537 109.487 110.669 109.453 110.792 109.385C110.917 109.316 111.011 109.225 111.073 109.109V108.512H110.689C110.426 108.512 110.228 108.558 110.095 108.649C109.962 108.741 109.896 108.871 109.896 109.039C109.896 109.176 109.94 109.285 110.03 109.367C110.122 109.447 110.244 109.487 110.396 109.487ZM113.191 106.83L113.212 107.196C113.446 106.913 113.754 106.771 114.135 106.771C114.795 106.771 115.131 107.149 115.143 107.905V110H114.431V107.946C114.431 107.745 114.387 107.597 114.299 107.501C114.213 107.403 114.071 107.354 113.874 107.354C113.587 107.354 113.373 107.484 113.232 107.744V110H112.521V106.83H113.191ZM117.173 109.49C117.351 109.49 117.498 109.438 117.615 109.335C117.732 109.231 117.795 109.104 117.803 108.951H118.474C118.466 109.148 118.404 109.333 118.289 109.505C118.174 109.675 118.018 109.81 117.82 109.909C117.623 110.009 117.41 110.059 117.182 110.059C116.738 110.059 116.387 109.915 116.127 109.628C115.867 109.341 115.737 108.944 115.737 108.438V108.365C115.737 107.883 115.866 107.497 116.124 107.208C116.382 106.917 116.733 106.771 117.179 106.771C117.556 106.771 117.862 106.882 118.099 107.103C118.337 107.321 118.462 107.609 118.474 107.967H117.803C117.795 107.785 117.732 107.636 117.615 107.519C117.5 107.401 117.353 107.343 117.173 107.343C116.942 107.343 116.765 107.427 116.64 107.595C116.515 107.761 116.451 108.014 116.449 108.354V108.468C116.449 108.812 116.511 109.068 116.634 109.238C116.759 109.406 116.938 109.49 117.173 109.49ZM120.407 110.059C119.956 110.059 119.59 109.917 119.309 109.634C119.029 109.349 118.89 108.97 118.89 108.497V108.409C118.89 108.093 118.95 107.811 119.071 107.562C119.194 107.312 119.366 107.118 119.587 106.979C119.808 106.841 120.054 106.771 120.325 106.771C120.757 106.771 121.09 106.909 121.324 107.185C121.561 107.46 121.679 107.85 121.679 108.354V108.641H119.607C119.629 108.902 119.716 109.109 119.868 109.262C120.022 109.414 120.216 109.49 120.448 109.49C120.774 109.49 121.04 109.358 121.245 109.095L121.629 109.461C121.502 109.65 121.332 109.798 121.119 109.903C120.908 110.007 120.671 110.059 120.407 110.059ZM120.322 107.343C120.127 107.343 119.969 107.411 119.848 107.548C119.729 107.685 119.652 107.875 119.619 108.119H120.976V108.066C120.96 107.828 120.896 107.648 120.785 107.527C120.674 107.404 120.52 107.343 120.322 107.343Z" fill="#92A1AF"/>
<path d="M230.507 107.771C230.507 105.998 229.069 104.56 227.296 104.56H165.975C164.202 104.56 162.765 105.998 162.765 107.771V122.188C162.765 123.961 164.202 125.398 165.975 125.398H227.296C229.069 125.398 230.507 123.961 230.507 122.188V107.771Z" fill="#E63946"/>
<path d="M139.651 51.4016C139.651 49.435 141.246 47.8408 143.212 47.8408H202.996C204.962 47.8408 206.557 49.435 206.557 51.4016C206.557 53.3682 204.962 54.9624 202.996 54.9624H143.212C141.246 54.9624 139.651 53.3682 139.651 51.4016Z" fill="#BDCEDE"/>
<path d="M139.651 64.1488C139.651 62.7486 140.786 61.6135 142.187 61.6135H204.021C205.422 61.6135 206.557 62.7486 206.557 64.1488C206.557 65.549 205.422 66.6841 204.021 66.6841H142.187C140.786 66.6841 139.651 65.549 139.651 64.1488Z" fill="#E3EFFA"/>
<path d="M139.651 71.8498C139.651 70.4495 140.786 69.3145 142.187 69.3145H196.03C197.43 69.3145 198.565 70.4495 198.565 71.8498C198.565 73.25 197.43 74.3851 196.03 74.3851H142.187C140.786 74.3851 139.651 73.25 139.651 71.8498Z" fill="#E3EFFA"/>
<path d="M79.2996 87.4179C79.2996 95.3961 72.7601 101.864 64.6931 101.864C56.6262 101.864 50.0867 95.3961 50.0867 87.4179C50.0867 79.4396 56.6262 72.9719 64.6931 72.9719C72.7601 72.9719 79.2996 79.4396 79.2996 87.4179Z" fill="#3BB3BD"/>
<path d="M186.434 115.538V114.861H184.181V115.602H185.486L185.482 115.715C185.467 116.482 184.903 116.998 184.075 116.998C183.108 116.998 182.503 116.23 182.503 114.981C182.503 113.751 183.097 112.984 184.045 112.984C184.741 112.984 185.226 113.33 185.422 113.958H186.389C186.216 112.852 185.298 112.141 184.045 112.141C182.499 112.141 181.51 113.251 181.51 114.989C181.51 116.746 182.488 117.84 184.06 117.84C185.508 117.84 186.434 116.941 186.434 115.538Z" fill="white"/>
<path d="M189.212 117.788C190.442 117.788 191.191 116.983 191.191 115.647C191.191 114.319 190.438 113.514 189.212 113.514C187.989 113.514 187.233 114.323 187.233 115.647C187.233 116.983 187.978 117.788 189.212 117.788ZM189.212 117.024C188.561 117.024 188.189 116.52 188.189 115.651C188.189 114.782 188.561 114.278 189.212 114.278C189.859 114.278 190.231 114.782 190.231 115.651C190.231 116.52 189.863 117.024 189.212 117.024Z" fill="white"/>
<path d="M193.878 117.788C195.108 117.788 195.857 116.983 195.857 115.647C195.857 114.319 195.105 113.514 193.878 113.514C192.656 113.514 191.899 114.323 191.899 115.647C191.899 116.983 192.644 117.788 193.878 117.788ZM193.878 117.024C193.227 117.024 192.855 116.52 192.855 115.651C192.855 114.782 193.227 114.278 193.878 114.278C194.525 114.278 194.898 114.782 194.898 115.651C194.898 116.52 194.529 117.024 193.878 117.024Z" fill="white"/>
<path d="M198.259 117.773C198.831 117.773 199.305 117.505 199.538 117.054H199.602V117.705H200.505V112.002H199.572V114.248H199.508C199.29 113.796 198.823 113.525 198.259 113.525C197.22 113.525 196.566 114.345 196.566 115.647C196.566 116.952 197.217 117.773 198.259 117.773ZM198.548 114.304C199.188 114.304 199.583 114.819 199.583 115.651C199.583 116.486 199.192 116.998 198.548 116.998C197.909 116.998 197.521 116.493 197.521 115.651C197.521 114.812 197.913 114.304 198.548 114.304Z" fill="white"/>
<path d="M203.976 112.585V113.619H203.326V114.345H203.976V116.614C203.976 117.408 204.353 117.724 205.297 117.724C205.477 117.724 205.65 117.709 205.786 117.682V116.968C205.673 116.979 205.602 116.986 205.47 116.986C205.079 116.986 204.906 116.802 204.906 116.392V114.345H205.786V113.619H204.906V112.585H203.976Z" fill="white"/>
<path d="M208.428 117.788C209.659 117.788 210.407 116.983 210.407 115.647C210.407 114.319 209.655 113.514 208.428 113.514C207.206 113.514 206.45 114.323 206.45 115.647C206.45 116.983 207.194 117.788 208.428 117.788ZM208.428 117.024C207.778 117.024 207.405 116.52 207.405 115.651C207.405 114.782 207.778 114.278 208.428 114.278C209.075 114.278 209.448 114.782 209.448 115.651C209.448 116.52 209.079 117.024 208.428 117.024Z" fill="white"/>
<path d="M218.137 115.538V114.861H215.884V115.602H217.189L217.186 115.715C217.171 116.482 216.606 116.998 215.779 116.998C214.812 116.998 214.206 116.23 214.206 114.981C214.206 113.751 214.801 112.984 215.749 112.984C216.445 112.984 216.93 113.33 217.125 113.958H218.092C217.919 112.852 217.001 112.141 215.749 112.141C214.202 112.141 213.213 113.251 213.213 114.989C213.213 116.746 214.191 117.84 215.764 117.84C217.212 117.84 218.137 116.941 218.137 115.538Z" fill="white"/>
<path d="M220.915 117.788C222.146 117.788 222.894 116.983 222.894 115.647C222.894 114.319 222.142 113.514 220.915 113.514C219.693 113.514 218.937 114.323 218.937 115.647C218.937 116.983 219.681 117.788 220.915 117.788ZM220.915 117.024C220.265 117.024 219.892 116.52 219.892 115.651C219.892 114.782 220.265 114.278 220.915 114.278C221.562 114.278 221.935 114.782 221.935 115.651C221.935 116.52 221.566 117.024 220.915 117.024Z" fill="white"/>
<path d="M49.1233 50.78C49.1233 51.7551 48.3328 52.5456 47.3577 52.5456C46.3825 52.5456 45.592 51.7551 45.592 50.78C45.592 49.8049 46.3825 49.0144 47.3577 49.0144C48.3328 49.0144 49.1233 49.8049 49.1233 50.78Z" fill="#FF7D66"/>
<path d="M54.9016 50.78C54.9016 51.7551 54.1111 52.5456 53.136 52.5456C52.1609 52.5456 51.3704 51.7551 51.3704 50.78C51.3704 49.8049 52.1609 49.0144 53.136 49.0144C54.1111 49.0144 54.9016 49.8049 54.9016 50.78Z" fill="#FFC74F"/>
<path d="M60.6804 50.78C60.6804 51.7551 59.8899 52.5456 58.9148 52.5456C57.9397 52.5456 57.1492 51.7551 57.1492 50.78C57.1492 49.8049 57.9397 49.0144 58.9148 49.0144C59.8899 49.0144 60.6804 49.8049 60.6804 50.78Z" fill="#25BC5C"/>
<g clip-path="url(#clip0)">
<path d="M172.177 117.612L169.766 115.201C169.642 115.077 169.642 114.875 169.766 114.751L170.411 114.106C170.536 113.982 170.737 113.982 170.861 114.106L173.272 116.517C173.396 116.641 173.396 116.842 173.272 116.967L172.627 117.612C172.502 117.736 172.301 117.736 172.177 117.612Z" fill="url(#paint0_linear)"/>
<path d="M171.532 116.517L175.869 112.18C175.993 112.056 176.194 112.056 176.318 112.18L176.964 112.825C177.088 112.949 177.088 113.151 176.964 113.275L172.627 117.612C172.503 117.736 172.301 117.736 172.177 117.612L171.532 116.967C171.408 116.842 171.408 116.641 171.532 116.517Z" fill="url(#paint1_linear)"/>
</g>
<defs>
<filter id="filter0_d" x="0.776855" y="9.03833" width="250.648" height="160.141" filterUnits="userSpaceOnUse" color-interpolation-filters="sRGB">
<feFlood flood-opacity="0" result="BackgroundImageFix"/>
<feColorMatrix in="SourceAlpha" type="matrix" values="0 0 0 0 0 0 0 0 0 0 0 0 0 0 0 0 0 0 127 0"/>
<feOffset dy="4"/>
<feGaussianBlur stdDeviation="20"/>
<feColorMatrix type="matrix" values="0 0 0 0 0 0 0 0 0 0 0 0 0 0 0 0 0 0 0.07 0"/>
<feBlend mode="normal" in2="BackgroundImageFix" result="effect1_dropShadow"/>
<feBlend mode="normal" in="SourceGraphic" in2="effect1_dropShadow" result="shape"/>
</filter>
<filter id="filter1_d" x="47.967" y="0.432617" width="205.493" height="177.352" filterUnits="userSpaceOnUse" color-interpolation-filters="sRGB">
<feFlood flood-opacity="0" result="BackgroundImageFix"/>
<feColorMatrix in="SourceAlpha" type="matrix" values="0 0 0 0 0 0 0 0 0 0 0 0 0 0 0 0 0 0 127 0"/>
<feOffset dy="4"/>
<feGaussianBlur stdDeviation="20"/>
<feColorMatrix type="matrix" values="0 0 0 0 0.904152 0 0 0 0 0.904152 0 0 0 0 0.904152 0 0 0 0.54 0"/>
<feBlend mode="normal" in2="BackgroundImageFix" result="effect1_dropShadow"/>
<feBlend mode="normal" in="SourceGraphic" in2="effect1_dropShadow" result="shape"/>
</filter>
<linearGradient id="paint0_linear" x1="172.922" y1="117.262" x2="170.081" y2="114.421" gradientUnits="userSpaceOnUse">
<stop offset="0.108" stop-color="white"/>
<stop offset="0.433" stop-color="white"/>
</linearGradient>
<linearGradient id="paint1_linear" x1="176.641" y1="112.503" x2="171.855" y2="117.289" gradientUnits="userSpaceOnUse">
<stop stop-color="white"/>
<stop offset="1" stop-color="white"/>
</linearGradient>
<clipPath id="clip0">
<rect width="7.70451" height="7.70451" fill="white" transform="translate(169.513 110.963)"/>
</clipPath>
</defs>
</svg>
