<svg width="254" height="178" viewBox="0 0 254 178" fill="none" xmlns="http://www.w3.org/2000/svg">
<path d="M28 23.5682C28 22.1498 29.1498 21 30.5682 21H218.619C220.037 21 221.187 22.1498 221.187 23.5682V138.798C221.187 140.217 220.037 141.366 218.619 141.366H30.5682C29.1498 141.366 28 140.217 28 138.798V23.5682Z" fill="#F8F6F8"/>
<path d="M28 23.5682C28 22.1498 29.1498 21 30.5682 21H218.619C220.037 21 221.187 22.1498 221.187 23.5682V30.6306H28V23.5682Z" fill="#3C6A7A"/>
<g filter="url(#filter0_d)">
<path d="M40.777 47.6065C40.777 46.1881 41.9268 45.0383 43.3451 45.0383H208.856C210.275 45.0383 211.425 46.1881 211.425 47.6065V122.611C211.425 124.029 210.275 125.179 208.856 125.179H43.3451C41.9268 125.179 40.777 124.029 40.777 122.611V47.6065Z" fill="white"/>
</g>
<g filter="url(#filter1_d)">
<path d="M87.967 38.3587C87.967 37.295 88.8294 36.4326 89.8932 36.4326H211.534C212.598 36.4326 213.46 37.295 213.46 38.3587V131.859C213.46 132.922 212.598 133.785 211.534 133.785H89.8932C88.8294 133.785 87.967 132.922 87.967 131.859V38.3587Z" fill="white"/>
</g>
<path d="M107.02 49.6863L99.8935 56.8123H107.02V49.6863Z" fill="#3BB3BD"/>
<path d="M117.762 57.75C118.409 57.75 118.934 57.2253 118.934 56.5781C118.934 55.9309 118.409 55.4062 117.762 55.4062C117.115 55.4062 116.59 55.9309 116.59 56.5781C116.59 57.2253 117.115 57.75 117.762 57.75Z" fill="#3BB3BD"/>
<path d="M129.285 54.8596V79.6251C129.285 82.8559 126.657 85.4845 123.426 85.4845H105.059C105.059 87.423 106.636 89.0001 108.574 89.0001H129.277C131.216 89.0001 132.793 87.423 132.793 85.4845V58.3751C132.793 56.4392 131.22 54.8639 129.285 54.8596Z" fill="#3BB3BD"/>
<path d="M123.426 49H109.363V57.9844C109.363 58.6316 108.839 59.1562 108.191 59.1562H99.207V79.625C99.207 81.5635 100.784 83.1406 102.723 83.1406H123.426C125.364 83.1406 126.941 81.5635 126.941 79.625V52.5156C126.941 50.5771 125.364 49 123.426 49ZM104.48 63.2188H109.949C110.596 63.2188 111.121 63.7434 111.121 64.3906C111.121 65.0378 110.596 65.5625 109.949 65.5625H104.48C103.833 65.5625 103.309 65.0378 103.309 64.3906C103.309 63.7434 103.833 63.2188 104.48 63.2188ZM121.668 79.625H104.48C103.833 79.625 103.309 79.1003 103.309 78.4531C103.309 77.8059 103.833 77.2812 104.48 77.2812H121.668C122.315 77.2812 122.84 77.8059 122.84 78.4531C122.84 79.1003 122.315 79.625 121.668 79.625ZM121.668 74.9375H104.48C103.833 74.9375 103.309 74.4128 103.309 73.7656C103.309 73.1184 103.833 72.5938 104.48 72.5938H121.668C122.315 72.5938 122.84 73.1184 122.84 73.7656C122.84 74.4128 122.315 74.9375 121.668 74.9375ZM121.668 70.25H104.48C103.833 70.25 103.309 69.7253 103.309 69.0781C103.309 68.4309 103.833 67.9062 104.48 67.9062H121.668C122.315 67.9062 122.84 68.4309 122.84 69.0781C122.84 69.7253 122.315 70.25 121.668 70.25ZM122.84 64.3906C122.84 65.0378 122.315 65.5625 121.668 65.5625H113.855C113.208 65.5625 112.684 65.0378 112.684 64.3906V62.8281C112.684 61.0848 113.567 59.5441 114.909 58.6293C114.493 58.0515 114.246 57.3433 114.246 56.5781C114.246 54.6396 115.823 53.0625 117.762 53.0625C119.7 53.0625 121.277 54.6396 121.277 56.5781C121.277 57.3433 121.031 58.0516 120.614 58.6293C121.957 59.5441 122.84 61.0848 122.84 62.8281V64.3906Z" fill="#3BB3BD"/>
<path d="M117.762 60.0938C116.254 60.0938 115.027 61.3204 115.027 62.8281V63.2188H120.496V62.8281C120.496 61.3204 119.269 60.0938 117.762 60.0938Z" fill="#3BB3BD"/>
<path d="M249 110.235C249 108.448 246.921 107 244.356 107H155.644C153.079 107 151 108.448 151 110.235V124.765C151 126.552 153.079 128 155.644 128H244.356C246.921 128 249 126.552 249 124.765V110.235Z" fill="#E63946"/>
<path d="M172.928 121L172.92 117.64L171.272 120.408H170.688L169.048 117.712V121H167.832V115.4H168.904L171 118.88L173.064 115.4H174.128L174.144 121H172.928ZM179.601 118.864C179.601 118.88 179.593 118.992 179.577 119.2H176.321C176.379 119.467 176.518 119.677 176.737 119.832C176.955 119.987 177.227 120.064 177.553 120.064C177.777 120.064 177.974 120.032 178.145 119.968C178.321 119.899 178.483 119.792 178.633 119.648L179.297 120.368C178.891 120.832 178.299 121.064 177.521 121.064C177.035 121.064 176.606 120.971 176.233 120.784C175.859 120.592 175.571 120.328 175.369 119.992C175.166 119.656 175.065 119.275 175.065 118.848C175.065 118.427 175.163 118.048 175.361 117.712C175.563 117.371 175.838 117.107 176.185 116.92C176.537 116.728 176.929 116.632 177.361 116.632C177.782 116.632 178.163 116.723 178.505 116.904C178.846 117.085 179.113 117.347 179.305 117.688C179.502 118.024 179.601 118.416 179.601 118.864ZM177.369 117.576C177.086 117.576 176.849 117.656 176.657 117.816C176.465 117.976 176.347 118.195 176.305 118.472H178.425C178.382 118.2 178.265 117.984 178.073 117.824C177.881 117.659 177.646 117.576 177.369 117.576ZM183.047 116.632C183.581 116.632 184.01 116.792 184.335 117.112C184.666 117.432 184.831 117.907 184.831 118.536V121H183.583V118.728C183.583 118.387 183.509 118.133 183.359 117.968C183.21 117.797 182.994 117.712 182.711 117.712C182.397 117.712 182.146 117.811 181.959 118.008C181.773 118.2 181.679 118.488 181.679 118.872V121H180.431V116.696H181.623V117.2C181.789 117.019 181.994 116.88 182.239 116.784C182.485 116.683 182.754 116.632 183.047 116.632ZM188.739 120.792C188.616 120.883 188.464 120.952 188.283 121C188.107 121.043 187.92 121.064 187.723 121.064C187.211 121.064 186.813 120.933 186.531 120.672C186.253 120.411 186.115 120.027 186.115 119.52V117.752H185.451V116.792H186.115V115.744H187.363V116.792H188.435V117.752H187.363V119.504C187.363 119.685 187.408 119.827 187.499 119.928C187.595 120.024 187.728 120.072 187.899 120.072C188.096 120.072 188.264 120.019 188.403 119.912L188.739 120.792ZM191.354 121.064C190.901 121.064 190.493 120.971 190.13 120.784C189.773 120.592 189.493 120.328 189.29 119.992C189.088 119.656 188.986 119.275 188.986 118.848C188.986 118.421 189.088 118.04 189.29 117.704C189.493 117.368 189.773 117.107 190.13 116.92C190.493 116.728 190.901 116.632 191.354 116.632C191.808 116.632 192.213 116.728 192.57 116.92C192.928 117.107 193.208 117.368 193.41 117.704C193.613 118.04 193.714 118.421 193.714 118.848C193.714 119.275 193.613 119.656 193.41 119.992C193.208 120.328 192.928 120.592 192.57 120.784C192.213 120.971 191.808 121.064 191.354 121.064ZM191.354 120.04C191.674 120.04 191.936 119.933 192.138 119.72C192.346 119.501 192.45 119.211 192.45 118.848C192.45 118.485 192.346 118.197 192.138 117.984C191.936 117.765 191.674 117.656 191.354 117.656C191.034 117.656 190.77 117.765 190.562 117.984C190.354 118.197 190.25 118.485 190.25 118.848C190.25 119.211 190.354 119.501 190.562 119.72C190.77 119.933 191.034 120.04 191.354 120.04ZM195.741 117.264C195.89 117.056 196.09 116.899 196.341 116.792C196.597 116.685 196.89 116.632 197.221 116.632V117.784C197.082 117.773 196.989 117.768 196.941 117.768C196.583 117.768 196.303 117.869 196.101 118.072C195.898 118.269 195.797 118.568 195.797 118.968V121H194.549V116.696H195.741V117.264ZM202.308 115.064V121H201.116V120.504C200.806 120.877 200.358 121.064 199.772 121.064C199.366 121.064 198.998 120.973 198.668 120.792C198.342 120.611 198.086 120.352 197.9 120.016C197.713 119.68 197.62 119.291 197.62 118.848C197.62 118.405 197.713 118.016 197.9 117.68C198.086 117.344 198.342 117.085 198.668 116.904C198.998 116.723 199.366 116.632 199.772 116.632C200.321 116.632 200.75 116.805 201.06 117.152V115.064H202.308ZM199.988 120.04C200.302 120.04 200.564 119.933 200.772 119.72C200.98 119.501 201.084 119.211 201.084 118.848C201.084 118.485 200.98 118.197 200.772 117.984C200.564 117.765 200.302 117.656 199.988 117.656C199.668 117.656 199.404 117.765 199.196 117.984C198.988 118.197 198.884 118.485 198.884 118.848C198.884 119.211 198.988 119.501 199.196 119.72C199.404 119.933 199.668 120.04 199.988 120.04ZM207.679 118.864C207.679 118.88 207.671 118.992 207.655 119.2H204.399C204.457 119.467 204.596 119.677 204.815 119.832C205.033 119.987 205.305 120.064 205.631 120.064C205.855 120.064 206.052 120.032 206.223 119.968C206.399 119.899 206.561 119.792 206.711 119.648L207.375 120.368C206.969 120.832 206.377 121.064 205.599 121.064C205.113 121.064 204.684 120.971 204.311 120.784C203.937 120.592 203.649 120.328 203.447 119.992C203.244 119.656 203.143 119.275 203.143 118.848C203.143 118.427 203.241 118.048 203.439 117.712C203.641 117.371 203.916 117.107 204.263 116.92C204.615 116.728 205.007 116.632 205.439 116.632C205.86 116.632 206.241 116.723 206.583 116.904C206.924 117.085 207.191 117.347 207.383 117.688C207.58 118.024 207.679 118.416 207.679 118.864ZM205.447 117.576C205.164 117.576 204.927 117.656 204.735 117.816C204.543 117.976 204.425 118.195 204.383 118.472H206.503C206.46 118.2 206.343 117.984 206.151 117.824C205.959 117.659 205.724 117.576 205.447 117.576ZM211.128 121L210.184 119.68L209.208 121H207.848L209.504 118.832L207.904 116.696H209.304L210.216 117.952L211.152 116.696H212.48L210.88 118.8L212.544 121H211.128ZM217.928 115.4C218.424 115.4 218.853 115.483 219.216 115.648C219.584 115.813 219.867 116.048 220.064 116.352C220.261 116.656 220.36 117.016 220.36 117.432C220.36 117.843 220.261 118.203 220.064 118.512C219.867 118.816 219.584 119.051 219.216 119.216C218.853 119.376 218.424 119.456 217.928 119.456H216.8V121H215.504V115.4H217.928ZM217.856 118.4C218.245 118.4 218.541 118.317 218.744 118.152C218.947 117.981 219.048 117.741 219.048 117.432C219.048 117.117 218.947 116.877 218.744 116.712C218.541 116.541 218.245 116.456 217.856 116.456H216.8V118.4H217.856ZM222.389 117.264C222.538 117.056 222.738 116.899 222.989 116.792C223.245 116.685 223.538 116.632 223.869 116.632V117.784C223.73 117.773 223.637 117.768 223.589 117.768C223.232 117.768 222.952 117.869 222.749 118.072C222.546 118.269 222.445 118.568 222.445 118.968V121H221.197V116.696H222.389V117.264ZM226.62 121.064C226.167 121.064 225.759 120.971 225.396 120.784C225.039 120.592 224.759 120.328 224.556 119.992C224.353 119.656 224.252 119.275 224.252 118.848C224.252 118.421 224.353 118.04 224.556 117.704C224.759 117.368 225.039 117.107 225.396 116.92C225.759 116.728 226.167 116.632 226.62 116.632C227.073 116.632 227.479 116.728 227.836 116.92C228.193 117.107 228.473 117.368 228.676 117.704C228.879 118.04 228.98 118.421 228.98 118.848C228.98 119.275 228.879 119.656 228.676 119.992C228.473 120.328 228.193 120.592 227.836 120.784C227.479 120.971 227.073 121.064 226.62 121.064ZM226.62 120.04C226.94 120.04 227.201 119.933 227.404 119.72C227.612 119.501 227.716 119.211 227.716 118.848C227.716 118.485 227.612 118.197 227.404 117.984C227.201 117.765 226.94 117.656 226.62 117.656C226.3 117.656 226.036 117.765 225.828 117.984C225.62 118.197 225.516 118.485 225.516 118.848C225.516 119.211 225.62 119.501 225.828 119.72C226.036 119.933 226.3 120.04 226.62 120.04ZM231.182 116.792H232.286V117.752H231.214V121H229.966V117.752H229.302V116.792H229.966V116.6C229.966 116.109 230.11 115.72 230.398 115.432C230.692 115.144 231.102 115 231.63 115C231.817 115 231.993 115.021 232.158 115.064C232.329 115.101 232.47 115.157 232.582 115.232L232.254 116.136C232.11 116.035 231.942 115.984 231.75 115.984C231.372 115.984 231.182 116.192 231.182 116.608V116.792ZM233.55 116.696H234.798V121H233.55V116.696ZM234.174 116.096C233.945 116.096 233.758 116.029 233.614 115.896C233.47 115.763 233.398 115.597 233.398 115.4C233.398 115.203 233.47 115.037 233.614 114.904C233.758 114.771 233.945 114.704 234.174 114.704C234.404 114.704 234.59 114.768 234.734 114.896C234.878 115.024 234.95 115.184 234.95 115.376C234.95 115.584 234.878 115.757 234.734 115.896C234.59 116.029 234.404 116.096 234.174 116.096ZM235.955 115.064H237.203V121H235.955V115.064ZM242.577 118.864C242.577 118.88 242.569 118.992 242.553 119.2H239.297C239.356 119.467 239.494 119.677 239.713 119.832C239.932 119.987 240.204 120.064 240.529 120.064C240.753 120.064 240.95 120.032 241.121 119.968C241.297 119.899 241.46 119.792 241.609 119.648L242.273 120.368C241.868 120.832 241.276 121.064 240.497 121.064C240.012 121.064 239.582 120.971 239.209 120.784C238.836 120.592 238.548 120.328 238.345 119.992C238.142 119.656 238.041 119.275 238.041 118.848C238.041 118.427 238.14 118.048 238.337 117.712C238.54 117.371 238.814 117.107 239.161 116.92C239.513 116.728 239.905 116.632 240.337 116.632C240.758 116.632 241.14 116.723 241.481 116.904C241.822 117.085 242.089 117.347 242.281 117.688C242.478 118.024 242.577 118.416 242.577 118.864ZM240.345 117.576C240.062 117.576 239.825 117.656 239.633 117.816C239.441 117.976 239.324 118.195 239.281 118.472H241.401C241.358 118.2 241.241 117.984 241.049 117.824C240.857 117.659 240.622 117.576 240.345 117.576Z" fill="white"/>
<g clip-path="url(#clip0)">
<path d="M158.656 120.88L156.253 118.477C156.129 118.353 156.129 118.152 156.253 118.029L156.896 117.385C157.02 117.262 157.22 117.262 157.344 117.385L159.748 119.789C159.872 119.913 159.872 120.113 159.748 120.237L159.105 120.88C158.981 121.004 158.78 121.004 158.656 120.88Z" fill="url(#paint0_linear)"/>
<path d="M158.013 119.789L162.337 115.465C162.461 115.341 162.661 115.341 162.785 115.465L163.428 116.108C163.552 116.232 163.552 116.433 163.428 116.557L159.105 120.88C158.981 121.004 158.78 121.004 158.656 120.88L158.013 120.237C157.889 120.113 157.889 119.913 158.013 119.789Z" fill="url(#paint1_linear)"/>
</g>
<path d="M140 65.5608C140 63.5942 141.594 62 143.561 62H203.344C205.311 62 206.905 63.5942 206.905 65.5608C206.905 67.5273 205.311 69.1216 203.344 69.1216H143.561C141.594 69.1216 140 67.5273 140 65.5608Z" fill="#BDCEDE"/>
<path d="M139.651 78.308C139.651 76.9078 140.787 75.7727 142.187 75.7727H204.021C205.422 75.7727 206.557 76.9078 206.557 78.308C206.557 79.7082 205.422 80.8433 204.021 80.8433H142.187C140.787 80.8433 139.651 79.7082 139.651 78.308Z" fill="#E3EFFA"/>
<path d="M139.651 86.0089C139.651 84.6087 140.787 83.4736 142.187 83.4736H196.03C197.431 83.4736 198.566 84.6087 198.566 86.0089C198.566 87.4091 197.431 88.5442 196.03 88.5442H142.187C140.787 88.5442 139.651 87.4091 139.651 86.0089Z" fill="#E3EFFA"/>
<path d="M79.2995 87.4179C79.2995 95.3961 72.76 101.864 64.6931 101.864C56.6261 101.864 50.0866 95.3961 50.0866 87.4179C50.0866 79.4396 56.6261 72.9719 64.6931 72.9719C72.76 72.9719 79.2995 79.4396 79.2995 87.4179Z" fill="#3BB3BD"/>
<path d="M49.1233 50.78C49.1233 51.7551 48.3329 52.5456 47.3577 52.5456C46.3826 52.5456 45.5921 51.7551 45.5921 50.78C45.5921 49.8049 46.3826 49.0144 47.3577 49.0144C48.3329 49.0144 49.1233 49.8049 49.1233 50.78Z" fill="#FF7D66"/>
<path d="M54.9017 50.78C54.9017 51.7551 54.1112 52.5456 53.1361 52.5456C52.1609 52.5456 51.3705 51.7551 51.3705 50.78C51.3705 49.8049 52.1609 49.0144 53.1361 49.0144C54.1112 49.0144 54.9017 49.8049 54.9017 50.78Z" fill="#FFC74F"/>
<path d="M60.6803 50.78C60.6803 51.7551 59.8898 52.5456 58.9147 52.5456C57.9395 52.5456 57.149 51.7551 57.149 50.78C57.149 49.8049 57.9395 49.0144 58.9147 49.0144C59.8898 49.0144 60.6803 49.8049 60.6803 50.78Z" fill="#25BC5C"/>
<defs>
<filter id="filter0_d" x="0.776978" y="9.03833" width="250.648" height="160.141" filterUnits="userSpaceOnUse" color-interpolation-filters="sRGB">
<feFlood flood-opacity="0" result="BackgroundImageFix"/>
<feColorMatrix in="SourceAlpha" type="matrix" values="0 0 0 0 0 0 0 0 0 0 0 0 0 0 0 0 0 0 127 0"/>
<feOffset dy="4"/>
<feGaussianBlur stdDeviation="20"/>
<feColorMatrix type="matrix" values="0 0 0 0 0 0 0 0 0 0 0 0 0 0 0 0 0 0 0.07 0"/>
<feBlend mode="normal" in2="BackgroundImageFix" result="effect1_dropShadow"/>
<feBlend mode="normal" in="SourceGraphic" in2="effect1_dropShadow" result="shape"/>
</filter>
<filter id="filter1_d" x="47.967" y="0.432617" width="205.493" height="177.352" filterUnits="userSpaceOnUse" color-interpolation-filters="sRGB">
<feFlood flood-opacity="0" result="BackgroundImageFix"/>
<feColorMatrix in="SourceAlpha" type="matrix" values="0 0 0 0 0 0 0 0 0 0 0 0 0 0 0 0 0 0 127 0"/>
<feOffset dy="4"/>
<feGaussianBlur stdDeviation="20"/>
<feColorMatrix type="matrix" values="0 0 0 0 0.904152 0 0 0 0 0.904152 0 0 0 0 0.904152 0 0 0 0.54 0"/>
<feBlend mode="normal" in2="BackgroundImageFix" result="effect1_dropShadow"/>
<feBlend mode="normal" in="SourceGraphic" in2="effect1_dropShadow" result="shape"/>
</filter>
<linearGradient id="paint0_linear" x1="159.399" y1="120.532" x2="156.567" y2="117.699" gradientUnits="userSpaceOnUse">
<stop offset="0.108" stop-color="white"/>
<stop offset="0.433" stop-color="white"/>
</linearGradient>
<linearGradient id="paint1_linear" x1="163.107" y1="115.787" x2="158.335" y2="120.559" gradientUnits="userSpaceOnUse">
<stop stop-color="white"/>
<stop offset="1" stop-color="white"/>
</linearGradient>
<clipPath id="clip0">
<rect width="7.68105" height="7.68105" fill="white" transform="translate(156 114.252)"/>
</clipPath>
</defs>
</svg>
