<svg width="795" height="517" viewBox="0 0 795 517" fill="none" xmlns="http://www.w3.org/2000/svg">
<rect x="108.936" width="660.775" height="411.701" rx="8" fill="#F8F6F8"/>
<path d="M108.936 8C108.936 3.58172 112.518 0 116.936 0H761.711C766.129 0 769.711 3.58172 769.711 8V32.9405H108.936V8Z" fill="#3BB3BD"/>
<g filter="url(#filter0_d)">
<rect x="136.678" y="63.7017" width="603.609" height="311.052" rx="8" fill="white"/>
</g>
<path d="M387.68 87.3564C385.266 86.4435 382.637 86.0995 380.069 86.3599C377.805 88.5065 373.571 89.1151 370.459 89.3221C367.258 86.2064 363.395 83.3073 359.412 81.284C356.751 79.9325 353.643 78.5069 352.821 75.6365C351.51 71.0528 343.665 69.205 339.012 70.2578C333.116 68.6622 326.383 70.7169 321.647 74.5783C319.556 76.2835 321.909 80.5123 323.714 82.5177C325.52 84.5231 327.762 86.7615 327.34 89.4263C325.157 90.5421 322.196 90.6024 319.747 90.4913C318.307 90.4255 316.827 90.1459 315.451 90.5736C314.074 90.9999 312.876 92.4926 313.406 93.8318C312.46 95.4795 311.322 96.3417 312.421 97.892C313.276 99.0982 314.729 100.095 314.719 101.574C314.71 102.751 313.719 103.698 312.667 104.226C311.615 104.755 310.434 105.02 309.44 105.652C306.331 107.626 306.304 112.072 306.634 115.741C308.643 118.206 308.959 122.457 307.992 125.488C307.623 126.645 307.029 127.872 307.444 129.012C307.919 130.317 309.455 130.831 310.8 131.179C313.674 131.922 317.054 132.564 319.341 130.672C325.367 125.684 334.723 128.268 342.355 129.985C344.991 130.577 347.765 131.549 349.305 133.769C351.358 136.728 350.482 140.836 348.791 144.016C347.1 147.195 344.675 150.023 343.605 153.461C342.601 156.683 342.882 160.149 343.171 163.511C343.529 167.653 343.963 172.014 346.364 175.408C348.88 178.965 350.467 184.275 350.265 188.627C350.104 192.121 348.872 195.556 349.192 199.038C349.773 205.356 355.231 210.092 360.798 213.132C366.623 216.315 371.646 221.729 373.653 228.057C374.662 231.233 374.962 234.594 375.85 237.807C377.387 243.371 380.728 248.421 385.247 252.013C388.538 254.63 393.942 255.558 398.079 256.311C400.225 256.703 402.539 257.012 404.158 258.475C404.904 259.151 405.442 260.025 406.158 260.734C409.615 264.154 415.981 262.749 419.479 266.128C420.379 267 421 268.12 421.793 269.091C423.927 271.707 427.398 273.168 430.76 272.868C429.975 275.437 433.052 278.455 432.102 280.965C431.336 282.988 429.022 283.878 427.431 285.344C424.671 287.891 424.242 292.246 425.432 295.807C426.622 299.368 429.134 302.311 431.648 305.1C436.316 310.277 441.928 312.788 446.99 317.579C451.679 322.016 452.748 329.2 451.717 335.574C450.687 341.948 447.893 347.879 445.899 354.02C442.17 365.492 441.268 378.097 444.832 389.621C448.395 401.147 456.734 411.418 467.914 415.948C469.149 416.451 470.668 415.583 471.573 414.605C472.479 413.627 472.675 412.059 472.039 410.888C470.02 407.176 466.432 404.006 463.814 400.69C462.992 399.647 462.124 398.464 462.23 397.141C462.349 395.655 463.629 394.581 464.572 393.426C466.003 391.673 466.778 389.4 466.715 387.14C466.657 385.015 465.419 382.936 465.492 380.813C465.563 378.687 466.711 376.448 468.724 375.764C469.641 375.452 470.658 375.481 471.544 375.09C474.455 373.806 473.992 369.364 476.098 366.979C477.075 365.872 478.516 365.321 479.845 364.68C485.476 361.972 490.107 356.607 490.622 350.381C491.032 345.401 489.22 339.352 493.006 336.089C496.482 333.093 501.831 335.081 506.36 334.347C508.202 334.047 509.431 332.332 510.294 330.676C511.157 329.022 511.256 327.055 510.946 325.215C510.564 322.949 509.592 320.736 509.807 318.449C510.109 315.232 512.625 312.752 514.573 310.174C516.873 307.128 518.524 303.592 519.38 299.87C520.358 295.618 517.638 290.598 513.825 288.478C510.013 286.357 505.44 286.297 501.078 286.172C496.718 286.048 492.097 285.719 488.534 283.201C485.271 280.894 483.426 277.12 480.846 274.069C476.492 268.921 470.164 265.947 464.04 263.126C461.729 262.062 459.136 260.975 456.719 261.77C455.765 262.083 454.907 262.676 453.923 262.865C451.219 263.384 449.034 260.829 446.61 259.521C441.584 256.807 434.364 260.738 433.916 266.432C431.317 267.329 426.5 266.556 425.025 264.236C423.963 262.565 423.538 260.23 421.71 259.469C420.733 259.063 419.512 259.217 418.718 258.517C417.404 257.358 418.426 255.262 418.661 253.524C419.036 250.752 416.966 248.116 414.441 246.91C411.918 245.704 409.026 245.605 406.229 245.515C403.433 245.425 400.538 245.298 398.036 244.044C393.166 241.604 391.17 234.995 393.307 229.984C395.444 224.973 401.035 221.882 406.48 222.038C411.816 222.191 417.45 226.091 417.51 231.43C417.526 232.783 419.694 232.935 420.87 232.265C422.046 231.595 422.66 230.24 422.948 228.918C423.236 227.595 423.277 226.219 423.682 224.929C424.618 221.938 427.647 219.739 430.779 219.773C434.049 219.81 436.343 216.551 438.662 214.248C440.983 211.944 442.372 208.47 441.455 205.332C440.96 203.641 439.832 201.932 440.396 200.262C440.839 198.954 442.183 198.195 443.456 197.66C446.983 196.183 450.837 195.492 454.658 195.652C457.989 195.792 459.699 193.702 461.398 190.834C462.626 188.763 463.171 186.145 465.127 184.74C468.054 182.637 472.1 184.493 475.696 184.252C480.943 183.898 485.043 178.008 483.552 172.964C482.843 170.565 481.165 168.598 479.801 166.501C477.922 163.611 476.594 160.365 475.91 156.988C475.282 153.884 475.102 150.467 473.057 148.049C469.858 148.2 465.981 148.107 463.134 149.576C462.574 146.319 461.951 142.921 459.941 140.297C457.93 137.675 454.064 136.154 451.217 137.834C448.436 139.476 447.833 143.293 448.348 146.481C448.862 149.671 450.184 152.756 450.097 155.986C450.011 159.215 447.767 162.783 444.539 162.695C442.856 162.65 441.35 161.624 440.166 160.427C438.472 158.715 437.13 156.526 434.952 155.496C433.282 154.708 431.36 154.725 429.558 154.32C423.417 152.943 419.205 145.894 420.9 139.833C422.597 133.771 429.855 129.933 435.82 131.943C443.043 129.293 445.986 120.182 443.104 113.048C440.221 105.914 432.474 101.485 424.786 101.147C422.536 101.047 420.244 101.246 418.06 100.694C411.89 99.1325 408.661 92.3501 403.292 88.9328C399.761 86.6848 391.597 88.8369 387.68 87.3564Z" fill="#3BB3BD"/>
<path d="M729.719 217.888C729.719 222.275 726.162 225.832 721.775 225.832C717.388 225.832 713.83 222.275 713.83 217.888C713.83 213.5 717.388 209.943 721.775 209.943C726.162 209.943 729.719 213.5 729.719 217.888Z" fill="#52F2FF"/>
<path d="M375.214 131.496C375.214 135.884 371.657 139.441 367.27 139.441C362.882 139.441 359.326 135.884 359.326 131.496C359.326 127.108 362.882 123.551 367.27 123.551C371.657 123.551 375.214 127.108 375.214 131.496Z" fill="#52F2FF"/>
<path d="M488.417 339.036C488.417 343.423 484.861 346.979 480.473 346.979C476.085 346.979 472.528 343.423 472.528 339.036C472.528 334.647 476.085 331.091 480.473 331.091C484.861 331.091 488.417 334.647 488.417 339.036Z" fill="#52F2FF"/>
<path d="M425.857 214.908C425.857 219.296 422.3 222.854 417.913 222.854C413.525 222.854 409.968 219.296 409.968 214.908C409.968 210.522 413.525 206.965 417.913 206.965C422.3 206.965 425.857 210.522 425.857 214.908Z" fill="#52F2FF"/>
<path d="M366.025 121.785C366.46 121.254 366.897 120.726 367.339 120.202" stroke="#7A90FA" stroke-width="1.33333" stroke-miterlimit="10"/>
<path d="M721.629 217.846C720.988 217.598 720.346 217.357 719.703 217.122" stroke="#7A90FA" stroke-width="1.33333" stroke-miterlimit="10"/>
<path d="M794.569 186.795C793.929 186.545 793.284 186.309 792.639 186.086" stroke="#7A90FA" stroke-width="1.33333" stroke-miterlimit="10"/>
<path d="M723.294 216.665C723.024 217.292 722.765 217.927 722.515 218.569" stroke="#7A90FA" stroke-width="1.33333" stroke-miterlimit="10"/>
<path d="M418.497 206.243C417.887 206.551 417.277 206.865 416.669 207.184" stroke="#7A90FA" stroke-width="1.33333" stroke-miterlimit="10"/>
<rect x="354.247" y="291.726" width="52.9629" height="12.9991" rx="6.49957" fill="#FFDDAB"/>
<g filter="url(#filter1_d)">
<rect x="40" y="89.1121" width="236.231" height="176.543" rx="6" fill="white"/>
</g>
<path d="M62.3826 215.356H66.0692V208.911H69.0843L72.368 215.356H76.5428L72.8319 208.362C74.846 207.568 76.0179 205.627 76.0179 203.369V203.345C76.0179 199.878 73.723 197.742 69.7191 197.742H62.3826V215.356ZM66.0692 206.226V200.623H69.2674C71.1107 200.623 72.2459 201.721 72.2459 203.418V203.442C72.2459 205.176 71.1595 206.226 69.3162 206.226H66.0692ZM84.9493 215.637C89.0875 215.637 91.5777 213.025 91.5777 208.643V208.618C91.5777 204.272 89.0509 201.624 84.9493 201.624C80.8478 201.624 78.3209 204.285 78.3209 208.618V208.643C78.3209 213.013 80.8111 215.637 84.9493 215.637ZM84.9493 212.842C83.045 212.842 81.9708 211.292 81.9708 208.643V208.618C81.9708 205.994 83.0572 204.419 84.9493 204.419C86.8292 204.419 87.9278 205.994 87.9278 208.618V208.643C87.9278 211.292 86.8414 212.842 84.9493 212.842ZM94.5155 215.356H98.08V207.581C98.08 205.762 99.0809 204.578 100.729 204.578C102.413 204.578 103.195 205.579 103.195 207.471V215.356H106.759V206.665C106.759 203.455 105.148 201.624 102.157 201.624C100.241 201.624 98.91 202.539 98.2997 203.992H98.08V201.917H94.5155V215.356ZM110.246 215.356H113.811V207.581C113.811 205.762 114.812 204.578 116.46 204.578C118.144 204.578 118.925 205.579 118.925 207.471V215.356H122.49V206.665C122.49 203.455 120.879 201.624 117.888 201.624C115.971 201.624 114.641 202.539 114.03 203.992H113.811V201.917H110.246V215.356ZM127.796 199.854C128.894 199.854 129.798 198.975 129.798 197.876C129.798 196.765 128.894 195.886 127.796 195.886C126.697 195.886 125.782 196.765 125.782 197.876C125.782 198.975 126.697 199.854 127.796 199.854ZM126.001 215.356H129.566V201.917H126.001V215.356ZM139.095 215.637C143.026 215.637 144.759 213.367 145.175 211.682L145.199 211.56H141.879L141.842 211.633C141.598 212.146 140.731 212.976 139.169 212.976C137.277 212.976 136.092 211.694 136.056 209.485H145.309V208.374C145.309 204.309 142.867 201.624 138.949 201.624C135.03 201.624 132.528 204.37 132.528 208.643V208.655C132.528 212.964 135.006 215.637 139.095 215.637ZM139.01 204.297C140.56 204.297 141.671 205.298 141.891 207.251H136.092C136.312 205.347 137.46 204.297 139.01 204.297ZM162.757 215.808C167.566 215.808 170.569 212.878 170.569 208.203V205.969H163.172V208.655H166.98L166.968 208.984C166.895 211.206 165.235 212.683 162.818 212.683C159.912 212.683 158.069 210.327 158.069 206.506V206.482C158.069 202.734 159.827 200.415 162.671 200.415C164.734 200.415 166.236 201.453 166.736 203.198L166.761 203.32H170.423L170.398 203.198C169.873 199.683 166.834 197.29 162.671 197.29C157.544 197.29 154.309 200.867 154.309 206.519V206.543C154.309 212.28 157.52 215.808 162.757 215.808ZM178.231 215.637C180.148 215.637 181.515 214.746 182.125 213.281H182.345V215.356H185.909V201.917H182.345V209.68C182.345 211.499 181.393 212.683 179.635 212.683C177.95 212.683 177.23 211.694 177.23 209.79V201.917H173.666V210.608C173.666 213.806 175.216 215.637 178.231 215.637ZM189.213 215.356H200.431V212.671H193.815V212.451L200.273 204.187V201.917H189.311V204.602H196.061V204.822L189.213 213.306V215.356ZM203.711 215.356H207.276V207.251C207.276 205.713 208.252 204.578 209.644 204.578C211.035 204.578 211.853 205.42 211.853 206.86V215.356H215.418V207.092C215.418 205.64 216.345 204.578 217.786 204.578C219.275 204.578 220.007 205.396 220.007 207.019V215.356H223.572V206.128C223.572 203.357 221.9 201.624 219.226 201.624C217.346 201.624 215.784 202.612 215.173 204.102H214.954C214.404 202.551 213.049 201.624 211.218 201.624C209.461 201.624 208.069 202.502 207.495 204.016H207.276V201.917H203.711V215.356ZM230.721 215.564C232.479 215.564 233.895 214.819 234.579 213.574H234.798V215.356H238.314V206.177C238.314 203.308 236.3 201.624 232.735 201.624C229.354 201.624 227.132 203.186 226.851 205.542L226.839 205.652H230.135L230.16 205.603C230.44 204.81 231.258 204.358 232.54 204.358C234.005 204.358 234.798 205.017 234.798 206.177V207.288L231.551 207.483C228.206 207.678 226.339 209.094 226.339 211.511V211.536C226.339 213.977 228.158 215.564 230.721 215.564ZM229.818 211.316V211.292C229.818 210.315 230.562 209.741 232.088 209.644L234.798 209.473V210.461C234.798 211.877 233.565 212.964 231.917 212.964C230.684 212.964 229.818 212.341 229.818 211.316ZM241.838 215.356H245.402V207.581C245.402 205.762 246.403 204.578 248.051 204.578C249.736 204.578 250.517 205.579 250.517 207.471V215.356H254.081V206.665C254.081 203.455 252.47 201.624 249.479 201.624C247.563 201.624 246.232 202.539 245.622 203.992H245.402V201.917H241.838V215.356Z" fill="#BDCEDE"/>
<path d="M121.657 239.621H123.516L119.446 228.347H117.563L113.493 239.621H115.29L116.329 236.574H120.626L121.657 239.621ZM118.415 230.34H118.548L120.18 235.168H116.774L118.415 230.34ZM125.231 239.621H126.91V234.551C126.91 233.355 127.809 232.535 129.082 232.535C129.379 232.535 129.879 232.59 130.02 232.629V231.051C129.84 231.011 129.52 230.988 129.27 230.988C128.16 230.988 127.215 231.59 126.973 232.426H126.848V231.136H125.231V239.621ZM132.609 228.996V231.16H131.257V232.504H132.609V237.386C132.609 239.019 133.351 239.676 135.218 239.676C135.546 239.676 135.859 239.636 136.132 239.59V238.254C135.898 238.277 135.749 238.293 135.492 238.293C134.656 238.293 134.288 237.894 134.288 236.98V232.504H136.132V231.16H134.288V228.996H132.609ZM147.17 239.621V229.855H150.709V228.347H141.873V229.855H145.42V239.621H147.17ZM156.65 237.347C156.337 238.035 155.642 238.41 154.627 238.41C153.283 238.41 152.416 237.441 152.361 235.902V235.824H158.369V235.246C158.369 232.59 156.939 230.972 154.572 230.972C152.173 230.972 150.65 232.699 150.65 235.394C150.65 238.105 152.142 239.785 154.58 239.785C156.525 239.785 157.9 238.847 158.267 237.347H156.65ZM154.564 232.34C155.806 232.34 156.619 233.238 156.658 234.613H152.361C152.455 233.246 153.322 232.34 154.564 232.34ZM162.677 239.761C163.794 239.761 164.724 239.277 165.231 238.418H165.364V239.621H166.981V233.816C166.981 232.035 165.778 230.972 163.645 230.972C161.716 230.972 160.341 231.902 160.169 233.332H161.794C161.981 232.715 162.63 232.363 163.567 232.363C164.716 232.363 165.31 232.886 165.31 233.816V234.558L163.005 234.699C160.981 234.824 159.841 235.707 159.841 237.23C159.841 238.777 161.036 239.761 162.677 239.761ZM163.106 238.41C162.192 238.41 161.528 237.949 161.528 237.16C161.528 236.386 162.06 235.972 163.231 235.894L165.31 235.754V236.488C165.31 237.582 164.372 238.41 163.106 238.41ZM176.516 233.863C176.297 232.215 175.008 230.972 172.875 230.972C170.399 230.972 168.891 232.652 168.891 235.347C168.891 238.097 170.407 239.785 172.883 239.785C174.985 239.785 176.297 238.605 176.516 236.933H174.883C174.664 237.855 173.938 238.355 172.875 238.355C171.477 238.355 170.61 237.222 170.61 235.347C170.61 233.511 171.469 232.402 172.875 232.402C174 232.402 174.688 233.035 174.883 233.863H176.516ZM178.457 239.621H180.136V234.652C180.136 233.324 180.902 232.441 182.277 232.441C183.465 232.441 184.097 233.136 184.097 234.535V239.621H185.777V234.136C185.777 232.129 184.66 230.98 182.847 230.98C181.566 230.98 180.668 231.543 180.254 232.488H180.121V227.808H178.457V239.621ZM193.663 237.347C193.351 238.035 192.655 238.41 191.64 238.41C190.296 238.41 189.429 237.441 189.374 235.902V235.824H195.382V235.246C195.382 232.59 193.952 230.972 191.585 230.972C189.187 230.972 187.663 232.699 187.663 235.394C187.663 238.105 189.155 239.785 191.593 239.785C193.538 239.785 194.913 238.847 195.28 237.347H193.663ZM191.577 232.34C192.819 232.34 193.632 233.238 193.671 234.613H189.374C189.468 233.246 190.335 232.34 191.577 232.34ZM197.338 239.621H199.018V234.551C199.018 233.355 199.916 232.535 201.19 232.535C201.487 232.535 201.987 232.59 202.127 232.629V231.051C201.948 231.011 201.627 230.988 201.377 230.988C200.268 230.988 199.323 231.59 199.081 232.426H198.956V231.136H197.338V239.621Z" fill="#BDCEDE"/>
<mask id="mask0" mask-type="alpha" maskUnits="userSpaceOnUse" x="126" y="110" width="66" height="66">
<circle cx="159.049" cy="143.211" r="32.4593" fill="#C4C4C4"/>
</mask>
<g mask="url(#mask0)">
<circle cx="159.049" cy="143.211" r="32.4593" fill="#C4C4C4"/>
<path fill-rule="evenodd" clip-rule="evenodd" d="M158.956 123.388C152.752 123.388 147.722 128.418 147.722 134.622V137.568C146.583 137.759 145.716 138.75 145.716 139.942V143.799C145.716 144.992 146.583 145.982 147.722 146.173V146.381C147.722 150.862 150.346 154.731 154.141 156.534V160.864C145.477 162.394 138.895 169.961 138.895 179.065H179.018C179.018 169.961 172.436 162.394 163.771 160.864V156.534C167.567 154.731 170.191 150.862 170.191 146.381V146.173C171.329 145.982 172.197 144.992 172.197 143.799V139.942C172.197 138.75 171.329 137.759 170.191 137.568V134.622C170.191 128.418 165.161 123.388 158.956 123.388Z" fill="#D0C6AC"/>
<mask id="mask1" mask-type="alpha" maskUnits="userSpaceOnUse" x="138" y="123" width="42" height="57">
<path fill-rule="evenodd" clip-rule="evenodd" d="M158.956 123.388C152.752 123.388 147.722 128.418 147.722 134.622V137.568C146.583 137.759 145.716 138.75 145.716 139.942V143.799C145.716 144.992 146.583 145.982 147.722 146.173V146.381C147.722 150.862 150.346 154.731 154.141 156.534V160.864C145.477 162.394 138.895 169.961 138.895 179.065H179.018C179.018 169.961 172.436 162.394 163.771 160.864V156.534C167.567 154.731 170.191 150.862 170.191 146.381V146.173C171.329 145.982 172.197 144.992 172.197 143.799V139.942C172.197 138.75 171.329 137.759 170.191 137.568V134.622C170.191 128.418 165.161 123.388 158.956 123.388Z" fill="white"/>
</mask>
<g mask="url(#mask1)">
<rect x="132.475" y="123.388" width="52.9629" height="55.6771" fill="#D08B5B"/>
<path fill-rule="evenodd" clip-rule="evenodd" d="M147.722 146.381V148.206C147.722 154.411 152.752 159.441 158.956 159.441C165.161 159.441 170.191 154.411 170.191 148.206V146.381C170.191 152.586 165.161 157.615 158.956 157.615C152.752 157.615 147.722 152.586 147.722 146.381Z" fill="black" fill-opacity="0.1"/>
</g>
<path fill-rule="evenodd" clip-rule="evenodd" d="M158.956 166.983C161.948 166.983 164.373 164.429 164.373 161.279C164.373 161.182 164.371 161.085 164.366 160.989C172.735 162.749 179.018 170.173 179.018 179.065H138.895C138.895 170.173 145.178 162.749 153.546 160.989C153.542 161.085 153.54 161.182 153.54 161.279C153.54 164.429 155.965 166.983 158.956 166.983Z" fill="#E6E6E6"/>
<mask id="mask2" mask-type="alpha" maskUnits="userSpaceOnUse" x="138" y="160" width="42" height="20">
<path fill-rule="evenodd" clip-rule="evenodd" d="M158.956 166.983C161.948 166.983 164.373 164.429 164.373 161.279C164.373 161.182 164.371 161.085 164.366 160.989C172.735 162.749 179.018 170.173 179.018 179.065H138.895C138.895 170.173 145.178 162.749 153.546 160.989C153.542 161.085 153.54 161.182 153.54 161.279C153.54 164.429 155.965 166.983 158.956 166.983Z" fill="white"/>
</mask>
<g mask="url(#mask2)">
<rect x="132.475" y="153.965" width="52.9629" height="25.1003" fill="#262E33"/>
</g>
<path fill-rule="evenodd" clip-rule="evenodd" d="M165.303 179.065C165.986 176.308 166.379 173.066 166.379 169.595C166.379 166.6 166.086 163.774 165.567 161.284C173.329 163.471 179.018 170.604 179.018 179.065H165.303ZM152.81 179.065H138.895C138.895 170.527 144.688 163.341 152.558 161.226C152.032 163.73 151.734 166.576 151.734 169.595C151.734 173.066 152.127 176.308 152.81 179.065Z" fill="#3A4C5A"/>
<path fill-rule="evenodd" clip-rule="evenodd" d="M168.786 173.589L169.36 173.099C170.412 172.202 171.964 172.216 172.999 173.132L168.786 173.589Z" fill="#E6E6E6"/>
<path fill-rule="evenodd" clip-rule="evenodd" d="M152.737 160.354C151.533 166.971 153.74 179.065 153.74 179.065H150.53L147.722 170.85L148.925 168.797L147.722 167.427L151.533 160.582C151.533 160.582 152.144 160.366 152.737 160.354Z" fill="#2F4351"/>
<path fill-rule="evenodd" clip-rule="evenodd" d="M165.175 160.354C166.379 166.971 164.172 179.065 164.172 179.065H167.382L170.191 170.85L168.987 168.797L170.191 167.427L166.379 160.582C166.379 160.582 165.769 160.366 165.175 160.354Z" fill="#2F4351"/>
<path fill-rule="evenodd" clip-rule="evenodd" d="M154.141 158.879C152.783 159.928 151.935 161.416 151.935 163.066C151.935 164.755 152.823 166.274 154.238 167.326L155.429 166.258L156.348 166.334L156.148 165.615L156.163 165.601C154.939 164.884 154.141 163.708 154.141 162.379C154.141 162.379 154.141 162.379 154.141 162.379H154.141V158.879ZM163.771 162.379C163.771 162.379 163.771 162.379 163.771 162.379C163.771 163.708 162.973 164.884 161.749 165.601L161.765 165.615L161.564 166.334L162.483 166.258L163.675 167.326C165.089 166.274 165.978 164.755 165.978 163.066C165.978 161.416 165.13 159.928 163.771 158.879V162.379Z" fill="#F2F2F2"/>
<path fill-rule="evenodd" clip-rule="evenodd" d="M156.147 149.173C156.147 150.937 157.405 152.367 158.956 152.367C160.507 152.367 161.765 150.937 161.765 149.173" fill="black" fill-opacity="0.7"/>
<path fill-rule="evenodd" clip-rule="evenodd" d="M156.549 144.837C156.549 145.845 157.626 146.663 158.956 146.663C160.286 146.663 161.363 145.845 161.363 144.837" fill="black" fill-opacity="0.16"/>
<rect width="22.4691" height="10.0401" transform="translate(147.722 135.71)" fill="#D08B5B"/>
<path fill-rule="evenodd" clip-rule="evenodd" d="M150.964 141.997C151.334 142.864 152.168 143.468 153.138 143.468C154.104 143.468 154.936 142.868 155.308 142.006C155.419 141.75 155.261 141.54 155.102 141.696C154.611 142.177 153.912 142.477 153.138 142.477C152.387 142.477 151.709 142.195 151.22 141.74C151.041 141.574 150.855 141.743 150.964 141.997Z" fill="black" fill-opacity="0.6"/>
<path fill-rule="evenodd" clip-rule="evenodd" d="M162.6 141.997C162.97 142.864 163.804 143.468 164.774 143.468C165.74 143.468 166.572 142.868 166.944 142.006C167.055 141.75 166.897 141.54 166.738 141.696C166.247 142.177 165.548 142.477 164.774 142.477C164.023 142.477 163.345 142.195 162.856 141.74C162.677 141.574 162.491 141.743 162.6 141.997Z" fill="black" fill-opacity="0.6"/>
<path d="M150.857 137.8C151.643 136.543 153.796 135.838 155.651 136.356C155.866 136.416 156.083 136.266 156.136 136.021C156.189 135.777 156.057 135.529 155.842 135.469C153.688 134.868 151.195 135.684 150.203 137.271C150.075 137.476 150.117 137.761 150.298 137.907C150.479 138.053 150.729 138.005 150.857 137.8Z" fill="black" fill-opacity="0.6"/>
<path d="M167.055 137.8C166.27 136.543 164.117 135.838 162.262 136.356C162.047 136.416 161.829 136.266 161.776 136.021C161.724 135.777 161.855 135.529 162.07 135.469C164.224 134.868 166.718 135.684 167.709 137.271C167.838 137.476 167.795 137.761 167.615 137.907C167.434 138.053 167.183 138.005 167.055 137.8Z" fill="black" fill-opacity="0.6"/>
<mask id="mask3" mask-type="alpha" maskUnits="userSpaceOnUse" x="132" y="115" width="54" height="65">
<rect x="132.475" y="115.173" width="52.9629" height="63.8917" fill="white"/>
</mask>
<g mask="url(#mask3)">
<path fill-rule="evenodd" clip-rule="evenodd" d="M159.056 153.015C156.774 153.102 155.756 154.357 154.99 153.081C154.415 152.124 154.655 150.513 155.193 149.607C155.958 148.317 156.996 148.941 158.156 148.794C158.471 148.754 158.788 148.653 159.056 148.488C159.324 148.653 159.641 148.754 159.957 148.794C161.117 148.941 162.155 148.317 162.92 149.607C163.457 150.513 163.698 152.124 163.123 153.081C162.356 154.357 161.338 152.929 159.056 153.015ZM170.135 137.535C169.456 140.747 169.144 144.023 168.652 147.272C168.549 147.949 168.437 148.624 168.317 149.298C168.292 149.44 168.268 149.965 168.147 150.032C167.78 150.233 167.032 149.16 166.832 148.918C166.33 148.31 165.832 147.696 165.22 147.219C163.984 146.254 162.537 145.684 161.032 145.549C160.402 145.492 159.55 145.591 158.956 146.003C158.363 145.591 157.511 145.492 156.881 145.549C155.375 145.684 153.928 146.254 152.692 147.219C152.081 147.696 151.583 148.31 151.081 148.918C150.881 149.16 150.133 150.233 149.766 150.032C149.645 149.965 149.62 149.44 149.595 149.298C149.476 148.624 149.363 147.949 149.261 147.272C148.769 144.023 148.457 140.747 147.778 137.535C147.58 137.535 147.407 141.813 147.385 142.212C147.295 143.831 147.191 145.413 147.324 147.034C147.555 149.829 147.796 153.333 149.646 155.468C151.318 157.396 153.745 157.799 155.838 159.017C156.108 159.174 156.465 159.367 156.851 159.526C157.257 159.882 158.063 160.125 158.991 160.125C159.964 160.125 160.803 159.858 161.187 159.472C161.524 159.325 161.834 159.156 162.074 159.017C164.167 157.799 166.595 157.396 168.266 155.468C170.117 153.333 170.357 149.829 170.588 147.034C170.722 145.413 170.617 143.831 170.527 142.212C170.505 141.813 170.332 137.535 170.135 137.535Z" fill="#252E32"/>
<mask id="mask4" mask-type="alpha" maskUnits="userSpaceOnUse" x="147" y="137" width="24" height="24">
<path fill-rule="evenodd" clip-rule="evenodd" d="M159.056 153.015C156.774 153.102 155.756 154.357 154.99 153.081C154.415 152.124 154.655 150.513 155.193 149.607C155.958 148.317 156.996 148.941 158.156 148.794C158.471 148.754 158.788 148.653 159.056 148.488C159.324 148.653 159.641 148.754 159.957 148.794C161.117 148.941 162.155 148.317 162.92 149.607C163.457 150.513 163.698 152.124 163.123 153.081C162.356 154.357 161.338 152.929 159.056 153.015ZM170.135 137.535C169.456 140.747 169.144 144.023 168.652 147.272C168.549 147.949 168.437 148.624 168.317 149.298C168.292 149.44 168.268 149.965 168.147 150.032C167.78 150.233 167.032 149.16 166.832 148.918C166.33 148.31 165.832 147.696 165.22 147.219C163.984 146.254 162.537 145.684 161.032 145.549C160.402 145.492 159.55 145.591 158.956 146.003C158.363 145.591 157.511 145.492 156.881 145.549C155.375 145.684 153.928 146.254 152.692 147.219C152.081 147.696 151.583 148.31 151.081 148.918C150.881 149.16 150.133 150.233 149.766 150.032C149.645 149.965 149.62 149.44 149.595 149.298C149.476 148.624 149.363 147.949 149.261 147.272C148.769 144.023 148.457 140.747 147.778 137.535C147.58 137.535 147.407 141.813 147.385 142.212C147.295 143.831 147.191 145.413 147.324 147.034C147.555 149.829 147.796 153.333 149.646 155.468C151.318 157.396 153.745 157.799 155.838 159.017C156.108 159.174 156.465 159.367 156.851 159.526C157.257 159.882 158.063 160.125 158.991 160.125C159.964 160.125 160.803 159.858 161.187 159.472C161.524 159.325 161.834 159.156 162.074 159.017C164.167 157.799 166.595 157.396 168.266 155.468C170.117 153.333 170.357 149.829 170.588 147.034C170.722 145.413 170.617 143.831 170.527 142.212C170.505 141.813 170.332 137.535 170.135 137.535Z" fill="white"/>
</mask>
<g mask="url(#mask4)">
<rect x="142.305" y="131.602" width="33.3024" height="34.6841" fill="#724133"/>
</g>
<path fill-rule="evenodd" clip-rule="evenodd" d="M170.486 137.421C170.686 136.871 170.793 136.298 170.793 135.71C170.793 131.551 165.493 128.18 158.956 128.18C152.419 128.18 147.12 131.551 147.12 135.71C147.12 136.298 147.226 136.871 147.427 137.421C148.645 134.087 153.345 131.603 158.956 131.603C164.568 131.603 169.268 134.087 170.486 137.421Z" fill="#EDECE3"/>
<path fill-rule="evenodd" clip-rule="evenodd" d="M142.105 136.696C142.091 145.636 147.922 147.347 147.922 147.347C146.831 136.04 152.644 132.481 157.257 129.656C157.847 129.295 158.417 128.946 158.951 128.594C159.486 128.948 160.059 129.299 160.652 129.662C165.261 132.485 171.077 136.047 169.99 147.347C169.99 147.347 175.821 145.417 175.808 136.696C175.792 125.932 165.346 115.858 159.358 115.858C159.222 115.858 159.088 115.864 158.955 115.878C158.822 115.864 158.689 115.858 158.555 115.858C152.551 115.858 142.121 125.932 142.105 136.696Z" fill="#124C74"/>
<mask id="mask5" mask-type="alpha" maskUnits="userSpaceOnUse" x="142" y="115" width="34" height="33">
<path fill-rule="evenodd" clip-rule="evenodd" d="M142.105 136.696C142.091 145.636 147.922 147.347 147.922 147.347C146.831 136.04 152.644 132.481 157.257 129.656C157.847 129.295 158.417 128.946 158.951 128.594C159.486 128.948 160.059 129.299 160.652 129.662C165.261 132.485 171.077 136.047 169.99 147.347C169.99 147.347 175.821 145.417 175.808 136.696C175.792 125.932 165.346 115.858 159.358 115.858C159.222 115.858 159.088 115.864 158.955 115.878C158.822 115.864 158.689 115.858 158.555 115.858C152.551 115.858 142.121 125.932 142.105 136.696Z" fill="white"/>
</mask>
<g mask="url(#mask5)">
<rect x="132.475" y="115.173" width="52.9629" height="63.8917" fill="#25557C"/>
</g>
<path fill-rule="evenodd" clip-rule="evenodd" d="M142.107 137.056C142.245 145.516 147.707 147.281 147.916 147.345C147.704 147.284 142.091 145.575 142.105 137.314C142.105 137.228 142.106 137.142 142.107 137.056ZM162.166 125.337C162.702 124.202 162.997 123.122 163.098 122.125C163.248 123.432 162.994 124.96 162.166 126.613C161.397 128.294 159.465 129.408 157.257 130.682C153.04 133.114 147.819 136.126 147.789 144.764C147.759 135.472 153.015 132.253 157.257 129.656C159.465 128.305 161.397 127.121 162.166 125.337ZM147.922 147.345C147.922 147.346 147.922 147.347 147.922 147.347C147.922 147.347 147.922 147.346 147.922 147.345Z" fill="black" fill-opacity="0.16"/>
</g>
</g>
<g filter="url(#filter2_d)">
<rect x="509" y="46.2375" width="239.594" height="179.065" rx="6" fill="white"/>
</g>
<path d="M556.996 174.338H560.865L562.171 170.066H568.385L569.691 174.338H573.573L567.445 156.724H563.111L556.996 174.338ZM565.174 160.239H565.394L567.542 167.307H563.014L565.174 160.239ZM576.364 174.338H579.928V155.759H576.364V174.338ZM583.77 174.338H587.334V155.759H583.77V174.338ZM596.961 174.619C600.892 174.619 602.625 172.349 603.04 170.664L603.065 170.542H599.744L599.708 170.615C599.464 171.128 598.597 171.958 597.034 171.958C595.142 171.958 593.958 170.676 593.922 168.467H603.175V167.356C603.175 163.291 600.733 160.605 596.815 160.605C592.896 160.605 590.394 163.352 590.394 167.625V167.637C590.394 171.946 592.872 174.619 596.961 174.619ZM596.876 163.279C598.426 163.279 599.537 164.28 599.757 166.233H593.958C594.178 164.329 595.325 163.279 596.876 163.279ZM606.125 174.338H609.689V166.562C609.689 164.744 610.69 163.56 612.338 163.56C614.023 163.56 614.804 164.561 614.804 166.453V174.338H618.368V165.647C618.368 162.437 616.757 160.605 613.766 160.605C611.85 160.605 610.519 161.521 609.909 162.974H609.689V160.898H606.125V174.338ZM636.39 174.79C641.59 174.79 644.861 171.226 644.861 165.537V165.513C644.861 159.824 641.578 156.272 636.39 156.272C631.202 156.272 627.906 159.812 627.906 165.513V165.537C627.906 171.226 631.153 174.79 636.39 174.79ZM636.39 171.665C633.485 171.665 631.666 169.26 631.666 165.537V165.513C631.666 161.777 633.521 159.397 636.39 159.397C639.246 159.397 641.102 161.777 641.102 165.513V165.537C641.102 169.26 639.258 171.665 636.39 171.665ZM648.165 174.338H651.73V155.759H648.165V174.338ZM657.268 158.835C658.366 158.835 659.27 157.957 659.27 156.858C659.27 155.747 658.366 154.868 657.268 154.868C656.169 154.868 655.254 155.747 655.254 156.858C655.254 157.957 656.169 158.835 657.268 158.835ZM655.473 174.338H659.038V160.898H655.473V174.338ZM666.175 174.338H670.179L674.83 160.898H671.082L668.323 171.006H668.104L665.32 160.898H661.499L666.175 174.338ZM682.614 174.619C686.544 174.619 688.278 172.349 688.693 170.664L688.717 170.542H685.397L685.36 170.615C685.116 171.128 684.249 171.958 682.687 171.958C680.795 171.958 679.611 170.676 679.574 168.467H688.827V167.356C688.827 163.291 686.386 160.605 682.467 160.605C678.549 160.605 676.046 163.352 676.046 167.625V167.637C676.046 171.946 678.524 174.619 682.614 174.619ZM682.528 163.279C684.078 163.279 685.189 164.28 685.409 166.233H679.611C679.83 164.329 680.978 163.279 682.528 163.279ZM691.777 174.338H695.341V166.819C695.341 164.915 696.623 163.755 698.649 163.755C699.199 163.755 699.748 163.84 700.285 163.962V160.85C699.931 160.752 699.431 160.679 698.955 160.679C697.209 160.679 695.988 161.533 695.561 162.986H695.341V160.898H691.777V174.338Z" fill="#BDCEDE"/>
<path d="M589.646 199.762H590.959V191.153H591.045L594.607 199.762H595.795L599.357 191.153H599.443V199.762H600.756V188.489H599.123L595.263 197.895H595.138L591.279 188.489H589.646V199.762ZM605.712 199.911C606.845 199.911 607.728 199.418 608.259 198.52H608.384V199.762H609.743V193.997C609.743 192.247 608.595 191.192 606.54 191.192C604.743 191.192 603.462 192.083 603.243 193.403L603.235 193.45H604.595L604.603 193.426C604.821 192.77 605.485 192.395 606.493 192.395C607.751 192.395 608.384 192.958 608.384 193.997V194.762L605.97 194.911C604.009 195.028 602.899 195.895 602.899 197.395V197.411C602.899 198.942 604.11 199.911 605.712 199.911ZM604.29 197.379V197.364C604.29 196.528 604.853 196.075 606.134 195.997L608.384 195.856V196.622C608.384 197.825 607.376 198.731 605.993 198.731C605.017 198.731 604.29 198.231 604.29 197.379ZM615.161 199.825C615.426 199.825 615.684 199.793 615.95 199.747V198.59C615.7 198.614 615.567 198.622 615.325 198.622C614.45 198.622 614.106 198.223 614.106 197.231V192.465H615.95V191.34H614.106V189.161H612.7V191.34H611.371V192.465H612.7V197.575C612.7 199.184 613.426 199.825 615.161 199.825ZM618 199.762H619.359V194.778C619.359 193.301 620.211 192.395 621.554 192.395C622.898 192.395 623.523 193.122 623.523 194.637V199.762H624.883V194.309C624.883 192.309 623.828 191.192 621.937 191.192C620.695 191.192 619.906 191.715 619.484 192.606H619.359V187.997H618V199.762ZM634.842 199.762H636.249V189.754H639.881V188.489H631.21V189.754H634.842V199.762ZM643.471 199.911C644.705 199.911 645.557 199.403 645.971 198.504H646.096V199.762H647.455V191.34H646.096V196.325C646.096 197.801 645.307 198.708 643.822 198.708C642.478 198.708 641.932 197.981 641.932 196.465V191.34H640.572V196.793C640.572 198.786 641.557 199.911 643.471 199.911ZM652.927 199.825C653.193 199.825 653.45 199.793 653.716 199.747V198.59C653.466 198.614 653.333 198.622 653.091 198.622C652.216 198.622 651.872 198.223 651.872 197.231V192.465H653.716V191.34H651.872V189.161H650.466V191.34H649.138V192.465H650.466V197.575C650.466 199.184 651.193 199.825 652.927 199.825ZM659.024 199.911C661.423 199.911 662.907 198.254 662.907 195.559V195.543C662.907 192.84 661.423 191.192 659.024 191.192C656.626 191.192 655.141 192.84 655.141 195.543V195.559C655.141 198.254 656.626 199.911 659.024 199.911ZM659.024 198.708C657.43 198.708 656.532 197.543 656.532 195.559V195.543C656.532 193.551 657.43 192.395 659.024 192.395C660.618 192.395 661.516 193.551 661.516 195.543V195.559C661.516 197.543 660.618 198.708 659.024 198.708ZM664.957 199.762H666.316V194.543C666.316 193.309 667.238 192.489 668.535 192.489C668.832 192.489 669.09 192.52 669.371 192.567V191.247C669.238 191.223 668.949 191.192 668.691 191.192C667.551 191.192 666.762 191.708 666.441 192.59H666.316V191.34H664.957V199.762Z" fill="#BDCEDE"/>
<mask id="mask6" mask-type="alpha" maskUnits="userSpaceOnUse" x="594" y="68" width="67" height="67">
<circle cx="627.867" cy="101.825" r="32.8895" fill="#C4C4C4"/>
</mask>
<g mask="url(#mask6)">
<circle cx="627.867" cy="101.825" r="32.8895" fill="#C4C4C4"/>
<path fill-rule="evenodd" clip-rule="evenodd" d="M628.056 79.6724C621.851 79.6724 616.821 84.7022 616.821 90.9069V93.8531C615.683 94.0442 614.815 95.0344 614.815 96.2272V100.083C614.815 101.276 615.683 102.267 616.821 102.458V102.666C616.821 107.147 619.446 111.016 623.241 112.819V117.149C614.576 118.679 607.994 126.246 607.994 135.349H648.118C648.118 126.246 641.536 118.679 632.871 117.149V112.819C636.666 111.016 639.291 107.147 639.291 102.666V102.458C640.429 102.267 641.297 101.276 641.297 100.083V96.2272C641.297 95.0343 640.429 94.0441 639.291 93.8531V90.9069C639.291 84.7022 634.261 79.6724 628.056 79.6724Z" fill="#D0C6AC"/>
<mask id="mask7" mask-type="alpha" maskUnits="userSpaceOnUse" x="607" y="79" width="42" height="57">
<path fill-rule="evenodd" clip-rule="evenodd" d="M628.056 79.6724C621.851 79.6724 616.821 84.7022 616.821 90.9069V93.8531C615.683 94.0442 614.815 95.0344 614.815 96.2272V100.083C614.815 101.276 615.683 102.267 616.821 102.458V102.666C616.821 107.147 619.446 111.016 623.241 112.819V117.149C614.576 118.679 607.994 126.246 607.994 135.349H648.118C648.118 126.246 641.536 118.679 632.871 117.149V112.819C636.666 111.016 639.291 107.147 639.291 102.666V102.458C640.429 102.267 641.297 101.276 641.297 100.083V96.2272C641.297 95.0343 640.429 94.0441 639.291 93.8531V90.9069C639.291 84.7022 634.261 79.6724 628.056 79.6724Z" fill="white"/>
</mask>
<g mask="url(#mask7)">
<rect x="601.575" y="79.6724" width="52.9629" height="55.6771" fill="#D08B5B"/>
<path fill-rule="evenodd" clip-rule="evenodd" d="M616.822 102.666V104.491C616.822 110.696 621.851 115.726 628.056 115.726C634.261 115.726 639.291 110.696 639.291 104.491V102.666C639.291 108.87 634.261 113.9 628.056 113.9C621.851 113.9 616.822 108.87 616.822 102.666Z" fill="black" fill-opacity="0.1"/>
</g>
<path fill-rule="evenodd" clip-rule="evenodd" d="M628.056 123.268C631.048 123.268 633.473 120.714 633.473 117.563C633.473 117.466 633.47 117.37 633.466 117.274C641.835 119.033 648.118 126.458 648.118 135.35H607.994C607.994 126.458 614.278 119.033 622.646 117.274C622.642 117.37 622.639 117.466 622.639 117.563C622.639 120.714 625.065 123.268 628.056 123.268Z" fill="#E6E6E6"/>
<mask id="mask8" mask-type="alpha" maskUnits="userSpaceOnUse" x="607" y="117" width="42" height="19">
<path fill-rule="evenodd" clip-rule="evenodd" d="M628.056 123.268C631.048 123.268 633.473 120.714 633.473 117.563C633.473 117.466 633.47 117.37 633.466 117.274C641.835 119.033 648.118 126.458 648.118 135.35H607.994C607.994 126.458 614.278 119.033 622.646 117.274C622.642 117.37 622.639 117.466 622.639 117.563C622.639 120.714 625.065 123.268 628.056 123.268Z" fill="white"/>
</mask>
<g mask="url(#mask8)">
<rect x="601.575" y="110.249" width="52.9629" height="25.1003" fill="#3C4F5C"/>
</g>
<path fill-rule="evenodd" clip-rule="evenodd" d="M623.241 115.172C621.884 116.222 621.034 117.72 621.034 119.383C621.034 121.071 621.909 122.59 623.303 123.642L624.529 122.543L625.448 122.619L625.247 121.9L625.263 121.886C624.039 121.169 623.241 119.993 623.241 118.664C623.241 118.664 623.241 118.664 623.241 118.664V115.172ZM632.871 118.664C632.871 118.664 632.871 118.664 632.871 118.664C632.871 119.993 632.073 121.169 630.849 121.886L630.865 121.9L630.664 122.619L631.583 122.543L632.716 123.559C634.047 122.51 634.877 121.027 634.877 119.383C634.877 117.804 634.111 116.373 632.871 115.333V118.664Z" fill="#F2F2F2"/>
<path fill-rule="evenodd" clip-rule="evenodd" d="M625.248 105.458C625.248 107.222 626.505 108.652 628.056 108.652C629.607 108.652 630.865 107.222 630.865 105.458" fill="black" fill-opacity="0.7"/>
<path fill-rule="evenodd" clip-rule="evenodd" d="M625.649 101.122C625.649 102.13 626.727 102.947 628.056 102.947C629.386 102.947 630.463 102.13 630.463 101.122" fill="black" fill-opacity="0.16"/>
<ellipse cx="622.84" cy="97.0144" rx="1.2037" ry="1.36911" fill="black" fill-opacity="0.6"/>
<ellipse cx="633.272" cy="97.0144" rx="1.2037" ry="1.36911" fill="black" fill-opacity="0.6"/>
<path d="M619.957 94.0843C620.742 92.8273 622.896 92.1224 624.75 92.6405C624.966 92.7006 625.183 92.5509 625.236 92.3061C625.289 92.0613 625.157 91.8142 624.942 91.7541C622.788 91.1524 620.294 91.9686 619.303 93.5555C619.175 93.761 619.217 94.0459 619.398 94.1919C619.578 94.3379 619.829 94.2897 619.957 94.0843Z" fill="black" fill-opacity="0.6"/>
<path d="M636.155 94.0843C635.369 92.8273 633.216 92.1224 631.361 92.6405C631.146 92.7006 630.929 92.5509 630.876 92.3061C630.823 92.0613 630.955 91.8142 631.17 91.7541C633.324 91.1524 635.817 91.9686 636.809 93.5555C636.937 93.761 636.895 94.0459 636.714 94.1919C636.534 94.3379 636.283 94.2897 636.155 94.0843Z" fill="black" fill-opacity="0.6"/>
<mask id="mask9" mask-type="alpha" maskUnits="userSpaceOnUse" x="601" y="71" width="54" height="65">
<rect x="601.575" y="71.4578" width="52.9629" height="63.8917" fill="white"/>
</mask>
<g mask="url(#mask9)">
<path fill-rule="evenodd" clip-rule="evenodd" d="M638.223 80.3452C639.308 79.2156 639.569 76.9253 638.953 75.4393C638.197 73.6149 636.663 73.3863 635.193 74.1887C633.807 74.9451 632.573 75.1971 631.055 74.8306C629.599 74.479 628.218 73.8588 626.713 73.7569C624.24 73.5896 621.838 74.6327 620.152 76.7354C619.831 77.1365 619.572 77.5952 619.327 78.06C619.131 78.432 618.91 78.8311 618.827 79.2598C618.787 79.4637 618.861 79.9666 618.772 80.1337C618.675 80.314 618.311 80.4795 618.156 80.6133C617.842 80.8845 617.569 81.1906 617.317 81.5368C616.783 82.2719 616.488 83.0398 616.241 83.9491C615.417 86.9714 615.348 90.5661 616.412 93.5338C616.554 93.9295 616.993 94.755 617.252 93.9076C617.303 93.7401 617.184 93.1787 617.185 93.0097C617.186 92.3891 617.487 88.2797 618.799 85.9777C619.226 85.2284 621.201 82.4224 621.604 82.3999C621.818 82.7862 623.988 85.2543 629.618 84.965C632.158 84.8345 634.111 83.5364 634.58 82.9737C634.787 84.2362 637.187 86.1263 637.553 86.904C638.609 89.1506 638.843 93.8188 639.247 93.81C639.65 93.8013 639.94 92.6149 640.023 92.3884C640.639 90.7054 640.744 88.5931 640.678 86.7845C640.592 84.4565 639.747 81.9409 638.223 80.3452Z" fill="#28354B"/>
<mask id="mask10" mask-type="alpha" maskUnits="userSpaceOnUse" x="615" y="73" width="26" height="22">
<path fill-rule="evenodd" clip-rule="evenodd" d="M638.223 80.3452C639.308 79.2156 639.569 76.9253 638.953 75.4393C638.197 73.6149 636.663 73.3863 635.193 74.1887C633.807 74.9451 632.573 75.1971 631.055 74.8306C629.599 74.479 628.218 73.8588 626.713 73.7569C624.24 73.5896 621.838 74.6327 620.152 76.7354C619.831 77.1365 619.572 77.5952 619.327 78.06C619.131 78.432 618.91 78.8311 618.827 79.2598C618.787 79.4637 618.861 79.9666 618.772 80.1337C618.675 80.314 618.311 80.4795 618.156 80.6133C617.842 80.8845 617.569 81.1906 617.317 81.5368C616.783 82.2719 616.488 83.0398 616.241 83.9491C615.417 86.9714 615.348 90.5661 616.412 93.5338C616.554 93.9295 616.993 94.755 617.252 93.9076C617.303 93.7401 617.184 93.1787 617.185 93.0097C617.186 92.3891 617.487 88.2797 618.799 85.9777C619.226 85.2284 621.201 82.4224 621.604 82.3999C621.818 82.7862 623.988 85.2543 629.618 84.965C632.158 84.8345 634.111 83.5364 634.58 82.9737C634.787 84.2362 637.187 86.1263 637.553 86.904C638.609 89.1506 638.843 93.8188 639.247 93.81C639.65 93.8013 639.94 92.6149 640.023 92.3884C640.639 90.7054 640.744 88.5931 640.678 86.7845C640.592 84.4565 639.747 81.9409 638.223 80.3452Z" fill="white"/>
</mask>
<g mask="url(#mask10)">
<rect x="601.575" y="71.4578" width="52.9629" height="63.8917" fill="#724133"/>
</g>
<g filter="url(#filter3_d)">
<path fill-rule="evenodd" clip-rule="evenodd" d="M621.284 101.807H621.837C624.79 101.807 626.852 99.8826 626.852 97.1287C626.852 94.7618 626.488 92.4509 622.132 92.4509H621.542C617.186 92.4509 616.822 94.7618 616.822 97.1287C616.822 100.058 618.49 101.807 621.284 101.807ZM617.624 97.3572C617.624 95.381 617.624 93.82 621.513 93.82H622.161C626.05 93.82 626.05 95.381 626.05 97.3572C626.05 99.4395 624.318 100.894 621.837 100.894H621.229C618.249 100.894 617.624 98.9706 617.624 97.3572Z" fill="#252C2F"/>
<path fill-rule="evenodd" clip-rule="evenodd" d="M633.722 101.807H634.275C637.229 101.807 639.291 99.8826 639.291 97.1287C639.291 94.7618 638.926 92.4509 634.57 92.4509H633.981C629.625 92.4509 629.26 94.7618 629.26 97.1287C629.26 100.058 630.928 101.807 633.722 101.807ZM630.062 97.3572C630.062 95.381 630.062 93.82 633.951 93.82H634.599C638.488 93.82 638.488 95.381 638.488 97.3572C638.488 99.4395 636.756 100.894 634.275 100.894H633.668C630.688 100.894 630.062 98.9706 630.062 97.3572Z" fill="#252C2F"/>
<path d="M615.609 93.7679C615.748 93.6138 617.265 92.4509 621.536 92.4509C625.117 92.4509 625.876 92.8737 627.023 93.5124L627.107 93.5596C627.187 93.5916 627.595 93.7493 628.072 93.7666C628.507 93.7454 628.879 93.6113 628.987 93.5684C630.297 92.8439 631.579 92.4509 634.576 92.4509C638.847 92.4509 640.365 93.6138 640.504 93.7679C640.831 93.7679 641.096 94.0623 641.096 94.4264V95.0849C641.096 95.449 640.831 95.7434 640.504 95.7434C640.504 95.7434 639.119 95.7434 639.119 96.4019C639.119 97.0604 638.725 95.449 638.725 95.0849V94.4435C638.003 94.1289 636.709 93.5431 634.576 93.5431C632.201 93.5431 631.018 94.0222 630.003 94.498L630.014 94.5291L630.014 94.9824L629.569 96.2031L629.019 95.956C628.97 95.934 628.864 95.8943 628.718 95.8531C628.308 95.7383 627.887 95.7034 627.515 95.7903C627.379 95.8221 627.252 95.87 627.136 95.9346L626.606 96.2292L626.075 95.0514L626.099 94.5278L626.115 94.4833C625.24 94.0194 624.433 93.5431 621.536 93.5431C619.404 93.5431 618.11 94.1286 617.387 94.4433V95.0849C617.387 95.449 616.794 97.0604 616.794 96.4019C616.794 95.7434 615.609 95.7434 615.609 95.7434C615.282 95.7434 615.016 95.449 615.016 95.0849V94.4264C615.016 94.0623 615.282 93.7679 615.609 93.7679Z" fill="#252C2F"/>
</g>
</g>
</g>
<g filter="url(#filter4_d)">
<rect x="323" y="291.716" width="241.275" height="180.746" rx="6" fill="white"/>
</g>
<path d="M366.592 401.323V419.642H373.803C379.287 419.642 382.398 416.291 382.398 410.362C382.398 404.611 379.249 401.323 373.803 401.323H366.592ZM370.426 404.484H373.194C376.52 404.484 378.488 406.642 378.488 410.425C378.488 414.348 376.583 416.481 373.194 416.481H370.426V404.484ZM389.414 419.858C391.229 419.858 392.753 419.083 393.476 417.789H393.705V419.642H397.285V410.095C397.285 407.112 395.19 405.36 391.483 405.36C387.967 405.36 385.593 406.972 385.351 409.537H388.754C389.058 408.661 389.947 408.191 391.28 408.191C392.804 408.191 393.641 408.889 393.641 410.095V411.25L390.252 411.454C386.773 411.657 384.831 413.129 384.831 415.656C384.831 418.208 386.723 419.858 389.414 419.858ZM390.633 417.154C389.35 417.154 388.449 416.506 388.449 415.427C388.449 414.399 389.223 413.802 390.81 413.701L393.641 413.51V414.551C393.641 416.024 392.347 417.154 390.633 417.154ZM400.95 419.642H404.644V411.555C404.644 409.664 405.698 408.445 407.412 408.445C409.164 408.445 409.989 409.473 409.989 411.441V419.642H413.683V410.603C413.683 407.264 412.007 405.36 408.897 405.36C406.828 405.36 405.406 406.337 404.758 407.912H404.53V405.665H400.95V419.642ZM421.144 419.858C422.959 419.858 424.483 419.083 425.206 417.789H425.435V419.642H429.015V410.095C429.015 407.112 426.92 405.36 423.213 405.36C419.696 405.36 417.322 406.972 417.081 409.537H420.483C420.788 408.661 421.677 408.191 423.01 408.191C424.533 408.191 425.371 408.889 425.371 410.095V411.25L421.982 411.454C418.503 411.657 416.561 413.129 416.561 415.656C416.561 418.208 418.452 419.858 421.144 419.858ZM422.362 417.154C421.08 417.154 420.179 416.506 420.179 415.427C420.179 414.399 420.953 413.802 422.54 413.701L425.371 413.51V414.551C425.371 416.024 424.076 417.154 422.362 417.154ZM455.704 419.642V401.323H451.87V408.762H443.618V401.323H439.784V419.642H443.618V411.923H451.87V419.642H455.704ZM466.021 419.934C470.325 419.934 472.915 417.217 472.915 412.647C472.915 408.115 470.287 405.36 466.021 405.36C461.756 405.36 459.128 408.127 459.128 412.647C459.128 417.205 461.718 419.934 466.021 419.934ZM466.021 417.014C464.041 417.014 462.924 415.415 462.924 412.647C462.924 409.905 464.054 408.292 466.021 408.292C467.976 408.292 469.119 409.905 469.119 412.647C469.119 415.415 467.989 417.014 466.021 417.014ZM482.14 424.936C486.368 424.936 489.046 422.879 489.046 419.617V405.665H485.466V407.899H485.238C484.489 406.375 482.876 405.436 480.985 405.436C477.43 405.436 475.247 408.204 475.247 412.533C475.247 416.722 477.418 419.439 480.909 419.439C482.876 419.439 484.349 418.639 485.124 417.167H485.352V419.769C485.352 421.381 484.197 422.321 482.216 422.321C480.617 422.321 479.576 421.762 479.385 420.874H475.729C475.958 423.324 478.42 424.936 482.14 424.936ZM482.191 416.608C480.185 416.608 479.043 415.034 479.043 412.52C479.043 410.006 480.198 408.432 482.191 408.432C484.184 408.432 485.39 410.006 485.39 412.52C485.39 415.034 484.197 416.608 482.191 416.608ZM496.621 419.858C498.437 419.858 499.96 419.083 500.684 417.789H500.912V419.642H504.492V410.095C504.492 407.112 502.398 405.36 498.691 405.36C495.174 405.36 492.8 406.972 492.559 409.537H495.961C496.266 408.661 497.154 408.191 498.487 408.191C500.011 408.191 500.849 408.889 500.849 410.095V411.25L497.459 411.454C493.981 411.657 492.038 413.129 492.038 415.656C492.038 418.208 493.93 419.858 496.621 419.858ZM497.84 417.154C496.558 417.154 495.656 416.506 495.656 415.427C495.656 414.399 496.431 413.802 498.018 413.701L500.849 413.51V414.551C500.849 416.024 499.554 417.154 497.84 417.154ZM508.157 419.642H511.851V411.555C511.851 409.664 512.905 408.445 514.619 408.445C516.371 408.445 517.196 409.473 517.196 411.441V419.642H520.89V410.603C520.89 407.264 519.215 405.36 516.104 405.36C514.035 405.36 512.613 406.337 511.966 407.912H511.737V405.665H508.157V419.642Z" fill="#BDCEDE"/>
<path d="M385.541 445.429H387.4V435.053H391.16V433.451H381.772V435.053H385.541V445.429ZM395.331 445.603C397.638 445.603 398.883 444.275 399.182 443.088L399.199 443.013L397.464 443.021L397.431 443.088C397.215 443.553 396.526 444.125 395.372 444.125C393.886 444.125 392.94 443.121 392.907 441.395H399.298V440.764C399.298 438.058 397.754 436.24 395.239 436.24C392.724 436.24 391.097 438.124 391.097 440.938V440.946C391.097 443.802 392.691 445.603 395.331 445.603ZM395.248 437.717C396.468 437.717 397.373 438.498 397.514 440.108H392.932C393.089 438.556 394.019 437.717 395.248 437.717ZM401.377 445.429H403.178V440.141C403.178 438.688 404 437.784 405.32 437.784C406.64 437.784 407.262 438.522 407.262 440.017V445.429H409.055V439.593C409.055 437.443 407.943 436.24 405.926 436.24C404.614 436.24 403.751 436.821 403.311 437.784H403.178V436.414H401.377V445.429ZM411.508 445.429H413.309V440.141C413.309 438.688 414.131 437.784 415.45 437.784C416.77 437.784 417.393 438.522 417.393 440.017V445.429H419.186V439.593C419.186 437.443 418.074 436.24 416.056 436.24C414.745 436.24 413.882 436.821 413.442 437.784H413.309V436.414H411.508V445.429ZM422.576 434.804C423.19 434.804 423.705 434.297 423.705 433.683C423.705 433.061 423.19 432.554 422.576 432.554C421.953 432.554 421.447 433.061 421.447 433.683C421.447 434.297 421.953 434.804 422.576 434.804ZM421.671 445.429H423.464V436.414H421.671V445.429ZM429.303 445.603C431.445 445.603 433.039 444.466 433.039 442.797V442.781C433.039 441.478 432.208 440.739 430.474 440.332L429.046 440.008C428.033 439.768 427.618 439.419 427.618 438.854V438.838C427.618 438.116 428.332 437.626 429.32 437.626C430.332 437.626 430.972 438.099 431.146 438.73V438.747H432.864V438.738C432.706 437.269 431.387 436.24 429.328 436.24C427.286 436.24 425.825 437.369 425.825 438.938V438.946C425.825 440.266 426.614 441.038 428.315 441.428L429.751 441.76C430.797 442 431.221 442.382 431.221 442.947V442.963C431.221 443.702 430.449 444.208 429.336 444.208C428.266 444.208 427.61 443.752 427.386 443.071L427.377 443.063H425.576V443.071C425.75 444.582 427.128 445.603 429.303 445.603ZM444.833 445.719C447.506 445.719 449.456 444.192 449.805 441.893V441.843H447.962L447.945 441.876C447.605 443.229 446.418 444.076 444.833 444.076C442.674 444.076 441.33 442.291 441.33 439.452V439.436C441.33 436.588 442.674 434.804 444.824 434.804C446.401 434.804 447.605 435.758 447.954 437.228V437.252H449.797L449.805 437.211C449.489 434.829 447.464 433.16 444.824 433.16C441.496 433.16 439.429 435.567 439.429 439.436V439.452C439.429 443.312 441.504 445.719 444.833 445.719ZM455.801 445.603C458.441 445.603 460.06 443.835 460.06 440.93V440.913C460.06 438.008 458.433 436.24 455.801 436.24C453.162 436.24 451.535 438.016 451.535 440.913V440.93C451.535 443.835 453.154 445.603 455.801 445.603ZM455.801 444.101C454.249 444.101 453.378 442.93 453.378 440.93V440.913C453.378 438.913 454.249 437.742 455.801 437.742C457.345 437.742 458.225 438.913 458.225 440.913V440.93C458.225 442.922 457.345 444.101 455.801 444.101ZM464.62 445.578C465.816 445.578 466.762 445.063 467.293 444.15H467.434V445.429H469.219V439.261C469.219 437.369 467.941 436.24 465.675 436.24C463.624 436.24 462.205 437.228 461.989 438.705L461.981 438.763H463.716L463.724 438.73C463.94 438.091 464.596 437.726 465.592 437.726C466.812 437.726 467.434 438.273 467.434 439.261V440.058L464.994 440.199C462.844 440.332 461.632 441.27 461.632 442.88V442.897C461.632 444.532 462.902 445.578 464.62 445.578ZM463.425 442.822V442.806C463.425 441.992 463.99 441.544 465.235 441.469L467.434 441.328V442.1C467.434 443.262 466.447 444.142 465.102 444.142C464.131 444.142 463.425 443.652 463.425 442.822ZM475.49 445.603C477.723 445.603 479.009 444.399 479.333 442.648L479.35 442.573H477.623L477.606 442.615C477.316 443.586 476.619 444.101 475.49 444.101C474.004 444.101 473.082 442.889 473.082 440.896V440.88C473.082 438.938 473.987 437.742 475.49 437.742C476.685 437.742 477.415 438.406 477.615 439.294L477.623 439.319L479.35 439.311V439.27C479.1 437.518 477.747 436.24 475.481 436.24C472.85 436.24 471.248 438.024 471.248 440.88V440.896C471.248 443.81 472.858 445.603 475.49 445.603ZM481.412 445.429H483.213V440.141C483.213 438.688 484.035 437.784 485.354 437.784C486.674 437.784 487.297 438.522 487.297 440.017V445.429H489.09V439.593C489.09 437.443 487.978 436.24 485.96 436.24C484.649 436.24 483.786 436.821 483.346 437.784H483.213V432.878H481.412V445.429Z" fill="#BDCEDE"/>
<mask id="mask11" mask-type="alpha" maskUnits="userSpaceOnUse" x="409" y="312" width="68" height="68">
<circle cx="443.192" cy="346.125" r="33.1983" fill="#C4C4C4"/>
</mask>
<g mask="url(#mask11)">
<circle cx="443.192" cy="346.125" r="33.1983" fill="#C4C4C4"/>
<path fill-rule="evenodd" clip-rule="evenodd" d="M443.527 326.724C437.421 326.724 432.47 331.674 432.47 337.781V340.718C431.35 340.906 430.496 341.881 430.496 343.055V346.873C430.496 348.047 431.35 349.022 432.47 349.21V349.445C432.47 353.856 435.053 357.663 438.788 359.438V363.715C430.258 365.242 423.783 372.699 423.783 381.669H463.27C463.27 372.699 456.796 365.242 448.265 363.715V359.438C452 357.663 454.583 353.856 454.583 349.445V349.21C455.703 349.022 456.557 348.047 456.557 346.873V343.055C456.557 341.881 455.703 340.906 454.583 340.718V337.781C454.583 331.674 449.633 326.724 443.527 326.724Z" fill="#D0C6AC"/>
<mask id="mask12" mask-type="alpha" maskUnits="userSpaceOnUse" x="423" y="326" width="41" height="56">
<path fill-rule="evenodd" clip-rule="evenodd" d="M443.527 326.724C437.421 326.724 432.47 331.674 432.47 337.781V340.718C431.35 340.906 430.496 341.881 430.496 343.055V346.873C430.496 348.047 431.35 349.022 432.47 349.21V349.445C432.47 353.856 435.053 357.663 438.788 359.438V363.715C430.258 365.242 423.783 372.699 423.783 381.669H463.27C463.27 372.699 456.796 365.242 448.265 363.715V359.438C452 357.663 454.583 353.856 454.583 349.445V349.21C455.703 349.022 456.557 348.047 456.557 346.873V343.055C456.557 341.881 455.703 340.906 454.583 340.718V337.781C454.583 331.674 449.633 326.724 443.527 326.724Z" fill="white"/>
</mask>
<g mask="url(#mask12)">
<rect x="417.466" y="326.724" width="52.1222" height="54.9445" fill="#AE5D29"/>
<path fill-rule="evenodd" clip-rule="evenodd" d="M432.47 349.446V351.247C432.47 357.353 437.421 362.303 443.527 362.303C449.633 362.303 454.583 357.353 454.583 351.247V349.446C454.583 355.552 449.633 360.502 443.527 360.502C437.421 360.502 432.47 355.552 432.47 349.446Z" fill="black" fill-opacity="0.1"/>
</g>
<path fill-rule="evenodd" clip-rule="evenodd" d="M438.788 360.208C435.053 361.22 432.47 363.391 432.47 365.906C432.47 365.979 432.473 366.051 432.477 366.124C427.261 369.334 423.783 375.095 423.783 381.669H463.27C463.27 375.095 459.792 369.334 454.576 366.124C454.581 366.051 454.583 365.979 454.583 365.906C454.583 363.391 452 361.22 448.265 360.208V364.771C448.265 367.388 446.144 369.509 443.527 369.509C440.91 369.509 438.788 367.388 438.788 364.771V360.208Z" fill="#B7C1DB"/>
<mask id="mask13" mask-type="alpha" maskUnits="userSpaceOnUse" x="423" y="360" width="41" height="22">
<path fill-rule="evenodd" clip-rule="evenodd" d="M438.788 360.208C435.053 361.22 432.47 363.391 432.47 365.906C432.47 365.979 432.473 366.051 432.477 366.124C427.261 369.334 423.783 375.095 423.783 381.669H463.27C463.27 375.095 459.792 369.334 454.576 366.124C454.581 366.051 454.583 365.979 454.583 365.906C454.583 363.391 452 361.22 448.265 360.208V364.771C448.265 367.388 446.144 369.509 443.527 369.509C440.91 369.509 438.788 367.388 438.788 364.771V360.208Z" fill="white"/>
</mask>
<g mask="url(#mask13)">
<rect x="417.466" y="356.899" width="52.1222" height="24.7701" fill="#65C9FF"/>
<path fill-rule="evenodd" clip-rule="evenodd" d="M437.604 371.161C437.116 370.972 436.654 370.759 436.222 370.527V381.669H437.604V371.161ZM449.45 371.161C449.938 370.972 450.4 370.759 450.832 370.527V379.176C450.832 379.558 450.522 379.867 450.141 379.867C449.759 379.867 449.45 379.558 449.45 379.176V371.161Z" fill="#F4F4F4"/>
<path fill-rule="evenodd" clip-rule="evenodd" d="M443.555 372.211C449.648 372.202 454.583 369.181 454.583 365.456C454.583 363.235 452.829 361.264 450.121 360.033C454.029 361.164 456.656 363.27 456.656 365.681C456.656 369.283 450.793 372.204 443.555 372.211ZM443.498 372.211C437.405 372.202 432.47 369.181 432.47 365.456C432.47 363.235 434.225 361.264 436.933 360.033C433.024 361.164 430.397 363.27 430.397 365.681C430.397 369.283 436.26 372.204 443.498 372.211Z" fill="black" fill-opacity="0.16"/>
</g>
<rect width="21.3227" height="9.90802" transform="translate(432.865 348.792)" fill="#D08B5B"/>
<path d="M440.762 352.395C440.762 353.605 441.978 354.422 443.527 354.422C445.075 354.422 446.291 353.605 446.291 352.395C446.291 352.146 446.103 351.945 445.896 351.945C445.64 351.945 445.527 352.149 445.501 352.395C445.256 353.057 444.649 353.457 443.527 353.521C442.404 353.457 441.797 353.057 441.552 352.395C441.526 352.149 441.413 351.945 441.157 351.945C440.95 351.945 440.762 352.146 440.762 352.395Z" fill="black" fill-opacity="0.6"/>
<path fill-rule="evenodd" clip-rule="evenodd" d="M441.157 347.892C441.157 348.887 442.218 349.693 443.527 349.693C444.835 349.693 445.896 348.887 445.896 347.892" fill="black" fill-opacity="0.16"/>
<rect width="22.1125" height="9.90802" transform="translate(432.47 338.884)" fill="#D08B5B"/>
<path fill-rule="evenodd" clip-rule="evenodd" d="M435.661 345.089C436.026 345.944 436.846 346.541 437.801 346.541C438.752 346.541 439.57 345.948 439.936 345.098C440.045 344.845 439.89 344.638 439.734 344.792C439.25 345.266 438.563 345.562 437.801 345.562C437.062 345.562 436.394 345.284 435.913 344.836C435.737 344.671 435.554 344.839 435.661 345.089Z" fill="black" fill-opacity="0.6"/>
<path fill-rule="evenodd" clip-rule="evenodd" d="M447.112 345.089C447.477 345.944 448.297 346.541 449.252 346.541C450.202 346.541 451.021 345.948 451.387 345.098C451.496 344.845 451.341 344.638 451.185 344.792C450.701 345.266 450.014 345.562 449.252 345.562C448.513 345.562 447.845 345.284 447.364 344.836C447.188 344.671 447.005 344.839 447.112 345.089Z" fill="black" fill-opacity="0.6"/>
<path d="M435.556 340.947C436.329 339.706 438.448 339.01 440.274 339.522C440.485 339.581 440.699 339.433 440.751 339.192C440.803 338.95 440.674 338.706 440.462 338.647C438.342 338.053 435.888 338.859 434.913 340.425C434.786 340.627 434.828 340.909 435.006 341.053C435.184 341.197 435.43 341.149 435.556 340.947Z" fill="black" fill-opacity="0.6"/>
<path d="M451.497 340.947C450.724 339.706 448.605 339.01 446.78 339.522C446.568 339.581 446.354 339.433 446.302 339.192C446.25 338.95 446.38 338.706 446.592 338.647C448.711 338.053 451.165 338.859 452.141 340.425C452.267 340.627 452.225 340.909 452.048 341.053C451.87 341.197 451.623 341.149 451.497 340.947Z" fill="black" fill-opacity="0.6"/>
<mask id="mask14" mask-type="alpha" maskUnits="userSpaceOnUse" x="417" y="318" width="53" height="64">
<rect x="417.466" y="318.618" width="52.1222" height="63.0511" fill="white"/>
</mask>
<g mask="url(#mask14)">
<path fill-rule="evenodd" clip-rule="evenodd" d="M466.626 334.493C466.626 334.673 466.62 334.852 466.607 335.028C467.985 337.184 468.798 339.84 468.798 342.712C468.798 344.324 468.542 345.868 468.074 347.293C468.16 347.74 468.206 348.204 468.206 348.68C468.206 350.884 467.232 352.828 465.747 353.984C464.028 357.978 460.426 360.727 456.261 360.727C455.873 360.727 455.491 360.703 455.114 360.657C453.869 361.826 452.274 362.528 450.536 362.528C449.742 362.528 448.979 362.382 448.265 362.112V359.438C452 357.663 454.583 353.856 454.583 349.446V348.985C455.703 348.797 456.557 347.822 456.557 346.648V343.055C456.557 341.881 455.703 340.907 454.583 340.719V337.781C454.583 336.532 454.376 335.332 453.995 334.213L454.416 338.703L452.177 333.299L443.265 328.902L437.32 331.28L433.076 335.826L433.052 334.234C432.675 335.347 432.47 336.54 432.47 337.781V340.719C431.35 340.907 430.496 341.881 430.496 343.055V346.648C430.496 347.822 431.35 348.797 432.47 348.985V349.446C432.47 353.856 435.053 357.663 438.788 359.438V361.753C437.859 362.25 436.822 362.528 435.728 362.528C433.989 362.528 432.395 361.826 431.15 360.657C430.773 360.703 430.39 360.727 430.003 360.727C425.838 360.727 422.236 357.978 420.516 353.984C419.032 352.828 418.058 350.884 418.058 348.68C418.058 348.204 418.103 347.74 418.19 347.293C417.722 345.868 417.466 344.324 417.466 342.712C417.466 339.84 418.279 337.184 419.657 335.028C419.644 334.851 419.637 334.673 419.637 334.493C419.637 331.949 420.935 329.751 422.817 328.713C424.482 324.631 428.04 321.756 432.204 321.556C433.217 320.435 434.599 319.744 436.123 319.744C436.582 319.744 437.029 319.807 437.456 319.925C439.336 319.081 441.384 318.618 443.527 318.618C445.569 318.618 447.526 319.039 449.333 319.81C449.597 319.766 449.866 319.744 450.141 319.744C451.664 319.744 453.046 320.435 454.06 321.556C458.224 321.756 461.782 324.631 463.447 328.713C465.328 329.751 466.626 331.949 466.626 334.493Z" fill="#314756"/>
<mask id="mask15" mask-type="alpha" maskUnits="userSpaceOnUse" x="417" y="318" width="52" height="45">
<path fill-rule="evenodd" clip-rule="evenodd" d="M466.626 334.493C466.626 334.673 466.62 334.852 466.607 335.028C467.985 337.184 468.798 339.84 468.798 342.712C468.798 344.324 468.542 345.868 468.074 347.293C468.16 347.74 468.206 348.204 468.206 348.68C468.206 350.884 467.232 352.828 465.747 353.984C464.028 357.978 460.426 360.727 456.261 360.727C455.873 360.727 455.491 360.703 455.114 360.657C453.869 361.826 452.274 362.528 450.536 362.528C449.742 362.528 448.979 362.382 448.265 362.112V359.438C452 357.663 454.583 353.856 454.583 349.446V348.985C455.703 348.797 456.557 347.822 456.557 346.648V343.055C456.557 341.881 455.703 340.907 454.583 340.719V337.781C454.583 336.532 454.376 335.332 453.995 334.213L454.416 338.703L452.177 333.299L443.265 328.902L437.32 331.28L433.076 335.826L433.052 334.234C432.675 335.347 432.47 336.54 432.47 337.781V340.719C431.35 340.907 430.496 341.881 430.496 343.055V346.648C430.496 347.822 431.35 348.797 432.47 348.985V349.446C432.47 353.856 435.053 357.663 438.788 359.438V361.753C437.859 362.25 436.822 362.528 435.728 362.528C433.989 362.528 432.395 361.826 431.15 360.657C430.773 360.703 430.39 360.727 430.003 360.727C425.838 360.727 422.236 357.978 420.516 353.984C419.032 352.828 418.058 350.884 418.058 348.68C418.058 348.204 418.103 347.74 418.19 347.293C417.722 345.868 417.466 344.324 417.466 342.712C417.466 339.84 418.279 337.184 419.657 335.028C419.644 334.851 419.637 334.673 419.637 334.493C419.637 331.949 420.935 329.751 422.817 328.713C424.482 324.631 428.04 321.756 432.204 321.556C433.217 320.435 434.599 319.744 436.123 319.744C436.582 319.744 437.029 319.807 437.456 319.925C439.336 319.081 441.384 318.618 443.527 318.618C445.569 318.618 447.526 319.039 449.333 319.81C449.597 319.766 449.866 319.744 450.141 319.744C451.664 319.744 453.046 320.435 454.06 321.556C458.224 321.756 461.782 324.631 463.447 328.713C465.328 329.751 466.626 331.949 466.626 334.493Z" fill="white"/>
</mask>
<g mask="url(#mask15)">
<rect x="417.466" y="318.618" width="52.1222" height="63.0511" fill="#2C1B18"/>
</g>
<path fill-rule="evenodd" clip-rule="evenodd" d="M454.458 340.905C454.54 340.331 454.583 339.742 454.583 339.144C454.583 332.658 449.589 327.4 443.428 327.4C437.267 327.4 432.273 332.658 432.273 339.144C432.273 339.742 432.316 340.331 432.398 340.905C433.205 335.255 437.836 330.923 443.428 330.923C449.02 330.923 453.651 335.255 454.458 340.905Z" fill="#92D9FF"/>
<g filter="url(#filter5_d)">
<path fill-rule="evenodd" clip-rule="evenodd" d="M437.406 349.243C434.789 349.243 432.668 346.823 432.668 343.838C432.668 343.29 432.739 342.761 432.872 342.262H431.651C431.34 342.262 431.088 342.01 431.088 341.699C431.088 341.388 431.34 341.136 431.651 341.136H433.092C433.159 341.136 433.224 341.148 433.284 341.17C434.099 339.536 435.64 338.434 437.406 338.434C439.252 338.434 440.852 339.639 441.634 341.396C442.044 340.695 442.727 340.236 443.499 340.236C444.291 340.236 444.989 340.718 445.395 341.45C446.168 339.663 447.782 338.434 449.647 338.434C451.413 338.434 452.953 339.536 453.768 341.17C453.828 341.148 453.893 341.136 453.961 341.136H455.402C455.713 341.136 455.965 341.388 455.965 341.699C455.965 342.01 455.713 342.262 455.402 342.262H454.18C454.314 342.761 454.385 343.29 454.385 343.838C454.385 346.823 452.264 349.243 449.647 349.243C447.03 349.243 444.908 346.823 444.908 343.838C444.908 343.518 444.933 343.205 444.98 342.9C444.963 341.914 444.299 341.136 443.499 341.136C442.761 341.136 442.139 341.798 442.034 342.674C442.106 343.049 442.144 343.439 442.144 343.838C442.144 346.823 440.023 349.243 437.406 349.243ZM437.406 348.342C439.587 348.342 441.355 346.326 441.355 343.838C441.355 341.351 439.587 339.335 437.406 339.335C435.225 339.335 433.457 341.351 433.457 343.838C433.457 346.326 435.225 348.342 437.406 348.342ZM453.595 343.838C453.595 346.326 451.828 348.342 449.647 348.342C447.466 348.342 445.698 346.326 445.698 343.838C445.698 341.351 447.466 339.335 449.647 339.335C451.828 339.335 453.595 341.351 453.595 343.838Z" fill="#252C2F"/>
</g>
</g>
</g>
<path d="M258 89.4626H251L261 107.463H268L258 89.4626Z" fill="#FF9C0F"/>
<path d="M272 89.4626L262 107.463H269L279 89.4626H272Z" fill="#FF9C0F"/>
<path d="M268 107.463L267.932 107.332L267.865 107.463H268ZM263.828 99.9006L260.384 106.324L261.501 108.505L264.984 102.072L263.828 99.9006Z" fill="#C97700"/>
<path d="M265 106.463C258.373 106.463 253 111.835 253 118.463C253 125.09 258.373 130.463 265 130.463C271.627 130.463 277 125.09 277 118.463C277 111.835 271.627 106.463 265 106.463Z" fill="#FF9C0F"/>
<path d="M265 108.463C259.479 108.463 255 112.941 255 118.463C255 123.984 259.479 128.463 265 128.463C270.521 128.463 275 123.984 275 118.463C275 112.941 270.521 108.463 265 108.463Z" fill="#FFC266"/>
<path d="M586 471.463C586 489.688 571.225 504.463 553 504.463C534.775 504.463 520 489.688 520 471.463C520 453.237 534.775 438.463 553 438.463C571.225 438.463 586 453.237 586 471.463Z" fill="#E9A3C2"/>
<path d="M552.49 455.917C551.821 455.978 551.226 456.465 551.067 457.169L550.189 461.041L545.897 465.81C545.373 466.391 545.083 467.146 545.083 467.928V482.546C545.083 484.296 546.501 485.713 548.25 485.713H560.966C562.139 485.713 563.202 485.022 563.678 483.95L568.431 473.253C568.696 472.661 568.833 472.019 568.833 471.37V469.879C568.833 468.138 567.408 466.713 565.667 466.713H554.583C554.583 466.713 556.167 462.959 556.167 460.163C556.167 457.609 554.524 456.491 553.17 456.003C552.944 455.922 552.713 455.897 552.49 455.917V455.917ZM539.542 466.713C538.231 466.713 537.167 467.777 537.167 469.088V483.338C537.167 484.649 538.231 485.713 539.542 485.713C540.853 485.713 541.917 484.649 541.917 483.338V469.088C541.917 467.777 540.853 466.713 539.542 466.713Z" fill="white"/>
<path d="M702.312 86.8379V61.3379H742.688V86.8379C742.688 89.1754 740.775 91.0879 738.438 91.0879H706.563C704.225 91.0879 702.313 89.1754 702.313 86.8379H702.312Z" fill="#C9F2F9"/>
<path d="M742.688 57.0876V63.4626H702.312V57.0876C702.312 54.7501 704.225 52.8376 706.562 52.8376H738.437C740.775 52.8376 742.687 54.7501 742.687 57.0876H742.688Z" fill="#76D7E7"/>
<path d="M732.062 53.8999C730.302 53.8999 728.875 55.327 728.875 57.0874C728.875 58.8478 730.302 60.2749 732.062 60.2749C733.823 60.2749 735.25 58.8478 735.25 57.0874C735.25 55.327 733.823 53.8999 732.062 53.8999ZM712.938 53.8999C711.177 53.8999 709.75 55.327 709.75 57.0874C709.75 58.8478 711.177 60.2749 712.938 60.2749C714.698 60.2749 716.125 58.8478 716.125 57.0874C716.125 55.327 714.698 53.8999 712.938 53.8999Z" fill="#32B1C6"/>
<path d="M732.062 49.6501C730.894 49.6501 729.937 50.6064 729.937 51.7751V57.0876C729.937 58.2564 730.894 59.2126 732.062 59.2126C733.231 59.2126 734.187 58.2564 734.187 57.0876V51.7751C734.187 50.6064 733.231 49.6501 732.062 49.6501ZM712.938 49.6501C711.769 49.6501 710.812 50.6064 710.812 51.7751V57.0876C710.812 58.2564 711.769 59.2126 712.938 59.2126C714.106 59.2126 715.063 58.2564 715.063 57.0876V51.7751C715.063 50.6064 714.106 49.6501 712.938 49.6501Z" fill="#C9F2F9"/>
<path d="M710.812 67.7129H715.062V71.9629H710.812V67.7129ZM717.187 67.7129H721.437V71.9629H717.187V67.7129ZM723.562 67.7129H727.812V71.9629H723.562V67.7129ZM729.937 67.7129H734.187V71.9629H729.937V67.7129ZM710.812 74.0879H715.062V78.3379H710.812V74.0879ZM717.187 74.0879H721.437V78.3379H717.187V74.0879ZM723.562 74.0879H727.812V78.3379H723.562V74.0879ZM729.937 74.0879H734.187V78.3379H729.937V74.0879ZM710.812 80.4629H715.062V84.7129H710.812V80.4629ZM717.187 80.4629H721.437V84.7129H717.187V80.4629ZM723.562 80.4629H727.812V84.7129H723.562V80.4629ZM729.937 80.4629H734.187V84.7129H729.937V80.4629Z" fill="white"/>
<defs>
<filter id="filter0_d" x="96.6782" y="27.7017" width="683.609" height="391.052" filterUnits="userSpaceOnUse" color-interpolation-filters="sRGB">
<feFlood flood-opacity="0" result="BackgroundImageFix"/>
<feColorMatrix in="SourceAlpha" type="matrix" values="0 0 0 0 0 0 0 0 0 0 0 0 0 0 0 0 0 0 127 0"/>
<feOffset dy="4"/>
<feGaussianBlur stdDeviation="20"/>
<feColorMatrix type="matrix" values="0 0 0 0 0 0 0 0 0 0 0 0 0 0 0 0 0 0 0.07 0"/>
<feBlend mode="normal" in2="BackgroundImageFix" result="effect1_dropShadow"/>
<feBlend mode="normal" in="SourceGraphic" in2="effect1_dropShadow" result="shape"/>
</filter>
<filter id="filter1_d" x="0" y="53.1121" width="316.231" height="256.543" filterUnits="userSpaceOnUse" color-interpolation-filters="sRGB">
<feFlood flood-opacity="0" result="BackgroundImageFix"/>
<feColorMatrix in="SourceAlpha" type="matrix" values="0 0 0 0 0 0 0 0 0 0 0 0 0 0 0 0 0 0 127 0"/>
<feOffset dy="4"/>
<feGaussianBlur stdDeviation="20"/>
<feColorMatrix type="matrix" values="0 0 0 0 0.904152 0 0 0 0 0.904152 0 0 0 0 0.904152 0 0 0 0.54 0"/>
<feBlend mode="normal" in2="BackgroundImageFix" result="effect1_dropShadow"/>
<feBlend mode="normal" in="SourceGraphic" in2="effect1_dropShadow" result="shape"/>
</filter>
<filter id="filter2_d" x="469" y="10.2375" width="319.594" height="259.065" filterUnits="userSpaceOnUse" color-interpolation-filters="sRGB">
<feFlood flood-opacity="0" result="BackgroundImageFix"/>
<feColorMatrix in="SourceAlpha" type="matrix" values="0 0 0 0 0 0 0 0 0 0 0 0 0 0 0 0 0 0 127 0"/>
<feOffset dy="4"/>
<feGaussianBlur stdDeviation="20"/>
<feColorMatrix type="matrix" values="0 0 0 0 0.904152 0 0 0 0 0.904152 0 0 0 0 0.904152 0 0 0 0.54 0"/>
<feBlend mode="normal" in2="BackgroundImageFix" result="effect1_dropShadow"/>
<feBlend mode="normal" in="SourceGraphic" in2="effect1_dropShadow" result="shape"/>
</filter>
<filter id="filter3_d" x="615.016" y="92.4509" width="26.0802" height="11.3556" filterUnits="userSpaceOnUse" color-interpolation-filters="sRGB">
<feFlood flood-opacity="0" result="BackgroundImageFix"/>
<feColorMatrix in="SourceAlpha" type="matrix" values="0 0 0 0 0 0 0 0 0 0 0 0 0 0 0 0 0 0 127 0"/>
<feOffset dy="2"/>
<feColorMatrix type="matrix" values="0 0 0 0 0 0 0 0 0 0 0 0 0 0 0 0 0 0 0.2 0"/>
<feBlend mode="normal" in2="BackgroundImageFix" result="effect1_dropShadow"/>
<feBlend mode="normal" in="SourceGraphic" in2="effect1_dropShadow" result="shape"/>
</filter>
<filter id="filter4_d" x="283" y="255.716" width="321.275" height="260.746" filterUnits="userSpaceOnUse" color-interpolation-filters="sRGB">
<feFlood flood-opacity="0" result="BackgroundImageFix"/>
<feColorMatrix in="SourceAlpha" type="matrix" values="0 0 0 0 0 0 0 0 0 0 0 0 0 0 0 0 0 0 127 0"/>
<feOffset dy="4"/>
<feGaussianBlur stdDeviation="20"/>
<feColorMatrix type="matrix" values="0 0 0 0 0.904152 0 0 0 0 0.904152 0 0 0 0 0.904152 0 0 0 0.54 0"/>
<feBlend mode="normal" in2="BackgroundImageFix" result="effect1_dropShadow"/>
<feBlend mode="normal" in="SourceGraphic" in2="effect1_dropShadow" result="shape"/>
</filter>
<filter id="filter5_d" x="431.088" y="338.434" width="24.8765" height="12.8088" filterUnits="userSpaceOnUse" color-interpolation-filters="sRGB">
<feFlood flood-opacity="0" result="BackgroundImageFix"/>
<feColorMatrix in="SourceAlpha" type="matrix" values="0 0 0 0 0 0 0 0 0 0 0 0 0 0 0 0 0 0 127 0"/>
<feOffset dy="2"/>
<feColorMatrix type="matrix" values="0 0 0 0 0 0 0 0 0 0 0 0 0 0 0 0 0 0 0.1 0"/>
<feBlend mode="normal" in2="BackgroundImageFix" result="effect1_dropShadow"/>
<feBlend mode="normal" in="SourceGraphic" in2="effect1_dropShadow" result="shape"/>
</filter>
</defs>
</svg>
