<svg xmlns="http://www.w3.org/2000/svg" viewBox="0 0 488 541" width="488" height="541">
	<defs>
		<linearGradient id="grd1" gradientUnits="userSpaceOnUse"  x1="210.705" y1="197.01" x2="546.305" y2="581.093">
			<stop offset="0" stop-color="#3c6a7a"  />
			<stop offset="1" stop-color="#3bb3bd"  />
		</linearGradient>
		<clipPath clipPathUnits="userSpaceOnUse" id="cp1">
			<path d="M233 241L283 241L283 290L233 290L233 241Z" />
		</clipPath>
		<clipPath clipPathUnits="userSpaceOnUse" id="cp2">
			<path d="M332.41 343.67L378.41 343.67L378.41 389.67L332.41 389.67L332.41 343.67Z" />
		</clipPath>
		<clipPath clipPathUnits="userSpaceOnUse" id="cp3">
			<path d="M95 130L114 130L114 149L95 149L95 130Z" />
		</clipPath>
		<clipPath clipPathUnits="userSpaceOnUse" id="cp4">
			<path d="M270 155L294 155L294 179L270 179L270 155Z" />
		</clipPath>
	</defs>
	<style>
		tspan { white-space:pre }
		.shp0 { opacity: 0.2;fill: url(#grd1) } 
		.shp1 { fill: #e1e3ed } 
		.shp2 { fill: #ffffff } 
		.shp3 { fill: none;stroke: #ffffff;stroke-width: 0.459 } 
		.shp4 { fill: #3c6a7a } 
		.shp5 { fill: #ecc2c3 } 
		.shp6 { fill: #b08182 } 
		.shp7 { fill: #323a49 } 
		.shp8 { fill: none;stroke: #b07078;stroke-linecap:round;stroke-linejoin:round;stroke-width: 0.844 } 
		.shp9 { fill: #9baece } 
		.shp10 { fill: #bed0f0 } 
		.shp11 { fill: #bac1d7 } 
		.shp12 { fill: #fae8e1 } 
		.shp13 { fill: #e63946 } 
		.shp14 { opacity: 0.2;fill: #f55f4b } 
		.shp15 { fill: #e6e7ff } 
		.shp16 { fill: #3bb3bd } 
		.shp17 { fill: #e8f0ff } 
		.shp18 { fill: #f0f9fa } 
		.shp19 { fill: #e0f3ef } 
		.shp20 { opacity: 0.2;fill: #8eb4ff } 
		.shp21 { fill: #8ba1ca } 
		.shp22 { fill: #94c9be } 
		.shp23 { fill: #6f757b } 
		.shp24 { fill: #9aa1b7 } 
	</style>
	<path id="Layer" fill-rule="evenodd" class="shp0" d="M303.25 0L158.41 540.52L344.17 540.52L489 0L303.25 0Z" />
	<path id="Layer" class="shp1" d="M347.57 439.95L73.13 439.95C69.62 439.95 66.81 437.32 66.81 434.03L66.81 290.79C66.81 287.5 69.62 284.87 73.13 284.87L347.57 284.87C351.08 284.87 353.88 287.5 353.88 290.79L353.88 434.03C353.71 437.32 350.9 439.95 347.57 439.95Z" />
	<path id="Layer" class="shp2" d="M99.9 299.04C101.83 299.04 103.41 297.47 103.41 295.53C103.41 293.59 101.83 292.02 99.9 292.02C97.96 292.02 96.39 293.59 96.39 295.53C96.39 297.47 97.96 299.04 99.9 299.04Z" />
	<path id="Layer" class="shp2" d="M111.47 299.04C113.41 299.04 114.98 297.47 114.98 295.53C114.98 293.59 113.41 292.02 111.47 292.02C109.54 292.02 107.97 293.59 107.97 295.53C107.97 297.47 109.54 299.04 111.47 299.04Z" />
	<path id="Layer" class="shp3" d="M107.97 331.71C109.81 331.71 111.3 330.21 111.3 328.37C111.3 326.53 109.81 325.03 107.97 325.03C106.13 325.03 104.64 326.53 104.64 328.37C104.64 330.21 106.13 331.71 107.97 331.71Z" />
	<path id="Layer" class="shp3" d="M130.6 331.71C132.44 331.71 133.94 330.21 133.94 328.37C133.94 326.53 132.44 325.03 130.6 325.03C128.76 325.03 127.27 326.53 127.27 328.37C127.27 330.21 128.76 331.71 130.6 331.71Z" />
	<path id="Layer" class="shp3" d="M151.48 331.71C153.32 331.71 154.81 330.21 154.81 328.37C154.81 326.53 153.32 325.03 151.48 325.03C149.64 325.03 148.15 326.53 148.15 328.37C148.15 330.21 149.64 331.71 151.48 331.71Z" />
	<path id="Layer" class="shp2" d="M334.37 367.36L200.49 367.36C198.09 367.36 196.16 365.95 196.16 364.18L196.16 314.44C196.16 312.68 198.09 311.26 200.49 311.26L334.37 311.26C336.78 311.26 338.7 312.68 338.7 314.44L338.7 364.18C338.7 365.77 336.78 367.36 334.37 367.36Z" />
	<path id="Layer" class="shp2" d="M334.37 388.48L200.49 388.48C198.09 388.48 196.16 388.06 196.16 387.54L196.16 372.91C196.16 372.39 198.09 371.98 200.49 371.98L334.37 371.98C336.78 371.98 338.7 372.39 338.7 372.91L338.7 387.54C338.7 388.01 336.78 388.48 334.37 388.48Z" />
	<path id="Layer" class="shp2" d="M334.37 411.57L200.49 411.57C198.09 411.57 196.16 411.16 196.16 410.64L196.16 396.01C196.16 395.49 198.09 395.07 200.49 395.07L334.37 395.07C336.78 395.07 338.7 395.49 338.7 396.01L338.7 410.64C338.7 411.11 336.78 411.57 334.37 411.57Z" />
	<path id="Layer" class="shp2" d="M334.37 434.67L200.49 434.67C198.09 434.67 196.16 434.26 196.16 433.74L196.16 419.11C196.16 418.59 198.09 418.17 200.49 418.17L334.37 418.17C336.78 418.17 338.7 418.59 338.7 419.11L338.7 433.74C338.7 434.2 336.78 434.67 334.37 434.67Z" />
	<path id="Layer" class="shp2" d="M185.09 373.3L87.78 373.3C86.03 373.3 84.63 371.74 84.63 369.79L84.63 314.77C84.63 312.82 86.03 311.26 87.78 311.26L185.09 311.26C186.84 311.26 188.24 312.82 188.24 314.77L188.24 369.79C188.24 371.54 186.84 373.3 185.09 373.3Z" />
	<path id="Layer" class="shp2" d="M185.09 443.25L87.78 443.25C86.03 443.25 84.63 441.69 84.63 439.74L84.63 384.73C84.63 382.78 86.03 381.22 87.78 381.22L185.09 381.22C186.84 381.22 188.24 382.78 188.24 384.73L188.24 439.74C188.24 441.5 186.84 443.25 185.09 443.25Z" />
	<path id="Layer" class="shp2" d="M102.18 538.24L112.53 454.12C112.53 453.94 112.53 453.76 112.53 453.76C113.93 447.79 118.32 442.52 124.81 440.77C134.1 437.96 143.93 443.4 146.56 452.71C147.44 455.52 147.44 458.33 146.91 461.14L146.91 461.32C146.91 461.49 146.91 461.49 146.91 461.67L136.56 526.12C134.46 534.55 126.21 539.99 117.61 538.41L102.18 538.24Z" />
	<path id="Layer" class="shp4" d="M169.02 436.2L126.56 440.07L123.05 540.52L210.77 540.7L214.98 440.77L169.02 436.2Z" />
	<path id="Layer" class="shp2" d="M169.19 455.35C168.84 455.35 168.49 455.35 168.14 455.35C154.63 454.29 151.3 443.93 151.3 438.49C151.3 436.9 152.7 435.85 154.28 435.85C155.86 435.85 157.26 437.08 157.26 438.66C157.26 439.71 157.44 449.2 168.49 449.9C169.72 449.9 180.42 450.25 181.65 438.49C181.82 436.9 183.23 435.85 184.98 436.03C186.56 436.2 187.79 437.43 187.62 439.01C186.39 452.01 175.69 455.35 169.19 455.35Z" />
	<path id="Layer" class="shp2" d="M210.79 540.52L211.67 522.5L158.16 527.82L156.91 540.2L210.79 540.52Z" />
	<path id="Layer" class="shp2" d="M212.53 500.3L199.02 471.68L196.04 507.86L212.35 505.22L212.53 500.3Z" />
	<path id="Layer" class="shp4" d="M253.23 509.96L227.61 450.08C227.61 449.9 227.44 449.9 227.44 449.73C224.46 444.28 218.66 440.59 212 440.59C202.35 440.59 194.46 448.5 194.46 458.15C194.46 461.14 195.16 463.77 196.38 466.23L196.38 466.41C196.38 466.58 196.56 466.58 196.56 466.76L224.46 525.77C228.84 533.32 238.31 536.13 246.03 532.27C254.28 528.05 257.61 518.04 253.23 509.96Z" />
	<path id="Layer" class="shp5" d="M154.28 523.31L195.51 517.34L184.98 534.02L152 537.18L154.28 523.31Z" />
	<path id="Layer" class="shp5" d="M151.47 521.38C157.61 525.42 159.54 531.21 153.75 535.96C147.96 540.7 138.14 541.4 132 537.36C125.86 533.32 125.68 527.52 131.47 522.78C137.44 518.04 145.33 517.34 151.47 521.38Z" />
	<path id="Layer" class="shp4" d="M161.82 513.12L234.98 501.71C243.05 500.3 252.88 506.8 254.81 514.88C256.91 524.01 250.6 533.14 241.3 534.2L166.56 539.12L161.82 513.12Z" />
	<path id="Layer" class="shp5" d="M187.26 402.48L182 439.54C181.12 446.04 175.16 450.78 168.66 450.25C161.65 449.73 156.38 443.4 157.09 436.38L160.42 405.12L187.26 402.48Z" />
	<path id="Layer" class="shp6" d="M184.8 409.51C184.8 409.51 179.89 437.08 157.79 429.18L159.01 417.94L184.8 409.51Z" />
	<path id="Layer" class="shp7" d="M150.95 368.94C150.95 368.94 137.79 376.31 147.09 389.49C156.39 402.66 158.67 369.99 158.67 369.99L150.95 368.94Z" />
	<path id="Layer" class="shp7" d="M190.77 401.08C190.77 401.08 210.07 379.65 187.97 371.05L186.04 401.78L190.77 401.08Z" />
	<path id="Layer" class="shp5" d="M163.58 423.91L164.28 424.08C175.51 425.49 185.86 417.41 187.26 406.17L190.07 382.99C190.42 380 188.32 377.37 185.51 377.02L158.49 373.68C153.23 372.98 148.49 376.67 147.79 381.94L145.33 400.9C144.28 412.32 152.35 422.5 163.58 423.91Z" />
	<path id="Layer" class="shp7" d="M170.44 397.07C170.49 396.1 169.74 395.28 168.77 395.23C167.8 395.19 166.98 395.94 166.94 396.9C166.89 397.87 167.64 398.69 168.61 398.74C169.57 398.79 170.4 398.04 170.44 397.07Z" />
	<path id="Layer" class="shp7" d="M154.71 395.17C154.75 394.2 154.01 393.38 153.04 393.33C152.07 393.29 151.25 394.04 151.2 395C151.16 395.97 151.91 396.8 152.87 396.84C153.84 396.89 154.66 396.14 154.71 395.17Z" />
	<path id="Layer" class="shp8" d="M157.44 398.62L156.39 402.48C156.39 402.48 156.39 405.12 160.07 404.59" />
	<path id="Layer" class="shp7" d="M173.93 391.24C173.75 391.24 173.75 391.24 173.58 391.24L166.04 390.01C165.16 389.84 164.63 389.13 164.81 388.26C164.98 387.38 165.69 386.85 166.56 387.03L174.11 388.26C174.98 388.43 175.51 389.13 175.33 390.01C175.16 390.54 174.63 391.07 173.93 391.24Z" />
	<path id="Layer" class="shp7" d="M155.16 388.61C154.98 388.61 154.98 388.61 154.81 388.61L150.25 387.91C149.37 387.73 148.84 387.03 149.02 386.15C149.19 385.27 149.9 384.75 150.77 384.92L155.33 385.62C156.21 385.8 156.74 386.5 156.56 387.38C156.56 388.08 155.86 388.61 155.16 388.61Z" />
	<path id="Layer" class="shp2" d="M152.88 406.7L166.39 408.81C166.39 408.81 164.28 413.72 156.91 411.97C152.88 410.91 152.88 406.7 152.88 406.7Z" />
	<path id="Layer" class="shp7" d="M187.61 371.57L187.96 371.05C187.96 371.05 183.4 369.64 181.65 363.85C181.47 362.62 180.95 361.39 180.42 359.81C176.56 350.5 160.77 348.39 153.75 354.36C146.74 360.33 146.74 370.69 153.58 377.72C159.02 383.52 170.42 381.23 174.46 380.18C175.51 380 176.56 380 177.44 380.18L179.72 380.88C178.49 386.85 182.18 391.59 182.18 391.59L181.12 400.9L183.4 401.25L188.67 399.15L194.81 382.29C194.81 382.46 192.88 371.05 187.61 371.57Z" />
	<path id="Layer" class="shp5" d="M196.45 402.89C196.91 399.23 194.32 395.89 190.66 395.44C187.01 394.98 183.68 397.57 183.22 401.23C182.76 404.89 185.35 408.22 189.01 408.68C192.66 409.14 195.99 406.55 196.45 402.89Z" />
	<path id="Layer" class="shp9" d="M138.32 535.96L81.3 535.96C80.07 535.96 79.02 537.01 79.02 538.24C79.02 539.47 80.07 540.52 81.3 540.52L138.32 540.52C139.54 540.52 140.6 539.47 140.6 538.24C140.6 537.01 139.54 535.96 138.32 535.96Z" />
	<path id="Layer" class="shp9" d="M161.48 536.01L126.56 536.01C125.34 536.01 124.28 537.05 124.28 538.27C124.28 539.48 125.34 540.52 126.56 540.52L161.48 540.52C162.7 540.52 163.76 539.48 163.76 538.27C163.93 537.05 162.88 536.01 161.48 536.01Z" />
	<path id="Layer" class="shp10" d="M127.79 518.57L7.44 518.57C4.46 518.57 2 516.11 2 513.13L2 438.13C2 435.15 4.46 432.69 7.44 432.69L127.79 432.69C130.77 432.69 133.23 435.15 133.23 438.13L133.23 513.3C133.23 516.11 130.77 518.57 127.79 518.57Z" />
	<path id="Layer" class="shp9" d="M76.04 471.68L107.44 518.57L62.35 518.57L76.04 471.68Z" />
	<path id="Layer" class="shp11" d="M53.58 470.45L73.76 470.45C75.51 470.45 76.91 472.03 76.56 473.96L63.58 538.24C63.23 539.64 62.18 540.52 60.77 540.52L39.55 540.52C37.79 540.52 36.39 538.77 36.74 537.01L50.77 472.73C51.12 471.5 52.35 470.45 53.58 470.45Z" />
	<path id="Layer" class="shp11" d="M83.05 535.96L45.86 535.96L45.86 540.52L83.05 540.52C84.28 540.52 85.33 539.47 85.33 538.24C85.33 537.01 84.46 535.96 83.05 535.96Z" />
	<path id="Layer" class="shp12" d="M234.54 232.73L280.53 232.73C286.06 232.73 290.53 237.2 290.53 242.73L290.53 288.72C290.53 294.25 286.06 298.72 280.53 298.72L234.54 298.72C229.01 298.72 224.54 294.25 224.54 288.72L224.54 242.73C224.54 237.2 229.01 232.73 234.54 232.73Z" />
	<g id="Clip-Path" clip-path="url(#cp1)">
		<g id="Layer">
			<path id="Layer" fill-rule="evenodd" class="shp13" d="M278.83 241C281.13 241 283 242.83 283 245.08L283 271.22C283 273.47 281.13 275.3 278.83 275.3L258.83 275.3L258.83 278.65C260.77 279.04 262.16 280.71 262.17 282.65C262.16 282.92 262.13 283.19 262.08 283.45C262.67 284.06 263 284.86 263 285.7L263 287.55C263 288.9 261.88 290 260.5 290L235.5 290C234.12 290 233 288.9 233 287.55L233 285.7C233 284.86 233.33 284.06 233.92 283.45C233.87 283.19 233.84 282.92 233.83 282.65C233.84 280.71 235.23 279.04 237.17 278.65L237.17 267.95C237.18 262.41 241.53 257.81 247.17 257.38L247.17 245.08C247.17 242.83 249.03 241 251.33 241L278.83 241ZM238.83 267.95L238.83 271.16C244.21 270.63 247.26 265.93 247.29 265.88C247.44 265.65 247.71 265.5 248 265.5C248.29 265.5 248.56 265.64 248.71 265.88C248.74 265.93 251.81 270.63 257.17 271.16L257.17 267.95C257.16 262.99 253.06 258.97 248 258.97C242.94 258.97 238.84 262.99 238.83 267.95ZM281.33 245.08C281.33 243.73 280.21 242.63 278.83 242.63L251.33 242.63C249.95 242.63 248.83 243.73 248.83 245.08L248.83 257.38C249.4 257.42 249.95 257.5 250.5 257.63L250.5 246.72C250.5 245.36 251.62 244.27 253 244.27L277.17 244.27C278.55 244.27 279.67 245.36 279.67 246.72L279.67 269.58C279.67 270.94 278.55 272.03 277.17 272.03L258.83 272.03L258.83 273.67L278.83 273.67C280.21 273.67 281.33 272.57 281.33 271.22L281.33 245.08ZM274.67 268.77L274.67 270.4L277.17 270.4C277.63 270.4 278 270.03 278 269.58L278 246.72C278 246.27 277.63 245.9 277.17 245.9L253 245.9C252.54 245.9 252.17 246.27 252.17 246.72L252.17 258.15C256.2 259.8 258.83 263.67 258.83 267.95L258.83 270.4L266.33 270.4L266.33 268.77C266.33 267.87 267.08 267.13 268 267.13L273 267.13C273.92 267.13 274.67 267.87 274.67 268.77ZM244.67 282.51C244.81 282.87 245.56 284.28 248 284.28C250.44 284.28 251.18 282.89 251.33 282.51L251.33 281.12C250.42 281.97 249.25 282.5 248 282.65C246.75 282.54 245.57 282.01 244.67 281.16L244.67 282.51ZM254.52 272.83C254.52 272.69 254.52 272.5 254.53 272.29C251.95 271.4 249.69 269.81 248 267.7C246.33 269.79 244.09 271.37 241.54 272.26C241.55 272.49 241.56 272.69 241.56 272.84C241.58 274.74 242.88 276.96 244.38 278.62C244.42 278.65 244.45 278.68 244.47 278.72C245.73 280.07 247.11 281.02 248 281.02C249.95 281.02 254.46 276.26 254.52 272.83ZM235.51 282.55C235.68 282.5 235.86 282.47 236.03 282.45L243 281.9L243 279.5C241.25 277.44 239.92 274.79 239.89 272.85L239.89 272.68C239.55 272.74 239.19 272.78 238.83 272.81L238.83 280.2C238.83 280.65 238.46 281.02 238 281.02C237.6 281.01 237.26 280.73 237.2 280.34C236.22 280.67 235.56 281.54 235.51 282.55ZM261.33 285.7C261.34 284.86 260.68 284.15 259.82 284.08L252.69 283.51C252.19 284.41 250.92 285.92 248 285.92C245.08 285.92 243.81 284.41 243.31 283.51L236.18 284.08C235.32 284.15 234.66 284.86 234.67 285.7L234.67 287.55C234.67 288 235.04 288.37 235.5 288.37L260.5 288.37C260.96 288.37 261.33 288 261.33 287.55L261.33 285.7ZM258.8 280.34C258.74 280.73 258.4 281.01 258 281.02C257.54 281.02 257.17 280.65 257.17 280.2L257.17 272.81C256.83 272.78 256.5 272.74 256.18 272.69C256.18 272.74 256.18 272.8 256.18 272.84C256.15 275.04 254.75 277.59 253 279.54L253 281.9L259.96 282.45C260.14 282.47 260.32 282.5 260.49 282.55C260.44 281.54 259.77 280.67 258.8 280.34ZM273 268.77L268 268.77L268 270.4L273 270.4L273 268.77Z" />
			<path id="Layer" class="shp13" d="M258 249.98C257.11 249.99 256.28 250.45 255.83 251.21C255.62 251.6 255.76 252.08 256.15 252.3C256.54 252.52 257.04 252.4 257.28 252.03C257.48 251.68 257.9 251.53 258.28 251.66C258.66 251.8 258.89 252.18 258.82 252.57C258.75 252.96 258.4 253.25 258 253.25C257.54 253.25 257.17 253.62 257.17 254.07C257.17 254.52 257.54 254.88 258 254.88C258.4 254.88 258.75 255.17 258.82 255.56C258.89 255.95 258.66 256.33 258.28 256.47C257.9 256.6 257.48 256.45 257.28 256.11C257.04 255.73 256.54 255.61 256.15 255.83C255.76 256.05 255.62 256.54 255.84 256.93C256.4 257.88 257.55 258.35 258.65 258.07C259.74 257.78 260.5 256.81 260.5 255.7C260.5 255.09 260.27 254.51 259.85 254.07C260.52 253.35 260.69 252.32 260.29 251.43C259.88 250.55 258.99 249.98 258 249.98Z" />
			<path id="Layer" class="shp13" d="M268 253.25L266.33 253.25L266.33 251.62C266.33 251.16 265.96 250.8 265.5 250.8C265.04 250.8 264.67 251.16 264.67 251.62L264.67 253.25L263 253.25C262.54 253.25 262.17 253.62 262.17 254.07C262.17 254.52 262.54 254.88 263 254.88L264.67 254.88L264.67 256.52C264.67 256.97 265.04 257.33 265.5 257.33C265.96 257.33 266.33 256.97 266.33 256.52L266.33 254.88L268 254.88C268.46 254.88 268.83 254.52 268.83 254.07C268.83 253.62 268.46 253.25 268 253.25Z" />
			<path id="Layer" class="shp13" d="M275.5 257.33C275.5 256.88 275.13 256.52 274.67 256.52L273.83 256.52L273.83 250.8C273.83 250.35 273.46 249.98 273 249.98L271.33 249.98C270.87 249.98 270.5 250.35 270.5 250.8C270.5 251.25 270.87 251.62 271.33 251.62L272.17 251.62L272.17 256.52L271.33 256.52C270.87 256.52 270.5 256.88 270.5 257.33C270.5 257.78 270.87 258.15 271.33 258.15L274.67 258.15C275.13 258.15 275.5 257.78 275.5 257.33Z" />
			<path id="Layer" class="shp12" d="M251.26 242.61C249.5 242.64 248.82 244.02 248.82 244.79L248.82 251.09L248.82 257.39C249.25 257.39 250.15 257.59 250.53 257.7C250.5 254.85 250.45 248.7 250.53 246.86C250.61 245.03 251.93 244.41 252.58 244.33C259.72 244.28 274.61 244.21 276.99 244.33C279.37 244.44 279.59 246.08 279.59 247L279.59 270.18C279.02 271.73 278.09 271.87 277.55 271.95L277.54 271.95L258.8 272.03L258.8 273.65L278.19 273.65C280.51 273.93 281.29 272.25 281.35 271.36C281.33 263.69 281.31 247.76 281.36 245.5C281.4 243.24 279.89 242.62 278.97 242.62C270.48 242.61 253.03 242.58 251.26 242.61Z" />
		</g>
	</g>
	<g id="Layer">
		<g id="Layer">
			<path id="Layer" class="shp2" d="M309 332L358.29 332C363.82 332 368.29 336.47 368.29 342L368.29 391.29C368.29 396.82 363.82 401.29 358.29 401.29L309 401.29C303.47 401.29 299 396.82 299 391.29L299 342C299 336.47 303.47 332 309 332Z" />
		</g>
		<g id="Clip-Path" clip-path="url(#cp2)">
			<g id="Layer">
			</g>
		</g>
	</g>
	<path id="Layer" class="shp14" d="M8 288L32 288C36.42 288 40 291.58 40 296L40 320C40 324.42 36.42 328 32 328L8 328C3.58 328 0 324.42 0 320L0 296C0 291.58 3.58 288 8 288Z" />
	<path id="Layer" fill-rule="evenodd" class="shp13" d="M21.25 302.72C21.51 302.98 21.65 303.33 21.65 303.7C21.65 303.97 21.57 304.24 21.42 304.46C21.27 304.69 21.06 304.87 20.8 304.97C20.55 305.07 20.28 305.1 20.01 305.05C19.74 305 19.5 304.86 19.3 304.67C19.11 304.48 18.98 304.23 18.93 303.97C18.87 303.7 18.9 303.42 19 303.17C19.11 302.92 19.29 302.7 19.51 302.55C19.74 302.4 20 302.32 20.28 302.32C20.64 302.32 20.99 302.46 21.25 302.72ZM20.76 304.18C20.89 304.06 20.97 303.88 20.97 303.7C20.97 303.56 20.93 303.43 20.85 303.31C20.77 303.2 20.67 303.11 20.54 303.06C20.41 303.01 20.28 303 20.14 303.02C20.01 303.05 19.89 303.11 19.79 303.21C19.69 303.31 19.63 303.43 19.6 303.56C19.57 303.7 19.59 303.83 19.64 303.96C19.69 304.09 19.78 304.19 19.89 304.27C20.01 304.35 20.14 304.39 20.28 304.39C20.46 304.39 20.63 304.31 20.76 304.18Z" />
	<path id="Layer" fill-rule="evenodd" class="shp13" d="M24.11 304.34C24.3 304.54 24.41 304.8 24.41 305.07C24.41 305.28 24.35 305.48 24.24 305.65C24.12 305.82 23.96 305.95 23.77 306.03C23.58 306.11 23.38 306.13 23.17 306.09C22.97 306.05 22.79 305.95 22.65 305.81C22.5 305.66 22.4 305.48 22.36 305.28C22.32 305.08 22.34 304.87 22.42 304.68C22.5 304.49 22.63 304.33 22.8 304.22C22.97 304.1 23.17 304.04 23.38 304.04C23.65 304.04 23.91 304.15 24.11 304.34ZM23.62 305.32C23.68 305.25 23.72 305.17 23.72 305.07C23.72 305.01 23.7 304.94 23.66 304.88C23.62 304.83 23.57 304.78 23.51 304.76C23.45 304.73 23.38 304.72 23.31 304.74C23.24 304.75 23.18 304.78 23.13 304.83C23.08 304.88 23.05 304.94 23.04 305.01C23.03 305.07 23.03 305.14 23.06 305.21C23.08 305.27 23.13 305.32 23.18 305.36C23.24 305.4 23.31 305.42 23.38 305.42C23.47 305.42 23.56 305.38 23.62 305.32Z" />
	<path id="Layer" fill-rule="evenodd" class="shp13" d="M23.68 307.1C23.87 306.9 24.14 306.8 24.41 306.8C24.61 306.8 24.81 306.86 24.98 306.97C25.15 307.08 25.29 307.25 25.36 307.43C25.44 307.62 25.46 307.83 25.42 308.03C25.38 308.23 25.28 308.42 25.14 308.56C25 308.7 24.81 308.8 24.61 308.84C24.41 308.88 24.2 308.86 24.01 308.78C23.83 308.71 23.66 308.57 23.55 308.4C23.44 308.23 23.38 308.03 23.38 307.83C23.38 307.56 23.49 307.29 23.68 307.1ZM24.17 307.59C24.1 307.65 24.07 307.74 24.07 307.83C24.07 307.9 24.09 307.96 24.12 308.02C24.16 308.08 24.21 308.12 24.28 308.15C24.34 308.17 24.41 308.18 24.48 308.17C24.54 308.15 24.6 308.12 24.65 308.07C24.7 308.02 24.73 307.96 24.75 307.9C24.76 307.83 24.75 307.76 24.73 307.7C24.7 307.63 24.66 307.58 24.6 307.54C24.54 307.51 24.48 307.49 24.41 307.49C24.32 307.49 24.23 307.52 24.17 307.59Z" />
	<path id="Layer" fill-rule="evenodd" class="shp13" d="M29.62 298.49C29.81 298.68 29.92 298.95 29.92 299.22L29.92 315.75C29.92 316.02 29.81 316.29 29.62 316.48C29.42 316.67 29.16 316.78 28.89 316.78L22.3 316.78L23.32 318.32C23.35 318.37 23.37 318.43 23.38 318.49C23.38 318.55 23.37 318.61 23.34 318.67C23.31 318.72 23.26 318.77 23.21 318.8C23.16 318.83 23.09 318.85 23.03 318.85L16.14 318.85C16.08 318.85 16.02 318.83 15.97 318.8C15.91 318.77 15.87 318.72 15.84 318.67C15.81 318.61 15.8 318.55 15.8 318.49C15.8 318.43 15.82 318.37 15.86 318.32L16.88 316.78L10.29 316.78C10.02 316.78 9.75 316.67 9.56 316.48C9.37 316.29 9.26 316.02 9.26 315.75L9.26 299.22C9.26 298.95 9.37 298.68 9.56 298.49C9.75 298.3 10.02 298.19 10.29 298.19L28.89 298.19C29.16 298.19 29.42 298.3 29.62 298.49ZM21.47 316.78L17.71 316.78L16.79 318.16L22.39 318.16L21.47 316.78ZM29.23 314.72L9.95 314.72L9.95 315.75C9.95 315.84 9.98 315.93 10.05 315.99C10.11 316.06 10.2 316.1 10.29 316.1L28.89 316.1C28.98 316.1 29.07 316.06 29.13 315.99C29.19 315.93 29.23 315.84 29.23 315.75L29.23 314.72ZM29.23 299.22C29.23 299.13 29.19 299.04 29.13 298.98C29.07 298.91 28.98 298.88 28.89 298.88L10.29 298.88C10.2 298.88 10.11 298.91 10.05 298.98C9.98 299.04 9.95 299.13 9.95 299.22L9.95 314.03L29.23 314.03L29.23 299.22Z" />
	<path id="Layer" fill-rule="evenodd" class="shp13" d="M21.12 310.54C21.13 310.58 21.13 310.63 21.11 310.68C21.1 310.72 21.08 310.76 21.05 310.8C21.03 310.83 20.99 310.86 20.95 310.88L19.76 311.57C19.71 311.6 19.65 311.62 19.59 311.62C19.56 311.62 19.53 311.61 19.5 311.61C19.41 311.58 19.34 311.52 19.29 311.45L15.5 304.88C15.46 304.81 15.44 304.71 15.47 304.62C15.49 304.54 15.55 304.46 15.63 304.41L16.82 303.73C16.9 303.68 16.99 303.67 17.08 303.69C17.12 303.7 17.17 303.72 17.2 303.75C17.24 303.78 17.27 303.81 17.29 303.85L21.08 310.41C21.1 310.45 21.12 310.5 21.12 310.54ZM20.31 310.46L16.87 304.49L16.27 304.84L19.72 310.8L20.31 310.46Z" />
	<path id="Layer" fill-rule="evenodd" class="shp13" d="M16.69 302.27C16.7 302.41 16.7 302.54 16.66 302.67C16.63 302.81 16.57 302.93 16.48 303.04C16.4 303.14 16.3 303.23 16.18 303.3L15.58 303.65C15.35 303.78 15.06 303.82 14.8 303.75C14.53 303.68 14.31 303.5 14.17 303.27L13.84 302.7C13.69 302.43 13.61 302.13 13.61 301.81L13.64 300.19C13.64 300.13 13.66 300.07 13.69 300.02C13.72 299.97 13.76 299.93 13.81 299.89C13.86 299.87 13.92 299.85 13.98 299.85C14.04 299.85 14.1 299.86 14.15 299.89L15.58 300.68C15.85 300.83 16.07 301.06 16.23 301.32L16.56 301.89C16.63 302.01 16.67 302.14 16.69 302.27ZM16 302.36C16 302.32 15.98 302.27 15.96 302.23L15.63 301.67C15.54 301.51 15.41 301.37 15.24 301.28L14.32 300.77L14.3 301.82C14.3 302.01 14.35 302.2 14.44 302.36L14.77 302.92C14.81 303 14.89 303.06 14.98 303.08C15.06 303.11 15.16 303.1 15.24 303.05L15.83 302.7C15.87 302.68 15.91 302.65 15.94 302.62C15.96 302.58 15.98 302.54 15.99 302.5C16.01 302.45 16.01 302.41 16 302.36Z" />
	<path id="Layer" class="shp13" d="M18.33 301.62C19.55 301.19 20.88 301.17 22.11 301.58C23.34 301.99 24.4 302.79 25.13 303.87C25.85 304.94 26.2 306.23 26.12 307.52C26.03 308.81 25.52 310.04 24.66 311.01C24.53 310.59 24.27 310.22 23.92 309.96C23.56 309.69 23.13 309.55 22.69 309.55C22.6 309.55 22.51 309.59 22.44 309.65C22.38 309.72 22.34 309.81 22.34 309.9C22.34 309.99 22.38 310.07 22.44 310.14C22.51 310.2 22.6 310.24 22.69 310.24C23.05 310.24 23.4 310.39 23.66 310.64C23.92 310.9 24.07 311.25 24.07 311.62C24.07 311.65 24.06 311.68 24.06 311.72C24.05 311.79 24.06 311.86 24.09 311.92C24.12 311.98 24.17 312.04 24.24 312.07C24.3 312.1 24.37 312.12 24.44 312.11C24.51 312.1 24.57 312.07 24.63 312.02C25.76 311.01 26.51 309.64 26.74 308.15C26.97 306.65 26.68 305.12 25.91 303.81C25.14 302.51 23.94 301.51 22.51 300.99C21.09 300.47 19.53 300.46 18.1 300.97C18.01 301 17.94 301.06 17.9 301.14C17.86 301.23 17.86 301.32 17.89 301.41C17.92 301.5 17.98 301.56 18.06 301.61C18.14 301.64 18.24 301.65 18.33 301.62L18.33 301.62Z" />
	<path id="Layer" class="shp13" d="M17.61 310.6C17.09 310.46 16.59 310.21 16.16 309.88C15.73 309.55 15.37 309.14 15.1 308.67C14.83 308.2 14.65 307.68 14.58 307.14C14.51 306.61 14.55 306.06 14.69 305.53C14.7 305.49 14.71 305.44 14.7 305.4C14.7 305.35 14.68 305.31 14.66 305.27C14.64 305.23 14.61 305.19 14.57 305.16C14.53 305.14 14.49 305.12 14.45 305.1C14.4 305.09 14.36 305.09 14.31 305.1C14.27 305.1 14.22 305.12 14.18 305.14C14.14 305.16 14.11 305.19 14.08 305.23C14.05 305.27 14.03 305.31 14.02 305.36C13.69 306.59 13.87 307.91 14.51 309.01C15.15 310.12 16.2 310.93 17.43 311.26C17.46 311.27 17.49 311.27 17.52 311.27C17.61 311.27 17.69 311.24 17.75 311.19C17.81 311.13 17.85 311.06 17.86 310.97C17.87 310.89 17.85 310.81 17.81 310.74C17.76 310.67 17.69 310.62 17.61 310.6L17.61 310.6Z" />
	<path id="Layer" class="shp15" d="M51.08 348.22L86.51 348.22C92.04 348.22 96.51 352.69 96.51 358.22L96.51 393.65C96.51 399.18 92.04 403.65 86.51 403.65L51.08 403.65C45.55 403.65 41.08 399.18 41.08 393.65L41.08 358.22C41.08 352.69 45.55 348.22 51.08 348.22Z" />
	<path id="Layer" class="shp16" d="M72.23 384.5C71.76 384.52 71.41 383.99 71.6 383.56C71.83 383 72.64 383 72.87 383.56C73.06 383.99 72.71 384.52 72.23 384.5Z" />
	<path id="Layer" class="shp16" d="M62.48 388.77C62.3 388.77 62.13 388.71 61.99 388.57L58.46 385.04C58.19 384.77 58.19 384.33 58.46 384.07C58.72 383.8 59.16 383.8 59.42 384.07L62.96 387.61C63.23 387.87 63.23 388.31 62.96 388.57C62.83 388.71 62.65 388.77 62.48 388.77Z" />
	<path id="Layer" class="shp16" d="M63.37 385.73C63.2 385.73 63.02 385.67 62.89 385.53L61.5 384.14C61.23 383.88 61.23 383.44 61.5 383.18C61.76 382.91 62.2 382.91 62.46 383.18L63.85 384.56C64.12 384.83 64.12 385.26 63.85 385.53C63.72 385.67 63.55 385.73 63.37 385.73Z" />
	<path id="Layer" fill-rule="evenodd" class="shp16" d="M85.8 364.85L84.82 365.82L85.22 366.23C85.49 366.49 85.49 366.93 85.22 367.19C85.09 367.33 84.92 367.39 84.74 367.39C84.57 367.39 84.39 367.33 84.26 367.19L83.86 366.79L83.34 367.31L83.74 367.71C84 367.98 84 368.41 83.74 368.68C83.6 368.81 83.43 368.88 83.25 368.88C83.08 368.88 82.9 368.81 82.77 368.68L82.37 368.28L76.85 373.8C77.55 374.93 77.95 376.1 78.02 377.21C78.12 378.69 77.63 380.01 76.61 381.03C76.22 381.42 75.78 381.75 75.3 382.01C75.15 382.09 75 382.19 74.84 382.29C74.73 382.36 74.6 382.4 74.47 382.4C74.25 382.4 74.03 382.29 73.9 382.09C73.69 381.78 73.78 381.36 74.09 381.15C74.27 381.02 74.46 380.91 74.65 380.81C75.01 380.61 75.35 380.36 75.64 380.07C77.37 378.34 76.54 376.06 75.85 374.8L70.26 380.39C70.31 381.43 69.94 382.48 69.15 383.27C68.43 383.99 67.47 384.39 66.45 384.39C65.43 384.39 64.48 383.99 63.76 383.27C63.04 382.55 62.64 381.59 62.64 380.58C62.64 379.56 63.04 378.6 63.76 377.88C64.55 377.09 65.6 376.72 66.64 376.77L72.23 371.18C70.98 370.47 68.73 369.62 67.09 371.26C66.69 371.66 66.4 372.04 66.19 372.43C65.01 374.64 62.46 376.57 60.13 377C58.95 377.21 57.89 377.74 57.06 378.53C56.02 379.52 55.45 380.81 55.42 382.26C55.38 384.35 56.43 386.65 58.3 388.57C60.19 390.5 62.49 391.62 64.59 391.63C64.6 391.63 64.61 391.63 64.62 391.63C66.07 391.63 67.37 391.1 68.39 390.08C69.23 389.23 69.8 388.13 70.03 386.9C70.08 386.64 70.15 386.38 70.23 386.11C70.34 385.75 70.73 385.55 71.09 385.67C71.45 385.78 71.65 386.17 71.53 386.53C71.47 386.74 71.41 386.95 71.38 387.15C71.1 388.66 70.4 390 69.35 391.05C68.08 392.33 66.44 393 64.62 393C64.61 393 64.6 393 64.58 393C62.11 392.99 59.47 391.72 57.32 389.52C55.2 387.35 54.01 384.69 54.05 382.24C54.09 380.41 54.8 378.78 56.12 377.54C57.14 376.57 58.44 375.92 59.88 375.65C61.81 375.3 64 373.63 64.98 371.79C65.25 371.28 65.62 370.79 66.12 370.3C67.87 368.55 70.56 368.52 73.23 370.17L78.75 364.66L78.47 364.38C78.2 364.11 78.2 363.68 78.47 363.41C78.73 363.14 79.17 363.14 79.43 363.41L79.72 363.69L80.24 363.17L79.95 362.89C79.69 362.62 79.69 362.19 79.95 361.92C80.22 361.65 80.65 361.65 80.92 361.92L81.2 362.2L82.18 361.23C82.45 360.96 82.88 360.96 83.15 361.23L85.8 363.88C85.93 364.01 86 364.18 86 364.37C86 364.55 85.93 364.72 85.8 364.85ZM68.18 378.85C67.7 378.37 67.08 378.13 66.45 378.13C65.83 378.13 65.2 378.37 64.72 378.85C63.77 379.8 63.77 381.35 64.72 382.3C65.19 382.77 65.8 383.02 66.45 383.02C67.1 383.02 67.72 382.77 68.18 382.3C69.13 381.35 69.13 379.8 68.18 378.85ZM79.91 368.8L78.23 367.11L68.17 377.18C68.52 377.35 68.85 377.59 69.15 377.88L69.15 377.88C69.44 378.18 69.68 378.51 69.85 378.86L79.91 368.8ZM81.4 367.31L79.72 365.63L79.2 366.15L80.88 367.83L81.4 367.31ZM82.89 365.82L81.2 364.14L80.68 364.66L82.37 366.35L82.89 365.82ZM83.86 364.86L84.35 364.37L82.66 362.68L82.17 363.17L83.86 364.86Z" />
	<path id="Layer" fill-rule="evenodd" class="shp16" d="M60.99 370.72C60.99 371.99 59.95 373.03 58.67 373.03C57.4 373.03 56.36 371.99 56.36 370.72C56.36 369.44 57.4 368.4 58.67 368.4C59.01 368.4 59.33 368.48 59.62 368.61L59.62 364.39L55.63 365.74C55.63 365.74 55.63 372.49 55.63 372.53C55.63 373.81 54.59 374.85 53.31 374.85C52.04 374.85 51 373.81 51 372.53C51 371.25 52.04 370.22 53.31 370.22C53.65 370.22 53.97 370.29 54.26 370.42L54.26 365.25C54.26 364.96 54.45 364.7 54.73 364.6L60.08 362.79C60.29 362.72 60.52 362.75 60.7 362.88C60.88 363.01 60.99 363.22 60.99 363.44C60.99 363.44 60.99 370.68 60.99 370.72ZM54.26 372.53C54.26 372.01 53.84 371.58 53.31 371.58C52.79 371.58 52.37 372.01 52.37 372.53C52.37 373.05 52.79 373.48 53.31 373.48C53.84 373.48 54.26 373.05 54.26 372.53ZM59.62 370.72C59.62 370.19 59.19 369.77 58.67 369.77C58.15 369.77 57.72 370.19 57.72 370.72C57.72 371.24 58.15 371.67 58.67 371.67C59.19 371.67 59.62 371.24 59.62 370.72Z" />
	<path id="Layer" fill-rule="evenodd" class="shp16" d="M83.29 382.92C83.17 383.28 82.78 383.47 82.43 383.35L81.02 382.87C81.02 382.89 81.02 389.16 81.02 389.2C81.02 390.47 79.98 391.51 78.71 391.51C77.43 391.51 76.39 390.47 76.39 389.2C76.39 387.92 77.43 386.88 78.71 386.88C79.04 386.88 79.36 386.95 79.65 387.08L79.65 381.92C79.65 381.7 79.76 381.49 79.94 381.36C80.12 381.23 80.35 381.2 80.56 381.27L82.86 382.05C83.22 382.17 83.41 382.56 83.29 382.92ZM79.65 389.2C79.65 388.68 79.23 388.25 78.71 388.25C78.18 388.25 77.76 388.67 77.76 389.2C77.76 389.72 78.18 390.14 78.71 390.14C79.23 390.14 79.65 389.72 79.65 389.2Z" />
	<path id="Layer" fill-rule="evenodd" class="shp16" d="M69.69 365.36C69.55 365.36 69.42 365.32 69.3 365.24C68.82 364.91 66.38 363.22 65.82 362.34C65.57 361.96 65.25 361.35 65.31 360.5C65.4 359.08 66.56 357.99 67.94 358C68.72 358.01 69.34 358.42 69.75 358.81C70.17 358.44 70.8 358.04 71.54 358.04C71.55 358.04 71.56 358.04 71.56 358.04C72.95 358.05 74.09 359.18 74.15 360.6C74.19 361.45 73.85 362.05 73.6 362.43C73.01 363.3 70.55 364.93 70.06 365.25C69.95 365.32 69.82 365.36 69.69 365.36ZM67.92 359.37C67.27 359.37 66.71 359.91 66.67 360.59C66.65 360.94 66.73 361.24 66.97 361.6C67.24 362.03 68.62 363.09 69.69 363.85C70.78 363.11 72.18 362.08 72.46 361.66C72.71 361.3 72.8 361.01 72.78 360.65C72.75 359.97 72.2 359.41 71.55 359.41C71.01 359.4 70.42 360.06 70.29 360.23C70.16 360.42 69.95 360.52 69.72 360.52C69.49 360.51 69.28 360.4 69.16 360.21C69.01 359.98 68.49 359.37 67.93 359.37C67.92 359.37 67.92 359.37 67.92 359.37Z" />
	<path id="Layer" class="shp17" d="M131.42 194.04L167.17 194.04C172.7 194.04 177.17 198.51 177.17 204.04L177.17 239.22C177.17 244.75 172.7 249.22 167.17 249.22L131.42 249.22C125.89 249.22 121.42 244.75 121.42 239.22L121.42 204.04C121.42 198.51 125.89 194.04 131.42 194.04Z" />
	<path id="Layer" class="shp16" d="M166.69 221.6C164.24 221.6 163 222.11 161.8 222.6C161.5 222.72 161.35 223.07 161.48 223.37C161.57 223.6 161.79 223.74 162.03 223.74C162.1 223.74 162.18 223.73 162.25 223.7C163.39 223.23 164.47 222.79 166.69 222.79C167.02 222.79 167.28 222.53 167.28 222.2C167.28 221.87 167.02 221.6 166.69 221.6Z" />
	<path id="Layer" class="shp16" d="M165.84 231.25C163.39 231.25 162.15 231.75 160.95 232.24C159.81 232.71 158.73 233.15 156.51 233.15C154.3 233.15 153.22 232.71 152.07 232.24C150.87 231.75 149.63 231.25 147.19 231.25C144.74 231.25 143.5 231.75 142.3 232.24C141.15 232.71 140.07 233.15 137.86 233.15C135.64 233.15 134.56 232.71 133.41 232.24C133.08 232.1 132.73 231.96 132.35 231.83C132.04 231.72 131.7 231.89 131.6 232.2C131.49 232.51 131.65 232.85 131.96 232.95C132.31 233.07 132.63 233.2 132.97 233.34C134.17 233.83 135.41 234.34 137.86 234.34C140.3 234.34 141.54 233.83 142.75 233.34C143.89 232.88 144.97 232.43 147.19 232.43C149.4 232.43 150.48 232.88 151.63 233.34C152.82 233.83 154.06 234.34 156.51 234.34C158.96 234.34 160.2 233.83 161.4 233.34C162.55 232.88 163.63 232.43 165.84 232.43C166.17 232.43 166.44 232.17 166.44 231.84C166.44 231.51 166.17 231.25 165.84 231.25Z" />
	<path id="Layer" class="shp16" d="M168.41 228.04C166.19 228.04 165.11 227.6 163.97 227.13C162.76 226.64 161.53 226.13 159.08 226.13C156.63 226.13 155.39 226.64 154.19 227.13C153.04 227.6 151.96 228.04 149.75 228.04C147.53 228.04 146.45 227.6 145.31 227.13C144.11 226.64 142.87 226.13 140.42 226.13C137.97 226.13 136.73 226.64 135.53 227.13C134.38 227.6 133.3 228.04 131.09 228.04C130.57 228.04 130.11 228.01 129.66 227.97C129.33 227.93 129.04 228.17 129 228.49C128.97 228.82 129.2 229.11 129.53 229.15C130.02 229.2 130.53 229.23 131.09 229.23C133.54 229.23 134.78 228.72 135.98 228.23C137.12 227.76 138.2 227.32 140.42 227.32C142.63 227.32 143.71 227.76 144.86 228.23C146.06 228.72 147.3 229.23 149.75 229.23C152.19 229.23 153.44 228.72 154.64 228.23C155.78 227.76 156.86 227.32 159.08 227.32C161.29 227.32 162.37 227.76 163.52 228.23C164.72 228.72 165.96 229.23 168.41 229.23C168.73 229.23 169 228.96 169 228.63C169 228.3 168.73 228.04 168.41 228.04Z" />
	<path id="Layer" fill-rule="evenodd" class="shp16" d="M169 218.41C169 218.74 168.73 219 168.41 219C165.96 219 164.72 218.5 163.52 218.01C163.04 217.81 162.59 217.63 162.06 217.47C162.06 217.53 162.06 217.59 162.06 217.64C162.06 219.98 160.68 222 158.68 222.92C158.81 222.92 158.94 222.93 159.08 222.93C160.05 222.93 160.89 222.84 161.64 222.66C161.96 222.59 162.28 222.78 162.35 223.1C162.43 223.42 162.23 223.74 161.91 223.82C161.07 224.02 160.14 224.11 159.08 224.11C156.63 224.11 155.39 223.61 154.19 223.12C153.04 222.65 151.96 222.21 149.75 222.21C147.53 222.21 146.45 222.65 145.31 223.12C144.11 223.61 142.87 224.11 140.42 224.11C137.97 224.11 136.73 223.61 135.53 223.12C134.38 222.65 133.3 222.21 131.09 222.21C130.57 222.21 130.11 222.23 129.66 222.28C129.33 222.32 129.04 222.08 129 221.75C128.97 221.43 129.2 221.14 129.53 221.1C130.02 221.05 130.53 221.02 131.09 221.02C133.54 221.02 134.78 221.53 135.98 222.02C136.62 222.28 137.24 222.53 138.04 222.7C139.76 220.48 141.85 218.82 144.27 217.77C143.35 217.41 142.27 217.1 140.42 217.1C138.2 217.1 137.12 217.54 135.98 218.01C134.78 218.5 133.54 219 131.09 219C130.53 219 130.02 218.98 129.53 218.92C129.2 218.89 128.97 218.6 129 218.27C129.04 217.94 129.33 217.71 129.66 217.74C130.11 217.79 130.57 217.81 131.09 217.81C133.3 217.81 134.38 217.37 135.53 216.91C136.73 216.42 137.97 215.91 140.42 215.91C142 215.91 143.08 216.13 143.95 216.4L143.32 214.87L139.37 214.96C138.68 214.97 138.03 214.72 137.53 214.25C137.03 213.77 136.74 213.13 136.72 212.44C136.71 211.75 136.96 211.1 137.43 210.6C137.91 210.1 138.55 209.81 139.24 209.8L144.97 209.66C145.86 209.64 146.69 210.07 147.18 210.82C147.28 210.96 147.35 211.1 147.42 211.26L149.58 216.52C149.97 216.5 150.29 216.5 150.54 216.51C151.07 213.84 153.43 211.83 156.25 211.83C158.96 211.83 161.24 213.69 161.88 216.2C162.7 216.39 163.34 216.65 163.97 216.91C165.11 217.37 166.19 217.81 168.41 217.81C168.73 217.81 169 218.08 169 218.41ZM151.6 221.14C150.88 220.18 150.44 218.99 150.43 217.7C150.32 217.69 150.19 217.69 150.04 217.69C150.34 218.9 149.74 220.19 148.57 220.7C148.49 220.73 148.41 220.75 148.33 220.75C148.1 220.75 147.88 220.62 147.79 220.39C147.66 220.09 147.79 219.74 148.09 219.61C148.79 219.31 149.11 218.5 148.83 217.8L146.32 211.71C146.28 211.63 146.24 211.55 146.19 211.47C145.93 211.07 145.48 210.84 145 210.85L139.27 210.99C138.9 211 138.55 211.15 138.29 211.42C138.04 211.69 137.9 212.04 137.91 212.41C137.92 212.78 138.07 213.13 138.34 213.39C138.61 213.64 138.97 213.78 139.34 213.77L143.7 213.67C143.95 213.66 144.17 213.81 144.26 214.04L146.24 218.82C146.36 219.13 146.22 219.47 145.91 219.6C145.61 219.72 145.26 219.58 145.14 219.28L144.93 218.78C142.82 219.67 140.97 221.04 139.42 222.89C139.73 222.91 140.06 222.93 140.42 222.93C142.63 222.93 143.72 222.49 144.86 222.02C146.06 221.53 147.3 221.02 149.75 221.02C150.46 221.02 151.07 221.06 151.6 221.14ZM159.07 221.31L157.96 220.2C157.7 220.33 157.42 220.39 157.14 220.39C156.66 220.39 156.19 220.21 155.83 219.85C155.48 219.5 155.3 219.05 155.29 218.59C154.83 218.58 154.38 218.4 154.03 218.05C153.45 217.47 153.34 216.61 153.68 215.91L152.58 214.82C151.98 215.6 151.62 216.58 151.62 217.64C151.62 220.19 153.69 222.27 156.25 222.27C157.31 222.27 158.29 221.91 159.07 221.31ZM160.87 217.64C160.87 215.09 158.8 213.01 156.25 213.01C155.18 213.01 154.21 213.38 153.42 213.98L154.52 215.07C155.21 214.73 156.08 214.85 156.66 215.43C157 215.77 157.18 216.23 157.19 216.68C157.65 216.7 158.1 216.88 158.45 217.22C159.03 217.8 159.15 218.66 158.8 219.36L159.91 220.47C160.51 219.68 160.87 218.71 160.87 217.64ZM156.67 219.01C156.93 219.27 157.35 219.27 157.61 219.01C157.87 218.75 157.87 218.32 157.61 218.06C157.48 217.93 157.31 217.87 157.14 217.87C156.97 217.87 156.8 217.93 156.67 218.06C156.41 218.32 156.41 218.75 156.67 219.01ZM154.87 217.21C155.13 217.47 155.55 217.47 155.81 217.21C156.08 216.95 156.08 216.53 155.81 216.26C155.68 216.13 155.51 216.07 155.34 216.07C155.17 216.07 155 216.13 154.87 216.26C154.61 216.53 154.61 216.95 154.87 217.21Z" />
	<path id="Layer" class="shp16" d="M149.55 219.54C149.36 219.05 148.64 219.05 148.45 219.54C148.35 219.8 148.44 220.1 148.67 220.25C148.89 220.4 149.2 220.38 149.4 220.2C149.58 220.04 149.64 219.77 149.55 219.54Z" />
	<path id="Layer" class="shp18" d="M155.35 217.4C154.97 217.4 154.66 217.1 154.66 216.72C154.66 216.34 154.97 216.04 155.35 216.04C155.74 216.04 156.05 216.34 156.05 216.72C156.05 217.1 155.74 217.4 155.35 217.4Z" />
	<path id="Layer" class="shp18" d="M157.16 219.23C156.77 219.23 156.46 218.93 156.46 218.55C156.46 218.17 156.77 217.87 157.16 217.87C157.54 217.87 157.85 218.17 157.85 218.55C157.85 218.93 157.54 219.23 157.16 219.23Z" />
	<path id="Layer" class="shp2" d="M265.99 141.32L298.13 141.32C303.66 141.32 308.13 145.79 308.13 151.32L308.13 183.46C308.13 188.99 303.66 193.46 298.13 193.46L265.99 193.46C260.46 193.46 255.99 188.99 255.99 183.46L255.99 151.32C255.99 145.79 260.46 141.32 265.99 141.32Z" />
	<path id="Layer" class="shp19" d="M184.91 80.51L206.58 80.51C212.11 80.51 216.58 84.98 216.58 90.51L216.58 112.18C216.58 117.71 212.11 122.18 206.58 122.18L184.91 122.18C179.38 122.18 174.91 117.71 174.91 112.18L174.91 90.51C174.91 84.98 179.38 80.51 184.91 80.51Z" />
	<path id="Layer" class="shp20" d="M96.52 121.62L111.99 121.62C117.52 121.62 121.99 126.09 121.99 131.62L121.99 147.09C121.99 152.62 117.52 157.09 111.99 157.09L96.52 157.09C90.99 157.09 86.52 152.62 86.52 147.09L86.52 131.62C86.52 126.09 90.99 121.62 96.52 121.62Z" />
	<g id="Clip-Path" clip-path="url(#cp3)">
		<g id="Layer">
			<path id="Layer" fill-rule="evenodd" class="shp21" d="M113.51 140.51L111.87 142.34C111.69 142.53 111.45 142.63 111.21 142.63C111 142.63 110.79 142.56 110.62 142.41C110.45 142.25 110.34 142.04 110.33 141.81L110.22 140.26C110.21 140.13 110.18 140 110.12 139.88C110.03 139.68 109.88 139.52 109.69 139.41L102.27 135.09L102.27 136.82C102.27 137.01 102.39 137.18 102.56 137.25C102.69 137.25 102.82 137.26 102.95 137.29C102.96 137.29 102.96 137.29 102.97 137.29C103.8 137.44 104.52 137.99 104.87 138.77C105.06 139.19 105.13 139.65 105.08 140.11L105.38 140.83C105.47 141.06 105.63 141.26 105.82 141.41L107.52 142.7C107.75 142.88 107.8 143.23 107.62 143.46C107.45 143.7 107.12 143.75 106.88 143.59L105.1 142.38C104.89 142.25 104.66 142.17 104.42 142.15L103.99 142.12C103.86 142.36 103.77 142.63 103.74 142.91L103.31 147.25C103.22 148.24 102.4 148.98 101.41 148.98L100.68 148.98C100.53 148.98 100.4 148.86 100.4 148.7C100.4 148.55 100.53 148.43 100.68 148.43L101.41 148.43C102.11 148.43 102.69 147.9 102.76 147.2L103.19 142.86C103.23 142.44 103.38 142.02 103.61 141.67C103.67 141.59 103.77 141.54 103.87 141.55L104.46 141.59C104.8 141.62 105.13 141.73 105.41 141.92L106.92 142.95L105.48 141.85C105.21 141.64 105 141.36 104.86 141.04L104.54 140.25C104.52 140.21 104.51 140.16 104.52 140.11C104.57 139.73 104.52 139.35 104.36 139C104.09 138.39 103.53 137.96 102.88 137.84L101.79 139.65C101.6 139.97 101.5 140.32 101.5 140.69L101.5 144.56C101.5 145.22 101.14 145.82 100.55 146.12L100.08 146.35C100.01 146.5 99.91 146.64 99.79 146.76L98.71 147.87C98.65 147.93 98.62 148.01 98.62 148.1C98.62 148.28 98.77 148.43 98.95 148.43L99.35 148.43C99.51 148.43 99.63 148.55 99.63 148.7C99.63 148.86 99.51 148.98 99.35 148.98L98.95 148.98C98.46 148.98 98.06 148.59 98.06 148.1C98.06 147.87 98.15 147.65 98.31 147.49L99.4 146.37C99.64 146.12 99.75 145.75 99.68 145.4L96.64 130.75C96.6 130.57 96.65 130.39 96.77 130.24C96.88 130.1 97.05 130.02 97.24 130.02L102.72 130.02C102.97 130.02 103.21 130.11 103.39 130.28L105.03 131.75C105.17 131.87 105.38 131.9 105.55 131.82C105.66 131.69 105.79 131.57 105.94 131.47C106.59 131.01 107.44 130.87 108.22 131.12C108.66 131.26 109.05 131.51 109.35 131.85L110.09 132.11C110.32 132.19 110.57 132.21 110.81 132.16L112.91 131.77C113.2 131.71 113.49 131.91 113.55 132.2C113.61 132.49 113.43 132.76 113.15 132.84L111.06 133.36C110.82 133.42 110.61 133.54 110.43 133.7L110.12 134C110.21 134.26 110.36 134.51 110.55 134.72L113.49 137.93C114.16 138.66 114.17 139.77 113.51 140.51ZM109.97 138.93C110.07 138.99 110.17 139.06 110.25 139.14L110.27 139.09C110.38 138.66 110.25 138.2 109.91 137.9L107.03 135.31C106.68 135 106.42 134.6 106.29 134.16L105.73 132.34C105.6 132.4 105.47 132.42 105.34 132.42C105.09 132.42 104.85 132.33 104.66 132.16L103.02 130.69C102.94 130.62 102.83 130.57 102.72 130.57L102.27 130.57L102.27 131.53C102.27 131.69 102.15 131.81 101.99 131.81C101.84 131.81 101.72 131.69 101.72 131.53L101.72 130.57L97.24 130.57C97.22 130.57 97.2 130.59 97.2 130.59C97.19 130.6 97.18 130.62 97.19 130.64L100.22 145.29C100.25 145.41 100.26 145.53 100.25 145.64L100.29 145.62C100.7 145.42 100.95 145.01 100.95 144.56L100.95 140.69C100.95 140.22 101.08 139.77 101.31 139.37L102.29 137.74C101.94 137.57 101.72 137.22 101.72 136.82L101.72 132.86C101.72 132.71 101.84 132.59 101.99 132.59C102.15 132.59 102.27 132.71 102.27 132.86L102.27 134.45L109.97 138.93ZM113.08 138.31L110.14 135.09C109.85 134.78 109.64 134.4 109.54 133.98C109.51 133.88 109.54 133.78 109.62 133.71L110.05 133.3C110.29 133.07 110.59 132.9 110.92 132.82L112.7 132.37L110.92 132.71C110.58 132.78 110.23 132.75 109.91 132.63L109.1 132.35C109.05 132.34 109.01 132.31 108.98 132.27C108.73 131.98 108.41 131.76 108.05 131.65C107.42 131.44 106.73 131.57 106.21 131.96C106.2 131.97 106.2 131.97 106.2 131.97L106.82 134C106.93 134.34 107.13 134.66 107.4 134.9L110.28 137.48C110.78 137.93 110.97 138.6 110.8 139.24L110.67 139.74C110.73 139.9 110.77 140.06 110.78 140.22L110.88 141.77C110.89 141.86 110.93 141.94 110.99 141.99C111.13 142.11 111.33 142.1 111.45 141.97L113.09 140.14C113.56 139.61 113.56 138.83 113.08 138.31Z" />
			<path id="Layer" fill-rule="evenodd" class="shp21" d="M110.34 146.22C110.28 146.36 110.12 146.43 109.98 146.38C109.84 146.32 109.77 146.16 109.82 146.02C109.9 145.81 109.83 145.58 109.65 145.45L109.56 145.38C109.39 145.26 109.27 145.09 109.2 144.89L108.75 146.08C108.9 146.21 109.01 146.37 109.04 146.56C109.08 146.82 108.98 147.08 108.76 147.29C108.57 147.47 108.3 147.6 108 147.64C107.92 147.66 107.83 147.66 107.75 147.66C107.54 147.66 107.34 147.62 107.17 147.54C106.9 147.41 106.72 147.19 106.68 146.94C106.6 146.44 107.06 145.97 107.72 145.86C107.9 145.83 108.07 145.83 108.23 145.86L108.95 143.99C108.99 143.88 109.09 143.81 109.21 143.81C109.21 143.81 109.21 143.81 109.21 143.81C109.33 143.81 109.43 143.89 109.47 144L109.72 144.71C109.76 144.8 109.81 144.88 109.89 144.94L109.98 145C110.36 145.28 110.51 145.78 110.34 146.22ZM108.49 146.65C108.47 146.51 108.25 146.4 107.97 146.4C107.92 146.4 107.86 146.4 107.8 146.41C107.44 146.47 107.2 146.69 107.23 146.85C107.24 146.95 107.36 147.02 107.41 147.04C107.54 147.1 107.73 147.12 107.91 147.09C108.1 147.07 108.27 146.99 108.38 146.88C108.42 146.85 108.51 146.75 108.49 146.65Z" />
			<path id="Layer" fill-rule="evenodd" class="shp21" d="M97.95 142.65C97.79 142.66 97.67 142.53 97.66 142.38C97.66 142.16 97.51 141.97 97.29 141.92L97.18 141.89C96.98 141.84 96.81 141.73 96.67 141.58L96.7 142.85C96.89 142.91 97.05 143.02 97.15 143.18C97.41 143.61 97.17 144.22 96.6 144.57C96.14 144.87 95.4 144.91 95.11 144.42C94.97 144.2 94.97 143.92 95.09 143.65C95.2 143.41 95.4 143.19 95.66 143.03C95.82 142.93 95.98 142.87 96.15 142.83L96.09 140.84C96.09 140.72 96.16 140.61 96.26 140.57C96.37 140.53 96.5 140.56 96.57 140.64L97.08 141.2C97.14 141.28 97.23 141.33 97.32 141.35L97.43 141.38C97.88 141.49 98.21 141.9 98.22 142.37C98.22 142.52 98.1 142.65 97.95 142.65ZM96.67 143.47C96.63 143.4 96.53 143.36 96.41 143.36C96.27 143.36 96.11 143.41 95.95 143.5C95.79 143.6 95.66 143.74 95.6 143.88C95.57 143.92 95.53 144.05 95.58 144.13C95.63 144.22 95.76 144.24 95.82 144.24C95.97 144.25 96.15 144.19 96.31 144.1C96.62 143.91 96.76 143.61 96.67 143.47Z" />
		</g>
	</g>
	<path id="Layer" fill-rule="evenodd" class="shp22" d="M204.63 109.22C204.93 109.7 205.09 110.25 205.09 110.81C205.09 111.38 204.93 111.93 204.63 112.41C204.63 112.41 204.63 112.41 204.63 112.41C204.63 112.42 204.62 112.43 204.61 112.44C204.34 112.86 203.97 113.21 203.54 113.45C203.1 113.69 202.61 113.82 202.11 113.82C201.61 113.83 201.12 113.71 200.68 113.47C200.24 113.24 199.86 112.9 199.58 112.48C199.57 112.46 199.55 112.44 199.54 112.42L199.54 112.41C199.24 111.94 199.08 111.38 199.08 110.82C199.08 110.25 199.24 109.7 199.54 109.22L199.54 109.22C199.55 109.19 199.57 109.17 199.58 109.15C199.86 108.74 200.23 108.4 200.66 108.17C201.1 107.93 201.59 107.81 202.08 107.81C202.58 107.81 203.06 107.93 203.5 108.16C203.94 108.4 204.31 108.73 204.58 109.15C204.6 109.17 204.62 109.19 204.63 109.22C204.63 109.22 204.63 109.22 204.63 109.22L204.63 109.22ZM200.05 111.76C201.35 111.23 202.81 111.23 204.12 111.76C204.25 111.47 204.33 111.14 204.33 110.82C204.33 110.49 204.25 110.17 204.12 109.87C202.81 110.41 201.35 110.41 200.05 109.87C199.91 110.17 199.84 110.49 199.84 110.82C199.84 111.14 199.91 111.47 200.05 111.76L200.05 111.76ZM202.08 108.58C201.49 108.58 200.92 108.81 200.5 109.23C201.52 109.6 202.64 109.6 203.66 109.23C203.24 108.81 202.68 108.58 202.08 108.58ZM202.08 113.06C202.68 113.06 203.24 112.83 203.66 112.41C202.64 112.03 201.52 112.03 200.5 112.41C200.92 112.83 201.49 113.06 202.08 113.06Z" />
	<path id="Layer" fill-rule="evenodd" class="shp22" d="M205.3 103.8C204.08 104.9 202.63 105.71 201.06 106.16L201.06 106.17C198.86 106.93 196.58 107.25 194.58 107.53C193.04 107.75 191.68 107.94 190.88 108.29C190.88 108.3 190.88 108.31 190.88 108.31C190.88 108.32 190.89 108.33 190.89 108.34C190.9 108.36 190.9 108.39 190.9 108.41L190.9 108.41C190.9 108.44 190.9 108.46 190.89 108.48C190.89 108.49 190.89 108.5 190.88 108.51C190.88 108.52 190.88 108.54 190.87 108.56C190.87 108.56 190.86 108.57 190.86 108.58C190.85 108.59 190.84 108.61 190.83 108.62C190.82 108.64 190.8 108.66 190.79 108.68L189.65 109.82L185.62 113.85C185.58 113.89 185.54 113.91 185.49 113.93C185.45 113.95 185.4 113.96 185.35 113.96C185.3 113.96 185.25 113.95 185.2 113.93C185.16 113.91 185.11 113.89 185.08 113.85L183.15 111.92C183.12 111.89 183.09 111.85 183.07 111.8C183.05 111.75 183.04 111.7 183.04 111.65C183.04 111.6 183.05 111.55 183.07 111.51C183.09 111.46 183.12 111.42 183.15 111.38L188.32 106.21C188.37 106.16 188.43 106.13 188.5 106.11C188.57 106.1 188.65 106.1 188.71 106.12C189.06 105.32 189.25 103.96 189.47 102.42C189.75 100.42 190.07 98.14 190.84 95.94L190.84 95.94C191.29 94.37 192.1 92.92 193.2 91.7L193.21 91.69C193.33 91.56 193.46 91.42 193.59 91.29C193.61 91.27 193.62 91.25 193.64 91.23C193.65 91.23 193.65 91.22 193.65 91.22C195.43 89.4 197.8 88.28 200.34 88.06C202.82 87.88 205.08 88.67 206.7 90.3C210.04 93.64 209.63 99.49 205.78 103.35C205.78 103.35 205.77 103.36 205.77 103.36C205.75 103.37 205.74 103.39 205.72 103.41C205.59 103.54 205.44 103.67 205.3 103.8ZM194.18 91.77C194.17 91.79 194.15 91.81 194.13 91.83C193.04 92.94 192.19 94.36 191.56 96.18C191.4 96.77 191.29 97.37 191.24 97.98C191.07 100.23 191.79 102.28 193.25 103.75C194.72 105.21 196.77 105.93 199.02 105.76C199.63 105.71 200.23 105.6 200.82 105.44C202.64 104.8 204.07 103.96 205.18 102.86C205.2 102.85 205.21 102.83 205.23 102.82C208.79 99.26 209.21 93.89 206.16 90.84C205.48 90.18 204.68 89.66 203.8 89.31C202.92 88.96 201.98 88.79 201.03 88.8C200.82 88.8 200.61 88.81 200.39 88.83C198.04 89.03 195.84 90.08 194.18 91.77ZM188 107.62L189.38 109L189.97 108.41L188.59 107.03L188 107.62ZM188.84 109.54L187.46 108.16L183.96 111.65L185.35 113.04L188.84 109.54ZM196.85 106.42C195.28 106.16 193.84 105.41 192.71 104.29C191.59 103.17 190.85 101.72 190.59 100.15C190.44 100.97 190.33 101.77 190.22 102.53C189.97 104.32 189.77 105.77 189.31 106.66L190.34 107.69C191.23 107.23 192.68 107.03 194.47 106.78C195.23 106.67 196.03 106.56 196.85 106.42Z" />
	<path id="Layer" fill-rule="evenodd" class="shp22" d="M192.88 94.42C193.33 93.59 193.9 92.83 194.57 92.16C196.11 90.58 198.15 89.6 200.33 89.37C202.46 89.19 204.39 89.85 205.77 91.23L205.77 91.23L205.78 91.23C207.06 92.51 207.71 94.27 207.65 96.21L207.65 96.22C207.65 96.37 207.64 96.52 207.63 96.67C207.61 96.82 207.6 96.97 207.57 97.12C207.57 97.12 207.57 97.13 207.57 97.13C207.26 99.15 206.3 101 204.84 102.43C203.42 103.89 201.56 104.84 199.55 105.16L199.53 105.16C199.38 105.18 199.23 105.2 199.08 105.21C198.93 105.23 198.79 105.23 198.64 105.24L198.62 105.24C198.54 105.24 198.46 105.24 198.38 105.24C197.51 105.26 196.64 105.1 195.82 104.78C195.01 104.46 194.27 103.98 193.65 103.36C193.65 103.36 193.64 103.36 193.64 103.36C193.64 103.36 193.64 103.36 193.64 103.36C193.05 102.77 192.59 102.07 192.28 101.31C192.27 101.29 192.27 101.28 192.26 101.27C191.91 100.36 191.74 99.39 191.77 98.41C191.76 98.38 191.76 98.34 191.77 98.3C191.78 98.05 191.8 97.79 191.84 97.54C191.84 97.5 191.84 97.46 191.85 97.42C192.01 96.4 192.34 95.41 192.83 94.49C192.84 94.47 192.86 94.44 192.88 94.42ZM193.66 94.57L194.53 95.44L195.93 94.05L194.85 92.98C194.4 93.46 194 94 193.66 94.57ZM195.39 92.43L196.47 93.51L197.86 92.12L196.99 91.25C196.41 91.59 195.88 91.98 195.39 92.43ZM200.95 90.11L200.87 90.19L201.95 91.27L202.85 90.37C202.26 90.19 201.65 90.11 201.03 90.11C201 90.11 200.98 90.11 200.95 90.11ZM204.95 91.51C204.56 91.17 204.12 90.88 203.64 90.66L202.49 91.81L203.57 92.89L204.95 91.51L204.95 91.51ZM206.34 93.36C206.12 92.89 205.84 92.44 205.49 92.05L204.11 93.43L205.19 94.51L206.34 93.36L206.34 93.36ZM206.13 99.31L206.13 99.3C206.13 99.31 206.13 99.31 206.13 99.31L206.13 99.31ZM206.13 99.3C206.43 98.65 206.65 97.96 206.78 97.25L205.42 98.6L206.13 99.3ZM205.75 100.02L204.88 99.15L203.49 100.54L204.57 101.61C205.02 101.12 205.42 100.59 205.75 100.02ZM202.43 103.34C203 103 203.54 102.61 204.03 102.15L202.95 101.08L201.56 102.47L202.43 103.34L202.43 103.34ZM196.56 104.22L196.57 104.22C196.57 104.22 196.57 104.22 196.56 104.22L196.56 104.22ZM196.57 104.22C197.18 104.4 197.83 104.49 198.47 104.47L198.54 104.4L197.47 103.32L196.57 104.22ZM194.47 103.08L194.47 103.08C194.47 103.08 194.46 103.08 194.46 103.08L194.47 103.08ZM194.47 103.08C194.86 103.42 195.3 103.71 195.78 103.93L196.92 102.78L195.84 101.7L194.47 103.08ZM193.08 101.22C193.29 101.7 193.58 102.14 193.92 102.54L195.3 101.16L194.22 100.08L193.08 101.23L193.08 101.22ZM201.33 98.37L202.72 96.98L201.64 95.9L200.25 97.29L201.33 98.37ZM199.71 97.84L198.32 99.23L199.4 100.31L200.79 98.92L199.71 97.84ZM201.1 95.36L200.02 94.28L198.63 95.67L199.71 96.75L201.1 95.36ZM198.09 96.21L196.7 97.6L197.78 98.68L199.17 97.29L198.09 96.21ZM196.16 98.15L194.76 99.54L195.84 100.62L197.24 99.23L196.16 98.15ZM196.38 101.16L197.47 102.24L198.86 100.85L197.78 99.77L196.38 101.16ZM198.01 102.78L199.09 103.86L200.48 102.47L199.4 101.39L198.01 102.78ZM201.02 101.93L202.41 100.54L201.33 99.46L199.94 100.85L201.02 101.93ZM202.95 99.99L204.34 98.6L203.26 97.52L201.87 98.92L202.95 99.99ZM204.88 98.06L206.27 96.67L205.19 95.59L203.8 96.98L204.88 98.06ZM204.65 95.05L203.57 93.97L202.18 95.36L203.26 96.44L204.65 95.05ZM203.03 93.43L201.95 92.35L200.56 93.74L201.64 94.82L203.03 93.43ZM201.41 91.81L200.33 90.73L198.94 92.12L200.02 93.2L201.41 91.81ZM198.4 92.66L197.01 94.05L198.09 95.13L199.48 93.74L198.4 92.66ZM196.47 94.59L195.07 95.98L196.16 97.06L197.55 95.67L196.47 94.59ZM194.53 96.53L193.14 97.92L194.22 99L195.61 97.6L194.53 96.53ZM192.78 100.44L193.68 99.54L192.6 98.46L192.53 98.53C192.52 99.18 192.6 99.82 192.78 100.44ZM201.72 103.71L201.02 103.01L199.66 104.36C200.38 104.24 201.07 104.02 201.72 103.71ZM206.63 94.15L205.73 95.05L206.81 96.13L206.89 96.05C206.9 95.41 206.81 94.77 206.63 94.15ZM197.7 90.88L198.4 91.58L199.75 90.22C199.04 90.35 198.35 90.57 197.7 90.88ZM193.29 95.28C192.99 95.94 192.77 96.63 192.64 97.34L193.99 95.98L193.29 95.28Z" />
	<g id="Clip-Path" clip-path="url(#cp4)">
		<g id="Layer">
			<path id="Layer" fill-rule="evenodd" class="shp16" d="M294 170.87L294 173.19C294 173.41 293.83 173.58 293.61 173.58L293.2 173.58L292.84 178.64C292.82 178.84 292.66 179 292.45 179L290.9 179C290.7 179 290.53 178.84 290.52 178.64L290.16 173.58L273.85 173.58L273.49 178.64C273.47 178.84 273.3 179 273.1 179L271.55 179C271.35 179 271.18 178.84 271.16 178.64L270.8 173.58L270.39 173.58C270.18 173.58 270 173.41 270 173.19L270 170.87C270 170.66 270.18 170.49 270.39 170.49L270.78 170.49L270.78 166.23C270.78 166.01 270.95 165.84 271.16 165.84L271.78 165.84L282.5 155.12C282.65 154.96 282.9 154.96 283.05 155.12L284.21 156.28C284.36 156.43 284.36 156.67 284.21 156.82L282.94 158.1L290.68 165.84L292.84 165.84C293.05 165.84 293.23 166.01 293.23 166.23L293.23 170.49L293.61 170.49C293.83 170.49 294 170.66 294 170.87ZM282.39 158.65L275.19 165.84L278.52 165.84L278.52 163.91C278.52 163.69 278.69 163.52 278.9 163.52L283.94 163.52C284.04 163.52 284.14 163.56 284.21 163.63L285.37 164.79C285.44 164.87 285.49 164.96 285.49 165.07L285.49 165.84L289.58 165.84L282.39 158.65ZM281.61 167.39L281.61 164.29L279.29 164.29L279.29 167.39L281.61 167.39ZM282.39 167.39L284.71 167.39L284.71 165.23L283.78 164.29L282.39 164.29L282.39 167.39ZM272.87 165.84L274.1 165.84L283.39 156.55L282.78 155.94L272.87 165.84ZM271.55 170.49L272.32 170.49L272.32 169.32C272.32 169.11 272.5 168.94 272.71 168.94L291.29 168.94C291.5 168.94 291.68 169.11 291.68 169.32L291.68 170.49L292.45 170.49L292.45 166.62L285.49 166.62L285.49 167.78C285.49 167.99 285.31 168.16 285.1 168.16L278.9 168.16C278.69 168.16 278.52 167.99 278.52 167.78L278.52 166.62L271.55 166.62L271.55 170.49ZM274.65 170.49L274.65 169.71L273.1 169.71L273.1 170.49L274.65 170.49ZM275.42 170.49L276.19 170.49L276.19 169.71L275.42 169.71L275.42 170.49ZM276.97 170.49L277.74 170.49L277.74 169.71L276.97 169.71L276.97 170.49ZM278.52 170.49L279.29 170.49L279.29 169.71L278.52 169.71L278.52 170.49ZM280.07 170.49L280.84 170.49L280.84 169.71L280.07 169.71L280.07 170.49ZM281.61 170.49L282.39 170.49L282.39 169.71L281.61 169.71L281.61 170.49ZM283.16 170.49L283.94 170.49L283.94 169.71L283.16 169.71L283.16 170.49ZM284.71 170.49L285.49 170.49L285.49 169.71L284.71 169.71L284.71 170.49ZM286.26 170.49L287.03 170.49L287.03 169.71L286.26 169.71L286.26 170.49ZM287.81 170.49L288.58 170.49L288.58 169.71L287.81 169.71L287.81 170.49ZM289.36 170.49L290.9 170.49L290.9 169.71L289.36 169.71L289.36 170.49ZM272.74 178.23L272.79 177.45L271.86 177.45L271.91 178.23L272.74 178.23ZM273.07 173.58L271.58 173.58L271.8 176.68L272.85 176.68L273.07 173.58ZM292.09 178.23L292.15 177.45L291.21 177.45L291.26 178.23L292.09 178.23ZM292.43 173.58L290.93 173.58L291.15 176.68L292.2 176.68L292.43 173.58ZM293.23 171.26L270.78 171.26L270.78 172.81L293.23 172.81L293.23 171.26Z" />
			<path id="Layer" fill-rule="evenodd" class="shp23" d="M286.64 159.65C286.64 159 287.17 158.48 287.81 158.48C287.94 158.48 288.07 158.51 288.19 158.56L288.19 156.55C288.19 156.39 288.29 156.24 288.44 156.19L291.54 155.03C291.66 154.98 291.79 155 291.9 155.07C292 155.14 292.06 155.26 292.06 155.39L292.06 158.87C292.06 159.51 291.54 160.03 290.9 160.03C290.26 160.03 289.74 159.51 289.74 158.87C289.74 158.23 290.26 157.71 290.9 157.71C291.04 157.71 291.17 157.74 291.29 157.78L291.29 155.95L288.97 156.82L288.97 159.65C288.97 160.29 288.45 160.81 287.81 160.81C287.17 160.81 286.64 160.29 286.64 159.65ZM291.29 158.87C291.29 158.66 291.12 158.48 290.9 158.48C290.69 158.48 290.52 158.66 290.52 158.87C290.52 159.09 290.69 159.26 290.9 159.26C291.12 159.26 291.29 159.09 291.29 158.87ZM287.42 159.65C287.42 159.86 287.59 160.03 287.81 160.03C288.02 160.03 288.19 159.86 288.19 159.65C288.19 159.43 288.02 159.26 287.81 159.26C287.59 159.26 287.42 159.43 287.42 159.65Z" />
			<path id="Layer" fill-rule="evenodd" class="shp23" d="M270.77 159.65C270.77 159 271.3 158.48 271.94 158.48C272.07 158.48 272.2 158.51 272.32 158.56L272.32 155.39C272.32 155.23 272.42 155.09 272.56 155.03C272.71 154.97 272.87 155 272.98 155.11L274.92 157.05L274.37 157.6L273.1 156.32L273.1 159.65C273.1 160.29 272.58 160.81 271.94 160.81C271.3 160.81 270.77 160.29 270.77 159.65ZM271.55 159.65C271.55 159.86 271.72 160.03 271.94 160.03C272.15 160.03 272.32 159.86 272.32 159.65C272.32 159.43 272.15 159.26 271.94 159.26C271.72 159.26 271.55 159.43 271.55 159.65Z" />
			<path id="Layer" class="shp23" d="M270.39 161.58L271.94 161.58L271.94 162.35L270.39 162.35L270.39 161.58Z" />
			<path id="Layer" class="shp23" d="M274.26 158.87L275.03 158.87L275.03 160.42L274.26 160.42L274.26 158.87Z" />
			<path id="Layer" class="shp23" d="M275.42 155.78L276.97 155.78L276.97 156.55L275.42 156.55L275.42 155.78Z" />
			<path id="Layer" class="shp23" d="M285.87 155.39L286.64 155.39L286.64 156.94L285.87 156.94L285.87 155.39Z" />
			<path id="Layer" class="shp23" d="M290.52 160.81L292.06 160.81L292.06 161.58L290.52 161.58L290.52 160.81Z" />
			<path id="Layer" class="shp23" d="M293.23 158.48L294 158.48L294 160.03L293.23 160.03L293.23 158.48Z" />
			<path id="Layer" class="shp23" d="M289.08 162.63L289.63 162.08L290.79 163.24L290.24 163.79L289.08 162.63Z" />
			<path id="Layer" class="shp23" d="M270.63 172.78L270.63 171.99L270.63 171.07L293.38 171.07L293.38 172.85C293.38 172.85 278.35 172.78 270.63 172.78Z" />
		</g>
	</g>
	<path id="Layer" fill-rule="evenodd" class="shp24" d="M343.5 379.54C343.5 384.93 338.71 389.63 333.41 389.63C328.07 389.63 323.32 384.79 323.32 379.54C323.32 374.22 328.04 369.45 333.41 369.45C338.84 369.45 343.49 374.14 343.5 379.54ZM340.65 377.19L342.04 378.19C341.9 377.26 341.6 376.37 341.18 375.56L340.65 377.19ZM336.48 371.36L334.08 373.1L334.08 375.76L337.1 377.95L339.31 376.95L340.24 374.1C339.26 372.87 337.97 371.92 336.48 371.36ZM333.41 376.93L330.58 378.99L331.66 382.31L335.15 382.31L336.23 378.99L333.41 376.93ZM356.41 346.62L356.41 375.55C356.41 375.92 356.11 376.23 355.73 376.23C355.36 376.23 355.06 375.92 355.06 375.55L355.06 346.62C355.06 345.75 354.36 345.05 353.49 345.05L313.37 345.05C312.5 345.05 311.8 345.75 311.8 346.62L311.75 375.55C311.75 375.93 311.45 376.23 311.08 376.23L311.08 376.23C310.71 376.23 310.41 375.92 310.41 375.55L310.45 346.62C310.45 345.01 311.76 343.7 313.37 343.7L353.49 343.7C355.1 343.7 356.41 345.01 356.41 346.62ZM326.57 374.1L327.5 376.95L329.71 377.95L332.73 375.76L332.73 373.1L330.34 371.36C328.85 371.92 327.55 372.87 326.57 374.1ZM324.77 378.19L326.16 377.19L325.63 375.56C325.21 376.37 324.92 377.26 324.77 378.19ZM329.11 384.36L330.42 382.83L329.24 379.22L327.03 378.22L324.68 379.93C324.75 381.56 325.27 383.08 326.12 384.36L329.11 384.36ZM329.46 387.33L328.93 385.7L327.22 385.7C327.87 386.36 328.63 386.91 329.46 387.33ZM336.64 385.18L335.33 383.65L331.48 383.65L330.18 385.18L331.08 387.96C331.82 388.17 332.6 388.28 333.41 388.28C334.21 388.28 334.99 388.17 335.74 387.96L336.64 385.18ZM339.6 385.7L337.89 385.7L337.36 387.33C338.19 386.91 338.94 386.36 339.6 385.7ZM342.14 379.93L339.78 378.22L337.57 379.22L336.4 382.83L337.71 384.36L340.7 384.36C341.55 383.08 342.07 381.56 342.14 379.93ZM353.26 348.06L353.26 374.2C353.28 374.74 352.61 375.08 352.19 374.75L347.92 371.64L342.7 371.64C342.32 371.64 342.02 371.34 342.02 370.97C342.02 370.6 342.32 370.3 342.7 370.3L343.91 370.3L344.29 366.95L341.11 366.95L340.94 369.86C340.92 370.22 340.63 370.5 340.27 370.5C340.26 370.5 340.24 370.5 340.23 370.5C339.86 370.47 339.58 370.16 339.6 369.78L339.76 366.95L336.57 366.95L336.57 367.76C336.57 368.14 336.27 368.44 335.9 368.44C335.52 368.44 335.22 368.14 335.22 367.76L335.22 366.95L331.59 366.95L331.59 368.27C331.59 368.65 331.29 368.95 330.92 368.95C330.55 368.95 330.24 368.65 330.24 368.27L330.24 366.95L327.06 366.95L327.22 369.78C327.24 370.16 326.96 370.47 326.58 370.5C326.57 370.5 326.56 370.5 326.55 370.5C326.19 370.5 325.89 370.22 325.87 369.86L325.71 366.95L322.52 366.95L322.91 370.3L324.12 370.3C324.49 370.3 324.79 370.6 324.79 370.97C324.79 371.34 324.49 371.64 324.12 371.64L318.89 371.64L314.62 374.75C314.2 375.08 313.54 374.74 313.55 374.2L313.55 348.06C313.55 347.57 313.84 347.15 314.26 346.96C314.37 346.89 314.5 346.85 314.63 346.85L352.19 346.85C352.32 346.85 352.44 346.89 352.55 346.96C352.97 347.15 353.26 347.57 353.26 348.06ZM324.9 352.88L320.9 352.88L321.29 356.23L325.09 356.23L324.9 352.88ZM320.37 348.19L320.75 351.54L324.82 351.54L324.63 348.19L320.37 348.19ZM320.09 357.57L317.05 357.57L317.62 360.92L320.47 360.92L320.09 357.57ZM319.55 352.88L316.24 352.88L316.81 356.23L319.93 356.23L319.55 352.88ZM315.43 348.19L316.01 351.54L319.39 351.54L319.01 348.19L315.43 348.19ZM317.94 370.67L314.9 353.05L314.9 372.88L317.94 370.67ZM318.43 365.61L321.01 365.61L320.63 362.26L317.86 362.26L318.43 365.61ZM321.55 370.3L321.17 366.95L318.67 366.95L319.24 370.3L321.55 370.3ZM321.83 360.92L325.36 360.92L325.17 357.57L321.44 357.57L321.83 360.92ZM325.63 365.61L325.44 362.26L321.98 362.26L322.37 365.61L325.63 365.61ZM330.24 362.26L326.79 362.26L326.98 365.61L330.24 365.61L330.24 362.26ZM330.24 357.57L326.52 357.57L326.71 360.92L330.24 360.92L330.24 357.57ZM330.24 352.88L326.25 352.88L326.44 356.23L330.24 356.23L330.24 352.88ZM330.24 348.19L325.98 348.19L326.17 351.54L330.24 351.54L330.24 348.19ZM335.22 362.26L331.59 362.26L331.59 365.61L335.22 365.61L335.22 362.26ZM335.22 357.57L331.59 357.57L331.59 360.92L335.22 360.92L335.22 357.57ZM335.22 352.88L331.59 352.88L331.59 356.23L335.22 356.23L335.22 352.88ZM335.22 348.19L331.59 348.19L331.59 351.54L335.22 351.54L335.22 348.19ZM340.03 362.26L336.57 362.26L336.57 365.61L339.84 365.61L340.03 362.26ZM340.3 357.57L336.57 357.57L336.57 360.92L340.11 360.92L340.3 357.57ZM340.57 352.88L336.57 352.88L336.57 356.23L340.38 356.23L340.57 352.88ZM340.84 348.19L336.57 348.19L336.57 351.54L340.65 351.54L340.84 348.19ZM347.42 351.54L350.81 351.54L351.38 348.19L347.81 348.19L347.42 351.54ZM346.88 356.23L350 356.23L350.58 352.88L347.27 352.88L346.88 356.23ZM346.73 357.57L346.34 360.92L349.19 360.92L349.77 357.57L346.73 357.57ZM342 351.54L346.06 351.54L346.45 348.19L342.19 348.19L342 351.54ZM341.73 356.23L345.53 356.23L345.91 352.88L341.92 352.88L341.73 356.23ZM344.83 362.26L341.38 362.26L341.19 365.61L344.45 365.61L344.83 362.26ZM344.99 360.92L345.37 357.57L341.65 357.57L341.46 360.92L344.99 360.92ZM348.15 366.95L345.65 366.95L345.27 370.3L347.57 370.3L348.15 366.95ZM348.38 365.61L348.96 362.26L346.19 362.26L345.81 365.61L348.38 365.61ZM351.92 353.05L348.88 370.67L351.92 372.88L351.92 353.05ZM332.02 370.91L333.41 371.92L334.8 370.91C334.34 370.84 333.88 370.8 333.41 370.8C332.94 370.8 332.47 370.84 332.02 370.91Z" />
</svg>