<svg width="351" height="265" viewBox="0 0 351 265" fill="none" xmlns="http://www.w3.org/2000/svg">
<path opacity="0.1" d="M203.934 50.8669C181.433 50.0681 160 42.6212 139.536 34.475C119.073 26.3287 98.7985 17.2998 76.8377 12.9827C62.7107 10.2072 46.5554 9.81555 35.1743 17.5764C24.2188 25.0357 20.6808 37.9467 18.7798 49.9003C17.3479 58.9137 16.5061 68.3777 20.4261 76.8068C23.1502 82.6593 27.9866 87.5763 31.3319 93.1801C42.9646 112.683 34.7488 136.733 22.1314 155.777C16.2296 164.709 9.35562 173.232 4.79262 182.739C0.229624 192.247 -1.88259 203.144 2.10887 212.844C6.06927 222.46 15.4997 229.68 25.716 234.759C46.4684 245.078 70.9235 248.03 94.7698 249.702C147.556 253.404 200.626 251.8 253.552 250.197C273.14 249.6 292.811 249 312.082 245.895C322.78 244.17 333.826 241.435 341.591 234.827C351.453 226.435 353.898 212.241 347.288 201.726C336.214 184.094 305.565 179.718 297.819 160.784C293.554 150.365 297.934 138.76 304.13 129.081C317.425 108.354 339.709 90.1684 340.883 66.4725C341.69 50.1987 330.977 33.9 314.415 26.2013C297.051 18.1203 272.978 19.146 260.168 32.5044C246.98 46.2825 223.801 51.5755 203.934 50.8669Z" fill="#3BB3BD"/>
<path d="M200.185 252.9L144.836 252.191L145.001 250.771L147.675 227.339H196.284L199.859 250.771L200.132 252.546L200.185 252.9Z" fill="#D0D2D5"/>
<path opacity="0.1" d="M200.132 252.546H172.512L144.836 252.192L145.001 250.771H199.859L200.132 252.546Z" fill="black"/>
<path d="M209.056 251.125H135.61V252.9H209.056V251.125Z" fill="#D0D2D5"/>
<path d="M279.129 86.606C279.132 85.9988 279.016 85.397 278.786 84.8348C278.557 84.2726 278.219 83.7611 277.792 83.3296C277.366 82.8981 276.858 82.555 276.298 82.3199C275.739 82.0848 275.138 81.9623 274.532 81.9595H69.4234C68.1981 81.9661 67.0255 82.4592 66.1635 83.3305C65.3014 84.2018 64.8204 85.38 64.8262 86.606V211.01H279.129V86.606Z" fill="#D0D2D5"/>
<path d="M64.8262 209.767V224.337C64.8262 225.557 65.3105 226.727 66.1727 227.59C67.0348 228.453 68.2041 228.937 69.4233 228.937H274.532C275.135 228.938 275.733 228.819 276.291 228.588C276.849 228.357 277.356 228.018 277.783 227.591C278.21 227.164 278.549 226.656 278.78 226.098C279.011 225.54 279.129 224.941 279.129 224.337V209.767H64.8262Z" fill="#D0D2D5"/>
<path d="M271.323 89.77H73.6973V201.601H271.323V89.77Z" fill="white"/>
<path d="M173.043 223.411C173.769 223.411 174.485 223.247 175.138 222.93C175.79 222.612 176.362 222.151 176.811 221.581C176.948 221.406 177.072 221.222 177.184 221.03L174.568 220.595L177.41 220.617C177.683 220.023 177.832 219.38 177.847 218.727C177.863 218.074 177.745 217.425 177.501 216.819L173.689 218.799L177.205 216.213C176.872 215.651 176.428 215.162 175.899 214.778C175.371 214.394 174.769 214.122 174.132 213.979C173.494 213.836 172.834 213.825 172.192 213.947C171.55 214.069 170.94 214.321 170.399 214.687C169.858 215.054 169.398 215.527 169.047 216.079C168.695 216.63 168.46 217.247 168.356 217.892C168.252 218.538 168.281 219.197 168.441 219.831C168.601 220.465 168.89 221.059 169.288 221.577C169.735 222.147 170.305 222.608 170.955 222.925C171.606 223.243 172.319 223.409 173.043 223.411Z" fill="#094E54"/>
<path opacity="0.1" d="M177.833 228.937L199.915 251.126L196.526 228.937H177.833Z" fill="black"/>
<path opacity="0.1" d="M271.382 89.7827H73.542V96.3159H271.382V89.7827Z" fill="#094E54"/>
<path d="M80.1116 90.9204H74.9181C74.7843 90.9204 74.6758 91.0289 74.6758 91.1628V94.6532C74.6758 94.7871 74.7843 94.8956 74.9181 94.8956H80.1116C80.2454 94.8956 80.3539 94.7871 80.3539 94.6532V91.1628C80.3539 91.0289 80.2454 90.9204 80.1116 90.9204Z" fill="#094E54"/>
<path opacity="0.3" d="M201.66 90.9204H142.413C142.313 90.9204 142.232 91.0011 142.232 91.1007V94.7153C142.232 94.8149 142.313 94.8956 142.413 94.8956H201.66C201.76 94.8956 201.84 94.8149 201.84 94.7153V91.1007C201.84 91.0011 201.76 90.9204 201.66 90.9204Z" fill="#094E54"/>
<path d="M200.069 93.3168H199.923L199.871 93.2733C200.051 93.0557 200.151 92.7822 200.153 92.4994C200.152 92.2664 200.082 92.039 199.951 91.846C199.821 91.653 199.636 91.503 199.421 91.4149C199.205 91.3269 198.968 91.3048 198.74 91.3515C198.512 91.3982 198.303 91.5114 198.139 91.6771C197.975 91.8427 197.864 92.0531 197.82 92.2819C197.776 92.5106 197.801 92.7473 197.891 92.9621C197.981 93.1769 198.133 93.36 198.327 93.4884C198.521 93.6169 198.749 93.6847 198.982 93.6835C199.264 93.6793 199.535 93.5795 199.753 93.4007L199.805 93.4442V93.5903L200.716 94.5009L200.986 94.2274L200.069 93.3168ZM198.982 93.3168C198.82 93.3174 198.661 93.2697 198.526 93.1798C198.39 93.0899 198.285 92.9617 198.222 92.8117C198.16 92.6616 198.143 92.4964 198.175 92.3369C198.206 92.1775 198.284 92.031 198.399 91.916C198.514 91.8011 198.661 91.7229 198.82 91.6913C198.979 91.6598 199.144 91.6763 199.294 91.7388C199.444 91.8013 199.572 91.9069 199.662 92.0423C199.752 92.1777 199.8 92.3368 199.799 92.4994C199.8 92.6069 199.779 92.7136 199.739 92.8131C199.698 92.9127 199.638 93.0031 199.562 93.0792C199.486 93.1553 199.395 93.2155 199.296 93.2562C199.196 93.297 199.09 93.3176 198.982 93.3168Z" fill="#444053"/>
<path d="M268.543 94.8953C269.641 94.8953 270.531 94.0047 270.531 92.9062C270.531 91.8076 269.641 90.917 268.543 90.917C267.445 90.917 266.555 91.8076 266.555 92.9062C266.555 94.0047 267.445 94.8953 268.543 94.8953Z" fill="#094E54"/>
<path opacity="0.1" d="M217.772 121.23H127.192C124.055 121.23 121.511 123.605 121.511 126.532V176.423C121.511 179.351 124.055 181.725 127.192 181.725H217.772C220.909 181.725 223.453 179.351 223.453 176.423V126.532C223.453 123.605 220.909 121.23 217.772 121.23Z" fill="black"/>
<path d="M214.25 118.389H130.774C127.571 118.389 124.975 120.987 124.975 124.192V173.082C124.975 176.287 127.571 178.885 130.774 178.885H214.25C217.453 178.885 220.049 176.287 220.049 173.082V124.192C220.049 120.987 217.453 118.389 214.25 118.389Z" fill="#3C6A7A"/>
<path opacity="0.3" d="M148.585 152.417H136.452C135.628 152.417 134.961 153.084 134.961 153.908V156.056C134.961 156.88 135.628 157.548 136.452 157.548H148.585C149.408 157.548 150.076 156.88 150.076 156.056V153.908C150.076 153.084 149.408 152.417 148.585 152.417Z" fill="#011112"/>
<path opacity="0.3" d="M168.828 152.417H156.695C155.872 152.417 155.204 153.084 155.204 153.908V156.056C155.204 156.88 155.872 157.548 156.695 157.548H168.828C169.651 157.548 170.319 156.88 170.319 156.056V153.908C170.319 153.084 169.651 152.417 168.828 152.417Z" fill="#011112"/>
<path opacity="0.3" d="M175.305 162.95H165.06C164.237 162.95 163.569 163.618 163.569 164.442V165.237C163.569 166.061 164.237 166.729 165.06 166.729H175.305C176.128 166.729 176.795 166.061 176.795 165.237V164.442C176.795 163.618 176.128 162.95 175.305 162.95Z" fill="#011112"/>
<path opacity="0.3" d="M189.071 152.417H176.938C176.115 152.417 175.447 153.084 175.447 153.908V156.056C175.447 156.88 176.115 157.548 176.938 157.548H189.071C189.894 157.548 190.562 156.88 190.562 156.056V153.908C190.562 153.084 189.894 152.417 189.071 152.417Z" fill="#011112"/>
<path opacity="0.3" d="M209.314 152.417H197.181C196.358 152.417 195.69 153.084 195.69 153.908V156.056C195.69 156.88 196.358 157.548 197.181 157.548H209.314C210.138 157.548 210.805 156.88 210.805 156.056V153.908C210.805 153.084 210.138 152.417 209.314 152.417Z" fill="#011112"/>
<path d="M145.65 140.264H137.226C136.72 140.264 136.31 140.674 136.31 141.181V149.61C136.31 150.116 136.72 150.526 137.226 150.526H145.65C146.156 150.526 146.566 150.116 146.566 149.61V141.181C146.566 140.674 146.156 140.264 145.65 140.264Z" fill="#FFE298"/>
<path d="M143.124 147.083H139.888V143.844H143.124V147.083ZM140.018 146.949H142.988V143.978H140.018V146.949Z" fill="#454B69"/>
<path d="M141.571 140.264H141.438V143.909H141.571V140.264Z" fill="#454B69"/>
<path d="M141.571 147.015H141.438V150.527H141.571V147.015Z" fill="#454B69"/>
<path d="M139.953 145.327H136.31V145.461H139.953V145.327Z" fill="#454B69"/>
<path d="M146.57 145.327H143.06V145.461H146.57V145.327Z" fill="#454B69"/>
<path d="M139.907 143.959L138.847 142.906H136.31V142.769H138.903L140.003 143.863L139.907 143.959Z" fill="#454B69"/>
<path d="M143.103 143.959L143.013 143.86L144.246 142.769H146.566V142.906H144.299L143.103 143.959Z" fill="#454B69"/>
<path d="M138.906 148.329H136.31V148.193H138.844L139.903 146.971L140.006 147.061L138.906 148.329Z" fill="#454B69"/>
<path d="M146.565 148.33H144.242L143.009 147.065L143.105 146.968L144.301 148.193H146.565V148.33Z" fill="#454B69"/>
<path d="M162.364 123.048H136.166C135.463 123.048 134.893 123.619 134.893 124.323V126.905C134.893 127.609 135.463 128.18 136.166 128.18H162.364C163.067 128.18 163.637 127.609 163.637 126.905V124.323C163.637 123.619 163.067 123.048 162.364 123.048Z" fill="#063639"/>
<path d="M73.1327 239.706C72.2779 239.245 71.3568 238.919 70.4023 238.74C71.0952 238.643 71.7788 238.489 72.4462 238.28C74.2198 237.717 75.1144 236.965 74.4435 236.595C73.7726 236.225 71.7877 236.381 70.0141 236.943C69.4153 237.117 68.8427 237.371 68.3119 237.699C68.1286 237.31 67.6316 236.859 66.8519 236.431C65.2771 235.563 63.1587 235.128 62.1212 235.455C61.0837 235.781 61.5217 236.751 63.0997 237.63C63.87 238.045 64.6936 238.351 65.5473 238.541C64.9804 238.611 64.4182 238.714 63.8638 238.852C61.9348 239.315 60.8166 240.017 61.3788 240.406C61.9411 240.794 63.9477 240.757 65.8797 240.294C66.5823 240.141 67.2627 239.899 67.9049 239.576C68.0634 239.977 68.5697 240.455 69.3897 240.906C70.9646 241.77 73.083 242.208 74.1204 241.882C75.1579 241.556 74.7075 240.57 73.1327 239.706Z" fill="#094E54"/>
<path d="M49.9911 209.832C49.4545 209.543 48.8759 209.339 48.2765 209.229C48.7127 209.169 49.1429 209.073 49.5625 208.94C50.6714 208.588 51.2336 208.116 50.805 207.886C50.3763 207.656 49.1463 207.752 48.0342 208.104C47.6604 208.212 47.303 208.371 46.9719 208.576C46.7448 208.227 46.421 207.951 46.0401 207.783C45.0554 207.24 43.7291 206.966 43.0799 207.162C42.4307 207.358 42.7071 207.973 43.7011 208.517C44.1903 208.777 44.7129 208.968 45.2542 209.086C44.8979 209.128 44.5443 209.19 44.195 209.272C42.9867 209.561 42.2878 210.003 42.6419 210.251C42.996 210.5 44.2478 210.472 45.4561 210.183C45.8957 210.088 46.3215 209.937 46.7234 209.735C46.9389 210.103 47.265 210.394 47.6553 210.565C48.6431 211.109 49.9694 211.383 50.6186 211.187C51.2678 210.991 50.9789 210.376 49.9911 209.832Z" fill="#094E54"/>
<path d="M239.633 255.61C245.173 255.61 249.663 254.746 249.663 253.68C249.663 252.614 245.173 251.75 239.633 251.75C234.094 251.75 229.604 252.614 229.604 253.68C229.604 254.746 234.094 255.61 239.633 255.61Z" fill="#094E54"/>
<path d="M239.466 254.389C240.111 254.389 240.634 253.704 240.634 252.86C240.634 252.015 240.111 251.331 239.466 251.331C238.821 251.331 238.298 252.015 238.298 252.86C238.298 253.704 238.821 254.389 239.466 254.389Z" fill="#3F3D56"/>
<path d="M239.466 252.521C240.111 252.521 240.634 251.837 240.634 250.992C240.634 250.148 240.111 249.463 239.466 249.463C238.821 249.463 238.298 250.148 238.298 250.992C238.298 251.837 238.821 252.521 239.466 252.521Z" fill="#3F3D56"/>
<path d="M239.466 250.65C240.111 250.65 240.634 249.966 240.634 249.121C240.634 248.276 240.111 247.592 239.466 247.592C238.821 247.592 238.298 248.276 238.298 249.121C238.298 249.966 238.821 250.65 239.466 250.65Z" fill="#3F3D56"/>
<path d="M239.466 248.782C240.111 248.782 240.634 248.097 240.634 247.253C240.634 246.408 240.111 245.724 239.466 245.724C238.821 245.724 238.298 246.408 238.298 247.253C238.298 248.097 238.821 248.782 239.466 248.782Z" fill="#3F3D56"/>
<path d="M239.466 246.911C240.111 246.911 240.634 246.226 240.634 245.382C240.634 244.537 240.111 243.853 239.466 243.853C238.821 243.853 238.298 244.537 238.298 245.382C238.298 246.226 238.821 246.911 239.466 246.911Z" fill="#3F3D56"/>
<path d="M239.466 245.043C240.111 245.043 240.634 244.359 240.634 243.514C240.634 242.669 240.111 241.985 239.466 241.985C238.821 241.985 238.298 242.669 238.298 243.514C238.298 244.359 238.821 245.043 239.466 245.043Z" fill="#3F3D56"/>
<path d="M239.466 243.172C240.111 243.172 240.634 242.487 240.634 241.643C240.634 240.798 240.111 240.114 239.466 240.114C238.821 240.114 238.298 240.798 238.298 241.643C238.298 242.487 238.821 243.172 239.466 243.172Z" fill="#3F3D56"/>
<path d="M243.836 228.85C243.996 228.647 244.141 228.433 244.271 228.21L241.202 227.706L244.52 227.731C244.838 227.038 245.012 226.287 245.03 225.525C245.049 224.762 244.912 224.004 244.628 223.296L240.174 225.608L244.28 222.587C243.895 221.924 243.377 221.348 242.76 220.893C242.142 220.439 241.438 220.116 240.69 219.946C239.943 219.776 239.168 219.761 238.415 219.902C237.662 220.044 236.945 220.339 236.311 220.77C235.676 221.2 235.137 221.756 234.726 222.404C234.316 223.052 234.043 223.777 233.924 224.535C233.805 225.293 233.844 226.067 234.037 226.809C234.23 227.551 234.573 228.246 235.046 228.85C234.797 229.167 234.582 229.51 234.406 229.872L238.391 231.942L234.142 230.516C233.947 231.095 233.847 231.701 233.847 232.312C233.844 233.568 234.267 234.787 235.046 235.772C234.398 236.597 233.995 237.588 233.883 238.632C233.771 239.675 233.955 240.729 234.414 241.673C234.873 242.617 235.587 243.413 236.477 243.97C237.366 244.527 238.394 244.822 239.442 244.822C240.491 244.822 241.519 244.527 242.408 243.97C243.298 243.413 244.012 242.617 244.471 241.673C244.93 240.729 245.114 239.675 245.002 238.632C244.89 237.588 244.487 236.597 243.839 235.772C244.615 234.785 245.037 233.566 245.036 232.31C245.035 231.055 244.613 229.836 243.836 228.85Z" fill="#094E54"/>
<path opacity="0.1" d="M233.847 232.309C233.844 233.565 234.267 234.784 235.046 235.769C234.398 236.594 233.995 237.585 233.883 238.629C233.771 239.672 233.955 240.727 234.414 241.67C234.873 242.614 235.587 243.41 236.476 243.967C237.366 244.524 238.394 244.819 239.442 244.819C240.491 244.819 241.519 244.524 242.408 243.967C243.298 243.41 244.012 242.614 244.471 241.67C244.93 240.727 245.114 239.672 245.002 238.629C244.89 237.585 244.487 236.594 243.839 235.769C244.588 234.818 233.847 231.682 233.847 232.309Z" fill="black"/>
</svg>
