<svg width="313" height="189" viewBox="0 0 313 189" fill="none" xmlns="http://www.w3.org/2000/svg">
<path d="M236.498 96.0422C236.498 97.0654 235.669 97.8922 234.648 97.8922C233.627 97.8922 232.798 97.0654 232.798 96.0422C232.798 95.0211 233.627 94.1943 234.648 94.1943C235.669 94.1943 236.498 95.0211 236.498 96.0422Z" fill="#33535F"/>
<path d="M244.052 96.0422C244.052 97.0654 243.223 97.8922 242.202 97.8922C241.181 97.8922 240.352 97.0654 240.352 96.0422C240.352 95.0211 241.181 94.1943 242.202 94.1943C243.223 94.1943 244.052 95.0211 244.052 96.0422Z" fill="#EBEBEB"/>
<path d="M251.605 96.0422C251.605 97.0654 250.777 97.8922 249.755 97.8922C248.734 97.8922 247.906 97.0654 247.906 96.0422C247.906 95.0211 248.734 94.1943 249.755 94.1943C250.777 94.1943 251.605 95.0211 251.605 96.0422Z" fill="#65B67C"/>
<path d="M265.264 64.447C267.876 59.7803 274.129 58.8404 277.996 62.5339C280.63 65.0477 281.237 69.1267 279.458 72.3033C276.843 76.9697 270.607 77.9078 266.738 74.2141C264.102 71.702 263.486 67.6238 265.264 64.447ZM261.141 78.665C261.96 78.3081 262.893 78.4704 263.583 79.0357C263.771 79.1891 263.963 79.3389 264.159 79.4831C264.359 79.632 264.559 79.7728 264.761 79.9055C265.503 80.3976 265.93 81.2412 265.83 82.122L265.487 85.143L275.325 86.2593L275.671 83.2181C275.769 82.3371 276.377 81.6125 277.21 81.3032C277.66 81.1368 278.101 80.9465 278.533 80.732C279.336 80.3315 280.29 80.383 281.011 80.9155L283.45 82.7167L289.334 74.7507L286.895 72.9495C286.174 72.417 285.845 71.5214 285.989 70.6367C286.069 70.1602 286.122 69.682 286.15 69.2022C286.2 68.3161 286.714 67.5242 287.528 67.1688L290.332 65.9459L286.375 56.8693L283.574 58.0885C282.775 58.4378 281.85 58.2996 281.176 57.7448C280.98 57.582 280.778 57.4224 280.57 57.2704C280.363 57.1162 280.153 56.9699 279.94 56.8294C279.205 56.3466 278.801 55.4981 278.9 54.6275L279.246 51.6047L269.409 50.4887L269.07 53.5018C268.971 54.3684 268.401 55.117 267.58 55.4198C267.088 55.6008 266.605 55.8099 266.134 56.0476C265.358 56.4416 264.422 56.3494 263.722 55.8301L261.284 54.0313L255.4 61.9952L257.838 63.7961C258.56 64.331 258.889 65.2286 258.742 66.113C258.663 66.5895 258.61 67.0698 258.582 67.5496C258.527 68.4371 258.013 69.231 257.199 69.5864L254.402 70.8021L258.359 79.8787" fill="#EBEBEB"/>
<path d="M293.023 37.3516C293.473 34.2469 296.358 32.0908 299.463 32.541C302.567 32.9912 304.717 35.8774 304.267 38.982C303.817 42.0867 300.937 44.2373 297.832 43.7871C294.727 43.3369 292.573 40.4563 293.023 37.3516ZM295.126 48.2334C295.511 47.7434 296.143 47.5331 296.756 47.6551C296.921 47.6873 297.089 47.7157 297.259 47.7404C297.431 47.7654 297.599 47.7857 297.771 47.8022C298.389 47.8588 298.934 48.2376 299.164 48.8169L299.953 50.7944L306.396 48.2258L305.608 46.2484C305.377 45.6691 305.503 45.0153 305.916 44.5479C306.142 44.2891 306.357 44.0184 306.555 43.7369C306.916 43.2289 307.52 42.9567 308.138 43.0462L310.238 43.3508L311.234 36.4832L309.134 36.1787C308.516 36.0891 308.014 35.6565 307.812 35.0669C307.702 34.7408 307.573 34.4201 307.43 34.1079C307.165 33.5421 307.232 32.8798 307.618 32.3877L308.935 30.7157L303.486 26.4248L302.161 28.104C301.776 28.592 301.149 28.7988 300.54 28.6794C300.373 28.647 300.205 28.6165 300.035 28.5918C299.865 28.5672 299.696 28.5489 299.529 28.5329C298.907 28.4737 298.36 28.0946 298.13 27.5133L297.342 25.5338L290.901 28.1006L291.688 30.0737C291.92 30.6533 291.794 31.3071 291.381 31.7765C291.153 32.035 290.938 32.3058 290.739 32.5913C290.38 33.0996 289.774 33.3715 289.157 33.282L287.057 32.9774L286.061 39.845L288.161 40.1495C288.779 40.2391 289.282 40.6719 289.482 41.2613C289.592 41.5894 289.721 41.9121 289.866 42.2247C290.129 42.7922 290.064 43.4548 289.676 43.9445L288.362 45.6107L293.808 49.9034" fill="#EBEBEB"/>
<path d="M78.1495 175.565H5.95212L0.361328 126.529H72.5587L78.1495 175.565Z" fill="#33535F"/>
<path d="M74.2167 172.273H9.13468L4.29492 129.816H69.3769L74.2167 172.273Z" fill="white"/>
<path d="M44.854 175.567H118.957V172.274H44.854V175.567Z" fill="#33535F"/>
<path d="M81.6592 175.567H118.957V172.274H81.6592V175.567Z" fill="#263238"/>
<path d="M51.2246 129.818L9.10132 171.943L7.84277 160.928L38.9462 129.818H51.2246Z" fill="#EBEBEB"/>
<path d="M73.1131 162.604L63.4418 172.273H51.1633L71.8566 151.58L73.1131 162.604Z" fill="#EBEBEB"/>
<path d="M12.3595 129.818L5.12335 137.054L4.6936 133.297L8.1725 129.818H12.3595Z" fill="#EBEBEB"/>
<path d="M71.0485 144.498L43.2726 172.274H39.0815L70.6208 140.737L71.0485 144.498Z" fill="#EBEBEB"/>
<path d="M17.8173 129.818L5.68005 141.957L5.57568 141.014L16.7696 129.818H17.8173Z" fill="#EBEBEB"/>
<path d="M57.246 129.818L14.7912 172.273H13.7434L56.1982 129.818H57.246Z" fill="#EBEBEB"/>
<path d="M70.3423 138.291L36.3576 172.274H35.3098L70.238 137.348L70.3423 138.291Z" fill="#EBEBEB"/>
<path d="M204.624 175.565H276.821L282.412 126.529H210.215L204.624 175.565Z" fill="#33535F"/>
<path d="M208.557 172.273H273.637L278.478 129.816H213.396L208.557 172.273Z" fill="white"/>
<path d="M163.816 175.567H237.917V172.274H163.816V175.567Z" fill="#33535F"/>
<path d="M163.816 175.567H201.112V172.274H163.816V175.567Z" fill="#263238"/>
<path d="M276.604 146.264L275.022 160.126L262.873 172.274H250.594L276.604 146.264Z" fill="#EBEBEB"/>
<path d="M253.529 129.818L211.078 172.273H208.557L209.815 161.257L241.252 129.818" fill="#EBEBEB"/>
<path d="M225.871 129.818L211.794 143.895L212.334 139.164L221.68 129.818H225.871Z" fill="#EBEBEB"/>
<path d="M272.177 129.818L229.723 172.273H225.531L267.986 129.818H272.177Z" fill="#EBEBEB"/>
<path d="M277.208 140.971L277.077 142.156L246.958 172.273H245.91L277.208 140.971Z" fill="#EBEBEB"/>
<path d="M276.573 129.818L234.123 172.273H233.075L275.532 129.818H276.573Z" fill="#EBEBEB"/>
<path d="M237.031 129.818L210.354 156.495L210.491 155.31L235.983 129.818H237.031Z" fill="#EBEBEB"/>
<path d="M73.032 101.717C81.9891 119.797 95.2478 137.838 98.8025 141.249C108.345 150.409 133.827 156.994 141.337 157.203C144.579 157.293 149.064 135.748 146.674 133.238C144.284 130.725 112.818 123.885 111.134 122.594C109.964 121.698 94.9552 107.43 85.0056 98.9622C72.6411 88.4395 70.6807 96.971 73.032 101.717Z" fill="#F7A9A0"/>
<path d="M139.725 130.249L131.602 155.893C131.602 155.893 104.974 148.859 97.8509 142.033C90.7274 135.206 75.9687 110.655 73.0853 102.568C70.2039 94.4822 72.0805 88.0893 85.11 98.5832C98.1395 109.079 109.235 119.815 111.55 121.542C113.862 123.271 139.725 130.249 139.725 130.249Z" fill="#455A64"/>
<path d="M131.477 131.276C131.586 131.99 132.253 132.483 132.969 132.375C133.683 132.266 134.176 131.597 134.068 130.883C133.957 130.169 133.29 129.676 132.576 129.784C131.86 129.892 131.369 130.562 131.477 131.276Z" fill="#263238"/>
<path d="M124.955 129.396C125.063 130.11 125.731 130.604 126.447 130.495C127.161 130.387 127.652 129.718 127.544 129.001C127.435 128.287 126.768 127.796 126.052 127.904C125.338 128.013 124.846 128.682 124.955 129.396Z" fill="#263238"/>
<path d="M111.958 149.538C106.128 147.274 100.57 144.639 97.8501 142.036C90.7265 135.205 75.9678 110.656 73.0865 102.566C71.2427 97.3951 71.3429 92.9217 75.0613 93.1058" fill="#263238"/>
<path d="M30.5683 172.266L97.7847 172.281C98.0548 169.823 84.2231 101.336 77.6398 92.749C76.2319 90.9134 71.5865 90.4039 67.6369 90.895C66.5421 91.0239 65.5046 91.2367 64.596 91.5151C64.5776 91.5253 64.5407 91.5355 64.4937 91.5437C63.5748 91.8404 62.7972 92.2108 62.259 92.6365C51.2718 101.409 30.0403 171.665 30.5683 172.266Z" fill="#455A64"/>
<path d="M72.1719 108.232L75.0307 102.667L78.7163 106.693L77.8159 110.698L74.1733 111.164" fill="#263238"/>
<path d="M74.1739 111.164L72.4324 152.094L80.1044 165.631L84.0867 150.396L77.8144 110.698" fill="#263238"/>
<path d="M74.0691 101.924C73.0111 101.881 65.9899 96.3883 63.833 92.1113C63.6856 91.8187 64.2279 88.7961 64.715 85.0962C65.0015 82.8472 65.2675 80.3383 65.3432 78.032C65.3575 77.5573 66.9415 78.4822 66.9415 78.4822L69.9026 79.3028L79.6967 82.0307C79.6967 82.0307 78.1128 86.8193 78.0044 90.8426C77.9982 91.1802 78.0207 91.4933 78.0719 91.7941C78.0739 91.8371 78.0862 91.8903 78.0862 91.9517C78.3195 93.7587 75.8004 101.991 74.0691 101.924Z" fill="#F7A9A0"/>
<path d="M78.0721 91.7939C78.0741 91.8369 78.0864 91.8901 78.0864 91.9515C77.6321 92.0006 77.1369 92.0108 76.5966 91.9801C66.8598 91.4378 66.0576 79.0059 66.0576 79.0059L69.9028 79.3026L79.6969 82.0305C79.6969 82.0305 78.113 86.8191 78.0046 90.8423C77.9984 91.18 78.0209 91.4931 78.0721 91.7939Z" fill="#263238"/>
<path d="M70.7091 88.0488C70.7044 88.0488 70.7044 88.0441 70.7091 88.0418" stroke="#F4A69D" stroke-width="0.0723844" stroke-linecap="round" stroke-linejoin="round"/>
<path d="M63.068 61.0806C61.6007 66.2437 64.5926 81.0209 68.3068 84.2583C73.6909 88.9487 82.3657 89.2433 86.3173 82.8033C90.1461 76.5597 85.9059 57.3705 81.7702 54.4441C75.678 50.1344 65.2372 53.4537 63.068 61.0806Z" fill="#F7A9A0"/>
<path d="M77.7034 69.6808C77.687 69.644 77.6338 69.7443 77.644 69.7832C77.8732 70.7736 77.9674 71.9462 77.1304 72.4558C77.1058 72.4701 77.1181 72.5213 77.1509 72.509C78.2191 72.1365 78.0779 70.5833 77.7034 69.6808Z" fill="#263238"/>
<path d="M76.6087 68.8154C74.9818 69.0119 75.4914 72.2493 76.9975 72.0692C78.4812 71.8912 77.9716 68.6538 76.6087 68.8154Z" fill="#263238"/>
<path d="M83.5355 68.9314C83.5376 68.8905 83.6215 68.9662 83.6276 69.0072C83.7524 70.016 84.0676 71.1498 85.0274 71.3401C85.056 71.3462 85.0622 71.3974 85.0274 71.3974C83.8957 71.4158 83.4946 69.9055 83.5355 68.9314Z" fill="#263238"/>
<path d="M84.2683 67.7425C85.8625 67.366 86.4969 70.5829 85.0193 70.9308C83.5664 71.2746 82.932 68.0577 84.2683 67.7425Z" fill="#263238"/>
<path d="M75.0964 67.5375C75.52 67.3574 75.8822 67.12 76.2833 66.899C76.7335 66.6494 77.1203 66.4959 77.3659 66.017C77.4989 65.7592 77.3618 65.356 77.1265 65.2046C76.5719 64.8506 75.9436 65.0204 75.387 65.2987C74.7833 65.6016 74.3945 65.9884 74.1182 66.6043C73.8522 67.1999 74.5377 67.7749 75.0964 67.5375Z" fill="#263238"/>
<path d="M85.2631 65.9166C84.8027 65.9145 84.3791 65.8347 83.9248 65.7856C83.4091 65.7304 82.9957 65.7365 82.5844 65.3906C82.3613 65.2044 82.3306 64.7808 82.4923 64.5496C82.8668 64.0093 83.5114 63.9213 84.1335 63.9643C84.8068 64.0093 85.3143 64.2181 85.8054 64.6785C86.2822 65.1246 85.8709 65.9207 85.2631 65.9166Z" fill="#263238"/>
<path d="M78.2399 79.1382C78.5182 79.3367 78.8088 79.6211 79.1771 79.5945C79.5312 79.57 79.9139 79.3469 80.2147 79.173C80.2454 79.1566 80.2822 79.1853 80.2679 79.218C80.0673 79.6437 79.5578 79.9711 79.0789 79.9629C78.6123 79.9547 78.3258 79.5966 78.1519 79.1996C78.1253 79.1443 78.199 79.1095 78.2399 79.1382Z" fill="#263238"/>
<path d="M82.0604 76.6733C82.0604 76.6733 81.5222 77.7047 80.6361 78.1856C80.3107 78.3636 79.9465 78.4721 79.5392 78.4291C78.7063 78.3452 78.5713 77.6126 78.6183 76.9598C78.6552 76.4236 78.825 75.9407 78.825 75.9407C78.825 75.9407 80.1675 76.8513 82.0604 76.6733Z" fill="white"/>
<path d="M78.8223 75.9695C79.5201 76.7512 80.4205 77.097 81.3394 77.1298C81.7527 77.1482 82.1722 77.095 82.5774 76.9927C82.6572 76.9784 82.737 76.9558 82.8087 76.9292C82.8803 76.9088 82.9437 76.8904 83.0235 76.8617C83.1381 76.8249 83.1873 76.7185 83.1893 76.6039L83.1873 76.5977C83.1811 76.5609 83.175 76.5302 83.1607 76.4954V76.4893L83.1443 76.4013C83.044 75.6257 82.7862 74.4633 82.7862 74.4633C83.089 74.5595 84.63 74.979 84.544 74.58C83.8196 71.2709 83.0133 67.5915 81.5931 64.4502C81.5522 64.3438 81.3885 64.397 81.413 64.5055C81.986 67.7122 83.1156 70.8002 83.7398 74.0131C83.2527 73.9108 82.4546 73.7061 82.0515 73.7757C81.9451 73.8269 82.5938 76.0145 82.6102 76.3665C82.6102 76.3665 82.6122 76.3828 82.6081 76.4054C81.3373 76.7758 80.2977 76.5363 78.9021 75.8631C78.8161 75.818 78.7486 75.8978 78.8223 75.9695Z" fill="#263238"/>
<path d="M64.8069 72.6059C68.3349 72.0779 68.0852 65.5703 68.0852 65.5703C68.0852 65.5703 74.0014 63.6917 74.2163 59.0014C74.2163 59.0014 80.5029 61.8336 84.786 59.5334C89.0691 57.2333 87.3727 52.2564 86.7117 51.2352C86.0507 50.2141 83.8406 52.6125 83.8406 52.6125C83.8406 52.6125 83.1325 49.7598 82.316 49.5776C81.4995 49.3955 80.9142 51.27 80.9142 51.27C80.9142 51.27 74.8016 50.167 69.5382 51.0899C64.2728 52.0108 62.433 57.7224 62.433 57.7224C62.433 57.7224 59.695 58.7353 59.0667 60.8493C58.4405 62.9632 62.5599 72.9415 64.8069 72.6059Z" fill="#263238"/>
<path d="M66.6653 65.8223C71.4436 65.7609 74.0978 62.1919 74.1224 57.6018C74.1244 57.5466 74.2063 57.5384 74.2124 57.5957C74.6872 61.799 71.462 67.0317 66.6509 66.0371C66.5343 66.0126 66.5404 65.8243 66.6653 65.8223Z" fill="#263238"/>
<path d="M62.5478 57.6174C62.601 57.5969 62.6398 57.6747 62.5928 57.7054C61.369 58.5055 59.9324 59.1809 59.1855 60.511C58.281 62.1175 58.7987 63.9776 59.4536 65.5595C60.4686 68.0091 62.2633 71.1196 64.7538 72.284C64.897 72.3516 64.7886 72.5603 64.6453 72.503C61.6821 71.2915 59.472 67.2376 58.6575 64.2969C57.7469 61.0063 59.5539 58.7941 62.5478 57.6174Z" fill="#263238"/>
<path d="M79.5408 59.5599C81.7858 60.5033 84.8595 60.1084 86.6746 58.3996C88.8868 56.3164 87.9495 53.5517 86.5375 51.3375C86.4679 51.229 86.6173 51.0796 86.7135 51.1819C88.4775 53.0524 89.0587 56.1997 87.3029 58.285C85.4898 60.4399 81.8615 60.9085 79.3853 59.873C79.1786 59.785 79.3342 59.474 79.5408 59.5599Z" fill="#263238"/>
<path d="M76.5616 67.4528C76.2547 67.465 75.9457 67.5142 75.6387 67.6062C73.6476 68.1936 72.5057 70.2911 73.093 72.2823C73.6823 74.2735 75.782 75.4174 77.7711 74.828C79.7622 74.2387 80.9041 72.1411 80.3148 70.1499C79.8175 68.4657 78.2418 67.3893 76.5616 67.4528ZM76.8686 75.5606C74.9307 75.6323 73.1094 74.3901 72.5364 72.4481C71.857 70.1479 73.1748 67.727 75.473 67.0476C77.7731 66.3682 80.194 67.6861 80.8734 69.9862C81.5508 72.2843 80.2329 74.7052 77.9348 75.3847C77.5808 75.489 77.2226 75.5463 76.8686 75.5606Z" fill="#455A64"/>
<path d="M85.969 65.9072C85.8953 65.9113 85.8216 65.9174 85.75 65.9277C85.0665 66.0361 84.4771 66.5109 84.0883 67.2681C83.6852 68.0559 83.548 69.0484 83.7056 70.0573C84.0269 72.1078 85.4594 73.5976 86.9103 73.3684C88.3551 73.1433 89.2719 71.2913 88.9526 69.2388C88.795 68.2299 88.3633 67.3274 87.7391 66.6992C87.2029 66.1589 86.5829 65.8847 85.969 65.9072ZM86.7159 73.9701C85.0542 74.0335 83.4826 72.3882 83.1326 70.1474C82.9566 69.0157 83.1122 67.9004 83.5706 67.0041C84.0453 66.075 84.7882 65.4897 85.6599 65.3547C86.5338 65.2155 87.4158 65.5491 88.1525 66.2878C88.8626 67.0041 89.3496 68.0191 89.5277 69.1487C89.896 71.5164 88.7623 73.6672 87.0003 73.9435C86.9062 73.9578 86.81 73.966 86.7159 73.9701Z" fill="#455A64"/>
<path d="M80.8054 70.5044L80.3674 70.1237C80.9343 69.475 82.3258 68.505 83.5496 69.4627L83.1894 69.9211C82.0946 69.0596 80.8586 70.4471 80.8054 70.5044Z" fill="#455A64"/>
<path d="M61.8442 74.5951L61.2937 74.4109C61.3797 74.1551 62.1675 71.8877 63.4179 71.4804C64.5864 71.1019 72.3955 70.623 72.727 70.6025L72.7618 71.1817C70.523 71.3188 64.5004 71.7383 63.598 72.033C62.7733 72.3031 62.0529 73.973 61.8442 74.5951Z" fill="#455A64"/>
<path d="M67.0521 73.2629C67.0521 73.2629 63.5138 68.6012 61.3876 69.8822C59.2593 71.1612 62.0506 78.0085 64.6414 78.8598C67.2301 79.7111 68.065 77.3291 68.065 77.3291" fill="#F7A9A0"/>
<path d="M62.2341 71.8238C62.1931 71.8217 62.187 71.879 62.2238 71.8934C64.0431 72.5482 65.0499 74.171 65.7764 75.8654C65.2177 75.2249 64.479 74.8893 63.6174 75.5585C63.5724 75.5933 63.6195 75.6649 63.6686 75.6526C64.3971 75.4664 64.9312 75.5728 65.449 76.1397C65.8153 76.5428 66.0752 77.0585 66.3473 77.5292C66.4374 77.6847 66.7218 77.5885 66.6543 77.4064C66.6482 77.3941 66.642 77.3798 66.6379 77.3655C66.5929 75.0817 64.6938 71.9568 62.2341 71.8238Z" fill="#263238"/>
<path d="M78.1209 92.1429L74.6215 100.73L64.017 89.8857L60.9985 93.3524C60.9985 93.3524 71.3575 110.567 71.423 109.789L74.9653 102.424L80.0424 107.565L79.6557 94.6887" fill="#455A64"/>
<path d="M80.2103 101.19C80.0752 99.0656 79.9995 96.923 79.7662 94.807C79.758 94.7313 79.6414 94.6986 79.6209 94.7866C79.1912 96.8371 79.7519 104.955 79.7376 106.901C79.7314 106.895 79.7232 106.887 79.7151 106.879C79.5043 106.658 75.0083 102.356 74.9653 102.424C74.1979 103.594 71.599 108.956 71.421 109.445C69.7838 106.711 63.5034 96.7695 61.5634 94.1829C61.5061 94.1072 61.3915 94.1686 61.4345 94.2565C62.8813 97.142 71.1918 110.53 71.3186 110.493C71.4066 110.56 74.6359 103.954 75.0226 102.706C75.7819 103.643 80.3188 108.495 80.3331 108.18C80.4436 106.048 80.3454 103.316 80.2103 101.19Z" fill="#263238"/>
<path d="M100.093 181.716L47.75 186.897L47.5842 146.319L99.9253 141.137L100.093 181.716Z" fill="#3BB3BD"/>
<path d="M64.6698 140.138L47.5393 141.835L47.5843 146.319L65.9161 144.503L64.6698 140.138Z" fill="#3BB3BD"/>
<path d="M100.058 181.721L49.5752 186.718L42.3555 146.029L96.1617 141.511L100.058 181.721Z" fill="#EBEBEB"/>
<path d="M100.059 181.72L48.2907 186.844L40.5532 147.737L94.9673 142.349L100.059 181.72Z" fill="white"/>
<path d="M99.9644 181.729L47.5088 186.922L39.8552 148.659L92.3088 143.465L99.9644 181.729Z" fill="#3BB3BD"/>
<path d="M55.2197 98.7536C37.33 114.986 24.4212 142.968 24.8162 150.507C25.338 160.467 43.3833 177.495 55.1338 182.425C58.1072 183.674 69.5998 159.346 65.2512 158.079C60.6632 156.743 50.0505 147.121 49.5348 146.685C48.4318 145.752 56.9817 124.467 60.5608 111.546C64.6005 96.9569 62.7505 91.9227 55.2197 98.7536Z" fill="#F7A9A0"/>
<path d="M48.4893 178.706C59.8673 186.923 75.3402 188.703 78.0087 188.431C80.2843 188.208 81.4549 188.071 81.4549 188.071C85.5457 187.749 87.015 185.811 87.015 185.811C87.015 185.811 91.8527 186.83 92.9537 184.008C94.1999 180.847 87.1603 180.034 83.5647 177.221C75.3238 170.77 65.4131 159.3 63.2214 157.205" fill="#F7A9A0"/>
<path d="M70.1786 176.529C72.6404 178.379 75.0122 180.26 77.7135 181.766C80.6767 183.417 83.8056 184.512 86.9632 185.705C87.0615 185.742 87.0205 185.883 86.9162 185.861C80.8588 184.608 74.3942 181.08 70.0108 176.736C69.9023 176.632 70.0537 176.437 70.1786 176.529Z" fill="#263238"/>
<path d="M65.5642 180.94C68.0609 182.606 72.4668 185.506 81.4833 187.974C81.5119 187.982 81.5078 188.035 81.4751 188.031C75.4075 187.207 70.1543 184.978 65.4046 181.196C65.2573 181.08 65.3985 180.828 65.5642 180.94Z" fill="#263238"/>
<path d="M74.126 168.822C73.3852 167.555 74.0442 167.158 76.4671 168.112C78.9228 169.072 87.6814 174.9 89.4557 171.662C91.2443 168.417 78.7141 160.374 74.5558 159.095C70.3995 157.806 63.2207 157.205 63.2207 157.205C65.3428 159.259 70.0148 164.735 74.126 168.822Z" fill="#F7A9A0"/>
<path d="M48.9024 180.536L63.1536 156.607C63.1536 156.607 49.8151 147.255 49.7516 146.318C49.6882 145.381 59.1242 119.602 61.9769 106.914C64.8275 94.2267 63.4155 88.1734 50.9283 102.32C38.4411 116.467 22.4239 140.263 23.2731 150.462C24.1224 160.661 48.9024 180.536 48.9024 180.536Z" fill="#455A64"/>
<path d="M59.6073 119.046C59.0895 119.955 58.535 120.843 58.0643 121.778C57.9129 122.081 57.7614 122.386 57.6079 122.691C57.7246 122.324 57.8433 121.96 57.9599 121.592C58.6925 119.294 59.4006 116.983 60.0166 114.648C60.0329 114.591 59.9429 114.554 59.9183 114.609C58.271 118.569 56.9122 122.654 55.5615 126.722C54.1986 130.821 52.9196 134.947 51.702 139.088C51.0226 141.403 50.3186 143.726 49.7866 146.079C49.7743 146.132 49.8459 146.147 49.8643 146.099C50.6501 144.084 51.3152 142.015 51.9987 139.962C52.6802 137.91 53.3657 135.861 54.0349 133.805C55.099 130.526 56.1509 127.244 57.1987 123.963C57.6734 123.372 57.9968 122.668 58.3406 121.989C58.8256 121.037 59.2164 120.045 59.6462 119.066C59.6584 119.042 59.6216 119.019 59.6073 119.046Z" fill="#263238"/>
<path d="M46.3714 174.528C46.1463 175.216 46.5228 175.957 47.2104 176.18C47.898 176.405 48.6367 176.028 48.8618 175.341C49.0849 174.653 48.7104 173.914 48.0228 173.689C47.3352 173.466 46.5944 173.841 46.3714 174.528Z" fill="#263238"/>
<path d="M41.3885 169.92C41.1633 170.608 41.5399 171.346 42.2275 171.572C42.9151 171.795 43.6538 171.42 43.8789 170.733C44.104 170.045 43.7275 169.304 43.0399 169.081C42.3523 168.856 41.6136 169.233 41.3885 169.92Z" fill="#263238"/>
<path d="M32.4287 165.201C34.0822 166.609 35.6293 168.115 37.1662 169.631C37.9295 170.397 38.6907 171.162 39.4377 171.94C40.1928 172.713 40.9254 173.505 41.6642 174.301C39.9165 173.01 38.3367 171.52 36.7978 170.002C35.2691 168.471 33.7855 166.895 32.4287 165.201Z" fill="#263238"/>
<path d="M214.917 57.196C216.038 53.5943 220.942 45.6625 228.857 48.0547C240.153 51.4702 239.719 73.8231 244.797 81.2823C253.995 94.7968 253.16 107.235 244.461 108.412C234.71 109.731 226.395 98.6174 228.843 76.4998C230.371 62.6702 227.046 56.1605 224.245 56.312C221.443 56.4634 219.605 59.8134 219.605 59.8134" fill="#263238"/>
<path d="M215.433 55.8535C216.157 54.202 217.088 52.6386 218.201 51.1938C219.321 49.7613 220.692 48.4741 222.343 47.5942C223.98 46.6938 225.935 46.307 227.813 46.5546C229.667 46.792 231.476 47.4612 233.024 48.5437C234.562 49.6345 235.786 51.1079 236.713 52.7C237.632 54.3044 238.314 56.0152 238.839 57.7567C239.846 61.2601 240.311 64.8618 240.515 68.4533C239.918 64.9048 239.191 61.3788 238.082 57.9981C237.481 56.3283 236.803 54.687 235.886 53.1952C234.984 51.7013 233.844 50.3548 232.434 49.3746C231.043 48.3759 229.385 47.7579 227.684 47.5082C225.996 47.2361 224.259 47.5512 222.704 48.2982C221.146 49.0512 219.761 50.1931 218.58 51.5151C217.97 52.1618 217.426 52.8698 216.896 53.5922C216.384 54.3248 215.897 55.08 215.433 55.8535Z" fill="#263238"/>
<path d="M229.498 68.8604C229.408 71.0684 229.074 73.2581 228.825 75.4498C228.542 77.6354 228.272 79.8209 228.063 82.0065C227.867 84.1921 227.713 86.3817 227.73 88.5652C227.736 90.7447 227.875 92.9261 228.303 95.0442C228.712 97.1602 229.416 99.225 230.564 101.02C231.726 102.788 233.276 104.384 234.995 105.655C236.728 106.924 238.741 107.824 240.88 108.174C241.946 108.356 243.041 108.407 244.128 108.307C244.67 108.258 245.212 108.172 245.744 108.045C246.274 107.918 246.81 107.769 247.291 107.495C246.362 108.106 245.253 108.387 244.162 108.575C243.059 108.753 241.932 108.78 240.812 108.669C239.695 108.546 238.592 108.272 237.534 107.879C236.478 107.476 235.475 106.936 234.538 106.306C233.601 105.675 232.731 104.945 231.935 104.147L231.35 103.539L230.791 102.904C230.423 102.479 230.069 102.02 229.758 101.544C228.495 99.6302 227.748 97.4426 227.304 95.2427C226.463 90.804 226.721 86.3019 227.275 81.9185C227.554 79.7207 227.934 77.5433 228.333 75.372C228.751 73.2049 229.181 71.0439 229.498 68.8604Z" fill="#263238"/>
<path d="M214.252 57.1951C214.221 56.1596 214.968 54.8274 215.64 54.6433C216.311 54.457 221.277 56.5914 221.705 57.8664C222.131 59.1413 219.921 60.2668 219.921 60.2668" fill="#455A64"/>
<path d="M218.086 102.941C215.135 109.364 193.173 139.557 182.269 140.382C170.858 141.245 143.488 122.597 140.864 121.045C133.671 116.789 153.726 97.1535 157.197 100.641C162.992 106.469 176.846 117.452 180.233 116.709C187.355 115.15 202.187 102.691 212.71 96.208C219.058 92.2973 221.352 95.8356 218.086 102.941Z" fill="#AD6359"/>
<path d="M142.589 122.046C141.347 121.224 131.366 115.676 127.621 110.329C125.636 107.496 121.063 99.0959 122.634 97.6736C124.071 96.3762 125.89 98.3694 125.89 98.3694C125.89 98.3694 123.905 94.5938 125.921 92.8134C127.937 91.033 130.832 94.5549 130.832 94.5549C130.832 94.5549 129.076 90.5296 131.215 88.8966C133.353 87.2635 135.672 91.295 135.672 91.295C135.672 91.295 133.894 87.6892 136.222 87.0834C139.022 86.357 141.545 93.3741 144.259 96.0733C144.877 96.6872 157.638 107.607 157.638 107.607" fill="#AD6359"/>
<path d="M135.825 91.2912C137.694 96.4482 139.405 98.38 143.669 101.691C143.751 101.755 143.675 101.894 143.581 101.834C139.11 98.9734 136.617 96.8575 135.572 91.369C135.521 91.1009 135.737 91.0457 135.825 91.2912Z" fill="#263238"/>
<path d="M130.99 94.5312C133.398 99.7189 135.234 101.831 139.446 105.627C139.505 105.68 139.421 105.787 139.356 105.737C134.913 102.359 132.473 100.194 130.746 94.695C130.669 94.4453 130.879 94.2959 130.99 94.5312Z" fill="#263238"/>
<path d="M126.099 98.5483C128.792 103.4 130.705 105.803 135.267 108.965C135.375 109.038 135.277 109.202 135.161 109.139C130.196 106.368 127.787 103.388 125.96 98.6466C125.835 98.3232 125.929 98.2434 126.099 98.5483Z" fill="#263238"/>
<path d="M161.958 106.03C161.958 106.03 159.126 99.7699 157.276 97.2937C155.424 94.8176 145.131 88.1279 143.559 90.2705C141.531 93.0331 146.715 98.0673 149.574 100.2C149.574 100.2 144.877 106.591 147.814 111.007C150.75 115.423 161.958 106.03 161.958 106.03Z" fill="#AD6359"/>
<path d="M143.252 91.2123C143.219 95.0677 147.154 97.6257 149.776 99.9013C149.974 100.075 149.905 100.296 149.743 100.423C147.953 103.233 146.246 107.719 147.601 110.964C147.641 111.058 147.51 111.128 147.457 111.038C145.532 107.755 146.85 103.21 149.008 100.257C146.285 97.9654 142.452 95.2273 143.215 91.2102C143.219 91.1877 143.252 91.1877 143.252 91.2123Z" fill="#263238"/>
<path d="M217.787 104.766C214.367 111.582 194.429 140.658 183.659 141.12C172.89 141.583 150.327 132.388 150.327 132.388L167.044 106.935C167.044 106.935 178.614 115.284 180.429 115.35C182.242 115.417 206.544 99.3632 212.222 95.8352C217.899 92.3093 223.347 93.6804 217.787 104.766Z" fill="#E63946"/>
<path d="M165.587 132.577C165.489 131.787 165.548 131.018 165.646 130.253C165.761 129.491 165.912 128.734 166.223 128.001C166.323 128.791 166.264 129.561 166.166 130.324C166.049 131.087 165.898 131.843 165.587 132.577Z" fill="white"/>
<path d="M198.861 127.48C198.763 126.688 198.825 125.92 198.921 125.155C199.035 124.394 199.187 123.637 199.5 122.904C199.598 123.694 199.539 124.463 199.441 125.227C199.326 125.99 199.172 126.747 198.861 127.48Z" fill="white"/>
<path d="M200.705 108.114C199.913 108.211 199.144 108.151 198.38 108.055C197.619 107.94 196.862 107.789 196.127 107.476C196.919 107.378 197.689 107.437 198.452 107.535C199.213 107.65 199.97 107.803 200.705 108.114Z" fill="white"/>
<path d="M173.889 116.898C173.097 116.996 172.33 116.937 171.564 116.839C170.803 116.726 170.046 116.573 169.313 116.262C170.103 116.161 170.873 116.223 171.636 116.321C172.399 116.436 173.154 116.589 173.889 116.898Z" fill="white"/>
<path d="M177.801 140.549C177.77 140.592 177.739 140.633 177.702 140.67C177.659 140.664 177.612 140.66 177.566 140.647C177.642 140.617 177.723 140.58 177.801 140.549Z" fill="white"/>
<path d="M158.893 123.44C159.384 122.812 159.969 122.311 160.579 121.838C161.197 121.38 161.84 120.952 162.58 120.653C162.091 121.285 161.504 121.787 160.894 122.255C160.274 122.712 159.632 123.142 158.893 123.44Z" fill="white"/>
<path d="M186.777 117.654C187.266 117.024 187.854 116.525 188.464 116.052C189.082 115.594 189.724 115.166 190.465 114.867C189.976 115.5 189.389 116.001 188.779 116.47C188.159 116.926 187.516 117.356 186.777 117.654Z" fill="white"/>
<path d="M177.523 125.637C178.151 126.128 178.653 126.715 179.126 127.323C179.582 127.943 180.01 128.586 180.308 129.324C179.678 128.835 179.177 128.25 178.706 127.64C178.25 127.02 177.822 126.378 177.523 125.637Z" fill="white"/>
<path d="M203.997 113.697C204.625 114.188 205.129 114.773 205.599 115.383C206.058 116.001 206.483 116.643 206.782 117.384C206.154 116.895 205.653 116.308 205.182 115.698C204.724 115.078 204.298 114.435 203.997 113.697Z" fill="white"/>
<path d="M170.658 111.072C168.552 114.876 166.526 118.722 164.253 122.432C162.012 126.093 159.705 129.768 157.088 133.173C157.039 133.239 156.928 133.169 156.967 133.098C158.979 129.299 161.277 125.634 163.514 121.965C165.769 118.265 168.174 114.664 170.423 110.962C170.508 110.82 170.742 110.923 170.658 111.072Z" fill="#263238"/>
<path d="M217.788 104.769C214.369 111.586 194.428 140.661 183.658 141.122C181.043 141.232 177.732 140.776 174.222 140.017C182.594 131.064 206.007 105.813 216.845 94.124C220.135 93.9255 221.734 96.901 217.788 104.769Z" fill="#263238"/>
<path d="M197.916 172.266H261.136C261.136 172.266 236.554 110.035 223.465 97.5149C219.905 94.1097 211.115 94.3614 206.81 100.104C203.278 104.808 193.477 123.545 193.029 130.284C192.601 137.039 197.871 143.676 197.871 143.676" fill="#E63946"/>
<path d="M205.995 148.948C205.897 148.156 205.958 147.387 206.055 146.624C206.169 145.86 206.321 145.105 206.634 144.371C206.732 145.161 206.673 145.932 206.574 146.695C206.46 147.457 206.306 148.214 205.995 148.948Z" fill="white"/>
<path d="M249.436 160.663C249.338 159.873 249.399 159.101 249.496 158.338C249.61 157.577 249.762 156.82 250.075 156.087C250.173 156.877 250.114 157.646 250.015 158.412C249.901 159.173 249.747 159.928 249.436 160.663Z" fill="white"/>
<path d="M222.164 170.898C222.064 170.106 222.125 169.337 222.221 168.574C222.336 167.812 222.487 167.055 222.8 166.321C222.899 167.113 222.839 167.882 222.741 168.645C222.626 169.409 222.473 170.164 222.164 170.898Z" fill="white"/>
<path d="M215.877 123.923C215.781 123.131 215.84 122.362 215.936 121.598C216.051 120.835 216.202 120.08 216.515 119.345C216.616 120.137 216.554 120.905 216.456 121.67C216.341 122.431 216.188 123.188 215.877 123.923Z" fill="white"/>
<path d="M232.68 142.837C232.582 142.045 232.641 141.275 232.737 140.512C232.852 139.749 233.005 138.993 233.317 138.259C233.417 139.051 233.355 139.82 233.257 140.584C233.143 141.345 232.989 142.102 232.68 142.837Z" fill="white"/>
<path d="M198.861 127.48C198.763 126.688 198.825 125.92 198.921 125.155C199.035 124.394 199.187 123.637 199.5 122.904C199.598 123.694 199.539 124.463 199.441 125.227C199.326 125.99 199.172 126.747 198.861 127.48Z" fill="white"/>
<path d="M221.093 146.082C220.303 146.18 219.534 146.121 218.77 146.023C218.007 145.908 217.252 145.756 216.517 145.445C217.309 145.345 218.077 145.405 218.842 145.503C219.603 145.619 220.36 145.771 221.093 146.082Z" fill="white"/>
<path d="M240.162 128C239.37 128.098 238.6 128.038 237.837 127.942C237.076 127.828 236.318 127.674 235.584 127.363C236.376 127.265 237.145 127.324 237.908 127.422C238.67 127.537 239.427 127.688 240.162 128Z" fill="white"/>
<path d="M206.14 167.344C205.348 167.44 204.578 167.38 203.813 167.284C203.052 167.17 202.297 167.018 201.562 166.705C202.352 166.607 203.121 166.666 203.887 166.764C204.648 166.879 205.405 167.033 206.14 167.344Z" fill="white"/>
<path d="M241.608 151.682C240.816 151.781 240.047 151.721 239.284 151.623C238.52 151.51 237.765 151.357 237.031 151.046C237.822 150.946 238.592 151.007 239.355 151.105C240.117 151.22 240.874 151.371 241.608 151.682Z" fill="white"/>
<path d="M211.682 160.273C212.171 159.645 212.756 159.144 213.366 158.671C213.986 158.215 214.629 157.787 215.368 157.488C214.879 158.118 214.291 158.62 213.681 159.09C213.061 159.547 212.421 159.974 211.682 160.273Z" fill="white"/>
<path d="M235.584 164.841C236.075 164.213 236.66 163.712 237.27 163.239C237.888 162.781 238.533 162.355 239.271 162.056C238.782 162.686 238.195 163.188 237.585 163.658C236.965 164.115 236.322 164.543 235.584 164.841Z" fill="white"/>
<path d="M241.915 142.477C242.404 141.849 242.991 141.348 243.599 140.875C244.219 140.417 244.862 139.991 245.601 139.692C245.112 140.322 244.524 140.824 243.916 141.292C243.296 141.751 242.654 142.179 241.915 142.477Z" fill="white"/>
<path d="M204.169 134.44C204.661 133.812 205.246 133.311 205.856 132.838C206.474 132.38 207.116 131.954 207.857 131.655C207.368 132.286 206.781 132.787 206.171 133.256C205.551 133.714 204.908 134.142 204.169 134.44Z" fill="white"/>
<path d="M228.614 119.047C229.103 118.418 229.69 117.917 230.3 117.446C230.918 116.988 231.561 116.56 232.301 116.261C231.81 116.892 231.225 117.393 230.615 117.864C229.995 118.32 229.353 118.748 228.614 119.047Z" fill="white"/>
<path d="M199.547 152.849C199.066 153.467 198.489 153.964 197.887 154.431V153.792C198.401 153.426 198.945 153.094 199.547 152.849Z" fill="white"/>
<path d="M216.161 109.19C216.652 108.56 217.238 108.058 217.847 107.587C218.465 107.129 219.108 106.701 219.849 106.403C219.36 107.033 218.772 107.534 218.163 108.005C217.542 108.461 216.9 108.889 216.161 109.19Z" fill="white"/>
<path d="M195.315 137.631C195.943 138.122 196.444 138.708 196.915 139.318C197.373 139.936 197.801 140.58 198.1 141.319C197.47 140.83 196.968 140.243 196.498 139.633C196.041 139.013 195.613 138.372 195.315 137.631Z" fill="white"/>
<path d="M203.997 113.697C204.625 114.188 205.129 114.773 205.599 115.383C206.058 116.001 206.483 116.643 206.782 117.384C206.154 116.895 205.653 116.308 205.182 115.698C204.724 115.078 204.298 114.435 203.997 113.697Z" fill="white"/>
<path d="M225.921 152.399C226.551 152.888 227.053 153.476 227.523 154.085C227.982 154.703 228.409 155.346 228.708 156.087C228.078 155.596 227.576 155.01 227.106 154.401C226.649 153.78 226.222 153.138 225.921 152.399Z" fill="white"/>
<path d="M248.681 167.598C249.309 168.089 249.81 168.676 250.283 169.284C250.741 169.904 251.167 170.547 251.466 171.286C250.838 170.796 250.334 170.211 249.863 169.599C249.407 168.981 248.979 168.339 248.681 167.598Z" fill="white"/>
<path d="M225.499 102.398C226.128 102.887 226.629 103.474 227.102 104.084C227.558 104.702 227.986 105.345 228.284 106.085C227.654 105.596 227.153 105.009 226.682 104.399C226.226 103.779 225.798 103.136 225.499 102.398Z" fill="white"/>
<path d="M221.421 131.893C222.049 132.384 222.55 132.971 223.021 133.579C223.479 134.197 223.907 134.841 224.206 135.58C223.576 135.091 223.074 134.504 222.603 133.894C222.147 133.276 221.719 132.633 221.421 131.893Z" fill="white"/>
<path d="M219.261 98.1162C218.911 99.0493 213.507 104.702 209.134 103.924C207.709 103.67 208.759 95.8344 208.759 95.8344L208.704 95.2389L207.943 86.8978L218.259 82.0232L219.74 81.3909C219.74 81.3909 219.797 83.689 219.84 86.5478C219.845 86.6808 219.847 86.8139 219.849 86.9551C219.855 87.1167 219.863 87.2702 219.863 87.4216C219.873 87.8473 219.883 88.2832 219.885 88.7191C219.888 89.0506 219.892 89.3719 219.881 89.7198C219.879 90.0677 219.871 90.4053 219.869 90.7552C219.783 94.1953 219.405 97.7192 219.261 98.1162Z" fill="#AD6359"/>
<path d="M219.843 86.5475C216.681 92.699 211.186 94.6595 208.704 95.2386L207.943 86.8954L218.259 82.0208L219.742 81.3926C219.742 81.3926 219.8 83.6887 219.843 86.5475Z" fill="#263238"/>
<path d="M197.334 74.6066C196.166 89.265 204.814 91.6184 207.973 91.866C210.842 92.0911 220.641 92.4922 223.317 78.0343C225.99 63.5764 219.544 58.4011 213.01 57.5395C206.473 56.678 198.499 59.9502 197.334 74.6066Z" fill="#AD6359"/>
<path d="M199.805 71.4922C200.15 71.4553 200.461 71.3653 200.799 71.2916C201.182 71.2118 201.493 71.1872 201.775 70.8946C201.929 70.7391 201.919 70.4178 201.781 70.2561C201.46 69.8796 200.969 69.8632 200.507 69.941C200.003 70.0269 199.637 70.2213 199.303 70.604C198.98 70.9744 199.348 71.5413 199.805 71.4922Z" fill="#263238"/>
<path d="M209.56 71.7004C209.216 71.6574 208.905 71.5592 208.567 71.4814C208.189 71.3935 207.878 71.3628 207.599 71.066C207.452 70.9064 207.466 70.5872 207.606 70.4275C207.935 70.0571 208.426 70.049 208.889 70.1349C209.388 70.2311 209.75 70.4316 210.078 70.8225C210.395 71.199 210.014 71.7577 209.56 71.7004Z" fill="#263238"/>
<path d="M207.263 75.3974C207.273 75.3585 207.341 75.4465 207.337 75.4874C207.273 76.4881 207.368 77.6423 208.262 78.0045C208.288 78.0168 208.284 78.0659 208.252 78.0598C207.151 77.8694 207.042 76.3346 207.263 75.3974Z" fill="#263238"/>
<path d="M208.191 74.3812C209.806 74.3117 209.826 77.5429 208.33 77.6064C206.859 77.6698 206.84 74.4385 208.191 74.3812Z" fill="#263238"/>
<path d="M208.827 74.5477C209.11 74.7299 209.39 75.0512 209.73 75.0819C210.123 75.1187 210.419 74.7769 210.673 74.4516C210.7 74.4168 210.728 74.4454 210.731 74.4884C210.743 75.1064 210.507 75.7428 209.844 75.8411C209.241 75.9291 208.803 75.3827 208.643 74.7606C208.615 74.646 208.713 74.4741 208.827 74.5477Z" fill="#263238"/>
<path d="M201.707 75.1769C201.699 75.138 201.63 75.226 201.632 75.267C201.679 76.2677 201.562 77.4198 200.662 77.7656C200.633 77.7759 200.635 77.827 200.67 77.8209C201.773 77.651 201.912 76.1162 201.707 75.1769Z" fill="#263238"/>
<path d="M200.799 74.1432C199.187 74.0429 199.107 77.2742 200.599 77.3663C202.07 77.4583 202.15 74.2271 200.799 74.1432Z" fill="#263238"/>
<path d="M200.12 74.3389C199.86 74.5027 199.6 74.8076 199.295 74.8199C198.941 74.8342 198.689 74.4781 198.47 74.1384C198.448 74.1036 198.421 74.1302 198.419 74.1711C198.386 74.7892 198.575 75.4379 199.166 75.5709C199.704 75.6916 200.116 75.1718 200.277 74.562C200.308 74.4474 200.224 74.2714 200.12 74.3389Z" fill="#263238"/>
<path d="M207.337 83.3186C207.11 83.5642 206.887 83.8998 206.527 83.9489C206.179 83.996 205.764 83.8589 205.438 83.7525C205.406 83.7423 205.377 83.777 205.397 83.8057C205.678 84.1761 206.237 84.3869 206.695 84.2825C207.143 84.1802 207.348 83.777 207.436 83.3575C207.448 83.2982 207.37 83.2818 207.337 83.3186Z" fill="#263238"/>
<path d="M203.173 79.6767C203.173 79.6767 202.956 81.1706 202.952 81.8766C202.952 81.9421 203.124 81.9749 203.363 81.9892C203.373 81.9933 203.379 81.9974 203.39 81.9912C204.634 82.1918 205.89 81.7682 206.654 80.7573C206.703 80.6877 206.613 80.614 206.549 80.659C205.614 81.3364 204.587 81.5062 203.482 81.5185C203.435 81.3221 203.936 78.9728 203.823 78.9625C203.439 78.9278 202.677 79.1856 202.221 79.3166C202.577 76.1917 203.433 73.1487 203.742 70.032C203.752 69.9215 203.592 69.8867 203.557 69.9849C202.436 73.1119 201.947 76.6972 201.495 79.9162C201.433 80.3173 202.888 79.7954 203.173 79.6767Z" fill="#263238"/>
<path d="M203.513 81.8437C203.513 81.8437 204.194 82.7871 205.14 83.1371C205.488 83.266 205.864 83.3192 206.259 83.2189C207.074 83.0163 207.102 82.2714 206.961 81.635C206.847 81.1091 206.609 80.6548 206.609 80.6548C206.609 80.6548 205.414 81.7496 203.513 81.8437Z" fill="#263238"/>
<path d="M205.14 83.1359C205.488 83.2649 205.864 83.3181 206.259 83.2178C207.074 83.0152 207.102 82.2703 206.961 81.6318C206.091 81.7116 205.224 82.2908 205.14 83.1359Z" fill="#EB9481"/>
<path d="M222.665 79.495C219.438 77.9561 219.313 74.5714 219.313 74.5714C215.304 72.834 213.147 69.6989 212.924 69.3817C213.022 69.6825 213.718 71.8619 214.109 72.9629C204.839 71.1866 201.998 64.0712 201.998 64.0712C198.976 67.061 198.366 68.9806 197.926 69.9363C197.926 69.9363 197.885 64.2431 200.83 60.443C204.432 55.7935 216.534 54.5882 222.106 60.7008C228.104 67.2943 222.665 79.495 222.665 79.495Z" fill="#263238"/>
<path d="M207.063 71.3931C208.536 72.2322 210.178 72.8011 211.815 73.1633C211.829 73.1653 211.833 73.1449 211.819 73.1428C209.208 72.3897 206.867 71.0084 205.027 68.9927C204.247 68.1414 203.58 67.2021 203.036 66.185C202.469 65.1209 201.914 63.8541 201.82 62.6406C201.812 62.5485 201.669 62.5608 201.677 62.6529C201.777 63.934 201.884 65.1168 202.395 66.3139C202.882 67.4497 203.582 68.5077 204.444 69.3958C205.213 70.1857 206.103 70.8467 207.063 71.3931Z" fill="#263238"/>
<path d="M220.897 78.9758C220.897 78.9758 224.073 74.3632 226.164 75.4928C228.254 76.6224 225.89 83.2917 223.451 84.2187C221.014 85.1457 220.111 82.907 220.111 82.907" fill="#AD6359"/>
<path d="M225.437 77.3879C225.478 77.3838 225.485 77.4391 225.452 77.4534C223.743 78.1594 222.853 79.7556 222.231 81.4071C222.736 80.7706 223.428 80.4166 224.281 81.0182C224.326 81.0489 224.285 81.1206 224.236 81.1103C223.532 80.965 223.027 81.0899 222.558 81.6547C222.225 82.0558 221.997 82.5612 221.76 83.0237C221.682 83.1772 221.404 83.0974 221.461 82.9194C221.465 82.9071 221.472 82.8928 221.476 82.8805C221.416 80.6949 223.092 77.6253 225.437 77.3879Z" fill="#263238"/>
<path d="M221.409 83.8842C221.409 84.4777 221.89 84.9566 222.481 84.9566C223.074 84.9566 223.553 84.4777 223.553 83.8842C223.553 83.2928 223.074 82.814 222.481 82.814C221.89 82.814 221.409 83.2928 221.409 83.8842Z" fill="white"/>
<path d="M203.992 101.108C203.992 101.108 200.99 109.623 206.415 110.227C211.838 110.831 225.999 100.359 225.999 100.359C225.999 100.359 222.068 93.9949 215.789 94.6763C210.581 95.2391 203.992 101.108 203.992 101.108Z" fill="#AD6359"/>
<path d="M229.598 111.077C229.588 121.6 223.553 153.141 217.749 157.39C206.132 165.893 178.896 165.307 171.382 165.436C168.14 165.494 163.882 143.904 166.296 141.415C168.713 138.929 201.898 138.014 203.594 136.739C204.775 135.855 214.144 120.501 219.564 110.629C226.897 97.2867 229.604 105.781 229.598 111.077Z" fill="#AD6359"/>
<path d="M172.078 140.268C172.078 140.268 162.274 139.184 155.827 138.776C152.232 138.549 146.033 138.709 143.316 139.75C139.249 141.306 123.242 150.416 125.367 154.345C127.29 157.902 132.181 153.967 132.181 153.967C132.181 153.967 126.433 157.765 129.425 160.708C132.445 163.675 138.316 157.929 138.316 157.929C138.316 157.929 131.931 161.539 135.427 164.373C138.459 166.835 145.939 160.953 145.939 160.953C145.939 160.953 138.822 164.007 141.683 166.831C144.844 169.953 157.166 162.543 157.166 162.543C165.188 165.216 170.363 165.738 176.5 165.349C177.626 165.279 172.078 140.268 172.078 140.268Z" fill="#AD6359"/>
<path d="M136.53 159.226C137.008 158.797 137.5 158.377 137.982 157.947C138.926 157.102 139.855 156.286 140.895 155.557C141.899 154.853 142.931 154.198 143.985 153.57C145.098 152.907 146.285 152.357 147.378 151.669C147.466 151.612 147.543 151.741 147.451 151.792C146.348 152.414 145.327 153.241 144.304 153.983C143.291 154.72 142.286 155.471 141.283 156.222C140.301 156.959 139.278 157.62 138.277 158.326C137.778 158.678 137.295 159.052 136.812 159.425C136.358 159.775 135.918 160.196 135.41 160.462C135.359 160.489 135.316 160.421 135.347 160.378C135.664 159.941 136.126 159.589 136.53 159.226Z" fill="#263238"/>
<path d="M131 154.781C131.665 153.917 135.324 150.931 136.305 150.225C138.202 148.856 140.228 147.653 142.356 146.691C142.432 146.656 142.497 146.765 142.43 146.814C140.539 148.193 138.623 149.548 136.712 150.903C135.777 151.564 131.625 154.701 131.15 154.975C131.035 155.04 130.927 154.875 131 154.781Z" fill="#263238"/>
<path d="M141.615 163.54C142.291 162.746 145.745 159.979 146.682 159.346C147.562 158.753 151.489 156.748 152.711 156.357C152.789 156.332 152.854 156.439 152.785 156.479C150.859 157.625 148.919 158.735 147.051 159.971C146.14 160.572 142.647 163.183 141.728 163.683C141.644 163.73 141.556 163.609 141.615 163.54Z" fill="#263238"/>
<path d="M178.684 167.024L169.725 138.557C169.725 138.557 202.326 136.473 203.384 135.927C204.44 135.38 216.061 114.851 220.656 106.87C225.25 98.8889 232.371 102.175 229.715 120.19C227.045 138.313 224.112 152.394 220.052 156.583C215.124 161.665 197.101 166.903 178.684 167.024Z" fill="#E63946"/>
<path d="M205.995 148.948C205.897 148.156 205.958 147.387 206.055 146.624C206.169 145.86 206.321 145.105 206.634 144.371C206.732 145.161 206.673 145.932 206.574 146.695C206.46 147.457 206.306 148.214 205.995 148.948Z" fill="white"/>
<path d="M187.982 165.239C187.884 164.447 187.945 163.678 188.042 162.915C188.156 162.151 188.308 161.396 188.621 160.662C188.719 161.454 188.66 162.223 188.561 162.986C188.445 163.748 188.293 164.505 187.982 165.239Z" fill="white"/>
<path d="M215.877 123.923C215.781 123.131 215.84 122.362 215.936 121.598C216.051 120.835 216.202 120.08 216.515 119.345C216.616 120.137 216.554 120.905 216.456 121.67C216.341 122.431 216.188 123.188 215.877 123.923Z" fill="white"/>
<path d="M221.093 146.082C220.303 146.18 219.534 146.121 218.77 146.023C218.007 145.908 217.252 145.756 216.517 145.445C217.309 145.345 218.077 145.405 218.842 145.503C219.603 145.619 220.36 145.771 221.093 146.082Z" fill="white"/>
<path d="M189.795 146.977C189.003 147.076 188.234 147.016 187.471 146.918C186.709 146.803 185.952 146.652 185.218 146.341C186.009 146.241 186.779 146.3 187.542 146.398C188.304 146.515 189.061 146.666 189.795 146.977Z" fill="white"/>
<path d="M211.682 160.273C212.171 159.645 212.756 159.144 213.366 158.671C213.986 158.215 214.629 157.787 215.368 157.488C214.879 158.118 214.291 158.62 213.681 159.09C213.061 159.547 212.421 159.974 211.682 160.273Z" fill="white"/>
<path d="M174.114 143.333C174.605 142.702 175.19 142.201 175.8 141.73C176.418 141.272 177.061 140.844 177.801 140.545C177.312 141.176 176.725 141.677 176.115 142.148C175.495 142.606 174.853 143.032 174.114 143.333Z" fill="white"/>
<path d="M207.855 131.652C207.368 132.28 206.78 132.784 206.169 133.256C205.692 133.606 205.201 133.942 204.66 134.214C204.822 133.962 205 133.686 205.184 133.387C205.184 133.381 205.188 133.381 205.188 133.381C205.403 133.193 205.628 133.009 205.856 132.837C206.471 132.38 207.116 131.951 207.855 131.652Z" fill="white"/>
<path d="M230.026 117.659C230.012 117.88 229.985 118.101 229.959 118.326C229.539 118.603 229.095 118.854 228.612 119.049C229.032 118.515 229.519 118.075 230.026 117.659Z" fill="white"/>
<path d="M195.861 155.634C196.35 155.006 196.937 154.504 197.545 154.031C198.165 153.573 198.808 153.147 199.546 152.849C199.057 153.479 198.472 153.98 197.862 154.451C197.242 154.907 196.6 155.335 195.861 155.634Z" fill="white"/>
<path d="M195.315 137.631C195.943 138.122 196.444 138.708 196.915 139.318C197.373 139.936 197.801 140.58 198.1 141.319C197.47 140.83 196.968 140.243 196.498 139.633C196.041 139.013 195.613 138.372 195.315 137.631Z" fill="white"/>
<path d="M228.283 106.082C227.654 105.595 227.155 105.007 226.684 104.4C226.302 103.886 225.946 103.358 225.667 102.771C225.768 102.771 225.862 102.775 225.956 102.785C226.379 103.184 226.748 103.624 227.098 104.08C227.558 104.703 227.984 105.343 228.283 106.082Z" fill="white"/>
<path d="M221.421 131.893C222.049 132.384 222.55 132.971 223.021 133.579C223.479 134.197 223.907 134.841 224.206 135.58C223.576 135.091 223.074 134.504 222.603 133.894C222.147 133.276 221.719 132.633 221.421 131.893Z" fill="white"/>
<path d="M213.584 118.914C212.522 120.506 211.54 122.148 210.558 123.789C210.529 123.834 210.502 123.881 210.474 123.926C210.523 123.801 210.574 123.678 210.623 123.553C210.942 122.739 211.223 121.906 211.571 121.104C211.591 121.055 211.522 121.016 211.499 121.063C211.147 121.855 210.752 122.624 210.417 123.423C210.191 123.961 209.985 124.507 209.794 125.06C209.066 126.273 208.337 127.491 207.621 128.712C206.655 130.362 205.698 132.015 204.725 133.661C204.488 134.064 204.253 134.467 204.013 134.868C203.803 135.214 203.565 135.523 203.166 135.652C202.749 135.785 202.262 135.783 201.83 135.828C201.353 135.877 200.876 135.936 200.401 135.994C198.23 136.258 196.077 136.616 193.91 136.898C193.859 136.906 193.859 136.984 193.912 136.98C195.905 136.831 197.901 136.755 199.894 136.593C200.876 136.513 201.863 136.446 202.839 136.321C203.207 136.272 203.567 136.192 203.864 135.953C204.148 135.721 204.337 135.404 204.517 135.091C206.492 131.674 208.468 128.258 210.437 124.839C211.55 122.901 212.684 120.971 213.709 118.984C213.752 118.902 213.636 118.839 213.584 118.914Z" fill="#263238"/>
<path d="M229.772 126.512C229.719 127.155 229.477 127.82 229.307 128.438C229.152 128.999 229 129.559 228.829 130.116C228.636 130.744 228.419 131.368 228.202 131.988C228.642 129.216 228.992 126.432 229.25 123.629C229.258 123.545 229.113 123.529 229.101 123.612C228.577 127.523 227.856 131.422 227.036 135.279C226.215 139.145 225.217 142.986 224.089 146.774C223.536 148.638 222.951 150.5 222.296 152.332C221.736 153.899 221.066 155.489 220.015 156.799C218.869 158.223 217.307 159.122 215.67 159.875C213.935 160.673 212.152 161.371 210.335 161.966C206.212 163.315 201.947 164.174 197.731 165.189C197.688 165.2 197.699 165.275 197.744 165.269C201.615 164.696 205.463 163.988 209.236 162.944C211.139 162.417 213.047 161.821 214.872 161.06C216.554 160.358 218.287 159.597 219.646 158.348C220.927 157.17 221.795 155.608 222.452 154.014C223.16 152.299 223.715 150.517 224.265 148.749C225.466 144.881 226.477 140.982 227.296 137.019C227.535 135.868 227.752 134.716 227.951 133.564C228.436 132.484 228.788 131.325 229.092 130.181C229.252 129.58 229.406 128.974 229.522 128.362C229.641 127.756 229.684 127.114 229.854 126.522C229.87 126.467 229.778 126.451 229.772 126.512Z" fill="#263238"/>
<path d="M184.356 164.729C182.878 160.638 181.317 156.582 180.022 152.428C178.741 148.331 177.492 144.174 176.651 139.963C176.635 139.883 176.76 139.846 176.788 139.922C178.323 143.937 179.569 148.079 180.859 152.18C182.16 156.312 183.288 160.493 184.595 164.622C184.644 164.78 184.413 164.888 184.356 164.729Z" fill="#263238"/>
<path d="M178.861 137.891C178.088 137.832 177.294 137.877 176.52 137.897C175.739 137.916 174.959 137.949 174.179 137.981C172.62 138.049 171.062 138.164 169.507 138.299C169.391 138.307 169.274 138.425 169.323 138.55C169.536 139.084 169.765 139.725 170.121 140.179C170.144 140.208 170.201 140.202 170.197 140.157C170.162 139.666 169.97 139.146 169.79 138.673C171.277 138.575 172.767 138.483 174.255 138.37C175.033 138.311 175.814 138.26 176.592 138.198C177.351 138.139 178.127 138.114 178.878 137.994C178.941 137.983 178.917 137.895 178.861 137.891Z" fill="#263238"/>
<path d="M143.674 131.789C145.616 132.753 154.497 133.122 157.088 136.304C158.811 138.42 158.641 140.562 159.646 146.888C160.516 152.376 155.965 151.069 154.661 148.261C152.608 143.845 150.84 139.003 150.84 139.003C148.759 138.86 146.295 139.07 146.295 139.07" fill="#F7A9A0"/>
<path d="M150.077 152.55C153.15 150.601 162.987 163.013 158.072 166.301C153.159 169.592 146.596 154.758 150.077 152.55Z" fill="#F7A9A0"/>
<path d="M145.092 155.194C148.166 153.246 158.005 165.657 153.089 168.948C148.174 172.236 141.611 157.402 145.092 155.194Z" fill="#F7A9A0"/>
<path d="M141.566 155.681C144.629 154.338 151.841 166.989 146.915 169.293C141.991 171.6 138.093 157.203 141.566 155.681Z" fill="#F7A9A0"/>
<path d="M137.954 155.333C141.179 154.95 144.308 168.727 139.086 169.478C133.865 170.231 134.303 155.767 137.954 155.333Z" fill="#F7A9A0"/>
<path d="M149.375 156.847C149.96 157.451 150.427 158.157 150.904 158.844C151.415 159.583 151.917 160.33 152.355 161.116C152.77 161.865 153.183 162.636 153.507 163.43C153.853 164.277 154.098 165.176 154.466 166.007C154.509 166.103 154.372 166.16 154.333 166.062C154.016 165.251 153.513 164.47 153.083 163.713C152.651 162.955 152.256 162.174 151.833 161.41C151.419 160.667 151.026 159.912 150.601 159.176C150.165 158.421 149.668 157.7 149.277 156.921C149.246 156.859 149.324 156.796 149.375 156.847Z" fill="#263238"/>
<path d="M144.255 156.777C144.572 157.712 145.626 161.273 145.984 162.194C146.346 163.123 146.733 164.042 147.136 164.952C147.546 165.875 147.906 166.856 148.397 167.738C148.442 167.819 148.317 167.891 148.272 167.809C147.777 166.919 147.204 166.086 146.752 165.169C146.305 164.265 145.906 163.344 145.548 162.4C145.186 161.451 144.232 157.778 144.106 156.797C144.093 156.707 144.228 156.701 144.255 156.777Z" fill="#263238"/>
<path d="M140.397 157.665C140.641 158.995 140.802 160.339 141.054 161.672C141.179 162.326 141.306 162.981 141.427 163.64C141.484 163.957 141.535 164.277 141.594 164.594C141.656 164.938 141.668 165.365 141.799 165.683C141.834 165.771 141.67 165.816 141.656 165.701C141.607 165.316 141.396 164.907 141.283 164.535C141.191 164.226 141.101 163.917 141.023 163.603C140.86 162.955 140.733 162.304 140.626 161.643C140.422 160.35 140.223 158.999 140.219 157.689C140.217 157.589 140.377 157.562 140.397 157.665Z" fill="#263238"/>
<path d="M188.332 69.5641C189.624 67.5995 190.35 65.3873 190.35 63.0503C190.35 54.7951 181.287 48.1013 170.111 48.1013C158.938 48.1013 149.882 54.7951 149.882 63.0503C149.882 71.3035 158.938 77.9973 170.111 77.9973C175.53 77.9973 180.441 76.4277 184.072 73.8615L191.042 75.6337" fill="#C4C4C4"/>
<path d="M162.834 63.0483C162.834 64.2086 161.895 65.1479 160.736 65.1479C159.576 65.1479 158.637 64.2086 158.637 63.0483C158.637 61.89 159.576 60.9507 160.736 60.9507C161.895 60.9507 162.834 61.89 162.834 63.0483Z" fill="#263238"/>
<path d="M172.213 63.0483C172.213 64.2086 171.274 65.1479 170.115 65.1479C168.955 65.1479 168.016 64.2086 168.016 63.0483C168.016 61.89 168.955 60.9507 170.115 60.9507C171.274 60.9507 172.213 61.89 172.213 63.0483Z" fill="#263238"/>
<path d="M181.59 63.0483C181.59 64.2086 180.65 65.1479 179.492 65.1479C178.334 65.1479 177.393 64.2086 177.393 63.0483C177.393 61.89 178.334 60.9507 179.492 60.9507C180.65 60.9507 181.59 61.89 181.59 63.0483Z" fill="#263238"/>
<path d="M115.284 24.7321C114.117 34.5058 107.833 36.2882 106.777 38.8912C106.21 40.3012 105.457 43.8886 105.457 43.8886L95.2432 43.864C95.2432 43.864 94.5147 40.2746 93.9478 38.8626C92.9103 36.2514 86.6278 34.4403 85.5125 24.6625C84.7779 18.2368 89.6299 8.10708 100.439 8.13164C111.246 8.15824 116.045 18.3105 115.284 24.7321Z" fill="#FFC74F"/>
<path d="M97.5819 44.5831L94.5901 28.3285L95.1058 28.2344L98.0976 44.489L97.5819 44.5831Z" fill="white"/>
<path d="M103.12 44.5963L102.604 44.5001L105.674 28.2598L106.19 28.3559L103.12 44.5963Z" fill="white"/>
<path d="M98.0485 27.4802C97.8356 27.4802 97.6781 27.5743 97.5676 27.7647C97.2053 28.3888 97.4407 29.9216 98.0628 31.2538C98.1037 31.1944 98.1406 31.133 98.1794 31.0676C98.7361 30.1078 99.0737 28.5423 98.6644 27.8301C98.5314 27.5968 98.3288 27.4822 98.0505 27.4802H98.0485ZM102.491 27.4925C102.242 27.4925 102.041 27.6214 101.892 27.8793C101.458 28.6241 101.589 30.163 102.168 31.174C102.24 31.2968 102.325 31.4277 102.428 31.5505C103.068 30.1774 103.308 28.4522 102.911 27.7585C102.806 27.5784 102.671 27.4925 102.493 27.4925H102.491ZM100.381 33.6992H100.377C99.5771 33.6972 98.7688 33.0587 98.1058 31.9025C98.0751 31.8513 98.0464 31.7961 98.0157 31.7429C97.7354 32.0539 97.4345 32.2197 97.1419 32.2197H97.1399C95.6071 32.2176 95.0034 29.0621 94.9768 28.927L95.2347 28.8799C95.2408 28.9106 95.824 31.9557 97.1399 31.9577H97.1419C97.3772 31.9577 97.6371 31.792 97.8888 31.4912C97.2401 30.163 96.8841 28.4216 97.3425 27.6316C97.5 27.3615 97.7436 27.2183 98.0485 27.2183H98.0505C98.4209 27.2203 98.7136 27.3861 98.8936 27.7012C99.352 28.4993 99.0103 30.1549 98.4045 31.1985C98.337 31.3152 98.2674 31.4236 98.1958 31.5219C98.2408 31.6058 98.2859 31.6897 98.3329 31.7715C98.689 32.3936 99.4277 33.4353 100.377 33.4373H100.381C101.014 33.4373 101.65 32.94 102.174 32.0355C102.217 31.9618 102.26 31.8841 102.301 31.8063C102.172 31.6631 102.051 31.4953 101.941 31.3029C101.31 30.204 101.184 28.5771 101.664 27.7483C101.861 27.4086 102.147 27.2305 102.491 27.2305H102.493C102.765 27.2305 102.989 27.3676 103.136 27.6275C103.588 28.4134 103.334 30.2858 102.618 31.7572C102.878 32.0007 103.216 32.1829 103.641 32.1849H103.643C104.579 32.1849 105.407 29.9543 105.649 29.0948L105.901 29.1664C105.864 29.2995 104.967 32.4468 103.643 32.4468H103.641C103.218 32.4448 102.831 32.2934 102.495 31.9987C102.465 32.056 102.434 32.1112 102.401 32.1665C101.996 32.8664 101.317 33.6992 100.381 33.6992Z" fill="white"/>
<path d="M106.65 45.9154L94.0481 45.8847L94.0542 43.4229L106.654 43.4515L106.65 45.9154Z" fill="#455A64"/>
<path d="M106.641 48.777L94.0396 48.7463L94.0457 46.2844L106.647 46.3131L106.641 48.777Z" fill="#455A64"/>
<path d="M106.635 51.6371L94.0337 51.6064L94.0398 49.1445L106.642 49.1732L106.635 51.6371Z" fill="#455A64"/>
<path d="M100.904 0.113281C101.101 0.794736 101.137 1.47414 101.133 2.15355C101.117 2.83091 101.06 3.50828 100.841 4.18359C100.644 3.50214 100.607 2.82273 100.609 2.14537C100.63 1.46596 100.687 0.788597 100.904 0.113281Z" fill="#263238"/>
<path d="M89.481 2.90527C89.9926 3.39846 90.363 3.96736 90.7006 4.55673C91.024 5.15223 91.3145 5.7682 91.4619 6.46194C90.9503 5.9708 90.5799 5.39985 90.2443 4.81253C89.9209 4.21498 89.6303 3.59901 89.481 2.90527Z" fill="#263238"/>
<path d="M80.9858 11.0322C81.6734 11.2041 82.2792 11.5131 82.8665 11.8528C83.4456 12.2089 84.0043 12.5957 84.4791 13.1237C83.7894 12.9518 83.1837 12.6448 82.5984 12.303C82.0193 11.947 81.4606 11.5582 80.9858 11.0322Z" fill="#263238"/>
<path d="M77.6909 22.3213C78.3724 22.1249 79.0518 22.0901 79.7312 22.0921C80.4086 22.1085 81.088 22.1658 81.7633 22.3848C81.0818 22.5812 80.4024 22.6181 79.723 22.614C79.0436 22.5955 78.3662 22.5382 77.6909 22.3213Z" fill="#263238"/>
<path d="M80.4829 33.744C80.9761 33.2324 81.545 32.862 82.1344 32.5243C82.7319 32.201 83.3479 31.9104 84.0416 31.761C83.5484 32.2746 82.9795 32.645 82.3902 32.9806C81.7926 33.304 81.1766 33.5925 80.4829 33.744Z" fill="#263238"/>
<path d="M119.819 34.6118C119.129 34.442 118.524 34.133 117.936 33.7933C117.359 33.4372 116.801 33.0484 116.324 32.5225C117.013 32.6923 117.619 33.0013 118.204 33.3431C118.784 33.6991 119.342 34.088 119.819 34.6118Z" fill="#263238"/>
<path d="M123.112 23.3265C122.43 23.5209 121.751 23.5577 121.071 23.5557C120.394 23.5373 119.717 23.48 119.041 23.2631C119.723 23.0646 120.402 23.0298 121.079 23.0318C121.759 23.0523 122.436 23.1075 123.112 23.3265Z" fill="#263238"/>
<path d="M120.32 11.9026C119.827 12.4142 119.258 12.7846 118.668 13.1222C118.073 13.4456 117.457 13.7362 116.763 13.8835C117.254 13.3719 117.825 13.0015 118.413 12.6639C119.01 12.3426 119.626 12.052 120.32 11.9026Z" fill="#263238"/>
<path d="M112.192 3.40576C112.02 4.0954 111.711 4.70114 111.371 5.28846C111.015 5.86555 110.628 6.42422 110.1 6.90103C110.272 6.21139 110.579 5.60565 110.921 5.01833C111.277 4.44125 111.666 3.88258 112.192 3.40576Z" fill="#263238"/>
</svg>
