<svg width="67" height="67" viewBox="0 0 67 67" fill="none" xmlns="http://www.w3.org/2000/svg">
<g clip-path="url(#clip0)">
<path d="M66.1115 5.87632V10.0174H55.7588V5.87632C55.7588 4.50346 56.3042 3.18683 57.2749 2.21608C58.2457 1.24532 59.5623 0.699951 60.9352 0.699951C62.308 0.699951 63.6247 1.24532 64.5954 2.21608C65.5662 3.18683 66.1115 4.50346 66.1115 5.87632Z" fill="#D9D9D9"/>
<path d="M66.1115 7.94678H55.7588V10.0173H66.1115V7.94678Z" fill="#C8C8C8"/>
<path d="M50.5823 65.9215H6.06553C4.69267 65.9215 3.37604 65.3761 2.40528 64.4054C1.43453 63.4346 0.88916 62.118 0.88916 60.7451V56.604H45.406V60.7451C45.406 62.118 45.9513 63.4346 46.9221 64.4054C47.8929 65.3761 49.2095 65.9215 50.5823 65.9215Z" fill="#D9D9D9"/>
<path d="M50.5823 65.9215H6.06553C4.69267 65.9215 3.37604 65.3761 2.40528 64.4054C1.43453 63.4346 0.88916 62.118 0.88916 60.7451V58.6746C0.88916 60.0474 1.43453 61.3641 2.40528 62.3348C3.37604 63.3056 4.69267 63.8509 6.06553 63.8509H46.4412C46.9234 64.4938 47.5486 65.0156 48.2674 65.375C48.9862 65.7344 49.7787 65.9215 50.5823 65.9215Z" fill="#C8C8C8"/>
<path d="M60.9349 0.699951C59.562 0.699951 58.2454 1.24532 57.2746 2.21608C56.3039 3.18683 55.7585 4.50346 55.7585 5.87632V60.7459C55.7585 62.1187 55.2131 63.4354 54.2424 64.4061C53.2716 65.3769 51.955 65.9222 50.5821 65.9222C49.2093 65.9222 47.8926 65.3769 46.9219 64.4061C45.9511 63.4354 45.4058 62.1187 45.4058 60.7459V56.6048H11.2417V5.87632C11.2417 4.50346 11.7871 3.18683 12.7578 2.21608C13.7286 1.24532 15.0452 0.699951 16.4181 0.699951H60.9349Z" fill="#E7E7E7"/>
<path d="M45.4058 56.6041H11.2417V54.5336H43.3352C43.8844 54.5336 44.411 54.7517 44.7993 55.14C45.1876 55.5283 45.4058 56.055 45.4058 56.6041Z" fill="#F6F6F6"/>
<path d="M55.759 58.6746V60.7451C55.759 62.118 55.2136 63.4346 54.2429 64.4054C53.2721 65.3761 51.9555 65.9215 50.5826 65.9215C49.2098 65.9215 47.8931 65.3761 46.9224 64.4054C45.9516 63.4346 45.4062 62.118 45.4062 60.7451V58.6746C45.4063 60.0474 45.9516 61.3641 46.9224 62.3348C47.8931 63.3056 49.2098 63.8509 50.5826 63.8509C51.9555 63.8509 53.2721 63.3056 54.2429 62.3348C55.2136 61.3641 55.759 60.0474 55.759 58.6746Z" fill="#F6F6F6"/>
<path d="M33.5001 28.6523C40.0755 28.6523 45.4058 23.3219 45.4058 16.7466C45.4058 10.1713 40.0755 4.84094 33.5001 4.84094C26.9248 4.84094 21.5945 10.1713 21.5945 16.7466C21.5945 23.3219 26.9248 28.6523 33.5001 28.6523Z" fill="#3BB3BD"/>
<path d="M33.5004 28.6531C31.8497 28.6529 30.2172 28.3095 28.7064 27.6446C27.1956 26.9798 25.8396 26.008 24.7244 24.7911C23.6092 23.5742 22.7592 22.1387 22.2285 20.5757C21.6977 19.0128 21.4978 17.3565 21.6413 15.7122C21.9043 18.6759 23.2675 21.4338 25.4624 23.4427C27.6574 25.4515 30.5249 26.5656 33.5004 26.5656C36.4758 26.5656 39.3434 25.4515 41.5383 23.4427C43.7333 21.4338 45.0965 18.6759 45.3594 15.7122C45.503 17.3565 45.303 19.0128 44.7722 20.5757C44.2415 22.1387 43.3915 23.5742 42.2763 24.7911C41.1612 26.008 39.8051 26.9798 38.2943 27.6446C36.7835 28.3095 35.151 28.6529 33.5004 28.6531Z" fill="#3BB3BD"/>
<path d="M19.5238 32.7931H16.418V35.8989H19.5238V32.7931Z" fill="#3C6A7A"/>
<path d="M50.5821 33.3116H23.1473C23.01 33.3116 22.8783 33.2571 22.7813 33.16C22.6842 33.063 22.6296 32.9313 22.6296 32.794C22.6296 32.6567 22.6842 32.5251 22.7813 32.428C22.8783 32.3309 23.01 32.2764 23.1473 32.2764H50.5821C50.7193 32.2764 50.851 32.3309 50.9481 32.428C51.0452 32.5251 51.0997 32.6567 51.0997 32.794C51.0997 32.9313 51.0452 33.063 50.9481 33.16C50.851 33.2571 50.7193 33.3116 50.5821 33.3116Z" fill="#9EC4D2"/>
<path d="M41.7822 36.4174H23.1473C23.01 36.4174 22.8783 36.3628 22.7813 36.2657C22.6842 36.1687 22.6296 36.037 22.6296 35.8997C22.6296 35.7624 22.6842 35.6308 22.7813 35.5337C22.8783 35.4366 23.01 35.3821 23.1473 35.3821H41.7822C41.9195 35.3821 42.0512 35.4366 42.1482 35.5337C42.2453 35.6308 42.2999 35.7624 42.2999 35.8997C42.2999 36.037 42.2453 36.1687 42.1482 36.2657C42.0512 36.3628 41.9195 36.4174 41.7822 36.4174Z" fill="#9EC4D2"/>
<path d="M19.5238 41.0752H16.418V44.181H19.5238V41.0752Z" fill="#3C6A7A"/>
<path d="M50.5821 41.5936H23.1473C23.01 41.5936 22.8783 41.5391 22.7813 41.442C22.6842 41.3449 22.6296 41.2133 22.6296 41.076C22.6296 40.9387 22.6842 40.807 22.7813 40.71C22.8783 40.6129 23.01 40.5583 23.1473 40.5583H50.5821C50.7193 40.5583 50.851 40.6129 50.9481 40.71C51.0452 40.807 51.0997 40.9387 51.0997 41.076C51.0997 41.2133 51.0452 41.3449 50.9481 41.442C50.851 41.5391 50.7193 41.5936 50.5821 41.5936Z" fill="#9EC4D2"/>
<path d="M41.7822 44.6995H23.1473C23.01 44.6995 22.8783 44.6449 22.7813 44.5478C22.6842 44.4508 22.6296 44.3191 22.6296 44.1818C22.6296 44.0445 22.6842 43.9129 22.7813 43.8158C22.8783 43.7187 23.01 43.6642 23.1473 43.6642H41.7822C41.9195 43.6642 42.0512 43.7187 42.1482 43.8158C42.2453 43.9129 42.2999 44.0445 42.2999 44.1818C42.2999 44.3191 42.2453 44.4508 42.1482 44.5478C42.0512 44.6449 41.9195 44.6995 41.7822 44.6995Z" fill="#9EC4D2"/>
<path d="M19.5238 49.3572H16.418V52.463H19.5238V49.3572Z" fill="#3C6A7A"/>
<path d="M50.5821 49.8757H23.1473C23.01 49.8757 22.8783 49.8212 22.7813 49.7241C22.6842 49.627 22.6296 49.4954 22.6296 49.3581C22.6296 49.2208 22.6842 49.0891 22.7813 48.9921C22.8783 48.895 23.01 48.8405 23.1473 48.8405H50.5821C50.7193 48.8405 50.851 48.895 50.9481 48.9921C51.0452 49.0891 51.0997 49.2208 51.0997 49.3581C51.0997 49.4954 51.0452 49.627 50.9481 49.7241C50.851 49.8212 50.7193 49.8757 50.5821 49.8757Z" fill="#9EC4D2"/>
<path d="M41.7822 52.9816H23.1473C23.01 52.9816 22.8783 52.927 22.7813 52.83C22.6842 52.7329 22.6296 52.6012 22.6296 52.4639C22.6296 52.3266 22.6842 52.195 22.7813 52.0979C22.8783 52.0008 23.01 51.9463 23.1473 51.9463H41.7822C41.9195 51.9463 42.0512 52.0008 42.1482 52.0979C42.2453 52.195 42.2999 52.3266 42.2999 52.4639C42.2999 52.6012 42.2453 52.7329 42.1482 52.83C42.0512 52.927 41.9195 52.9816 41.7822 52.9816Z" fill="#9EC4D2"/>
<path d="M31.4299 21.4058C31.1245 21.4058 31.3885 21.5818 26.9161 17.1094C26.8172 17.0105 26.7617 16.8765 26.7617 16.7367C26.7617 16.5969 26.8172 16.4628 26.9161 16.364C27.0149 16.2651 27.149 16.2096 27.2888 16.2096C27.4286 16.2096 27.5626 16.2651 27.6615 16.364L31.4299 20.1427L39.3394 12.2332C39.3883 12.1843 39.4464 12.1455 39.5104 12.119C39.5743 12.0925 39.6429 12.0789 39.7121 12.0789C39.7813 12.0789 39.8498 12.0925 39.9138 12.119C39.9777 12.1455 40.0358 12.1843 40.0848 12.2332C40.1337 12.2822 40.1726 12.3403 40.199 12.4042C40.2255 12.4682 40.2392 12.5367 40.2392 12.6059C40.2392 12.6752 40.2255 12.7437 40.199 12.8076C40.1726 12.8716 40.1337 12.9297 40.0848 12.9786C31.021 22.0425 31.7405 21.4058 31.4299 21.4058Z" fill="white"/>
</g>
<defs>
<clipPath id="clip0">
<rect width="66.2576" height="66.2576" fill="white" transform="translate(0.371094 0.183594)"/>
</clipPath>
</defs>
</svg>
