<svg width="111" height="15" viewBox="0 0 111 15" fill="none" xmlns="http://www.w3.org/2000/svg">
<path d="M0.558594 0.445312H4.06862L8.41627 9.02095L12.724 0.445312H16.2141V14.4057H13.3822V4.97245L9.41343 12.9897H7.37922L3.39055 4.97245V14.4057H0.558594V0.445312Z" fill="#384047"/>
<path d="M23.861 3.57642C25.5894 3.57642 26.899 4.075 27.7898 5.07217C28.6939 6.06933 29.146 7.45872 29.146 9.24033C29.146 9.55942 29.1393 9.80539 29.126 9.97823H21.4279C21.6007 10.6563 21.9331 11.1881 22.4251 11.5737C22.917 11.946 23.5087 12.1321 24.2 12.1321C24.7053 12.1321 25.1905 12.039 25.6559 11.8529C26.1212 11.6535 26.54 11.3676 26.9123 10.9953L28.5277 12.6307C27.9826 13.2423 27.3178 13.7143 26.5334 14.0467C25.7623 14.3658 24.898 14.5253 23.9408 14.5253C22.8106 14.5253 21.8201 14.2993 20.9692 13.8472C20.1316 13.3952 19.4801 12.757 19.0148 11.9327C18.5627 11.1084 18.3367 10.1577 18.3367 9.08078C18.3367 7.99054 18.5694 7.03326 19.0347 6.20894C19.5 5.37132 20.1515 4.72648 20.9891 4.27443C21.8268 3.80909 22.784 3.57642 23.861 3.57642ZM26.2542 8.16339C26.2276 7.45872 26.0016 6.89366 25.5761 6.4682C25.1507 6.04274 24.5856 5.83002 23.8809 5.83002C23.2161 5.83002 22.6577 6.04274 22.2057 6.4682C21.7669 6.88036 21.4877 7.44543 21.3681 8.16339H26.2542Z" fill="#384047"/>
<path d="M37.9346 3.55647C39.1312 3.55647 40.0818 3.92875 40.7865 4.6733C41.5045 5.41785 41.8634 6.41502 41.8634 7.6648V14.4057H38.7922V8.56225C38.7922 7.88418 38.5994 7.35236 38.2138 6.96679C37.8415 6.56792 37.3296 6.36849 36.6782 6.36849C35.9203 6.38178 35.322 6.64769 34.8833 7.16622C34.4445 7.67145 34.2251 8.32293 34.2251 9.12067V14.4057H31.1539V3.67613H34.2251V5.55081C34.9697 4.24784 36.2062 3.58306 37.9346 3.55647Z" fill="#384047"/>
<path d="M51.1555 13.8074C50.7566 14.0467 50.3112 14.2328 49.8193 14.3658C49.3406 14.4854 48.8553 14.5453 48.3634 14.5453C47.3662 14.5453 46.5552 14.2594 45.9303 13.6877C45.3054 13.116 44.993 12.2983 44.993 11.2347V6.26877H43.4972V4.15477H44.993V1.20316H48.0443V4.15477H50.956V6.28871H48.0443V10.7161C48.0443 11.5405 48.3701 11.9526 49.0215 11.9526C49.4736 11.9526 49.9722 11.8197 50.5173 11.5538L51.1555 13.8074Z" fill="#384047"/>
<path d="M57.7742 3.57642C58.9043 3.57642 59.9015 3.80244 60.7657 4.25449C61.6432 4.70654 62.3213 5.34473 62.7999 6.16905C63.2785 6.99338 63.5178 7.95066 63.5178 9.04089C63.5178 10.1178 63.2785 11.0751 62.7999 11.9127C62.3213 12.7371 61.6432 13.3819 60.7657 13.8472C59.9015 14.2993 58.9043 14.5253 57.7742 14.5253C56.6307 14.5253 55.6203 14.2993 54.7428 13.8472C53.8786 13.3819 53.2071 12.7371 52.7285 11.9127C52.2499 11.0751 52.0105 10.1178 52.0105 9.04089C52.0105 7.95066 52.2499 6.99338 52.7285 6.16905C53.2071 5.34473 53.8786 4.70654 54.7428 4.25449C55.6203 3.80244 56.6307 3.57642 57.7742 3.57642ZM57.7742 6.12917C56.9764 6.12917 56.3249 6.40172 55.8197 6.94684C55.3278 7.49196 55.0818 8.20327 55.0818 9.08078C55.0818 9.95829 55.3278 10.6696 55.8197 11.2147C56.3249 11.7598 56.9764 12.0324 57.7742 12.0324C58.5586 12.0324 59.1968 11.7598 59.6887 11.2147C60.194 10.6696 60.4466 9.95829 60.4466 9.08078C60.4466 8.20327 60.194 7.49196 59.6887 6.94684C59.1968 6.40172 58.5586 6.12917 57.7742 6.12917Z" fill="#384047"/>
<path d="M68.6196 5.61064C68.9919 4.94586 69.4772 4.44063 70.0755 4.09494C70.6738 3.74926 71.3718 3.56977 72.1695 3.55647V6.44826C72.0632 6.43496 71.9036 6.42832 71.6909 6.42832C70.7469 6.42832 69.9957 6.68758 69.4373 7.2061C68.8922 7.71134 68.6196 8.38941 68.6196 9.24033V14.4057H65.5483V3.67613H68.6196V5.61064Z" fill="#384047"/>
<path d="M79.8281 0.445312C81.2507 0.445312 82.5204 0.744463 83.6373 1.34276C84.7541 1.92777 85.6183 2.75209 86.2299 3.81574C86.8548 4.86609 87.1672 6.06933 87.1672 7.42548C87.1672 8.78163 86.8481 9.99153 86.2099 11.0552C85.5851 12.1055 84.7076 12.9298 83.5774 13.5281C82.4473 14.1131 81.1576 14.4057 79.7084 14.4057H73.9049V0.445312H79.8281ZM79.9079 11.7532C80.679 11.7532 81.3704 11.5737 81.9819 11.2147C82.6068 10.8424 83.0921 10.3306 83.4378 9.67908C83.7835 9.0276 83.9563 8.28305 83.9563 7.44543C83.9563 6.60781 83.7702 5.85661 83.3979 5.19183C83.0389 4.52705 82.5404 4.01517 81.9022 3.65619C81.2773 3.28391 80.566 3.09778 79.7682 3.09778H77.0559V11.7532H79.9079Z" fill="#384047"/>
<path d="M93.7795 3.57642C95.5079 3.57642 96.8176 4.075 97.7084 5.07217C98.6125 6.06933 99.0645 7.45872 99.0645 9.24033C99.0645 9.55942 99.0579 9.80539 99.0446 9.97823H91.3464C91.5193 10.6563 91.8517 11.1881 92.3436 11.5737C92.8355 11.946 93.4272 12.1321 94.1186 12.1321C94.6238 12.1321 95.1091 12.039 95.5744 11.8529C96.0398 11.6535 96.4586 11.3676 96.8309 10.9953L98.4463 12.6307C97.9012 13.2423 97.2364 13.7143 96.4519 14.0467C95.6808 14.3658 94.8166 14.5253 93.8593 14.5253C92.7292 14.5253 91.7387 14.2993 90.8877 13.8472C90.0501 13.3952 89.3986 12.757 88.9333 11.9327C88.4812 11.1084 88.2552 10.1577 88.2552 9.08078C88.2552 7.99054 88.4879 7.03326 88.9532 6.20894C89.4186 5.37132 90.0701 4.72648 90.9077 4.27443C91.7453 3.80909 92.7026 3.57642 93.7795 3.57642ZM96.1727 8.16339C96.1461 7.45872 95.9201 6.89366 95.4947 6.4682C95.0692 6.04274 94.5041 5.83002 93.7995 5.83002C93.1347 5.83002 92.5763 6.04274 92.1242 6.4682C91.6855 6.88036 91.4063 7.44543 91.2866 8.16339H96.1727Z" fill="#384047"/>
<path d="M99.3917 3.67613H102.902L104.876 6.9269L106.97 3.67613H110.321L106.91 8.90129L110.56 14.4057H107.03L104.876 10.8956L102.523 14.4057H99.1324L102.842 8.92123L99.3917 3.67613Z" fill="#384047"/>
</svg>
